$ Generated by Mecway 33
$-----------------------EXECUTIVE CONTROL SECTION-----------------------
SOL 105
CEND
$-------------------------CASE CONTROL SECTION--------------------------
DISPLACEMENT = ALL
SPC = 1
SUBCASE 1
LOAD = 1
SUBCASE 2
METHOD = 1
BEGIN BULK
$---------------------------BULK DATA SECTION---------------------------
GRID           1       0   3.0+0  -1.0+0   4.0+1       0
GRID*                  2               0 2.17622071393+0-5.66910652432-1*
*                  4.0+1               0
GRID*                  3               0 2.03873841714+0 2.75637750168-1*
*                  4.0+1               0
GRID*                  4               0 2.59899868627+0 9.16077478375-1*
*                  4.0+1               0
GRID*                  5               0  3.4513615854+0 8.92341145094-1*
*                  4.0+1               0
GRID*                  6               0 3.97549841419+0 2.20006463322-1*
*                  4.0+1               0
GRID*                  7               0 3.78023111474+0-6.25491332948-1*
*                  4.0+1               0
GRID*                  8               0 2.08729981903+0 4.08629881021-1*
*                  0.0+0               0
GRID*                  9               0 2.10376958133+0-4.43588814845-1*
*                  0.0+0               0
GRID*                 10               0 2.83861786846+0-9.86891993898-1*
*                  0.0+0               0
GRID*                 11               0 3.67597060017+0-7.36928590638-1*
*                  0.0+0               0
GRID*                 12               0 3.99774200543+0 6.71631640186-2*
*                  0.0+0               0
GRID*                 13               0 3.58858707561+0 8.08433828105-1*
*                  0.0+0               0
GRID*                 14               0 2.75195322133+0 9.68748055788-1*
*                  0.0+0               0
GRID*                 15               0 2.19799833525+0-5.97321797471-1*
*        3.90095469456+1               0
GRID*                 16               0 2.98954082253+0-9.99945301307-1*
*        3.90104310583+1               0
GRID*                 17               0 2.03652788436+0 2.67808667495-1*
*        3.90388539448+1               0
GRID*                 18               0  2.6995294049+0 9.53791078528-1*
*        3.91128254962+1               0
GRID*                 19               0 3.83446969663+0-5.51053831676-1*
*        3.90982688858+1               0
GRID*                 20               0 3.48642178944+0 8.73724122797-1*
*        3.92395187959+1               0
GRID*                 21               0 3.96535517939+0 2.60939413709-1*
*        3.91872317384+1               0
GRID*                 22               0 2.12719920979+0-4.88076613465-1*
*        9.01988411877-1               0
GRID*                 23               0 2.06958652062+0 3.66511606068-1*
*          9.019804487-1               0
GRID*                 24               0 2.81083089645+0-9.81944525043-1*
*        9.03080191449-1               0
GRID*                 25               0 3.64100959292+0-7.67532866907-1*
*        9.03891100453-1               0
GRID*                 26               0 2.74986665721+0 9.68211397798-1*
*        9.02402079357-1               0
GRID*                 27               0 3.99562950336+0 9.33910704312-2*
*        9.03718001698-1               0
GRID*                 28               0 3.57933518594+0 8.15089407569-1*
*        9.02931710473-1               0
GRID*                 29               0 2.03400708268+0 2.58568528035-1*
*        3.80031500115+1               0
GRID*                 30               0 2.23446650334+0-6.43396040937-1*
*        3.79593089688+1               0
GRID*                 31               0 3.92467306292+0 3.80762034238-1*
*        3.84170937022+1               0
GRID*                 32               0 3.52388812338+0 8.51787082657-1*
*        3.85965910513+1               0
GRID*                 33               0 3.29237027658+0-9.56305192588-1*
*        3.78617151949+1               0
GRID*                 34               0 3.94812961492+0-3.17883993482-1*
*        3.82064814135+1               0
GRID*                 35               0  3.6257684644+0-7.80008864666-1*
*         1.8062034673+0               0
GRID*                 36               0 2.78961655288+0-9.77618946819-1*
*        1.80344105754+0               0
GRID*                 37               0 3.99589090981+0 9.05610057531-2*
*        1.80512506175+0               0
GRID*                 38               0 3.58582755852+0 8.10435729517-1*
*        1.80341480748+0               0
GRID*                 39               0  2.7717194084+0 9.73595383873-1*
*        1.80063313473+0               0
GRID*                 40               0 2.10871029699+0 4.53434300981-1*
*        1.79616381218+0               0
GRID*                 41               0 2.11786446466+0-4.70995644655-1*
*        1.79718408642+0               0
GRID*                 42               0 2.87755270022+0 9.92475016702-1*
*        3.80952709672+1               0
GRID*                 43               0 3.69494758985+0 7.19060392017-1*
*        3.76578345163+1               0
GRID*                 44               0 3.99978497601+0 2.07364834965-2*
*        3.74446238235+1               0
GRID*                 45               0  3.7907719464+0-6.12110879488-1*
*        3.73241232665+1               0
GRID*                 46               0 2.75343852028+0-9.69127151987-1*
*        2.70313648735+0               0
GRID*                 47               0 2.09642234851+0-4.28424354727-1*
*        2.68270077831+0               0
GRID*                 48               0 2.01433706026+0 1.68726314575-1*
*        3.69032614443+1               0
GRID*                 49               0  2.2718659628+0-6.85434769962-1*
*        3.69898034298+1               0
GRID*                 50               0 3.60606810866+0  7.9541275302-1*
*        2.70031940217+0               0
GRID*                 51               0 3.99759784627+0 6.92714739948-2*
*        2.70276331602+0               0
GRID*                 52               0 2.12711849077+0 4.87932240021-1*
*        2.68149598448+0               0
GRID*                 53               0 2.79534909057+0 9.78835024541-1*
*        2.69685598456+0               0
GRID*                 54               0 2.68672847262+0 9.49663598402-1*
*        3.67674330679+1               0
GRID*                 55               0 3.60683556594+0-7.94827400075-1*
*        2.70630330135+0               0
GRID*                 56               0 3.57997838425+0 8.14631863977-1*
*        3.66363676945+1               0
GRID*                 57               0 3.99853757321+0  5.4062139091-2*
*        3.65824316084+1               0
GRID*                 58               0 3.73858988376+0-6.74155014528-1*
*        3.70497093201+1               0
GRID*                 59               0 3.10446143645+0-9.94528937887-1*
*        3.70349289364+1               0
GRID*                 60               0  2.1471446951+0 5.22147324901-1*
*        3.54424991185+0               0
GRID*                 61               0 2.82509543121+0  9.8458539082-1*
*        3.61190052445+0               0
GRID*                 62               0 3.65916503493+0 7.51998308992-1*
*        3.59170538403+0               0
GRID*                 63               0  3.9999438915+0 1.05931037003-2*
*        3.59661595467+0               0
GRID*                 64               0 2.04358406029+0-2.92007791455-1*
*        3.53114213519+0               0
GRID*                 65               0 3.56777374307+0-8.23184655272-1*
*        3.61572209533+0               0
GRID*                 66               0 2.67313750663+0-9.45071907544-1*
*        3.61925840205+0               0
GRID*                 67               0 2.40619205346+0 8.04606812441-1*
*        3.54439545632+1               0
GRID*                 68               0 2.00635901497+0-1.12594817227-1*
*        3.58823185192+1               0
GRID*                 69               0 2.45808610201+0-8.40434011187-1*
*        3.60883339064+1               0
GRID*                 70               0 3.32174425513+0-9.46826612581-1*
*        3.62565934315+1               0
GRID*                 71               0 3.51188503384+0 8.59053963456-1*
*        3.54932195044+1               0
GRID*                 72               0 3.57481647439+0-8.18282360048-1*
*        3.53500957401+1               0
GRID*                 73               0 2.69167633656+0-9.51281513835-1*
*        3.52296221077+1               0
GRID*                 74               0 3.99400296342+0 1.09353137623-1*
*         3.5458808147+1               0
GRID*                 75               0 2.06970238584+0-3.66805601226-1*
*        3.50948718613+1               0
GRID*                 76               0 2.03356568724+0 2.56913835974-1*
*        3.49248902367+1               0
GRID*                 77               0 3.98878704044+0-1.49332476917-1*
*        4.47959920355+0               0
GRID*                 78               0 3.48859662485+0-8.72509792602-1*
*        4.56608096943+0               0
GRID*                 79               0 2.13485199861+0  5.0151663551-1*
*        4.36494038599+0               0
GRID*                 80               0 2.82733609132+0 9.84980799122-1*
*        4.72126813083+0               0
GRID*                 81               0 3.79423381483+0 6.07612250852-1*
*        4.43850024686+0               0
GRID*                 82               0 3.64793969394+0 7.61691639058-1*
*        5.12656994676+0               0
GRID*                 83               0 2.40317905971+0-8.02374454497-1*
*        4.69813596233+0               0
GRID*                 84               0 2.01240821716+0-1.57042893704-1*
*        4.28142624128+0               0
GRID*                 85               0  2.0234955871+0-2.15497405048-1*
*        5.16671296553+0               0
GRID*                 86               0 3.98644563256+0-1.64088433473-1*
*        5.33962668996+0               0
GRID*                 87               0 3.44928780858+0-8.93387074597-1*
*        5.50286305386+0               0
GRID*                 88               0 2.05287356009+0 3.20860572234-1*
*        4.94293749003+0               0
GRID*                 89               0 2.47215328645+0-8.49339653495-1*
*        5.67132191594+0               0
GRID*                 90               0 3.61920687081+0 7.85227897586-1*
*        6.09566545167+0               0
GRID*                 91               0 2.45011252647+0-8.35238748178-1*
*        6.62989643715+0               0
GRID*                 92               0 3.97711120105+0 -2.1272917238-1*
*        6.30876482055+0               0
GRID*                 93               0 2.43419665856+0 8.24540222678-1*
*        5.61652720556+0               0
GRID*                 94               0 3.33109492794+0-9.43597450554-1*
*        6.46535391849+0               0
GRID*                 95               0 2.13297544166+0-4.98265406413-1*
*         3.4308342389+1               0
GRID*                 96               0 2.81525489225+0 -9.8278646977-1*
*        3.43707854523+1               0
GRID*                 97               0 2.04629014696+0 3.00728309628-1*
*        3.42643935893+1               0
GRID*                 98               0 2.65485837893+0 9.38550617392-1*
*        3.44065890016+1               0
GRID*                 99               0 3.52621494938+0 8.50351590253-1*
*        3.44730162133+1               0
GRID*                100               0  3.9893555346+0 1.45518473558-1*
*        3.44749961828+1               0
GRID*                101               0 3.72161885548+0-6.92290565747-1*
*        3.44333009869+1               0
GRID*                102               0 2.01148569696+0-1.51127339294-1*
*        5.83561426749+0               0
GRID*                103               0 2.00256803712+0-7.16203842053-2*
*        6.82827091728+0               0
GRID*                104               0 3.53176592956+0 8.46891372114-1*
*        3.35440979681+1               0
GRID*                105               0 2.69255123726+0 9.51564636948-1*
*        3.35135928995+1               0
GRID*                106               0 2.04302189704+0 2.90160146231-1*
*        3.34709964434+1               0
GRID*                107               0 2.15799703877+0-5.39472903198-1*
*        3.34781134526+1               0
GRID*                108               0  3.9863586023+0 1.64610776312-1*
*        3.35477199908+1               0
GRID*                109               0 3.75569602862+0-6.54922523913-1*
*        3.35306271333+1               0
GRID*                110               0 2.86358692251+0-9.90652044004-1*
*        3.35021495384+1               0
GRID*                111               0 3.94567830747+0-3.25103889217-1*
*        7.34614145055+0               0
GRID*                112               0 3.28828881862+0-9.57543501393-1*
*        7.44143651735+0               0
GRID*                113               0 2.65489552865+0 9.38564277956-1*
*        6.97419992093+0               0
GRID*                114               0 2.44478100144+0-8.31704192386-1*
*        7.64734102014+0               0
GRID*                115               0 2.00000071799+0 1.19832552999-3*
*        8.00192174873+0               0
GRID*                116               0 3.77489530562+0 6.32089602296-1*
*        7.46535521218+0               0
GRID*                117               0 3.85793206931+0-5.13763140408-1*
*        8.15527155697+0               0
GRID*                118               0 3.30321628731+0-9.52921761273-1*
*        8.32535204124+0               0
GRID*                119               0 3.41365820523+0 9.10432254066-1*
*        8.17576805542+0               0
GRID*                120               0 2.61193635275+0 9.21632576294-1*
*        7.92343579737+0               0
GRID*                121               0 2.69503272739+0 9.52362831403-1*
*        3.26347634797+1               0
GRID*                122               0 2.04029841489+0  2.8102111581-1*
*        3.26208553301+1               0
GRID*                123               0 2.16872465615+0-5.55860866323-1*
*        3.26195993373+1               0
GRID*                124               0 3.52728030987+0  8.4969139976-1*
*        3.26443582966+1               0
GRID*                125               0  2.5490185731+0-8.92533334162-1*
*        8.53605235246+0               0
GRID*                126               0 2.88347781237+0-9.93188088828-1*
*        3.26264731287+1               0
GRID*                127               0 3.98410844652+0 1.77568481104-1*
*        3.26446476801+1               0
GRID*                128               0 3.76813595115+0-6.40286779925-1*
*        3.26367316723+1               0
GRID*                129               0 2.11994238978+0 4.74866931559-1*
*        8.65754226381+0               0
GRID*                130               0 2.08931602355+0-4.13103733997-1*
*        8.72887386461+0               0
GRID*                131               0 2.67858558673+0 9.46938633144-1*
*        3.17589266578+1               0
GRID*                132               0 2.03694616328+0 2.69308944469-1*
*         3.1754321907+1               0
GRID*                133               0  3.5088034371+0 8.60882722785-1*
*        3.17572232513+1               0
GRID*                134               0 2.17632984506+0-5.67069198479-1*
*        3.17482082305+1               0
GRID*                135               0 3.98026338618+0  1.9769596283-1*
*        3.17518044605+1               0
GRID*                136               0 3.77891827594+0-6.27125441525-1*
*        3.17461392069+1               0
GRID*                137               0 2.89734319197+0-9.94716833961-1*
*        3.17446438233+1               0
GRID*                138               0   3.967054194+0-2.54570591145-1*
*        9.16304143533+0               0
GRID*                139               0 3.52113043578+0-8.53477046502-1*
*        9.10261248353+0               0
GRID*                140               0  2.5692898621+0 9.02490319677-1*
*        8.57699923918+0               0
GRID*                141               0 2.00387964387+0 8.80013414911-2*
*        8.90346756392+0               0
GRID*                142               0 2.70331706572+0-9.54976039757-1*
*        9.59725398331+0               0
GRID*                143               0 3.10270717836+0 9.94711634351-1*
*        8.61736902103+0               0
GRID*                144               0 2.11046679786+0-4.56870531217-1*
*        9.61997179418+0               0
GRID*                145               0 3.45508471522+0 8.90448146708-1*
*        3.08792946523+1               0
GRID*                146               0 2.62730066746+0 9.27952157992-1*
*        3.08957627837+1               0
GRID*                147               0 2.68561555598+0 9.49295750204-1*
*        9.19384486367+0               0
GRID*                148               0 3.29534325652+0 9.55391208265-1*
*        9.11948606876+0               0
GRID*                149               0 2.03072787927+0 2.45990967262-1*
*        3.08917076384+1               0
GRID*                150               0  3.9698399661+0 2.43742569425-1*
*        3.08616849356+1               0
GRID*                151               0 2.18716631348+0-5.82495835235-1*
*        3.08744076432+1               0
GRID*                152               0 3.80015460781+0-5.99793800898-1*
*        3.08515208612+1               0
GRID*                153               0 2.91993491255+0-9.96789637672-1*
*         3.0856921412+1               0
GRID*                154               0 3.61775813413+0-7.86368162957-1*
*        9.83927022133+0               0
GRID*                155               0 3.14930730519+0-9.88790841693-1*
*        1.00563362784+1               0
GRID*                156               0 2.48554769955+0-8.57518997203-1*
*        1.02360375734+1               0
GRID*                157               0 2.20308055557+0 6.04085589209-1*
*          9.257122632+0               0
GRID*                158               0 2.01534497255+0 1.74512111116-1*
*        9.33746466478+0               0
GRID*                159               0 2.12397134464+0-4.82259053815-1*
*        1.03230082854+1               0
GRID*                160               0  2.7565110068+0 9.69903660262-1*
*        9.90079499012+0               0
GRID*                161               0 3.52772505151+0 8.49415251813-1*
*        9.97524404843+0               0
GRID*                162               0 2.48593639251+0 8.57752066424-1*
*        3.00711055254+1               0
GRID*                163               0 2.02029551507+0 2.00447305302-1*
*        3.00467319212+1               0
GRID*                164               0 3.28979866729+0 9.57087630489-1*
*        3.00197783251+1               0
GRID*                165               0 2.20560719788+0-6.07404375963-1*
*        3.00004067499+1               0
GRID*                166               0 3.93766179274+0 3.47549079177-1*
*        2.99668105891+1               0
GRID*                167               0 2.97627729379+0-9.99718577005-1*
*        2.99521567867+1               0
GRID*                168               0 3.85151751011+0-5.24326167551-1*
*        2.99396596691+1               0
GRID*                169               0 3.77442577946+0 6.32664770713-1*
*        8.79642374854+0               0
GRID*                170               0 3.99231305736+0 1.23752964392-1*
*        8.42747584276+0               0
GRID*                171               0 3.80322200784+0-5.95679784883-1*
*        1.06597841119+1               0
GRID*                172               0 3.21265775956+0 -9.7712674577-1*
*        1.08093341251+1               0
GRID*                173               0 3.99734375859+0-7.28383635378-2*
*        1.00934578279+1               0
GRID*                174               0 3.94807525865+0 3.18046072048-1*
*        9.50428923766+0               0
GRID*                175               0 3.90628145463+0 4.22674727166-1*
*        1.05934069718+1               0
GRID*                176               0 2.00498882628+0 9.97635412511-2*
*        9.80384409032+0               0
GRID*                177               0 2.21640159333+0 6.21267685512-1*
*        9.86709294805+0               0
GRID*                178               0 2.57291906145+0-9.04213399553-1*
*        1.09417958157+1               0
GRID*                179               0 2.16004008167+0-5.42648445675-1*
*        1.10510120077+1               0
GRID*                180               0  2.0025450275+0 7.12992133683-2*
*        1.04452506793+1               0
GRID*                181               0 2.19925643743+0 5.99007301296-1*
*        1.05378370703+1               0
GRID*                182               0 3.11454116478+0 9.93418502732-1*
*        2.91695324315+1               0
GRID*                183               0  2.4043727275+0 8.03260949039-1*
*        2.93332219278+1               0
GRID*                184               0 2.01549743742+0 1.75370192071-1*
*        2.92173617624+1               0
GRID*                185               0  3.8140944188+0 5.80732535068-1*
*        2.90546289435+1               0
GRID*                186               0  2.2252080002+0-6.32216226502-1*
*        2.91165715303+1               0
GRID*                187               0 3.16676136415+0-9.85997285709-1*
*        2.89958980161+1               0
GRID*                188               0 3.96016486645+0-2.79434123244-1*
*        2.89847460965+1               0
GRID*                189               0 2.68783491143+0 9.50027871949-1*
*        1.06318799428+1               0
GRID*                190               0 3.27475029125+0 9.61515614777-1*
*        1.07970579481+1               0
GRID*                191               0 3.73256121301+0-6.80701159973-1*
*        1.15251517062+1               0
GRID*                192               0 3.22026874096+0-9.75439225045-1*
*        1.15979861111+1               0
GRID*                193               0 2.65415757016+0  -9.382926056-1*
*        1.17062845821+1               0
GRID*                194               0 3.99511012022+0-9.87716996175-2*
*         1.1044953155+1               0
GRID*                195               0  3.9091736469+0-4.16417194396-1*
*        9.70302357579+0               0
GRID*                196               0 2.18700919838+0-5.82276529226-1*
*        1.18181999379+1               0
GRID*                197               0 2.58719955628+0 9.10821493853-1*
*        1.12896392849+1               0
GRID*                198               0 3.07616695338+0 9.97095078322-1*
*        1.13135509682+1               0
GRID*                199               0 3.68661679989+0-7.27019511505-1*
*        1.21734937549+1               0
GRID*                200               0 3.22546351038+0-9.74251613028-1*
*        1.23495135415+1               0
GRID*                201               0 2.72658061696+0 9.61894922004-1*
*        2.82375052927+1               0
GRID*                202               0  2.0419611011+0 2.86638218299-1*
*        2.84171302669+1               0
GRID*                203               0 3.55559195607+0 8.31455097016-1*
*        2.80764543686+1               0
GRID*                204               0 3.97760808589+0-2.10433909822-1*
*        1.15766823117+1               0
GRID*                205               0  2.6878074211+0-9.50018838593-1*
*        1.24900809275+1               0
GRID*                206               0  3.6857882994+0 7.27801077501-1*
*        1.12298662089+1               0
GRID*                207               0  3.9959489206+0 8.99207849179-2*
*        2.79271630897+1               0
GRID*                208               0 2.00016375954+0-1.80967473754-2*
*        1.11539676385+1               0
GRID*                209               0 2.16776501465+0 5.54423059732-1*
*        1.12387591405+1               0
GRID*                210               0  2.2217448565+0-6.27948191827-1*
*        2.82006429871+1               0
GRID*                211               0 3.96729227558+0-2.53664450789-1*
*        1.22666151743+1               0
GRID*                212               0 3.96002735176+0 2.79906205502-1*
*        1.16054266232+1               0
GRID*                213               0 2.20139838877+0-6.01860005768-1*
*        1.26291171024+1               0
GRID*                214               0 2.69940966043+0 9.53753347443-1*
*        1.20117607042+1               0
GRID*                215               0 3.37602754013+0 9.26608487477-1*
*         1.1905708486+1               0
GRID*                216               0 3.98856368426+0-1.50803985872-1*
*        2.62640538904+1               0
GRID*                217               0 3.80662283667+0 5.91066493185-1*
*        2.67878135937+1               0
GRID*                218               0 3.16103884804+0  9.8694806825-1*
*        2.70803450184+1               0
GRID*                219               0 2.00105160537+0-4.58487170673-2*
*         1.1919272357+1               0
GRID*                220               0 2.17538942834+0 5.65700808829-1*
*        1.19953833179+1               0
GRID*                221               0 2.40778079764+0 8.05776902345-1*
*        2.72737237349+1               0
GRID*                222               0 3.89680892101+0-4.42418081903-1*
*        1.31992638534+1               0
GRID*                223               0 3.38220211847+0-9.24078752401-1*
*        1.30488810852+1               0
GRID*                224               0 2.00862330913+0 1.31042957861-1*
*        2.73641758086+1               0
GRID*                225               0 3.30588003304+0-9.52070063278-1*
*        2.78057660527+1               0
GRID*                226               0 2.15753760647+0-5.38755153556-1*
*        2.73679119407+1               0
GRID*                227               0  2.8101819053+0-9.81819276102-1*
*        2.65974966318+1               0
GRID*                228               0 2.00331237118+0-8.13250917453-2*
*        2.66838310091+1               0
GRID*                229               0  2.1669831358+0 5.53247597337-1*
*        2.64510244079+1               0
GRID*                230               0  2.7283834748+0 9.62405560685-1*
*        2.62374564083+1               0
GRID*                231               0 3.67752609605+0-7.35498734987-1*
*        2.55217184826+1               0
GRID*                232               0 3.93206473925+0 3.62291763417-1*
*         1.2244180086+1               0
GRID*                233               0 2.74672822096+0 -9.6739516535-1*
*        1.33089950987+1               0
GRID*                234               0  2.2152284038+0-6.19785077096-1*
*        1.34897744358+1               0
GRID*                235               0 3.33047386427+0 9.43815143464-1*
*        2.59911832156+1               0
GRID*                236               0 3.80635790082+0 5.91427878772-1*
*        2.52146670689+1               0
GRID*                237               0 2.00163586581+0-5.71756554085-2*
*        1.27552235953+1               0
GRID*                238               0 2.18029933602+0 5.72792127629-1*
*        1.28681809131+1               0
GRID*                239               0 3.99382287457+0-1.10977898592-1*
*        2.47424741595+1               0
GRID*                240               0 3.85416765175+0-5.19997714126-1*
*        1.41017624068+1               0
GRID*                241               0 3.34827790084+0-9.37391329053-1*
*        1.41615618675+1               0
GRID*                242               0 2.73155780347+0   9.632957942-1*
*        1.29768671475+1               0
GRID*                243               0 3.38881293054+0 9.21316723523-1*
*        1.31196291186+1               0
GRID*                244               0 2.74384341895+0-9.66635301437-1*
*        1.42885759567+1               0
GRID*                245               0 2.01208512675+0 1.54997429671-1*
*        2.55252290668+1               0
GRID*                246               0 2.35323351873+0-7.62688087426-1*
*        2.56281248815+1               0
GRID*                247               0   3.957185906+0 2.89473904438-1*
*        1.33690291581+1               0
GRID*                248               0 3.31498619935+0-9.49096251293-1*
*        2.47515296641+1               0
GRID*                249               0 3.99491718704+0 1.00696528857-1*
*        1.40883957105+1               0
GRID*                250               0 3.83733087824+0-5.46696442589-1*
*        2.42007699717+1               0
GRID*                251               0 2.43566602104+0 8.25546582693-1*
*        2.54168104491+1               0
GRID*                252               0 3.16379288188+0 9.86494750035-1*
*        2.53003491917+1               0
GRID*                253               0 2.21718154201+0-6.22250160165-1*
*        1.44225346092+1               0
GRID*                254               0 2.00406346155+0-9.00578224189-2*
*        2.44851656387+1               0
GRID*                255               0 2.39342434464+0-7.95025769601-1*
*        2.42899056726+1               0
GRID*                256               0 2.00227750874+0-6.74524309415-2*
*          1.363742839+1               0
GRID*                257               0 2.17673833616+0 5.67662076286-1*
*        1.37698286335+1               0
GRID*                258               0 3.12156998467+0-9.92582862449-1*
*        2.39345591912+1               0
GRID*                259               0 2.24674662325+0 6.57730454221-1*
*        2.45288138323+1               0
GRID*                260               0 3.85479912288+0-5.18959015271-1*
*        1.49446776666+1               0
GRID*                261               0 3.35577433668+0-9.34571892025-1*
*        1.50686149391+1               0
GRID*                262               0 2.91108957633+0    9.96039626-1*
*        2.45004487289+1               0
GRID*                263               0 2.70997608167+0 9.57019397294-1*
*        1.38998436762+1               0
GRID*                264               0  3.3144019862+0 9.49289940468-1*
*         1.4043608837+1               0
GRID*                265               0 3.58996419887+0 8.07429404998-1*
*        2.44014650442+1               0
GRID*                266               0 2.75023924003+0-9.68307576536-1*
*        1.52090445773+1               0
GRID*                267               0 3.94635332316+0 3.23133699499-1*
*        2.41134247469+1               0
GRID*                268               0 3.79708158116+0 6.03871636171-1*
*        1.42140642132+1               0
GRID*                269               0 3.63906403423+0-7.69153534836-1*
*        2.36210664936+1               0
GRID*                270               0 3.99726791439+0 7.38695263202-2*
*        1.47726063101+1               0
GRID*                271               0 2.01062111861+0-1.45359654179-1*
*        2.35661423501+1               0
GRID*                272               0 2.37870395973+0-7.83575925066-1*
*        2.34002531289+1               0
GRID*                273               0 2.21863161032+0-6.24070059855-1*
*        1.53455624596+1               0
GRID*                274               0 3.99297163296+0-1.18352592397-1*
*        2.37595893296+1               0
GRID*                275               0 2.19324527785+0 5.90886468186-1*
*        2.36691074399+1               0
GRID*                276               0 3.01017199175+0-9.99948263954-1*
*        2.32041425231+1               0
GRID*                277               0 2.00245421224+0 -7.0017150131-2*
*        1.45513378837+1               0
GRID*                278               0 2.17583156748+0 5.66344766755-1*
*        1.46703681385+1               0
GRID*                279               0 3.94394494079+0-3.30102936605-1*
*        1.56950075824+1               0
GRID*                280               0  3.3933314359+0-9.19396748707-1*
*        1.59580354781+1               0
GRID*                281               0  2.8106036509+0 9.81900719496-1*
*        2.37394258679+1               0
GRID*                282               0 2.70707287113+0 9.56134769356-1*
*        1.47740147359+1               0
GRID*                283               0 3.31162682957+0 9.50204566971-1*
*        1.48520495862+1               0
GRID*                284               0 2.76180389796+0-9.71217080252-1*
*        1.61361493425+1               0
GRID*                285               0  2.2193348672+0-6.24949558313-1*
*        1.62805656136+1               0
GRID*                286               0 3.88948853178+0 4.56957494549-1*
*        1.57559032922+1               0
GRID*                287               0 3.81085098238+0 5.85252667115-1*
*        1.48769390061+1               0
GRID*                288               0 2.01166473828+0  -1.522938293-1*
*        2.26953860575+1               0
GRID*                289               0 2.35266715272+0-7.62207442129-1*
*        2.25822896802+1               0
GRID*                290               0 3.45294252921+0 8.91539716017-1*
*        2.38031355001+1               0
GRID*                291               0 3.97538150911+0 2.20524174846-1*
*        2.33679052988+1               0
GRID*                292               0 3.79698641226+0 6.03997233999-1*
*         2.3564916067+1               0
GRID*                293               0 3.52983481435+0-8.48100860453-1*
*        2.30276833275+1               0
GRID*                294               0 2.91305100119+0-9.96212764225-1*
*        2.24810118585+1               0
GRID*                295               0 2.00236548472+0-6.87413551992-2*
*        1.54722594919+1               0
GRID*                296               0 2.18081130659+0 5.73524092418-1*
*        1.55861327957+1               0
GRID*                297               0 2.18085558394+0 5.73587330434-1*
*        2.28013128769+1               0
GRID*                298               0 2.80692174466+0   9.811833607-1*
*         2.2909255609+1               0
GRID*                299               0 2.73406806261+0 9.63991807369-1*
*         1.5678929438+1               0
GRID*                300               0 3.37294059136+0 9.27855223254-1*
*        1.57395922505+1               0
GRID*                301               0 3.88487556458+0-4.65827473656-1*
*        1.68926671846+1               0
GRID*                302               0   3.363946913+0-9.31419693005-1*
*        1.70076773846+1               0
GRID*                303               0 3.57003652276+0 8.21619353907-1*
*        2.30304122752+1               0
GRID*                304               0 3.95849651246+0 2.85104253913-1*
*         1.6809503728+1               0
GRID*                305               0 3.48546555784+0-8.74255793319-1*
*        2.24004773267+1               0
GRID*                306               0  2.0129827756+0-1.60614441259-1*
*        2.18027778954+1               0
GRID*                307               0 2.35718487098+0-7.66021350812-1*
*        2.17454008109+1               0
GRID*                308               0 3.99504105947+0-9.94650188263-2*
*        2.31862215636+1               0
GRID*                309               0 3.91297616868+0 4.08012886352-1*
*        2.28769742299+1               0
GRID*                310               0  2.7490757841+0-9.68006734417-1*
*        1.71149522346+1               0
GRID*                311               0 2.21654846002+0-6.21452881968-1*
*        1.72248803794+1               0
GRID*                312               0 2.00210845977+0-6.49035741143-2*
*        1.64122194077+1               0
GRID*                313               0 2.18991825643+0 5.86316952452-1*
*        1.65357398414+1               0
GRID*                314               0 2.17359496281+0 5.63076117859-1*
*        2.18966563972+1               0
GRID*                315               0 2.78156836364+0 9.75852253282-1*
*        2.20206329163+1               0
GRID*                316               0 2.78257393034+0  9.7607679218-1*
*        1.66442415267+1               0
GRID*                317               0  3.5013591229+0 8.65239290534-1*
*        1.67320454303+1               0
GRID*                318               0 3.86233303533+0-5.06341521278-1*
*        2.28901101953+1               0
GRID*                319               0 3.48340293157+0 8.75397969923-1*
*        2.21557604735+1               0
GRID*                320               0 3.86588171579+0-5.00248792371-1*
*        1.79431640687+1               0
GRID*                321               0 3.34323093663+0-9.39251044259-1*
*        1.79892784025+1               0
GRID*                322               0 2.92261906338+0-9.97001600123-1*
*        2.17271592701+1               0
GRID*                323               0 3.97255307136+0 2.32681162502-1*
*        1.78741560004+1               0
GRID*                324               0 2.01747164719+0-1.86112965488-1*
*         2.0807929519+1               0
GRID*                325               0  2.4044742657+0-8.03336230845-1*
*        2.08305326028+1               0
GRID*                326               0 3.99685687641+0 -7.9223531515-2*
*        2.28105143874+1               0
GRID*                327               0 2.73679294026+0-9.64739365686-1*
*        1.80278356195+1               0
GRID*                328               0 3.88672810448+0 4.62291324526-1*
*        2.22409438617+1               0
GRID*                329               0 3.50528429863+0-8.62952940524-1*
*         2.1740304135+1               0
GRID*                330               0  2.2177619138+0-6.22979595566-1*
*        1.80828009354+1               0
GRID*                331               0 3.05372603128+0  -9.985557138-1*
*        2.09163192533+1               0
GRID*                332               0 2.00208528976+0-6.45463483268-2*
*        1.73629220066+1               0
GRID*                333               0 2.19355520341+0  5.9130938607-1*
*        1.75140844939+1               0
GRID*                334               0 2.16945892207+0  5.5695737528-1*
*        2.09039574664+1               0
GRID*                335               0 2.80466297367+0 9.80736175607-1*
*         1.7655705187+1               0
GRID*                336               0  3.5409986139+0 8.41023483478-1*
*          1.777534156+1               0
GRID*                337               0 2.78569293209+0 9.76766338816-1*
*        2.10664440789+1               0
GRID*                338               0  3.8493588717+0-5.27815788949-1*
*        2.23442386297+1               0
GRID*                339               0 3.84814210591+0-5.29768787479-1*
*        1.89910694712+1               0
GRID*                340               0 3.30595223582+0-9.52046863025-1*
*        1.89372951176+1               0
GRID*                341               0   2.706593065+0-9.55987641391-1*
*        1.88557577565+1               0
GRID*                342               0 3.99751772854+0-7.04157741297-2*
*        2.23081481178+1               0
GRID*                343               0 3.50004266786+0 8.66000768082-1*
*        2.12828014574+1               0
GRID*                344               0  2.0337537197+0-2.57620119198-1*
*        1.93388351335+1               0
GRID*                345               0 2.48863304078+0-8.59362457303-1*
*        1.97134095199+1               0
GRID*                346               0 3.97857047438+0 2.05912181924-1*
*        1.89914332043+1               0
GRID*                347               0 3.60727464445+0-7.94491979949-1*
*         2.1059286597+1               0
GRID*                348               0 3.90605334377+0 4.23163488795-1*
*        2.15432758337+1               0
GRID*                349               0  2.0040659483+0-9.00853187581-2*
*        1.82974282329+1               0
GRID*                350               0 2.18527109795+0 5.79842061392-1*
*        1.85265607848+1               0
GRID*                351               0 2.16238447113+0 5.46260218019-1*
*        1.96609202786+1               0
GRID*                352               0 2.80692248442+0  9.8118350627-1*
*        1.87221267327+1               0
GRID*                353               0 3.55440102419+0 8.32249664689-1*
*          1.887950109+1               0
GRID*                354               0 3.19049976239+0-9.81687241706-1*
*        1.99397937249+1               0
GRID*                355               0 3.86131433798+0-5.08072446793-1*
*        2.17677978959+1               0
GRID*                356               0 2.80115276341+0  9.8003049774-1*
*        1.99185581848+1               0
GRID*                357               0 3.79447664243+0-6.07294709867-1*
*         2.0176123633+1               0
GRID*                358               0 3.56782426419+0 8.23149807145-1*
*        2.01915348217+1               0
GRID*                359               0 3.99541192624+0-9.56822715903-2*
*         2.1812530409+1               0
GRID*                360               0 3.99133656419+0 1.31346170505-1*
*        2.05600575551+1               0
GRID*                361               0 3.90810111038+0-4.18750968142-1*
*        2.33602051285+1               0
GRID*                362               0 3.92244038802+0 -3.8613952214-1*
*        2.12778110551+1               0
GRID*                363               0 2.26198952923+0-6.74789259719-1*
*        1.87487248259+1               0
GRID*                364               0 2.80296765033+0-1.08481978448-1*
*                  4.0+1               0
GRID*                365               0   3.079049669+0 2.72952682728-1*
*                  4.0+1               0
GRID*                366               0 3.47586669037+0 1.76241379235-2*
*                  4.0+1               0
GRID         367       0   3.0+0   0.0+0   0.0+0       0
PARAM   QUAD4TYP  MITC4+
PARAM    STR_CID      -2
$--1---><--2---><--3---><--4---><--5---><--6---><--7---><--8---><--9---><--10-->
$$$$$$$$$$$$$$$$$$$$$$$$$$$$$$$$$$$ Material $$$$$$$$$$$$$$$$$$$$$$$$$$$$$$$$$$$
MAT1*                  1          2.0+11 7.6923076923+10           3.0-1*
*                  0.0+0           0.0+0           0.0+0
$--1---><--2---><--3---><--4---><--5---><--6---><--7---><--8---><--9---><--10-->
SPC            1       1       1   0.0+0
SPC            1       1       2   0.0+0
SPC            1       2       1   0.0+0
SPC            1       2       2   0.0+0
SPC            1       3       1   0.0+0
SPC            1       3       2   0.0+0
SPC            1       4       1   0.0+0
SPC            1       4       2   0.0+0
SPC            1       5       1   0.0+0
SPC            1       5       2   0.0+0
SPC            1       6       1   0.0+0
SPC            1       6       2   0.0+0
SPC            1       7       1   0.0+0
SPC            1       7       2   0.0+0
SPC            1     364       1   0.0+0
SPC            1     364       2   0.0+0
SPC            1     365       1   0.0+0
SPC            1     365       2   0.0+0
SPC            1     366       1   0.0+0
SPC            1     366       2   0.0+0
SPC            1     367     123   0.0+0
$--1---><--2---><--3---><--4---><--5---><--6---><--7---><--8---><--9---><--10-->
$$$$$$$$$$$$$$$$$$$$$$$$$$$$$$$$$$$ Default $$$$$$$$$$$$$$$$$$$$$$$$$$$$$$$$$$$$
PSHELL         1       1   1.0-1       1               1           0.0+0
CQUAD4*                1               1               1               2*
*                     15              16-3.4720848203-18           0.0+0
CQUAD4*                2               1               2               3*
*                     17              15  1.488617598-18           0.0+0
CQUAD4*                3               1               3               4*
*                     18              17-2.9723015714-16           0.0+0
CQUAD4*                4               1               7               1*
*                     16              19 6.2486987917-17           0.0+0
CQUAD4*                5               1               4               5*
*                     20              18 5.8227651614-18           0.0+0
CQUAD4*                6               1               5               6*
*                     21              20-1.1909210386-16           0.0+0
CQUAD4*                7               1               6               7*
*                     19              21-6.3947125521-18           0.0+0
CQUAD4*                8               1               8               9*
*                     22              23 1.5140616032-19           0.0+0
CQUAD4*                9               1               9              10*
*                     24              22-6.9380100599-17           0.0+0
CQUAD4*               10               1              10              11*
*                     25              24-1.6222782566-17           0.0+0
CQUAD4*               11               1              14               8*
*                     23              26 3.5205102124-17           0.0+0
CQUAD4*               12               1              11              12*
*                     27              25-2.0184961777-17           0.0+0
CQUAD4*               13               1              12              13*
*                     28              27-1.6299301783-19           0.0+0
CQUAD4*               14               1              13              14*
*                     26              28 -2.074955999-18           0.0+0
CQUAD4*               15               1              15              17*
*                     29              30 6.9619317769-18           0.0+0
CQUAD4        16       1      20      21      31      32   0.0+0   0.0+0
CQUAD4*               17               1              19              16*
*                     33              34-4.0551117049-16           0.0+0
CQUAD4*               18               1              21              19*
*                     34              31-7.6681426659-16           0.0+0
CQUAD4*               19               1              24              25*
*                     35              36-6.7700099514-18           0.0+0
CQUAD4*               20               1              15              30*
*                     33              16 4.3678575759-16           0.0+0
CQUAD4        21       1      35      25      27      37   0.0+0   0.0+0
CQUAD4*               22               1              37              27*
*                     28              38-1.2357314076-17           0.0+0
CQUAD4*               23               1              38              28*
*                     26              39 9.2905298936-17           0.0+0
CQUAD4*               24               1              39              26*
*                     23              40 2.8003404845-16           0.0+0
CQUAD4*               25               1              24              36*
*                     41              22-5.9028370331-17           0.0+0
CQUAD4*               26               1              40              23*
*                     22              41 8.0259184993-16           0.0+0
CQUAD4*               27               1              29              17*
*                     18              42 2.9062975363-16           0.0+0
CQUAD4        29       1      31      34      44      43   0.0+0   0.0+0
CQUAD4*               30               1              34              33*
*                     45              44 1.0551727234-15           0.0+0
CQUAD4*               31               1              41              36*
*                     46              47-1.5339333048-17           0.0+0
CQUAD4*               32               1              30              29*
*                     48              49 4.9809212149-17           0.0+0
CQUAD4*               33               1              37              38*
*                     50              51 4.4645602745-17           0.0+0
CQUAD4*               34               1              40              41*
*                     47              52-2.1974339857-19           0.0+0
CQUAD4*               35               1              38              39*
*                     53              50 2.5597287564-17           0.0+0
CQUAD4*               36               1              29              42*
*                     54              48-6.2835808365-16           0.0+0
CQUAD4        37       1      39      40      52      53   0.0+0   0.0+0
CQUAD4*               38               1              46              36*
*                     35              55  6.413198703-17           0.0+0
CQUAD4*               39               1              37              51*
*                     55              35-3.9923673454-17           0.0+0
CQUAD4*               40               1              42              43*
*                     56              54-6.5433086916-15           0.0+0
CQUAD4*               41               1              56              43*
*                     44              57  7.131674829-16           0.0+0
CQUAD4*               42               1              57              44*
*                     45              58 1.3356082455-16           0.0+0
CQUAD4        43       1      45      33      59      58   0.0+0   0.0+0
CQUAD4*               44               1              30              49*
*                     59              33-6.2525733469-16           0.0+0
CQUAD4        45       1      53      52      60      61   0.0+0   0.0+0
CQUAD4*               46               1              53              61*
*                     62              50 1.9273184678-16           0.0+0
CQUAD4*               47               1              50              62*
*                     63              51 5.3324989229-16           0.0+0
CQUAD4*               48               1              60              52*
*                     47              64 6.2294375396-17           0.0+0
CQUAD4*               49               1              51              63*
*                     65              55 3.5775467658-16           0.0+0
CQUAD4*               50               1              64              47*
*                     46              66-5.3980499289-16           0.0+0
CQUAD4*               51               1              66              46*
*                     55              65-1.5677904374-15           0.0+0
CQUAD4*               52               1              48              54*
*                     67              68 -1.952087047-15           0.0+0
CQUAD4*               53               1              48              68*
*                     69              49 3.2588212327-16           0.0+0
CQUAD4*               54               1              49              69*
*                     70              59-1.2618394687-15           0.0+0
CQUAD4*               55               1              54              56*
*                     71              67  4.741443993-17           0.0+0
CQUAD4*               57               1              70              69*
*                     73              72 8.7478286764-18           0.0+0
CQUAD4*               58               1              71              56*
*                     57              74 1.3787113575-16           0.0+0
CQUAD4*               59               1             142             139*
*                    154             155 9.7479704152-15           0.0+0
CQUAD4*               60               1              69              68*
*                     75              73 1.0018830417-15           0.0+0
CQUAD4*               61               1              68              67*
*                     76              75-2.9530801969-15           0.0+0
CQUAD4*               62               1             228             246*
*                    227             226-4.4912634937-15           0.0+0
CQUAD4*               63               1              65              63*
*                     77              78 2.2156152864-16           0.0+0
CQUAD4*               64               1              61              60*
*                     79              80 4.7059832301-16           0.0+0
CQUAD4*               65               1              77              63*
*                     62              81 1.7649786862-15           0.0+0
CQUAD4*               67               1              65              78*
*                     83              66 1.4297825253-17           0.0+0
CQUAD4*               68               1              79              60*
*                     64              84  1.217666865-16           0.0+0
CQUAD4*               70               1              77              81*
*                     82              86-6.1632924149-17           0.0+0
CQUAD4*               71               1              78              77*
*                     86              87 1.1089632418-15           0.0+0
CQUAD4*               72               1             269             293*
*                    318             361 3.2891792257-15           0.0+0
CQUAD4        73       1     211     204     212     232   0.0+0   0.0+0
CQUAD4        74       1      83      78      87      89   0.0+0   0.0+0
CQUAD4*               75               1             215             243*
*                    247             232 5.1015826619-19           0.0+0
CQUAD4        76       1     139     138     195     154   0.0+0   0.0+0
CQUAD4*               77               1              86              82*
*                     90              92 -6.939445966-16           0.0+0
CQUAD4*               79               1              84              83*
*                     85              88-5.5802273927-15           0.0+0
CQUAD4*               80               1              89              87*
*                     94              91 1.5924273878-15           0.0+0
CQUAD4*               81               1              73              75*
*                     95              96 6.0027270496-16           0.0+0
CQUAD4*               82               1              95              75*
*                     76              97 1.5540113738-15           0.0+0
CQUAD4*               83               1              97              76*
*                     67              98 2.1593201618-16           0.0+0
CQUAD4*               84               1              98              67*
*                     71              99 1.5817097199-15           0.0+0
CQUAD4*               85               1              99              71*
*                     74             100-1.0826812511-16           0.0+0
CQUAD4*               86               1             100              74*
*                     72             101 1.8537523975-16           0.0+0
CQUAD4*               88               1              88              85*
*                    102              93 2.5947235141-15           0.0+0
CQUAD4*               89               1              42              18*
*                     20              32 1.4450178802-17           0.0+0
CQUAD4*               90               1              81              62*
*                     61              80 1.5100275358-15           0.0+0
CQUAD4*               91               1              98              99*
*                    104             105-6.2496091368-18           0.0+0
CQUAD4*               92               1              98             105*
*                    106              97 4.1953692129-16           0.0+0
CQUAD4*               93               1              97             106*
*                    107              95-1.7282207222-16           0.0+0
CQUAD4*               94               1             104              99*
*                    100             108-2.0723567676-17           0.0+0
CQUAD4*               95               1             108             100*
*                    101             109-2.8634820518-17           0.0+0
CQUAD4*               96               1              95             107*
*                    110              96-4.4076935167-16           0.0+0
CQUAD4*               97               1              96             110*
*                    109             101-3.7545952011-16           0.0+0
CQUAD4*               98               1              96             101*
*                     72              73-4.9205187057-17           0.0+0
CQUAD4*               99               1             341             345*
*                    344             363 1.1270443838-15           0.0+0
CQUAD4*              100               1              93             102*
*                    103             113-1.2677641149-16           0.0+0
CQUAD4       101       1      91      94     112     114   0.0+0   0.0+0
CQUAD4*              102               1             103              91*
*                    114             115-9.0492018711-16           0.0+0
CQUAD4       103       1     354     345     341     340   0.0+0   0.0+0
CQUAD4*              104               1              92              90*
*                    116             111-6.9743013259-17           0.0+0
CQUAD4*              105               1             112             111*
*                    117             118-1.7844339379-16           0.0+0
CQUAD4*              107               1             270             287*
*                    286             279-3.2073429023-15           0.0+0
CQUAD4*              108               1             106             105*
*                    121             122 2.0829193826-17           0.0+0
CQUAD4*              109               1             107             106*
*                    122             123 5.7332092318-18           0.0+0
CQUAD4*              110               1             105             104*
*                    124             121 4.0214856788-16           0.0+0
CQUAD4*              111               1             114             112*
*                    118             125-1.5595049934-15           0.0+0
CQUAD4*              113               1             207             225*
*                    216             217-5.8620351998-16           0.0+0
CQUAD4*              114               1             247             243*
*                    264             268 3.0872747133-15           0.0+0
CQUAD4       115       1     107     123     126     110   0.0+0   0.0+0
CQUAD4*              116               1             124             104*
*                    108             127  6.936465528-18           0.0+0
CQUAD4*              117               1             127             108*
*                    109             128  5.665483585-17           0.0+0
CQUAD4       118       1     188     187     225     207   0.0+0   0.0+0
CQUAD4*              119               1             114             125*
*                    130             115 -9.922603788-16           0.0+0
CQUAD4*              120               1             228             229*
*                    245             246-4.1777942419-16           0.0+0
CQUAD4*              121               1             122             121*
*                    131             132-1.4053403826-16           0.0+0
CQUAD4*              122               1             131             121*
*                    124             133 8.4065095714-18           0.0+0
CQUAD4*              123               1             122             132*
*                    134             123 3.9268590756-18           0.0+0
CQUAD4*              124               1             133             124*
*                    127             135-2.1995319038-16           0.0+0
CQUAD4       125       1     135     127     128     136   0.0+0   0.0+0
CQUAD4*              126               1             123             134*
*                    137             126-2.5645119273-17           0.0+0
CQUAD4*              127               1             126             137*
*                    136             128-9.2030209468-17           0.0+0
CQUAD4*              128               1             126             128*
*                    109             110 1.1063443549-16           0.0+0
CQUAD4*              129               1             117             170*
*                    138             139-6.4298688343-15           0.0+0
CQUAD4*              131               1             129             115*
*                    130             141 6.3707539173-15           0.0+0
CQUAD4*              132               1             118             139*
*                    142             125-2.2252877549-17           0.0+0
CQUAD4*              133               1             120             140*
*                    143             119 3.8905058062-17           0.0+0
CQUAD4*              134               1             125             142*
*                    144             130-5.4123126773-16           0.0+0
CQUAD4*              135               1             131             133*
*                    145             146-1.3687281593-18           0.0+0
CQUAD4*              136               1             143             140*
*                    147             148 8.1823707187-16           0.0+0
CQUAD4*              137               1             132             131*
*                    146             149-8.8461785673-17           0.0+0
CQUAD4*              138               1             145             133*
*                    135             150-7.8618845943-17           0.0+0
CQUAD4*              139               1             132             149*
*                    151             134  1.870213049-16           0.0+0
CQUAD4*              140               1             150             135*
*                    136             152 3.7729224069-16           0.0+0
CQUAD4*              141               1             134             151*
*                    153             137 4.9813874981-17           0.0+0
CQUAD4*              142               1             175             173*
*                    174             161-3.5557448227-15           0.0+0
CQUAD4*              143               1             215             232*
*                    212             206 -2.226359237-15           0.0+0
CQUAD4*              144               1             140             129*
*                    157             147-5.2885112499-16           0.0+0
CQUAD4*              145               1             157             129*
*                    141             158-1.4902097367-15           0.0+0
CQUAD4*              146               1             142             156*
*                    159             144 1.0777140366-15           0.0+0
CQUAD4*              147               1             148             147*
*                    160             161  8.000394176-16           0.0+0
CQUAD4*              148               1             149             146*
*                    162             163 5.4360832771-17           0.0+0
CQUAD4*              149               1             162             146*
*                    145             164-2.2951539797-17           0.0+0
CQUAD4*              150               1             149             163*
*                    165             151  6.106056602-17           0.0+0
CQUAD4*              151               1             164             145*
*                    150             166-9.2008851465-17           0.0+0
CQUAD4*              152               1             151             165*
*                    167             153-1.2809460158-16           0.0+0
CQUAD4*              154               1             166             150*
*                    152             168 6.3946356958-16           0.0+0
CQUAD4*              155               1             143             148*
*                    169             119-7.3528772247-16           0.0+0
CQUAD4*              156               1             183             182*
*                    201             202-3.5365156247-15           0.0+0
CQUAD4       157       1     155     154     171     172   0.0+0   0.0+0
CQUAD4*              159               1             138             170*
*                    169             174-5.0912063935-16           0.0+0
CQUAD4*              160               1             194             171*
*                    173             175-2.3894267877-16           0.0+0
CQUAD4*              161               1             169             148*
*                    161             174 2.2508957985-15           0.0+0
CQUAD4*              162               1             222             211*
*                    232             247-1.5769744919-15           0.0+0
CQUAD4*              163               1             157             158*
*                    176             177 3.8184889548-16           0.0+0
CQUAD4*              164               1             158             141*
*                    130             144-1.6341686518-15           0.0+0
CQUAD4*              165               1             223             199*
*                    211             222-2.4520251317-15           0.0+0
CQUAD4*              166               1              84              64*
*                     66              83 6.2311926675-16           0.0+0
CQUAD4*              167               1             156             155*
*                    172             178 1.4964064783-15           0.0+0
CQUAD4*              168               1             147             157*
*                    177             160 3.6899882153-16           0.0+0
CQUAD4       169       1     156     178     179     159   0.0+0   0.0+0
CQUAD4*              170               1             177             176*
*                    180             181-1.4380318775-16           0.0+0
CQUAD4*              171               1             162             164*
*                    182             183  -3.79266052-16           0.0+0
CQUAD4*              172               1             162             183*
*                    184             163 4.3732379618-16           0.0+0
CQUAD4*              173               1             182             164*
*                    166             185 1.2686660136-15           0.0+0
CQUAD4*              174               1             163             184*
*                    186             165 2.3591499847-17           0.0+0
CQUAD4*              175               1             165             186*
*                    187             167 1.2255583653-16           0.0+0
CQUAD4*              176               1             185             166*
*                    168             188 -1.653224523-15           0.0+0
CQUAD4*              177               1             167             187*
*                    188             168-4.5737447233-16           0.0+0
CQUAD4*              178               1             161             160*
*                    189             190-8.0010149087-16           0.0+0
CQUAD4       179       1     172     171     191     192   0.0+0   0.0+0
CQUAD4*              180               1             160             177*
*                    181             189 1.9301245152-16           0.0+0
CQUAD4*              181               1             178             172*
*                    192             193 1.5830573557-15           0.0+0
CQUAD4       182       1      94      92     111     112   0.0+0   0.0+0
CQUAD4*              183               1             173             171*
*                    154             195 5.6361215998-15           0.0+0
CQUAD4*              184               1             176             144*
*                    159             180-6.3914266274-15           0.0+0
CQUAD4*              185               1             178             193*
*                    196             179 6.1657185064-16           0.0+0
CQUAD4       186       1     190     189     197     198   0.0+0   0.0+0
CQUAD4*              187               1             192             191*
*                    199             200-7.4083112525-16           0.0+0
CQUAD4*              189               1             182             185*
*                    203             201-1.7489836152-15           0.0+0
CQUAD4*              190               1             191             171*
*                    194             204-1.6363753921-16           0.0+0
CQUAD4*              191               1             193             192*
*                    200             205-2.1537867892-18           0.0+0
CQUAD4*              192               1             175             161*
*                    190             206 2.0720555945-15           0.0+0
CQUAD4*              193               1             262             252*
*                    236             265 3.7289520056-15           0.0+0
CQUAD4*              194               1             185             188*
*                    207             203  8.833284304-16           0.0+0
CQUAD4*              195               1             181             180*
*                    208             209 1.9641492634-15           0.0+0
CQUAD4*              196               1             184             202*
*                    210             186  4.494009618-17           0.0+0
CQUAD4*              197               1             347             357*
*                    360             362-8.1473183354-16           0.0+0
CQUAD4*              198               1             199             191*
*                    204             211-5.0091138995-16           0.0+0
CQUAD4       199       1     180     159     179     208   0.0+0   0.0+0
CQUAD4*              200               1             194             175*
*                    206             212-3.5357425856-15           0.0+0
CQUAD4*              201               1              87              86*
*                     92              94-2.6109738043-15           0.0+0
CQUAD4       202       1     189     181     209     197   0.0+0   0.0+0
CQUAD4*              203               1             193             205*
*                    213             196 1.1804271131-16           0.0+0
CQUAD4*              204               1             198             197*
*                    214             215 3.5151290594-16           0.0+0
CQUAD4       205       1     347     362     355     329   0.0+0   0.0+0
CQUAD4*              206               1             138             174*
*                    173             195-2.9822932235-17           0.0+0
CQUAD4*              207               1             207             217*
*                    218             203-4.4959820809-15           0.0+0
CQUAD4*              208               1             209             208*
*                    219             220-1.6381554599-15           0.0+0
CQUAD4*              209               1             203             218*
*                    221             201 3.1535272731-15           0.0+0
CQUAD4*              210               1             153             167*
*                    168             152 3.5614512444-16           0.0+0
CQUAD4       211       1     202     201     221     224   0.0+0   0.0+0
CQUAD4*              212               1             153             152*
*                    136             137-1.0212385522-17           0.0+0
CQUAD4       213       1      70      72      74      57   0.0+0   0.0+0
CQUAD4       214       1     202     224     226     210   0.0+0   0.0+0
CQUAD4*              215               1             225             210*
*                    226             227 -2.298023476-16           0.0+0
CQUAD4*              216               1              70              57*
*                     58              59   9.28121388-16           0.0+0
CQUAD4*              217               1             224             221*
*                    229             228 4.0261866351-16           0.0+0
CQUAD4*              218               1             197             209*
*                    220             214 -3.150348164-16           0.0+0
CQUAD4*              219               1             221             218*
*                    230             229-3.2682047196-15           0.0+0
CQUAD4*              220               1             274             361*
*                    308             291 -9.530809954-15           0.0+0
CQUAD4*              221               1             179             196*
*                    219             208 6.1684986378-17           0.0+0
CQUAD4*              222               1             225             227*
*                    231             216-7.9476811762-15           0.0+0
CQUAD4*              223               1             190             198*
*                    215             206-2.9137251781-15           0.0+0
CQUAD4*              224               1              31              43*
*                     42              32-1.0408139288-15           0.0+0
CQUAD4*              225               1             205             200*
*                    223             233  3.175552848-15           0.0+0
CQUAD4*              226               1             348             359*
*                    362             360 2.0852436416-17           0.0+0
CQUAD4*              227               1             328             342*
*                    359             348 8.6213583118-16           0.0+0
CQUAD4*              228               1             330             363*
*                    344             349-2.4653794797-16           0.0+0
CQUAD4*              229               1             205             233*
*                    234             213-8.8098668678-16           0.0+0
CQUAD4*              230               1             218             217*
*                    235             230 3.2675057746-15           0.0+0
CQUAD4*              231               1             217             216*
*                    236             235-1.9063901528-15           0.0+0
CQUAD4*              232               1             220             219*
*                    237             238 1.6503861417-15           0.0+0
CQUAD4*              233               1             216             231*
*                    239             236-6.5625737911-15           0.0+0
CQUAD4*              234               1             327             341*
*                    363             330 4.1490944462-16           0.0+0
CQUAD4*              235               1             223             222*
*                    240             241-2.2445013913-15           0.0+0
CQUAD4*              236               1             215             214*
*                    242             243 1.5932842278-15           0.0+0
CQUAD4*              237               1             214             220*
*                    238             242 3.0625406911-16           0.0+0
CQUAD4*              238               1             233             223*
*                    241             244-9.3207874718-18           0.0+0
CQUAD4       239       1     290     265     267     292   0.0+0   0.0+0
CQUAD4       240       1     219     196     213     237   0.0+0   0.0+0
CQUAD4*              241               1             281             262*
*                    265             290-7.7855139293-16           0.0+0
CQUAD4*              242               1             222             247*
*                    249             240-1.5976937382-15           0.0+0
CQUAD4*              243               1             231             227*
*                    246             248-6.3647120809-15           0.0+0
CQUAD4*              244               1             346             353*
*                    358             360-2.4754648567-16           0.0+0
CQUAD4*              246               1             239             231*
*                    248             250  6.468628238-15           0.0+0
CQUAD4*              247               1             229             230*
*                    251             245-3.4243979325-15           0.0+0
CQUAD4*              248               1             230             235*
*                    252             251  6.340944174-15           0.0+0
CQUAD4*              249               1             233             244*
*                    253             234 3.0996359182-17           0.0+0
CQUAD4*              250               1             186             210*
*                    225             187-1.5389596317-16           0.0+0
CQUAD4*              251               1             246             245*
*                    254             255-1.7253834176-15           0.0+0
CQUAD4*              252               1             238             237*
*                    256             257-1.7430854813-15           0.0+0
CQUAD4*              253               1             120             115*
*                    129             140 5.4991889257-16           0.0+0
CQUAD4*              254               1             248             246*
*                    255             258-2.6088799684-16           0.0+0
CQUAD4*              255               1             254             245*
*                    251             259 3.2167885364-15           0.0+0
CQUAD4*              256               1             241             240*
*                    260             261 4.9525588611-16           0.0+0
CQUAD4*              257               1             251             252*
*                    262             259  1.497087102-15           0.0+0
CQUAD4       258       1     243     242     263     264   0.0+0   0.0+0
CQUAD4*              259               1             242             238*
*                    257             263 2.2193545318-15           0.0+0
CQUAD4*              260               1             113             103*
*                    115             120 5.6153040162-16           0.0+0
CQUAD4*              261               1             213             234*
*                    256             237-3.5036367132-17           0.0+0
CQUAD4*              262               1             241             261*
*                    266             244  9.893450332-17           0.0+0
CQUAD4       263       1     236     239     267     265   0.0+0   0.0+0
CQUAD4*              264               1             113             116*
*                     90              93-6.5388382503-15           0.0+0
CQUAD4*              265               1             248             258*
*                    269             250 2.1850158943-15           0.0+0
CQUAD4*              266               1             260             240*
*                    249             270-1.0764428365-17           0.0+0
CQUAD4*              267               1             255             254*
*                    271             272  -1.38211226-15           0.0+0
CQUAD4*              268               1             244             266*
*                    273             253-1.5207250685-16           0.0+0
CQUAD4*              269               1             267             239*
*                    250             274-9.6653008484-15           0.0+0
CQUAD4*              270               1             120             119*
*                    116             113-1.6596341102-16           0.0+0
CQUAD4*              271               1             254             259*
*                    275             271 3.3981862212-17           0.0+0
CQUAD4*              272               1             258             255*
*                    272             276 3.2747879147-15           0.0+0
CQUAD4       273       1     257     256     277     278   0.0+0   0.0+0
CQUAD4       274       1     261     260     279     280   0.0+0   0.0+0
CQUAD4*              275               1             259             262*
*                    281             275 5.3081910138-16           0.0+0
CQUAD4*              276               1             264             263*
*                    282             283 1.5904565484-15           0.0+0
CQUAD4*              277               1             263             257*
*                    278             282-8.1623232589-16           0.0+0
CQUAD4*              278               1             266             261*
*                    280             284 1.6111192946-15           0.0+0
CQUAD4       279       1     256     234     253     277   0.0+0   0.0+0
CQUAD4*              280               1             266             284*
*                    285             273-8.3626720169-17           0.0+0
CQUAD4*              281               1              80              93*
*                     90              82-3.4769731826-15           0.0+0
CQUAD4*              282               1             270             249*
*                    268             287 4.0700774424-16           0.0+0
CQUAD4*              283               1             272             271*
*                    288             289-3.9391594409-16           0.0+0
CQUAD4*              284               1              79              88*
*                     93              80 1.1830606164-15           0.0+0
CQUAD4       286       1     267     274     291     292   0.0+0   0.0+0
CQUAD4*              287               1             258             276*
*                    293             269-1.4947791706-15           0.0+0
CQUAD4*              289               1             268             264*
*                    283             287-3.0999178503-15           0.0+0
CQUAD4*              290               1             276             272*
*                    289             294-3.4953554158-15           0.0+0
CQUAD4       291       1     278     277     295     296   0.0+0   0.0+0
CQUAD4*              292               1             288             271*
*                    275             297-3.6717886186-17           0.0+0
CQUAD4*              293               1             275             281*
*                    298             297 1.0864657734-15           0.0+0
CQUAD4*              294               1             283             282*
*                    299             300-1.5910178049-15           0.0+0
CQUAD4*              295               1             282             278*
*                    296             299-6.3386752615-16           0.0+0
CQUAD4*              296               1             250             269*
*                    361             274 2.2830124172-15           0.0+0
CQUAD4*              297               1             280             279*
*                    301             302 2.0326694949-15           0.0+0
CQUAD4*              299               1             283             300*
*                    286             287 5.5951784609-16           0.0+0
CQUAD4*              300               1             298             281*
*                    290             303-7.1222962718-17           0.0+0
CQUAD4*              301               1             301             279*
*                    286             304 -1.058675673-17           0.0+0
CQUAD4       302       1       2       1       7     364   0.0+0   0.0+0
CQUAD4*              303               1             276             294*
*                    305             293 4.8165196347-17           0.0+0
CQUAD4*              304               1             289             288*
*                    306             307-3.9216797578-16           0.0+0
CQUAD4       305       1       9       8      14     367   0.0+0   0.0+0
CQUAD4*              306               1             116             119*
*                    169             170-1.8845568508-15           0.0+0
CQUAD4*              307               1             292             291*
*                    309             303 2.5968093771-15           0.0+0
CQUAD4*              308               1             280             302*
*                    310             284 4.0355679558-16           0.0+0
CQUAD4*              309               1             284             310*
*                    311             285 1.1046285298-16           0.0+0
CQUAD4*              310               1             253             273*
*                    295             277  1.864850992-17           0.0+0
CQUAD4*              311               1             116             170*
*                    117             111 3.2024361527-15           0.0+0
CQUAD4       312       1     296     295     312     313   0.0+0   0.0+0
CQUAD4       313       1     288     297     314     306   0.0+0   0.0+0
CQUAD4       314       1     297     298     315     314   0.0+0   0.0+0
CQUAD4*              315               1             300             299*
*                    316             317-1.2797187469-17           0.0+0
CQUAD4       316       1     299     296     313     316   0.0+0   0.0+0
CQUAD4*              317               1             286             300*
*                    317             304-9.0366636278-17           0.0+0
CQUAD4*              318               1              89              91*
*                    103             102 3.5030268899-16           0.0+0
CQUAD4*              319               1             298             303*
*                    319             315 4.2717061425-17           0.0+0
CQUAD4*              320               1             302             301*
*                    320             321 1.5339388491-15           0.0+0
CQUAD4*              321               1             294             289*
*                    307             322 1.6215958819-15           0.0+0
CQUAD4*              322               1              89             102*
*                     85              83 1.7619726857-15           0.0+0
CQUAD4*              323               1             320             301*
*                    304             323 5.5610329067-17           0.0+0
CQUAD4*              324               1             307             306*
*                    324             325-3.6733708654-16           0.0+0
CQUAD4*              325               1             291             308*
*                    326             309-6.4057839847-15           0.0+0
CQUAD4*              326               1             295             273*
*                    285             312 3.2525000376-15           0.0+0
CQUAD4*              327               1             302             321*
*                    327             310 1.9601874867-16           0.0+0
CQUAD4*              328               1             303             309*
*                    328             319 -1.113747886-15           0.0+0
CQUAD4*              329               1             294             322*
*                    329             305-1.0744682007-17           0.0+0
CQUAD4*              331               1             310             327*
*                    330             311   8.31400614-17           0.0+0
CQUAD4       332       1     322     307     325     331   0.0+0   0.0+0
CQUAD4       333       1     313     312     332     333   0.0+0   0.0+0
CQUAD4*              334               1             306             314*
*                    334             324-1.6437918452-15           0.0+0
CQUAD4*              335               1             317             316*
*                    335             336 8.1729426566-16           0.0+0
CQUAD4*              336               1             316             313*
*                    333             335 1.8831168463-17           0.0+0
CQUAD4       337       1      13      12     367      14   0.0+0   0.0+0
CQUAD4*              338               1             314             315*
*                    337             334 8.8673376122-16           0.0+0
CQUAD4       339       1     304     317     336     323   0.0+0   0.0+0
CQUAD4       340       1     366     365     364       7   0.0+0   0.0+0
CQUAD4*              341               1             293             305*
*                    338             318 5.6222597987-16           0.0+0
CQUAD4*              342               1             321             320*
*                    339             340 -5.097459928-17           0.0+0
CQUAD4*              343               1             327             321*
*                    340             341 3.5851990984-20           0.0+0
CQUAD4*              344               1             318             338*
*                    342             326-4.3926523914-16           0.0+0
CQUAD4*              345               1             315             319*
*                    343             337-3.1361635603-15           0.0+0
CQUAD4*              346               1             325             324*
*                    344             345-4.2773029213-16           0.0+0
CQUAD4*              347               1             312             285*
*                    311             332-1.7699684324-15           0.0+0
CQUAD4*              348               1             339             320*
*                    323             346 1.7249900308-16           0.0+0
CQUAD4*              349               1             322             331*
*                    347             329-1.1339287159-16           0.0+0
CQUAD4*              350               1             343             319*
*                    328             348 6.8197349178-17           0.0+0
CQUAD4       351       1       9     367      11      10   0.0+0   0.0+0
CQUAD4*              352               1             333             332*
*                    349             350-3.4854372155-15           0.0+0
CQUAD4*              353               1             324             334*
*                    351             344-1.5999479035-15           0.0+0
CQUAD4*              354               1             336             335*
*                    352             353 1.6368890101-15           0.0+0
CQUAD4       355       1       4       3     364     365   0.0+0   0.0+0
CQUAD4*              356               1             335             333*
*                    350             352-4.5736993108-16           0.0+0
CQUAD4*              357               1             331             325*
*                    345             354-3.6008881416-17           0.0+0
CQUAD4*              358               1             309             326*
*                    342             328 1.1170266759-16           0.0+0
CQUAD4*              359               1             323             336*
*                    353             346-2.4071594378-15           0.0+0
CQUAD4*              360               1             305             329*
*                    355             338-2.8109988805-16           0.0+0
CQUAD4*              361               1             334             337*
*                    356             351  -3.09292236-15           0.0+0
CQUAD4*              362               1             340             339*
*                    357             354 2.1448445229-16           0.0+0
CQUAD4*              363               1             337             343*
*                    358             356 -3.360793265-15           0.0+0
CQUAD4*              364               1             332             311*
*                    330             349 1.4808040139-15           0.0+0
CQUAD4       365       1     342     338     355     359   0.0+0   0.0+0
CQUAD4       366       1       6       5     365     366   0.0+0   0.0+0
CQUAD4*              367               1             343             348*
*                    360             358 6.2113697968-15           0.0+0
CQUAD4*              368               1             357             339*
*                    346             360 4.3171969224-17           0.0+0
CQUAD4*              369               1             318             326*
*                    308             361 -1.636431015-15           0.0+0
CQUAD4*              370               1             331             354*
*                    357             347-1.4259604777-15           0.0+0
CQUAD4       371       1     344     351     350     349   0.0+0   0.0+0
CQUAD4*              372               1             353             352*
*                    356             358  1.710350015-15           0.0+0
CQUAD4*              373               1             352             350*
*                    351             356 -1.306381513-15           0.0+0
PSHELL         2       1   1.0-1       1               1           0.0+0
CTRIA3*               28               2             224             228*
*                    226 2.3334805926-17           0.0+0
CTRIA3*               56               2             142             155*
*                    156-6.2420482589-15           0.0+0
CTRIA3*               66               2             204             194*
*                    212-3.2559016983-17           0.0+0
CTRIA3*               69               2             118             117*
*                    139-5.2775109791-16           0.0+0
CTRIA3*               78               2              79              84*
*                     88 1.4685585456-15           0.0+0
CTRIA3*               87               2              82              81*
*                     80-2.5183152093-15           0.0+0
CTRIA3*              106               2             260             270*
*                    279 8.3613941892-17           0.0+0
CTRIA3*              112               2             249             247*
*                    268 1.4591757819-16           0.0+0
CTRIA3       130       2     200     199     223   0.0+0   0.0+0
CTRIA3*              153               2             184             183*
*                    202 1.4967338207-15           0.0+0
CTRIA3*              158               2             176             158*
*                    144 1.6376826354-15           0.0+0
CTRIA3*              188               2             252             235*
*                    236 6.3614856531-16           0.0+0
CTRIA3       245       2       3       2     364   0.0+0   0.0+0
CTRIA3       285       2       5       4     365   0.0+0   0.0+0
CTRIA3       288       2       7       6     366   0.0+0   0.0+0
CTRIA3*              298               2             292             303*
*                    290 2.4058607565-15           0.0+0
CTRIA3       330       2      12      11     367   0.0+0   0.0+0
CTRIA3*              374               2             355             362*
*                    359-8.0505592986-18           0.0+0
$--1---><--2---><--3---><--4---><--5---><--6---><--7---><--8---><--9---><--10-->
$$$$$$$$$$$$$$$$$$$$$$$$$$$$$$$$$$$$ force $$$$$$$$$$$$$$$$$$$$$$$$$$$$$$$$$$$$$
FORCE*                 2               6               0           1.0+0*
*                  0.0+0           0.0+0-6.06499781747-2
FORCE*                 2               5               0           1.0+0*
*                  0.0+0           0.0+0-7.40765333616-2
FORCE*                 2             365               0           1.0+0*
*                  0.0+0           0.0+0-1.38261337706-1
FORCE*                 2             366               0           1.0+0*
*                  0.0+0           0.0+0-8.00378277416-2
FORCE*                 2               4               0           1.0+0*
*                  0.0+0           0.0+0-8.55099006953-2
FORCE*                 2             364               0           1.0+0*
*                  0.0+0           0.0+0-1.84143775596-1
FORCE*                 2               7               0           1.0+0*
*                  0.0+0           0.0+0-1.25457165826-1
FORCE*                 2               3               0           1.0+0*
*                  0.0+0           0.0+0-8.99430860554-2
FORCE*                 2               2               0           1.0+0*
*                  0.0+0           0.0+0-9.90094838204-2
FORCE*                 2               1               0           1.0+0*
*                  0.0+0           0.0+0-6.29109110235-2
$--1---><--2---><--3---><--4---><--5---><--6---><--7---><--8---><--9---><--10-->
EIGRL          1                       1       0           1.0+7    MASS
LOAD           1   1.0+0   1.0+0       2
ENDDATA 
