$ Generated by Mecway 33
$-----------------------EXECUTIVE CONTROL SECTION-----------------------
SOL 105
CEND
$-------------------------CASE CONTROL SECTION--------------------------
DISPLACEMENT = ALL
SPC = 1
SUBCASE 1
LOAD = 1
SUBCASE 2
METHOD = 1
BEGIN BULK
$---------------------------BULK DATA SECTION---------------------------
GRID           1       0   3.0+0   0.0+0   0.0+0       0
GRID           2       0   4.0+0   0.0+0   1.2+1       0
GRID           3       0   3.0+0   1.0+0   3.2+1       0
GRID           4       0   2.0+0   0.0+0   4.0+0       0
GRID           5       0   3.0+0  -1.0+0   3.6+1       0
GRID           6       0   3.0+0  -1.0+0   3.2+1       0
GRID           7       0   4.0+0   0.0+0   0.0+0       0
GRID           8       0   3.0+0  -1.0+0   1.6+1       0
GRID           9       0   3.0+0   1.0+0   2.0+1       0
GRID          10       0   4.0+0   0.0+0   4.0+1       0
GRID          11       0   3.0+0   1.0+0   3.6+1       0
GRID          12       0   4.0+0   0.0+0   3.6+1       0
GRID          13       0   3.0+0  -1.0+0   8.0+0       0
GRID          14       0   2.0+0   0.0+0   1.2+1       0
GRID          15       0   2.0+0   0.0+0   3.6+1       0
GRID          16       0   3.0+0   1.0+0   2.8+1       0
GRID          17       0   3.0+0   1.0+0   4.0+0       0
GRID          18       0   4.0+0   0.0+0   8.0+0       0
GRID          19       0   3.0+0  -1.0+0   2.4+1       0
GRID          20       0   2.0+0   0.0+0   1.6+1       0
GRID          21       0   4.0+0   0.0+0   2.0+1       0
GRID          22       0   2.0+0   0.0+0   0.0+0       0
GRID          23       0   2.0+0   0.0+0   2.0+1       0
GRID          24       0   3.0+0  -1.0+0   4.0+1       0
GRID          25       0   4.0+0   0.0+0   2.4+1       0
GRID          26       0   4.0+0   0.0+0   3.2+1       0
GRID          27       0   2.0+0   0.0+0   3.2+1       0
GRID          28       0   3.0+0  -1.0+0   2.0+1       0
GRID          29       0   3.0+0   1.0+0   1.2+1       0
GRID          30       0   3.0+0   1.0+0   0.0+0       0
GRID          31       0   3.0+0   0.0+0   4.0+1       0
GRID          32       0   3.0+0   1.0+0   8.0+0       0
GRID          33       0   3.0+0   1.0+0   2.4+1       0
GRID          34       0   4.0+0   0.0+0   2.8+1       0
GRID          35       0   2.0+0   0.0+0   4.0+1       0
GRID          36       0   2.0+0   0.0+0   2.4+1       0
GRID          37       0   3.0+0   1.0+0   1.6+1       0
GRID          38       0   3.0+0  -1.0+0   1.2+1       0
GRID          39       0   2.0+0   0.0+0   2.8+1       0
GRID          40       0   3.0+0  -1.0+0   4.0+0       0
GRID          41       0   3.0+0   1.0+0   4.0+1       0
GRID          42       0   4.0+0   0.0+0   1.6+1       0
GRID          43       0   2.0+0   0.0+0   8.0+0       0
GRID          44       0   3.0+0  -1.0+0   2.8+1       0
GRID          45       0   3.0+0  -1.0+0   0.0+0       0
GRID          46       0   4.0+0   0.0+0   4.0+0       0
PARAM   QUAD4TYP  MITC4+
PARAM    STR_CID      -2
$--1---><--2---><--3---><--4---><--5---><--6---><--7---><--8---><--9---><--10-->
$$$$$$$$$$$$$$$$$$$$$$$$$$$$$$$$$$$ Material $$$$$$$$$$$$$$$$$$$$$$$$$$$$$$$$$$$
MAT1*                  1          2.0+11 7.6923076923+10           3.0-1*
*                  0.0+0           0.0+0           0.0+0
$--1---><--2---><--3---><--4---><--5---><--6---><--7---><--8---><--9---><--10-->
$$$$$$$$$$$$$$$$$$$$$$$$$$$$$$$$$ Material(2) $$$$$$$$$$$$$$$$$$$$$$$$$$$$$$$$$$
MAT1*                  2          2.0+13 7.6923076923+12           3.0-1*
*                  0.0+0           0.0+0           0.0+0
$--1---><--2---><--3---><--4---><--5---><--6---><--7---><--8---><--9---><--10-->
SPC            1       1       1   0.0+0
SPC            1       1       2   0.0+0
SPC            1       1       3   0.0+0
SPC            1       7       1   0.0+0
SPC            1       7       2   0.0+0
SPC            1       7       3   0.0+0
SPC            1      22       1   0.0+0
SPC            1      22       2   0.0+0
SPC            1      22       3   0.0+0
SPC            1      31       1   0.0+0
SPC            1      31       2   0.0+0
$--1---><--2---><--3---><--4---><--5---><--6---><--7---><--8---><--9---><--10-->
$$$$$$$$$$$$$$$$$$$$$$$$$$$$$$$$$$$ Default $$$$$$$$$$$$$$$$$$$$$$$$$$$$$$$$$$$$
PSHELL         1       1   1.0-1       1               1           0.0+0
CQUAD4         1       1      32      43       4      17   0.0+0   0.0+0
CQUAD4         2       1      18      46      40      13   0.0+0   0.0+0
CQUAD4         3       1      43      13      40       4   0.0+0   0.0+0
CQUAD4         4       1      17      30       7      46   0.0+0   0.0+0
CQUAD4         5       1      17       4      22      30   0.0+0   0.0+0
CQUAD4         6       1      46       7      45      40   0.0+0   0.0+0
CQUAD4         7       1       4      40      45      22   0.0+0   0.0+0
CQUAD4         8       1      19      28      23      36   0.0+0   0.0+0
CQUAD4         9       1      42       2      38       8   0.0+0   0.0+0
CQUAD4        10       1      20       8      38      14   0.0+0   0.0+0
CQUAD4        11       1      29      32      18       2   0.0+0   0.0+0
CQUAD4        12       1      29      14      43      32   0.0+0   0.0+0
CQUAD4        17       1       2      18      13      38   0.0+0   0.0+0
CQUAD4        18       1      33      36      23       9   0.0+0   0.0+0
CQUAD4        19       1       9      37      42      21   0.0+0   0.0+0
CQUAD4        20       1       9      23      20      37   0.0+0   0.0+0
CQUAD4        21       1      21      42       8      28   0.0+0   0.0+0
CQUAD4        22       1      28       8      20      23   0.0+0   0.0+0
CQUAD4        23       1      37      20      14      29   0.0+0   0.0+0
CQUAD4        24       1      37      29       2      42   0.0+0   0.0+0
CQUAD4        25       1      24       5      15      35   0.0+0   0.0+0
CQUAD4        26       1       5      12      26       6   0.0+0   0.0+0
CQUAD4        27       1       5       6      27      15   0.0+0   0.0+0
CQUAD4        28       1      15      11      41      35   0.0+0   0.0+0
CQUAD4        29       1      15      27       3      11   0.0+0   0.0+0
CQUAD4        30       1      12      10      41      11   0.0+0   0.0+0
CQUAD4        31       1      12      11       3      26   0.0+0   0.0+0
CQUAD4        32       1      26      34      44       6   0.0+0   0.0+0
CQUAD4        33       1      26       3      16      34   0.0+0   0.0+0
CQUAD4        34       1      14      38      13      43   0.0+0   0.0+0
CQUAD4        35       1       6      44      39      27   0.0+0   0.0+0
CQUAD4        36       1      27      39      16       3   0.0+0   0.0+0
CQUAD4        37       1      32      17      46      18   0.0+0   0.0+0
CQUAD4        38       1      12       5      24      10   0.0+0   0.0+0
CQUAD4        39       1      34      25      19      44   0.0+0   0.0+0
CQUAD4        40       1      34      16      33      25   0.0+0   0.0+0
CQUAD4        41       1      44      19      36      39   0.0+0   0.0+0
CQUAD4        42       1      16      39      36      33   0.0+0   0.0+0
CQUAD4        43       1      25      33       9      21   0.0+0   0.0+0
CQUAD4        44       1      25      21      28      19   0.0+0   0.0+0
$--1---><--2---><--3---><--4---><--5---><--6---><--7---><--8---><--9---><--10-->
$$$$$$$$$$$$$$$$$$$$$$$$$$$$$$$$$$ Component $$$$$$$$$$$$$$$$$$$$$$$$$$$$$$$$$$$
PSHELL         2       2   5.0-1       2               2           0.0+0
CTRIA3        13       2       1       7      30   0.0+0   0.0+0
CTRIA3        14       2      22       1      30   0.0+0   0.0+0
CTRIA3        15       2       1      22      45   0.0+0   0.0+0
CTRIA3        16       2       7       1      45   0.0+0   0.0+0
CTRIA3        45       2      31      10      41   0.0+0   0.0+0
CTRIA3        46       2      35      31      41   0.0+0   0.0+0
CTRIA3        47       2      31      35      24   0.0+0   0.0+0
CTRIA3        48       2      10      31      24   0.0+0   0.0+0
$--1---><--2---><--3---><--4---><--5---><--6---><--7---><--8---><--9---><--10-->
$$$$$$$$$$$$$$$$$$$$$$$$$$$$$$$$$$$$ force $$$$$$$$$$$$$$$$$$$$$$$$$$$$$$$$$$$$$
FORCE          2      31       0   1.0+0   0.0+0   0.0+0  -1.0+0
$--1---><--2---><--3---><--4---><--5---><--6---><--7---><--8---><--9---><--10-->
EIGRL          1                       1       0           1.0+7    MASS
LOAD           1   1.0+0   1.0+0       2
ENDDATA 
