$ Generated by Mecway 33
$-----------------------EXECUTIVE CONTROL SECTION-----------------------
SOL 105
CEND
$-------------------------CASE CONTROL SECTION--------------------------
DISPLACEMENT = ALL
SPC = 1
SUBCASE 1
TEMPERATURE = 4
SUBCASE 2
METHOD = 1
BEGIN BULK
$---------------------------BULK DATA SECTION---------------------------
GRID           1       0   0.0+0   0.0+0   0.0+0       0
GRID           2       0   1.4+0   0.0+0   0.0+0       0
GRID           3       0   1.4+0   1.0+0   0.0+0       0
GRID           4       0   0.0+0   1.0+0   0.0+0       0
GRID*                  5               0 1.7144488954-16           5.0-1*
*                 -1.0+0               0
GRID*                  6               0 1.7144488954-16           0.0+0*
*                 -1.0+0               0
GRID*                  7               0 1.7144488954-16           1.0+0*
*                 -1.0+0               0
GRID*                  8               0 8.5722444768-17           1.0+0*
*                 -5.0-1               0
GRID           9       0   7.0-1   0.0+0   0.0+0       0
GRID          10       0   1.4+0   5.0-1   0.0+0       0
GRID          11       0   7.0-1   1.0+0   0.0+0       0
GRID          12       0   0.0+0   5.0-1   0.0+0       0
GRID*                 13               0 8.5722444768-17           0.0+0*
*                 -5.0-1               0
GRID          14       0   3.5-1   0.0+0   0.0+0       0
GRID          15       0  1.05+0   0.0+0   0.0+0       0
GRID          16       0   1.4+0   2.5-1   0.0+0       0
GRID          17       0   1.4+0   7.5-1   0.0+0       0
GRID          18       0  1.05+0   1.0+0   0.0+0       0
GRID          19       0   3.5-1   1.0+0   0.0+0       0
GRID          20       0   0.0+0   7.5-1   0.0+0       0
GRID          21       0   0.0+0   2.5-1   0.0+0       0
GRID          22       0   7.0-1   5.0-1   0.0+0       0
GRID          23       0   3.5-1   5.0-1   0.0+0       0
GRID          24       0   7.0-1   2.5-1   0.0+0       0
GRID          25       0  1.05+0   5.0-1   0.0+0       0
GRID          26       0   7.0-1   7.5-1   0.0+0       0
GRID*                 27               0 4.2861222384-17           0.0+0*
*                 -2.5-1               0
GRID*                 28               0 1.2858366715-16           0.0+0*
*                 -7.5-1               0
GRID*                 29               0 1.7144488954-16           2.5-1*
*                 -1.0+0               0
GRID*                 30               0 1.7144488954-16           7.5-1*
*                 -1.0+0               0
GRID*                 31               0 1.2858366715-16           1.0+0*
*                 -7.5-1               0
GRID*                 32               0 4.2861222384-17           1.0+0*
*                 -2.5-1               0
GRID*                 33               0 8.5722444768-17           5.0-1*
*                 -5.0-1               0
GRID*                 34               0 4.2861222384-17           5.0-1*
*                 -2.5-1               0
GRID*                 35               0 8.5722444768-17           2.5-1*
*                 -5.0-1               0
GRID*                 36               0 1.2858366715-16           5.0-1*
*                 -7.5-1               0
GRID*                 37               0 8.5722444768-17           7.5-1*
*                 -5.0-1               0
GRID*                 38               0 4.2861222384-17           2.5-1*
*                 -2.5-1               0
GRID*                 39               0 1.2858366715-16           7.5-1*
*                 -7.5-1               0
GRID          40       0  1.05+0   2.5-1   0.0+0       0
GRID          41       0   3.5-1   7.5-1   0.0+0       0
GRID*                 42               0 1.2858366715-16           2.5-1*
*                 -7.5-1               0
GRID*                 43               0 4.2861222384-17           7.5-1*
*                 -2.5-1               0
GRID          44       0   3.5-1   2.5-1   0.0+0       0
GRID          45       0  1.05+0   7.5-1   0.0+0       0
GRID*                 46               0 2.1430611192-17           0.0+0*
*                -1.25-1               0
GRID*                 47               0 4.2861222384-17          1.25-1*
*                 -2.5-1               0
GRID*                 48               0 2.1430611192-17           2.5-1*
*                -1.25-1               0
GRID          49       0   0.0+0  1.25-1   0.0+0       0
GRID*                 50               0 2.1430611192-17          1.25-1*
*                -1.25-1               0
GRID*                 51               0 6.4291833576-17           0.0+0*
*                -3.75-1               0
GRID*                 52               0 8.5722444768-17          1.25-1*
*                 -5.0-1               0
GRID*                 53               0 6.4291833576-17           2.5-1*
*                -3.75-1               0
GRID*                 54               0 6.4291833576-17          1.25-1*
*                -3.75-1               0
GRID*                 55               0 8.5722444768-17          3.75-1*
*                 -5.0-1               0
GRID*                 56               0 6.4291833576-17           5.0-1*
*                -3.75-1               0
GRID*                 57               0 4.2861222384-17          3.75-1*
*                 -2.5-1               0
GRID*                 58               0 6.4291833576-17          3.75-1*
*                -3.75-1               0
GRID*                 59               0 2.1430611192-17           5.0-1*
*                -1.25-1               0
GRID          60       0   0.0+0  3.75-1   0.0+0       0
GRID*                 61               0 2.1430611192-17          3.75-1*
*                -1.25-1               0
GRID*                 62               0 1.0715305596-16           0.0+0*
*                -6.25-1               0
GRID*                 63               0 1.2858366715-16          1.25-1*
*                 -7.5-1               0
GRID*                 64               0 1.0715305596-16           2.5-1*
*                -6.25-1               0
GRID*                 65               0 1.0715305596-16          1.25-1*
*                -6.25-1               0
GRID*                 66               0 1.5001427834-16           0.0+0*
*                -8.75-1               0
GRID*                 67               0 1.7144488954-16          1.25-1*
*                 -1.0+0               0
GRID*                 68               0 1.5001427834-16           2.5-1*
*                -8.75-1               0
GRID*                 69               0 1.5001427834-16          1.25-1*
*                -8.75-1               0
GRID*                 70               0 1.7144488954-16          3.75-1*
*                 -1.0+0               0
GRID*                 71               0 1.5001427834-16           5.0-1*
*                -8.75-1               0
GRID*                 72               0 1.2858366715-16          3.75-1*
*                 -7.5-1               0
GRID*                 73               0 1.5001427834-16          3.75-1*
*                -8.75-1               0
GRID*                 74               0 1.0715305596-16           5.0-1*
*                -6.25-1               0
GRID*                 75               0 1.0715305596-16          3.75-1*
*                -6.25-1               0
GRID*                 76               0 1.2858366715-16          6.25-1*
*                 -7.5-1               0
GRID*                 77               0 1.0715305596-16           7.5-1*
*                -6.25-1               0
GRID*                 78               0 8.5722444768-17          6.25-1*
*                 -5.0-1               0
GRID*                 79               0 1.0715305596-16          6.25-1*
*                -6.25-1               0
GRID*                 80               0 1.7144488954-16          6.25-1*
*                 -1.0+0               0
GRID*                 81               0 1.5001427834-16           7.5-1*
*                -8.75-1               0
GRID*                 82               0 1.5001427834-16          6.25-1*
*                -8.75-1               0
GRID*                 83               0 1.7144488954-16          8.75-1*
*                 -1.0+0               0
GRID*                 84               0 1.5001427834-16           1.0+0*
*                -8.75-1               0
GRID*                 85               0 1.2858366715-16          8.75-1*
*                 -7.5-1               0
GRID*                 86               0 1.5001427834-16          8.75-1*
*                -8.75-1               0
GRID*                 87               0 1.0715305596-16           1.0+0*
*                -6.25-1               0
GRID*                 88               0 8.5722444768-17          8.75-1*
*                 -5.0-1               0
GRID*                 89               0 1.0715305596-16          8.75-1*
*                -6.25-1               0
GRID*                 90               0 4.2861222384-17          6.25-1*
*                 -2.5-1               0
GRID*                 91               0 2.1430611192-17           7.5-1*
*                -1.25-1               0
GRID          92       0   0.0+0  6.25-1   0.0+0       0
GRID*                 93               0 2.1430611192-17          6.25-1*
*                -1.25-1               0
GRID*                 94               0 6.4291833576-17           7.5-1*
*                -3.75-1               0
GRID*                 95               0 6.4291833576-17          6.25-1*
*                -3.75-1               0
GRID*                 96               0 6.4291833576-17           1.0+0*
*                -3.75-1               0
GRID*                 97               0 4.2861222384-17          8.75-1*
*                 -2.5-1               0
GRID*                 98               0 6.4291833576-17          8.75-1*
*                -3.75-1               0
GRID*                 99               0 2.1430611192-17           1.0+0*
*                -1.25-1               0
GRID         100       0   0.0+0  8.75-1   0.0+0       0
GRID*                101               0 2.1430611192-17          8.75-1*
*                -1.25-1               0
GRID         102       0  1.75-1   0.0+0   0.0+0       0
GRID         103       0   3.5-1  1.25-1   0.0+0       0
GRID         104       0  1.75-1   2.5-1   0.0+0       0
GRID         105       0  1.75-1  1.25-1   0.0+0       0
GRID         106       0  5.25-1   0.0+0   0.0+0       0
GRID         107       0   7.0-1  1.25-1   0.0+0       0
GRID         108       0  5.25-1   2.5-1   0.0+0       0
GRID         109       0  5.25-1  1.25-1   0.0+0       0
GRID         110       0   7.0-1  3.75-1   0.0+0       0
GRID         111       0  5.25-1   5.0-1   0.0+0       0
GRID         112       0   3.5-1  3.75-1   0.0+0       0
GRID         113       0  5.25-1  3.75-1   0.0+0       0
GRID         114       0  1.75-1   5.0-1   0.0+0       0
GRID         115       0  1.75-1  3.75-1   0.0+0       0
GRID         116       0  8.75-1   0.0+0   0.0+0       0
GRID         117       0  1.05+0  1.25-1   0.0+0       0
GRID         118       0  8.75-1   2.5-1   0.0+0       0
GRID         119       0  8.75-1  1.25-1   0.0+0       0
GRID         120       0 1.225+0   0.0+0   0.0+0       0
GRID         121       0   1.4+0  1.25-1   0.0+0       0
GRID         122       0 1.225+0   2.5-1   0.0+0       0
GRID         123       0 1.225+0  1.25-1   0.0+0       0
GRID         124       0   1.4+0  3.75-1   0.0+0       0
GRID         125       0 1.225+0   5.0-1   0.0+0       0
GRID         126       0  1.05+0  3.75-1   0.0+0       0
GRID         127       0 1.225+0  3.75-1   0.0+0       0
GRID         128       0  8.75-1   5.0-1   0.0+0       0
GRID         129       0  8.75-1  3.75-1   0.0+0       0
GRID         130       0  1.05+0  6.25-1   0.0+0       0
GRID         131       0  8.75-1   7.5-1   0.0+0       0
GRID         132       0   7.0-1  6.25-1   0.0+0       0
GRID         133       0  8.75-1  6.25-1   0.0+0       0
GRID         134       0   1.4+0  6.25-1   0.0+0       0
GRID         135       0 1.225+0   7.5-1   0.0+0       0
GRID         136       0 1.225+0  6.25-1   0.0+0       0
GRID         137       0   1.4+0  8.75-1   0.0+0       0
GRID         138       0 1.225+0   1.0+0   0.0+0       0
GRID         139       0  1.05+0  8.75-1   0.0+0       0
GRID         140       0 1.225+0  8.75-1   0.0+0       0
GRID         141       0  8.75-1   1.0+0   0.0+0       0
GRID         142       0   7.0-1  8.75-1   0.0+0       0
GRID         143       0  8.75-1  8.75-1   0.0+0       0
GRID         144       0   3.5-1  6.25-1   0.0+0       0
GRID         145       0  1.75-1   7.5-1   0.0+0       0
GRID         146       0  1.75-1  6.25-1   0.0+0       0
GRID         147       0  5.25-1   7.5-1   0.0+0       0
GRID         148       0  5.25-1  6.25-1   0.0+0       0
GRID         149       0  5.25-1   1.0+0   0.0+0       0
GRID         150       0   3.5-1  8.75-1   0.0+0       0
GRID         151       0  5.25-1  8.75-1   0.0+0       0
GRID         152       0  1.75-1   1.0+0   0.0+0       0
GRID         153       0  1.75-1  8.75-1   0.0+0       0
PARAM   QUAD4TYP  MITC4+
PARAM    STR_CID      -2
$--1---><--2---><--3---><--4---><--5---><--6---><--7---><--8---><--9---><--10-->
$$$$$$$$$$$$$$$$$$$$$$$$$$$$$$$$$$$ Material $$$$$$$$$$$$$$$$$$$$$$$$$$$$$$$$$$$
MAT1*                  1          1.0+10           5.0+9           0.0+0*
*                  0.0+0           3.0-4        2.7315+2
$--1---><--2---><--3---><--4---><--5---><--6---><--7---><--8---><--9---><--10-->
SPC            1       1       1   0.0+0
SPC            1       1       2   0.0+0
SPC            1       1       3   0.0+0
SPC            1       1       4   0.0+0
SPC            1       1       5   0.0+0
SPC            1       1       6   0.0+0
SPC            1       2       1   0.0+0
SPC            1       2       2   0.0+0
SPC            1       2       3   0.0+0
SPC            1       2       4   0.0+0
SPC            1       2       5   0.0+0
SPC            1       2       6   0.0+0
SPC            1       3       1   0.0+0
SPC            1       3       2   0.0+0
SPC            1       3       3   0.0+0
SPC            1       3       4   0.0+0
SPC            1       3       5   0.0+0
SPC            1       3       6   0.0+0
SPC            1       4       1   0.0+0
SPC            1       4       2   0.0+0
SPC            1       4       3   0.0+0
SPC            1       4       4   0.0+0
SPC            1       4       5   0.0+0
SPC            1       4       6   0.0+0
SPC            1       6       1   0.0+0
SPC            1       6       2   0.0+0
SPC            1       6       3   0.0+0
SPC            1       6       4   0.0+0
SPC            1       6       5   0.0+0
SPC            1       6       6   0.0+0
SPC            1       7       1   0.0+0
SPC            1       7       2   0.0+0
SPC            1       7       3   0.0+0
SPC            1       7       4   0.0+0
SPC            1       7       5   0.0+0
SPC            1       7       6   0.0+0
SPC            1       8       1   0.0+0
SPC            1       8       2   0.0+0
SPC            1       8       3   0.0+0
SPC            1       8       4   0.0+0
SPC            1       8       5   0.0+0
SPC            1       8       6   0.0+0
SPC            1       9       1   0.0+0
SPC            1       9       2   0.0+0
SPC            1       9       3   0.0+0
SPC            1       9       4   0.0+0
SPC            1       9       5   0.0+0
SPC            1       9       6   0.0+0
SPC            1      11       1   0.0+0
SPC            1      11       2   0.0+0
SPC            1      11       3   0.0+0
SPC            1      11       4   0.0+0
SPC            1      11       5   0.0+0
SPC            1      11       6   0.0+0
SPC            1      13       1   0.0+0
SPC            1      13       2   0.0+0
SPC            1      13       3   0.0+0
SPC            1      13       4   0.0+0
SPC            1      13       5   0.0+0
SPC            1      13       6   0.0+0
SPC            1      14       1   0.0+0
SPC            1      14       2   0.0+0
SPC            1      14       3   0.0+0
SPC            1      14       4   0.0+0
SPC            1      14       5   0.0+0
SPC            1      14       6   0.0+0
SPC            1      15       1   0.0+0
SPC            1      15       2   0.0+0
SPC            1      15       3   0.0+0
SPC            1      15       4   0.0+0
SPC            1      15       5   0.0+0
SPC            1      15       6   0.0+0
SPC            1      18       1   0.0+0
SPC            1      18       2   0.0+0
SPC            1      18       3   0.0+0
SPC            1      18       4   0.0+0
SPC            1      18       5   0.0+0
SPC            1      18       6   0.0+0
SPC            1      19       1   0.0+0
SPC            1      19       2   0.0+0
SPC            1      19       3   0.0+0
SPC            1      19       4   0.0+0
SPC            1      19       5   0.0+0
SPC            1      19       6   0.0+0
SPC            1      27       1   0.0+0
SPC            1      27       2   0.0+0
SPC            1      27       3   0.0+0
SPC            1      27       4   0.0+0
SPC            1      27       5   0.0+0
SPC            1      27       6   0.0+0
SPC            1      28       1   0.0+0
SPC            1      28       2   0.0+0
SPC            1      28       3   0.0+0
SPC            1      28       4   0.0+0
SPC            1      28       5   0.0+0
SPC            1      28       6   0.0+0
SPC            1      31       1   0.0+0
SPC            1      31       2   0.0+0
SPC            1      31       3   0.0+0
SPC            1      31       4   0.0+0
SPC            1      31       5   0.0+0
SPC            1      31       6   0.0+0
SPC            1      32       1   0.0+0
SPC            1      32       2   0.0+0
SPC            1      32       3   0.0+0
SPC            1      32       4   0.0+0
SPC            1      32       5   0.0+0
SPC            1      32       6   0.0+0
SPC            1      46       1   0.0+0
SPC            1      46       2   0.0+0
SPC            1      46       3   0.0+0
SPC            1      46       4   0.0+0
SPC            1      46       5   0.0+0
SPC            1      46       6   0.0+0
SPC            1      51       1   0.0+0
SPC            1      51       2   0.0+0
SPC            1      51       3   0.0+0
SPC            1      51       4   0.0+0
SPC            1      51       5   0.0+0
SPC            1      51       6   0.0+0
SPC            1      62       1   0.0+0
SPC            1      62       2   0.0+0
SPC            1      62       3   0.0+0
SPC            1      62       4   0.0+0
SPC            1      62       5   0.0+0
SPC            1      62       6   0.0+0
SPC            1      66       1   0.0+0
SPC            1      66       2   0.0+0
SPC            1      66       3   0.0+0
SPC            1      66       4   0.0+0
SPC            1      66       5   0.0+0
SPC            1      66       6   0.0+0
SPC            1      84       1   0.0+0
SPC            1      84       2   0.0+0
SPC            1      84       3   0.0+0
SPC            1      84       4   0.0+0
SPC            1      84       5   0.0+0
SPC            1      84       6   0.0+0
SPC            1      87       1   0.0+0
SPC            1      87       2   0.0+0
SPC            1      87       3   0.0+0
SPC            1      87       4   0.0+0
SPC            1      87       5   0.0+0
SPC            1      87       6   0.0+0
SPC            1      96       1   0.0+0
SPC            1      96       2   0.0+0
SPC            1      96       3   0.0+0
SPC            1      96       4   0.0+0
SPC            1      96       5   0.0+0
SPC            1      96       6   0.0+0
SPC            1      99       1   0.0+0
SPC            1      99       2   0.0+0
SPC            1      99       3   0.0+0
SPC            1      99       4   0.0+0
SPC            1      99       5   0.0+0
SPC            1      99       6   0.0+0
SPC            1     102       1   0.0+0
SPC            1     102       2   0.0+0
SPC            1     102       3   0.0+0
SPC            1     102       4   0.0+0
SPC            1     102       5   0.0+0
SPC            1     102       6   0.0+0
SPC            1     106       1   0.0+0
SPC            1     106       2   0.0+0
SPC            1     106       3   0.0+0
SPC            1     106       4   0.0+0
SPC            1     106       5   0.0+0
SPC            1     106       6   0.0+0
SPC            1     116       1   0.0+0
SPC            1     116       2   0.0+0
SPC            1     116       3   0.0+0
SPC            1     116       4   0.0+0
SPC            1     116       5   0.0+0
SPC            1     116       6   0.0+0
SPC            1     120       1   0.0+0
SPC            1     120       2   0.0+0
SPC            1     120       3   0.0+0
SPC            1     120       4   0.0+0
SPC            1     120       5   0.0+0
SPC            1     120       6   0.0+0
SPC            1     138       1   0.0+0
SPC            1     138       2   0.0+0
SPC            1     138       3   0.0+0
SPC            1     138       4   0.0+0
SPC            1     138       5   0.0+0
SPC            1     138       6   0.0+0
SPC            1     141       1   0.0+0
SPC            1     141       2   0.0+0
SPC            1     141       3   0.0+0
SPC            1     141       4   0.0+0
SPC            1     141       5   0.0+0
SPC            1     141       6   0.0+0
SPC            1     149       1   0.0+0
SPC            1     149       2   0.0+0
SPC            1     149       3   0.0+0
SPC            1     149       4   0.0+0
SPC            1     149       5   0.0+0
SPC            1     149       6   0.0+0
SPC            1     152       1   0.0+0
SPC            1     152       2   0.0+0
SPC            1     152       3   0.0+0
SPC            1     152       4   0.0+0
SPC            1     152       5   0.0+0
SPC            1     152       6   0.0+0
$--1---><--2---><--3---><--4---><--5---><--6---><--7---><--8---><--9---><--10-->
$$$$$$$$$$$$$$$$$$$$$$$$$$$$$$$$$$$ Default $$$$$$$$$$$$$$$$$$$$$$$$$$$$$$$$$$$$
PSHELL         1       1   1.0-2       1               1           0.0+0
CQUAD4         1       1      22     128     133     132   0.0+0   0.0+0
CQUAD4         2       1     128      25     130     133   0.0+0   0.0+0
CQUAD4         3       1     133     130      45     131   0.0+0   0.0+0
CQUAD4         4       1     132     133     131      26   0.0+0   0.0+0
CQUAD4         5       1      25     125     136     130   0.0+0   0.0+0
CQUAD4         6       1     125      10     134     136   0.0+0   0.0+0
CQUAD4         7       1     136     134      17     135   0.0+0   0.0+0
CQUAD4         8       1     130     136     135      45   0.0+0   0.0+0
CQUAD4         9       1      45     135     140     139   0.0+0   0.0+0
CQUAD4        10       1     135      17     137     140   0.0+0   0.0+0
CQUAD4        11       1     140     137       3     138   0.0+0   0.0+0
CQUAD4        12       1     139     140     138      18   0.0+0   0.0+0
CQUAD4        13       1      26     131     143     142   0.0+0   0.0+0
CQUAD4        14       1     131      45     139     143   0.0+0   0.0+0
CQUAD4        15       1     143     139      18     141   0.0+0   0.0+0
CQUAD4        16       1     142     143     141      11   0.0+0   0.0+0
CQUAD4        17       1      12     114     146      92   0.0+0   0.0+0
CQUAD4        18       1     114      23     144     146   0.0+0   0.0+0
CQUAD4        19       1     146     144      41     145   0.0+0   0.0+0
CQUAD4        20       1      92     146     145      20   0.0+0   0.0+0
CQUAD4        21       1      23     111     148     144   0.0+0   0.0+0
CQUAD4        22       1     111      22     132     148   0.0+0   0.0+0
CQUAD4        23       1     148     132      26     147   0.0+0   0.0+0
CQUAD4        24       1     144     148     147      41   0.0+0   0.0+0
CQUAD4        25       1      41     147     151     150   0.0+0   0.0+0
CQUAD4        26       1     147      26     142     151   0.0+0   0.0+0
CQUAD4        27       1     151     142      11     149   0.0+0   0.0+0
CQUAD4        28       1     150     151     149      19   0.0+0   0.0+0
CQUAD4        29       1      20     145     153     100   0.0+0   0.0+0
CQUAD4        30       1     145      41     150     153   0.0+0   0.0+0
CQUAD4        31       1     153     150      19     152   0.0+0   0.0+0
CQUAD4        32       1     100     153     152       4   0.0+0   0.0+0
CQUAD4        33       1       1      46      50      49   0.0+0   0.0+0
CQUAD4        34       1      46      27      47      50   0.0+0   0.0+0
CQUAD4        35       1      50      47      38      48   0.0+0   0.0+0
CQUAD4        36       1      49      50      48      21   0.0+0   0.0+0
CQUAD4        37       1      27      51      54      47   0.0+0   0.0+0
CQUAD4        38       1      51      13      52      54   0.0+0   0.0+0
CQUAD4        39       1      54      52      35      53   0.0+0   0.0+0
CQUAD4        40       1      47      54      53      38   0.0+0   0.0+0
CQUAD4        41       1      38      53      58      57   0.0+0   0.0+0
CQUAD4        42       1      53      35      55      58   0.0+0   0.0+0
CQUAD4        43       1      58      55      33      56   0.0+0   0.0+0
CQUAD4        44       1      57      58      56      34   0.0+0   0.0+0
CQUAD4        45       1      21      48      61      60   0.0+0   0.0+0
CQUAD4        46       1      48      38      57      61   0.0+0   0.0+0
CQUAD4        47       1      61      57      34      59   0.0+0   0.0+0
CQUAD4        48       1      60      61      59      12   0.0+0   0.0+0
CQUAD4        49       1      13      62      65      52   0.0+0   0.0+0
CQUAD4        50       1      62      28      63      65   0.0+0   0.0+0
CQUAD4        51       1      65      63      42      64   0.0+0   0.0+0
CQUAD4        52       1      52      65      64      35   0.0+0   0.0+0
CQUAD4        53       1      28      66      69      63   0.0+0   0.0+0
CQUAD4        54       1      66       6      67      69   0.0+0   0.0+0
CQUAD4        55       1      69      67      29      68   0.0+0   0.0+0
CQUAD4        56       1      63      69      68      42   0.0+0   0.0+0
CQUAD4        57       1      42      68      73      72   0.0+0   0.0+0
CQUAD4        58       1      68      29      70      73   0.0+0   0.0+0
CQUAD4        59       1      73      70       5      71   0.0+0   0.0+0
CQUAD4        60       1      72      73      71      36   0.0+0   0.0+0
CQUAD4        61       1      35      64      75      55   0.0+0   0.0+0
CQUAD4        62       1      64      42      72      75   0.0+0   0.0+0
CQUAD4        63       1      75      72      36      74   0.0+0   0.0+0
CQUAD4        64       1      55      75      74      33   0.0+0   0.0+0
CQUAD4        65       1      33      74      79      78   0.0+0   0.0+0
CQUAD4        66       1      74      36      76      79   0.0+0   0.0+0
CQUAD4        67       1      79      76      39      77   0.0+0   0.0+0
CQUAD4        68       1      78      79      77      37   0.0+0   0.0+0
CQUAD4        69       1      36      71      82      76   0.0+0   0.0+0
CQUAD4        70       1      71       5      80      82   0.0+0   0.0+0
CQUAD4        71       1      82      80      30      81   0.0+0   0.0+0
CQUAD4        72       1      76      82      81      39   0.0+0   0.0+0
CQUAD4        73       1      39      81      86      85   0.0+0   0.0+0
CQUAD4        74       1      81      30      83      86   0.0+0   0.0+0
CQUAD4        75       1      86      83       7      84   0.0+0   0.0+0
CQUAD4        76       1      85      86      84      31   0.0+0   0.0+0
CQUAD4        77       1      37      77      89      88   0.0+0   0.0+0
CQUAD4        78       1      77      39      85      89   0.0+0   0.0+0
CQUAD4        79       1      89      85      31      87   0.0+0   0.0+0
CQUAD4        80       1      88      89      87       8   0.0+0   0.0+0
CQUAD4        81       1      12      59      93      92   0.0+0   0.0+0
CQUAD4        82       1      59      34      90      93   0.0+0   0.0+0
CQUAD4        83       1      93      90      43      91   0.0+0   0.0+0
CQUAD4        84       1      92      93      91      20   0.0+0   0.0+0
CQUAD4        85       1      34      56      95      90   0.0+0   0.0+0
CQUAD4        86       1      56      33      78      95   0.0+0   0.0+0
CQUAD4        87       1      95      78      37      94   0.0+0   0.0+0
CQUAD4        88       1      90      95      94      43   0.0+0   0.0+0
CQUAD4        89       1      43      94      98      97   0.0+0   0.0+0
CQUAD4        90       1      94      37      88      98   0.0+0   0.0+0
CQUAD4        91       1      98      88       8      96   0.0+0   0.0+0
CQUAD4        92       1      97      98      96      32   0.0+0   0.0+0
CQUAD4        93       1      20      91     101     100   0.0+0   0.0+0
CQUAD4        94       1      91      43      97     101   0.0+0   0.0+0
CQUAD4        95       1     101      97      32      99   0.0+0   0.0+0
CQUAD4        96       1     100     101      99       4   0.0+0   0.0+0
CQUAD4        97       1       1     102     105      49   0.0+0   0.0+0
CQUAD4        98       1     102      14     103     105   0.0+0   0.0+0
CQUAD4        99       1     105     103      44     104   0.0+0   0.0+0
CQUAD4       100       1      49     105     104      21   0.0+0   0.0+0
CQUAD4       101       1      14     106     109     103   0.0+0   0.0+0
CQUAD4       102       1     106       9     107     109   0.0+0   0.0+0
CQUAD4       103       1     109     107      24     108   0.0+0   0.0+0
CQUAD4       104       1     103     109     108      44   0.0+0   0.0+0
CQUAD4       105       1      44     108     113     112   0.0+0   0.0+0
CQUAD4       106       1     108      24     110     113   0.0+0   0.0+0
CQUAD4       107       1     113     110      22     111   0.0+0   0.0+0
CQUAD4       108       1     112     113     111      23   0.0+0   0.0+0
CQUAD4       109       1      21     104     115      60   0.0+0   0.0+0
CQUAD4       110       1     104      44     112     115   0.0+0   0.0+0
CQUAD4       111       1     115     112      23     114   0.0+0   0.0+0
CQUAD4       112       1      60     115     114      12   0.0+0   0.0+0
CQUAD4       113       1       9     116     119     107   0.0+0   0.0+0
CQUAD4       114       1     116      15     117     119   0.0+0   0.0+0
CQUAD4       115       1     119     117      40     118   0.0+0   0.0+0
CQUAD4       116       1     107     119     118      24   0.0+0   0.0+0
CQUAD4       117       1      15     120     123     117   0.0+0   0.0+0
CQUAD4       118       1     120       2     121     123   0.0+0   0.0+0
CQUAD4       119       1     123     121      16     122   0.0+0   0.0+0
CQUAD4       120       1     117     123     122      40   0.0+0   0.0+0
CQUAD4       121       1      40     122     127     126   0.0+0   0.0+0
CQUAD4       122       1     122      16     124     127   0.0+0   0.0+0
CQUAD4       123       1     127     124      10     125   0.0+0   0.0+0
CQUAD4       124       1     126     127     125      25   0.0+0   0.0+0
CQUAD4       125       1      24     118     129     110   0.0+0   0.0+0
CQUAD4       126       1     118      40     126     129   0.0+0   0.0+0
CQUAD4       127       1     129     126      25     128   0.0+0   0.0+0
CQUAD4       128       1     110     129     128      22   0.0+0   0.0+0
$--1---><--2---><--3---><--4---><--5---><--6---><--7---><--8---><--9---><--10-->
$$$$$$$$$$$$$$$$$$$$$$$$$$$$$$$$$ temperature $$$$$$$$$$$$$$$$$$$$$$$$$$$$$$$$$$
TEMP*                  4               1        3.5315+2                *
*
TEMP*                  4              46        3.5315+2                *
*
TEMP*                  4              50        3.5315+2                *
*
TEMP*                  4              49        3.5315+2                *
*
TEMP*                  4              27        3.5315+2                *
*
TEMP*                  4              47        3.5315+2                *
*
TEMP*                  4              38        3.5315+2                *
*
TEMP*                  4              48        3.5315+2                *
*
TEMP*                  4              21        3.5315+2                *
*
TEMP*                  4              51        3.5315+2                *
*
TEMP*                  4              54        3.5315+2                *
*
TEMP*                  4              13        3.5315+2                *
*
TEMP*                  4              52        3.5315+2                *
*
TEMP*                  4              35        3.5315+2                *
*
TEMP*                  4              53        3.5315+2                *
*
TEMP*                  4              58        3.5315+2                *
*
TEMP*                  4              57        3.5315+2                *
*
TEMP*                  4              55        3.5315+2                *
*
TEMP*                  4              33        3.5315+2                *
*
TEMP*                  4              56        3.5315+2                *
*
TEMP*                  4              34        3.5315+2                *
*
TEMP*                  4              61        3.5315+2                *
*
TEMP*                  4              60        3.5315+2                *
*
TEMP*                  4              59        3.5315+2                *
*
TEMP*                  4              12        3.5315+2                *
*
TEMP*                  4              62        3.5315+2                *
*
TEMP*                  4              65        3.5315+2                *
*
TEMP*                  4              28        3.5315+2                *
*
TEMP*                  4              63        3.5315+2                *
*
TEMP*                  4              42        3.5315+2                *
*
TEMP*                  4              64        3.5315+2                *
*
TEMP*                  4              66        3.5315+2                *
*
TEMP*                  4              69        3.5315+2                *
*
TEMP*                  4               6        3.5315+2                *
*
TEMP*                  4              67        3.5315+2                *
*
TEMP*                  4              29        3.5315+2                *
*
TEMP*                  4              68        3.5315+2                *
*
TEMP*                  4              73        3.5315+2                *
*
TEMP*                  4              72        3.5315+2                *
*
TEMP*                  4              70        3.5315+2                *
*
TEMP*                  4               5        3.5315+2                *
*
TEMP*                  4              71        3.5315+2                *
*
TEMP*                  4              36        3.5315+2                *
*
TEMP*                  4              75        3.5315+2                *
*
TEMP*                  4              74        3.5315+2                *
*
TEMP*                  4              79        3.5315+2                *
*
TEMP*                  4              78        3.5315+2                *
*
TEMP*                  4              76        3.5315+2                *
*
TEMP*                  4              39        3.5315+2                *
*
TEMP*                  4              77        3.5315+2                *
*
TEMP*                  4              37        3.5315+2                *
*
TEMP*                  4              82        3.5315+2                *
*
TEMP*                  4              80        3.5315+2                *
*
TEMP*                  4              30        3.5315+2                *
*
TEMP*                  4              81        3.5315+2                *
*
TEMP*                  4              86        3.5315+2                *
*
TEMP*                  4              85        3.5315+2                *
*
TEMP*                  4              83        3.5315+2                *
*
TEMP*                  4               7        3.5315+2                *
*
TEMP*                  4              84        3.5315+2                *
*
TEMP*                  4              31        3.5315+2                *
*
TEMP*                  4              89        3.5315+2                *
*
TEMP*                  4              88        3.5315+2                *
*
TEMP*                  4              87        3.5315+2                *
*
TEMP*                  4               8        3.5315+2                *
*
TEMP*                  4              93        3.5315+2                *
*
TEMP*                  4              92        3.5315+2                *
*
TEMP*                  4              90        3.5315+2                *
*
TEMP*                  4              43        3.5315+2                *
*
TEMP*                  4              91        3.5315+2                *
*
TEMP*                  4              20        3.5315+2                *
*
TEMP*                  4              95        3.5315+2                *
*
TEMP*                  4              94        3.5315+2                *
*
TEMP*                  4              98        3.5315+2                *
*
TEMP*                  4              97        3.5315+2                *
*
TEMP*                  4              96        3.5315+2                *
*
TEMP*                  4              32        3.5315+2                *
*
TEMP*                  4             101        3.5315+2                *
*
TEMP*                  4             100        3.5315+2                *
*
TEMP*                  4              99        3.5315+2                *
*
TEMP*                  4               4        3.5315+2                *
*
TEMP*                  4             102        3.5315+2                *
*
TEMP*                  4             105        3.5315+2                *
*
TEMP*                  4              14        3.5315+2                *
*
TEMP*                  4             103        3.5315+2                *
*
TEMP*                  4              44        3.5315+2                *
*
TEMP*                  4             104        3.5315+2                *
*
TEMP*                  4             106        3.5315+2                *
*
TEMP*                  4             109        3.5315+2                *
*
TEMP*                  4               9        3.5315+2                *
*
TEMP*                  4             107        3.5315+2                *
*
TEMP*                  4              24        3.5315+2                *
*
TEMP*                  4             108        3.5315+2                *
*
TEMP*                  4             113        3.5315+2                *
*
TEMP*                  4             112        3.5315+2                *
*
TEMP*                  4             110        3.5315+2                *
*
TEMP*                  4              22        3.5315+2                *
*
TEMP*                  4             111        3.5315+2                *
*
TEMP*                  4              23        3.5315+2                *
*
TEMP*                  4             115        3.5315+2                *
*
TEMP*                  4             114        3.5315+2                *
*
TEMP*                  4             116        3.5315+2                *
*
TEMP*                  4             119        3.5315+2                *
*
TEMP*                  4              15        3.5315+2                *
*
TEMP*                  4             117        3.5315+2                *
*
TEMP*                  4              40        3.5315+2                *
*
TEMP*                  4             118        3.5315+2                *
*
TEMP*                  4             120        3.5315+2                *
*
TEMP*                  4             123        3.5315+2                *
*
TEMP*                  4               2        3.5315+2                *
*
TEMP*                  4             121        3.5315+2                *
*
TEMP*                  4              16        3.5315+2                *
*
TEMP*                  4             122        3.5315+2                *
*
TEMP*                  4             127        3.5315+2                *
*
TEMP*                  4             126        3.5315+2                *
*
TEMP*                  4             124        3.5315+2                *
*
TEMP*                  4              10        3.5315+2                *
*
TEMP*                  4             125        3.5315+2                *
*
TEMP*                  4              25        3.5315+2                *
*
TEMP*                  4             129        3.5315+2                *
*
TEMP*                  4             128        3.5315+2                *
*
TEMP*                  4             133        3.5315+2                *
*
TEMP*                  4             132        3.5315+2                *
*
TEMP*                  4             130        3.5315+2                *
*
TEMP*                  4              45        3.5315+2                *
*
TEMP*                  4             131        3.5315+2                *
*
TEMP*                  4              26        3.5315+2                *
*
TEMP*                  4             136        3.5315+2                *
*
TEMP*                  4             134        3.5315+2                *
*
TEMP*                  4              17        3.5315+2                *
*
TEMP*                  4             135        3.5315+2                *
*
TEMP*                  4             140        3.5315+2                *
*
TEMP*                  4             139        3.5315+2                *
*
TEMP*                  4             137        3.5315+2                *
*
TEMP*                  4               3        3.5315+2                *
*
TEMP*                  4             138        3.5315+2                *
*
TEMP*                  4              18        3.5315+2                *
*
TEMP*                  4             143        3.5315+2                *
*
TEMP*                  4             142        3.5315+2                *
*
TEMP*                  4             141        3.5315+2                *
*
TEMP*                  4              11        3.5315+2                *
*
TEMP*                  4             146        3.5315+2                *
*
TEMP*                  4             144        3.5315+2                *
*
TEMP*                  4              41        3.5315+2                *
*
TEMP*                  4             145        3.5315+2                *
*
TEMP*                  4             148        3.5315+2                *
*
TEMP*                  4             147        3.5315+2                *
*
TEMP*                  4             151        3.5315+2                *
*
TEMP*                  4             150        3.5315+2                *
*
TEMP*                  4             149        3.5315+2                *
*
TEMP*                  4              19        3.5315+2                *
*
TEMP*                  4             153        3.5315+2                *
*
TEMP*                  4             152        3.5315+2                *
*
$--1---><--2---><--3---><--4---><--5---><--6---><--7---><--8---><--9---><--10-->
TEMPD*                 4        2.7315+2                                *
*
$--1---><--2---><--3---><--4---><--5---><--6---><--7---><--8---><--9---><--10-->
EIGRL          1                       4       0           1.0-3    MASS
ENDDATA 
