$ Generated by Mecway 33
$-----------------------EXECUTIVE CONTROL SECTION-----------------------
SOL 101
CEND
$-------------------------CASE CONTROL SECTION--------------------------
DISPLACEMENT = ALL
STRESS(CORNER) = ALL
STRAIN(CORNER,FIBER) = ALL
SPC = 1
LOAD = 1
BEGIN BULK
$---------------------------BULK DATA SECTION---------------------------
GRID           1       0  -1.0-2   0.0+0   0.0+0       0
GRID           2       0  -1.0-2   1.1-2   0.0+0       0
GRID           3       0  -2.1-2   1.1-2   0.0+0       0
GRID           4       0  -1.0-2   1.1-2   0.0+0       0
GRID*                  5               0          -1.0-2 2.63333333333-2*
*                  0.0+0               0
GRID*                  6               0          -2.1-2 2.63333333333-2*
*                  0.0+0               0
GRID*                  7               0 5.33333333333-3           1.1-2*
*                  0.0+0               0
GRID*                  8               0 5.33333333333-3           0.0+0*
*                  0.0+0               0
PARAM   QUAD4TYP  MITC4+
PARAM    STR_CID      -2
$--1---><--2---><--3---><--4---><--5---><--6---><--7---><--8---><--9---><--10-->
$$$$$$$$$$$$$$$$$$$$$$$$$$$$$$$$$$$ Material $$$$$$$$$$$$$$$$$$$$$$$$$$$$$$$$$$$
MAT8           1  2.0+11  2.0+11   0.0+0  2.3+10  4.0+10  1.3+11   0.0+0+
+          0.0+0   0.0+0   0.0+0
$--1---><--2---><--3---><--4---><--5---><--6---><--7---><--8---><--9---><--10-->
SPC            1       1       1   0.0+0
SPC            1       1       2   0.0+0
SPC            1       1       3   0.0+0
SPC            1       1       4   0.0+0
SPC            1       1       5   0.0+0
SPC            1       1       6   0.0+0
SPC            1       2       1   0.0+0
SPC            1       2       2   0.0+0
SPC            1       2       3   0.0+0
SPC            1       2       4   0.0+0
SPC            1       2       5   0.0+0
SPC            1       2       6   0.0+0
SPC            1       3       1   0.0+0
SPC            1       3       2   0.0+0
SPC            1       3       3   0.0+0
SPC            1       3       4   0.0+0
SPC            1       3       5   0.0+0
SPC            1       3       6   0.0+0
SPC            1       4       1   0.0+0
SPC            1       4       2   0.0+0
SPC            1       4       3   0.0+0
SPC            1       4       4   0.0+0
SPC            1       4       5   0.0+0
SPC            1       4       6   0.0+0
SPC            1       5       2   0.0+0
SPC            1       5       4   0.0+0
SPC            1       5       6   0.0+0
SPC            1       6       2   0.0+0
SPC            1       6       4   0.0+0
SPC            1       6       6   0.0+0
SPC            1       7       1   0.0+0
SPC            1       7       5   0.0+0
SPC            1       7       6   0.0+0
SPC            1       8       1   0.0+0
SPC            1       8       5   0.0+0
SPC            1       8       6   0.0+0
$--1---><--2---><--3---><--4---><--5---><--6---><--7---><--8---><--9---><--10-->
$$$$$$$$$$$$$$$$$$$$$$$$$$$$$$$$$$$ Default $$$$$$$$$$$$$$$$$$$$$$$$$$$$$$$$$$$$
PSHELL         1       1   7.0-4       1               1           0.0+0
CQUAD4         1       1       5       6       3       2   1.8+2   0.0+0
CQUAD4         2       1       7       4       1       8   1.8+2   0.0+0
$--1---><--2---><--3---><--4---><--5---><--6---><--7---><--8---><--9---><--10-->
$$$$$$$$$$$$$$$$$$$$$$$$$$$$$$$$$$$$ force $$$$$$$$$$$$$$$$$$$$$$$$$$$$$$$$$$$$$
FORCE*                 2               5               0           1.0+0*
*                  0.0+0           0.0+0        2.7775+2
FORCE*                 2               6               0           1.0+0*
*                  0.0+0           0.0+0        2.7775+2
FORCE*                 2               7               0           1.0+0*
*                  0.0+0           0.0+0        2.7775+2
FORCE*                 2               8               0           1.0+0*
*                  0.0+0           0.0+0        2.7775+2
$--1---><--2---><--3---><--4---><--5---><--6---><--7---><--8---><--9---><--10-->
$$$$$$$$$$$$$$$$$$$$$$$$$$$$$$$$$$$$ force $$$$$$$$$$$$$$$$$$$$$$$$$$$$$$$$$$$$$
FORCE          2       7       0   1.0+0   0.0+0   1.5+2   0.0+0
FORCE          2       8       0   1.0+0   0.0+0   1.5+2   0.0+0
$--1---><--2---><--3---><--4---><--5---><--6---><--7---><--8---><--9---><--10-->
$$$$$$$$$$$$$$$$$$$$$$$$$$$$$$$$$$$$ force $$$$$$$$$$$$$$$$$$$$$$$$$$$$$$$$$$$$$
FORCE          2       5       0   1.0+0  -1.5+2   0.0+0   0.0+0
FORCE          2       6       0   1.0+0  -1.5+2   0.0+0   0.0+0
$--1---><--2---><--3---><--4---><--5---><--6---><--7---><--8---><--9---><--10-->
LOAD           1   1.0+0   1.0+0       2
ENDDATA 
