$ Generated by Mecway 33
$-----------------------EXECUTIVE CONTROL SECTION-----------------------
SOL 101
CEND
$-------------------------CASE CONTROL SECTION--------------------------
DISPLACEMENT = ALL
STRESS(CORNER) = ALL
STRAIN(CORNER,FIBER) = ALL
SPC = 1
TEMPERATURE = 1
BEGIN BULK
$---------------------------BULK DATA SECTION---------------------------
GRID           1       0   0.0+0   0.0+0   0.0+0       0
GRID           2       0   2.0+0   0.0+0   0.0+0       0
GRID           3       0   2.0+0   2.0+0   0.0+0       0
GRID           4       0   0.0+0   2.0+0   0.0+0       0
GRID           5       0   0.0+0   0.0+0   5.0-1       0
GRID           6       0   2.0+0   0.0+0   5.0-1       0
GRID           7       0   2.0+0   2.0+0   5.0-1       0
GRID           8       0   0.0+0   2.0+0   5.0-1       0
GRID*                  9               0 6.66666666667-1           0.0+0*
*                  5.0-1               0
GRID*                 10               0 1.33333333333+0           0.0+0*
*                  5.0-1               0
GRID*                 11               0           0.0+0 6.66666666667-1*
*                  5.0-1               0
GRID*                 12               0  7.0347905159-1  4.7524356842-1*
*                  5.0-1               0
GRID*                 13               0 1.09773635864+0 7.62378334999-1*
*                  5.0-1               0
GRID*                 14               0           2.0+0 6.66666666667-1*
*                  5.0-1               0
GRID*                 15               0           0.0+0 1.33333333333+0*
*                  5.0-1               0
GRID*                 16               0 5.34143209457-1    1.52475667+0*
*                  5.0-1               0
GRID*                 17               0 1.38487100601+0 1.59838092327+0*
*                  5.0-1               0
GRID*                 18               0           2.0+0 1.33333333333+0*
*                  5.0-1               0
GRID*                 19               0 6.66666666667-1           2.0+0*
*                  5.0-1               0
GRID*                 20               0 1.33333333333+0           2.0+0*
*                  5.0-1               0
GRID*                 21               0-1.20614758428-1           0.0+0*
*       -6.84040286651-1               0
GRID*                 22               0 1.75877048314+0           0.0+0*
*        -1.3680805733+0               1
GRID*                 23               0 1.75877048314+0           2.0+0*
*        -1.3680805733+0               0
GRID*                 24               0-1.20614758428-1           2.0+0*
*       -6.84040286651-1               1
GRID          25       0   0.0+0  -1.0+0   1.0+0       2
GRID*                 26               0 1.73205080757+0          -1.0+0*
*                  2.0+0               2
GRID*                 27               0 7.32050807569-1          -1.0+0*
*        3.73205080757+0               0
GRID*                 28               0          -1.0+0          -1.0+0*
*        2.73205080757+0               2
PARAM   QUAD4TYP  MITC4+
PARAM    STR_CID      -2
$--1---><--2---><--3---><--4---><--5---><--6---><--7---><--8---><--9---><--10-->
$$$$$$$$$$$$$$$$$$$$$$$$$$$$$$$$$$$ Material $$$$$$$$$$$$$$$$$$$$$$$$$$$$$$$$$$$
MAT8           1  1.0+11  3.0+10   3.5-1   1.0+9   1.0+9   1.0+9   0.0+0+
+          3.0-3   5.0-3   3.0+2
$--1---><--2---><--3---><--4---><--5---><--6---><--7---><--8---><--9---><--10-->
CORD2R*                1               0           0.0+0           0.0+0*
*                  0.0+0 3.42020143326-1           0.0+0 9.39692620786-1*
*        9.39692620786-1           0.0+0-3.42020143326-1                *
*
CORD2R*                2               0           0.0+0           0.0+0*
*                  0.0+0          -5.0-1           0.0+0 8.66025403784-1*
*        8.66025403784-1           0.0+0           5.0-1                *
*
SPC            1       1       1   0.0+0
SPC            1       1       2   0.0+0
SPC            1       1       3   0.0+0
SPC            1       1       4   0.0+0
SPC            1       1       5   0.0+0
SPC            1       1       6   0.0+0
SPC            1       2       2   0.0+0
SPC            1       2       4   0.0+0
SPC            1       2       6   0.0+0
SPC            1       4       1   0.0+0
SPC            1       4       5   0.0+0
SPC            1       4       6   0.0+0
SPC            1       5       1   0.0+0
SPC            1       5       2   0.0+0
SPC            1       5       3   0.0+0
SPC            1       5       4   0.0+0
SPC            1       5       5   0.0+0
SPC            1       5       6   0.0+0
SPC            1       6       2   0.0+0
SPC            1       6       4   0.0+0
SPC            1       6       6   0.0+0
SPC            1       8       1   0.0+0
SPC            1       8       5   0.0+0
SPC            1       8       6   0.0+0
SPC            1       9       2   0.0+0
SPC            1       9       4   0.0+0
SPC            1       9       6   0.0+0
SPC            1      10       2   0.0+0
SPC            1      10       4   0.0+0
SPC            1      10       6   0.0+0
SPC            1      11       1   0.0+0
SPC            1      11       5   0.0+0
SPC            1      11       6   0.0+0
SPC            1      15       1   0.0+0
SPC            1      15       5   0.0+0
SPC            1      15       6   0.0+0
SPC            1      21       1   0.0+0
SPC            1      21       2   0.0+0
SPC            1      21       3   0.0+0
SPC            1      21       4   0.0+0
SPC            1      21       5   0.0+0
SPC            1      21       6   0.0+0
SPC            1      22       2   0.0+0
SPC            1      22       4   0.0+0
SPC            1      22       6   0.0+0
SPC            1      24       1   0.0+0
SPC            1      24       5   0.0+0
SPC            1      24       6   0.0+0
SPC            1      25       1   0.0+0
SPC            1      25       3   0.0+0
SPC            1      25       4   0.0+0
SPC            1      25       6   0.0+0
SPC            1      25       5   0.0+0
SPC            1      26       3   0.0+0
SPC            1      26       4   0.0+0
SPC            1      26       5   0.0+0
SPC            1      28       1   0.0+0
SPC            1      28       6   0.0+0
SPC            1      28       5   0.0+0
$--1---><--2---><--3---><--4---><--5---><--6---><--7---><--8---><--9---><--10-->
$$$$$$$$$$$$$$$$$$$$$$$$$$$$$$$$$$$ Default $$$$$$$$$$$$$$$$$$$$$$$$$$$$$$$$$$$$
PSHELL         3       1   1.0-1       1               1           0.0+0
CQUAD4         1       3       1       2       3       4   0.0+0   0.0+0
CQUAD4*                2               3              17              18*
*                      7              20 2.33103071279+1           0.0+0
CQUAD4         3       3       5       9      12      11   0.0+0   0.0+0
CQUAD4         4       3       9      10      13      12   0.0+0   0.0+0
CQUAD4         5       3      10       6      14      13   0.0+0   0.0+0
CQUAD4*                6               3              11              12*
*                     16              15  1.5222150445+1           0.0+0
CQUAD4*                7               3              12              13*
*                     17              16-3.60655824005+1           0.0+0
CQUAD4*                8               3              13              14*
*                     18              17 6.05526191514+0           0.0+0
CQUAD4*                9               3              15              16*
*                     19               8-1.97163877179+1           0.0+0
CQUAD4*               10               3              16              17*
*                     20              19-4.94620576917+0           0.0+0
CQUAD4        11       3      21      22      23      24   0.0+0   0.0+0
CQUAD4        12       3      25      26      27      28   0.0+0   0.0+0
$--1---><--2---><--3---><--4---><--5---><--6---><--7---><--8---><--9---><--10-->
$$$$$$$$$$$$$$$$$$$$$$$$$$$$$$$$$ temperature $$$$$$$$$$$$$$$$$$$$$$$$$$$$$$$$$$
TEMP           1       1   3.1+2
TEMP           1       2   3.1+2
TEMP           1       3   3.1+2
TEMP           1       4   3.1+2
TEMP           1       5   3.1+2
TEMP           1       9   3.1+2
TEMP           1      12   3.1+2
TEMP           1      11   3.1+2
TEMP           1      10   3.1+2
TEMP           1      13   3.1+2
TEMP           1       6   3.1+2
TEMP           1      14   3.1+2
TEMP           1      16   3.1+2
TEMP           1      15   3.1+2
TEMP           1      17   3.1+2
TEMP           1      18   3.1+2
TEMP           1      19   3.1+2
TEMP           1       8   3.1+2
TEMP           1      20   3.1+2
TEMP           1       7   3.1+2
TEMP           1      21   3.1+2
TEMP           1      22   3.1+2
TEMP           1      23   3.1+2
TEMP           1      24   3.1+2
TEMP           1      25   3.1+2
TEMP           1      26   3.1+2
TEMP           1      27   3.1+2
TEMP           1      28   3.1+2
$--1---><--2---><--3---><--4---><--5---><--6---><--7---><--8---><--9---><--10-->
TEMPD          1   3.0+2
$--1---><--2---><--3---><--4---><--5---><--6---><--7---><--8---><--9---><--10-->
ENDDATA 
