$ Generated by Mecway 33
$-----------------------EXECUTIVE CONTROL SECTION-----------------------
SOL 101
CEND
$-------------------------CASE CONTROL SECTION--------------------------
DISPLACEMENT = ALL
SPCFORCES = ALL
MPCFORCES = ALL
STRESS(CORNER) = ALL
STRAIN(CORNER) = ALL
SPC = 1
TEMPERATURE = 1
BEGIN BULK
$---------------------------BULK DATA SECTION---------------------------
GRID           1       0   0.0+0   0.0+0   0.0+0       0
GRID           2       0   1.0+0   0.0+0   0.0+0       0
GRID           3       0   1.0+0   1.0+0   0.0+0       0
GRID           4       0   0.0+0   1.0+0   0.0+0       0
GRID           5       0   3.0-1   0.0+0   0.0+0       0
GRID           6       0   1.0+0   5.0-1   0.0+0       0
GRID           7       0   7.0-1   1.0+0   0.0+0       0
GRID           8       0   0.0+0   5.0-1   0.0+0       0
GRID           9       0   5.0-1   5.0-1   0.0+0       0
GRID          10       0   2.0+0   0.0+0   0.0+0       0
GRID          11       0   3.0+0   0.0+0   0.0+0       0
GRID          12       0   3.0+0   1.0+0   0.0+0       0
GRID          13       0   2.0+0   1.0+0   0.0+0       0
GRID          14       0   2.3+0   0.0+0   0.0+0       0
GRID          15       0   3.0+0   5.0-1   0.0+0       0
GRID          16       0   2.7+0   1.0+0   0.0+0       0
GRID          17       0   2.0+0   5.0-1   0.0+0       0
GRID*                 18               0 2.55813074112+0 5.10904669762-1*
*                  0.0+0               0
GRID*                 19               0 2.28533744812+0 4.60399091244-1*
*                  0.0+0               0
GRID*                 20               0 2.64427447319+0 7.44096875191-1*
*                  0.0+0               0
GRID          21       0  2.35+0   1.0+0   0.0+0       0
GRID          22       0   2.0+0   7.5-1   0.0+0       0
GRID*                 23               0 2.22415947914+0 8.01243662834-1*
*                  0.0+0               0
GRID          24       0  2.15+0   0.0+0   0.0+0       0
GRID*                 25               0 2.54758167267+0 2.84845679998-1*
*                  0.0+0               0
GRID          26       0   2.0+0   2.5-1   0.0+0       0
GRID*                 27               0 2.24304461479+0 1.65960535407-1*
*                  0.0+0               0
GRID          28       0  2.65+0   0.0+0   0.0+0       0
GRID          29       0   3.0+0   2.5-1   0.0+0       0
GRID          30       0  2.75+0   5.0-1   0.0+0       0
GRID*                 31               0 2.77083921432+0 2.82468020916-1*
*                  0.0+0               0
GRID          32       0   3.0+0   7.5-1   0.0+0       0
GRID          33       0  2.85+0   1.0+0   0.0+0       0
GRID*                 34               0 2.80295157433+0 8.26742649078-1*
*                  0.0+0               0
PARAM   QUAD4TYP  MITC4+
PARAM    STR_CID      -2
$--1---><--2---><--3---><--4---><--5---><--6---><--7---><--8---><--9---><--10-->
$$$$$$$$$$$$$$$$$$$$$$$$$$$$$$$$$$$ Material $$$$$$$$$$$$$$$$$$$$$$$$$$$$$$$$$$$
MAT8           1  1.0+10  1.0+10   0.0+0   5.0+9   5.0+9   5.0+9   0.0+0+
+          0.0+0   3.0-3   0.0+0
$--1---><--2---><--3---><--4---><--5---><--6---><--7---><--8---><--9---><--10-->
SPC            1       1       1   0.0+0
SPC            1       1       3   0.0+0
SPC            1       1       2   0.0+0
SPC            1       1       4   0.0+0
SPC            1       1       6   0.0+0
SPC            1       2       2   0.0+0
SPC            1       2       3   0.0+0
SPC            1       2       4   0.0+0
SPC            1       2       6   0.0+0
SPC            1       5       2   0.0+0
SPC            1       5       4   0.0+0
SPC            1       5       6   0.0+0
SPC            1      10       1   0.0+0
SPC            1      10       3   0.0+0
SPC            1      10       2   0.0+0
SPC            1      10       4   0.0+0
SPC            1      10       6   0.0+0
SPC            1      11       2   0.0+0
SPC            1      11       3   0.0+0
SPC            1      11       4   0.0+0
SPC            1      11       6   0.0+0
SPC            1      14       2   0.0+0
SPC            1      14       4   0.0+0
SPC            1      14       6   0.0+0
SPC            1      24       2   0.0+0
SPC            1      24       4   0.0+0
SPC            1      24       6   0.0+0
SPC            1      28       2   0.0+0
SPC            1      28       4   0.0+0
SPC            1      28       6   0.0+0
$--1---><--2---><--3---><--4---><--5---><--6---><--7---><--8---><--9---><--10-->
$$$$$$$$$$$$$$$$$$$$$$$$$$$$$$$$$$$ Default $$$$$$$$$$$$$$$$$$$$$$$$$$$$$$$$$$$$
PSHELL         1       1   1.0-2       1               1           0.0+0
CQUAD4         1       1       9       8       4       7   1.8+2   0.0+0
CQUAD4         2       1       1       5       9       8   0.0+0   0.0+0
CQUAD4         3       1       5       2       6       9   0.0+0   0.0+0
CQUAD4         4       1       9       6       3       7   0.0+0   0.0+0
CQUAD4*                5               1              18              30*
*                     34              20 3.25284075378+0           0.0+0
CQUAD4         6       1      30      15      32      34   0.0+0   0.0+0
CQUAD4*                7               1              34              32*
*                     12              33  2.1278966367+1           0.0+0
CQUAD4*                8               1              20              34*
*                     33              16-2.75124145805+1           0.0+0
CQUAD4*                9               1              19              17*
*                     22              23 1.72098607973+2           0.0+0
CQUAD4*               10               1              19              18*
*                     20              23-1.04891014922+1           0.0+0
CQUAD4*               11               1              23              20*
*                     16              21 7.74620336896+0           0.0+0
CQUAD4*               12               1              23              22*
*                     13              21-1.67123246947+2           0.0+0
CQUAD4        13       1      10      24      27      26   0.0+0   0.0+0
CQUAD4        14       1      24      14      25      27   0.0+0   0.0+0
CQUAD4*               15               1              25              27*
*                     19              18-1.58675326039+2           0.0+0
CQUAD4*               16               1              26              27*
*                     19              17  1.9074256162+1           0.0+0
CQUAD4        17       1      14      28      31      25   0.0+0   0.0+0
CQUAD4        18       1      28      11      29      31   0.0+0   0.0+0
CQUAD4*               19               1              31              29*
*                     15              30 8.06412272843+0           0.0+0
CQUAD4*               20               1              25              31*
*                     30              18 6.10168326318-1           0.0+0
$--1---><--2---><--3---><--4---><--5---><--6---><--7---><--8---><--9---><--10-->
$$$$$$$$$$$$$$$$$$$$$$$$$$$$$$$$$ temperature $$$$$$$$$$$$$$$$$$$$$$$$$$$$$$$$$$
TEMP           1       9   2.5+1
TEMP           1       6   2.5+1
TEMP           1       3   1.0+2
TEMP           1       7   1.0+2
TEMP*                  1              18 2.61023581584+1                *
*
TEMP           1      30   2.5+1
TEMP*                  1              34 6.83503407805+1                *
*
TEMP*                  1              20 5.53680159669+1                *
*
TEMP           1      15   2.5+1
TEMP           1      32 5.625+1
TEMP           1      14   0.0+0
TEMP           1      28   0.0+0
TEMP*                  1              31 7.97881828402+0                *
*
TEMP*                  1              25 8.11370614137+0                *
*
TEMP*                  1              23 6.41991407232+1                *
*
TEMP           1      22 5.625+1
TEMP           1      13   1.0+2
TEMP           1      21   1.0+2
TEMP           1      10   0.0+0
TEMP           1      24   0.0+0
TEMP*                  1              27 2.75428993126+0                *
*
TEMP           1      26  6.25+0
TEMP           1      16   1.0+2
TEMP*                  1              19 2.11967323218+1                *
*
TEMP           1      17   2.5+1
TEMP           1       5   0.0+0
TEMP           1       2   0.0+0
TEMP           1      11   0.0+0
TEMP           1      29  6.25+0
TEMP           1      12   1.0+2
TEMP           1      33   1.0+2
TEMP           1       1   0.0+0
TEMP           1       8   2.5+1
TEMP           1       4   1.0+2
$--1---><--2---><--3---><--4---><--5---><--6---><--7---><--8---><--9---><--10-->
TEMPD          1   0.0+0
$--1---><--2---><--3---><--4---><--5---><--6---><--7---><--8---><--9---><--10-->
ENDDATA 
