$ Generated by Mecway 33
$-----------------------EXECUTIVE CONTROL SECTION-----------------------
SOL 101
CEND
$-------------------------CASE CONTROL SECTION--------------------------
DISPLACEMENT = ALL
SPCFORCES = ALL
MPCFORCES = ALL
STRESS(CORNER) = ALL
STRAIN(CORNER) = ALL
FORCE(CORNER) = ALL
SPC = 1
TEMPERATURE = 1
BEGIN BULK
$---------------------------BULK DATA SECTION---------------------------
GRID*                  1               0 -1.1480502971+0           7.5-1*
*        2.77163859753+0               0
GRID*                  2               0-5.96196632645-1           1.5+0*
*        2.94016148795+0               0
GRID*                  3               0 -1.1480502971+0          2.25+0*
*        2.77163859753+0               0
GRID*                  4               0 2.50058280778+0 1.0143003277-16*
*        1.65743344405+0               0
GRID*                  5               0 2.94016148795+0 3.6485473492-17*
*        5.96196632645-1               0
GRID           6       0   3.0+0   7.5-1   0.0+0       0
GRID           7       0   3.0+0  2.25+0   0.0+0       0
GRID*                  8               0 2.94016148795+0           3.0+0*
*        5.96196632645-1               0
GRID*                  9               0 2.50058280778+0           3.0+0*
*        1.65743344405+0               0
GRID*                 10               0 2.77163859753+0           1.5+0*
*         1.1480502971+0               0
GRID*                 11               0 2.50058280778+0           1.5+0*
*        1.65743344405+0               0
GRID*                 12               0 2.77163859753+0           7.5-1*
*         1.1480502971+0               0
GRID*                 13               0 2.94016148795+0           1.5+0*
*        5.96196632645-1               0
GRID*                 14               0 2.77163859753+0          2.25+0*
*         1.1480502971+0               0
GRID          15       0   3.0+0  3.75+0   0.0+0       0
GRID          16       0   3.0+0  5.25+0   0.0+0       0
GRID*                 17               0 2.94016148795+0           6.0+0*
*        5.96196632645-1               0
GRID*                 18               0 2.50058280778+0           6.0+0*
*        1.65743344405+0               0
GRID*                 19               0 2.77163859753+0           4.5+0*
*         1.1480502971+0               0
GRID*                 20               0 2.50058280778+0           4.5+0*
*        1.65743344405+0               0
GRID*                 21               0 2.77163859753+0          3.75+0*
*         1.1480502971+0               0
GRID*                 22               0 2.94016148795+0           4.5+0*
*        5.96196632645-1               0
GRID*                 23               0 2.77163859753+0          5.25+0*
*         1.1480502971+0               0
GRID*                 24               0-2.94016148795+0           7.5-1*
*        5.96196632645-1               0
GRID*                 25               0 1.65743344405+0          2.25+0*
*        2.50058280778+0               0
GRID*                 26               0 2.94016148795+0          3.75+0*
*        5.96196632645-1               0
GRID*                 27               0-2.94016148795+0          5.25+0*
*        5.96196632645-1               0
GRID*                 28               0 5.96196632645-1          5.25+0*
*        2.94016148795+0               0
GRID*                 29               0 5.96196632645-1           7.5-1*
*        2.94016148795+0               0
GRID*                 30               0-1.65743344405+0          3.75+0*
*        2.50058280778+0               0
GRID*                 31               0-2.50058280778+0          2.25+0*
*        1.65743344405+0               0
GRID*                 32               0 5.96196632645-1          3.75+0*
*        2.94016148795+0               0
GRID*                 33               0 2.50058280778+0          3.75+0*
*        1.65743344405+0               0
GRID*                 34               0 2.12132034356+0           1.3+1*
*        2.12132034356+0               0
GRID*                 35               0 1.65743344405+0          5.25+0*
*        2.50058280778+0               0
GRID*                 36               0-1.65743344405+0          5.25+0*
*        2.50058280778+0               0
GRID*                 37               0 5.96196632645-1          2.25+0*
*        2.94016148795+0               0
GRID*                 38               0 2.94016148795+0          2.25+0*
*        5.96196632645-1               0
GRID          39       0  -3.0+0   1.0+1   0.0+0       0
GRID*                 40               0 2.50058280778+0          5.25+0*
*        1.65743344405+0               0
GRID          41       0   3.0+0   1.6+1   0.0+0       0
GRID*                 42               0-2.94016148795+0          2.25+0*
*        5.96196632645-1               0
GRID*                 43               0 2.12132034356+0           1.6+1*
*        2.12132034356+0               0
GRID*                 44               0 2.50058280778+0           7.5-1*
*        1.65743344405+0               0
GRID          45       0   0.0+0   1.6+1   3.0+0       0
GRID          46       0   3.0+0   1.0+1   0.0+0       0
GRID          47       0   3.0+0   1.3+1   0.0+0       0
GRID*                 48               0 2.12132034356+0           1.0+1*
*        2.12132034356+0               0
GRID*                 49               0 2.50058280778+0          2.25+0*
*        1.65743344405+0               0
GRID          50       0   0.0+0   1.0+1   3.0+0       0
GRID*                 51               0-2.12132034356+0           1.3+1*
*        2.12132034356+0               0
GRID*                 52               0-5.96196632645-1          3.75+0*
*        2.94016148795+0               0
GRID*                 53               0-2.12132034356+0           1.6+1*
*        2.12132034356+0               0
GRID*                 54               0-2.12132034356+0           1.0+1*
*        2.12132034356+0               0
GRID*                 55               0-5.96196632645-1          5.25+0*
*        2.94016148795+0               0
GRID          56       0  -3.0+0   1.6+1   0.0+0       0
GRID*                 57               0-1.65743344405+0           7.5-1*
*        2.50058280778+0               0
GRID*                 58               0-2.50058280778+0          3.75+0*
*        1.65743344405+0               0
GRID          59       0   0.0+0   1.3+1   3.0+0       0
GRID*                 60               0-2.50058280778+0          5.25+0*
*        1.65743344405+0               0
GRID*                 61               0 2.94016148795+0          5.25+0*
*        5.96196632645-1               0
GRID*                 62               0 2.94016148795+0           7.5-1*
*        5.96196632645-1               0
GRID*                 63               0-5.96196632645-1           7.5-1*
*        2.94016148795+0               0
GRID*                 64               0-2.94016148795+0          3.75+0*
*        5.96196632645-1               0
GRID*                 65               0-1.65743344405+0          2.25+0*
*        2.50058280778+0               0
GRID          66       0  -3.0+0   1.3+1   0.0+0       0
GRID*                 67               0-5.96196632645-1          2.25+0*
*        2.94016148795+0               0
GRID*                 68               0 1.65743344405+0          3.75+0*
*        2.50058280778+0               0
GRID*                 69               0 1.65743344405+0           7.5-1*
*        2.50058280778+0               0
GRID*                 70               0-2.50058280778+0           7.5-1*
*        1.65743344405+0               0
GRID*                 71               0 5.96196632645-1           3.0+0*
*        2.94016148795+0               0
GRID*                 72               0 1.65743344405+0           3.0+0*
*        2.50058280778+0               0
GRID*                 73               0 2.12132034356+0          3.75+0*
*        2.12132034356+0               0
GRID*                 74               0 2.12132034356+0          5.25+0*
*        2.12132034356+0               0
GRID*                 75               0 1.65743344405+0           6.0+0*
*        2.50058280778+0               0
GRID*                 76               0 5.96196632645-1           6.0+0*
*        2.94016148795+0               0
GRID          77       0   0.0+0  5.25+0   3.0+0       0
GRID          78       0   0.0+0  3.75+0   3.0+0       0
GRID*                 79               0  1.1480502971+0           4.5+0*
*        2.77163859753+0               0
GRID*                 80               0 5.96196632645-1           4.5+0*
*        2.94016148795+0               0
GRID*                 81               0  1.1480502971+0          3.75+0*
*        2.77163859753+0               0
GRID*                 82               0 1.65743344405+0           4.5+0*
*        2.50058280778+0               0
GRID*                 83               0  1.1480502971+0          5.25+0*
*        2.77163859753+0               0
GRID*                 84               0-2.94016148795+0           3.0+0*
*        5.96196632645-1               0
GRID*                 85               0-2.50058280778+0           3.0+0*
*        1.65743344405+0               0
GRID*                 86               0-2.12132034356+0          3.75+0*
*        2.12132034356+0               0
GRID*                 87               0-2.12132034356+0          5.25+0*
*        2.12132034356+0               0
GRID*                 88               0-2.50058280778+0           6.0+0*
*        1.65743344405+0               0
GRID*                 89               0-2.94016148795+0           6.0+0*
*        5.96196632645-1               0
GRID          90       0  -3.0+0  5.25+0   0.0+0       0
GRID          91       0  -3.0+0  3.75+0   0.0+0       0
GRID*                 92               0-2.77163859753+0           4.5+0*
*         1.1480502971+0               0
GRID*                 93               0-2.94016148795+0           4.5+0*
*        5.96196632645-1               0
GRID*                 94               0-2.77163859753+0          3.75+0*
*         1.1480502971+0               0
GRID*                 95               0-2.50058280778+0           4.5+0*
*        1.65743344405+0               0
GRID*                 96               0-2.77163859753+0          5.25+0*
*         1.1480502971+0               0
GRID*                 97               0-1.65743344405+0           3.0+0*
*        2.50058280778+0               0
GRID*                 98               0-5.96196632645-1           3.0+0*
*        2.94016148795+0               0
GRID*                 99               0-5.96196632645-1           6.0+0*
*        2.94016148795+0               0
GRID*                100               0-1.65743344405+0           6.0+0*
*        2.50058280778+0               0
GRID*                101               0 -1.1480502971+0           4.5+0*
*        2.77163859753+0               0
GRID*                102               0-1.65743344405+0           4.5+0*
*        2.50058280778+0               0
GRID*                103               0 -1.1480502971+0          3.75+0*
*        2.77163859753+0               0
GRID*                104               0-5.96196632645-1           4.5+0*
*        2.94016148795+0               0
GRID*                105               0 -1.1480502971+0          5.25+0*
*        2.77163859753+0               0
GRID*                106               0 5.96196632645-1 1.7992920147-16*
*        2.94016148795+0               0
GRID*                107               0 1.65743344405+0 1.5302828422-16*
*        2.50058280778+0               0
GRID*                108               0 2.12132034356+0           7.5-1*
*        2.12132034356+0               0
GRID*                109               0 2.12132034356+0          2.25+0*
*        2.12132034356+0               0
GRID         110       0   0.0+0  2.25+0   3.0+0       0
GRID         111       0   0.0+0   7.5-1   3.0+0       0
GRID*                112               0  1.1480502971+0           1.5+0*
*        2.77163859753+0               0
GRID*                113               0 5.96196632645-1           1.5+0*
*        2.94016148795+0               0
GRID*                114               0  1.1480502971+0           7.5-1*
*        2.77163859753+0               0
GRID*                115               0 1.65743344405+0           1.5+0*
*        2.50058280778+0               0
GRID*                116               0  1.1480502971+0          2.25+0*
*        2.77163859753+0               0
GRID*                117               0-2.94016148795+0 3.6485473492-17*
*        5.96196632645-1               0
GRID*                118               0-2.50058280778+0 1.0143003277-16*
*        1.65743344405+0               0
GRID*                119               0-2.12132034356+0           7.5-1*
*        2.12132034356+0               0
GRID*                120               0-2.12132034356+0          2.25+0*
*        2.12132034356+0               0
GRID         121       0  -3.0+0  2.25+0   0.0+0       0
GRID         122       0  -3.0+0   7.5-1   0.0+0       0
GRID*                123               0-2.77163859753+0           1.5+0*
*         1.1480502971+0               0
GRID*                124               0-2.94016148795+0           1.5+0*
*        5.96196632645-1               0
GRID*                125               0-2.77163859753+0           7.5-1*
*         1.1480502971+0               0
GRID*                126               0-2.50058280778+0           1.5+0*
*        1.65743344405+0               0
GRID*                127               0-2.77163859753+0          2.25+0*
*         1.1480502971+0               0
GRID*                128               0-1.65743344405+0 1.5302828422-16*
*        2.50058280778+0               0
GRID*                129               0-5.96196632645-1 1.7992920147-16*
*        2.94016148795+0               0
GRID*                130               0 -1.1480502971+0           1.5+0*
*        2.77163859753+0               0
GRID*                131               0-1.65743344405+0           1.5+0*
*        2.50058280778+0               0
GRID*                132               0 2.12132034356+0           3.0+0*
*        2.12132034356+0               0
GRID*                133               0 2.77163859753+0           6.0+0*
*         1.1480502971+0               0
GRID*                134               0-2.12132034356+0           1.5+0*
*        2.12132034356+0               0
GRID*                135               0 -1.1480502971+0           6.0+0*
*        2.77163859753+0               0
GRID*                136               0 -1.1480502971+0           3.0+0*
*        2.77163859753+0               0
GRID         137       0  -3.0+0   0.0+0   0.0+0       0
GRID         138       0   3.0+0   1.5+0   0.0+0       0
GRID         139       0   3.0+0   6.0+0   0.0+0       0
GRID*                140               0 2.12132034356+0           4.5+0*
*        2.12132034356+0               0
GRID*                141               0 2.12132034356+0           6.0+0*
*        2.12132034356+0               0
GRID*                142               0 2.77163859753+0           3.0+0*
*         1.1480502971+0               0
GRID         143       0   0.0+0   6.0+0   3.0+0       0
GRID         144       0   3.0+0   0.0+0   0.0+0       0
GRID         145       0   3.0+0   3.0+0   0.0+0       0
GRID*                146               0 2.12132034356+0 1.2988911856-16*
*        2.12132034356+0               0
GRID*                147               0 2.77163859753+0 7.0295484417-17*
*         1.1480502971+0               0
GRID*                148               0           0.0+0 1.8369095307-16*
*                  3.0+0               0
GRID*                149               0-2.12132034356+0           3.0+0*
*        2.12132034356+0               0
GRID*                150               0-2.12132034356+0           4.5+0*
*        2.12132034356+0               0
GRID*                151               0-2.12132034356+0           6.0+0*
*        2.12132034356+0               0
GRID*                152               0-2.12132034356+0 1.2988911856-16*
*        2.12132034356+0               0
GRID*                153               0 -1.1480502971+0 1.6970831185-16*
*        2.77163859753+0               0
GRID         154       0  -3.0+0   6.0+0   0.0+0       0
GRID         155       0   3.0+0   4.5+0   0.0+0       0
GRID         156       0   0.0+0   1.5+0   3.0+0       0
GRID         157       0   0.0+0   3.0+0   3.0+0       0
GRID         158       0   0.0+0   4.5+0   3.0+0       0
GRID*                159               0  1.1480502971+0 1.6970831185-16*
*        2.77163859753+0               0
GRID*                160               0  1.1480502971+0           3.0+0*
*        2.77163859753+0               0
GRID*                161               0  1.1480502971+0           6.0+0*
*        2.77163859753+0               0
GRID*                162               0 2.12132034356+0           1.5+0*
*        2.12132034356+0               0
GRID         163       0  -3.0+0   1.5+0   0.0+0       0
GRID         164       0  -3.0+0   3.0+0   0.0+0       0
GRID         165       0  -3.0+0   4.5+0   0.0+0       0
GRID*                166               0-2.77163859753+0 7.0295484417-17*
*         1.1480502971+0               0
GRID*                167               0-2.77163859753+0           3.0+0*
*         1.1480502971+0               0
GRID*                168               0-2.77163859753+0           6.0+0*
*         1.1480502971+0               0
PARAM   QUAD4TYP  MITC4+
PARAM    STR_CID      -2
$--1---><--2---><--3---><--4---><--5---><--6---><--7---><--8---><--9---><--10-->
$$$$$$$$$$$$$$$$$$$$$$$$$$$$$$$$$$$ Material $$$$$$$$$$$$$$$$$$$$$$$$$$$$$$$$$$$
MAT1*                  1          2.0+11 7.6923076923+10           3.0-1*
*                  0.0+0           3.0-4        2.7315+2
$--1---><--2---><--3---><--4---><--5---><--6---><--7---><--8---><--9---><--10-->
SPC            1      39       3   0.0+0
SPC            1      41       1   0.0+0
SPC            1      41       3   0.0+0
SPC            1      46       1   0.0+0
SPC            1      46       3   0.0+0
SPC            1      56       3   0.0+0
SPC            1      66       2   0.0+0
SPC            1     137       3   0.0+0
SPC            1     139       1   0.0+0
SPC            1     139       3   0.0+0
SPC            1     144       1   0.0+0
SPC            1     144       3   0.0+0
SPC            1     154       3   0.0+0
SPC            1     164       2   0.0+0
$--1---><--2---><--3---><--4---><--5---><--6---><--7---><--8---><--9---><--10-->
$$$$$$$$$$$$$$$$$$$$$$$$$$$$$$$$$$ Component $$$$$$$$$$$$$$$$$$$$$$$$$$$$$$$$$$$
PSHELL         1       1   1.0-1       1               1           0.0+0
CQUAD4         1       1     163     124      42     121   9.0+1   0.0+0
CQUAD4         2       1     124     123     127      42   9.0+1   0.0+0
CQUAD4         3       1      42     127     167      84   9.0+1   0.0+0
CQUAD4         4       1     121      42      84     164   9.0+1   0.0+0
CQUAD4         5       1     152     128      57     119   9.0+1   0.0+0
CQUAD4         6       1     128     153       1      57   9.0+1   0.0+0
CQUAD4         7       1      57       1     130     131   9.0+1   0.0+0
CQUAD4         8       1     119      57     131     134   9.0+1   0.0+0
CQUAD4         9       1     153     129      63       1   9.0+1   0.0+0
CQUAD4        10       1     129     148     111      63   9.0+1   0.0+0
CQUAD4        11       1      63     111     156       2   9.0+1   0.0+0
CQUAD4        12       1       1      63       2     130   9.0+1   0.0+0
CQUAD4        13       1     130       2      67       3   9.0+1   0.0+0
CQUAD4        14       1       2     156     110      67   9.0+1   0.0+0
CQUAD4        15       1      67     110     157      98   9.0+1   0.0+0
CQUAD4        16       1       3      67      98     136   9.0+1   0.0+0
CQUAD4        17       1     134     131      65     120   9.0+1   0.0+0
CQUAD4        18       1     131     130       3      65   9.0+1   0.0+0
CQUAD4        19       1      65       3     136      97   9.0+1   0.0+0
CQUAD4        20       1     120      65      97     149   9.0+1   0.0+0
CQUAD4        21       1      34      47      41      43   9.0+1   0.0+0
CQUAD4        22       1      59      34      43      45   9.0+1   0.0+0
CQUAD4        23       1      66      51      53      56   9.0+1   0.0+0
CQUAD4        24       1      51      59      45      53   9.0+1   0.0+0
CQUAD4        25       1      50      48      34      59   9.0+1   0.0+0
CQUAD4        26       1      39      54      51      66   9.0+1   0.0+0
CQUAD4        27       1      54      50      59      51   9.0+1   0.0+0
CQUAD4        28       1      48      46      47      34   9.0+1   0.0+0
CQUAD4        29       1      80      79      83      28   9.0+1   0.0+0
CQUAD4        30       1      91      64      93     165   9.0+1   0.0+0
CQUAD4        31       1      85     149      86      58   9.0+1   0.0+0
CQUAD4        32       1      96      60      88     168   9.0+1   0.0+0
CQUAD4        33       1      86      30     102     150   9.0+1   0.0+0
CQUAD4        34       1     102     101     105      36   9.0+1   0.0+0
CQUAD4        35       1     111      29     113     156   9.0+1   0.0+0
CQUAD4        36       1     166     118      70     125   9.0+1   0.0+0
CQUAD4        37       1      30     103     101     102   9.0+1   0.0+0
CQUAD4        38       1      27      96     168      89   9.0+1   0.0+0
CQUAD4        39       1     114      69     115     112   9.0+1   0.0+0
CQUAD4        40       1     150     102      36      87   9.0+1   0.0+0
CQUAD4        41       1      29     114     112     113   9.0+1   0.0+0
CQUAD4        42       1      93      92      96      27   9.0+1   0.0+0
CQUAD4        43       1      24     125     123     124   9.0+1   0.0+0
CQUAD4        44       1     136      98      52     103   9.0+1   0.0+0
CQUAD4        45       1     164      84      64      91   9.0+1   0.0+0
CQUAD4        46       1     158      80      28      77   9.0+1   0.0+0
CQUAD4        47       1      84     167      94      64   9.0+1   0.0+0
CQUAD4        48       1      28      83     161      76   9.0+1   0.0+0
CQUAD4        49       1      77      28      76     143   9.0+1   0.0+0
CQUAD4        50       1      64      94      92      93   9.0+1   0.0+0
CQUAD4        51       1      92      95      60      96   9.0+1   0.0+0
CQUAD4        52       1     167      85      58      94   9.0+1   0.0+0
CQUAD4        53       1      95     150      87      60   9.0+1   0.0+0
CQUAD4        54       1      58      86     150      95   9.0+1   0.0+0
CQUAD4        55       1      94      58      95      92   9.0+1   0.0+0
CQUAD4        56       1      60      87     151      88   9.0+1   0.0+0
CQUAD4        57       1     101     104      55     105   9.0+1   0.0+0
CQUAD4        58       1     149      97      30      86   9.0+1   0.0+0
CQUAD4        59       1      55      77     143      99   9.0+1   0.0+0
CQUAD4        60       1      52      78     158     104   9.0+1   0.0+0
CQUAD4        61       1     103      52     104     101   9.0+1   0.0+0
CQUAD4        62       1     105      55      99     135   9.0+1   0.0+0
CQUAD4        63       1     110      37      71     157   9.0+1   0.0+0
CQUAD4        64       1     148     106      29     111   9.0+1   0.0+0
CQUAD4        65       1     122      24     124     163   9.0+1   0.0+0
CQUAD4        66       1     116      25      72     160   9.0+1   0.0+0
CQUAD4        67       1      37     116     160      71   9.0+1   0.0+0
CQUAD4        68       1     118     152     119      70   9.0+1   0.0+0
CQUAD4        69       1     126     134     120      31   9.0+1   0.0+0
CQUAD4        70       1     104     158      77      55   9.0+1   0.0+0
CQUAD4        71       1      90      27      89     154   9.0+1   0.0+0
CQUAD4        72       1      87      36     100     151   9.0+1   0.0+0
CQUAD4        73       1     165      93      27      90   9.0+1   0.0+0
CQUAD4        74       1     106     159     114      29   9.0+1   0.0+0
CQUAD4        75       1     113     112     116      37   9.0+1   0.0+0
CQUAD4        76       1     117     166     125      24   9.0+1   0.0+0
CQUAD4        77       1      69     108     162     115   9.0+1   0.0+0
CQUAD4        78       1     127      31      85     167   9.0+1   0.0+0
CQUAD4        79       1      31     120     149      85   9.0+1   0.0+0
CQUAD4        80       1     123     126      31     127   9.0+1   0.0+0
CQUAD4        81       1      98     157      78      52   9.0+1   0.0+0
CQUAD4        82       1      36     105     135     100   9.0+1   0.0+0
CQUAD4        83       1     159     107      69     114   9.0+1   0.0+0
CQUAD4        84       1     125      70     126     123   9.0+1   0.0+0
CQUAD4        85       1      70     119     134     126   9.0+1   0.0+0
CQUAD4        86       1      97     136     103      30   9.0+1   0.0+0
CQUAD4        87       1      25     109     132      72   9.0+1   0.0+0
CQUAD4        88       1     137     117      24     122   9.0+1   0.0+0
CQUAD4        89       1     156     113      37     110   9.0+1   0.0+0
CQUAD4        90       1     115     162     109      25   9.0+1   0.0+0
CQUAD4        91       1     107     146     108      69   9.0+1   0.0+0
CQUAD4        92       1     112     115      25     116   9.0+1   0.0+0
CQUAD4        93       1     147       5      62      12   9.0+1   0.0+0
CQUAD4        94       1       5     144       6      62   9.0+1   0.0+0
CQUAD4        95       1      62       6     138      13   9.0+1   0.0+0
CQUAD4        96       1      12      62      13      10   9.0+1   0.0+0
CQUAD4        97       1      10      13      38      14   9.0+1   0.0+0
CQUAD4        98       1      13     138       7      38   9.0+1   0.0+0
CQUAD4        99       1      38       7     145       8   9.0+1   0.0+0
CQUAD4       100       1      14      38       8     142   9.0+1   0.0+0
CQUAD4       101       1     162      11      49     109   9.0+1   0.0+0
CQUAD4       102       1      11      10      14      49   9.0+1   0.0+0
CQUAD4       103       1      49      14     142       9   9.0+1   0.0+0
CQUAD4       104       1     109      49       9     132   9.0+1   0.0+0
CQUAD4       105       1     132       9      33      73   9.0+1   0.0+0
CQUAD4       106       1       9     142      21      33   9.0+1   0.0+0
CQUAD4       107       1      33      21      19      20   9.0+1   0.0+0
CQUAD4       108       1      73      33      20     140   9.0+1   0.0+0
CQUAD4       109       1     142       8      26      21   9.0+1   0.0+0
CQUAD4       110       1       8     145      15      26   9.0+1   0.0+0
CQUAD4       111       1      26      15     155      22   9.0+1   0.0+0
CQUAD4       112       1      21      26      22      19   9.0+1   0.0+0
CQUAD4       113       1      19      22      61      23   9.0+1   0.0+0
CQUAD4       114       1      22     155      16      61   9.0+1   0.0+0
CQUAD4       115       1      61      16     139      17   9.0+1   0.0+0
CQUAD4       116       1      23      61      17     133   9.0+1   0.0+0
CQUAD4       117       1     140      20      40      74   9.0+1   0.0+0
CQUAD4       118       1      20      19      23      40   9.0+1   0.0+0
CQUAD4       119       1      40      23     133      18   9.0+1   0.0+0
CQUAD4       120       1      74      40      18     141   9.0+1   0.0+0
CQUAD4       121       1     157      71      32      78   9.0+1   0.0+0
CQUAD4       122       1      71     160      81      32   9.0+1   0.0+0
CQUAD4       123       1      32      81      79      80   9.0+1   0.0+0
CQUAD4       124       1      78      32      80     158   9.0+1   0.0+0
CQUAD4       125       1     160      72      68      81   9.0+1   0.0+0
CQUAD4       126       1      72     132      73      68   9.0+1   0.0+0
CQUAD4       127       1      68      73     140      82   9.0+1   0.0+0
CQUAD4       128       1      81      68      82      79   9.0+1   0.0+0
CQUAD4       129       1      79      82      35      83   9.0+1   0.0+0
CQUAD4       130       1      82     140      74      35   9.0+1   0.0+0
CQUAD4       131       1      35      74     141      75   9.0+1   0.0+0
CQUAD4       132       1      83      35      75     161   9.0+1   0.0+0
CQUAD4       133       1     146       4      44     108   9.0+1   0.0+0
CQUAD4       134       1       4     147      12      44   9.0+1   0.0+0
CQUAD4       135       1      44      12      10      11   9.0+1   0.0+0
CQUAD4       136       1     108      44      11     162   9.0+1   0.0+0
$--1---><--2---><--3---><--4---><--5---><--6---><--7---><--8---><--9---><--10-->
$$$$$$$$$$$$$$$$$$$$$$$$$$$$$$$$$ temperature $$$$$$$$$$$$$$$$$$$$$$$$$$$$$$$$$$
TEMP*                  1              59        3.7315+2                *
*
TEMP*                  1              34        3.7315+2                *
*
TEMP*                  1              43        3.7315+2                *
*
TEMP*                  1              45        3.7315+2                *
*
TEMP*                  1              66        3.7315+2                *
*
TEMP*                  1              51        3.7315+2                *
*
TEMP*                  1              53        3.7315+2                *
*
TEMP*                  1              56        3.7315+2                *
*
TEMP*                  1              50        3.7315+2                *
*
TEMP*                  1              48        3.7315+2                *
*
TEMP*                  1              39        3.7315+2                *
*
TEMP*                  1              54        3.7315+2                *
*
TEMP*                  1              46        3.7315+2                *
*
TEMP*                  1              47        3.7315+2                *
*
TEMP*                  1               4        3.7315+2                *
*
TEMP*                  1             147        3.7315+2                *
*
TEMP*                  1              12        3.7315+2                *
*
TEMP*                  1              44        3.7315+2                *
*
TEMP*                  1              10        3.7315+2                *
*
TEMP*                  1              11        3.7315+2                *
*
TEMP*                  1             108        3.7315+2                *
*
TEMP*                  1             162        3.7315+2                *
*
TEMP*                  1               5        3.7315+2                *
*
TEMP*                  1              62        3.7315+2                *
*
TEMP*                  1             144        3.7315+2                *
*
TEMP*                  1               6        3.7315+2                *
*
TEMP*                  1             138        3.7315+2                *
*
TEMP*                  1              13        3.7315+2                *
*
TEMP*                  1              38        3.7315+2                *
*
TEMP*                  1              14        3.7315+2                *
*
TEMP*                  1               7        3.7315+2                *
*
TEMP*                  1             145        3.7315+2                *
*
TEMP*                  1               8        3.7315+2                *
*
TEMP*                  1             142        3.7315+2                *
*
TEMP*                  1              49        3.7315+2                *
*
TEMP*                  1             109        3.7315+2                *
*
TEMP*                  1               9        3.7315+2                *
*
TEMP*                  1             132        3.7315+2                *
*
TEMP*                  1              33        3.7315+2                *
*
TEMP*                  1              73        3.7315+2                *
*
TEMP*                  1              21        3.7315+2                *
*
TEMP*                  1              19        3.7315+2                *
*
TEMP*                  1              20        3.7315+2                *
*
TEMP*                  1             140        3.7315+2                *
*
TEMP*                  1              26        3.7315+2                *
*
TEMP*                  1              15        3.7315+2                *
*
TEMP*                  1             155        3.7315+2                *
*
TEMP*                  1              22        3.7315+2                *
*
TEMP*                  1              61        3.7315+2                *
*
TEMP*                  1              23        3.7315+2                *
*
TEMP*                  1              16        3.7315+2                *
*
TEMP*                  1             139        3.7315+2                *
*
TEMP*                  1              17        3.7315+2                *
*
TEMP*                  1             133        3.7315+2                *
*
TEMP*                  1              40        3.7315+2                *
*
TEMP*                  1              74        3.7315+2                *
*
TEMP*                  1              18        3.7315+2                *
*
TEMP*                  1             141        3.7315+2                *
*
TEMP*                  1             157        3.7315+2                *
*
TEMP*                  1              71        3.7315+2                *
*
TEMP*                  1              32        3.7315+2                *
*
TEMP*                  1              78        3.7315+2                *
*
TEMP*                  1             160        3.7315+2                *
*
TEMP*                  1              81        3.7315+2                *
*
TEMP*                  1              79        3.7315+2                *
*
TEMP*                  1              80        3.7315+2                *
*
TEMP*                  1             158        3.7315+2                *
*
TEMP*                  1              72        3.7315+2                *
*
TEMP*                  1              68        3.7315+2                *
*
TEMP*                  1              82        3.7315+2                *
*
TEMP*                  1              35        3.7315+2                *
*
TEMP*                  1              83        3.7315+2                *
*
TEMP*                  1              75        3.7315+2                *
*
TEMP*                  1             161        3.7315+2                *
*
TEMP*                  1              28        3.7315+2                *
*
TEMP*                  1              77        3.7315+2                *
*
TEMP*                  1              76        3.7315+2                *
*
TEMP*                  1             143        3.7315+2                *
*
TEMP*                  1             164        3.7315+2                *
*
TEMP*                  1              84        3.7315+2                *
*
TEMP*                  1              64        3.7315+2                *
*
TEMP*                  1              91        3.7315+2                *
*
TEMP*                  1             167        3.7315+2                *
*
TEMP*                  1              94        3.7315+2                *
*
TEMP*                  1              92        3.7315+2                *
*
TEMP*                  1              93        3.7315+2                *
*
TEMP*                  1             165        3.7315+2                *
*
TEMP*                  1              85        3.7315+2                *
*
TEMP*                  1              58        3.7315+2                *
*
TEMP*                  1             149        3.7315+2                *
*
TEMP*                  1              86        3.7315+2                *
*
TEMP*                  1             150        3.7315+2                *
*
TEMP*                  1              95        3.7315+2                *
*
TEMP*                  1              60        3.7315+2                *
*
TEMP*                  1              96        3.7315+2                *
*
TEMP*                  1              87        3.7315+2                *
*
TEMP*                  1             151        3.7315+2                *
*
TEMP*                  1              88        3.7315+2                *
*
TEMP*                  1             168        3.7315+2                *
*
TEMP*                  1              27        3.7315+2                *
*
TEMP*                  1              90        3.7315+2                *
*
TEMP*                  1              89        3.7315+2                *
*
TEMP*                  1             154        3.7315+2                *
*
TEMP*                  1              97        3.7315+2                *
*
TEMP*                  1              30        3.7315+2                *
*
TEMP*                  1             136        3.7315+2                *
*
TEMP*                  1             103        3.7315+2                *
*
TEMP*                  1             101        3.7315+2                *
*
TEMP*                  1             102        3.7315+2                *
*
TEMP*                  1              98        3.7315+2                *
*
TEMP*                  1              52        3.7315+2                *
*
TEMP*                  1             104        3.7315+2                *
*
TEMP*                  1              55        3.7315+2                *
*
TEMP*                  1             105        3.7315+2                *
*
TEMP*                  1              99        3.7315+2                *
*
TEMP*                  1             135        3.7315+2                *
*
TEMP*                  1              36        3.7315+2                *
*
TEMP*                  1             100        3.7315+2                *
*
TEMP*                  1             148        3.7315+2                *
*
TEMP*                  1             106        3.7315+2                *
*
TEMP*                  1              29        3.7315+2                *
*
TEMP*                  1             111        3.7315+2                *
*
TEMP*                  1             159        3.7315+2                *
*
TEMP*                  1             114        3.7315+2                *
*
TEMP*                  1             112        3.7315+2                *
*
TEMP*                  1             113        3.7315+2                *
*
TEMP*                  1             156        3.7315+2                *
*
TEMP*                  1             107        3.7315+2                *
*
TEMP*                  1              69        3.7315+2                *
*
TEMP*                  1             146        3.7315+2                *
*
TEMP*                  1             115        3.7315+2                *
*
TEMP*                  1              25        3.7315+2                *
*
TEMP*                  1             116        3.7315+2                *
*
TEMP*                  1              37        3.7315+2                *
*
TEMP*                  1             110        3.7315+2                *
*
TEMP*                  1             137        3.7315+2                *
*
TEMP*                  1             117        3.7315+2                *
*
TEMP*                  1              24        3.7315+2                *
*
TEMP*                  1             122        3.7315+2                *
*
TEMP*                  1             166        3.7315+2                *
*
TEMP*                  1             125        3.7315+2                *
*
TEMP*                  1             123        3.7315+2                *
*
TEMP*                  1             124        3.7315+2                *
*
TEMP*                  1             163        3.7315+2                *
*
TEMP*                  1             118        3.7315+2                *
*
TEMP*                  1              70        3.7315+2                *
*
TEMP*                  1             152        3.7315+2                *
*
TEMP*                  1             119        3.7315+2                *
*
TEMP*                  1             134        3.7315+2                *
*
TEMP*                  1             126        3.7315+2                *
*
TEMP*                  1              31        3.7315+2                *
*
TEMP*                  1             127        3.7315+2                *
*
TEMP*                  1             120        3.7315+2                *
*
TEMP*                  1              42        3.7315+2                *
*
TEMP*                  1             121        3.7315+2                *
*
TEMP*                  1             128        3.7315+2                *
*
TEMP*                  1              57        3.7315+2                *
*
TEMP*                  1             153        3.7315+2                *
*
TEMP*                  1               1        3.7315+2                *
*
TEMP*                  1             130        3.7315+2                *
*
TEMP*                  1             131        3.7315+2                *
*
TEMP*                  1             129        3.7315+2                *
*
TEMP*                  1              63        3.7315+2                *
*
TEMP*                  1               2        3.7315+2                *
*
TEMP*                  1              67        3.7315+2                *
*
TEMP*                  1               3        3.7315+2                *
*
TEMP*                  1              65        3.7315+2                *
*
TEMP*                  1              41        3.7315+2                *
*
$--1---><--2---><--3---><--4---><--5---><--6---><--7---><--8---><--9---><--10-->
TEMPD*                 1        2.7315+2                                *
*
$--1---><--2---><--3---><--4---><--5---><--6---><--7---><--8---><--9---><--10-->
$ Set cylindrical shell normals for Nastran.
SNORM,1,0,-1.14805E+00,0.00000E+00,2.77164E+00
SNORM,2,0,-5.96197E-01,0.00000E+00,2.94016E+00
SNORM,3,0,-1.14805E+00,0.00000E+00,2.77164E+00
SNORM,4,0,2.50058E+00,0.00000E+00,1.65743E+00
SNORM,5,0,2.94016E+00,0.00000E+00,5.96197E-01
SNORM,6,0,3.00000E+00,0.00000E+00,0.00000E+00
SNORM,7,0,3.00000E+00,0.00000E+00,0.00000E+00
SNORM,8,0,2.94016E+00,0.00000E+00,5.96197E-01
SNORM,9,0,2.50058E+00,0.00000E+00,1.65743E+00
SNORM,10,0,2.77164E+00,0.00000E+00,1.14805E+00
SNORM,11,0,2.50058E+00,0.00000E+00,1.65743E+00
SNORM,12,0,2.77164E+00,0.00000E+00,1.14805E+00
SNORM,13,0,2.94016E+00,0.00000E+00,5.96197E-01
SNORM,14,0,2.77164E+00,0.00000E+00,1.14805E+00
SNORM,15,0,3.00000E+00,0.00000E+00,0.00000E+00
SNORM,16,0,3.00000E+00,0.00000E+00,0.00000E+00
SNORM,17,0,2.94016E+00,0.00000E+00,5.96197E-01
SNORM,18,0,2.50058E+00,0.00000E+00,1.65743E+00
SNORM,19,0,2.77164E+00,0.00000E+00,1.14805E+00
SNORM,20,0,2.50058E+00,0.00000E+00,1.65743E+00
SNORM,21,0,2.77164E+00,0.00000E+00,1.14805E+00
SNORM,22,0,2.94016E+00,0.00000E+00,5.96197E-01
SNORM,23,0,2.77164E+00,0.00000E+00,1.14805E+00
SNORM,24,0,-2.94016E+00,0.00000E+00,5.96197E-01
SNORM,25,0,1.65743E+00,0.00000E+00,2.50058E+00
SNORM,26,0,2.94016E+00,0.00000E+00,5.96197E-01
SNORM,27,0,-2.94016E+00,0.00000E+00,5.96197E-01
SNORM,28,0,5.96197E-01,0.00000E+00,2.94016E+00
SNORM,29,0,5.96197E-01,0.00000E+00,2.94016E+00
SNORM,30,0,-1.65743E+00,0.00000E+00,2.50058E+00
SNORM,31,0,-2.50058E+00,0.00000E+00,1.65743E+00
SNORM,32,0,5.96197E-01,0.00000E+00,2.94016E+00
SNORM,33,0,2.50058E+00,0.00000E+00,1.65743E+00
SNORM,34,0,2.12132E+00,0.00000E+00,2.12132E+00
SNORM,35,0,1.65743E+00,0.00000E+00,2.50058E+00
SNORM,36,0,-1.65743E+00,0.00000E+00,2.50058E+00
SNORM,37,0,5.96197E-01,0.00000E+00,2.94016E+00
SNORM,38,0,2.94016E+00,0.00000E+00,5.96197E-01
SNORM,39,0,-3.00000E+00,0.00000E+00,0.00000E+00
SNORM,40,0,2.50058E+00,0.00000E+00,1.65743E+00
SNORM,41,0,3.00000E+00,0.00000E+00,0.00000E+00
SNORM,42,0,-2.94016E+00,0.00000E+00,5.96197E-01
SNORM,43,0,2.12132E+00,0.00000E+00,2.12132E+00
SNORM,44,0,2.50058E+00,0.00000E+00,1.65743E+00
SNORM,45,0,0.00000E+00,0.00000E+00,3.00000E+00
SNORM,46,0,3.00000E+00,0.00000E+00,0.00000E+00
SNORM,47,0,3.00000E+00,0.00000E+00,0.00000E+00
SNORM,48,0,2.12132E+00,0.00000E+00,2.12132E+00
SNORM,49,0,2.50058E+00,0.00000E+00,1.65743E+00
SNORM,50,0,0.00000E+00,0.00000E+00,3.00000E+00
SNORM,51,0,-2.12132E+00,0.00000E+00,2.12132E+00
SNORM,52,0,-5.96197E-01,0.00000E+00,2.94016E+00
SNORM,53,0,-2.12132E+00,0.00000E+00,2.12132E+00
SNORM,54,0,-2.12132E+00,0.00000E+00,2.12132E+00
SNORM,55,0,-5.96197E-01,0.00000E+00,2.94016E+00
SNORM,56,0,-3.00000E+00,0.00000E+00,0.00000E+00
SNORM,57,0,-1.65743E+00,0.00000E+00,2.50058E+00
SNORM,58,0,-2.50058E+00,0.00000E+00,1.65743E+00
SNORM,59,0,0.00000E+00,0.00000E+00,3.00000E+00
SNORM,60,0,-2.50058E+00,0.00000E+00,1.65743E+00
SNORM,61,0,2.94016E+00,0.00000E+00,5.96197E-01
SNORM,62,0,2.94016E+00,0.00000E+00,5.96197E-01
SNORM,63,0,-5.96197E-01,0.00000E+00,2.94016E+00
SNORM,64,0,-2.94016E+00,0.00000E+00,5.96197E-01
SNORM,65,0,-1.65743E+00,0.00000E+00,2.50058E+00
SNORM,66,0,-3.00000E+00,0.00000E+00,0.00000E+00
SNORM,67,0,-5.96197E-01,0.00000E+00,2.94016E+00
SNORM,68,0,1.65743E+00,0.00000E+00,2.50058E+00
SNORM,69,0,1.65743E+00,0.00000E+00,2.50058E+00
SNORM,70,0,-2.50058E+00,0.00000E+00,1.65743E+00
SNORM,71,0,5.96197E-01,0.00000E+00,2.94016E+00
SNORM,72,0,1.65743E+00,0.00000E+00,2.50058E+00
SNORM,73,0,2.12132E+00,0.00000E+00,2.12132E+00
SNORM,74,0,2.12132E+00,0.00000E+00,2.12132E+00
SNORM,75,0,1.65743E+00,0.00000E+00,2.50058E+00
SNORM,76,0,5.96197E-01,0.00000E+00,2.94016E+00
SNORM,77,0,0.00000E+00,0.00000E+00,3.00000E+00
SNORM,78,0,0.00000E+00,0.00000E+00,3.00000E+00
SNORM,79,0,1.14805E+00,0.00000E+00,2.77164E+00
SNORM,80,0,5.96197E-01,0.00000E+00,2.94016E+00
SNORM,81,0,1.14805E+00,0.00000E+00,2.77164E+00
SNORM,82,0,1.65743E+00,0.00000E+00,2.50058E+00
SNORM,83,0,1.14805E+00,0.00000E+00,2.77164E+00
SNORM,84,0,-2.94016E+00,0.00000E+00,5.96197E-01
SNORM,85,0,-2.50058E+00,0.00000E+00,1.65743E+00
SNORM,86,0,-2.12132E+00,0.00000E+00,2.12132E+00
SNORM,87,0,-2.12132E+00,0.00000E+00,2.12132E+00
SNORM,88,0,-2.50058E+00,0.00000E+00,1.65743E+00
SNORM,89,0,-2.94016E+00,0.00000E+00,5.96197E-01
SNORM,90,0,-3.00000E+00,0.00000E+00,0.00000E+00
SNORM,91,0,-3.00000E+00,0.00000E+00,0.00000E+00
SNORM,92,0,-2.77164E+00,0.00000E+00,1.14805E+00
SNORM,93,0,-2.94016E+00,0.00000E+00,5.96197E-01
SNORM,94,0,-2.77164E+00,0.00000E+00,1.14805E+00
SNORM,95,0,-2.50058E+00,0.00000E+00,1.65743E+00
SNORM,96,0,-2.77164E+00,0.00000E+00,1.14805E+00
SNORM,97,0,-1.65743E+00,0.00000E+00,2.50058E+00
SNORM,98,0,-5.96197E-01,0.00000E+00,2.94016E+00
SNORM,99,0,-5.96197E-01,0.00000E+00,2.94016E+00
SNORM,100,0,-1.65743E+00,0.00000E+00,2.50058E+00
SNORM,101,0,-1.14805E+00,0.00000E+00,2.77164E+00
SNORM,102,0,-1.65743E+00,0.00000E+00,2.50058E+00
SNORM,103,0,-1.14805E+00,0.00000E+00,2.77164E+00
SNORM,104,0,-5.96197E-01,0.00000E+00,2.94016E+00
SNORM,105,0,-1.14805E+00,0.00000E+00,2.77164E+00
SNORM,106,0,5.96197E-01,0.00000E+00,2.94016E+00
SNORM,107,0,1.65743E+00,0.00000E+00,2.50058E+00
SNORM,108,0,2.12132E+00,0.00000E+00,2.12132E+00
SNORM,109,0,2.12132E+00,0.00000E+00,2.12132E+00
SNORM,110,0,0.00000E+00,0.00000E+00,3.00000E+00
SNORM,111,0,0.00000E+00,0.00000E+00,3.00000E+00
SNORM,112,0,1.14805E+00,0.00000E+00,2.77164E+00
SNORM,113,0,5.96197E-01,0.00000E+00,2.94016E+00
SNORM,114,0,1.14805E+00,0.00000E+00,2.77164E+00
SNORM,115,0,1.65743E+00,0.00000E+00,2.50058E+00
SNORM,116,0,1.14805E+00,0.00000E+00,2.77164E+00
SNORM,117,0,-2.94016E+00,0.00000E+00,5.96197E-01
SNORM,118,0,-2.50058E+00,0.00000E+00,1.65743E+00
SNORM,119,0,-2.12132E+00,0.00000E+00,2.12132E+00
SNORM,120,0,-2.12132E+00,0.00000E+00,2.12132E+00
SNORM,121,0,-3.00000E+00,0.00000E+00,0.00000E+00
SNORM,122,0,-3.00000E+00,0.00000E+00,0.00000E+00
SNORM,123,0,-2.77164E+00,0.00000E+00,1.14805E+00
SNORM,124,0,-2.94016E+00,0.00000E+00,5.96197E-01
SNORM,125,0,-2.77164E+00,0.00000E+00,1.14805E+00
SNORM,126,0,-2.50058E+00,0.00000E+00,1.65743E+00
SNORM,127,0,-2.77164E+00,0.00000E+00,1.14805E+00
SNORM,128,0,-1.65743E+00,0.00000E+00,2.50058E+00
SNORM,129,0,-5.96197E-01,0.00000E+00,2.94016E+00
SNORM,130,0,-1.14805E+00,0.00000E+00,2.77164E+00
SNORM,131,0,-1.65743E+00,0.00000E+00,2.50058E+00
SNORM,132,0,2.12132E+00,0.00000E+00,2.12132E+00
SNORM,133,0,2.77164E+00,0.00000E+00,1.14805E+00
SNORM,134,0,-2.12132E+00,0.00000E+00,2.12132E+00
SNORM,135,0,-1.14805E+00,0.00000E+00,2.77164E+00
SNORM,136,0,-1.14805E+00,0.00000E+00,2.77164E+00
SNORM,137,0,-3.00000E+00,0.00000E+00,0.00000E+00
SNORM,138,0,3.00000E+00,0.00000E+00,0.00000E+00
SNORM,139,0,3.00000E+00,0.00000E+00,0.00000E+00
SNORM,140,0,2.12132E+00,0.00000E+00,2.12132E+00
SNORM,141,0,2.12132E+00,0.00000E+00,2.12132E+00
SNORM,142,0,2.77164E+00,0.00000E+00,1.14805E+00
SNORM,143,0,0.00000E+00,0.00000E+00,3.00000E+00
SNORM,144,0,3.00000E+00,0.00000E+00,0.00000E+00
SNORM,145,0,3.00000E+00,0.00000E+00,0.00000E+00
SNORM,146,0,2.12132E+00,0.00000E+00,2.12132E+00
SNORM,147,0,2.77164E+00,0.00000E+00,1.14805E+00
SNORM,148,0,0.00000E+00,0.00000E+00,3.00000E+00
SNORM,149,0,-2.12132E+00,0.00000E+00,2.12132E+00
SNORM,150,0,-2.12132E+00,0.00000E+00,2.12132E+00
SNORM,151,0,-2.12132E+00,0.00000E+00,2.12132E+00
SNORM,152,0,-2.12132E+00,0.00000E+00,2.12132E+00
SNORM,153,0,-1.14805E+00,0.00000E+00,2.77164E+00
SNORM,154,0,-3.00000E+00,0.00000E+00,0.00000E+00
SNORM,155,0,3.00000E+00,0.00000E+00,0.00000E+00
SNORM,156,0,0.00000E+00,0.00000E+00,3.00000E+00
SNORM,157,0,0.00000E+00,0.00000E+00,3.00000E+00
SNORM,158,0,0.00000E+00,0.00000E+00,3.00000E+00
SNORM,159,0,1.14805E+00,0.00000E+00,2.77164E+00
SNORM,160,0,1.14805E+00,0.00000E+00,2.77164E+00
SNORM,161,0,1.14805E+00,0.00000E+00,2.77164E+00
SNORM,162,0,2.12132E+00,0.00000E+00,2.12132E+00
SNORM,163,0,-3.00000E+00,0.00000E+00,0.00000E+00
SNORM,164,0,-3.00000E+00,0.00000E+00,0.00000E+00
SNORM,165,0,-3.00000E+00,0.00000E+00,0.00000E+00
SNORM,166,0,-2.77164E+00,0.00000E+00,1.14805E+00
SNORM,167,0,-2.77164E+00,0.00000E+00,1.14805E+00
SNORM,168,0,-2.77164E+00,0.00000E+00,1.14805E+00


ENDDATA 
