$ Generated by Mecway 33
$-----------------------EXECUTIVE CONTROL SECTION-----------------------
SOL 101
CEND
$-------------------------CASE CONTROL SECTION--------------------------
DISPLACEMENT = ALL
SPCFORCES = ALL
MPCFORCES = ALL
STRESS(CORNER) = ALL
STRAIN(CORNER,FIBER) = ALL
FORCE(CORNER) = ALL
SPC = 1
LOAD = 1
BEGIN BULK
$---------------------------BULK DATA SECTION---------------------------
GRID           1       0   0.0+0   0.0+0   0.0+0       0
GRID           2       0   1.2+0   0.0+0   0.0+0       0
GRID           3       0   1.2+0   1.2+0   0.0+0       0
GRID           4       0   0.0+0   1.2+0   0.0+0       0
GRID           5       0   2.0+0   0.0+0   0.0+0       0
GRID           6       0   3.2+0   0.0+0   0.0+0       0
GRID           7       0   3.2+0   1.2+0   0.0+0       0
GRID           8       0   2.0+0   1.2+0   0.0+0       0
GRID           9       0  -2.0+0   0.0+0   0.0+0       0
GRID          10       0  -8.0-1   0.0+0   0.0+0       0
GRID          11       0  -8.0-1   1.2+0   0.0+0       0
GRID          12       0  -2.0+0   1.2+0   0.0+0       0
GRID          13       0  -2.0+0   2.0+0   0.0+0       0
GRID          14       0  -8.0-1   2.0+0   0.0+0       0
GRID          15       0  -8.0-1   3.2+0   0.0+0       0
GRID          16       0  -2.0+0   3.2+0   0.0+0       0
GRID          17       0   2.0+0   2.0+0   0.0+0       0
GRID          18       0   3.2+0   2.0+0   0.0+0       0
GRID          19       0   3.2+0   3.2+0   0.0+0       0
GRID          20       0   2.0+0   3.2+0   0.0+0       0
GRID          21       0   5.2+0   1.2+0   0.0+0       0
GRID          22       0   4.0+0   1.2+0   0.0+0       0
GRID          23       0   5.2+0   0.0+0   0.0+0       0
GRID          24       0   4.0+0   0.0+0   0.0+0       0
GRID*                 25               0 6.35536269767+0 3.59017617689+0*
*                  0.0+0               1
GRID*                 26               0 5.22773155272+0  3.1797520049+0*
*                  0.0+0               0
GRID*                 27               0 6.76578686966+0 2.46254503194+0*
*                  0.0+0               1
GRID*                 28               0 5.63815572472+0 2.05212085995+0*
*                  0.0+0               0
PARAM   QUAD4TYP  MITC4+
PARAM    STR_CID      -2
$--1---><--2---><--3---><--4---><--5---><--6---><--7---><--8---><--9---><--10-->
$$$$$$$$$$$$$$$$$$$$$$$$$$$$$$$$$$$ Material $$$$$$$$$$$$$$$$$$$$$$$$$$$$$$$$$$$
MAT1           1   5.0+0   2.5+0   0.0+0   0.0+0   0.0+0   0.0+0
$--1---><--2---><--3---><--4---><--5---><--6---><--7---><--8---><--9---><--10-->
CORD2R*                1               0           0.0+0           0.0+0*
*                  0.0+0           0.0+0           0.0+0           1.0+0*
*        9.39692620786-1 3.42020143326-1           0.0+0                *
*
SPC            1       1       1   0.0+0
SPC            1       1       2   0.0+0
SPC            1       1       3   0.0+0
SPC            1       1       4   0.0+0
SPC            1       1       5   0.0+0
SPC            1       1       6   0.0+0
SPC*                   1               2               1-2.1371793224-18*
*       
SPC            1       2       2   1.2-2
SPC*                   1               3               1-2.1371793224-18*
*       
SPC            1       3       2   1.2-2
SPC            1       4       1   0.0+0
SPC            1       4       2   0.0+0
SPC            1       4       3   0.0+0
SPC            1       4       4   0.0+0
SPC            1       4       5   0.0+0
SPC            1       4       6   0.0+0
SPC            1       5       1   0.0+0
SPC            1       5       2   0.0+0
SPC            1       5       3   0.0+0
SPC            1       5       4   0.0+0
SPC            1       5       5   0.0+0
SPC            1       5       6   0.0+0
SPC*                   1               6               1 5.5511151231-18*
*       
SPC            1       6       3   1.0-1
SPC            1       6       5   0.0+0
SPC*                   1               7               1 5.5511151231-18*
*       
SPC            1       7       3   1.0-1
SPC            1       7       5   0.0+0
SPC            1       8       1   0.0+0
SPC            1       8       2   0.0+0
SPC            1       8       3   0.0+0
SPC            1       8       4   0.0+0
SPC            1       8       5   0.0+0
SPC            1       8       6   0.0+0
SPC            1       9       1   0.0+0
SPC            1       9       2   0.0+0
SPC            1       9       3   0.0+0
SPC            1       9       4   0.0+0
SPC            1       9       5   0.0+0
SPC            1       9       6   0.0+0
SPC            1      10       1   1.3-1
SPC            1      11       1   1.3-1
SPC            1      12       1   0.0+0
SPC            1      12       2   0.0+0
SPC            1      12       3   0.0+0
SPC            1      12       4   0.0+0
SPC            1      12       5   0.0+0
SPC            1      12       6   0.0+0
SPC            1      13       1   0.0+0
SPC            1      13       2   0.0+0
SPC            1      13       3   0.0+0
SPC            1      13       4   0.0+0
SPC            1      13       5   0.0+0
SPC            1      13       6   0.0+0
SPC            1      14       1   0.0+0
SPC            1      14       2   0.0+0
SPC            1      14       3   0.0+0
SPC            1      14       4   0.0+0
SPC            1      14       5   0.0+0
SPC            1      14       6   0.0+0
SPC            1      15       2   1.3-1
SPC            1      16       2   1.3-1
SPC            1      17       1   0.0+0
SPC            1      17       2   0.0+0
SPC            1      17       3   0.0+0
SPC            1      17       4   0.0+0
SPC            1      17       5   0.0+0
SPC            1      17       6   0.0+0
SPC            1      18       1   0.0+0
SPC            1      18       2   0.0+0
SPC            1      18       3   0.0+0
SPC            1      18       4   0.0+0
SPC            1      18       5   0.0+0
SPC            1      18       6   0.0+0
SPC            1      19       3   1.0-1
SPC            1      19       2   0.0+0
SPC            1      19       5   0.0+0
SPC            1      19       4   0.0+0
SPC            1      20       3   1.0-1
SPC            1      20       2   0.0+0
SPC            1      20       4   0.0+0
SPC            1      22       1   0.0+0
SPC            1      22       2   0.0+0
SPC            1      22       3   0.0+0
SPC            1      22       4   0.0+0
SPC            1      22       5   0.0+0
SPC            1      22       6   0.0+0
SPC            1      24       1   0.0+0
SPC            1      24       2   0.0+0
SPC            1      24       3   0.0+0
SPC            1      24       4   0.0+0
SPC            1      24       5   0.0+0
SPC            1      24       6   0.0+0
SPC*                   1              25               1 -3.469446952-18*
*       
SPC            1      25       2   7.0-2
SPC            1      25       5   0.0+0
SPC            1      25       6   0.0+0
SPC            1      26       1   0.0+0
SPC            1      26       2   0.0+0
SPC            1      26       3   0.0+0
SPC            1      26       4   0.0+0
SPC            1      26       5   0.0+0
SPC            1      26       6   0.0+0
SPC*                   1              27               1-6.9388939039-18*
*       
SPC            1      27       2   7.0-2
SPC            1      27       5   0.0+0
SPC            1      27       6   0.0+0
SPC            1      28       1   0.0+0
SPC            1      28       2   0.0+0
SPC            1      28       3   0.0+0
SPC            1      28       4   0.0+0
SPC            1      28       5   0.0+0
SPC            1      28       6   0.0+0
$--1---><--2---><--3---><--4---><--5---><--6---><--7---><--8---><--9---><--10-->
$$$$$$$$$$$$$$$$$$$$$$$$$$$$$$$$$$$ Default $$$$$$$$$$$$$$$$$$$$$$$$$$$$$$$$$$$$
PSHELL         2       1   3.0-1       1               1           0.0+0
CQUAD4         1       2       1       2       3       4   0.0+0   0.0+0
CQUAD4         2       2       5       6       7       8   0.0+0   0.0+0
CQUAD4         3       2       9      10      11      12   0.0+0   0.0+0
CQUAD4         4       2      13      14      15      16   9.0+1   0.0+0
CQUAD4         5       2      17      18      19      20   9.0+1   0.0+0
CQUAD4         6       2      24      23      21      22   0.0+0   0.0+0
CQUAD4         7       2      28      27      25      26   0.0+0   0.0+0
$--1---><--2---><--3---><--4---><--5---><--6---><--7---><--8---><--9---><--10-->
$$$$$$$$$$$$$$$$$$$$$$$$$$$$$$$$$$$$ moment $$$$$$$$$$$$$$$$$$$$$$$$$$$$$$$$$$$$
MOMENT         2      21       0   1.0+0   0.0+0   3.0-3   0.0+0
$--1---><--2---><--3---><--4---><--5---><--6---><--7---><--8---><--9---><--10-->
$$$$$$$$$$$$$$$$$$$$$$$$$$$$$$$$$$$$ moment $$$$$$$$$$$$$$$$$$$$$$$$$$$$$$$$$$$$
MOMENT         2      23       0   1.0+0   0.0+0   3.0-3   0.0+0
$--1---><--2---><--3---><--4---><--5---><--6---><--7---><--8---><--9---><--10-->
LOAD           1   1.0+0   1.0+0       2
ENDDATA 
