$ Generated by Mecway 33
$-----------------------EXECUTIVE CONTROL SECTION-----------------------
SOL 101
CEND
$-------------------------CASE CONTROL SECTION--------------------------
DISPLACEMENT = ALL
SPCFORCES = ALL
MPCFORCES = ALL
SPC = 1
LOAD = 1
BEGIN BULK
$---------------------------BULK DATA SECTION---------------------------
GRID           1       0   0.0+0   5.5-1   0.0+0       0
GRID*                  2               0  7.1789405721-2 5.45294673756-1*
*                  1.0+0               0
GRID*                  3               0 1.42350474806-1 5.31259204459-1*
*                  2.0+0               0
GRID*                  4               0 2.10475887801-1 5.08133742881-1*
*                  3.0+0               0
GRID*                  5               0          2.75-1 4.76313972081-1*
*                  4.0+0               0
GRID*                  6               0 3.34818785955-1  4.3634433716-1*
*                  5.0+0               0
GRID*                  7               0 3.88908729653-1 3.88908729653-1*
*                  6.0+0               0
GRID*                  8               0  4.3634433716-1 3.34818785955-1*
*                  7.0+0               0
GRID*                  9               0 4.76313972081-1          2.75-1*
*                  8.0+0               0
GRID*                 10               0 5.08133742881-1 2.10475887801-1*
*                  9.0+0               0
GRID*                 11               0 5.31259204459-1 1.42350474806-1*
*                  1.0+1               0
GRID*                 12               0 5.45294673756-1  7.1789405721-2*
*                  1.1+1               0
GRID*                 13               0           5.5-1  3.367667473-17*
*                  1.2+1               0
GRID          14       0   0.0+0  -5.5-1   0.0+0       0
GRID*                 15               0 -7.1789405721-2-5.45294673756-1*
*                  1.0+0               0
GRID*                 16               0-1.42350474806-1-5.31259204459-1*
*                  2.0+0               0
GRID*                 17               0-2.10475887801-1-5.08133742881-1*
*                  3.0+0               0
GRID*                 18               0         -2.75-1-4.76313972081-1*
*                  4.0+0               0
GRID*                 19               0-3.34818785955-1 -4.3634433716-1*
*                  5.0+0               0
GRID*                 20               0-3.88908729653-1-3.88908729653-1*
*                  6.0+0               0
GRID*                 21               0 -4.3634433716-1-3.34818785955-1*
*                  7.0+0               0
GRID*                 22               0-4.76313972081-1         -2.75-1*
*                  8.0+0               0
GRID*                 23               0-5.08133742881-1-2.10475887801-1*
*                  9.0+0               0
GRID*                 24               0-5.31259204459-1-1.42350474806-1*
*                  1.0+1               0
GRID*                 25               0-5.45294673756-1 -7.1789405721-2*
*                  1.1+1               0
GRID*                 26               0          -5.5-1 -3.367667473-17*
*                  1.2+1               0
GRID          27       0   0.0+0   0.0+0   0.0+0       0
GRID          28       0   0.0+0   0.0+0   1.0+0       0
GRID          29       0   0.0+0   0.0+0   7.0+0       0
GRID          30       0   0.0+0   0.0+0   2.0+0       0
GRID          31       0   0.0+0   0.0+0   1.0+1       0
GRID          32       0   0.0+0   0.0+0   3.0+0       0
GRID          33       0   0.0+0   0.0+0   8.0+0       0
GRID          34       0   0.0+0   0.0+0   4.0+0       0
GRID          35       0   0.0+0   0.0+0   1.2+1       0
GRID          36       0   0.0+0   0.0+0   5.0+0       0
GRID          37       0   0.0+0   0.0+0   9.0+0       0
GRID          38       0   0.0+0   0.0+0   6.0+0       0
GRID          39       0   0.0+0   0.0+0   1.1+1       0
PARAM   QUAD4TYP  MITC4+
PARAM    STR_CID      -2
$--1---><--2---><--3---><--4---><--5---><--6---><--7---><--8---><--9---><--10-->
$$$$$$$$$$$$$$$$$$$$$$$$$$$$$$$$$$$ Material $$$$$$$$$$$$$$$$$$$$$$$$$$$$$$$$$$$
MAT1*                  1           2.9+7 1.18852459016+7           2.2-1*
*                  0.0+0           0.0+0           0.0+0
$--1---><--2---><--3---><--4---><--5---><--6---><--7---><--8---><--9---><--10-->
SPC            1       1       1   0.0+0
SPC            1       1       2   0.0+0
SPC            1       1       3   0.0+0
SPC            1       1       4   0.0+0
SPC            1       1       5   0.0+0
SPC            1       1       6   0.0+0
SPC            1      14       1   0.0+0
SPC            1      14       2   0.0+0
SPC            1      14       3   0.0+0
SPC            1      14       4   0.0+0
SPC            1      14       5   0.0+0
SPC            1      14       6   0.0+0
SPC            1      27       1   0.0+0
SPC            1      27       2   0.0+0
SPC            1      27       3   0.0+0
SPC            1      27       4   0.0+0
SPC            1      27       5   0.0+0
SPC            1      27       6   0.0+0
$--1---><--2---><--3---><--4---><--5---><--6---><--7---><--8---><--9---><--10-->
$$$$$$$$$$$$$$$$$$$$$$$$$$$$$$$$$$$ Default $$$$$$$$$$$$$$$$$$$$$$$$$$$$$$$$$$$$
PSHELL         1       1   3.2-1       1               1           0.0+0
CQUAD4*                1               1              27               1*
*                      2              28-2.8787030589-17           0.0+0
CQUAD4*                2               1              28               2*
*                      3              30-2.5566004237-17           0.0+0
CQUAD4*                3               1              30               3*
*                      4              32 7.8524563708-17           0.0+0
CQUAD4*                4               1              32               4*
*                      5              34-4.6748216692-17           0.0+0
CQUAD4*                5               1              34               5*
*                      6              36-1.1849199802-16           0.0+0
CQUAD4*                6               1              36               6*
*                      7              38 7.8145076397-17           0.0+0
CQUAD4*                7               1              38               7*
*                      8              29-3.9684708155-16           0.0+0
CQUAD4*                8               1              29               8*
*                      9              33 2.5895923607-16           0.0+0
CQUAD4*                9               1              33               9*
*                     10              37-5.8810824873-17           0.0+0
CQUAD4*               10               1              37              10*
*                     11              31 6.1321201212-17           0.0+0
CQUAD4*               11               1              31              11*
*                     12              39-3.1602033943-17           0.0+0
CQUAD4*               12               1              39              12*
*                     13              35  2.848251334-17           0.0+0
CQUAD4*               13               1              14              27*
*                     28              15 2.8787030589-17           0.0+0
CQUAD4*               14               1              15              28*
*                     30              16 2.5566004237-17           0.0+0
CQUAD4*               15               1              16              30*
*                     32              17-7.8524563708-17           0.0+0
CQUAD4*               16               1              17              32*
*                     34              18 4.6748216692-17           0.0+0
CQUAD4*               17               1              18              34*
*                     36              19 1.1849199802-16           0.0+0
CQUAD4*               18               1              19              36*
*                     38              20-7.8145076397-17           0.0+0
CQUAD4*               19               1              20              38*
*                     29              21 3.9684708155-16           0.0+0
CQUAD4*               20               1              21              29*
*                     33              22-2.5895923607-16           0.0+0
CQUAD4*               21               1              22              33*
*                     37              23 5.8810824873-17           0.0+0
CQUAD4*               22               1              23              37*
*                     31              24-6.1321201212-17           0.0+0
CQUAD4*               23               1              24              31*
*                     39              25 3.1602033943-17           0.0+0
CQUAD4*               24               1              25              39*
*                     35              26 -2.848251334-17           0.0+0
$--1---><--2---><--3---><--4---><--5---><--6---><--7---><--8---><--9---><--10-->
$$$$$$$$$$$$$$$$$$$$$$$$$$$$$$$$$$$$ force $$$$$$$$$$$$$$$$$$$$$$$$$$$$$$$$$$$$$
FORCE          2      35       0   1.0+0   5.0-1   0.0+0   0.0+0
FORCE          2      26       0   1.0+0   2.5-1   0.0+0   0.0+0
FORCE          2      13       0   1.0+0   2.5-1   0.0+0   0.0+0
$--1---><--2---><--3---><--4---><--5---><--6---><--7---><--8---><--9---><--10-->
LOAD           1   1.0+0   1.0+0       2
ENDDATA 
