$ Generated by Mecway 33
$-----------------------EXECUTIVE CONTROL SECTION-----------------------
SOL 101
CEND
$-------------------------CASE CONTROL SECTION--------------------------
DISPLACEMENT = ALL
SPCFORCES = ALL
MPCFORCES = ALL
STRESS(CORNER) = ALL
STRAIN(CORNER) = ALL
SPC = 1
TEMPERATURE = 1
BEGIN BULK
$---------------------------BULK DATA SECTION---------------------------
GRID           1       0   0.0+0   0.0+0   0.0+0       0
GRID*                  2               0           0.0+0 6.66666666667-4*
*                  0.0+0               0
GRID*                  3               0           0.0+0 1.33333333333-3*
*                  2.0-3               0
GRID*                  4               0           0.0+0 6.66666666667-4*
*                  2.0-3               0
GRID*                  5               0           0.0+0           0.0+0*
*        1.33333333333-3               0
GRID*                  6               0           0.0+0 8.13635997474-4*
*        5.06729353219-4               0
GRID           7       0   0.0+0   0.0+0   2.0-3       0
GRID*                  8               0           0.0+0 1.33333333333-3*
*                  0.0+0               0
GRID*                  9               0-5.4210102162-20 1.38088210952-3*
*        1.52785133105-3               0
GRID*                 10               0           0.0+0 1.57107762061-3*
*        8.56862287037-4               0
GRID*                 11               0           0.0+0           2.0-3*
*        1.33333333333-3               0
GRID          12       0   0.0+0   2.0-3   2.0-3       0
GRID          13       0   0.0+0   2.0-3   0.0+0       0
GRID*                 14               0           0.0+0           2.0-3*
*        6.66666666667-4               0
GRID*                 15               0           0.0+0           0.0+0*
*        6.66666666667-4               0
GRID*                 16               0-5.4210102162-20 4.67825710075-4*
*        1.28146179486-3               0
PARAM   QUAD4TYP  MITC4+
PARAM    STR_CID      -2
$--1---><--2---><--3---><--4---><--5---><--6---><--7---><--8---><--9---><--10-->
$$$$$$$$$$$$$$$$$$$$$$$$$$$$$$$$$$$ Material $$$$$$$$$$$$$$$$$$$$$$$$$$$$$$$$$$$
MAT8           1  1.0+11  5.0+10   0.0+0   1.0+0   1.0+0   1.0+0   0.0+0+
+          1.0-5   3.0-5   0.0+0
$--1---><--2---><--3---><--4---><--5---><--6---><--7---><--8---><--9---><--10-->
SPC            1       1       2   0.0+0
SPC            1       1       3   0.0+0
SPC            1       1       5   0.0+0
SPC            1       1       6   0.0+0
SPC            1       1       4   0.0+0
SPC            1       2       3   0.0+0
SPC            1       2       5   0.0+0
SPC            1       2       4   0.0+0
SPC            1       3       3   0.0+0
SPC            1       3       5   0.0+0
SPC            1       3       4   0.0+0
SPC            1       4       3   0.0+0
SPC            1       4       5   0.0+0
SPC            1       4       4   0.0+0
SPC            1       5       2   0.0+0
SPC            1       5       6   0.0+0
SPC            1       5       4   0.0+0
SPC            1       7       2   0.0+0
SPC            1       7       3   0.0+0
SPC            1       7       5   0.0+0
SPC            1       7       6   0.0+0
SPC            1       7       4   0.0+0
SPC            1       8       3   0.0+0
SPC            1       8       5   0.0+0
SPC            1       8       4   0.0+0
SPC            1      11       2   0.0+0
SPC            1      11       6   0.0+0
SPC            1      11       4   0.0+0
SPC            1      12       2   0.0+0
SPC            1      12       3   0.0+0
SPC            1      12       5   0.0+0
SPC            1      12       6   0.0+0
SPC            1      12       4   0.0+0
SPC            1      13       1   0.0+0
SPC            1      13       2   0.0+0
SPC            1      13       3   0.0+0
SPC            1      13       4   0.0+0
SPC            1      13       5   0.0+0
SPC            1      13       6   0.0+0
SPC            1      14       2   0.0+0
SPC            1      14       6   0.0+0
SPC            1      14       4   0.0+0
SPC            1      15       2   0.0+0
SPC            1      15       6   0.0+0
SPC            1      15       4   0.0+0
$--1---><--2---><--3---><--4---><--5---><--6---><--7---><--8---><--9---><--10-->
$$$$$$$$$$$$$$$$$$$$$$$$$$$$$$$$$$$ Default $$$$$$$$$$$$$$$$$$$$$$$$$$$$$$$$$$$$
PSHELL         1       1   3.0-4       1               1           0.0+0
CQUAD4*                1               1               9               3*
*                     12              11 5.75070940396+0           0.0+0
CQUAD4         2       1      15       5      16       6   0.0+0   0.0+0
CQUAD4*                3               1               2               6*
*                     10               8-1.61740174244+1           0.0+0
CQUAD4*                4               1               4              16*
*                      9               3-1.64531645874+2           0.0+0
CQUAD4*                5               1               8              10*
*                     14              13-1.55071616543+1           0.0+0
CQUAD4*                6               1              10               9*
*                     11              14 1.58256713297+1           0.0+0
CQUAD4*                7               1               6              16*
*                      9              10 2.40541174844+1           0.0+0
CQUAD4         8       1       7       5      16       4   1.8+2   0.0+0
CQUAD4         9       1       1      15       6       2   0.0+0   0.0+0
$--1---><--2---><--3---><--4---><--5---><--6---><--7---><--8---><--9---><--10-->
$$$$$$$$$$$$$$$$$$$$$$$$$$$$$$$$$ temperature $$$$$$$$$$$$$$$$$$$$$$$$$$$$$$$$$$
TEMP*                  1               9 1.52785133105+0                *
*
TEMP           1       3   2.0+0
TEMP           1      12   2.0+0
TEMP*                  1              11 1.33333333333+0                *
*
TEMP*                  1              15 6.66666666667-1                *
*
TEMP*                  1               5 1.33333333333+0                *
*
TEMP*                  1              16 1.28146179486+0                *
*
TEMP*                  1               6 5.06729353219-1                *
*
TEMP           1       2   0.0+0
TEMP*                  1              10 8.56862287037-1                *
*
TEMP           1       8   0.0+0
TEMP           1       7   2.0+0
TEMP           1       4   2.0+0
TEMP*                  1              14 6.66666666667-1                *
*
TEMP           1      13   0.0+0
TEMP           1       1   0.0+0
$--1---><--2---><--3---><--4---><--5---><--6---><--7---><--8---><--9---><--10-->
TEMPD          1   0.0+0
$--1---><--2---><--3---><--4---><--5---><--6---><--7---><--8---><--9---><--10-->
ENDDATA 
