$ Generated by Mecway 33
$-----------------------EXECUTIVE CONTROL SECTION-----------------------
SOL 101
CEND
$-------------------------CASE CONTROL SECTION--------------------------
DISPLACEMENT = ALL
SPCFORCES = ALL
MPCFORCES = ALL
STRESS(CORNER) = ALL
STRAIN(CORNER,FIBER) = ALL
FORCE(CORNER) = ALL
SPC = 1
LOAD = 1
BEGIN BULK
$---------------------------BULK DATA SECTION---------------------------
GRID           1       0   0.0+0   0.0+0   0.0+0       0
GRID           2       0   3.0-2   0.0+0   0.0+0       0
GRID           3       0   3.0-2   2.1-2   0.0+0       0
GRID           4       0   0.0+0   2.1-2   0.0+0       0
GRID           5       0   6.0-2   0.0+0   0.0+0       0
GRID           6       0   9.0-2   0.0+0   0.0+0       0
GRID           7       0   9.0-2   2.1-2   0.0+0       0
GRID           8       0   6.0-2   2.1-2   0.0+0       0
GRID           9       0   1.2-1   0.0+0   0.0+0       0
GRID          10       0   1.5-1   0.0+0   0.0+0       0
GRID          11       0   1.5-1   2.1-2   0.0+0       0
GRID          12       0   1.2-1   2.1-2   0.0+0       0
GRID          13       0   1.8-1   0.0+0   0.0+0       0
GRID          14       0   2.1-1   0.0+0   0.0+0       0
GRID          15       0   2.1-1   2.1-2   0.0+0       0
GRID          16       0   1.8-1   2.1-2   0.0+0       0
GRID          17       0  -1.0-1   0.0+0   2.8-1       0
GRID          18       0  -1.0-1   0.0+0   3.1-1       0
GRID          19       0  -1.0-1   2.1-2   3.1-1       0
GRID          20       0  -1.0-1   2.1-2   2.8-1       0
GRID          21       0  -1.0-1   0.0+0   2.2-1       0
GRID          22       0  -1.0-1   0.0+0   2.5-1       0
GRID          23       0  -1.0-1   2.1-2   2.5-1       0
GRID          24       0  -1.0-1   2.1-2   2.2-1       0
GRID          25       0  -1.0-1   0.0+0   1.6-1       0
GRID          26       0  -1.0-1   0.0+0   1.9-1       0
GRID          27       0  -1.0-1   2.1-2   1.9-1       0
GRID          28       0  -1.0-1   2.1-2   1.6-1       0
GRID          29       0  -1.0-1   0.0+0   1.0-1       0
GRID          30       0  -1.0-1   0.0+0   1.3-1       0
GRID          31       0  -1.0-1   2.1-2   1.3-1       0
GRID          32       0  -1.0-1   2.1-2   1.0-1       0
GRID*                 33               0-6.03073792141-3 3.42020143326-2*
*                  0.0+0               1
GRID*                 34               0 2.21600407022-2 4.44626186323-2*
*                  0.0+0               0
GRID*                 35               0 1.49776176923-2 6.41961636688-2*
*                  0.0+0               0
GRID*                 36               0-1.32131609312-2 5.39355593691-2*
*                  0.0+0               1
GRID*                 37               0 5.03508193257-2 5.47232229321-2*
*                  0.0+0               1
GRID*                 38               0 7.85415979493-2 6.49838272319-2*
*                  0.0+0               0
GRID*                 39               0 7.13591749395-2 8.47173722684-2*
*                  0.0+0               0
GRID*                 40               0 4.31683963159-2 7.44567679686-2*
*                  0.0+0               1
GRID*                 41               0 1.06732376573-1 7.52444315316-2*
*                  0.0+0               1
GRID*                 42               0 1.34923155196-1 8.55050358314-2*
*                  0.0+0               0
GRID*                 43               0 1.27740732187-1 1.05238580868-1*
*                  0.0+0               0
GRID*                 44               0 9.95499535631-2 9.49779765682-2*
*                  0.0+0               1
GRID*                 45               0  1.6311393382-1 9.57656401312-2*
*                  0.0+0               1
GRID*                 46               0 1.91304712444-1 1.06026244431-1*
*                  0.0+0               0
GRID*                 47               0 1.84122289434-1 1.25759789467-1*
*                  0.0+0               0
GRID*                 48               0  1.5593151081-1 1.15499185168-1*
*                  0.0+0               1
PARAM   QUAD4TYP  MITC4+
PARAM    STR_CID      -2
$--1---><--2---><--3---><--4---><--5---><--6---><--7---><--8---><--9---><--10-->
$$$$$$$$$$$$$$$$$$$$$$$$$$$$$$$$$$$ Material $$$$$$$$$$$$$$$$$$$$$$$$$$$$$$$$$$$
MAT1*                  1          2.0+11 7.1428571429+10           4.0-1*
*                  0.0+0           0.0+0           0.0+0
$--1---><--2---><--3---><--4---><--5---><--6---><--7---><--8---><--9---><--10-->
CORD2R*                1               0           0.0+0           0.0+0*
*                  0.0+0           0.0+0           0.0+0           1.0+0*
*        9.39692620786-1 3.42020143326-1           0.0+0                *
*
SPC            1       1       2   0.0+0
SPC            1       1       3   0.0+0
SPC            1       1       1   0.0+0
SPC            1       1       5   0.0+0
SPC            1       1       6   0.0+0
SPC            1       4       1   0.0+0
SPC            1       4       3   0.0+0
SPC            1       4       5   0.0+0
SPC            1       4       6   0.0+0
SPC            1       5       2   0.0+0
SPC            1       5       3   0.0+0
SPC            1       5       1   0.0+0
SPC            1       5       5   0.0+0
SPC            1       5       6   0.0+0
SPC            1       8       1   0.0+0
SPC            1       8       3   0.0+0
SPC            1       8       5   0.0+0
SPC            1       8       6   0.0+0
SPC            1       9       2   0.0+0
SPC            1       9       3   0.0+0
SPC            1       9       1   0.0+0
SPC            1       9       5   0.0+0
SPC            1       9       6   0.0+0
SPC            1      12       1   0.0+0
SPC            1      12       3   0.0+0
SPC            1      12       5   0.0+0
SPC            1      12       6   0.0+0
SPC            1      13       2   0.0+0
SPC            1      13       3   0.0+0
SPC            1      13       1   0.0+0
SPC            1      13       5   0.0+0
SPC            1      13       6   0.0+0
SPC            1      16       1   0.0+0
SPC            1      16       3   0.0+0
SPC            1      16       5   0.0+0
SPC            1      16       6   0.0+0
SPC            1      17       2   0.0+0
SPC            1      17       1   0.0+0
SPC            1      17       3   0.0+0
SPC            1      17       5   0.0+0
SPC            1      17       4   0.0+0
SPC            1      20       3   0.0+0
SPC            1      20       1   0.0+0
SPC            1      20       5   0.0+0
SPC            1      20       4   0.0+0
SPC            1      21       2   0.0+0
SPC            1      21       1   0.0+0
SPC            1      21       3   0.0+0
SPC            1      21       5   0.0+0
SPC            1      21       4   0.0+0
SPC            1      24       3   0.0+0
SPC            1      24       1   0.0+0
SPC            1      24       5   0.0+0
SPC            1      24       4   0.0+0
SPC            1      25       2   0.0+0
SPC            1      25       1   0.0+0
SPC            1      25       3   0.0+0
SPC            1      25       5   0.0+0
SPC            1      25       4   0.0+0
SPC            1      28       3   0.0+0
SPC            1      28       1   0.0+0
SPC            1      28       5   0.0+0
SPC            1      28       4   0.0+0
SPC            1      29       2   0.0+0
SPC            1      29       1   0.0+0
SPC            1      29       3   0.0+0
SPC            1      29       5   0.0+0
SPC            1      29       4   0.0+0
SPC            1      32       3   0.0+0
SPC            1      32       1   0.0+0
SPC            1      32       5   0.0+0
SPC            1      32       4   0.0+0
SPC            1      33       2   0.0+0
SPC            1      33       3   0.0+0
SPC            1      33       1   0.0+0
SPC            1      33       5   0.0+0
SPC            1      33       6   0.0+0
SPC            1      36       1   0.0+0
SPC            1      36       3   0.0+0
SPC            1      36       5   0.0+0
SPC            1      36       6   0.0+0
SPC            1      37       2   0.0+0
SPC            1      37       3   0.0+0
SPC            1      37       1   0.0+0
SPC            1      37       5   0.0+0
SPC            1      37       6   0.0+0
SPC            1      40       1   0.0+0
SPC            1      40       3   0.0+0
SPC            1      40       5   0.0+0
SPC            1      40       6   0.0+0
SPC            1      41       2   0.0+0
SPC            1      41       3   0.0+0
SPC            1      41       1   0.0+0
SPC            1      41       5   0.0+0
SPC            1      41       6   0.0+0
SPC            1      44       1   0.0+0
SPC            1      44       3   0.0+0
SPC            1      44       5   0.0+0
SPC            1      44       6   0.0+0
SPC            1      45       2   0.0+0
SPC            1      45       3   0.0+0
SPC            1      45       1   0.0+0
SPC            1      45       5   0.0+0
SPC            1      45       6   0.0+0
SPC            1      48       1   0.0+0
SPC            1      48       3   0.0+0
SPC            1      48       5   0.0+0
SPC            1      48       6   0.0+0
$--1---><--2---><--3---><--4---><--5---><--6---><--7---><--8---><--9---><--10-->
$$$$$$$$$$$$$$$$$$$$$$$$$$$$$$$$$$$ Default $$$$$$$$$$$$$$$$$$$$$$$$$$$$$$$$$$$$
PSHELL         2       1   1.0-3       1               1           0.0+0
CQUAD4         1       2       1       2       3       4   0.0+0   0.0+0
CQUAD4         2       2       6       7       8       5   0.0+0   0.0+0
CQUAD4         3       2      11      12       9      10   0.0+0   0.0+0
CQUAD4         4       2      16      13      14      15   0.0+0   0.0+0
CQUAD4         5       2      20      17      18      19   0.0+0   0.0+0
CQUAD4         6       2      23      24      21      22   0.0+0   0.0+0
CQUAD4         7       2      26      27      28      25   0.0+0   0.0+0
CQUAD4         8       2      29      30      31      32   0.0+0   0.0+0
CQUAD4         9       2      33      34      35      36   0.0+0   0.0+0
CQUAD4        10       2      38      39      40      37   0.0+0   0.0+0
CQUAD4        11       2      43      44      41      42   0.0+0   0.0+0
CQUAD4        12       2      48      45      46      47   0.0+0   0.0+0
$--1---><--2---><--3---><--4---><--5---><--6---><--7---><--8---><--9---><--10-->
$$$$$$$$$$$$$$$$$$$$$$$$$$$$$$$$$$$ pressure $$$$$$$$$$$$$$$$$$$$$$$$$$$$$$$$$$$
FORCE          2       2       0   1.0+0  5.25+2   0.0+0   0.0+0
FORCE          2       3       0   1.0+0  5.25+2   0.0+0   0.0+0
FORCE          2       6       0   1.0+0  5.25+2   0.0+0   0.0+0
FORCE          2       7       0   1.0+0  5.25+2   0.0+0   0.0+0
FORCE          2      11       0   1.0+0  5.25+2   0.0+0   0.0+0
FORCE          2      10       0   1.0+0  5.25+2   0.0+0   0.0+0
FORCE          2      14       0   1.0+0  5.25+2   0.0+0   0.0+0
FORCE          2      15       0   1.0+0  5.25+2   0.0+0   0.0+0
FORCE          2      30       0   1.0+0   0.0+0   0.0+0  5.25+2
FORCE          2      31       0   1.0+0   0.0+0   0.0+0  5.25+2
FORCE          2      26       0   1.0+0   0.0+0   0.0+0  5.25+2
FORCE          2      27       0   1.0+0   0.0+0   0.0+0  5.25+2
FORCE          2      23       0   1.0+0   0.0+0   0.0+0  5.25+2
FORCE          2      22       0   1.0+0   0.0+0   0.0+0  5.25+2
FORCE          2      18       0   1.0+0   0.0+0   0.0+0  5.25+2
FORCE          2      19       0   1.0+0   0.0+0   0.0+0  5.25+2
FORCE*                 2              34               0           1.0+0*
*        4.93338625913+2 1.79560575246+2           0.0+0
FORCE*                 2              35               0           1.0+0*
*        4.93338625913+2 1.79560575246+2           0.0+0
FORCE*                 2              38               0           1.0+0*
*        4.93338625913+2 1.79560575246+2           0.0+0
FORCE*                 2              39               0           1.0+0*
*        4.93338625913+2 1.79560575246+2           0.0+0
FORCE*                 2              43               0           1.0+0*
*        4.93338625913+2 1.79560575246+2           0.0+0
FORCE*                 2              42               0           1.0+0*
*        4.93338625913+2 1.79560575246+2           0.0+0
FORCE*                 2              46               0           1.0+0*
*        4.93338625913+2 1.79560575246+2           0.0+0
FORCE*                 2              47               0           1.0+0*
*        4.93338625913+2 1.79560575246+2           0.0+0
$--1---><--2---><--3---><--4---><--5---><--6---><--7---><--8---><--9---><--10-->
LOAD           1   1.0+0   1.0+0       2
ENDDATA 
