$ Generated by Mecway 33
$-----------------------EXECUTIVE CONTROL SECTION-----------------------
SOL 101
CEND
$-------------------------CASE CONTROL SECTION--------------------------
DISPLACEMENT = ALL
SPC = 1
LOAD = 1
BEGIN BULK
$---------------------------BULK DATA SECTION---------------------------
GRID           1       0   1.0+1   0.0+0   0.0+0       0
GRID*                  2               0 5.43042764105+0 2.24935677841+0*
*        8.09016994375+0               0
GRID*                  3               0 5.72061402818+0 5.72061402818+0*
*        5.87785252292+0               0
GRID*                  4               0 2.18508012224+0 2.18508012224+0*
*        9.51056516295+0               0
GRID*                  5               0 9.51056516295+0           0.0+0*
*        3.09016994375+0               0
GRID*                  6               0 3.82683432365+0 9.23879532511+0*
*                  0.0+0               0
GRID*                  7               0 2.24935677841+0 5.43042764105+0*
*        8.09016994375+0               0
GRID*                  8               0 8.78661649667+0 3.63953572029+0*
*        3.09016994375+0               0
GRID*                  9               0 8.09016994375+0           0.0+0*
*        5.87785252292+0               0
GRID*                 10               0 2.85494476301+0 1.18255684067+0*
*        9.51056516295+0               0
GRID*                 11               0 5.8233492635-16 9.51056516295+0*
*        3.09016994375+0               0
GRID*                 12               0 6.1230317691-16           1.0+1*
*                  0.0+0               0
GRID*                 13               0 5.87785252292+0           0.0+0*
*        8.09016994375+0               0
GRID*                 14               0 3.09597400249+0 7.47434242557+0*
*        5.87785252292+0               0
GRID*                 15               0 4.15626937777+0 4.15626937777+0*
*        8.09016994375+0               0
GRID*                 16               0 6.72498511964+0 6.72498511964+0*
*        3.09016994375+0               0
GRID*                 17               0 3.09016994375+0           0.0+0*
*        9.51056516295+0               0
GRID*                 18               0 1.8921208738-16 3.09016994375+0*
*        9.51056516295+0               0
GRID*                 19               0 7.47434242557+0 3.09597400249+0*
*        5.87785252292+0               0
GRID*                 20               0 3.5990277732-16 5.87785252292+0*
*        8.09016994375+0               0
GRID*                 21               0 9.23879532511+0 3.82683432365+0*
*                  0.0+0               0
GRID*                 22               0 4.9536367583-16 8.09016994375+0*
*        5.87785252292+0               0
GRID*                 23               0 1.18255684067+0 2.85494476301+0*
*        9.51056516295+0               0
GRID*                 24               0 3.63953572029+0 8.78661649667+0*
*        3.09016994375+0               0
GRID*                 25               0 7.07106781187+0 7.07106781187+0*
*                  0.0+0               0
PARAM   QUAD4TYP  MITC4+
PARAM    STR_CID      -2
$--1---><--2---><--3---><--4---><--5---><--6---><--7---><--8---><--9---><--10-->
$$$$$$$$$$$$$$$$$$$$$$$$$$$$$$$$$$$ Material $$$$$$$$$$$$$$$$$$$$$$$$$$$$$$$$$$$
MAT1           1 6.825+7 2.625+7   3.0-1   0.0+0   0.0+0   0.0+0
$--1---><--2---><--3---><--4---><--5---><--6---><--7---><--8---><--9---><--10-->
SPC            1       1       2   0.0+0
SPC            1       1       6   0.0+0
SPC            1       1       4   0.0+0
SPC            1       4       3   0.0+0
SPC            1       5       2   0.0+0
SPC            1       5       6   0.0+0
SPC            1       5       4   0.0+0
SPC            1       9       2   0.0+0
SPC            1       9       6   0.0+0
SPC            1       9       4   0.0+0
SPC            1      11       1   0.0+0
SPC            1      11       5   0.0+0
SPC            1      11       6   0.0+0
SPC            1      12       1   0.0+0
SPC            1      12       5   0.0+0
SPC            1      12       6   0.0+0
SPC            1      13       2   0.0+0
SPC            1      13       6   0.0+0
SPC            1      13       4   0.0+0
SPC            1      17       2   0.0+0
SPC            1      17       6   0.0+0
SPC            1      17       4   0.0+0
SPC            1      18       1   0.0+0
SPC            1      18       5   0.0+0
SPC            1      18       6   0.0+0
SPC            1      20       1   0.0+0
SPC            1      20       5   0.0+0
SPC            1      20       6   0.0+0
SPC            1      22       1   0.0+0
SPC            1      22       5   0.0+0
SPC            1      22       6   0.0+0
$--1---><--2---><--3---><--4---><--5---><--6---><--7---><--8---><--9---><--10-->
$$$$$$$$$$$$$$$$$$$$$$$$$$$$$$$$$$$ Default $$$$$$$$$$$$$$$$$$$$$$$$$$$$$$$$$$$$
PSHELL         1       1   4.0-2       1               1           0.0+0
CQUAD4*                1               1              17              13*
*                      2              10 5.6978913079-16           0.0+0
CQUAD4*                2               1              13               9*
*                     19               2 2.6739059448-16           0.0+0
CQUAD4*                3               1               2              15*
*                      4              10-1.2569506306-16           0.0+0
CQUAD4         4       1       2      19       3      15   0.0+0   0.0+0
CQUAD4*                5               1               9               5*
*                      8              19 3.6857140326-16           0.0+0
CQUAD4         6       1      19       8      16       3   0.0+0   0.0+0
CQUAD4*                7               1              15               7*
*                     23               4-3.1920384129-15           0.0+0
CQUAD4*                8               1              15               3*
*                     14               7 2.3750693817-15           0.0+0
CQUAD4*                9               1               3              16*
*                     24              14 4.6571259454-15           0.0+0
CQUAD4*               10               1               5               1*
*                     21               8 3.9873116892-17           0.0+0
CQUAD4*               11               1               8              21*
*                     25              16 7.6613242501-16           0.0+0
CQUAD4*               12               1              16              25*
*                      6              24-2.1677833232-16           0.0+0
CQUAD4*               13               1               7              20*
*                     18              23  4.491197992-16           0.0+0
CQUAD4*               14               1               7              14*
*                     22              20-2.2755152203-16           0.0+0
CQUAD4*               15               1              14              24*
*                     11              22 1.7506504094-15           0.0+0
CQUAD4        16       1      24       6      12      11   0.0+0   0.0+0
$--1---><--2---><--3---><--4---><--5---><--6---><--7---><--8---><--9---><--10-->
$$$$$$$$$$$$$$$$$$$$$$$$$$$$$$$$$$$$ force $$$$$$$$$$$$$$$$$$$$$$$$$$$$$$$$$$$$$
FORCE          2      12       0   1.0+0   0.0+0  -1.0+0   0.0+0
$--1---><--2---><--3---><--4---><--5---><--6---><--7---><--8---><--9---><--10-->
$$$$$$$$$$$$$$$$$$$$$$$$$$$$$$$$$$$$ force $$$$$$$$$$$$$$$$$$$$$$$$$$$$$$$$$$$$$
FORCE          2       1       0   1.0+0   1.0+0   0.0+0   0.0+0
$--1---><--2---><--3---><--4---><--5---><--6---><--7---><--8---><--9---><--10-->
LOAD           1   1.0+0   1.0+0       2
ENDDATA 
