$ Generated by Mecway 33
$-----------------------EXECUTIVE CONTROL SECTION-----------------------
SOL 101
CEND
$-------------------------CASE CONTROL SECTION--------------------------
DISPLACEMENT = ALL
SPCFORCES = ALL
MPCFORCES = ALL
STRESS(CORNER) = ALL
STRAIN(CORNER,FIBER) = ALL
SPC = 1
TEMPERATURE = 4
BEGIN BULK
$---------------------------BULK DATA SECTION---------------------------
GRID           1       0   0.0+0   0.0+0   0.0+0       0
GRID*                  2               0           0.0+0 6.66666666667-4*
*                  0.0+0               0
GRID*                  3               0           0.0+0 1.33333333333-3*
*                  2.0-3               0
GRID*                  4               0           0.0+0 6.66666666667-4*
*                  2.0-3               0
GRID*                  5               0           0.0+0           0.0+0*
*        1.33333333333-3               0
GRID*                  6               0           0.0+0 6.66666666667-4*
*        6.66666666667-4               0
GRID           7       0   0.0+0   0.0+0   2.0-3       0
GRID*                  8               0           0.0+0 1.33333333333-3*
*                  0.0+0               0
GRID*                  9               0           0.0+0 1.33333333333-3*
*        1.33333333333-3               0
GRID*                 10               0           0.0+0 1.33333333333-3*
*        6.66666666667-4               0
GRID*                 11               0           0.0+0           2.0-3*
*        1.33333333333-3               0
GRID          12       0   0.0+0   2.0-3   2.0-3       0
GRID          13       0   0.0+0   2.0-3   0.0+0       0
GRID*                 14               0           0.0+0           2.0-3*
*        6.66666666667-4               0
GRID*                 15               0           0.0+0           0.0+0*
*        6.66666666667-4               0
GRID*                 16               0           0.0+0 6.66666666667-4*
*        1.33333333333-3               0
PARAM   QUAD4TYP  MITC4+
PARAM    STR_CID      -2
$--1---><--2---><--3---><--4---><--5---><--6---><--7---><--8---><--9---><--10-->
$$$$$$$$$$$$$$$$$$$$$$$$$$$$$$$$$$$ Material $$$$$$$$$$$$$$$$$$$$$$$$$$$$$$$$$$$
MAT8           1  1.0+11  5.0+10   0.0+0   1.0+0   1.0+0   1.0+0   0.0+0+
+          1.0-5   3.0-5   0.0+0
$--1---><--2---><--3---><--4---><--5---><--6---><--7---><--8---><--9---><--10-->
SPC            1       1       2   0.0+0
SPC            1       1       3   0.0+0
SPC            1       1       5   0.0+0
SPC            1       1       6   0.0+0
SPC            1       1       4   0.0+0
SPC            1       2       3   0.0+0
SPC            1       2       5   0.0+0
SPC            1       2       4   0.0+0
SPC            1       3       3   0.0+0
SPC            1       3       5   0.0+0
SPC            1       3       4   0.0+0
SPC            1       4       3   0.0+0
SPC            1       4       5   0.0+0
SPC            1       4       4   0.0+0
SPC            1       5       2   0.0+0
SPC            1       5       6   0.0+0
SPC            1       5       4   0.0+0
SPC            1       7       2   0.0+0
SPC            1       7       3   0.0+0
SPC            1       7       5   0.0+0
SPC            1       7       6   0.0+0
SPC            1       7       4   0.0+0
SPC            1       8       3   0.0+0
SPC            1       8       5   0.0+0
SPC            1       8       4   0.0+0
SPC            1      11       2   0.0+0
SPC            1      11       6   0.0+0
SPC            1      11       4   0.0+0
SPC            1      12       2   0.0+0
SPC            1      12       3   0.0+0
SPC            1      12       5   0.0+0
SPC            1      12       6   0.0+0
SPC            1      12       4   0.0+0
SPC            1      13       2   0.0+0
SPC            1      13       3   0.0+0
SPC            1      13       5   0.0+0
SPC            1      13       6   0.0+0
SPC            1      13       4   0.0+0
SPC            1      14       2   0.0+0
SPC            1      14       6   0.0+0
SPC            1      14       4   0.0+0
SPC            1      15       2   0.0+0
SPC            1      15       6   0.0+0
SPC            1      15       4   0.0+0
$--1---><--2---><--3---><--4---><--5---><--6---><--7---><--8---><--9---><--10-->
$$$$$$$$$$$$$$$$$$$$$$$$$$$$$$$$$$$ Default $$$$$$$$$$$$$$$$$$$$$$$$$$$$$$$$$$$$
PSHELL         1       1   3.0-4       1               1           0.0+0
CQUAD4         1       1       9       3      12      11   0.0+0   0.0+0
CQUAD4         2       1      15       5      16       6   0.0+0   0.0+0
CQUAD4         3       1       2       6      10       8   0.0+0   0.0+0
CQUAD4         4       1       4      16       9       3   0.0+0   0.0+0
CQUAD4         5       1       8      10      14      13   0.0+0   0.0+0
CQUAD4         6       1      10       9      11      14   0.0+0   0.0+0
CQUAD4         7       1       6      16       9      10   0.0+0   0.0+0
CQUAD4         8       1       7       5      16       4   0.0+0   0.0+0
CQUAD4         9       1       1      15       6       2   0.0+0   0.0+0
$--1---><--2---><--3---><--4---><--5---><--6---><--7---><--8---><--9---><--10-->
$$$$$$$$$$$$$$$$$$$$$$$$$$$$$$$$$ temperature $$$$$$$$$$$$$$$$$$$$$$$$$$$$$$$$$$
TEMP*                  4               9 1.33333333333+0                *
*
TEMP           4       3   2.0+0
TEMP           4      12   2.0+0
TEMP*                  4              11 1.33333333333+0                *
*
TEMP*                  4              15 6.66666666667-1                *
*
TEMP*                  4               5 1.33333333333+0                *
*
TEMP*                  4              16 1.33333333333+0                *
*
TEMP*                  4               6 6.66666666667-1                *
*
TEMP           4       2   0.0+0
TEMP*                  4              10 6.66666666667-1                *
*
TEMP           4       8   0.0+0
TEMP           4       7   2.0+0
TEMP           4       4   2.0+0
TEMP*                  4              14 6.66666666667-1                *
*
TEMP           4      13   0.0+0
TEMP           4       1   0.0+0
$--1---><--2---><--3---><--4---><--5---><--6---><--7---><--8---><--9---><--10-->
TEMPD          4   0.0+0
$--1---><--2---><--3---><--4---><--5---><--6---><--7---><--8---><--9---><--10-->
ENDDATA 
