$ Generated by Mecway 33
$-----------------------EXECUTIVE CONTROL SECTION-----------------------
SOL 101
CEND
$-------------------------CASE CONTROL SECTION--------------------------
DISPLACEMENT = ALL
SPCFORCES = ALL
MPCFORCES = ALL
STRESS(CORNER) = ALL
STRAIN(CORNER) = ALL
SPC = 1
LOAD = 1
BEGIN BULK
$---------------------------BULK DATA SECTION---------------------------
GRID*                  1               0-1.50350819326+0 5.47232229321-1*
*                  0.0+0               1
GRID*                  2               0-1.16148804993+0 1.48692485011+0*
*                  0.0+0               0
GRID*                  3               0-1.63133436032+0 1.65793492177+0*
*                  0.0+0               0
GRID*                  4               0-1.97335450365+0 7.18242300984-1*
*                  0.0+0               1
GRID*                  5               0-1.33249812159+0 1.01707853971+0*
*                  0.0+0               0
GRID*                  6               0-1.71683939616+0 1.42301176657+0*
*                  0.0+0               0
GRID           7       0   0.0+0   6.0-1   0.0+0       0
GRID           8       0   1.0+0   6.0-1   0.0+0       0
GRID           9       0   1.0+0   1.1+0   0.0+0       0
GRID          10       0   0.0+0   1.1+0   0.0+0       0
GRID          11       0   5.0-1   6.0-1   0.0+0       0
GRID          12       0   7.5-1   1.1+0   0.0+0       0
GRID          13       0   0.0+0  -1.4+0   0.0+0       0
GRID          14       0   1.0+0  -1.4+0   0.0+0       0
GRID          15       0   1.0+0  -9.0-1   0.0+0       0
GRID          16       0   0.0+0  -9.0-1   0.0+0       0
GRID          17       0   5.0-1  -1.4+0   0.0+0       0
GRID          18       0   7.5-1  -9.0-1   0.0+0       0
GRID          19       0   0.0+0  -2.4+0   0.0+0       0
GRID          20       0   1.0+0  -2.4+0   0.0+0       0
GRID          21       0   1.0+0  -1.9+0   0.0+0       0
GRID          22       0   0.0+0  -1.9+0   0.0+0       0
GRID          23       0   5.0-1  -2.4+0   0.0+0       0
GRID          24       0   7.5-1  -1.9+0   0.0+0       0
PARAM   QUAD4TYP  MITC4+
PARAM    STR_CID      -2
$--1---><--2---><--3---><--4---><--5---><--6---><--7---><--8---><--9---><--10-->
$$$$$$$$$$$$$$$$$$$$$$$$$$$$$$$$$$$ Material $$$$$$$$$$$$$$$$$$$$$$$$$$$$$$$$$$$
MAT8*                  1           1.0+5           5.0+4           3.4-1*
*               1.2345+4        3.4567+4        2.3456+4           0.0+0*
*                  0.0+0           0.0+0           0.0+0                *
*
$--1---><--2---><--3---><--4---><--5---><--6---><--7---><--8---><--9---><--10-->
CORD2R*                1               0           0.0+0           0.0+0*
*                  0.0+0           0.0+0           0.0+0           1.0+0*
*        9.39692620786-1-3.42020143326-1           0.0+0                *
*
SPC            1       1       1   0.0+0
SPC            1       1       3   0.0+0
SPC            1       1       2   0.0+0
SPC            1       1       4   0.0+0
SPC            1       1       6   0.0+0
SPC            1       4       2   0.0+0
SPC            1       4       3   0.0+0
SPC            1       4       4   0.0+0
SPC            1       4       6   0.0+0
SPC            1       7       2   0.0+0
SPC            1       7       3   0.0+0
SPC            1       7       1   0.0+0
SPC            1       7       5   0.0+0
SPC            1       7       6   0.0+0
SPC            1      10       1   0.0+0
SPC            1      10       3   0.0+0
SPC            1      10       5   0.0+0
SPC            1      10       6   0.0+0
SPC            1      13       2   0.0+0
SPC            1      13       3   0.0+0
SPC            1      13       1   0.0+0
SPC            1      13       5   0.0+0
SPC            1      13       6   0.0+0
SPC            1      16       1   0.0+0
SPC            1      16       3   0.0+0
SPC            1      16       5   0.0+0
SPC            1      16       6   0.0+0
SPC            1      19       2   0.0+0
SPC            1      19       3   0.0+0
SPC            1      19       1   0.0+0
SPC            1      19       5   0.0+0
SPC            1      19       6   0.0+0
SPC            1      22       1   0.0+0
SPC            1      22       3   0.0+0
SPC            1      22       5   0.0+0
SPC            1      22       6   0.0+0
$--1---><--2---><--3---><--4---><--5---><--6---><--7---><--8---><--9---><--10-->
$$$$$$$$$$$$$$$$$$$$$$$$$$$$$$$$$$$ Default $$$$$$$$$$$$$$$$$$$$$$$$$$$$$$$$$$$$
PSHELL         2       1   1.0-3       1               1           0.0+0
CQUAD4         1       2       1       5       6       4  -9.0+1   0.0+0
CQUAD4         2       2       5       2       3       6  -9.0+1   0.0+0
CQUAD4*                3               2              11              12*
*                     10               7 2.65650511771+1           0.0+0
CQUAD4         4       2      11       8       9      12  -9.0+1   0.0+0
CQUAD4         5       2      18      16      13      17   1.8+2   0.0+0
CQUAD4         6       2      17      14      15      18   0.0+0   0.0+0
CQUAD4         7       2      22      19      23      24   9.0+1   0.0+0
CQUAD4         8       2      23      20      21      24   0.0+0   0.0+0
$--1---><--2---><--3---><--4---><--5---><--6---><--7---><--8---><--9---><--10-->
$$$$$$$$$$$$$$$$$$$$$$$$$$$$$$$$$$$ pressure $$$$$$$$$$$$$$$$$$$$$$$$$$$$$$$$$$$
FORCE          2       8       0   1.0+0   7.5-4   0.0+0   0.0+0
FORCE          2       9       0   1.0+0   7.5-4   0.0+0   0.0+0
FORCE          2      14       0   1.0+0   7.5-4   0.0+0   0.0+0
FORCE          2      15       0   1.0+0   7.5-4   0.0+0   0.0+0
FORCE          2      20       0   1.0+0   7.5-4   0.0+0   0.0+0
FORCE          2      21       0   1.0+0   7.5-4   0.0+0   0.0+0
FORCE*                 2               2               0           1.0+0*
*        2.56515107494-4 7.04769465589-4           0.0+0
FORCE*                 2               3               0           1.0+0*
*        2.56515107494-4 7.04769465589-4           0.0+0
$--1---><--2---><--3---><--4---><--5---><--6---><--7---><--8---><--9---><--10-->
LOAD           1   1.0+0   1.0+0       2
ENDDATA 
