$ Generated by Mecway 33
$-----------------------EXECUTIVE CONTROL SECTION-----------------------
SOL 105
CEND
$-------------------------CASE CONTROL SECTION--------------------------
DISPLACEMENT = ALL
SPC = 1
MPC = 1
SUBCASE 1
LOAD = 1
SUBCASE 2
METHOD = 1
BEGIN BULK
$---------------------------BULK DATA SECTION---------------------------
GRID           1       0   0.0+0   0.0+0   0.0+0       0
GRID           2       0   1.0-1  8.75-1   0.0+0       0
GRID           3       0   1.0-1 8.125-1   0.0+0       0
GRID           4       0   1.0-1   1.0+0   0.0+0       0
GRID           5       0   0.0+0 1.875-1   0.0+0       0
GRID           6       0   1.0-1  6.25-1   0.0+0       0
GRID           7       0   1.0-1 4.375-1   0.0+0       0
GRID           8       0   1.0-1   5.0-1   0.0+0       0
GRID           9       0   0.0+0  3.75-1   0.0+0       0
GRID          10       0   0.0+0  1.25-1   0.0+0       0
GRID          11       0   1.0-1 6.875-1   0.0+0       0
GRID          12       0   1.0-1 9.375-1   0.0+0       0
GRID          13       0   1.0-1   7.5-1   0.0+0       0
GRID          14       0   0.0+0  6.25-2   0.0+0       0
GRID          15       0   0.0+0 3.125-1   0.0+0       0
GRID          16       0   1.0-1 5.625-1   0.0+0       0
GRID          17       0   0.0+0   2.5-1   0.0+0       0
GRID          18       0   1.0-1  3.75-1   0.0+0       0
GRID*                 19               0 2.46898457408-2 3.91433358192-1*
*                  0.0+0               0
PARAM    STR_CID      -2
$--1---><--2---><--3---><--4---><--5---><--6---><--7---><--8---><--9---><--10-->
$$$$$$$$$$$$$$$$$$$$$$$$$$$$$$$$$$$ Material $$$$$$$$$$$$$$$$$$$$$$$$$$$$$$$$$$$
MAT1           1   1.0+0   5.0-1   0.0+0   0.0+0   0.0+0   0.0+0
$--1---><--2---><--3---><--4---><--5---><--6---><--7---><--8---><--9---><--10-->
SPC            1       1       1   0.0+0
SPC            1       1       2   0.0+0
SPC            1       1       3   0.0+0
SPC            1       1       4   0.0+0
SPC            1       1       5   0.0+0
SPC            1       1       6   0.0+0
SPC            1       2       3   0.0+0
SPC            1       2       4   0.0+0
SPC            1       2       5   0.0+0
SPC            1       3       3   0.0+0
SPC            1       3       4   0.0+0
SPC            1       3       5   0.0+0
SPC            1       4       3   0.0+0
SPC            1       4       4   0.0+0
SPC            1       4       5   0.0+0
SPC            1       5       3   0.0+0
SPC            1       5       4   0.0+0
SPC            1       5       5   0.0+0
SPC            1       6       3   0.0+0
SPC            1       6       4   0.0+0
SPC            1       6       5   0.0+0
SPC            1       7       3   0.0+0
SPC            1       7       4   0.0+0
SPC            1       7       5   0.0+0
SPC            1       8       3   0.0+0
SPC            1       8       4   0.0+0
SPC            1       8       5   0.0+0
SPC            1       9       3   0.0+0
SPC            1       9       4   0.0+0
SPC            1       9       5   0.0+0
SPC            1      10       3   0.0+0
SPC            1      10       4   0.0+0
SPC            1      10       5   0.0+0
SPC            1      11       3   0.0+0
SPC            1      11       4   0.0+0
SPC            1      11       5   0.0+0
SPC            1      12       3   0.0+0
SPC            1      12       4   0.0+0
SPC            1      12       5   0.0+0
SPC            1      13       3   0.0+0
SPC            1      13       4   0.0+0
SPC            1      13       5   0.0+0
SPC            1      14       3   0.0+0
SPC            1      14       4   0.0+0
SPC            1      14       5   0.0+0
SPC            1      15       3   0.0+0
SPC            1      15       4   0.0+0
SPC            1      15       5   0.0+0
SPC            1      16       3   0.0+0
SPC            1      16       4   0.0+0
SPC            1      16       5   0.0+0
SPC            1      17       3   0.0+0
SPC            1      17       4   0.0+0
SPC            1      17       5   0.0+0
SPC            1      18       3   0.0+0
SPC            1      18       4   0.0+0
SPC            1      18       5   0.0+0
MPC            1       9       1   1.0+0      19       1  -1.0+0
MPC            1       9       2   1.0+0      19       2  -1.0+0
MPC            1       9       6   1.0+0      19       6  -1.0+0
MPC            1      18       1   1.0+0      19       1  -1.0+0
MPC            1      18       2   1.0+0      19       2  -1.0+0
MPC            1      18       6   1.0+0      19       6  -1.0+0
$--1---><--2---><--3---><--4---><--5---><--6---><--7---><--8---><--9---><--10-->
$$$$$$$$$$$$$$$$$$$$$$$$$$$$$$$$$$$ Default $$$$$$$$$$$$$$$$$$$$$$$$$$$$$$$$$$$$
PBAR           1       1   1.0-3   1.0-5   0.0+0   0.0+0   0.0+0
CBAR           1       1       1      14  -1.0+0   0.0+0   0.0+0        
CBAR           2       1      14      10  -1.0+0   0.0+0   0.0+0        
CBAR           3       1      10       5  -1.0+0   0.0+0   0.0+0        
CBAR           4       1       5      17  -1.0+0   0.0+0   0.0+0        
CBAR           5       1      17      15  -1.0+0   0.0+0   0.0+0        
CBAR           6       1      15       9  -1.0+0   0.0+0   0.0+0        
CBAR           7       1      18       7  -1.0+0   0.0+0   0.0+0        
CBAR           8       1       7       8  -1.0+0   0.0+0   0.0+0        
CBAR           9       1       8      16  -1.0+0   0.0+0   0.0+0        
CBAR          10       1      16       6  -1.0+0   0.0+0   0.0+0        
CBAR          11       1       6      11  -1.0+0   0.0+0   0.0+0        
CBAR          12       1      11      13  -1.0+0   0.0+0   0.0+0        
CBAR          13       1      13       3  -1.0+0   0.0+0   0.0+0        
CBAR          14       1       3       2  -1.0+0   0.0+0   0.0+0        
CBAR          15       1       2      12  -1.0+0   0.0+0   0.0+0        
CBAR          16       1      12       4  -1.0+0   0.0+0   0.0+0        
$--1---><--2---><--3---><--4---><--5---><--6---><--7---><--8---><--9---><--10-->
$$$$$$$$$$$$$$$$$$$$$$$$$$$$$$$$$$$$ force $$$$$$$$$$$$$$$$$$$$$$$$$$$$$$$$$$$$$
FORCE          2       4       0   1.0+0   0.0+0  -1.0+0   0.0+0
$--1---><--2---><--3---><--4---><--5---><--6---><--7---><--8---><--9---><--10-->
EIGRL          1                       4       0           1.0-6    MASS
LOAD           1   1.0+0   1.0+0       2
ENDDATA 
