$ Generated by Mecway 33
$-----------------------EXECUTIVE CONTROL SECTION-----------------------
SOL 105
CEND
$-------------------------CASE CONTROL SECTION--------------------------
DISPLACEMENT = ALL
SPC = 1
MPC = 1
SUBCASE 1
LOAD = 1
SUBCASE 2
METHOD = 1
BEGIN BULK
$---------------------------BULK DATA SECTION---------------------------
GRID           1       0   0.0+0   2.5-1   0.0+0       0
GRID           2       0   5.0-3   2.5-1   0.0+0       0
GRID           3       0   2.5-3   7.5-1   0.0+0       0
GRID           4       0   2.5-3   5.0-1   0.0+0       0
GRID           5       0   2.5-3   5.0-1   0.0+0       0
GRID           6       0   2.5-3   5.0-1   0.0+0       0
GRID           7       0   2.5-3  6.25-1   0.0+0       0
GRID           8       0   2.5-3  6.25-1   0.0+0       0
PARAM    STR_CID      -2
$--1---><--2---><--3---><--4---><--5---><--6---><--7---><--8---><--9---><--10-->
$$$$$$$$$$$$$$$$$$$$$$$$$$$$$$$$$$$ Material $$$$$$$$$$$$$$$$$$$$$$$$$$$$$$$$$$$
MAT1           1   1.0+8   5.0+7   0.0+0   0.0+0   0.0+0   0.0+0
$--1---><--2---><--3---><--4---><--5---><--6---><--7---><--8---><--9---><--10-->
SPC            1       1       1   0.0+0
SPC            1       1       2   0.0+0
SPC            1       1       3   0.0+0
SPC            1       1       4   0.0+0
SPC            1       1       5   0.0+0
SPC            1       2       1   0.0+0
SPC            1       2       2   0.0+0
SPC            1       2       3   0.0+0
SPC            1       2       4   0.0+0
SPC            1       2       5   0.0+0
SPC            1       3       1   0.0+0
SPC            1       3       3   0.0+0
SPC            1       3       4   0.0+0
SPC            1       3       5   0.0+0
SPC            1       4       3   0.0+0
SPC            1       4       4   0.0+0
SPC            1       4       5   0.0+0
SPC            1       5       3   0.0+0
SPC            1       5       4   0.0+0
SPC            1       5       5   0.0+0
SPC            1       6       3   0.0+0
SPC            1       6       4   0.0+0
SPC            1       6       5   0.0+0
SPC            1       7       3   0.0+0
SPC            1       7       4   0.0+0
SPC            1       7       5   0.0+0
SPC            1       8       3   0.0+0
SPC            1       8       4   0.0+0
SPC            1       8       5   0.0+0
MPC            1       4       1   1.0+0       6       1  -1.0+0
MPC            1       5       1   1.0+0       6       1  -1.0+0
MPC            1       4       2   1.0+0       6       2  -1.0+0
MPC            1       5       2   1.0+0       6       2  -1.0+0
MPC            1       7       1   1.0+0       8       1  -1.0+0
MPC            1       8       2   1.0+0       7       2  -1.0+0
MPC            1       7       6   1.0+0       8       6  -1.0+0
$--1---><--2---><--3---><--4---><--5---><--6---><--7---><--8---><--9---><--10-->
$$$$$$$$$$$$$$$$$$$$$$$$$$$$$$$$$$$ Default $$$$$$$$$$$$$$$$$$$$$$$$$$$$$$$$$$$$
PBAR           1       1   1.0-4   1.0-9   0.0+0   0.0+0   0.0+0
CBAR           1       1       8       3  -1.0+0   0.0+0   0.0+0        
CBAR*                  2               1               1               4*
*        -9.9995000375-1  9.9995000375-3           0.0+0                
CBAR*                  3               1               2               6*
*        -9.9995000375-1 -9.9995000375-3           0.0+0                
CBAR           4       1       5       7  -1.0+0   0.0+0   0.0+0        
$--1---><--2---><--3---><--4---><--5---><--6---><--7---><--8---><--9---><--10-->
$$$$$$$$$$$$$$$$$$$$$$$$$$$$$$$$$$$$ force $$$$$$$$$$$$$$$$$$$$$$$$$$$$$$$$$$$$$
FORCE          2       3       0   1.0+0   0.0+0 -5.55+2   0.0+0
$--1---><--2---><--3---><--4---><--5---><--6---><--7---><--8---><--9---><--10-->
EIGRL          1                       1       0           1.0-4    MASS
LOAD           1   1.0+0   1.0+0       2
ENDDATA 
