$ Generated by Mecway 33
$-----------------------EXECUTIVE CONTROL SECTION-----------------------
SOL 105
CEND
$-------------------------CASE CONTROL SECTION--------------------------
DISPLACEMENT = ALL
SPC = 1
MPC = 1
SUBCASE 1
LOAD = 1
SUBCASE 2
METHOD = 1
BEGIN BULK
$---------------------------BULK DATA SECTION---------------------------
GRID           1       0   0.0+0   0.0+0   0.0+0       0
GRID           2       0  1.25-1   2.0+0  1.25-1       0
GRID           3       0   0.0+0   4.0+0  1.25-1       0
GRID           4       0   0.0+0   4.0+0   0.0+0       0
GRID           5       0   0.0+0   2.0+0   0.0+0       0
GRID           6       0  1.25-1   4.0+0  1.25-1       0
GRID           7       0  1.25-1   4.0+0   0.0+0       0
GRID           8       0   0.0+0   2.0+0  1.25-1       0
GRID           9       0  1.25-1   2.0+0   0.0+0       0
GRID          10       0  1.25-1   0.0+0   0.0+0       0
GRID          11       0  1.25-1   0.0+0  1.25-1       0
GRID          12       0   0.0+0   0.0+0  1.25-1       0
GRID          13       0   0.0+0   2.4+0   0.0+0       0
GRID          14       0   0.0+0   2.4+0  1.25-1       0
GRID          15       0   0.0+0   2.8+0   0.0+0       0
GRID          16       0   0.0+0   2.8+0  1.25-1       0
GRID          17       0   0.0+0   3.2+0   0.0+0       0
GRID          18       0   0.0+0   3.2+0  1.25-1       0
GRID          19       0   0.0+0   3.6+0   0.0+0       0
GRID          20       0   0.0+0   3.6+0  1.25-1       0
GRID          21       0  1.25-1   2.4+0   0.0+0       0
GRID          22       0  1.25-1   2.4+0  1.25-1       0
GRID          23       0  1.25-1   2.8+0   0.0+0       0
GRID          24       0  1.25-1   2.8+0  1.25-1       0
GRID          25       0  1.25-1   3.2+0   0.0+0       0
GRID          26       0  1.25-1   3.2+0  1.25-1       0
GRID          27       0  1.25-1   3.6+0   0.0+0       0
GRID          28       0  1.25-1   3.6+0  1.25-1       0
GRID          29       0   0.0+0   4.0-1   0.0+0       0
GRID          30       0   0.0+0   4.0-1  1.25-1       0
GRID          31       0   0.0+0   8.0-1   0.0+0       0
GRID          32       0   0.0+0   8.0-1  1.25-1       0
GRID          33       0   0.0+0   1.2+0   0.0+0       0
GRID          34       0   0.0+0   1.2+0  1.25-1       0
GRID          35       0   0.0+0   1.6+0   0.0+0       0
GRID          36       0   0.0+0   1.6+0  1.25-1       0
GRID          37       0  1.25-1   4.0-1   0.0+0       0
GRID          38       0  1.25-1   4.0-1  1.25-1       0
GRID          39       0  1.25-1   8.0-1   0.0+0       0
GRID          40       0  1.25-1   8.0-1  1.25-1       0
GRID          41       0  1.25-1   1.2+0   0.0+0       0
GRID          42       0  1.25-1   1.2+0  1.25-1       0
GRID          43       0  1.25-1   1.6+0   0.0+0       0
GRID          44       0  1.25-1   1.6+0  1.25-1       0
GRID          45       0  6.25-2   3.6+0   0.0+0       0
GRID          46       0  1.25-1   3.8+0   0.0+0       0
GRID          47       0  6.25-2   4.0+0   0.0+0       0
GRID          48       0   0.0+0   3.8+0   0.0+0       0
GRID          49       0   0.0+0   3.6+0  6.25-2       0
GRID          50       0  1.25-1   3.6+0  6.25-2       0
GRID          51       0  1.25-1   4.0+0  6.25-2       0
GRID          52       0   0.0+0   4.0+0  6.25-2       0
GRID          53       0  6.25-2   3.6+0  1.25-1       0
GRID          54       0  1.25-1   3.8+0  1.25-1       0
GRID          55       0  6.25-2   4.0+0  1.25-1       0
GRID          56       0   0.0+0   3.8+0  1.25-1       0
GRID          57       0  6.25-2   1.6+0   0.0+0       0
GRID          58       0  1.25-1   1.8+0   0.0+0       0
GRID          59       0  6.25-2   2.0+0   0.0+0       0
GRID          60       0   0.0+0   1.8+0   0.0+0       0
GRID          61       0   0.0+0   1.6+0  6.25-2       0
GRID          62       0  1.25-1   1.6+0  6.25-2       0
GRID          63       0  1.25-1   2.0+0  6.25-2       0
GRID          64       0   0.0+0   2.0+0  6.25-2       0
GRID          65       0  6.25-2   1.6+0  1.25-1       0
GRID          66       0  1.25-1   1.8+0  1.25-1       0
GRID          67       0  6.25-2   2.0+0  1.25-1       0
GRID          68       0   0.0+0   1.8+0  1.25-1       0
GRID          69       0  1.25-1   2.2+0   0.0+0       0
GRID          70       0  6.25-2   2.4+0   0.0+0       0
GRID          71       0   0.0+0   2.2+0   0.0+0       0
GRID          72       0  1.25-1   2.4+0  6.25-2       0
GRID          73       0   0.0+0   2.4+0  6.25-2       0
GRID          74       0  1.25-1   2.2+0  1.25-1       0
GRID          75       0  6.25-2   2.4+0  1.25-1       0
GRID          76       0   0.0+0   2.2+0  1.25-1       0
GRID          77       0  1.25-1   2.6+0   0.0+0       0
GRID          78       0  6.25-2   2.8+0   0.0+0       0
GRID          79       0   0.0+0   2.6+0   0.0+0       0
GRID          80       0  1.25-1   2.8+0  6.25-2       0
GRID          81       0   0.0+0   2.8+0  6.25-2       0
GRID          82       0  1.25-1   2.6+0  1.25-1       0
GRID          83       0  6.25-2   2.8+0  1.25-1       0
GRID          84       0   0.0+0   2.6+0  1.25-1       0
GRID          85       0  1.25-1   3.0+0   0.0+0       0
GRID          86       0  6.25-2   3.2+0   0.0+0       0
GRID          87       0   0.0+0   3.0+0   0.0+0       0
GRID          88       0  1.25-1   3.2+0  6.25-2       0
GRID          89       0   0.0+0   3.2+0  6.25-2       0
GRID          90       0  1.25-1   3.0+0  1.25-1       0
GRID          91       0  6.25-2   3.2+0  1.25-1       0
GRID          92       0   0.0+0   3.0+0  1.25-1       0
GRID          93       0  1.25-1   3.4+0   0.0+0       0
GRID          94       0   0.0+0   3.4+0   0.0+0       0
GRID          95       0  1.25-1   3.4+0  1.25-1       0
GRID          96       0   0.0+0   3.4+0  1.25-1       0
GRID          97       0  6.25-2   0.0+0   0.0+0       0
GRID          98       0  1.25-1   2.0-1   0.0+0       0
GRID          99       0  6.25-2   4.0-1   0.0+0       0
GRID         100       0   0.0+0   2.0-1   0.0+0       0
GRID         101       0   0.0+0   0.0+0  6.25-2       0
GRID         102       0  1.25-1   0.0+0  6.25-2       0
GRID         103       0  1.25-1   4.0-1  6.25-2       0
GRID         104       0   0.0+0   4.0-1  6.25-2       0
GRID         105       0  6.25-2   0.0+0  1.25-1       0
GRID         106       0  1.25-1   2.0-1  1.25-1       0
GRID         107       0  6.25-2   4.0-1  1.25-1       0
GRID         108       0   0.0+0   2.0-1  1.25-1       0
GRID         109       0  1.25-1   6.0-1   0.0+0       0
GRID         110       0  6.25-2   8.0-1   0.0+0       0
GRID         111       0   0.0+0   6.0-1   0.0+0       0
GRID         112       0  1.25-1   8.0-1  6.25-2       0
GRID         113       0   0.0+0   8.0-1  6.25-2       0
GRID         114       0  1.25-1   6.0-1  1.25-1       0
GRID         115       0  6.25-2   8.0-1  1.25-1       0
GRID         116       0   0.0+0   6.0-1  1.25-1       0
GRID         117       0  1.25-1   1.0+0   0.0+0       0
GRID         118       0  6.25-2   1.2+0   0.0+0       0
GRID         119       0   0.0+0   1.0+0   0.0+0       0
GRID         120       0  1.25-1   1.2+0  6.25-2       0
GRID         121       0   0.0+0   1.2+0  6.25-2       0
GRID         122       0  1.25-1   1.0+0  1.25-1       0
GRID         123       0  6.25-2   1.2+0  1.25-1       0
GRID         124       0   0.0+0   1.0+0  1.25-1       0
GRID         125       0  1.25-1   1.4+0   0.0+0       0
GRID         126       0   0.0+0   1.4+0   0.0+0       0
GRID         127       0  1.25-1   1.4+0  1.25-1       0
GRID         128       0   0.0+0   1.4+0  1.25-1       0
PARAM    STR_CID      -2
$--1---><--2---><--3---><--4---><--5---><--6---><--7---><--8---><--9---><--10-->
$$$$$$$$$$$$$$$$$$$$$$$$$$$$$$$$$$$ Material $$$$$$$$$$$$$$$$$$$$$$$$$$$$$$$$$$$
MAT1           1  2.1+11 1.05+11   0.0+0   0.0+0   0.0+0   0.0+0
$--1---><--2---><--3---><--4---><--5---><--6---><--7---><--8---><--9---><--10-->
SPC            1       3       1   0.0+0
SPC            1       3       3   0.0+0
SPC            1       4       1   0.0+0
SPC            1       4       3   0.0+0
SPC            1       6       1   0.0+0
SPC            1       6       3   0.0+0
SPC            1       7       1   0.0+0
SPC            1       7       3   0.0+0
SPC            1      47       1   0.0+0
SPC            1      47       3   0.0+0
SPC            1      51       1   0.0+0
SPC            1      51       3   0.0+0
SPC            1      52       1   0.0+0
SPC            1      52       3   0.0+0
SPC            1      55       1   0.0+0
SPC            1      55       3   0.0+0
MPC*                   1             105               1 5.20833333333-3*
*                      1               1-1.30208333333-3                *
*                                     97               1 5.20833333333-3*
*                     10               1-1.30208333333-3                *
*                                    102               1 5.20833333333-3*
*                     11               1-1.30208333333-3                *
*                                     12               1-1.30208333333-3*
*                    101               1 5.20833333333-3
MPC*                   1             105               2 5.20833333333-3*
*                      1               2-1.30208333333-3                *
*                                     97               2 5.20833333333-3*
*                     10               2-1.30208333333-3                *
*                                    102               2 5.20833333333-3*
*                     11               2-1.30208333333-3                *
*                                     12               2-1.30208333333-3*
*                    101               2 5.20833333333-3
MPC*                   1             105               3 5.20833333333-3*
*                      1               3-1.30208333333-3                *
*                                     97               3 5.20833333333-3*
*                     10               3-1.30208333333-3                *
*                                    102               3 5.20833333333-3*
*                     11               3-1.30208333333-3                *
*                                     12               3-1.30208333333-3*
*                    101               3 5.20833333333-3
$--1---><--2---><--3---><--4---><--5---><--6---><--7---><--8---><--9---><--10-->
$$$$$$$$$$$$$$$$$$$$$$$$$$$$$$$$$$$ Default $$$$$$$$$$$$$$$$$$$$$$$$$$$$$$$$$$$$
PSOLID         1       1       0       3               1
CHEXA          1       1      19      27       7       4      20      28+
+              6       3      45      46      47      48      49      50+
+             51      52      53      54      55      56
CHEXA          2       1      35      43       9       5      36      44+
+              2       8      57      58      59      60      61      62+
+             63      64      65      66      67      68
CHEXA          3       1       5       9      21      13       8       2+
+             22      14      59      69      70      71      64      63+
+             72      73      67      74      75      76
CHEXA          4       1      13      21      23      15      14      22+
+             24      16      70      77      78      79      73      72+
+             80      81      75      82      83      84
CHEXA          5       1      15      23      25      17      16      24+
+             26      18      78      85      86      87      81      80+
+             88      89      83      90      91      92
CHEXA          6       1      17      25      27      19      18      26+
+             28      20      86      93      45      94      89      88+
+             50      49      91      95      53      96
CHEXA          7       1       1      10      37      29      12      11+
+             38      30      97      98      99     100     101     102+
+            103     104     105     106     107     108
CHEXA          8       1      29      37      39      31      30      38+
+             40      32      99     109     110     111     104     103+
+            112     113     107     114     115     116
CHEXA          9       1      31      39      41      33      32      40+
+             42      34     110     117     118     119     113     112+
+            120     121     115     122     123     124
CHEXA         10       1      33      41      43      35      34      42+
+             44      36     118     125      57     126     121     120+
+             62      61     123     127      65     128
$--1---><--2---><--3---><--4---><--5---><--6---><--7---><--8---><--9---><--10-->
$$$$$$$$$$$$$$$$$$$$$$$$$$$$$$$$$$$$ force $$$$$$$$$$$$$$$$$$$$$$$$$$$$$$$$$$$$$
FORCE*                 2               7               0           1.0+0*
*                  0.0+0 8.33333333333-2           0.0+0
FORCE*                 2               4               0           1.0+0*
*                  0.0+0 8.33333333333-2           0.0+0
FORCE*                 2               6               0           1.0+0*
*                  0.0+0 8.33333333333-2           0.0+0
FORCE*                 2               3               0           1.0+0*
*                  0.0+0 8.33333333333-2           0.0+0
FORCE*                 2              47               0           1.0+0*
*                  0.0+0-3.33333333333-1           0.0+0
FORCE*                 2              51               0           1.0+0*
*                  0.0+0-3.33333333333-1           0.0+0
FORCE*                 2              52               0           1.0+0*
*                  0.0+0-3.33333333333-1           0.0+0
FORCE*                 2              55               0           1.0+0*
*                  0.0+0-3.33333333333-1           0.0+0
$--1---><--2---><--3---><--4---><--5---><--6---><--7---><--8---><--9---><--10-->
EIGRL          1                       4       0           1.0+5    MASS
LOAD           1   1.0+0   1.0+0       2
ENDDATA 
