$ Generated by Mecway 33
$-----------------------EXECUTIVE CONTROL SECTION-----------------------
SOL 105
CEND
$-------------------------CASE CONTROL SECTION--------------------------
DISPLACEMENT = ALL
SPC = 1
MPC = 1
SUBCASE 1
LOAD = 1
SUBCASE 2
METHOD = 1
BEGIN BULK
$---------------------------BULK DATA SECTION---------------------------
GRID           1       0   0.0+0   0.0+0   0.0+0       0
GRID           2       0   2.5+0   2.5+0  1.25+0       0
GRID           3       0  1.25+0   5.0+0  1.25+0       0
GRID           4       0   5.0+0   2.5+1   0.0+0       0
GRID           5       0   0.0+0   2.5+0  1.25+0       0
GRID           6       0  1.25+0   2.5+0   0.0+0       0
GRID           7       0  6.25-1   1.5+1   0.0+0       0
GRID           8       0  1.25+0   2.5+0  1.25+0       0
GRID           9       0  1.25+0   7.5+0   0.0+0       0
GRID          10       0   2.5+0  6.25+0  1.25+0       0
GRID          11       0 1.875+0   7.5+0  1.25+0       0
GRID          12       0   0.0+0   1.0+1   0.0+0       0
GRID          13       0   2.5+0   1.0+1  1.25+0       0
GRID          14       0   7.5+0   2.5+1   0.0+0       0
GRID          15       0   0.0+0   1.5+1   0.0+0       0
GRID          16       0   0.0+0 1.625+1   0.0+0       0
GRID          17       0   0.0+0   1.5+1  6.25-1       0
GRID          18       0  1.25+0 1.375+1  1.25+0       0
GRID          19       0   7.5+0   2.0+1   0.0+0       0
GRID          20       0   7.5+0 1.625+1   0.0+0       0
GRID          21       0  1.25+0   7.5+0  1.25+0       0
GRID          22       0   7.5+0  2.25+1   0.0+0       0
GRID          23       0   2.5+0   7.5+0  1.25+0       0
GRID          24       0  6.25+0   2.5+1   0.0+0       0
GRID          25       0   7.5+0  2.25+1  1.25+0       0
GRID          26       0   0.0+0  1.75+1   0.0+0       0
GRID          27       0   2.5+0  8.75+0   0.0+0       0
GRID          28       0 1.875+0   1.0+1   0.0+0       0
GRID          29       0   5.0+0   2.5+1  1.25+0       0
GRID          30       0  6.25+0   2.5+1  1.25+0       0
GRID          31       0   0.0+0  1.75+1  1.25+0       0
GRID          32       0  1.25+0  1.75+1   0.0+0       0
GRID          33       0  1.25+0  8.75+0   0.0+0       0
GRID          34       0  1.25+0  1.75+1  1.25+0       0
GRID          35       0   7.5+0  1.75+1   0.0+0       0
GRID          36       0  1.25+0   1.5+1   0.0+0       0
GRID          37       0   0.0+0  1.25+1   0.0+0       0
GRID          38       0   0.0+0 1.375+1  1.25+0       0
GRID          39       0   0.0+0 1.125+1  1.25+0       0
GRID          40       0  6.25-1   0.0+0   0.0+0       0
GRID          41       0   7.5+0   2.0+1  1.25+0       0
GRID          42       0   0.0+0   1.5+1  1.25+0       0
GRID          43       0   7.5+0  1.75+1  1.25+0       0
GRID          44       0  1.25+0   1.5+1  1.25+0       0
GRID          45       0   0.0+0  1.25+1  1.25+0       0
GRID          46       0  1.25+0  1.25+1   0.0+0       0
GRID          47       0   2.5+0   0.0+0   0.0+0       0
GRID          48       0  1.25+0  1.25+0   0.0+0       0
GRID          49       0   2.5+0   1.0+1   0.0+0       0
GRID          50       0   0.0+0   5.0+0   0.0+0       0
GRID          51       0  6.25-1   2.5+0   0.0+0       0
GRID          52       0  1.25+0  1.25+1  1.25+0       0
GRID          53       0   7.5+0   2.5+1  1.25+0       0
GRID          54       0   0.0+0  1.25+0   0.0+0       0
GRID          55       0  1.25+0   1.0+1   0.0+0       0
GRID          56       0   0.0+0   7.5+0   0.0+0       0
GRID          57       0   0.0+0   0.0+0  6.25-1       0
GRID          58       0  1.25+0   0.0+0  6.25-1       0
GRID          59       0  1.25+0   2.5+0  6.25-1       0
GRID          60       0   0.0+0   2.5+0  6.25-1       0
GRID          61       0  6.25-1   0.0+0  1.25+0       0
GRID          62       0   2.5+0   5.0+0   0.0+0       0
GRID          63       0  1.25+0  1.25+0  1.25+0       0
GRID          64       0  6.25-1   2.5+0  1.25+0       0
GRID          65       0   0.0+0   1.0+1  1.25+0       0
GRID          66       0  1.25+0   1.0+1  1.25+0       0
GRID          67       0   2.5+0   7.5+0   0.0+0       0
GRID          68       0   0.0+0   7.5+0  1.25+0       0
GRID          69       0  1.25+0   0.0+0   0.0+0       0
GRID          70       0   2.5+0   2.5+0   0.0+0       0
GRID          71       0  1.25+0   5.0+0   0.0+0       0
GRID          72       0   0.0+0   2.5+0   0.0+0       0
GRID          73       0   0.0+0  1.25+0  1.25+0       0
GRID          74       0 1.875+0   0.0+0   0.0+0       0
GRID          75       0   2.5+0  1.25+0   0.0+0       0
GRID          76       0 1.875+0   2.5+0   0.0+0       0
GRID          77       0   0.0+0   0.0+0  1.25+0       0
GRID          78       0   2.5+0   0.0+0  1.25+0       0
GRID          79       0   2.5+0   5.0+0  1.25+0       0
GRID          80       0   0.0+0   5.0+0  1.25+0       0
GRID          81       0  1.25+0   0.0+0  1.25+0       0
GRID          82       0  6.25-1  1.75+1  1.25+0       0
GRID          83       0  6.25+0 2.375+1  1.25+0       0
GRID          84       0 5.625+0   2.5+1  1.25+0       0
GRID          85       0   5.0+0 2.375+1  1.25+0       0
GRID          86       0   2.5+0   1.0+1  6.25-1       0
GRID          87       0  1.25+0   1.0+1  6.25-1       0
GRID          88       0   2.5+0   0.0+0  6.25-1       0
GRID          89       0   2.5+0   2.5+0  6.25-1       0
GRID          90       0   0.0+0  1.25+1  6.25-1       0
GRID          91       0 1.875+0   0.0+0  1.25+0       0
GRID          92       0   2.5+0  1.25+0  1.25+0       0
GRID          93       0 1.875+0   2.5+0  1.25+0       0
GRID          94       0 6.875+0  2.25+1  1.25+0       0
GRID          95       0   7.5+0 2.375+1  1.25+0       0
GRID          96       0 6.875+0   2.5+1  1.25+0       0
GRID          97       0   2.5+0  8.75+0  1.25+0       0
GRID          98       0 1.875+0   1.0+1  1.25+0       0
GRID          99       0   2.5+0  3.75+0   0.0+0       0
GRID         100       0 1.875+0   5.0+0   0.0+0       0
GRID         101       0  1.25+0  3.75+0   0.0+0       0
GRID         102       0  1.25+0  8.75+0  1.25+0       0
GRID         103       0  1.25+0  1.25+1  6.25-1       0
GRID         104       0   2.5+0   5.0+0  6.25-1       0
GRID         105       0  1.25+0   5.0+0  6.25-1       0
GRID         106       0 6.875+0   2.0+1  1.25+0       0
GRID         107       0   7.5+0 2.125+1  1.25+0       0
GRID         108       0   7.5+0 1.625+1  1.25+0       0
GRID         109       0  1.25+0 1.625+1  1.25+0       0
GRID         110       0   2.5+0  3.75+0  1.25+0       0
GRID         111       0 1.875+0   5.0+0  1.25+0       0
GRID         112       0 6.875+0  1.75+1  1.25+0       0
GRID         113       0  1.25+0  3.75+0  1.25+0       0
GRID         114       0  6.25-1   1.0+1   0.0+0       0
GRID         115       0   0.0+0  8.75+0   0.0+0       0
GRID         116       0  6.25-1   5.0+0   0.0+0       0
GRID         117       0   0.0+0  3.75+0   0.0+0       0
GRID         118       0  6.25-1   1.5+1  1.25+0       0
GRID         119       0 6.875+0  1.75+1   0.0+0       0
GRID         120       0   7.5+0 1.875+1  1.25+0       0
GRID         121       0   0.0+0 1.625+1  1.25+0       0
GRID         122       0  1.25+0 1.125+1  1.25+0       0
GRID         123       0   0.0+0 1.125+1   0.0+0       0
GRID         124       0   0.0+0   5.0+0  6.25-1       0
GRID         125       0  6.25-1  1.25+1   0.0+0       0
GRID         126       0   0.0+0   1.0+1  6.25-1       0
GRID         127       0  1.25+0  6.25+0   0.0+0       0
GRID         128       0  6.25-1   7.5+0   0.0+0       0
GRID         129       0   7.5+0 1.875+1   0.0+0       0
GRID         130       0  6.25-1  1.75+1   0.0+0       0
GRID         131       0  6.25+0 2.375+1   0.0+0       0
GRID         132       0 5.625+0   2.5+1   0.0+0       0
GRID         133       0   5.0+0 2.375+1   0.0+0       0
GRID         134       0   0.0+0  1.75+1  6.25-1       0
GRID         135       0  1.25+0  1.75+1  6.25-1       0
GRID         136       0  6.25+0   2.5+1  6.25-1       0
GRID         137       0   5.0+0   2.5+1  6.25-1       0
GRID         138       0   0.0+0  6.25+0   0.0+0       0
GRID         139       0  6.25-1   5.0+0  1.25+0       0
GRID         140       0  1.25+0 1.375+1   0.0+0       0
GRID         141       0  1.25+0   7.5+0  6.25-1       0
GRID         142       0 6.875+0  2.25+1   0.0+0       0
GRID         143       0   7.5+0 2.375+1   0.0+0       0
GRID         144       0 6.875+0   2.5+1   0.0+0       0
GRID         145       0   0.0+0   7.5+0  6.25-1       0
GRID         146       0   0.0+0  3.75+0  1.25+0       0
GRID         147       0   7.5+0  2.25+1  6.25-1       0
GRID         148       0   7.5+0   2.5+1  6.25-1       0
GRID         149       0  1.25+0  6.25+0  1.25+0       0
GRID         150       0  6.25-1   7.5+0  1.25+0       0
GRID         151       0   0.0+0  6.25+0  1.25+0       0
GRID         152       0   7.5+0  1.75+1  6.25-1       0
GRID         153       0   2.5+0  6.25+0   0.0+0       0
GRID         154       0 6.875+0   2.0+1   0.0+0       0
GRID         155       0   7.5+0 2.125+1   0.0+0       0
GRID         156       0 1.875+0   7.5+0   0.0+0       0
GRID         157       0  1.25+0 1.625+1   0.0+0       0
GRID         158       0  1.25+0   1.5+1  6.25-1       0
GRID         159       0   7.5+0   2.0+1  6.25-1       0
GRID         160       0   0.0+0 1.375+1   0.0+0       0
GRID         161       0  1.25+0 1.125+1   0.0+0       0
GRID         162       0  6.25-1   1.0+1  1.25+0       0
GRID         163       0   2.5+0   7.5+0  6.25-1       0
GRID         164       0   0.0+0  8.75+0  1.25+0       0
GRID         165       0  6.25-1  1.25+1  1.25+0       0
GRID         166       0  6.25+0   1.5+1   0.0+0       0
GRID         167       0   7.5+0   1.5+1   0.0+0       0
GRID         168       0  6.25+0  1.75+1   0.0+0       0
GRID         169       0  6.25+0   1.5+1  1.25+0       0
GRID         170       0   7.5+0   1.5+1  1.25+0       0
GRID         171       0  6.25+0  1.75+1  1.25+0       0
GRID         172       0 6.875+0   1.5+1   0.0+0       0
GRID         173       0  6.25+0 1.625+1   0.0+0       0
GRID         174       0  6.25+0   1.5+1  6.25-1       0
GRID         175       0   7.5+0   1.5+1  6.25-1       0
GRID         176       0  6.25+0  1.75+1  6.25-1       0
GRID         177       0 6.875+0   1.5+1  1.25+0       0
GRID         178       0  6.25+0 1.625+1  1.25+0       0
GRID         179       0  6.25+0   2.0+1   0.0+0       0
GRID         180       0  6.25+0   2.0+1  1.25+0       0
GRID         181       0  6.25+0 1.875+1   0.0+0       0
GRID         182       0  6.25+0   2.0+1  6.25-1       0
GRID         183       0  6.25+0 1.875+1  1.25+0       0
GRID         184       0   5.0+0  2.25+1   0.0+0       0
GRID         185       0  6.25+0  2.25+1   0.0+0       0
GRID         186       0   5.0+0  2.25+1  1.25+0       0
GRID         187       0  6.25+0  2.25+1  1.25+0       0
GRID         188       0 5.625+0  2.25+1   0.0+0       0
GRID         189       0   5.0+0  2.25+1  6.25-1       0
GRID         190       0  6.25+0  2.25+1  6.25-1       0
GRID         191       0 5.625+0  2.25+1  1.25+0       0
GRID         192       0  6.25+0 2.125+1   0.0+0       0
GRID         193       0  6.25+0 2.125+1  1.25+0       0
PARAM    STR_CID      -2
$--1---><--2---><--3---><--4---><--5---><--6---><--7---><--8---><--9---><--10-->
$$$$$$$$$$$$$$$$$$$$$$$$$$$$$$$$$$ Material_1 $$$$$$$$$$$$$$$$$$$$$$$$$$$$$$$$$$
MAT1*                  1           1.0+6 3.84615384615+5           3.0-1*
*                  0.0+0           0.0+0           0.0+0
$--1---><--2---><--3---><--4---><--5---><--6---><--7---><--8---><--9---><--10-->
SPC            1       1       1   0.0+0
SPC            1       1       2   0.0+0
SPC            1       1       3   0.0+0
SPC            1      40       1   0.0+0
SPC            1      40       2   0.0+0
SPC            1      40       3   0.0+0
SPC            1      47       1   0.0+0
SPC            1      47       2   0.0+0
SPC            1      47       3   0.0+0
SPC            1      57       1   0.0+0
SPC            1      57       2   0.0+0
SPC            1      57       3   0.0+0
SPC            1      58       1   0.0+0
SPC            1      58       2   0.0+0
SPC            1      58       3   0.0+0
SPC            1      61       1   0.0+0
SPC            1      61       2   0.0+0
SPC            1      61       3   0.0+0
SPC            1      69       1   0.0+0
SPC            1      69       2   0.0+0
SPC            1      69       3   0.0+0
SPC            1      74       1   0.0+0
SPC            1      74       2   0.0+0
SPC            1      74       3   0.0+0
SPC            1      77       1   0.0+0
SPC            1      77       2   0.0+0
SPC            1      77       3   0.0+0
SPC            1      78       1   0.0+0
SPC            1      78       2   0.0+0
SPC            1      78       3   0.0+0
SPC            1      81       1   0.0+0
SPC            1      81       2   0.0+0
SPC            1      81       3   0.0+0
SPC            1      88       1   0.0+0
SPC            1      88       2   0.0+0
SPC            1      88       3   0.0+0
SPC            1      91       1   0.0+0
SPC            1      91       2   0.0+0
SPC            1      91       3   0.0+0
MPC            1      26       1   1.0+0     184       1  -1.0+0
MPC            1     130       1   1.0+0     188       1  -1.0+0
MPC            1      32       1   1.0+0     185       1  -1.0+0
MPC            1     135       1   1.0+0     190       1  -1.0+0
MPC            1      34       1   1.0+0     187       1  -1.0+0
MPC            1      82       1   1.0+0     191       1  -1.0+0
MPC            1      31       1   1.0+0     186       1  -1.0+0
MPC            1     134       1   1.0+0     189       1  -1.0+0
MPC            1     157       1   1.0+0     192       1  -1.0+0
MPC            1      36       1   1.0+0     179       1  -1.0+0
MPC            1     140       1   1.0+0     181       1  -1.0+0
MPC            1      46       1   1.0+0     168       1  -1.0+0
MPC            1     161       1   1.0+0     173       1  -1.0+0
MPC            1      55       1   1.0+0     166       1  -1.0+0
MPC            1      87       1   1.0+0     174       1  -1.0+0
MPC            1      66       1   1.0+0     169       1  -1.0+0
MPC            1     122       1   1.0+0     178       1  -1.0+0
MPC            1      52       1   1.0+0     171       1  -1.0+0
MPC            1      18       1   1.0+0     183       1  -1.0+0
MPC            1      44       1   1.0+0     180       1  -1.0+0
MPC            1     109       1   1.0+0     193       1  -1.0+0
MPC            1     158       1   1.0+0     182       1  -1.0+0
MPC            1     103       1   1.0+0     176       1  -1.0+0
MPC            1      28       1   1.0+0     172       1  -1.0+0
MPC            1      49       1   1.0+0     167       1  -1.0+0
MPC            1      86       1   1.0+0     175       1  -1.0+0
MPC            1      13       1   1.0+0     170       1  -1.0+0
MPC            1      98       1   1.0+0     177       1  -1.0+0
MPC            1      26       2   1.0+0     184       2  -1.0+0
MPC            1     130       2   1.0+0     188       2  -1.0+0
MPC            1      32       2   1.0+0     185       2  -1.0+0
MPC            1     135       2   1.0+0     190       2  -1.0+0
MPC            1      34       2   1.0+0     187       2  -1.0+0
MPC            1      82       2   1.0+0     191       2  -1.0+0
MPC            1      31       2   1.0+0     186       2  -1.0+0
MPC            1     134       2   1.0+0     189       2  -1.0+0
MPC            1     157       2   1.0+0     192       2  -1.0+0
MPC            1      36       2   1.0+0     179       2  -1.0+0
MPC            1     140       2   1.0+0     181       2  -1.0+0
MPC            1      46       2   1.0+0     168       2  -1.0+0
MPC            1     161       2   1.0+0     173       2  -1.0+0
MPC            1      55       2   1.0+0     166       2  -1.0+0
MPC            1      87       2   1.0+0     174       2  -1.0+0
MPC            1      66       2   1.0+0     169       2  -1.0+0
MPC            1     122       2   1.0+0     178       2  -1.0+0
MPC            1      52       2   1.0+0     171       2  -1.0+0
MPC            1      18       2   1.0+0     183       2  -1.0+0
MPC            1      44       2   1.0+0     180       2  -1.0+0
MPC            1     109       2   1.0+0     193       2  -1.0+0
MPC            1     158       2   1.0+0     182       2  -1.0+0
MPC            1     103       2   1.0+0     176       2  -1.0+0
MPC            1      28       2   1.0+0     172       2  -1.0+0
MPC            1      49       2   1.0+0     167       2  -1.0+0
MPC            1      86       2   1.0+0     175       2  -1.0+0
MPC            1      13       2   1.0+0     170       2  -1.0+0
MPC            1      98       2   1.0+0     177       2  -1.0+0
MPC            1      26       3   1.0+0     184       3  -1.0+0
MPC            1     130       3   1.0+0     188       3  -1.0+0
MPC            1      32       3   1.0+0     185       3  -1.0+0
MPC            1     135       3   1.0+0     190       3  -1.0+0
MPC            1      34       3   1.0+0     187       3  -1.0+0
MPC            1      82       3   1.0+0     191       3  -1.0+0
MPC            1      31       3   1.0+0     186       3  -1.0+0
MPC            1     134       3   1.0+0     189       3  -1.0+0
MPC            1     157       3   1.0+0     192       3  -1.0+0
MPC            1      36       3   1.0+0     179       3  -1.0+0
MPC            1     140       3   1.0+0     181       3  -1.0+0
MPC            1      46       3   1.0+0     168       3  -1.0+0
MPC            1     161       3   1.0+0     173       3  -1.0+0
MPC            1      55       3   1.0+0     166       3  -1.0+0
MPC            1      87       3   1.0+0     174       3  -1.0+0
MPC            1      66       3   1.0+0     169       3  -1.0+0
MPC            1     122       3   1.0+0     178       3  -1.0+0
MPC            1      52       3   1.0+0     171       3  -1.0+0
MPC            1      18       3   1.0+0     183       3  -1.0+0
MPC            1      44       3   1.0+0     180       3  -1.0+0
MPC            1     109       3   1.0+0     193       3  -1.0+0
MPC            1     158       3   1.0+0     182       3  -1.0+0
MPC            1     103       3   1.0+0     176       3  -1.0+0
MPC            1      28       3   1.0+0     172       3  -1.0+0
MPC            1      49       3   1.0+0     167       3  -1.0+0
MPC            1      86       3   1.0+0     175       3  -1.0+0
MPC            1      13       3   1.0+0     170       3  -1.0+0
MPC            1      98       3   1.0+0     177       3  -1.0+0
$--1---><--2---><--3---><--4---><--5---><--6---><--7---><--8---><--9---><--10-->
$$$$$$$$$$$$$$$$$$$$$$$$$$$$$$$$ Default_Group $$$$$$$$$$$$$$$$$$$$$$$$$$$$$$$$$
PSOLID         1       1       0       3               1
CHEXA          1       1      12      55      46      37      65      66+
+             52      45     114     161     125     123     126      87+
+            103      90     162     122     165      39
CHEXA          2       1     166     167      35     168     169     170+
+             43     171     172      20     119     173     174     175+
+            152     176     177     108     112     178
CHEXA          3       1     168      35      19     179     171      43+
+             41     180     119     129     154     181     176     152+
+            159     182     112     120     106     183
CHEXA          4       1      37      46      36      15      45      52+
+             44      42     125     140       7     160      90     103+
+            158      17     165      18     118      38
CHEXA          5       1     184     185      24       4     186     187+
+             30      29     188     131     132     133     189     190+
+            136     137     191      83      84      85
CHEXA          6       1     185      22      14      24     187      25+
+             53      30     142     143     144     131     190     147+
+            148     136      94      95      96      83
CHEXA          7       1     179      19      22     185     180      41+
+             25     187     154     155     142     192     182     159+
+            147     190     106     107      94     193
CHEXA          8       1      15      36      32      26      42      44+
+             34      31       7     157     130      16      17     158+
+            135     134     118     109      82     121
CHEXA          9       1       1      69       6      72      77      81+
+              8       5      40      48      51      54      57      58+
+             59      60      61      63      64      73
CHEXA         10       1      69      47      70       6      81      78+
+              2       8      74      75      76      48      58      88+
+             89      59      91      92      93      63
CHEXA         11       1       6      70      62      71       8       2+
+             79       3      76      99     100     101      59      89+
+            104     105      93     110     111     113
CHEXA         12       1      72       6      71      50       5       8+
+              3      80      51     101     116     117      60      59+
+            105     124      64     113     139     146
CHEXA         13       1      56       9      55      12      68      21+
+             66      65     128      33     114     115     145     141+
+             87     126     150     102     162     164
CHEXA         14       1       9      67      49      55      21      23+
+             13      66     156      27      28      33     141     163+
+             86      87      11      97      98     102
CHEXA         15       1      71      62      67       9       3      79+
+             23      21     100     153     156     127     105     104+
+            163     141     111      10      11     149
CHEXA         16       1      50      71       9      56      80       3+
+             21      68     116     127     128     138     124     105+
+            141     145     139     149     150     151
$--1---><--2---><--3---><--4---><--5---><--6---><--7---><--8---><--9---><--10-->
$$$$$$$$$$$$$$$$$$$$$$$$$$$$$$$$$$$ traction $$$$$$$$$$$$$$$$$$$$$$$$$$$$$$$$$$$
FORCE*                 2              24               0           1.0+0*
*                  0.0+0 8.33333333333-2           0.0+0
FORCE*                 2               4               0           1.0+0*
*                  0.0+0 4.16666666667-2           0.0+0
FORCE*                 2              30               0           1.0+0*
*                  0.0+0 8.33333333333-2           0.0+0
FORCE*                 2              29               0           1.0+0*
*                  0.0+0 4.16666666667-2           0.0+0
FORCE*                 2             132               0           1.0+0*
*                  0.0+0-1.66666666667-1           0.0+0
FORCE*                 2             136               0           1.0+0*
*                  0.0+0-3.33333333333-1           0.0+0
FORCE*                 2             137               0           1.0+0*
*                  0.0+0-1.66666666667-1           0.0+0
FORCE*                 2              84               0           1.0+0*
*                  0.0+0-1.66666666667-1           0.0+0
FORCE*                 2              14               0           1.0+0*
*                  0.0+0 4.16666666667-2           0.0+0
FORCE*                 2              53               0           1.0+0*
*                  0.0+0 4.16666666667-2           0.0+0
FORCE*                 2             144               0           1.0+0*
*                  0.0+0-1.66666666667-1           0.0+0
FORCE*                 2             148               0           1.0+0*
*                  0.0+0-1.66666666667-1           0.0+0
FORCE*                 2              96               0           1.0+0*
*                  0.0+0-1.66666666667-1           0.0+0
$--1---><--2---><--3---><--4---><--5---><--6---><--7---><--8---><--9---><--10-->
EIGRL          1                       2       0           2.0+3    MASS
LOAD           1   1.0+0   1.0+0       2
ENDDATA 
