$ Generated by Mecway 33
$-----------------------EXECUTIVE CONTROL SECTION-----------------------
SOL 101
CEND
$-------------------------CASE CONTROL SECTION--------------------------
DISPLACEMENT = ALL
SPC = 1
LOAD = 1
BEGIN BULK
$---------------------------BULK DATA SECTION---------------------------
PARAM    STR_CID      -2
$--1---><--2---><--3---><--4---><--5---><--6---><--7---><--8---><--9---><--10-->
$$$$$$$$$$$$$$$$$$$$$$$$$$$$$$$$$$$ Material $$$$$$$$$$$$$$$$$$$$$$$$$$$$$$$$$$$
MAT1           1  1.0+11  5.0+10   0.0+0   1.0+3   0.0+0   0.0+0
$--1---><--2---><--3---><--4---><--5---><--6---><--7---><--8---><--9---><--10-->
SPC            1       1       1   0.0+0
SPC            1       1       3   0.0+0
SPC            1       2       3   0.0+0
SPC            1       3       2   0.0+0
SPC            1       3       3   0.0+0
SPC            1       4       1   0.0+0
SPC            1       4       2   0.0+0
SPC            1       4       3   0.0+0
SPC            1       5       1   0.0+0
SPC            1       7       2   0.0+0
SPC            1       8       2   0.0+0
SPC            1       8       1   0.0+0
SPC            1       9       1   0.0+0
SPC            1       9       3   0.0+0
SPC            1      10       3   0.0+0
SPC            1      11       2   0.0+0
SPC            1      11       3   0.0+0
SPC            1      12       1   0.0+0
SPC            1      12       2   0.0+0
SPC            1      12       3   0.0+0
SPC            1      13       1   0.0+0
SPC            1      15       2   0.0+0
SPC            1      16       2   0.0+0
SPC            1      16       1   0.0+0
$--1---><--2---><--3---><--4---><--5---><--6---><--7---><--8---><--9---><--10-->
$$$$$$$$$$$$$$$$$$$$$$$$$$$$$$$$$$$ Default $$$$$$$$$$$$$$$$$$$$$$$$$$$$$$$$$$$$
PSOLID         1       1       0       2               1
CHEXA          1       1       1       2       3       4       5       6+
+              7       8
CHEXA          2       1       9      10      11      12      13      14+
+             15      16
$--1---><--2---><--3---><--4---><--5---><--6---><--7---><--8---><--9---><--10-->
$$$$$$$$$$$$$$$$$$$$$$$$$$$$$$$$$$$ gravity $$$$$$$$$$$$$$$$$$$$$$$$$$$$$$$$$$$$
GRAV           3       0   1.0+0   0.0+0  -1.0+1   0.0+0
$--1---><--2---><--3---><--4---><--5---><--6---><--7---><--8---><--9---><--10-->
LOAD           1   1.0+0   1.0+0       3
GRID           9       0   0.0+0   0.0+0   0.0+0       0
GRID          10       0   5.0-1   0.0+0   0.0+0       0
GRID           3       0  -1.0+0   1.0+0   0.0+0       0
GRID           4       0  -2.0+0   1.0+0   0.0+0       0
GRID           5       0  -2.0+0   0.0+0   1.0+0       0
GRID           6       0  -1.0+0   0.0+0   1.0+0       0
GRID           7       0  -1.0+0   1.0+0   1.0+0       0
GRID           8       0  -2.0+0   1.0+0   1.0+0       0
GRID           1       0  -2.0+0   0.0+0   0.0+0       0
GRID           2       0  -1.0+0   0.0+0   0.0+0       0
GRID          11       0   5.0-1   5.0-1   0.0+0       0
GRID          12       0   0.0+0   5.0-1   0.0+0       0
GRID          13       0   0.0+0   0.0+0   5.0-1       0
GRID          14       0   5.0-1   0.0+0   5.0-1       0
GRID          15       0   5.0-1   5.0-1   5.0-1       0
GRID          16       0   0.0+0   5.0-1   5.0-1       0
ENDDATA 
