$ Generated by Mecway 33
$-----------------------EXECUTIVE CONTROL SECTION-----------------------
SOL 103
CEND
$-------------------------CASE CONTROL SECTION--------------------------
METHOD = 1
DISPLACEMENT = ALL
SPC = 1
MPC = 1
BEGIN BULK
$---------------------------BULK DATA SECTION---------------------------
GRID           1       0   0.0+0   0.0+0   0.0+0       0
GRID           2       0  1.25-1   5.0-1  1.25-1       0
GRID           3       0   0.0+0  8.75-1  1.25-1       0
GRID           4       0   0.0+0   1.0+0   0.0+0       0
GRID           5       0   0.0+0  3.75-1  1.25-1       0
GRID           6       0   0.0+0   7.5-1   0.0+0       0
GRID           7       0  1.25-1  8.75-1  1.25-1       0
GRID           8       0   0.0+0   7.5-1  1.25-1       0
GRID           9       0  1.25-1  3.75-1   0.0+0       0
GRID          10       0  1.25-1  8.75-1   0.0+0       0
GRID          11       0  1.25-1  3.75-1  1.25-1       0
GRID          12       0   0.0+0   5.0-1   0.0+0       0
GRID          13       0   0.0+0   1.0+0  1.25-1       0
GRID          14       0  1.25-1   7.5-1   0.0+0       0
GRID          15       0  1.25-1   0.0+0   0.0+0       0
GRID          16       0  1.25-1   1.0+0   0.0+0       0
GRID          17       0  1.25-1   2.5-1   0.0+0       0
GRID          18       0   0.0+0  1.25-1   0.0+0       0
GRID          19       0  1.25-1   1.0+0  1.25-1       0
GRID          20       0  1.25-1   7.5-1  1.25-1       0
GRID          21       0   0.0+0  6.25-1   0.0+0       0
GRID          22       0   0.0+0   2.5-1   0.0+0       0
GRID          23       0   0.0+0   0.0+0  1.25-1       0
GRID          24       0   0.0+0  6.25-1  1.25-1       0
GRID          25       0  1.25-1   5.0-1   0.0+0       0
GRID          26       0   0.0+0  3.75-1   0.0+0       0
GRID          27       0   0.0+0   2.5-1  1.25-1       0
GRID          28       0  1.25-1   0.0+0  1.25-1       0
GRID          29       0  1.25-1  6.25-1   0.0+0       0
GRID          30       0  1.25-1   2.5-1  1.25-1       0
GRID          31       0   0.0+0  1.25-1  1.25-1       0
GRID          32       0  1.25-1  1.25-1   0.0+0       0
GRID          33       0   0.0+0  8.75-1   0.0+0       0
GRID          34       0  1.25-1  1.25-1  1.25-1       0
GRID          35       0   0.0+0   5.0-1  1.25-1       0
GRID          36       0  1.25-1  6.25-1  1.25-1       0
GRID          37       0  6.25-2   5.0-1   0.0+0       0
GRID          38       0  1.25-1 5.625-1   0.0+0       0
GRID          39       0  6.25-2  6.25-1   0.0+0       0
GRID          40       0   0.0+0 5.625-1   0.0+0       0
GRID          41       0   0.0+0   5.0-1  6.25-2       0
GRID          42       0  1.25-1   5.0-1  6.25-2       0
GRID          43       0  1.25-1  6.25-1  6.25-2       0
GRID          44       0   0.0+0  6.25-1  6.25-2       0
GRID          45       0  6.25-2   5.0-1  1.25-1       0
GRID          46       0  1.25-1 5.625-1  1.25-1       0
GRID          47       0  6.25-2  6.25-1  1.25-1       0
GRID          48       0   0.0+0 5.625-1  1.25-1       0
GRID          49       0  6.25-2  3.75-1   0.0+0       0
GRID          50       0  1.25-1 4.375-1   0.0+0       0
GRID          51       0   0.0+0 4.375-1   0.0+0       0
GRID          52       0   0.0+0  3.75-1  6.25-2       0
GRID          53       0  1.25-1  3.75-1  6.25-2       0
GRID          54       0  6.25-2  3.75-1  1.25-1       0
GRID          55       0  1.25-1 4.375-1  1.25-1       0
GRID          56       0   0.0+0 4.375-1  1.25-1       0
GRID          57       0  6.25-2   2.5-1   0.0+0       0
GRID          58       0  1.25-1 3.125-1   0.0+0       0
GRID          59       0   0.0+0 3.125-1   0.0+0       0
GRID          60       0   0.0+0   2.5-1  6.25-2       0
GRID          61       0  1.25-1   2.5-1  6.25-2       0
GRID          62       0  6.25-2   2.5-1  1.25-1       0
GRID          63       0  1.25-1 3.125-1  1.25-1       0
GRID          64       0   0.0+0 3.125-1  1.25-1       0
GRID          65       0  1.25-1 6.875-1   0.0+0       0
GRID          66       0  6.25-2   7.5-1   0.0+0       0
GRID          67       0   0.0+0 6.875-1   0.0+0       0
GRID          68       0  1.25-1   7.5-1  6.25-2       0
GRID          69       0   0.0+0   7.5-1  6.25-2       0
GRID          70       0  1.25-1 6.875-1  1.25-1       0
GRID          71       0  6.25-2   7.5-1  1.25-1       0
GRID          72       0   0.0+0 6.875-1  1.25-1       0
GRID          73       0  6.25-2   0.0+0   0.0+0       0
GRID          74       0  1.25-1  6.25-2   0.0+0       0
GRID          75       0  6.25-2  1.25-1   0.0+0       0
GRID          76       0   0.0+0  6.25-2   0.0+0       0
GRID          77       0   0.0+0   0.0+0  6.25-2       0
GRID          78       0  1.25-1   0.0+0  6.25-2       0
GRID          79       0  1.25-1  1.25-1  6.25-2       0
GRID          80       0   0.0+0  1.25-1  6.25-2       0
GRID          81       0  6.25-2   0.0+0  1.25-1       0
GRID          82       0  1.25-1  6.25-2  1.25-1       0
GRID          83       0  6.25-2  1.25-1  1.25-1       0
GRID          84       0   0.0+0  6.25-2  1.25-1       0
GRID          85       0  1.25-1 8.125-1   0.0+0       0
GRID          86       0  6.25-2  8.75-1   0.0+0       0
GRID          87       0   0.0+0 8.125-1   0.0+0       0
GRID          88       0  1.25-1  8.75-1  6.25-2       0
GRID          89       0   0.0+0  8.75-1  6.25-2       0
GRID          90       0  1.25-1 8.125-1  1.25-1       0
GRID          91       0  6.25-2  8.75-1  1.25-1       0
GRID          92       0   0.0+0 8.125-1  1.25-1       0
GRID          93       0  1.25-1 9.375-1   0.0+0       0
GRID          94       0  6.25-2   1.0+0   0.0+0       0
GRID          95       0   0.0+0 9.375-1   0.0+0       0
GRID          96       0  1.25-1   1.0+0  6.25-2       0
GRID          97       0   0.0+0   1.0+0  6.25-2       0
GRID          98       0  1.25-1 9.375-1  1.25-1       0
GRID          99       0  6.25-2   1.0+0  1.25-1       0
GRID         100       0   0.0+0 9.375-1  1.25-1       0
GRID         101       0  1.25-1 1.875-1   0.0+0       0
GRID         102       0   0.0+0 1.875-1   0.0+0       0
GRID         103       0  1.25-1 1.875-1  1.25-1       0
GRID         104       0   0.0+0 1.875-1  1.25-1       0
PARAM    STR_CID      -2
$--1---><--2---><--3---><--4---><--5---><--6---><--7---><--8---><--9---><--10-->
$$$$$$$$$$$$$$$$$$$$$$$$$$$$$$$$$$$ Material $$$$$$$$$$$$$$$$$$$$$$$$$$$$$$$$$$$
MAT1*                  1          2.1+11 7.8358208955+10           3.4-1*
*                  7.8+3           0.0+0           0.0+0
$--1---><--2---><--3---><--4---><--5---><--6---><--7---><--8---><--9---><--10-->
SPC            1       4       1   0.0+0
SPC            1       4       3   0.0+0
SPC            1      13       1   0.0+0
SPC            1      13       3   0.0+0
SPC            1      16       1   0.0+0
SPC            1      16       3   0.0+0
SPC            1      19       1   0.0+0
SPC            1      19       3   0.0+0
SPC            1      94       1   0.0+0
SPC            1      94       3   0.0+0
SPC            1      96       1   0.0+0
SPC            1      96       3   0.0+0
SPC            1      97       1   0.0+0
SPC            1      97       3   0.0+0
SPC            1      99       1   0.0+0
SPC            1      99       3   0.0+0
MPC*                   1              81               1 5.20833333333-3*
*                      1               1-1.30208333333-3                *
*                                     73               1 5.20833333333-3*
*                     15               1-1.30208333333-3                *
*                                     78               1 5.20833333333-3*
*                     28               1-1.30208333333-3                *
*                                     23               1-1.30208333333-3*
*                     77               1 5.20833333333-3
MPC*                   1              81               2 5.20833333333-3*
*                      1               2-1.30208333333-3                *
*                                     73               2 5.20833333333-3*
*                     15               2-1.30208333333-3                *
*                                     78               2 5.20833333333-3*
*                     28               2-1.30208333333-3                *
*                                     23               2-1.30208333333-3*
*                     77               2 5.20833333333-3
MPC*                   1              81               3 5.20833333333-3*
*                      1               3-1.30208333333-3                *
*                                     73               3 5.20833333333-3*
*                     15               3-1.30208333333-3                *
*                                     78               3 5.20833333333-3*
*                     28               3-1.30208333333-3                *
*                                     23               3-1.30208333333-3*
*                     77               3 5.20833333333-3
$--1---><--2---><--3---><--4---><--5---><--6---><--7---><--8---><--9---><--10-->
$$$$$$$$$$$$$$$$$$$$$$$$$$$$$$$$$$$ Default $$$$$$$$$$$$$$$$$$$$$$$$$$$$$$$$$$$$
PSOLID         1       1       0       3               1
CHEXA          1       1      12      25      29      21      35       2+
+             36      24      37      38      39      40      41      42+
+             43      44      45      46      47      48
CHEXA          2       1      26       9      25      12       5      11+
+              2      35      49      50      37      51      52      53+
+             42      41      54      55      45      56
CHEXA          3       1      22      17       9      26      27      30+
+             11       5      57      58      49      59      60      61+
+             53      52      62      63      54      64
CHEXA          4       1      21      29      14       6      24      36+
+             20       8      39      65      66      67      44      43+
+             68      69      47      70      71      72
CHEXA          5       1       1      15      32      18      23      28+
+             34      31      73      74      75      76      77      78+
+             79      80      81      82      83      84
CHEXA          6       1       6      14      10      33       8      20+
+              7       3      66      85      86      87      69      68+
+             88      89      71      90      91      92
CHEXA          7       1      33      10      16       4       3       7+
+             19      13      86      93      94      95      89      88+
+             96      97      91      98      99     100
CHEXA          8       1      18      32      17      22      31      34+
+             30      27      75     101      57     102      80      79+
+             61      60      83     103      62     104
$--1---><--2---><--3---><--4---><--5---><--6---><--7---><--8---><--9---><--10-->
EIGRL          1                       4       0                    MASS
ENDDATA 
