$ Generated by Mecway 33
$-----------------------EXECUTIVE CONTROL SECTION-----------------------
SOL 101
CEND
$-------------------------CASE CONTROL SECTION--------------------------
DISPLACEMENT = ALL
SPC = 1
MPC = 1
BEGIN BULK
$---------------------------BULK DATA SECTION---------------------------
GRID           1       0  -5.0-1   0.0+0   0.0+0       0
GRID           2       0   5.0-1   0.0+0   0.0+0       0
GRID           3       0   1.5+0   0.0+0   0.0+0       0
GRID           4       0   1.0+0   0.0+0   0.0+0       0
GRID           5       0  -5.0-1   0.0+0   1.0+0       0
GRID           6       0   5.0-1   0.0+0   1.0+0       0
GRID           7       0   1.5+0   0.0+0   1.0+0       0
GRID           8       0   1.0+0   0.0+0   1.0+0       0
GRID           9       0  -5.0-1   0.0+0   2.0+0       0
GRID          10       0   5.0-1   0.0+0   2.0+0       0
GRID          11       0   1.5+0   0.0+0   2.0+0       0
GRID          12       0   1.0+0   0.0+0   2.0+0       0
GRID          13       0  -5.0-1   0.0+0   3.0+0       0
GRID          14       0   5.0-1   0.0+0   3.0+0       0
GRID          15       0   1.5+0   0.0+0   3.0+0       0
GRID          16       0   1.0+0   0.0+0   3.0+0       0
GRID          17       0  -5.0-1   0.0+0   4.0+0       0
GRID          18       0   5.0-1   0.0+0   4.0+0       0
GRID          19       0   1.5+0   0.0+0   4.0+0       0
GRID          20       0   1.0+0   0.0+0   4.0+0       0
GRID          21       0  -5.0-1   0.0+0   5.0+0       0
GRID          22       0   5.0-1   0.0+0   5.0+0       0
GRID          23       0   1.5+0   0.0+0   5.0+0       0
GRID          24       0   1.0+0   0.0+0   5.0+0       0
GRID          25       0  -5.0-1   0.0+0   6.0+0       0
GRID          26       0   5.0-1   0.0+0   6.0+0       0
GRID          27       0   1.5+0   0.0+0   6.0+0       0
GRID          28       0   1.0+0   0.0+0   6.0+0       0
GRID          29       0  -5.0-1   0.0+0   7.0+0       0
GRID          30       0   5.0-1   0.0+0   7.0+0       0
GRID          31       0   1.5+0   0.0+0   7.0+0       0
GRID          32       0   1.0+0   0.0+0   7.0+0       0
GRID          33       0  -5.0-1   0.0+0   8.0+0       0
GRID          34       0   5.0-1   0.0+0   8.0+0       0
GRID          35       0   1.5+0   0.0+0   8.0+0       0
GRID          36       0   1.0+0   0.0+0   8.0+0       0
SPOINT        37
SPOINT        38
SPOINT        39
SPOINT        40
SPOINT        41
SPOINT        42
SPOINT        43
SPOINT        44
SPOINT        45
PARAM    STR_CID      -2
$--1---><--2---><--3---><--4---><--5---><--6---><--7---><--8---><--9---><--10-->
$$$$$$$$$$$$$$$$$$$$$$$$$$$$$$$$$$$ Material $$$$$$$$$$$$$$$$$$$$$$$$$$$$$$$$$$$
MAT1           1   1.0+4   5.0+3   0.0+0   0.0+0   0.0+0   0.0+0
$--1---><--2---><--3---><--4---><--5---><--6---><--7---><--8---><--9---><--10-->
SPC            1       1       1   0.0+0
SPC            1       1       2   0.0+0
SPC            1       1       3   0.0+0
SPC*                   1               1               4 2.7755575616-19*
*       
SPC*                   1               1               5  -3.60822483-18*
*       
SPC            1       1       6   3.0-2
SPC            1       3       1   0.0+0
SPC            1       3       3   0.0+0
SPC            1       4       2   0.0+0
SPC            1       4       4   0.0+0
SPC            1       4       5   0.0+0
SPC            1       5       1   0.0+0
SPC            1       5       2   0.0+0
SPC            1       5       3   0.0+0
SPC*                   1               5               4 2.7755575616-19*
*       
SPC*                   1               5               5  -3.60822483-18*
*       
SPC            1       5       6   3.0-2
SPC            1       7       1   0.0+0
SPC            1       7       3   0.0+0
SPC            1       8       2   0.0+0
SPC            1       8       4   0.0+0
SPC            1       8       5   0.0+0
SPC            1       9       1   0.0+0
SPC            1       9       2   0.0+0
SPC            1       9       3   0.0+0
SPC*                   1               9               4 2.7755575616-19*
*       
SPC*                   1               9               5  -3.60822483-18*
*       
SPC            1       9       6   3.0-2
SPC            1      11       1   0.0+0
SPC            1      11       3   0.0+0
SPC            1      12       2   0.0+0
SPC            1      12       4   0.0+0
SPC            1      12       5   0.0+0
SPC            1      13       1   0.0+0
SPC            1      13       2   0.0+0
SPC            1      13       3   0.0+0
SPC*                   1              13               4 2.7755575616-19*
*       
SPC*                   1              13               5  -3.60822483-18*
*       
SPC            1      13       6   3.0-2
SPC            1      15       1   0.0+0
SPC            1      15       3   0.0+0
SPC            1      16       2   0.0+0
SPC            1      16       4   0.0+0
SPC            1      16       5   0.0+0
SPC            1      17       1   0.0+0
SPC            1      17       2   0.0+0
SPC            1      17       3   0.0+0
SPC*                   1              17               4 2.7755575616-19*
*       
SPC*                   1              17               5  -3.60822483-18*
*       
SPC            1      17       6   3.0-2
SPC            1      19       1   0.0+0
SPC            1      19       3   0.0+0
SPC            1      19       4   0.0+0
SPC            1      19       5   0.0+0
SPC            1      20       2   0.0+0
SPC            1      21       1   0.0+0
SPC            1      21       2   0.0+0
SPC            1      21       3   0.0+0
SPC*                   1              21               4 2.7755575616-19*
*       
SPC*                   1              21               5  -3.60822483-18*
*       
SPC            1      21       6   3.0-2
SPC            1      23       1   0.0+0
SPC            1      23       3   0.0+0
SPC            1      23       4   0.0+0
SPC            1      23       5   0.0+0
SPC            1      24       2   0.0+0
SPC            1      25       1   0.0+0
SPC            1      25       2   0.0+0
SPC            1      25       3   0.0+0
SPC*                   1              25               4 2.7755575616-19*
*       
SPC*                   1              25               5  -3.60822483-18*
*       
SPC            1      25       6   3.0-2
SPC            1      27       1   0.0+0
SPC            1      27       3   0.0+0
SPC            1      27       4   0.0+0
SPC            1      27       5   0.0+0
SPC            1      28       2   0.0+0
SPC            1      29       1   0.0+0
SPC            1      29       2   0.0+0
SPC            1      29       3   0.0+0
SPC*                   1              29               4 2.7755575616-19*
*       
SPC*                   1              29               5  -3.60822483-18*
*       
SPC            1      29       6   3.0-2
SPC            1      31       1   0.0+0
SPC            1      31       3   0.0+0
SPC            1      31       4   0.0+0
SPC            1      31       5   0.0+0
SPC            1      32       2   0.0+0
SPC            1      33       1   0.0+0
SPC            1      33       2   0.0+0
SPC            1      33       3   0.0+0
SPC*                   1              33               4 2.7755575616-19*
*       
SPC*                   1              33               5  -3.60822483-18*
*       
SPC            1      33       6   3.0-2
SPC            1      35       1   0.0+0
SPC            1      35       3   0.0+0
SPC            1      35       4   0.0+0
SPC            1      35       5   0.0+0
SPC            1      36       2   0.0+0
SPC            1      37       1   1.0-2
MPC            1       4       6   1.0+0       2       6  -1.0+0        +
+                     37       1  -1.0+0
SPC            1      38       1   1.0-2
MPC            1       8       6   1.0+0       6       6  -1.0+0        +
+                     38       1  -1.0+0
SPC            1      39       1   1.0-2
MPC            1      12       6   1.0+0      10       6  -1.0+0        +
+                     39       1  -1.0+0
SPC            1      40       1   1.0-2
MPC            1      16       6   1.0+0      14       6  -1.0+0        +
+                     40       1  -1.0+0
SPC            1      41       1   1.0-2
MPC            1      20       6   1.0+0      18       6  -1.0+0        +
+                     41       1  -1.0+0
SPC            1      42       1   1.0-2
MPC            1      24       6   1.0+0      22       6  -1.0+0        +
+                     42       1  -1.0+0
SPC            1      43       1   1.0-2
MPC            1      28       6   1.0+0      26       6  -1.0+0        +
+                     43       1  -1.0+0
SPC            1      44       1   1.0-2
MPC            1      32       6   1.0+0      30       6  -1.0+0        +
+                     44       1  -1.0+0
SPC            1      45       1   1.0-2
MPC            1      36       6   1.0+0      34       6  -1.0+0        +
+                     45       1  -1.0+0
$--1---><--2---><--3---><--4---><--5---><--6---><--7---><--8---><--9---><--10-->
$$$$$$$$$$$$$$$$$$$$$$$$$$$$$$$$$$$ Default $$$$$$$$$$$$$$$$$$$$$$$$$$$$$$$$$$$$
PBAR*                  1               1           8.0-3 6.66666666667-6*
*        4.26666666667-6 8.75866794667-6           0.0+0
CBAR           1       1       1       2   0.0+0   1.0+0   0.0+0        
CBAR           2       1       4       3   0.0+0   1.0+0   0.0+0        
CBAR           3       1       5       6   0.0+0   1.0+0   0.0+0        
CBAR           4       1       8       7   0.0+0   1.0+0   0.0+0        
CBAR           5       1       9      10   0.0+0   1.0+0   0.0+0        
CBAR           6       1      12      11   0.0+0   1.0+0   0.0+0        
CBAR           7       1      13      14   0.0+0   1.0+0   0.0+0        
CBAR           8       1      16      15   0.0+0   1.0+0   0.0+0        
CBAR           9       1      17      18   0.0+0   1.0+0   0.0+0        
CBAR          10       1      20      19   0.0+0   1.0+0   0.0+0        
CBAR          11       1      21      22   0.0+0   1.0+0   0.0+0        
CBAR          12       1      24      23   0.0+0   1.0+0   0.0+0        
CBAR          13       1      25      26   0.0+0   1.0+0   0.0+0        
CBAR          14       1      28      27   0.0+0   1.0+0   0.0+0        
CBAR          15       1      29      30   0.0+0   1.0+0   0.0+0        
CBAR          16       1      32      31   0.0+0   1.0+0   0.0+0        
CBAR          17       1      33      34   0.0+0   1.0+0   0.0+0        
CBAR          18       1      36      35   0.0+0   1.0+0   0.0+0        
$--1---><--2---><--3---><--4---><--5---><--6---><--7---><--8---><--9---><--10-->
ENDDATA 
