$ Generated by Mecway 33
$-----------------------EXECUTIVE CONTROL SECTION-----------------------
SOL 101
CEND
$-------------------------CASE CONTROL SECTION--------------------------
DISPLACEMENT = ALL
SPCFORCES = ALL
MPCFORCES = ALL
STRESS(CORNER) = ALL
SPC = 1
MPC = 1
BEGIN BULK
$---------------------------BULK DATA SECTION---------------------------
GRID           1       0   0.0+0   0.0+0   0.0+0       0
GRID           2       0   1.0+0   0.0+0   0.0+0       0
GRID           3       0   1.0+0   2.0-1   0.0+0       0
GRID           4       0   0.0+0   2.0-1   0.0+0       0
GRID           5       0   0.0+0   0.0+0   1.0+0       0
GRID           6       0   1.0+0   0.0+0   1.0+0       0
GRID           7       0   1.0+0   2.0-1   1.0+0       0
GRID           8       0   0.0+0   2.0-1   1.0+0       0
GRID           9       0   5.0-1   0.0+0   0.0+0       0
GRID          10       0   5.0-1   0.0+0   1.0+0       0
GRID          11       0   5.0-1   2.0-1   0.0+0       0
GRID          12       0   5.0-1   2.0-1   1.0+0       0
GRID          13       0   2.5-1   0.0+0   0.0+0       0
GRID          14       0   2.5-1   0.0+0   1.0+0       0
GRID          15       0   2.5-1   2.0-1   0.0+0       0
GRID          16       0   2.5-1   2.0-1   1.0+0       0
GRID          17       0  1.25-1   0.0+0   0.0+0       0
GRID          18       0  1.25-1   0.0+0   1.0+0       0
GRID          19       0  1.25-1   2.0-1   0.0+0       0
GRID          20       0  1.25-1   2.0-1   1.0+0       0
GRID          21       0  6.25-2   0.0+0   0.0+0       0
GRID          22       0  6.25-2   0.0+0   1.0+0       0
GRID          23       0  6.25-2   2.0-1   0.0+0       0
GRID          24       0  6.25-2   2.0-1   1.0+0       0
PARAM    STR_CID      -2
$--1---><--2---><--3---><--4---><--5---><--6---><--7---><--8---><--9---><--10-->
$$$$$$$$$$$$$$$$$$$$$$$$$$$$$$$$$$$$ Steel $$$$$$$$$$$$$$$$$$$$$$$$$$$$$$$$$$$$$
MAT1*                  1          2.0+11 7.4074074074+10           3.5-1*
*                  7.8+3           0.0+0           0.0+0
$--1---><--2---><--3---><--4---><--5---><--6---><--7---><--8---><--9---><--10-->
SPC            1       1       1   1.0-1
SPC            1       1       3   0.0+0
SPC            1       2       1   1.0-1
SPC            1       5       1   1.0-1
SPC            1       6       1   1.0-1
SPC            1       9       1   1.0-1
SPC            1      10       1   1.0-1
SPC            1      13       1   1.0-1
SPC            1      14       1   1.0-1
SPC            1      17       1   1.0-1
SPC            1      18       1   1.0-1
SPC            1      21       1   1.0-1
SPC            1      22       1   1.0-1
MPC*                   1              11               1         1.875-1*
*                     15               1         9.375-2                *
*                                     16               1         9.375-2*
*                     12               1         1.875-1                *
*                                     19               1        4.6875-2*
*                     20               1        4.6875-2                *
*                                      3               1          1.25-1*
*                      7               1          1.25-1                *
*                                     23               1         3.125-2*
*                     24               1         3.125-2                *
*                                      4               1        1.5625-2*
*                      8               1        1.5625-2
MPC*                   1              11               2         1.875-1*
*                     15               2         9.375-2                *
*                                     16               2         9.375-2*
*                     12               2         1.875-1                *
*                                     19               2        4.6875-2*
*                     20               2        4.6875-2                *
*                                      3               2          1.25-1*
*                      7               2          1.25-1                *
*                                     23               2         3.125-2*
*                     24               2         3.125-2                *
*                                      4               2        1.5625-2*
*                      8               2        1.5625-2
MPC*                   1              11               3         1.875-1*
*                     15               3         9.375-2                *
*                                     16               3         9.375-2*
*                     12               3         1.875-1                *
*                                     19               3        4.6875-2*
*                     20               3        4.6875-2                *
*                                      3               3          1.25-1*
*                      7               3          1.25-1                *
*                                     23               3         3.125-2*
*                     24               3         3.125-2                *
*                                      4               3        1.5625-2*
*                      8               3        1.5625-2
$--1---><--2---><--3---><--4---><--5---><--6---><--7---><--8---><--9---><--10-->
$$$$$$$$$$$$$$$$$$$$$$$$$$$$$$$$$$$ Default $$$$$$$$$$$$$$$$$$$$$$$$$$$$$$$$$$$$
PSOLID         1       1       0       2               1
CHEXA          1       1       9       2       3      11      10       6+
+              7      12
CHEXA          2       1      13       9      11      15      14      10+
+             12      16
CHEXA          3       1      17      13      15      19      18      14+
+             16      20
CHEXA          4       1      21      17      19      23      22      18+
+             20      24
CHEXA          5       1       1      21      23       4       5      22+
+             24       8
$--1---><--2---><--3---><--4---><--5---><--6---><--7---><--8---><--9---><--10-->
ENDDATA 
