$ Generated by Mecway 33
$-----------------------EXECUTIVE CONTROL SECTION-----------------------
SOL 103
CEND
$-------------------------CASE CONTROL SECTION--------------------------
METHOD = 1
DISPLACEMENT = ALL
SPC = 1
MPC = 1
BEGIN BULK
$---------------------------BULK DATA SECTION---------------------------
GRID           1       0  8.75-1   1.0+0   0.0+0       0
GRID           2       0   1.0+0   0.0+0   0.0+0       0
GRID           3       0   1.0+0   1.0+0   0.0+0       0
GRID           4       0   7.5-1  8.75-1   0.0+0       0
GRID           5       0  8.75-1  8.75-1   0.0+0       0
GRID           6       0   1.0+0   5.0-1   0.0+0       0
GRID           7       0  6.25-1   2.5-1   0.0+0       0
GRID           8       0  6.25-1  3.75-1   0.0+0       0
GRID           9       0  8.75-1   0.0+0   0.0+0       0
GRID          10       0   1.0+0  1.25-1   0.0+0       0
GRID          11       0   5.0-1   7.5-1   0.0+0       0
GRID          12       0   5.0-1  3.75-1   0.0+0       0
GRID          13       0  8.75-1   2.5-1   0.0+0       0
GRID          14       0  8.75-1  1.25-1   0.0+0       0
GRID          15       0   1.0+0  3.75-1   0.0+0       0
GRID          16       0   5.0-1   2.5-1   0.0+0       0
GRID          17       0   7.5-1  3.75-1   0.0+0       0
GRID          18       0  8.75-1  3.75-1   0.0+0       0
GRID          19       0   7.5-1   0.0+0   0.0+0       0
GRID          20       0   1.0+0   2.5-1   0.0+0       0
GRID          21       0   7.5-1   5.0-1   0.0+0       0
GRID          22       0   7.5-1   2.5-1   0.0+0       0
GRID          23       0   1.0+0   7.5-1   0.0+0       0
GRID          24       0   7.5-1   1.0+0   0.0+0       0
GRID          25       0   7.5-1   7.5-1   0.0+0       0
GRID          26       0   7.5-1  1.25-1   0.0+0       0
GRID          27       0   7.5-1  6.25-1   0.0+0       0
GRID          28       0  6.25-1   7.5-1   0.0+0       0
GRID          29       0   5.0-1  6.25-1   0.0+0       0
GRID          30       0  6.25-1  6.25-1   0.0+0       0
GRID          31       0  8.75-1   5.0-1   0.0+0       0
GRID          32       0   1.0+0  6.25-1   0.0+0       0
GRID          33       0  8.75-1   7.5-1   0.0+0       0
GRID          34       0  8.75-1  6.25-1   0.0+0       0
GRID          35       0   1.0+0  8.75-1   0.0+0       0
PARAM    STR_CID      -2
$--1---><--2---><--3---><--4---><--5---><--6---><--7---><--8---><--9---><--10-->
$$$$$$$$$$$$$$$$$$$$$$$$$$$$$$$$$$$ Material $$$$$$$$$$$$$$$$$$$$$$$$$$$$$$$$$$$
MAT1*                  1           1.0+9 3.57142857143+8           4.0-1*
*                  7.8+3           0.0+0           0.0+0
$--1---><--2---><--3---><--4---><--5---><--6---><--7---><--8---><--9---><--10-->
$$$$$$$$$$$$$$$$$$$$$$$$$$$$$$$$$ Material(2) $$$$$$$$$$$$$$$$$$$$$$$$$$$$$$$$$$
MAT1*                  2          2.0+11 7.1428571429+10           4.0-1*
*                  1.0+0           0.0+0           0.0+0
$--1---><--2---><--3---><--4---><--5---><--6---><--7---><--8---><--9---><--10-->
SPC            1       1       3   0.0+0
SPC            1       1       4   0.0+0
SPC            1       1       5   0.0+0
SPC            1       2       3   0.0+0
SPC            1       2       4   0.0+0
SPC            1       2       5   0.0+0
SPC            1       3       3   0.0+0
SPC            1       3       4   0.0+0
SPC            1       3       5   0.0+0
SPC            1       4       3   0.0+0
SPC            1       4       4   0.0+0
SPC            1       4       5   0.0+0
SPC            1       5       3   0.0+0
SPC            1       5       4   0.0+0
SPC            1       5       5   0.0+0
SPC            1       6       3   0.0+0
SPC            1       6       4   0.0+0
SPC            1       6       5   0.0+0
SPC            1       7       2   0.0+0
SPC            1       7       3   0.0+0
SPC            1       7       4   0.0+0
SPC            1       7       5   0.0+0
SPC            1       8       2   0.0+0
SPC            1       8       3   0.0+0
SPC            1       8       4   0.0+0
SPC            1       8       5   0.0+0
SPC            1       9       3   0.0+0
SPC            1       9       4   0.0+0
SPC            1       9       5   0.0+0
SPC            1      10       3   0.0+0
SPC            1      10       4   0.0+0
SPC            1      10       5   0.0+0
SPC            1      11       3   0.0+0
SPC            1      11       4   0.0+0
SPC            1      11       5   0.0+0
SPC            1      12       3   0.0+0
SPC            1      12       4   0.0+0
SPC            1      12       5   0.0+0
SPC            1      13       3   0.0+0
SPC            1      13       4   0.0+0
SPC            1      13       5   0.0+0
SPC            1      14       3   0.0+0
SPC            1      14       4   0.0+0
SPC            1      14       5   0.0+0
SPC            1      15       3   0.0+0
SPC            1      15       4   0.0+0
SPC            1      15       5   0.0+0
SPC            1      16       3   0.0+0
SPC            1      16       4   0.0+0
SPC            1      16       5   0.0+0
SPC            1      17       3   0.0+0
SPC            1      17       4   0.0+0
SPC            1      17       5   0.0+0
SPC            1      18       3   0.0+0
SPC            1      18       4   0.0+0
SPC            1      18       5   0.0+0
SPC            1      19       3   0.0+0
SPC            1      19       4   0.0+0
SPC            1      19       5   0.0+0
SPC            1      20       3   0.0+0
SPC            1      20       4   0.0+0
SPC            1      20       5   0.0+0
SPC            1      21       3   0.0+0
SPC            1      21       4   0.0+0
SPC            1      21       5   0.0+0
SPC            1      22       3   0.0+0
SPC            1      22       4   0.0+0
SPC            1      22       5   0.0+0
SPC            1      23       3   0.0+0
SPC            1      23       4   0.0+0
SPC            1      23       5   0.0+0
SPC            1      24       3   0.0+0
SPC            1      24       4   0.0+0
SPC            1      24       5   0.0+0
SPC            1      25       3   0.0+0
SPC            1      25       4   0.0+0
SPC            1      25       5   0.0+0
SPC            1      26       3   0.0+0
SPC            1      26       4   0.0+0
SPC            1      26       5   0.0+0
SPC            1      27       3   0.0+0
SPC            1      27       4   0.0+0
SPC            1      27       5   0.0+0
SPC            1      28       2   0.0+0
SPC            1      28       3   0.0+0
SPC            1      28       4   0.0+0
SPC            1      28       5   0.0+0
SPC            1      29       3   0.0+0
SPC            1      29       4   0.0+0
SPC            1      29       5   0.0+0
SPC            1      30       2   0.0+0
SPC            1      30       3   0.0+0
SPC            1      30       4   0.0+0
SPC            1      30       5   0.0+0
SPC            1      31       3   0.0+0
SPC            1      31       4   0.0+0
SPC            1      31       5   0.0+0
SPC            1      32       3   0.0+0
SPC            1      32       4   0.0+0
SPC            1      32       5   0.0+0
SPC            1      33       3   0.0+0
SPC            1      33       4   0.0+0
SPC            1      33       5   0.0+0
SPC            1      34       3   0.0+0
SPC            1      34       4   0.0+0
SPC            1      34       5   0.0+0
SPC            1      35       3   0.0+0
SPC            1      35       4   0.0+0
SPC            1      35       5   0.0+0
MPC            1      28       1  -1.0+0      24       1   2.5-1        +
+                      4       1   2.5-1      25       1   2.5-1        +
+                     27       1   2.5-1
MPC            1      30       1  -1.0+0      25       1   2.5-1        +
+                     27       1   2.5-1      21       1   2.5-1        +
+                     17       1   2.5-1
MPC            1       8       1  -1.0+0      27       1   2.5-1        +
+                     21       1   2.5-1      17       1   2.5-1        +
+                     22       1   2.5-1
MPC            1       7       1  -1.0+0      17       1   2.5-1        +
+                     22       1   2.5-1      26       1   2.5-1        +
+                     19       1   2.5-1
$--1---><--2---><--3---><--4---><--5---><--6---><--7---><--8---><--9---><--10-->
$$$$$$$$$$$$$$$$$$$$$$$$$$$$$$$$$$$ Default $$$$$$$$$$$$$$$$$$$$$$$$$$$$$$$$$$$$
PSHELL         1       1   1.0-1       1               1           0.0+0
CQUAD4         1       1       4       5       1      24   0.0+0   0.0+0
CQUAD4         3       1      21      31      34      27   0.0+0   0.0+0
CQUAD4         4       1      31       6      32      34   0.0+0   0.0+0
CQUAD4         5       1      19       9      14      26   0.0+0   0.0+0
CQUAD4         6       1       9       2      10      14   0.0+0   0.0+0
CQUAD4         7       1      14      10      20      13   0.0+0   0.0+0
CQUAD4         8       1      26      14      13      22   0.0+0   0.0+0
CQUAD4         9       1      22      13      18      17   0.0+0   0.0+0
CQUAD4        10       1      13      20      15      18   0.0+0   0.0+0
CQUAD4        11       1      18      15       6      31   0.0+0   0.0+0
CQUAD4        12       1      17      18      31      21   0.0+0   0.0+0
CQUAD4        14       1      34      32      23      33   0.0+0   0.0+0
CQUAD4        15       1      27      34      33      25   0.0+0   0.0+0
CQUAD4        16       1      25      33       5       4   0.0+0   0.0+0
CQUAD4        17       1      33      23      35       5   0.0+0   0.0+0
CQUAD4        18       1       5      35       3       1   0.0+0   0.0+0
$--1---><--2---><--3---><--4---><--5---><--6---><--7---><--8---><--9---><--10-->
$$$$$$$$$$$$$$$$$$$$$$$$$$$$$$$$$$ Component $$$$$$$$$$$$$$$$$$$$$$$$$$$$$$$$$$$
PSHELL         2       2   1.0-1       2               2           0.0+0
CQUAD4         2       2      29      30      28      11   0.0+0   0.0+0
CQUAD4        13       2      16       7       8      12   0.0+0   0.0+0
$--1---><--2---><--3---><--4---><--5---><--6---><--7---><--8---><--9---><--10-->
EIGRL          1                      10       0                    MASS
ENDDATA 
