$ Generated by Mecway 33
$-----------------------EXECUTIVE CONTROL SECTION-----------------------
SOL 101
CEND
$-------------------------CASE CONTROL SECTION--------------------------
DISPLACEMENT = ALL
SPCFORCES = ALL
MPCFORCES = ALL
STRESS(CORNER) = ALL
STRAIN(CORNER) = ALL
SPC = 1
LOAD = 1
BEGIN BULK
$---------------------------BULK DATA SECTION---------------------------
GRID           1       0   0.0+0   0.0+0   0.0+0       0
GRID           2       0   5.0-2   7.5-2   0.0+0       0
GRID           3       0   7.5-2   0.0+0   0.0+0       0
GRID           4       0   0.0+0   0.0+0   7.5-2       0
GRID           5       0   7.5-2   7.5-2   5.0-2       0
GRID           6       0   2.5-2   7.5-2   0.0+0       0
GRID           7       0   5.0-2   0.0+0   7.5-2       0
GRID           8       0   2.5-2   0.0+0   7.5-2       0
GRID           9       0   5.0-2   0.0+0   0.0+0       0
GRID          10       0   7.5-2   5.0-2   7.5-2       0
GRID*                 11               0 4.90394175053-2 2.86021947861-2*
*                  7.5-2               0
GRID          12       0   0.0+0   5.0-2   0.0+0       0
GRID          13       0   7.5-2   5.0-2   0.0+0       0
GRID          14       0   7.5-2   0.0+0   5.0-2       0
GRID          15       0   0.0+0   2.5-2   7.5-2       0
GRID          16       0   7.5-2   7.5-2   2.5-2       0
GRID          17       0   0.0+0   0.0+0   5.0-2       0
GRID          18       0   7.5-2   2.5-2   7.5-2       0
GRID*                 19               0 7.49999955297-2 4.63978171349-2*
*        5.76846790314-2               0
GRID*                 20               0 2.49999985099-2 2.06773728132-2*
*                  7.5-2               0
GRID          21       0   5.0-2   0.0+0   5.0-2       0
GRID          22       0   2.5-2   7.5-2   2.5-2       0
GRID          23       0   7.5-2   7.5-2   7.5-2       0
GRID*                 24               0-4.47034835815-9 4.63978171349-2*
*        5.76846790314-2               0
GRID*                 25               0 4.32758927345-2 5.69642424583-2*
*       -8.9406881898-10               0
GRID          26       0   0.0+0   7.5-2   0.0+0       0
GRID*                 27               0 4.32758882642-2 5.33620595932-2*
*        5.76846781373-2               0
GRID*                 28               0 1.87561869621-2 4.30357784033-2*
*        5.76846718788-2               0
GRID          29       0   5.0-2   7.5-2   5.0-2       0
GRID          30       0   7.5-2   0.0+0   2.5-2       0
GRID          31       0   0.0+0   7.5-2   5.0-2       0
GRID          32       0   0.0+0   7.5-2   2.5-2       0
GRID*                 33               0 7.49999910593-2 5.50430834293-2*
*        3.17240962386-2               0
GRID          34       0   7.5-2   2.5-2   0.0+0       0
GRID*                 35               0           7.5-2 1.94766432047-2*
*                  5.0-2               0
GRID          36       0   0.0+0   5.0-2   7.5-2       0
GRID*                 37               0 4.32758927345-2 5.69642424583-2*
*        7.49999991059-2               0
GRID          38       0   5.0-2   7.5-2   2.5-2       0
GRID          39       0   7.5-2   7.5-2   0.0+0       1
GRID*                 40               0 1.87561914325-2 4.66379612684-2*
*        7.49999928474-2               0
GRID          41       0   5.0-2   7.5-2   7.5-2       0
GRID          42       0   7.5-2   0.0+0   7.5-2       0
GRID          43       0   0.0+0   7.5-2   7.5-2       0
GRID          44       0   2.5-2   7.5-2   5.0-2       0
GRID          45       0   7.5-2   2.5-2   2.5-2       0
GRID          46       0   2.5-2   7.5-2   7.5-2       0
GRID          47       0   2.5-2   0.0+0   0.0+0       0
GRID*                 48               0 4.90394175053-2 2.86021947861-2*
*                  0.0+0               0
GRID*                 49               0 1.87561914325-2 4.66379612684-2*
*       -7.15255126238-9               0
GRID          50       0   0.0+0   2.5-2   0.0+0       0
GRID          51       0   2.5-2   0.0+0   5.0-2       0
GRID*                 52               0 4.90394175053-2 2.30788379908-2*
*                  5.0-2               0
GRID*                 53               0           0.0+0 1.94766432047-2*
*                  5.0-2               0
GRID          54       0   0.0+0   0.0+0   2.5-2       0
GRID          55       0   5.0-2   0.0+0   2.5-2       0
GRID*                 56               0 4.32758837938-2 6.20073258877-2*
*        3.17240953445-2               0
GRID*                 57               0-8.94069671631-9 5.50430834293-2*
*        3.17240962386-2               0
GRID          58       0   2.5-2   0.0+0   2.5-2       0
GRID*                 59               0 4.90394175053-2 2.86021947861-2*
*                  2.5-2               0
GRID*                 60               0 1.87561824918-2 5.16810446978-2*
*        3.17240890861-2               0
GRID          61       0   0.0+0   2.5-2   2.5-2       0
GRID*                 62               0 2.49999985099-2 2.06773728132-2*
*                  0.0+0               0
GRID*                 63               0 2.49999985099-2 1.51540160179-2*
*                  5.0-2               0
GRID*                 64               0 2.49999985099-2 2.06773728132-2*
*                  2.5-2               0
GRID          65       0   2.0-1   0.0+0   0.0+0       0
GRID          66       0   2.5-1   7.5-2   0.0+0       0
GRID          67       0  2.75-1   0.0+0   0.0+0       0
GRID          68       0   2.0-1   0.0+0   7.5-2       0
GRID          69       0  2.75-1   7.5-2   5.0-2       0
GRID          70       0  2.25-1   7.5-2   0.0+0       0
GRID          71       0   2.5-1   0.0+0   7.5-2       0
GRID          72       0  2.25-1   0.0+0   7.5-2       0
GRID          73       0   2.5-1   0.0+0   0.0+0       0
GRID          74       0  2.75-1   5.0-2   7.5-2       0
GRID*                 75               0 2.49039417505-1 2.86021947861-2*
*                  7.5-2               0
GRID          76       0   2.0-1   5.0-2   0.0+0       0
GRID          77       0  2.75-1   5.0-2   0.0+0       0
GRID          78       0  2.75-1   0.0+0   5.0-2       0
GRID          79       0   2.0-1   2.5-2   7.5-2       0
GRID          80       0  2.75-1   7.5-2   2.5-2       0
GRID          81       0   2.0-1   0.0+0   5.0-2       0
GRID          82       0  2.75-1   2.5-2   7.5-2       0
GRID*                 83               0  2.7499999553-1 4.63978171349-2*
*        5.76846790314-2               0
GRID*                 84               0  2.2499999851-1 2.06773728132-2*
*                  7.5-2               0
GRID          85       0   2.5-1   0.0+0   5.0-2       0
GRID          86       0  2.25-1   7.5-2   2.5-2       0
GRID          87       0  2.75-1   7.5-2   7.5-2       0
GRID*                 88               0  1.9999999553-1 4.63978171349-2*
*        5.76846790314-2               0
GRID*                 89               0 2.43275892735-1 5.69642424583-2*
*       -8.9406881898-10               0
GRID          90       0   2.0-1   7.5-2   0.0+0       0
GRID*                 91               0 2.43275888264-1 5.33620595932-2*
*        5.76846781373-2               0
GRID*                 92               0 2.18756186962-1 4.30357784033-2*
*        5.76846718788-2               0
GRID          93       0   2.5-1   7.5-2   5.0-2       0
GRID          94       0  2.75-1   0.0+0   2.5-2       0
GRID          95       0   2.0-1   7.5-2   5.0-2       0
GRID          96       0   2.0-1   7.5-2   2.5-2       0
GRID*                 97               0 2.74999991059-1 5.50430834293-2*
*        3.17240962386-2               0
GRID          98       0  2.75-1   2.5-2   0.0+0       0
GRID*                 99               0          2.75-1 1.94766432047-2*
*                  5.0-2               0
GRID         100       0   2.0-1   5.0-2   7.5-2       0
GRID*                101               0 2.43275892735-1 5.69642424583-2*
*        7.49999991059-2               0
GRID         102       0   2.5-1   7.5-2   2.5-2       0
GRID         103       0  2.75-1   7.5-2   0.0+0       0
GRID*                104               0 2.18756191432-1 4.66379612684-2*
*        7.49999928474-2               0
GRID         105       0   2.5-1   7.5-2   7.5-2       0
GRID         106       0  2.75-1   0.0+0   7.5-2       0
GRID         107       0   2.0-1   7.5-2   7.5-2       0
GRID         108       0  2.25-1   7.5-2   5.0-2       0
GRID         109       0  2.75-1   2.5-2   2.5-2       0
GRID         110       0  2.25-1   7.5-2   7.5-2       0
GRID         111       0  2.25-1   0.0+0   0.0+0       0
GRID*                112               0 2.49039417505-1 2.86021947861-2*
*                  0.0+0               0
GRID*                113               0 2.18756191432-1 4.66379612684-2*
*       -7.15255126238-9               0
GRID         114       0   2.0-1   2.5-2   0.0+0       0
GRID         115       0  2.25-1   0.0+0   5.0-2       0
GRID*                116               0 2.49039417505-1 2.30788379908-2*
*                  5.0-2               0
GRID*                117               0           2.0-1 1.94766432047-2*
*                  5.0-2               0
GRID         118       0   2.0-1   0.0+0   2.5-2       0
GRID         119       0   2.5-1   0.0+0   2.5-2       0
GRID*                120               0 2.43275883794-1 6.20073258877-2*
*        3.17240953445-2               0
GRID*                121               0 1.99999991059-1 5.50430834293-2*
*        3.17240962386-2               0
GRID         122       0  2.25-1   0.0+0   2.5-2       0
GRID*                123               0 2.49039417505-1 2.86021947861-2*
*                  2.5-2               0
GRID*                124               0 2.18756182492-1 5.16810446978-2*
*        3.17240890861-2               0
GRID         125       0   2.0-1   2.5-2   2.5-2       0
GRID*                126               0  2.2499999851-1 2.06773728132-2*
*                  0.0+0               0
GRID*                127               0  2.2499999851-1 1.51540160179-2*
*                  5.0-2               0
GRID*                128               0  2.2499999851-1 2.06773728132-2*
*                  2.5-2               0
GRID*                129               0-2.68220901489-9           2.0-1*
*       -1.60932401627-9               0
GRID         130       0   0.0+0  2.75-1   0.0+0       0
GRID*                131               0 7.49999955297-2           2.0-1*
*                  0.0+0               0
GRID*                132               0           0.0+0           2.0-1*
*        7.49999973178-2               0
GRID         133       0   7.5-2  2.75-1   0.0+0       1
GRID         134       0   7.5-2  2.75-1   7.5-2       0
GRID         135       0   7.5-2   2.0-1   7.5-2       0
GRID         136       0   0.0+0  2.75-1   7.5-2       0
GRID         137       0   0.0+0  -2.0-1   0.0+0       0
GRID         138       0   5.0-2 -1.25-1   0.0+0       0
GRID         139       0   7.5-2  -2.0-1   0.0+0       0
GRID         140       0   0.0+0  -2.0-1   7.5-2       0
GRID         141       0   7.5-2 -1.25-1   5.0-2       0
GRID         142       0   2.5-2 -1.25-1   0.0+0       0
GRID         143       0   5.0-2  -2.0-1   7.5-2       0
GRID         144       0   2.5-2  -2.0-1   7.5-2       0
GRID         145       0   5.0-2  -2.0-1   0.0+0       0
GRID         146       0   7.5-2  -1.5-1   7.5-2       0
GRID*                147               0 4.90394175053-2-1.71397805214-1*
*                  7.5-2               0
GRID         148       0   0.0+0  -1.5-1   0.0+0       0
GRID         149       0   7.5-2  -1.5-1   0.0+0       0
GRID         150       0   7.5-2  -2.0-1   5.0-2       0
GRID         151       0   0.0+0 -1.75-1   7.5-2       0
GRID         152       0   7.5-2 -1.25-1   2.5-2       0
GRID         153       0   0.0+0  -2.0-1   5.0-2       0
GRID         154       0   7.5-2 -1.75-1   7.5-2       0
GRID*                155               0 7.49999955297-2-1.53602182865-1*
*        5.76846790314-2               0
GRID*                156               0 2.49999985099-2-1.79322627187-1*
*                  7.5-2               0
GRID         157       0   5.0-2  -2.0-1   5.0-2       0
GRID         158       0   2.5-2 -1.25-1   2.5-2       0
GRID         159       0   7.5-2 -1.25-1   7.5-2       0
GRID*                160               0-4.47034835815-9-1.53602182865-1*
*        5.76846790314-2               0
GRID*                161               0 4.32758927345-2-1.43035757542-1*
*       -8.9406881898-10               0
GRID         162       0   0.0+0 -1.25-1   0.0+0       0
GRID*                163               0 4.32758882642-2-1.46637940407-1*
*        5.76846781373-2               0
GRID*                164               0 1.87561869621-2-1.56964221597-1*
*        5.76846718788-2               0
GRID         165       0   5.0-2 -1.25-1   5.0-2       0
GRID         166       0   7.5-2  -2.0-1   2.5-2       0
GRID         167       0   0.0+0 -1.25-1   5.0-2       0
GRID         168       0   0.0+0 -1.25-1   2.5-2       0
GRID*                169               0 7.49999910593-2-1.44956916571-1*
*        3.17240962386-2               0
GRID         170       0   7.5-2 -1.75-1   0.0+0       0
GRID*                171               0           7.5-2-1.80523356795-1*
*                  5.0-2               0
GRID         172       0   0.0+0  -1.5-1   7.5-2       0
GRID*                173               0 4.32758927345-2-1.43035757542-1*
*        7.49999991059-2               0
GRID         174       0   5.0-2 -1.25-1   2.5-2       0
GRID         175       0   7.5-2 -1.25-1   0.0+0       1
GRID*                176               0 1.87561914325-2-1.53362038732-1*
*        7.49999928474-2               0
GRID         177       0   5.0-2 -1.25-1   7.5-2       0
GRID         178       0   7.5-2  -2.0-1   7.5-2       0
GRID         179       0   0.0+0 -1.25-1   7.5-2       0
GRID         180       0   2.5-2 -1.25-1   5.0-2       0
GRID         181       0   7.5-2 -1.75-1   2.5-2       0
GRID         182       0   2.5-2 -1.25-1   7.5-2       0
GRID         183       0   2.5-2  -2.0-1   0.0+0       0
GRID*                184               0 4.90394175053-2-1.71397805214-1*
*                  0.0+0               0
GRID*                185               0 1.87561914325-2-1.53362038732-1*
*       -7.15255126238-9               0
GRID         186       0   0.0+0 -1.75-1   0.0+0       0
GRID         187       0   2.5-2  -2.0-1   5.0-2       0
GRID*                188               0 4.90394175053-2-1.76921162009-1*
*                  5.0-2               0
GRID*                189               0           0.0+0-1.80523356795-1*
*                  5.0-2               0
GRID         190       0   0.0+0  -2.0-1   2.5-2       0
GRID         191       0   5.0-2  -2.0-1   2.5-2       0
GRID*                192               0 4.32758837938-2-1.37992674112-1*
*        3.17240953445-2               0
GRID*                193               0-8.94069671631-9-1.44956916571-1*
*        3.17240962386-2               0
GRID         194       0   2.5-2  -2.0-1   2.5-2       0
GRID*                195               0 4.90394175053-2-1.71397805214-1*
*                  2.5-2               0
GRID*                196               0 1.87561824918-2-1.48318955302-1*
*        3.17240890861-2               0
GRID         197       0   0.0+0 -1.75-1   2.5-2       0
GRID*                198               0 2.49999985099-2-1.79322627187-1*
*                  0.0+0               0
GRID*                199               0 2.49999985099-2-1.84845983982-1*
*                  5.0-2               0
GRID*                200               0 2.49999985099-2-1.79322627187-1*
*                  2.5-2               0
GRID         201       0   2.0-1  -2.0-1   7.5-2       0
GRID         202       0   2.0-1 -1.25-1   2.5-2       0
GRID*                203               0           2.0-1          -2.0-1*
*       -1.3877787808-17               0
GRID         204       0  2.75-1  -2.0-1   7.5-2       0
GRID*                205               0           2.5-1         -1.25-1*
*       -1.3877787808-17               0
GRID         206       0   2.0-1 -1.25-1   5.0-2       0
GRID         207       0  2.75-1  -2.0-1   2.5-2       0
GRID         208       0  2.75-1  -2.0-1   5.0-2       0
GRID         209       0   2.0-1  -2.0-1   2.5-2       0
GRID*                210               0          2.75-1          -1.5-1*
*       -1.3877787808-17               0
GRID*                211               0          2.75-1-1.71397805214-1*
*        2.59605824947-2               0
GRID         212       0   2.0-1  -1.5-1   7.5-2       0
GRID*                213               0           2.0-1          -1.5-1*
*       -1.3877787808-17               0
GRID*                214               0           2.5-1          -2.0-1*
*       -1.3877787808-17               0
GRID         215       0  2.75-1 -1.75-1   7.5-2       0
GRID*                216               0          2.25-1         -1.25-1*
*       -1.3877787808-17               0
GRID         217       0   2.5-1  -2.0-1   7.5-2       0
GRID*                218               0          2.75-1         -1.75-1*
*       -1.3877787808-17               0
GRID*                219               0 2.57684679031-1-1.53602182865-1*
*        4.47034841089-9               0
GRID*                220               0          2.75-1-1.79322627187-1*
*        5.00000014901-2               0
GRID         221       0   2.5-1  -2.0-1   2.5-2       0
GRID         222       0  2.25-1 -1.25-1   5.0-2       0
GRID*                223               0          2.75-1         -1.25-1*
*       -1.3877787808-17               1
GRID*                224               0 2.57684679031-1-1.53602182865-1*
*        7.50000044703-2               0
GRID*                225               0 1.99999999106-1-1.43035757542-1*
*        3.17241072655-2               0
GRID         226       0   2.0-1 -1.25-1   7.5-2       0
GRID*                227               0 2.57684678137-1-1.46637940407-1*
*        3.17241117358-2               0
GRID*                228               0 2.57684671879-1-1.56964221597-1*
*        5.62438130379-2               0
GRID         229       0   2.5-1 -1.25-1   2.5-2       0
GRID*                230               0          2.25-1          -2.0-1*
*       -1.3877787808-17               0
GRID         231       0   2.5-1 -1.25-1   7.5-2       0
GRID         232       0  2.25-1 -1.25-1   7.5-2       0
GRID*                233               0 2.31724096239-1-1.44956916571-1*
*        8.94069672464-9               0
GRID*                234               0           2.0-1         -1.75-1*
*       -1.3877787808-17               0
GRID*                235               0           2.5-1-1.80523356795-1*
*       -1.3877787808-17               0
GRID         236       0  2.75-1  -1.5-1   7.5-2       0
GRID*                237               0 2.74999999106-1-1.43035757542-1*
*        3.17241072655-2               0
GRID         238       0  2.25-1 -1.25-1   2.5-2       0
GRID*                239               0           2.0-1         -1.25-1*
*       -1.3877787808-17               0
GRID*                240               0 2.74999992847-1-1.53362038732-1*
*        5.62438085675-2               0
GRID         241       0  2.75-1 -1.25-1   2.5-2       0
GRID*                242               0          2.75-1          -2.0-1*
*       -1.3877787808-17               0
GRID         243       0  2.75-1 -1.25-1   7.5-2       0
GRID         244       0   2.5-1 -1.25-1   5.0-2       0
GRID*                245               0          2.25-1         -1.75-1*
*       -1.3877787808-17               0
GRID         246       0  2.75-1 -1.25-1   5.0-2       0
GRID         247       0   2.0-1  -2.0-1   5.0-2       0
GRID*                248               0           2.0-1-1.71397805214-1*
*        2.59605824947-2               0
GRID*                249               0 1.99999992847-1-1.53362038732-1*
*        5.62438085675-2               0
GRID         250       0   2.0-1 -1.75-1   7.5-2       0
GRID         251       0   2.5-1  -2.0-1   5.0-2       0
GRID*                252               0           2.5-1-1.76921162009-1*
*        2.59605824947-2               0
GRID*                253               0           2.5-1-1.80523356795-1*
*                  7.5-2               0
GRID         254       0  2.25-1  -2.0-1   7.5-2       0
GRID         255       0  2.25-1  -2.0-1   2.5-2       0
GRID*                256               0 2.31724095345-1-1.37992674112-1*
*        3.17241162062-2               0
GRID*                257               0 2.31724096239-1-1.44956916571-1*
*        7.50000089407-2               0
GRID         258       0  2.25-1  -2.0-1   5.0-2       0
GRID*                259               0          2.25-1-1.71397805214-1*
*        2.59605824947-2               0
GRID*                260               0 2.31724089086-1-1.48318955302-1*
*        5.62438175082-2               0
GRID         261       0  2.25-1 -1.75-1   7.5-2       0
GRID*                262               0           2.0-1-1.79322627187-1*
*        5.00000014901-2               0
GRID*                263               0           2.5-1-1.84845983982-1*
*        5.00000014901-2               0
GRID*                264               0          2.25-1-1.79322627187-1*
*        5.00000014901-2               0
GRID         265       0   0.0+0  -4.0-1   7.5-2       0
GRID*                266               0           0.0+0       -3.8125-1*
*                  7.5-2               0
GRID         267       0   0.0+0-3.625-1   7.5-2       0
GRID*                268               0           0.0+0       -3.4375-1*
*                  7.5-2               0
GRID         269       0   0.0+0 -3.25-1   7.5-2       0
GRID         270       0 1.875-2  -4.0-1   7.5-2       0
GRID         271       0  3.75-2  -4.0-1   7.5-2       0
GRID         272       0 5.625-2  -4.0-1   7.5-2       0
GRID         273       0   7.5-2  -4.0-1   7.5-2       0
GRID         274       0   0.0+0  -4.0-1 5.625-2       0
GRID         275       0   0.0+0  -4.0-1  3.75-2       0
GRID         276       0   0.0+0  -4.0-1 1.875-2       0
GRID         277       0   0.0+0  -4.0-1   0.0+0       0
GRID         278       0 1.875-2  -4.0-1   0.0+0       0
GRID         279       0  3.75-2  -4.0-1   0.0+0       0
GRID         280       0 5.625-2  -4.0-1   0.0+0       0
GRID         281       0   7.5-2  -4.0-1   0.0+0       0
GRID*                282               0           7.5-2       -3.8125-1*
*                  0.0+0               0
GRID         283       0   7.5-2-3.625-1   0.0+0       0
GRID*                284               0           7.5-2       -3.4375-1*
*                  0.0+0               0
GRID         285       0   7.5-2 -3.25-1   0.0+0       0
GRID         286       0   7.5-2  -4.0-1 1.875-2       0
GRID         287       0   7.5-2  -4.0-1  3.75-2       0
GRID         288       0   7.5-2  -4.0-1 5.625-2       0
GRID         289       0   7.5-2 -3.25-1   7.5-2       0
GRID         290       0 5.625-2 -3.25-1   7.5-2       0
GRID         291       0  3.75-2 -3.25-1   7.5-2       0
GRID         292       0 1.875-2 -3.25-1   7.5-2       0
GRID*                293               0           7.5-2       -3.4375-1*
*                  7.5-2               0
GRID         294       0   7.5-2-3.625-1   7.5-2       0
GRID*                295               0           7.5-2       -3.8125-1*
*                  7.5-2               0
GRID         296       0   7.5-2 -3.25-1 5.625-2       0
GRID         297       0   7.5-2 -3.25-1  3.75-2       0
GRID         298       0   7.5-2 -3.25-1 1.875-2       0
GRID         299       0   0.0+0 -3.25-1   0.0+0       0
GRID         300       0   0.0+0 -3.25-1 1.875-2       0
GRID         301       0   0.0+0 -3.25-1  3.75-2       0
GRID         302       0   0.0+0 -3.25-1 5.625-2       0
GRID*                303               0           0.0+0       -3.8125-1*
*                  0.0+0               0
GRID         304       0   0.0+0-3.625-1   0.0+0       0
GRID*                305               0           0.0+0       -3.4375-1*
*                  0.0+0               0
GRID         306       0 1.875-2 -3.25-1   0.0+0       0
GRID         307       0  3.75-2 -3.25-1   0.0+0       0
GRID         308       0 5.625-2 -3.25-1   0.0+0       0
GRID*                309               0           7.5-2-3.79663147954-1*
*        1.39603287145-2               0
GRID*                310               0           7.5-2-3.73034198702-1*
*        3.30049412315-2               0
GRID*                311               0           7.5-2-3.76878413932-1*
*        5.40937499714-2               0
GRID*                312               0  7.4999997573-2-3.50375955752-1*
*        5.10810680159-2               0
GRID*                313               0 7.49999914254-2-3.45328540265-1*
*        2.75494138292-2               0
GRID*                314               0 7.49999950323-2-3.60075499553-1*
*        1.60377879023-2               0
GRID*                315               0 4.66846904275-2         -3.25-1*
*        5.74626050625-2               0
GRID*                316               0 2.56249990067-2         -3.25-1*
*        5.87751970369-2               0
GRID*                317               0 5.49851747941-2         -3.25-1*
*        1.98615540326-2               0
GRID*                318               0 5.29374175912-2         -3.25-1*
*        3.92650901826-2               0
GRID*                319               0 1.72166577911-2         -3.25-1*
*        2.65514211176-2               0
GRID*                320               0 3.54621626456-2         -3.25-1*
*         2.1410760058-2               0
GRID*                321               0 1.52835819379-2         -3.25-1*
*        4.42912689066-2               0
GRID*                322               0 3.27735870332-2         -3.25-1*
*        4.10854204095-2               0
GRID*                323               0    -7.460752-10-3.74375006308-1*
*        5.87752072505-2               0
GRID*                324               0           0.0+0-3.84716423447-1*
*        4.42912791331-2               0
GRID*                325               0           0.0+0-3.82783345708-1*
*        2.65514317147-2               0
GRID*                326               0    -5.5975181-9-3.45014829287-1*
*        1.98615639666-2               0
GRID*                327               0    -7.4109819-9-3.47062588058-1*
*        3.92650975838-2               0
GRID*                328               0    -1.6712932-9-3.64537840503-1*
*        2.14107690105-2               0
GRID*                329               0    -4.4255107-9-3.53315315507-1*
*        5.74626106984-2               0
GRID*                330               0    -3.2121577-9-3.67226417443-1*
*        4.10854276128-2               0
GRID*                331               0 1.39702402314-2-3.69028481382-1*
*                  7.5-2               0
GRID*                332               0 1.58483950887-2-3.51222520515-1*
*                  7.5-2               0
GRID*                333               0 2.39713138714-2-3.83219644347-1*
*                  7.5-2               0
GRID*                334               0 5.10286057299-2-3.41780362304-1*
*                  7.5-2               0
GRID*                335               0 6.10296781254-2-3.55971538147-1*
*                  7.5-2               0
GRID*                336               0 5.91515325882-2-3.73777500374-1*
*                  7.5-2               0
GRID*                337               0 4.22326176139-2-3.80319209054-1*
*                  7.5-2               0
GRID*                338               0 3.27673036356-2-3.44680797193-1*
*                  7.5-2               0
GRID*                339               0  4.5525396228-2-3.60279378246-1*
*                  7.5-2               0
GRID*                340               0 2.94745117715-2-3.64720636806-1*
*                  7.5-2               0
GRID*                341               0 3.09715483465-2          -4.0-1*
*        6.10297053149-2               0
GRID*                342               0 4.87775085967-2          -4.0-1*
*        5.91515611755-2               0
GRID*                343               0 1.67803754837-2          -4.0-1*
*        5.10286388533-2               0
GRID*                344               0 2.62225306673-2          -4.0-1*
*        1.58484223453-2               0
GRID*                345               0 5.82196576183-2          -4.0-1*
*        2.39713381465-2               0
GRID*                346               0 1.96808113598-2          -4.0-1*
*        3.27673352683-2               0
GRID*                347               0 4.40284872897-2          -4.0-1*
*        1.39702683397-2               0
GRID*                348               0 5.53192221096-2          -4.0-1*
*        4.22326468105-2               0
GRID*                349               0 3.52793911145-2          -4.0-1*
*        4.55254315153-2               0
GRID*                350               0 3.97206498486-2          -4.0-1*
*        2.94745409277-2               0
GRID*                351               0 2.83153092513-2-3.82462605325-1*
*                  0.0+0               0
GRID*                352               0 4.93750010697-2-3.83775197288-1*
*                  0.0+0               0
GRID*                353               0 5.97164175167-2-3.69291269077-1*
*                  0.0+0               0
GRID*                354               0 5.77833424036-2-3.51551422718-1*
*           -3.412718-10               0
GRID*                355               0 2.20625816099-2-3.64265090589-1*
*           -3.9179583-9               0
GRID*                356               0 2.00148253548-2-3.44861554584-1*
*            -4.810704-9               0
GRID*                357               0 3.95378366222-2-3.46410761327-1*
*           -1.4980611-9               0
GRID*                358               0 4.22264123555-2-3.66085421061-1*
*           -2.233058-10               0
GRID*                359               0 3.66364115813-2-3.62923947787-1*
*         3.9935981012-2               0
GRID*                360               0 1.85563655199-2-3.43585011929-1*
*        4.34197469712-2               0
GRID*                361               0 2.18818336661-2-3.81330319262-1*
*        4.47011963789-2               0
GRID*                362               0 5.50011913863-2-3.56059604255-1*
*        5.72852457663-2               0
GRID*                363               0 4.54563173734-2-3.83220493314-1*
*        2.55004600002-2               0
GRID*                364               0 4.78422644463-2-3.60099790829-1*
*        1.77188900229-2               0
PARAM    STR_CID      -2
$--1---><--2---><--3---><--4---><--5---><--6---><--7---><--8---><--9---><--10-->
$$$$$$$$$$$$$$$$$$$$$$$$$$$$$$$$$$$ Material $$$$$$$$$$$$$$$$$$$$$$$$$$$$$$$$$$$
MAT1*                  1          1.1+11 4.2307692308+10           3.0-1*
*                  0.0+0           0.0+0           0.0+0
$--1---><--2---><--3---><--4---><--5---><--6---><--7---><--8---><--9---><--10-->
CORD2R*                1               0           0.0+0           0.0+0*
*                  0.0+0           0.0+0           0.0+0           1.0+0*
*        7.07106781187-1-7.07106781187-1           0.0+0                *
*
SPC            1       1       1   0.0+0
SPC            1       1       2   0.0+0
SPC            1       1       3   0.0+0
SPC            1       3       3   0.0+0
SPC            1      26       3   0.0+0
SPC            1      39       1   0.0+0
SPC            1      65       1   0.0+0
SPC            1      65       2   0.0+0
SPC            1      65       3   0.0+0
SPC            1      66       3   0.0+0
SPC            1      67       3   0.0+0
SPC            1      67       2   0.0+0
SPC            1      68       2   0.0+0
SPC            1      70       3   0.0+0
SPC            1      71       2   0.0+0
SPC            1      72       2   0.0+0
SPC            1      73       3   0.0+0
SPC            1      73       2   0.0+0
SPC            1      76       3   0.0+0
SPC            1      77       3   0.0+0
SPC            1      78       2   0.0+0
SPC            1      81       2   0.0+0
SPC            1      85       2   0.0+0
SPC            1      89       3   0.0+0
SPC            1      90       3   0.0+0
SPC            1      94       2   0.0+0
SPC            1      98       3   0.0+0
SPC            1     103       3   0.0+0
SPC            1     106       2   0.0+0
SPC            1     111       3   0.0+0
SPC            1     111       2   0.0+0
SPC            1     112       3   0.0+0
SPC            1     113       3   0.0+0
SPC            1     114       3   0.0+0
SPC            1     115       2   0.0+0
SPC            1     118       2   0.0+0
SPC            1     119       2   0.0+0
SPC            1     122       2   0.0+0
SPC            1     126       3   0.0+0
SPC            1     129       1   0.0+0
SPC            1     129       2   0.0+0
SPC            1     129       3   0.0+0
SPC            1     130       3   0.0+0
SPC            1     131       3   0.0+0
SPC            1     133       1   0.0+0
SPC            1     137       1   0.0+0
SPC            1     137       2   0.0+0
SPC            1     137       3   0.0+0
SPC            1     139       3   0.0+0
SPC            1     162       3   0.0+0
SPC            1     175       1   0.0+0
SPC            1     203       1   0.0+0
SPC            1     203       2   0.0+0
SPC            1     203       3   0.0+0
SPC            1     223       1   0.0+0
SPC            1     239       3   0.0+0
SPC            1     242       3   0.0+0
SPC            1     265       2   0.0+0
SPC            1     270       2   0.0+0
SPC            1     271       2   0.0+0
SPC            1     272       2   0.0+0
SPC            1     273       2   0.0+0
SPC            1     274       2   0.0+0
SPC            1     275       2   0.0+0
SPC            1     276       2   0.0+0
SPC            1     277       1   0.0+0
SPC            1     277       2   0.0+0
SPC            1     277       3   0.0+0
SPC            1     278       3   0.0+0
SPC            1     278       2   0.0+0
SPC            1     279       3   0.0+0
SPC            1     279       2   0.0+0
SPC            1     280       3   0.0+0
SPC            1     280       2   0.0+0
SPC            1     281       3   0.0+0
SPC            1     281       2   0.0+0
SPC            1     282       3   0.0+0
SPC            1     283       3   0.0+0
SPC            1     284       3   0.0+0
SPC            1     285       3   0.0+0
SPC            1     286       2   0.0+0
SPC            1     287       2   0.0+0
SPC            1     288       2   0.0+0
SPC            1     299       3   0.0+0
SPC            1     303       3   0.0+0
SPC            1     304       3   0.0+0
SPC            1     305       3   0.0+0
SPC            1     306       3   0.0+0
SPC            1     307       3   0.0+0
SPC            1     308       3   0.0+0
SPC            1     341       2   0.0+0
SPC            1     342       2   0.0+0
SPC            1     343       2   0.0+0
SPC            1     344       2   0.0+0
SPC            1     345       2   0.0+0
SPC            1     346       2   0.0+0
SPC            1     347       2   0.0+0
SPC            1     348       2   0.0+0
SPC            1     349       2   0.0+0
SPC            1     350       2   0.0+0
SPC            1     351       3   0.0+0
SPC            1     352       3   0.0+0
SPC            1     353       3   0.0+0
SPC            1     354       3   0.0+0
SPC            1     355       3   0.0+0
SPC            1     356       3   0.0+0
SPC            1     357       3   0.0+0
SPC            1     358       3   0.0+0
$--1---><--2---><--3---><--4---><--5---><--6---><--7---><--8---><--9---><--10-->
$$$$$$$$$$$$$$$$$$$$$$$$$$$$$$$$$$$ Default $$$$$$$$$$$$$$$$$$$$$$$$$$$$$$$$$$$$
PSOLID         2       1       0       2               1
CHEXA          1       2      27      19       5      29      37      10+
+             23      41
CHEXA          2       2      49      25       2       6      60      56+
+             38      22
CHEXA          3       2      55      30      45      59      21      14+
+             35      52
CHEXA          4       2      52      35      19      27      11      18+
+             10      37
CHEXA          5       2      59      45      33      56      52      35+
+             19      27
CHEXA          6       2      21      14      35      52       7      42+
+             18      11
CHEXA          7       2      12      49       6      26      57      60+
+             22      32
CHEXA          8       2      25      13      39       2      56      33+
+             16      38
CHEXA          9       2      24      28      44      31      36      40+
+             46      43
CHEXA         10       2      28      27      29      44      40      37+
+             41      46
CHEXA         11       2      53      63      28      24      15      20+
+             40      36
CHEXA         12       2      63      52      27      28      20      11+
+             37      40
CHEXA         13       2      56      33      16      38      27      19+
+              5      29
CHEXA         14       2      57      60      22      32      24      28+
+             44      31
CHEXA         15       2      51      21      52      63       8       7+
+             11      20
CHEXA         16       2      17      51      63      53       4       8+
+             20      15
CHEXA         17       2       1      47      62      50      54      58+
+             64      61
CHEXA         18       2      47       9      48      62      58      55+
+             59      64
CHEXA         19       2      62      48      25      49      64      59+
+             56      60
CHEXA         20       2      50      62      49      12      61      64+
+             60      57
CHEXA         21       2      54      58      64      61      17      51+
+             63      53
CHEXA         22       2      58      55      59      64      51      21+
+             52      63
CHEXA         23       2      64      59      56      60      63      52+
+             27      28
CHEXA         24       2      61      64      60      57      53      63+
+             28      24
CHEXA         25       2       9       3      34      48      55      30+
+             45      59
CHEXA         26       2      48      34      13      25      59      45+
+             33      56
CHEXA         27       2      60      56      38      22      28      27+
+             29      44
CHEXA         28       2      91      83      69      93     101      74+
+             87     105
CHEXA         29       2     113      89      66      70     124     120+
+            102      86
CHEXA         30       2     119      94     109     123      85      78+
+             99     116
CHEXA         31       2     116      99      83      91      75      82+
+             74     101
CHEXA         32       2     123     109      97     120     116      99+
+             83      91
CHEXA         33       2      85      78      99     116      71     106+
+             82      75
CHEXA         34       2      76     113      70      90     121     124+
+             86      96
CHEXA         35       2      89      77     103      66     120      97+
+             80     102
CHEXA         36       2      88      92     108      95     100     104+
+            110     107
CHEXA         37       2      92      91      93     108     104     101+
+            105     110
CHEXA         38       2     117     127      92      88      79      84+
+            104     100
CHEXA         39       2     127     116      91      92      84      75+
+            101     104
CHEXA         40       2     120      97      80     102      91      83+
+             69      93
CHEXA         41       2     121     124      86      96      88      92+
+            108      95
CHEXA         42       2     115      85     116     127      72      71+
+             75      84
CHEXA         43       2      81     115     127     117      68      72+
+             84      79
CHEXA         44       2      65     111     126     114     118     122+
+            128     125
CHEXA         45       2     111      73     112     126     122     119+
+            123     128
CHEXA         46       2     126     112      89     113     128     123+
+            120     124
CHEXA         47       2     114     126     113      76     125     128+
+            124     121
CHEXA         48       2     118     122     128     125      81     115+
+            127     117
CHEXA         49       2     122     119     123     128     115      85+
+            116     127
CHEXA         50       2     128     123     120     124     127     116+
+             91      92
CHEXA         51       2     125     128     124     121     117     127+
+             92      88
CHEXA         52       2      73      67      98     112     119      94+
+            109     123
CHEXA         53       2     112      98      77      89     123     109+
+             97     120
CHEXA         54       2     124     120     102      86      92      91+
+             93     108
CHEXA         55       2     129     131     133     130     132     135+
+            134     136
PSOLID         3       1       0       2               1
CPENTA        56       3     141     165     163     159     177     173
CPENTA        57       3     138     142     185     174     158     196
CPENTA        58       3     181     195     191     171     188     157
CPENTA        59       3     155     163     188     146     173     147
CPENTA        60       3     169     192     195     155     163     188
CPENTA        61       3     171     188     157     154     147     143
CPENTA        62       3     142     162     148     158     168     193
CPENTA        63       3     175     138     161     152     174     192
CPENTA        64       3     180     167     160     182     179     172
CPENTA        65       3     165     180     164     177     182     176
CPENTA        66       3     164     160     189     176     172     151
CPENTA        67       3     163     164     199     173     176     156
CPENTA        68       3     152     174     192     141     165     163
CPENTA        69       3     158     168     193     180     167     160
CPENTA        70       3     188     199     187     147     156     144
CPENTA        71       3     199     189     153     156     151     140
CPENTA        72       3     198     186     137     200     197     190
CPENTA        73       3     184     198     183     195     200     194
CPENTA        74       3     161     185     198     192     196     200
CPENTA        75       3     185     148     186     196     193     197
CPENTA        76       3     200     197     190     199     189     153
CPENTA        77       3     195     200     194     188     199     187
CPENTA        78       3     192     196     200     163     164     199
CPENTA        79       3     196     193     197     164     160     189
CPENTA        80       3     170     184     145     181     195     191
CPENTA        81       3     149     161     184     169     192     195
CPENTA        82       3     174     158     196     165     180     164
CPENTA        83       3     163     155     141     173     146     159
CPENTA        84       3     185     161     138     196     192     174
CPENTA        85       3     191     166     181     157     150     171
CPENTA        86       3     188     171     155     147     154     146
CPENTA        87       3     195     181     169     188     171     155
CPENTA        88       3     157     150     171     143     178     154
CPENTA        89       3     148     185     142     193     196     158
CPENTA        90       3     161     149     175     192     169     152
CPENTA        91       3     160     164     180     172     176     182
CPENTA        92       3     164     163     165     176     173     177
CPENTA        93       3     189     199     164     151     156     176
CPENTA        94       3     199     188     163     156     147     173
CPENTA        95       3     192     169     152     163     155     141
CPENTA        96       3     193     196     158     160     164     180
CPENTA        97       3     187     157     188     144     143     147
CPENTA        98       3     153     187     199     140     144     156
CPENTA        99       3     137     183     198     190     194     200
CPENTA       100       3     183     145     184     194     191     195
CPENTA       101       3     198     184     161     200     195     192
CPENTA       102       3     186     198     185     197     200     196
CPENTA       103       3     190     194     200     153     187     199
CPENTA       104       3     194     191     195     187     157     188
CPENTA       105       3     200     195     192     199     188     163
CPENTA       106       3     197     200     196     189     199     164
CPENTA       107       3     145     139     170     191     166     181
CPENTA       108       3     184     170     149     195     181     169
CPENTA       109       3     196     192     174     164     163     165
CPENTA       110       3     205     229     227     223     241     237
CPENTA       111       3     202     206     249     238     222     260
CPENTA       112       3     245     259     255     235     252     221
CPENTA       113       3     219     227     252     210     237     211
CPENTA       114       3     233     256     259     219     227     252
CPENTA       115       3     235     252     221     218     211     207
CPENTA       116       3     206     226     212     222     232     257
CPENTA       117       3     239     202     225     216     238     256
CPENTA       118       3     244     231     224     246     243     236
CPENTA       119       3     229     244     228     241     246     240
CPENTA       120       3     228     224     253     240     236     215
CPENTA       121       3     227     228     263     237     240     220
CPENTA       122       3     216     238     256     205     229     227
CPENTA       123       3     222     232     257     244     231     224
CPENTA       124       3     252     263     251     211     220     208
CPENTA       125       3     263     253     217     220     215     204
CPENTA       126       3     262     250     201     264     261     254
CPENTA       127       3     248     262     247     259     264     258
CPENTA       128       3     225     249     262     256     260     264
CPENTA       129       3     249     212     250     260     257     261
CPENTA       130       3     264     261     254     263     253     217
CPENTA       131       3     259     264     258     252     263     251
CPENTA       132       3     256     260     264     227     228     263
CPENTA       133       3     260     257     261     228     224     253
CPENTA       134       3     234     248     209     245     259     255
CPENTA       135       3     213     225     248     233     256     259
CPENTA       136       3     238     222     260     229     244     228
CPENTA       137       3     227     219     205     237     210     223
CPENTA       138       3     249     225     202     260     256     238
CPENTA       139       3     255     230     245     221     214     235
CPENTA       140       3     252     235     219     211     218     210
CPENTA       141       3     259     245     233     252     235     219
CPENTA       142       3     221     214     235     207     242     218
CPENTA       143       3     212     249     206     257     260     222
CPENTA       144       3     225     213     239     256     233     216
CPENTA       145       3     224     228     244     236     240     246
CPENTA       146       3     228     227     229     240     237     241
CPENTA       147       3     253     263     228     215     220     240
CPENTA       148       3     263     252     227     220     211     237
CPENTA       149       3     256     233     216     227     219     205
CPENTA       150       3     257     260     222     224     228     244
CPENTA       151       3     251     221     252     208     207     211
CPENTA       152       3     217     251     263     204     208     220
CPENTA       153       3     201     247     262     254     258     264
CPENTA       154       3     247     209     248     258     255     259
CPENTA       155       3     262     248     225     264     259     256
CPENTA       156       3     250     262     249     261     264     260
CPENTA       157       3     254     258     264     217     251     263
CPENTA       158       3     258     255     259     251     221     252
CPENTA       159       3     264     259     256     263     252     227
CPENTA       160       3     261     264     260     253     263     228
CPENTA       161       3     209     203     234     255     230     245
CPENTA       162       3     248     234     213     259     245     233
CPENTA       163       3     260     256     238     228     227     229
PSOLID         4       1       0                        
CTETRA       164       4     329     331     332     267
CTETRA       165       4     274     324     323     343
CTETRA       166       4     364     317     313     354
CTETRA       167       4     338     362     359     315
CTETRA       168       4     342     341     271     337
CTETRA       169       4     341     271     337     333
CTETRA       170       4     360     302     301     327
CTETRA       171       4     345     352     363     309
CTETRA       172       4     298     308     285     284
CTETRA       173       4     349     363     359     348
CTETRA       174       4     272     295     311     336
CTETRA       175       4     350     363     348     345
CTETRA       176       4     272     342     337     336
CTETRA       177       4     361     349     359     337
CTETRA       178       4     361     350     344     363
CTETRA       179       4     309     364     352     363
CTETRA       180       4     309     352     364     353
CTETRA       181       4     349     363     348     350
CTETRA       182       4     349     363     350     361
CTETRA       183       4     342     362     311     359
CTETRA       184       4     364     363     310     359
CTETRA       185       4     349     363     361     359
CTETRA       186       4     320     307     317     357
CTETRA       187       4     351     359     364     355
CTETRA       188       4     342     362     359     337
CTETRA       189       4     279     351     278     344
CTETRA       190       4     331     329     332     340
CTETRA       191       4     356     328     304     355
CTETRA       192       4     342     349     359     348
CTETRA       193       4     359     330     325     361
CTETRA       194       4     363     352     347     351
CTETRA       195       4     360     328     356     359
CTETRA       196       4     352     364     351     363
CTETRA       197       4     302     332     316     292
CTETRA       198       4     342     272     311     336
CTETRA       199       4     360     332     302     329
CTETRA       200       4     360     320     322     359
CTETRA       201       4     272     342     311     288
CTETRA       202       4     348     342     288     311
CTETRA       203       4     266     270     343     333
CTETRA       204       4     340     338     359     360
CTETRA       205       4     268     329     332     267
CTETRA       206       4     294     362     312     311
CTETRA       207       4     306     319     300     356
CTETRA       208       4     356     364     359     355
CTETRA       209       4     307     320     306     356
CTETRA       210       4     353     364     354     358
CTETRA       211       4     312     362     310     311
CTETRA       212       4     351     352     347     279
CTETRA       213       4     361     341     333     343
CTETRA       214       4     308     307     357     317
CTETRA       215       4     305     304     356     326
CTETRA       216       4     361     323     343     333
CTETRA       217       4     316     338     292     332
CTETRA       218       4     342     348     359     311
CTETRA       219       4     306     305     356     300
CTETRA       220       4     318     315     322     359
CTETRA       221       4     361     341     349     337
CTETRA       222       4     284     283     314     354
CTETRA       223       4     331     323     266     267
CTETRA       224       4     351     364     358     355
CTETRA       225       4     364     318     359     313
CTETRA       226       4     345     352     309     280
CTETRA       227       4     309     286     345     280
CTETRA       228       4     303     351     344     278
CTETRA       229       4     324     361     323     343
CTETRA       230       4     360     316     321     302
CTETRA       231       4     361     344     350     346
CTETRA       232       4     362     339     335     334
CTETRA       233       4     315     291     334     290
CTETRA       234       4     319     360     326     356
CTETRA       235       4     362     296     334     293
CTETRA       236       4     328     330     359     360
CTETRA       237       4     276     275     346     325
CTETRA       238       4     363     350     347     345
CTETRA       239       4     318     362     315     359
CTETRA       240       4     356     364     355     357
CTETRA       241       4     301     326     360     327
CTETRA       242       4     295     273     272     288
CTETRA       243       4     293     296     334     290
CTETRA       244       4     359     325     330     328
CTETRA       245       4     364     359     310     313
CTETRA       246       4     316     338     315     291
CTETRA       247       4     319     320     360     356
CTETRA       248       4     362     359     313     310
CTETRA       249       4     338     316     292     291
CTETRA       250       4     323     333     266     343
CTETRA       251       4     302     332     292     268
CTETRA       252       4     320     307     357     356
CTETRA       253       4     360     302     332     316
CTETRA       254       4     330     361     324     325
CTETRA       255       4     338     340     332     360
CTETRA       256       4     302     332     268     329
CTETRA       257       4     360     319     301     321
CTETRA       258       4     331     340     333     361
CTETRA       259       4     360     320     359     356
CTETRA       260       4     356     328     355     359
CTETRA       261       4     351     361     344     363
CTETRA       262       4     338     316     360     332
CTETRA       263       4     363     348     310     359
CTETRA       264       4     296     318     362     315
CTETRA       265       4     352     364     353     358
CTETRA       266       4     360     316     322     321
CTETRA       267       4     293     296     290     289
CTETRA       268       4     352     364     358     351
CTETRA       269       4     362     293     334     335
CTETRA       270       4     360     316     315     322
CTETRA       271       4     283     353     314     354
CTETRA       272       4     364     320     317     357
CTETRA       273       4     319     326     300     356
CTETRA       274       4     319     360     322     321
CTETRA       275       4     320     319     360     322
CTETRA       276       4     272     342     271     337
CTETRA       277       4     351     359     355     325
CTETRA       278       4     351     361     363     359
CTETRA       279       4     351     361     359     325
CTETRA       280       4     324     346     325     361
CTETRA       281       4     284     314     313     354
CTETRA       282       4     329     331     361     340
CTETRA       283       4     362     318     312     313
CTETRA       284       4     296     315     334     290
CTETRA       285       4     286     309     345     310
CTETRA       286       4     327     328     326     360
CTETRA       287       4     318     297     312     313
CTETRA       288       4     301     360     326     319
CTETRA       289       4     360     356     328     326
CTETRA       290       4     318     296     362     312
CTETRA       291       4     356     364     357     320
CTETRA       292       4     297     296     318     312
CTETRA       293       4     318     362     359     313
CTETRA       294       4     345     352     280     347
CTETRA       295       4     296     362     312     293
CTETRA       296       4     362     340     359     337
CTETRA       297       4     271     341     270     333
CTETRA       298       4     362     340     337     339
CTETRA       299       4     362     359     310     311
CTETRA       300       4     295     272     311     288
CTETRA       301       4     309     364     310     314
CTETRA       302       4     329     330     361     323
CTETRA       303       4     345     352     347     363
CTETRA       304       4     317     284     313     354
CTETRA       305       4     349     361     346     343
CTETRA       306       4     362     313     312     310
CTETRA       307       4     325     276     344     346
CTETRA       308       4     323     331     266     333
CTETRA       309       4     309     282     281     280
CTETRA       310       4     266     343     270     274
CTETRA       311       4     341     342     349     337
CTETRA       312       4     309     352     282     280
CTETRA       313       4     309     353     314     283
CTETRA       314       4     317     364     357     354
CTETRA       315       4     339     362     338     334
CTETRA       316       4     362     340     339     338
CTETRA       317       4     330     328     327     360
CTETRA       318       4     362     294     312     293
CTETRA       319       4     364     353     354     314
CTETRA       320       4     287     286     345     310
CTETRA       321       4     348     363     310     345
CTETRA       322       4     287     348     288     311
CTETRA       323       4     320     319     306     356
CTETRA       324       4     308     298     317     284
CTETRA       325       4     314     364     313     354
CTETRA       326       4     298     297     317     313
CTETRA       327       4     327     329     360     302
CTETRA       328       4     363     309     310     345
CTETRA       329       4     347     352     280     279
CTETRA       330       4     350     363     347     344
CTETRA       331       4     274     323     266     343
CTETRA       332       4     331     329     361     323
CTETRA       333       4     325     359     355     328
CTETRA       334       4     292     269     302     268
CTETRA       335       4     363     351     347     344
CTETRA       336       4     316     338     360     315
CTETRA       337       4     329     359     340     361
CTETRA       338       4     362     340     338     359
CTETRA       339       4     317     308     354     357
CTETRA       340       4     348     287     345     310
CTETRA       341       4     328     304     355     303
CTETRA       342       4     358     364     357     355
CTETRA       343       4     297     318     317     313
CTETRA       344       4     324     346     361     343
CTETRA       345       4     351     303     344     325
CTETRA       346       4     342     362     336     311
CTETRA       347       4     314     364     310     313
CTETRA       348       4     296     362     334     315
CTETRA       349       4     342     362     337     336
CTETRA       350       4     364     318     313     317
CTETRA       351       4     315     338     334     291
CTETRA       352       4     275     274     343     324
CTETRA       353       4     320     318     322     359
CTETRA       354       4     315     360     322     359
CTETRA       355       4     362     294     336     311
CTETRA       356       4     309     353     283     282
CTETRA       357       4     361     340     337     359
CTETRA       358       4     331     329     323     267
CTETRA       359       4     353     309     352     282
CTETRA       360       4     359     348     310     311
CTETRA       361       4     339     362     336     337
CTETRA       362       4     364     309     310     363
CTETRA       363       4     356     328     326     304
CTETRA       364       4     305     326     356     300
CTETRA       365       4     319     326     301     300
CTETRA       366       4     340     329     332     360
CTETRA       367       4     303     328     325     355
CTETRA       368       4     325     361     346     344
CTETRA       369       4     364     318     317     320
CTETRA       370       4     351     359     363     364
CTETRA       371       4     330     329     360     327
CTETRA       372       4     276     303     344     278
CTETRA       373       4     329     359     361     330
CTETRA       374       4     364     318     320     359
CTETRA       375       4     329     359     330     360
CTETRA       376       4     358     364     354     357
CTETRA       377       4     298     284     313     317
CTETRA       378       4     351     303     325     355
CTETRA       379       4     349     342     359     337
CTETRA       380       4     284     308     354     317
CTETRA       381       4     341     270     333     343
CTETRA       382       4     329     359     360     340
CTETRA       383       4     324     346     343     275
CTETRA       384       4     270     274     265     266
CTETRA       385       4     287     348     311     310
CTETRA       386       4     330     361     323     324
CTETRA       387       4     324     346     275     325
CTETRA       388       4     361     350     349     346
CTETRA       389       4     341     361     349     343
CTETRA       390       4     353     309     314     364
CTETRA       391       4     276     303     278     277
CTETRA       392       4     360     338     359     315
CTETRA       393       4     361     331     323     333
CTETRA       394       4     360     301     302     321
CTETRA       395       4     361     340     333     337
CTETRA       396       4     341     361     333     337
CTETRA       397       4     294     362     336     335
CTETRA       398       4     362     339     336     335
CTETRA       399       4     286     309     281     280
CTETRA       400       4     362     294     293     335
CTETRA       401       4     362     338     334     315
CTETRA       402       4     356     364     320     359
CTETRA       403       4     294     295     336     311
CTETRA       404       4     305     306     299     300
CTETRA       405       4     347     351     279     344
CTETRA       406       4     303     276     344     325
CTETRA       407       4     351     361     325     344
$--1---><--2---><--3---><--4---><--5---><--6---><--7---><--8---><--9---><--10-->
$$$$$$$$$$$$$$$$$$$$$$$$$$$$$$$$$$$$ force $$$$$$$$$$$$$$$$$$$$$$$$$$$$$$$$$$$$$
FORCE*                 2              33               0           1.0+0*
*                  0.0+0 6.25851633124+1           0.0+0
FORCE*                 2              16               0           1.0+0*
*                  0.0+0 2.56658318722+1           0.0+0
FORCE*                 2              19               0           1.0+0*
*                  0.0+0 5.43910109112+1           0.0+0
FORCE*                 2               5               0           1.0+0*
*                  0.0+0 2.78004658747+1           0.0+0
FORCE*                 2              13               0           1.0+0*
*                  0.0+0 3.27585898064+1           0.0+0
FORCE*                 2              39               0           1.0+0*
*                  0.0+0 1.42001875573+1           0.0+0
FORCE*                 2              10               0           1.0+0*
*                  0.0+0  2.2793857723+1           0.0+0
FORCE*                 2              23               0           1.0+0*
*                  0.0+0 1.31328710803+1           0.0+0
FORCE*                 2              45               0           1.0+0*
*                  0.0+0 6.11031959676+1           0.0+0
FORCE*                 2              35               0           1.0+0*
*                  0.0+0 5.30424614444+1           0.0+0
FORCE*                 2              34               0           1.0+0*
*                  0.0+0 2.99568851237+1           0.0+0
FORCE*                 2              18               0           1.0+0*
*                  0.0+0 2.53732090996+1           0.0+0
FORCE*                 2              30               0           1.0+0*
*                  0.0+0 2.67549339268+1           0.0+0
FORCE*                 2              14               0           1.0+0*
*                  0.0+0 2.36864023738+1           0.0+0
FORCE*                 2               3               0           1.0+0*
*                  0.0+0 1.38888888889+1           0.0+0
FORCE*                 2              42               0           1.0+0*
*                  0.0+0 1.28660450379+1           0.0+0
FORCE          2     131       0   1.0+0   0.0+0  1.25+2   0.0+0
FORCE          2     133       0   1.0+0   0.0+0  1.25+2   0.0+0
FORCE          2     135       0   1.0+0   0.0+0  1.25+2   0.0+0
FORCE          2     134       0   1.0+0   0.0+0  1.25+2   0.0+0
FORCE*                 2             166               0           1.0+0*
*                  0.0+0 2.67549339268+1           0.0+0
FORCE*                 2             181               0           1.0+0*
*                  0.0+0 6.11031959676+1           0.0+0
FORCE*                 2             150               0           1.0+0*
*                  0.0+0 2.36864023738+1           0.0+0
FORCE*                 2             171               0           1.0+0*
*                  0.0+0 5.30424614444+1           0.0+0
FORCE*                 2             155               0           1.0+0*
*                  0.0+0 5.43910109112+1           0.0+0
FORCE*                 2             154               0           1.0+0*
*                  0.0+0 2.53732090996+1           0.0+0
FORCE*                 2             146               0           1.0+0*
*                  0.0+0  2.2793857723+1           0.0+0
FORCE*                 2             169               0           1.0+0*
*                  0.0+0 6.25851633124+1           0.0+0
FORCE*                 2             178               0           1.0+0*
*                  0.0+0 1.28660450379+1           0.0+0
FORCE*                 2             149               0           1.0+0*
*                  0.0+0 3.27585898064+1           0.0+0
FORCE*                 2             175               0           1.0+0*
*                  0.0+0 1.42001875573+1           0.0+0
FORCE*                 2             152               0           1.0+0*
*                  0.0+0 2.56658318722+1           0.0+0
FORCE*                 2             141               0           1.0+0*
*                  0.0+0 2.78004658747+1           0.0+0
FORCE*                 2             139               0           1.0+0*
*                  0.0+0 1.38888888889+1           0.0+0
FORCE*                 2             170               0           1.0+0*
*                  0.0+0 2.99568851237+1           0.0+0
FORCE*                 2             236               0           1.0+0*
*                  0.0+0 2.43979339246+1           0.0+0
FORCE*                 2             240               0           1.0+0*
*                  0.0+0  5.0766727083+1           0.0+0
FORCE*                 2             246               0           1.0+0*
*                  0.0+0 2.79556551465+1           0.0+0
FORCE*                 2             159               0           1.0+0*
*                  0.0+0 1.31328710803+1           0.0+0
FORCE*                 2             220               0           1.0+0*
*                  0.0+0 5.46597716084+1           0.0+0
FORCE*                 2             211               0           1.0+0*
*                  0.0+0 6.20342965725+1           0.0+0
FORCE*                 2             237               0           1.0+0*
*                  0.0+0 5.78506412091+1           0.0+0
FORCE*                 2             241               0           1.0+0*
*                  0.0+0 2.27072781057+1           0.0+0
FORCE*                 2             204               0           1.0+0*
*                  0.0+0 1.69175449345+1           0.0+0
FORCE*                 2             208               0           1.0+0*
*                  0.0+0 2.56157219344+1           0.0+0
FORCE*                 2             215               0           1.0+0*
*                  0.0+0 2.54211817931+1           0.0+0
FORCE*                 2             223               0           1.0+0*
*                  0.0+0 1.84295795582+1           0.0+0
FORCE*                 2             210               0           1.0+0*
*                  0.0+0 3.40998415216+1           0.0+0
FORCE*                 2             243               0           1.0+0*
*                  0.0+0 9.25925925926+0           0.0+0
FORCE*                 2             207               0           1.0+0*
*                  0.0+0 3.08018415063+1           0.0+0
FORCE*                 2             218               0           1.0+0*
*                  0.0+0 2.98234665835+1           0.0+0
FORCE*                 2             242               0           1.0+0*
*                  0.0+0 9.25925925926+0           0.0+0
$--1---><--2---><--3---><--4---><--5---><--6---><--7---><--8---><--9---><--10-->
$$$$$$$$$$$$$$$$$$$$$$$$$$$$$$$$$$$$ force $$$$$$$$$$$$$$$$$$$$$$$$$$$$$$$$$$$$$
FORCE*                 2              38               0           1.0+0*
*        5.55555555556+1           0.0+0           0.0+0
FORCE*                 2              22               0           1.0+0*
*        5.55555555556+1           0.0+0           0.0+0
FORCE*                 2              29               0           1.0+0*
*        5.55555555556+1           0.0+0           0.0+0
FORCE*                 2              44               0           1.0+0*
*        5.55555555556+1           0.0+0           0.0+0
FORCE*                 2               2               0           1.0+0*
*        2.77777777778+1           0.0+0           0.0+0
FORCE*                 2               6               0           1.0+0*
*        2.77777777778+1           0.0+0           0.0+0
FORCE*                 2              32               0           1.0+0*
*        2.77777777778+1           0.0+0           0.0+0
FORCE*                 2              31               0           1.0+0*
*        2.77777777778+1           0.0+0           0.0+0
FORCE*                 2              41               0           1.0+0*
*        2.77777777778+1           0.0+0           0.0+0
FORCE*                 2              46               0           1.0+0*
*        2.77777777778+1           0.0+0           0.0+0
FORCE*                 2              16               0           1.0+0*
*        2.77777777778+1           0.0+0           0.0+0
FORCE*                 2               5               0           1.0+0*
*        2.77777777778+1           0.0+0           0.0+0
FORCE*                 2              26               0           1.0+0*
*        1.38888888889+1           0.0+0           0.0+0
FORCE*                 2              39               0           1.0+0*
*        1.38888888889+1           0.0+0           0.0+0
FORCE*                 2              43               0           1.0+0*
*        1.38888888889+1           0.0+0           0.0+0
FORCE*                 2              23               0           1.0+0*
*        1.38888888889+1           0.0+0           0.0+0
FORCE          2     133       0   1.0+0  1.25+2   0.0+0   0.0+0
FORCE          2     130       0   1.0+0  1.25+2   0.0+0   0.0+0
FORCE          2     134       0   1.0+0  1.25+2   0.0+0   0.0+0
FORCE          2     136       0   1.0+0  1.25+2   0.0+0   0.0+0
FORCE*                 2             138               0           1.0+0*
*        2.77777777778+1           0.0+0           0.0+0
FORCE*                 2             142               0           1.0+0*
*        2.77777777778+1           0.0+0           0.0+0
FORCE*                 2             174               0           1.0+0*
*        5.55555555556+1           0.0+0           0.0+0
FORCE*                 2             158               0           1.0+0*
*        5.55555555556+1           0.0+0           0.0+0
FORCE*                 2             162               0           1.0+0*
*        1.38888888889+1           0.0+0           0.0+0
FORCE*                 2             168               0           1.0+0*
*        2.77777777778+1           0.0+0           0.0+0
FORCE*                 2             175               0           1.0+0*
*        1.38888888889+1           0.0+0           0.0+0
FORCE*                 2             152               0           1.0+0*
*        2.77777777778+1           0.0+0           0.0+0
FORCE*                 2             180               0           1.0+0*
*        5.55555555556+1           0.0+0           0.0+0
FORCE*                 2             167               0           1.0+0*
*        2.77777777778+1           0.0+0           0.0+0
FORCE*                 2             182               0           1.0+0*
*        2.77777777778+1           0.0+0           0.0+0
FORCE*                 2             179               0           1.0+0*
*        1.38888888889+1           0.0+0           0.0+0
FORCE*                 2             165               0           1.0+0*
*        5.55555555556+1           0.0+0           0.0+0
FORCE*                 2             177               0           1.0+0*
*        2.77777777778+1           0.0+0           0.0+0
FORCE*                 2             141               0           1.0+0*
*        2.77777777778+1           0.0+0           0.0+0
FORCE*                 2             239               0           1.0+0*
*        1.38888888889+1           0.0+0           0.0+0
FORCE*                 2             202               0           1.0+0*
*        2.77777777778+1           0.0+0           0.0+0
FORCE*                 2             216               0           1.0+0*
*        2.77777777778+1           0.0+0           0.0+0
FORCE*                 2             238               0           1.0+0*
*        5.55555555556+1           0.0+0           0.0+0
FORCE*                 2             159               0           1.0+0*
*        1.38888888889+1           0.0+0           0.0+0
FORCE*                 2             205               0           1.0+0*
*        2.77777777778+1           0.0+0           0.0+0
FORCE*                 2             229               0           1.0+0*
*        5.55555555556+1           0.0+0           0.0+0
FORCE*                 2             244               0           1.0+0*
*        5.55555555556+1           0.0+0           0.0+0
FORCE*                 2             241               0           1.0+0*
*        2.77777777778+1           0.0+0           0.0+0
FORCE*                 2             246               0           1.0+0*
*        2.77777777778+1           0.0+0           0.0+0
FORCE*                 2             206               0           1.0+0*
*        2.77777777778+1           0.0+0           0.0+0
FORCE*                 2             222               0           1.0+0*
*        5.55555555556+1           0.0+0           0.0+0
FORCE*                 2             231               0           1.0+0*
*        2.77777777778+1           0.0+0           0.0+0
FORCE*                 2             243               0           1.0+0*
*        1.38888888889+1           0.0+0           0.0+0
FORCE*                 2             226               0           1.0+0*
*        1.38888888889+1           0.0+0           0.0+0
FORCE*                 2             232               0           1.0+0*
*        2.77777777778+1           0.0+0           0.0+0
FORCE*                 2             223               0           1.0+0*
*        1.38888888889+1           0.0+0           0.0+0
$--1---><--2---><--3---><--4---><--5---><--6---><--7---><--8---><--9---><--10-->
$$$$$$$$$$$$$$$$$$$$$$$$$$$$$$$$$$$$ force $$$$$$$$$$$$$$$$$$$$$$$$$$$$$$$$$$$$$
FORCE*                 2              61               0           1.0+0*
*                  0.0+0-6.11031960769+1           0.0+0
FORCE*                 2              57               0           1.0+0*
*                  0.0+0-6.25851634243+1           0.0+0
FORCE*                 2              53               0           1.0+0*
*                  0.0+0-5.30424615392+1           0.0+0
FORCE*                 2              24               0           1.0+0*
*                  0.0+0-5.43910110085+1           0.0+0
FORCE*                 2              50               0           1.0+0*
*                  0.0+0-2.99568851773+1           0.0+0
FORCE*                 2              12               0           1.0+0*
*                  0.0+0 -3.2758589865+1           0.0+0
FORCE*                 2              54               0           1.0+0*
*                  0.0+0-2.67549339746+1           0.0+0
FORCE*                 2              17               0           1.0+0*
*                  0.0+0-2.36864024162+1           0.0+0
FORCE*                 2              15               0           1.0+0*
*                  0.0+0-2.53732091449+1           0.0+0
FORCE*                 2              36               0           1.0+0*
*                  0.0+0-2.27938577637+1           0.0+0
FORCE*                 2              32               0           1.0+0*
*                  0.0+0-2.56658319181+1           0.0+0
FORCE*                 2              31               0           1.0+0*
*                  0.0+0-2.78004659244+1           0.0+0
FORCE*                 2               1               0           1.0+0*
*                  0.0+0-1.38888889137+1           0.0+0
FORCE*                 2              26               0           1.0+0*
*                  0.0+0-1.42001875827+1           0.0+0
FORCE*                 2               4               0           1.0+0*
*                  0.0+0-1.28660450609+1           0.0+0
FORCE*                 2              43               0           1.0+0*
*                  0.0+0-1.31328711038+1           0.0+0
FORCE*                 2             129               0           1.0+0*
*                  0.0+0-1.24999999031+2           0.0+0
FORCE*                 2             130               0           1.0+0*
*                  0.0+0-1.24999999627+2           0.0+0
FORCE*                 2             132               0           1.0+0*
*                  0.0+0-1.24999999031+2           0.0+0
FORCE*                 2             136               0           1.0+0*
*                  0.0+0-1.24999999627+2           0.0+0
FORCE*                 2             167               0           1.0+0*
*                  0.0+0-2.78004659244+1           0.0+0
FORCE*                 2             160               0           1.0+0*
*                  0.0+0-5.43910110085+1           0.0+0
FORCE*                 2             179               0           1.0+0*
*                  0.0+0-1.31328711038+1           0.0+0
FORCE*                 2             172               0           1.0+0*
*                  0.0+0-2.27938577637+1           0.0+0
FORCE*                 2             189               0           1.0+0*
*                  0.0+0-5.30424615392+1           0.0+0
FORCE*                 2             151               0           1.0+0*
*                  0.0+0-2.53732091449+1           0.0+0
FORCE*                 2             168               0           1.0+0*
*                  0.0+0-2.56658319181+1           0.0+0
FORCE*                 2             193               0           1.0+0*
*                  0.0+0-6.25851634243+1           0.0+0
FORCE*                 2             153               0           1.0+0*
*                  0.0+0-2.36864024162+1           0.0+0
FORCE*                 2             140               0           1.0+0*
*                  0.0+0-1.28660450609+1           0.0+0
FORCE*                 2             186               0           1.0+0*
*                  0.0+0-2.99568851773+1           0.0+0
FORCE*                 2             137               0           1.0+0*
*                  0.0+0-1.38888889137+1           0.0+0
FORCE*                 2             197               0           1.0+0*
*                  0.0+0-6.11031960769+1           0.0+0
FORCE*                 2             190               0           1.0+0*
*                  0.0+0-2.67549339746+1           0.0+0
FORCE*                 2             148               0           1.0+0*
*                  0.0+0 -3.2758589865+1           0.0+0
FORCE*                 2             250               0           1.0+0*
*                  0.0+0-2.54211818385+1           0.0+0
FORCE*                 2             262               0           1.0+0*
*                  0.0+0-5.46597717062+1           0.0+0
FORCE*                 2             249               0           1.0+0*
*                  0.0+0-5.07667271738+1           0.0+0
FORCE*                 2             162               0           1.0+0*
*                  0.0+0-1.42001875827+1           0.0+0
FORCE*                 2             248               0           1.0+0*
*                  0.0+0-6.20342966834+1           0.0+0
FORCE*                 2             225               0           1.0+0*
*                  0.0+0-5.78506413126+1           0.0+0
FORCE*                 2             213               0           1.0+0*
*                  0.0+0-3.40998415826+1           0.0+0
FORCE*                 2             239               0           1.0+0*
*                  0.0+0-1.84295795912+1           0.0+0
FORCE*                 2             212               0           1.0+0*
*                  0.0+0-2.43979339683+1           0.0+0
FORCE*                 2             206               0           1.0+0*
*                  0.0+0-2.79556551965+1           0.0+0
FORCE*                 2             202               0           1.0+0*
*                  0.0+0-2.27072781463+1           0.0+0
FORCE*                 2             226               0           1.0+0*
*                  0.0+0-9.25925927582+0           0.0+0
FORCE*                 2             247               0           1.0+0*
*                  0.0+0-2.56157219802+1           0.0+0
FORCE*                 2             201               0           1.0+0*
*                  0.0+0-1.69175449647+1           0.0+0
FORCE*                 2             234               0           1.0+0*
*                  0.0+0-2.98234666369+1           0.0+0
FORCE*                 2             209               0           1.0+0*
*                  0.0+0-3.08018415613+1           0.0+0
FORCE*                 2             203               0           1.0+0*
*                  0.0+0-9.25925927582+0           0.0+0
$--1---><--2---><--3---><--4---><--5---><--6---><--7---><--8---><--9---><--10-->
$$$$$$$$$$$$$$$$$$$$$$$$$$$$$$$$$$$$ force $$$$$$$$$$$$$$$$$$$$$$$$$$$$$$$$$$$$$
FORCE*                 2              54               0           1.0+0*
*       -2.77777779102+1           0.0+0           0.0+0
FORCE*                 2              58               0           1.0+0*
*       -5.55555558205+1           0.0+0           0.0+0
FORCE*                 2              17               0           1.0+0*
*       -2.77777779102+1           0.0+0           0.0+0
FORCE*                 2              51               0           1.0+0*
*       -5.55555558205+1           0.0+0           0.0+0
FORCE*                 2               1               0           1.0+0*
*       -1.38888889551+1           0.0+0           0.0+0
FORCE*                 2              47               0           1.0+0*
*       -2.77777779102+1           0.0+0           0.0+0
FORCE*                 2              55               0           1.0+0*
*       -5.55555558205+1           0.0+0           0.0+0
FORCE*                 2              21               0           1.0+0*
*       -5.55555558205+1           0.0+0           0.0+0
FORCE*                 2               4               0           1.0+0*
*       -1.38888889551+1           0.0+0           0.0+0
FORCE*                 2               8               0           1.0+0*
*       -2.77777779102+1           0.0+0           0.0+0
FORCE*                 2               9               0           1.0+0*
*       -2.77777779102+1           0.0+0           0.0+0
FORCE*                 2              30               0           1.0+0*
*       -2.77777779102+1           0.0+0           0.0+0
FORCE*                 2              14               0           1.0+0*
*       -2.77777779102+1           0.0+0           0.0+0
FORCE*                 2               7               0           1.0+0*
*       -2.77777779102+1           0.0+0           0.0+0
FORCE*                 2               3               0           1.0+0*
*       -1.38888889551+1           0.0+0           0.0+0
FORCE*                 2              42               0           1.0+0*
*       -1.38888889551+1           0.0+0           0.0+0
FORCE*                 2             129               0           1.0+0*
*       -1.24999997417+2           0.0+0           0.0+0
FORCE*                 2             131               0           1.0+0*
*       -1.24999998013+2           0.0+0           0.0+0
FORCE*                 2             132               0           1.0+0*
*       -1.24999998411+2           0.0+0           0.0+0
FORCE*                 2             135               0           1.0+0*
*       -1.24999999007+2           0.0+0           0.0+0
FORCE*                 2             157               0           1.0+0*
*       -5.55555558205+1           0.0+0           0.0+0
FORCE*                 2             150               0           1.0+0*
*       -2.77777779102+1           0.0+0           0.0+0
FORCE*                 2             143               0           1.0+0*
*       -2.77777779102+1           0.0+0           0.0+0
FORCE*                 2             178               0           1.0+0*
*       -1.38888889551+1           0.0+0           0.0+0
FORCE*                 2             187               0           1.0+0*
*       -5.55555558205+1           0.0+0           0.0+0
FORCE*                 2             144               0           1.0+0*
*       -2.77777779102+1           0.0+0           0.0+0
FORCE*                 2             153               0           1.0+0*
*       -2.77777779102+1           0.0+0           0.0+0
FORCE*                 2             140               0           1.0+0*
*       -1.38888889551+1           0.0+0           0.0+0
FORCE*                 2             137               0           1.0+0*
*       -1.38888889551+1           0.0+0           0.0+0
FORCE*                 2             183               0           1.0+0*
*       -2.77777779102+1           0.0+0           0.0+0
FORCE*                 2             190               0           1.0+0*
*       -2.77777779102+1           0.0+0           0.0+0
FORCE*                 2             194               0           1.0+0*
*       -5.55555558205+1           0.0+0           0.0+0
FORCE*                 2             145               0           1.0+0*
*       -2.77777779102+1           0.0+0           0.0+0
FORCE*                 2             191               0           1.0+0*
*       -5.55555558205+1           0.0+0           0.0+0
FORCE*                 2             139               0           1.0+0*
*       -1.38888889551+1           0.0+0           0.0+0
FORCE*                 2             166               0           1.0+0*
*       -2.77777779102+1           0.0+0           0.0+0
FORCE*                 2             201               0           1.0+0*
*       -1.38888889551+1           0.0+0           0.0+0
FORCE*                 2             247               0           1.0+0*
*       -2.77777779102+1           0.0+0           0.0+0
FORCE*                 2             254               0           1.0+0*
*       -2.77777779102+1           0.0+0           0.0+0
FORCE*                 2             258               0           1.0+0*
*       -5.55555558205+1           0.0+0           0.0+0
FORCE*                 2             217               0           1.0+0*
*       -2.77777779102+1           0.0+0           0.0+0
FORCE*                 2             251               0           1.0+0*
*       -5.55555558205+1           0.0+0           0.0+0
FORCE*                 2             221               0           1.0+0*
*       -5.55555558205+1           0.0+0           0.0+0
FORCE*                 2             208               0           1.0+0*
*       -2.77777779102+1           0.0+0           0.0+0
FORCE*                 2             207               0           1.0+0*
*       -2.77777779102+1           0.0+0           0.0+0
FORCE*                 2             209               0           1.0+0*
*       -2.77777779102+1           0.0+0           0.0+0
FORCE*                 2             255               0           1.0+0*
*       -5.55555558205+1           0.0+0           0.0+0
FORCE*                 2             214               0           1.0+0*
*       -2.77777779102+1           0.0+0           0.0+0
FORCE*                 2             242               0           1.0+0*
*       -1.38888889551+1           0.0+0           0.0+0
FORCE*                 2             203               0           1.0+0*
*       -1.38888889551+1           0.0+0           0.0+0
FORCE*                 2             230               0           1.0+0*
*       -2.77777779102+1           0.0+0           0.0+0
FORCE*                 2             204               0           1.0+0*
*       -1.38888889551+1           0.0+0           0.0+0
$--1---><--2---><--3---><--4---><--5---><--6---><--7---><--8---><--9---><--10-->
$$$$$$$$$$$$$$$$$$$$$$$$$$$$$$$$$$$$ force $$$$$$$$$$$$$$$$$$$$$$$$$$$$$$$$$$$$$
FORCE*                 2             104               0           1.0+0*
*                  0.0+0           0.0+0 1.58446584672+2
FORCE*                 2             101               0           1.0+0*
*                  0.0+0           0.0+0 1.74874301581+2
FORCE*                 2             105               0           1.0+0*
*                  0.0+0           0.0+0 7.17251517967+1
FORCE*                 2             110               0           1.0+0*
*                  0.0+0           0.0+0 8.17312227616+1
FORCE*                 2              84               0           1.0+0*
*                  0.0+0           0.0+0 1.59624091288+2
FORCE*                 2              75               0           1.0+0*
*                  0.0+0           0.0+0 1.86458093721+2
FORCE*                 2              74               0           1.0+0*
*                  0.0+0           0.0+0 9.64186356561+1
FORCE*                 2              87               0           1.0+0*
*                  0.0+0           0.0+0 4.15332582262+1
FORCE*                 2             100               0           1.0+0*
*                  0.0+0           0.0+0 7.12598918669+1
FORCE*                 2             107               0           1.0+0*
*                  0.0+0           0.0+0 4.00656834245+1
FORCE*                 2              72               0           1.0+0*
*                  0.0+0           0.0+0  7.5287329644+1
FORCE*                 2              71               0           1.0+0*
*                  0.0+0           0.0+0 8.90290240348+1
FORCE*                 2              82               0           1.0+0*
*                  0.0+0           0.0+0 9.26830039518+1
FORCE*                 2              79               0           1.0+0*
*                  0.0+0           0.0+0 7.73969781524+1
FORCE*                 2             106               0           1.0+0*
*                  0.0+0           0.0+0 4.42015429338+1
FORCE*                 2              68               0           1.0+0*
*                  0.0+0           0.0+0 3.92652062906+1
FORCE*                 2             338               0           1.0+0*
*                  0.0+0           0.0+0 9.27004040374+1
FORCE*                 2             340               0           1.0+0*
*                  0.0+0           0.0+0 7.93118361049+1
FORCE*                 2             332               0           1.0+0*
*                  0.0+0           0.0+0 8.91379506124+1
FORCE*                 2             292               0           1.0+0*
*                  0.0+0           0.0+0  7.0334201994+1
FORCE*                 2             331               0           1.0+0*
*                  0.0+0           0.0+0 6.10899415879+1
FORCE*                 2             339               0           1.0+0*
*                  0.0+0           0.0+0 7.93118697395+1
FORCE*                 2             268               0           1.0+0*
*                  0.0+0           0.0+0 4.82660922433+1
FORCE*                 2             291               0           1.0+0*
*                  0.0+0           0.0+0 4.57474153738+1
FORCE*                 2             333               0           1.0+0*
*                  0.0+0           0.0+0 8.79234011954+1
FORCE*                 2             267               0           1.0+0*
*                  0.0+0           0.0+0 3.64495316506+1
FORCE*                 2             334               0           1.0+0*
*                  0.0+0           0.0+0 8.79235575798+1
FORCE*                 2             337               0           1.0+0*
*                  0.0+0           0.0+0 9.27004173364+1
FORCE*                 2             269               0           1.0+0*
*                  0.0+0           0.0+0        1.5625+1
FORCE*                 2             266               0           1.0+0*
*                  0.0+0           0.0+0 5.98452476176+1
FORCE*                 2             335               0           1.0+0*
*                  0.0+0           0.0+0 6.10901627081+1
FORCE*                 2             336               0           1.0+0*
*                  0.0+0           0.0+0 8.91381459536+1
FORCE*                 2             290               0           1.0+0*
*                  0.0+0           0.0+0 4.79434323986+1
FORCE*                 2             270               0           1.0+0*
*                  0.0+0           0.0+0 4.79433543141+1
FORCE*                 2             271               0           1.0+0*
*                  0.0+0           0.0+0 4.57474110635+1
FORCE*                 2             293               0           1.0+0*
*                  0.0+0           0.0+0 5.98454556897+1
FORCE*                 2             272               0           1.0+0*
*                  0.0+0           0.0+0  7.0334254349+1
FORCE*                 2             265               0           1.0+0*
*                  0.0+0           0.0+0        1.5625+1
FORCE*                 2             294               0           1.0+0*
*                  0.0+0           0.0+0 3.64497210762+1
FORCE*                 2             295               0           1.0+0*
*                  0.0+0           0.0+0 4.82661953742+1
FORCE*                 2             289               0           1.0+0*
*                  0.0+0           0.0+0        1.5625+1
FORCE*                 2             273               0           1.0+0*
*                  0.0+0           0.0+0        1.5625+1
$--1---><--2---><--3---><--4---><--5---><--6---><--7---><--8---><--9---><--10-->
LOAD           1   1.0+0   1.0+0       2
ENDDATA 
