$ Generated by Mecway 33
$-----------------------EXECUTIVE CONTROL SECTION-----------------------
SOL 101
CEND
$-------------------------CASE CONTROL SECTION--------------------------
DISPLACEMENT = ALL
SPCFORCES = ALL
MPCFORCES = ALL
SPC = 1
LOAD = 1
BEGIN BULK
$---------------------------BULK DATA SECTION---------------------------
GRID           1       0   0.0+0   0.0+0   0.0+0       0
GRID           2       0   1.0+0   0.0+0   0.0+0       0
GRID           3       0   1.0+0   1.0+0   0.0+0       0
GRID           4       0   0.0+0   1.0+0   0.0+0       0
GRID           5       0   5.0-1   0.0+0   0.0+0       0
GRID           6       0   1.0+0   5.0-1   0.0+0       0
GRID           7       0   5.0-1   1.0+0   0.0+0       0
GRID           8       0   0.0+0   5.0-1   0.0+0       0
GRID           9       0   5.0-1   5.0-1   0.0+0       0
GRID          10       0   2.5-1   5.0-1   0.0+0       0
GRID          11       0   5.0-1   7.5-1   0.0+0       0
GRID          12       0   2.5-1   1.0+0   0.0+0       0
GRID          13       0   0.0+0   7.5-1   0.0+0       0
GRID          14       0   2.5-1   7.5-1   0.0+0       0
GRID          15       0   2.5-1   0.0+0   0.0+0       0
GRID          16       0   5.0-1   2.5-1   0.0+0       0
GRID          17       0   0.0+0   2.5-1   0.0+0       0
GRID          18       0   2.5-1   2.5-1   0.0+0       0
GRID          19       0   7.5-1   0.0+0   0.0+0       0
GRID          20       0   1.0+0   2.5-1   0.0+0       0
GRID          21       0   7.5-1   5.0-1   0.0+0       0
GRID          22       0   7.5-1   2.5-1   0.0+0       0
GRID          23       0   1.0+0   7.5-1   0.0+0       0
GRID          24       0   7.5-1   1.0+0   0.0+0       0
GRID          25       0   7.5-1   7.5-1   0.0+0       0
PARAM    STR_CID      -2
$--1---><--2---><--3---><--4---><--5---><--6---><--7---><--8---><--9---><--10-->
$$$$$$$$$$$$$$$$$$$$$$$$$$$$$$ PSHELL_placeholder $$$$$$$$$$$$$$$$$$$$$$$$$$$$$$
MAT1           9 1.233+3 6.165+2   0.0+0   0.0+0   0.0+0   0.0+0
$--1---><--2---><--3---><--4---><--5---><--6---><--7---><--8---><--9---><--10-->
SPC            1       1       1   0.0+0
SPC            1       1       2   0.0+0
SPC            1       1       3   0.0+0
SPC            1       1       4   0.0+0
SPC            1       1       5   0.0+0
SPC            1       1       6   0.0+0
SPC            1       4       1   0.0+0
SPC            1       4       2   0.0+0
SPC            1       4       3   0.0+0
SPC            1       4       4   0.0+0
SPC            1       4       5   0.0+0
SPC            1       4       6   0.0+0
SPC            1       8       1   0.0+0
SPC            1       8       2   0.0+0
SPC            1       8       3   0.0+0
SPC            1       8       4   0.0+0
SPC            1       8       5   0.0+0
SPC            1       8       6   0.0+0
SPC            1      13       1   0.0+0
SPC            1      13       2   0.0+0
SPC            1      13       3   0.0+0
SPC            1      13       4   0.0+0
SPC            1      13       5   0.0+0
SPC            1      13       6   0.0+0
SPC            1      17       1   0.0+0
SPC            1      17       2   0.0+0
SPC            1      17       3   0.0+0
SPC            1      17       4   0.0+0
SPC            1      17       5   0.0+0
SPC            1      17       6   0.0+0
$--1---><--2---><--3---><--4---><--5---><--6---><--7---><--8---><--9---><--10-->
$$$$$$$$$$$$$$$$$$$$$$$$$$$$$$$$$$$ Default $$$$$$$$$$$$$$$$$$$$$$$$$$$$$$$$$$$$
CQUAD4         1       1       2      20      22      19   0.0+0   0.0+0
CQUAD4         2       1      20       6      21      22   0.0+0   0.0+0
CQUAD4         3       1      22      16       5      19   0.0+0   0.0+0
CQUAD4         4       1      22      21       9      16   0.0+0   0.0+0
CQUAD4         5       1       6      23      25      21   0.0+0   0.0+0
CQUAD4         6       1      21      25      11       9   0.0+0   0.0+0
CQUAD4         7       1      16      18      15       5   0.0+0   0.0+0
CQUAD4         8       1      16       9      10      18   0.0+0   0.0+0
CQUAD4         9       1       9      11      14      10   0.0+0   0.0+0
CQUAD4        10       1      23       3      24      25   0.0+0   0.0+0
CQUAD4        11       1      25      24       7      11   0.0+0   0.0+0
CQUAD4        12       1      11       7      12      14   0.0+0   0.0+0
CQUAD4        13       1      18      17       1      15   0.0+0   0.0+0
CQUAD4        14       1      18      10       8      17   0.0+0   0.0+0
CQUAD4        15       1      10      14      13       8   0.0+0   0.0+0
CQUAD4        16       1      14      12       4      13   0.0+0   0.0+0
$--1---><--2---><--3---><--4---><--5---><--6---><--7---><--8---><--9---><--10-->
$$$$$$$$$$$$$$$$$$$$$$$$$$$$$$$$$$$$ force $$$$$$$$$$$$$$$$$$$$$$$$$$$$$$$$$$$$$
FORCE          2       2       0   1.0+0   0.0+0   0.0+0  1.25-1
FORCE          2      20       0   1.0+0   0.0+0   0.0+0   2.5-1
FORCE          2       6       0   1.0+0   0.0+0   0.0+0   2.5-1
FORCE          2      23       0   1.0+0   0.0+0   0.0+0   2.5-1
FORCE          2       3       0   1.0+0   0.0+0   0.0+0  1.25-1
$--1---><--2---><--3---><--4---><--5---><--6---><--7---><--8---><--9---><--10-->
LOAD           1   1.0+0   1.0+0       2
PSHELL   ,        1,  1000001, 5.6000-2,  2000001,      1.0,  3000001
MAT2     ,  1000001, 1.2861+7, 1.6868+6, 1.2658+6, 7.7981+6, 1.2658+6, 1.9072+6
MAT2     ,  2000001, 1.6907+7, 1.9131+6, 1.5031+6, 3.2998+6, 1.5031+6, 2.1335+6
MAT2     ,  3000001, 7.0000+5, 0.0000+0, 0.0000+0, 7.0000+5, 0.0000+0, 0.0000+0

ENDDATA 
