$ Generated by Mecway 33
$-----------------------EXECUTIVE CONTROL SECTION-----------------------
SOL 105
CEND
$-------------------------CASE CONTROL SECTION--------------------------
DISPLACEMENT = ALL
SPC = 1
SUBCASE 1
LOAD = 1
SUBCASE 2
METHOD = 1
BEGIN BULK
$---------------------------BULK DATA SECTION---------------------------
GRID           1       0   0.0+0   0.0+0   0.0+0       0
GRID           2       0   1.0+1   0.0+0   0.0+0       0
GRID           3       0   1.0+1   1.0+1   0.0+0       0
GRID           4       0   0.0+0   1.0+1   0.0+0       0
GRID           5       0   5.0+0   0.0+0   0.0+0       0
GRID           6       0   1.0+1   5.0+0   0.0+0       0
GRID           7       0   5.0+0   1.0+1   0.0+0       0
GRID           8       0   0.0+0   5.0+0   0.0+0       0
GRID           9       0   5.0+0   5.0+0   0.0+0       0
GRID          10       0   2.5+0   5.0+0   0.0+0       0
GRID          11       0   5.0+0   7.5+0   0.0+0       0
GRID          12       0   2.5+0   1.0+1   0.0+0       0
GRID          13       0   0.0+0   7.5+0   0.0+0       0
GRID          14       0   2.5+0   7.5+0   0.0+0       0
GRID          15       0   2.5+0   0.0+0   0.0+0       0
GRID          16       0   5.0+0   2.5+0   0.0+0       0
GRID          17       0   0.0+0   2.5+0   0.0+0       0
GRID          18       0   2.5+0   2.5+0   0.0+0       0
GRID          19       0   7.5+0   0.0+0   0.0+0       0
GRID          20       0   1.0+1   2.5+0   0.0+0       0
GRID          21       0   7.5+0   5.0+0   0.0+0       0
GRID          22       0   7.5+0   2.5+0   0.0+0       0
GRID          23       0   1.0+1   7.5+0   0.0+0       0
GRID          24       0   7.5+0   1.0+1   0.0+0       0
GRID          25       0   7.5+0   7.5+0   0.0+0       0
GRID          26       0  6.25+0   5.0+0   0.0+0       0
GRID          27       0   7.5+0  6.25+0   0.0+0       0
GRID          28       0  6.25+0   7.5+0   0.0+0       0
GRID          29       0   5.0+0  6.25+0   0.0+0       0
GRID          30       0  6.25+0  6.25+0   0.0+0       0
GRID          31       0  8.75+0   5.0+0   0.0+0       0
GRID          32       0   1.0+1  6.25+0   0.0+0       0
GRID          33       0  8.75+0   7.5+0   0.0+0       0
GRID          34       0  8.75+0  6.25+0   0.0+0       0
GRID          35       0   1.0+1  8.75+0   0.0+0       0
GRID          36       0  8.75+0   1.0+1   0.0+0       0
GRID          37       0   7.5+0  8.75+0   0.0+0       0
GRID          38       0  8.75+0  8.75+0   0.0+0       0
GRID          39       0  6.25+0   1.0+1   0.0+0       0
GRID          40       0   5.0+0  8.75+0   0.0+0       0
GRID          41       0  6.25+0  8.75+0   0.0+0       0
GRID          42       0  1.25+0   5.0+0   0.0+0       0
GRID          43       0   2.5+0  6.25+0   0.0+0       0
GRID          44       0  1.25+0   7.5+0   0.0+0       0
GRID          45       0   0.0+0  6.25+0   0.0+0       0
GRID          46       0  1.25+0  6.25+0   0.0+0       0
GRID          47       0  3.75+0   5.0+0   0.0+0       0
GRID          48       0  3.75+0   7.5+0   0.0+0       0
GRID          49       0  3.75+0  6.25+0   0.0+0       0
GRID          50       0  3.75+0   1.0+1   0.0+0       0
GRID          51       0   2.5+0  8.75+0   0.0+0       0
GRID          52       0  3.75+0  8.75+0   0.0+0       0
GRID          53       0  1.25+0   1.0+1   0.0+0       0
GRID          54       0   0.0+0  8.75+0   0.0+0       0
GRID          55       0  1.25+0  8.75+0   0.0+0       0
GRID          56       0  1.25+0   0.0+0   0.0+0       0
GRID          57       0   2.5+0  1.25+0   0.0+0       0
GRID          58       0  1.25+0   2.5+0   0.0+0       0
GRID          59       0   0.0+0  1.25+0   0.0+0       0
GRID          60       0  1.25+0  1.25+0   0.0+0       0
GRID          61       0  3.75+0   0.0+0   0.0+0       0
GRID          62       0   5.0+0  1.25+0   0.0+0       0
GRID          63       0  3.75+0   2.5+0   0.0+0       0
GRID          64       0  3.75+0  1.25+0   0.0+0       0
GRID          65       0   5.0+0  3.75+0   0.0+0       0
GRID          66       0   2.5+0  3.75+0   0.0+0       0
GRID          67       0  3.75+0  3.75+0   0.0+0       0
GRID          68       0   0.0+0  3.75+0   0.0+0       0
GRID          69       0  1.25+0  3.75+0   0.0+0       0
GRID          70       0  6.25+0   0.0+0   0.0+0       0
GRID          71       0   7.5+0  1.25+0   0.0+0       0
GRID          72       0  6.25+0   2.5+0   0.0+0       0
GRID          73       0  6.25+0  1.25+0   0.0+0       0
GRID          74       0  8.75+0   0.0+0   0.0+0       0
GRID          75       0   1.0+1  1.25+0   0.0+0       0
GRID          76       0  8.75+0   2.5+0   0.0+0       0
GRID          77       0  8.75+0  1.25+0   0.0+0       0
GRID          78       0   1.0+1  3.75+0   0.0+0       0
GRID          79       0   7.5+0  3.75+0   0.0+0       0
GRID          80       0  8.75+0  3.75+0   0.0+0       0
GRID          81       0  6.25+0  3.75+0   0.0+0       0
GRID          82       0 5.625+0   0.0+0   0.0+0       0
GRID          83       0  6.25+0  6.25-1   0.0+0       0
GRID          84       0 5.625+0  1.25+0   0.0+0       0
GRID          85       0   5.0+0  6.25-1   0.0+0       0
GRID          86       0 5.625+0  6.25-1   0.0+0       0
GRID          87       0 6.875+0   0.0+0   0.0+0       0
GRID          88       0   7.5+0  6.25-1   0.0+0       0
GRID          89       0 6.875+0  1.25+0   0.0+0       0
GRID          90       0 6.875+0  6.25-1   0.0+0       0
GRID          91       0   7.5+0 1.875+0   0.0+0       0
GRID          92       0 6.875+0   2.5+0   0.0+0       0
GRID          93       0  6.25+0 1.875+0   0.0+0       0
GRID          94       0 6.875+0 1.875+0   0.0+0       0
GRID          95       0 5.625+0   2.5+0   0.0+0       0
GRID          96       0   5.0+0 1.875+0   0.0+0       0
GRID          97       0 5.625+0 1.875+0   0.0+0       0
GRID          98       0 8.125+0   0.0+0   0.0+0       0
GRID          99       0  8.75+0  6.25-1   0.0+0       0
GRID         100       0 8.125+0  1.25+0   0.0+0       0
GRID         101       0 8.125+0  6.25-1   0.0+0       0
GRID         102       0 9.375+0   0.0+0   0.0+0       0
GRID         103       0   1.0+1  6.25-1   0.0+0       0
GRID         104       0 9.375+0  1.25+0   0.0+0       0
GRID         105       0 9.375+0  6.25-1   0.0+0       0
GRID         106       0   1.0+1 1.875+0   0.0+0       0
GRID         107       0 9.375+0   2.5+0   0.0+0       0
GRID         108       0  8.75+0 1.875+0   0.0+0       0
GRID         109       0 9.375+0 1.875+0   0.0+0       0
GRID         110       0 8.125+0   2.5+0   0.0+0       0
GRID         111       0 8.125+0 1.875+0   0.0+0       0
GRID         112       0  8.75+0 3.125+0   0.0+0       0
GRID         113       0 8.125+0  3.75+0   0.0+0       0
GRID         114       0   7.5+0 3.125+0   0.0+0       0
GRID         115       0 8.125+0 3.125+0   0.0+0       0
GRID         116       0   1.0+1 3.125+0   0.0+0       0
GRID         117       0 9.375+0  3.75+0   0.0+0       0
GRID         118       0 9.375+0 3.125+0   0.0+0       0
GRID         119       0   1.0+1 4.375+0   0.0+0       0
GRID         120       0 9.375+0   5.0+0   0.0+0       0
GRID         121       0  8.75+0 4.375+0   0.0+0       0
GRID         122       0 9.375+0 4.375+0   0.0+0       0
GRID         123       0 8.125+0   5.0+0   0.0+0       0
GRID         124       0   7.5+0 4.375+0   0.0+0       0
GRID         125       0 8.125+0 4.375+0   0.0+0       0
GRID         126       0  6.25+0 3.125+0   0.0+0       0
GRID         127       0 5.625+0  3.75+0   0.0+0       0
GRID         128       0   5.0+0 3.125+0   0.0+0       0
GRID         129       0 5.625+0 3.125+0   0.0+0       0
GRID         130       0 6.875+0  3.75+0   0.0+0       0
GRID         131       0 6.875+0 3.125+0   0.0+0       0
GRID         132       0 6.875+0   5.0+0   0.0+0       0
GRID         133       0  6.25+0 4.375+0   0.0+0       0
GRID         134       0 6.875+0 4.375+0   0.0+0       0
GRID         135       0 5.625+0   5.0+0   0.0+0       0
GRID         136       0   5.0+0 4.375+0   0.0+0       0
GRID         137       0 5.625+0 4.375+0   0.0+0       0
GRID         138       0  6.25+0 5.625+0   0.0+0       0
GRID         139       0 5.625+0  6.25+0   0.0+0       0
GRID         140       0   5.0+0 5.625+0   0.0+0       0
GRID         141       0 5.625+0 5.625+0   0.0+0       0
GRID         142       0   7.5+0 5.625+0   0.0+0       0
GRID         143       0 6.875+0  6.25+0   0.0+0       0
GRID         144       0 6.875+0 5.625+0   0.0+0       0
GRID         145       0   7.5+0 6.875+0   0.0+0       0
GRID         146       0 6.875+0   7.5+0   0.0+0       0
GRID         147       0  6.25+0 6.875+0   0.0+0       0
GRID         148       0 6.875+0 6.875+0   0.0+0       0
GRID         149       0 5.625+0   7.5+0   0.0+0       0
GRID         150       0   5.0+0 6.875+0   0.0+0       0
GRID         151       0 5.625+0 6.875+0   0.0+0       0
GRID         152       0  8.75+0 5.625+0   0.0+0       0
GRID         153       0 8.125+0  6.25+0   0.0+0       0
GRID         154       0 8.125+0 5.625+0   0.0+0       0
GRID         155       0   1.0+1 5.625+0   0.0+0       0
GRID         156       0 9.375+0  6.25+0   0.0+0       0
GRID         157       0 9.375+0 5.625+0   0.0+0       0
GRID         158       0   1.0+1 6.875+0   0.0+0       0
GRID         159       0 9.375+0   7.5+0   0.0+0       0
GRID         160       0  8.75+0 6.875+0   0.0+0       0
GRID         161       0 9.375+0 6.875+0   0.0+0       0
GRID         162       0 8.125+0   7.5+0   0.0+0       0
GRID         163       0 8.125+0 6.875+0   0.0+0       0
GRID         164       0  8.75+0 8.125+0   0.0+0       0
GRID         165       0 8.125+0  8.75+0   0.0+0       0
GRID         166       0   7.5+0 8.125+0   0.0+0       0
GRID         167       0 8.125+0 8.125+0   0.0+0       0
GRID         168       0   1.0+1 8.125+0   0.0+0       0
GRID         169       0 9.375+0  8.75+0   0.0+0       0
GRID         170       0 9.375+0 8.125+0   0.0+0       0
GRID         171       0   1.0+1 9.375+0   0.0+0       0
GRID         172       0 9.375+0   1.0+1   0.0+0       0
GRID         173       0  8.75+0 9.375+0   0.0+0       0
GRID         174       0 9.375+0 9.375+0   0.0+0       0
GRID         175       0 8.125+0   1.0+1   0.0+0       0
GRID         176       0   7.5+0 9.375+0   0.0+0       0
GRID         177       0 8.125+0 9.375+0   0.0+0       0
GRID         178       0  6.25+0 8.125+0   0.0+0       0
GRID         179       0 5.625+0  8.75+0   0.0+0       0
GRID         180       0   5.0+0 8.125+0   0.0+0       0
GRID         181       0 5.625+0 8.125+0   0.0+0       0
GRID         182       0 6.875+0  8.75+0   0.0+0       0
GRID         183       0 6.875+0 8.125+0   0.0+0       0
GRID         184       0 6.875+0   1.0+1   0.0+0       0
GRID         185       0  6.25+0 9.375+0   0.0+0       0
GRID         186       0 6.875+0 9.375+0   0.0+0       0
GRID         187       0 5.625+0   1.0+1   0.0+0       0
GRID         188       0   5.0+0 9.375+0   0.0+0       0
GRID         189       0 5.625+0 9.375+0   0.0+0       0
GRID         190       0  6.25-1   5.0+0   0.0+0       0
GRID         191       0  1.25+0 5.625+0   0.0+0       0
GRID         192       0  6.25-1  6.25+0   0.0+0       0
GRID         193       0   0.0+0 5.625+0   0.0+0       0
GRID         194       0  6.25-1 5.625+0   0.0+0       0
GRID         195       0 1.875+0   5.0+0   0.0+0       0
GRID         196       0   2.5+0 5.625+0   0.0+0       0
GRID         197       0 1.875+0  6.25+0   0.0+0       0
GRID         198       0 1.875+0 5.625+0   0.0+0       0
GRID         199       0   2.5+0 6.875+0   0.0+0       0
GRID         200       0 1.875+0   7.5+0   0.0+0       0
GRID         201       0  1.25+0 6.875+0   0.0+0       0
GRID         202       0 1.875+0 6.875+0   0.0+0       0
GRID         203       0  6.25-1   7.5+0   0.0+0       0
GRID         204       0   0.0+0 6.875+0   0.0+0       0
GRID         205       0  6.25-1 6.875+0   0.0+0       0
GRID         206       0 3.125+0   5.0+0   0.0+0       0
GRID         207       0  3.75+0 5.625+0   0.0+0       0
GRID         208       0 3.125+0  6.25+0   0.0+0       0
GRID         209       0 3.125+0 5.625+0   0.0+0       0
GRID         210       0 4.375+0   5.0+0   0.0+0       0
GRID         211       0 4.375+0  6.25+0   0.0+0       0
GRID         212       0 4.375+0 5.625+0   0.0+0       0
GRID         213       0 4.375+0   7.5+0   0.0+0       0
GRID         214       0  3.75+0 6.875+0   0.0+0       0
GRID         215       0 4.375+0 6.875+0   0.0+0       0
GRID         216       0 3.125+0   7.5+0   0.0+0       0
GRID         217       0 3.125+0 6.875+0   0.0+0       0
GRID         218       0  3.75+0 8.125+0   0.0+0       0
GRID         219       0 3.125+0  8.75+0   0.0+0       0
GRID         220       0   2.5+0 8.125+0   0.0+0       0
GRID         221       0 3.125+0 8.125+0   0.0+0       0
GRID         222       0 4.375+0  8.75+0   0.0+0       0
GRID         223       0 4.375+0 8.125+0   0.0+0       0
GRID         224       0 4.375+0   1.0+1   0.0+0       0
GRID         225       0  3.75+0 9.375+0   0.0+0       0
GRID         226       0 4.375+0 9.375+0   0.0+0       0
GRID         227       0 3.125+0   1.0+1   0.0+0       0
GRID         228       0   2.5+0 9.375+0   0.0+0       0
GRID         229       0 3.125+0 9.375+0   0.0+0       0
GRID         230       0  1.25+0 8.125+0   0.0+0       0
GRID         231       0  6.25-1  8.75+0   0.0+0       0
GRID         232       0   0.0+0 8.125+0   0.0+0       0
GRID         233       0  6.25-1 8.125+0   0.0+0       0
GRID         234       0 1.875+0  8.75+0   0.0+0       0
GRID         235       0 1.875+0 8.125+0   0.0+0       0
GRID         236       0 1.875+0   1.0+1   0.0+0       0
GRID         237       0  1.25+0 9.375+0   0.0+0       0
GRID         238       0 1.875+0 9.375+0   0.0+0       0
GRID         239       0  6.25-1   1.0+1   0.0+0       0
GRID         240       0   0.0+0 9.375+0   0.0+0       0
GRID         241       0  6.25-1 9.375+0   0.0+0       0
GRID         242       0  6.25-1   0.0+0   0.0+0       0
GRID         243       0  1.25+0  6.25-1   0.0+0       0
GRID         244       0  6.25-1  1.25+0   0.0+0       0
GRID         245       0   0.0+0  6.25-1   0.0+0       0
GRID         246       0  6.25-1  6.25-1   0.0+0       0
GRID         247       0 1.875+0   0.0+0   0.0+0       0
GRID         248       0   2.5+0  6.25-1   0.0+0       0
GRID         249       0 1.875+0  1.25+0   0.0+0       0
GRID         250       0 1.875+0  6.25-1   0.0+0       0
GRID         251       0   2.5+0 1.875+0   0.0+0       0
GRID         252       0 1.875+0   2.5+0   0.0+0       0
GRID         253       0  1.25+0 1.875+0   0.0+0       0
GRID         254       0 1.875+0 1.875+0   0.0+0       0
GRID         255       0  6.25-1   2.5+0   0.0+0       0
GRID         256       0   0.0+0 1.875+0   0.0+0       0
GRID         257       0  6.25-1 1.875+0   0.0+0       0
GRID         258       0 3.125+0   0.0+0   0.0+0       0
GRID         259       0  3.75+0  6.25-1   0.0+0       0
GRID         260       0 3.125+0  1.25+0   0.0+0       0
GRID         261       0 3.125+0  6.25-1   0.0+0       0
GRID         262       0 4.375+0   0.0+0   0.0+0       0
GRID         263       0 4.375+0  1.25+0   0.0+0       0
GRID         264       0 4.375+0  6.25-1   0.0+0       0
GRID         265       0 4.375+0   2.5+0   0.0+0       0
GRID         266       0  3.75+0 1.875+0   0.0+0       0
GRID         267       0 4.375+0 1.875+0   0.0+0       0
GRID         268       0 3.125+0   2.5+0   0.0+0       0
GRID         269       0 3.125+0 1.875+0   0.0+0       0
GRID         270       0  3.75+0 3.125+0   0.0+0       0
GRID         271       0 3.125+0  3.75+0   0.0+0       0
GRID         272       0   2.5+0 3.125+0   0.0+0       0
GRID         273       0 3.125+0 3.125+0   0.0+0       0
GRID         274       0 4.375+0  3.75+0   0.0+0       0
GRID         275       0 4.375+0 3.125+0   0.0+0       0
GRID         276       0  3.75+0 4.375+0   0.0+0       0
GRID         277       0 4.375+0 4.375+0   0.0+0       0
GRID         278       0   2.5+0 4.375+0   0.0+0       0
GRID         279       0 3.125+0 4.375+0   0.0+0       0
GRID         280       0  1.25+0 3.125+0   0.0+0       0
GRID         281       0  6.25-1  3.75+0   0.0+0       0
GRID         282       0   0.0+0 3.125+0   0.0+0       0
GRID         283       0  6.25-1 3.125+0   0.0+0       0
GRID         284       0 1.875+0  3.75+0   0.0+0       0
GRID         285       0 1.875+0 3.125+0   0.0+0       0
GRID         286       0  1.25+0 4.375+0   0.0+0       0
GRID         287       0 1.875+0 4.375+0   0.0+0       0
GRID         288       0   0.0+0 4.375+0   0.0+0       0
GRID         289       0  6.25-1 4.375+0   0.0+0       0
PARAM    STR_CID      -2
$--1---><--2---><--3---><--4---><--5---><--6---><--7---><--8---><--9---><--10-->
SPC            1       1       1   0.0+0
SPC            1       1       2   0.0+0
SPC            1       1       3   0.0+0
SPC            1       2       3   0.0+0
SPC            1       3       3   0.0+0
SPC            1       4       3   0.0+0
SPC            1       4       1   0.0+0
SPC            1       5       3   0.0+0
SPC            1       6       3   0.0+0
SPC            1       7       3   0.0+0
SPC            1       8       3   0.0+0
SPC            1      12       3   0.0+0
SPC            1      13       3   0.0+0
SPC            1      15       3   0.0+0
SPC            1      17       3   0.0+0
SPC            1      19       3   0.0+0
SPC            1      20       3   0.0+0
SPC            1      23       3   0.0+0
SPC            1      24       3   0.0+0
SPC            1      32       3   0.0+0
SPC            1      35       3   0.0+0
SPC            1      36       3   0.0+0
SPC            1      39       3   0.0+0
SPC            1      45       3   0.0+0
SPC            1      50       3   0.0+0
SPC            1      53       3   0.0+0
SPC            1      54       3   0.0+0
SPC            1      56       3   0.0+0
SPC            1      59       3   0.0+0
SPC            1      61       3   0.0+0
SPC            1      68       3   0.0+0
SPC            1      70       3   0.0+0
SPC            1      74       3   0.0+0
SPC            1      75       3   0.0+0
SPC            1      78       3   0.0+0
SPC            1      82       3   0.0+0
SPC            1      87       3   0.0+0
SPC            1      98       3   0.0+0
SPC            1     102       3   0.0+0
SPC            1     103       3   0.0+0
SPC            1     106       3   0.0+0
SPC            1     116       3   0.0+0
SPC            1     119       3   0.0+0
SPC            1     155       3   0.0+0
SPC            1     158       3   0.0+0
SPC            1     168       3   0.0+0
SPC            1     171       3   0.0+0
SPC            1     172       3   0.0+0
SPC            1     175       3   0.0+0
SPC            1     184       3   0.0+0
SPC            1     187       3   0.0+0
SPC            1     193       3   0.0+0
SPC            1     204       3   0.0+0
SPC            1     224       3   0.0+0
SPC            1     227       3   0.0+0
SPC            1     232       3   0.0+0
SPC            1     236       3   0.0+0
SPC            1     239       3   0.0+0
SPC            1     240       3   0.0+0
SPC            1     242       3   0.0+0
SPC            1     245       3   0.0+0
SPC            1     247       3   0.0+0
SPC            1     256       3   0.0+0
SPC            1     258       3   0.0+0
SPC            1     262       3   0.0+0
SPC            1     282       3   0.0+0
SPC            1     288       3   0.0+0
$--1---><--2---><--3---><--4---><--5---><--6---><--7---><--8---><--9---><--10-->
$$$$$$$$$$$$$$$$$$$$$$$$$$$$$$$$$$$ Default $$$$$$$$$$$$$$$$$$$$$$$$$$$$$$$$$$$$
CQUAD4         1       1       1     242     246     245   0.0+0   0.0+0
CQUAD4         2       1     242      56     243     246   0.0+0   0.0+0
CQUAD4         3       1     246     243      60     244   0.0+0   0.0+0
CQUAD4         4       1     245     246     244      59   0.0+0   0.0+0
CQUAD4         5       1      56     247     250     243   0.0+0   0.0+0
CQUAD4         6       1     247      15     248     250   0.0+0   0.0+0
CQUAD4         7       1     250     248      57     249   0.0+0   0.0+0
CQUAD4         8       1     243     250     249      60   0.0+0   0.0+0
CQUAD4         9       1      60     249     254     253   0.0+0   0.0+0
CQUAD4        10       1     249      57     251     254   0.0+0   0.0+0
CQUAD4        11       1     254     251      18     252   0.0+0   0.0+0
CQUAD4        12       1     253     254     252      58   0.0+0   0.0+0
CQUAD4        13       1      59     244     257     256   0.0+0   0.0+0
CQUAD4        14       1     244      60     253     257   0.0+0   0.0+0
CQUAD4        15       1     257     253      58     255   0.0+0   0.0+0
CQUAD4        16       1     256     257     255      17   0.0+0   0.0+0
CQUAD4        17       1      15     258     261     248   0.0+0   0.0+0
CQUAD4        18       1     258      61     259     261   0.0+0   0.0+0
CQUAD4        19       1     261     259      64     260   0.0+0   0.0+0
CQUAD4        20       1     248     261     260      57   0.0+0   0.0+0
CQUAD4        21       1      61     262     264     259   0.0+0   0.0+0
CQUAD4        22       1     262       5      85     264   0.0+0   0.0+0
CQUAD4        23       1     264      85      62     263   0.0+0   0.0+0
CQUAD4        24       1     259     264     263      64   0.0+0   0.0+0
CQUAD4        25       1      64     263     267     266   0.0+0   0.0+0
CQUAD4        26       1     263      62      96     267   0.0+0   0.0+0
CQUAD4        27       1     267      96      16     265   0.0+0   0.0+0
CQUAD4        28       1     266     267     265      63   0.0+0   0.0+0
CQUAD4        29       1      57     260     269     251   0.0+0   0.0+0
CQUAD4        30       1     260      64     266     269   0.0+0   0.0+0
CQUAD4        31       1     269     266      63     268   0.0+0   0.0+0
CQUAD4        32       1     251     269     268      18   0.0+0   0.0+0
CQUAD4        33       1      18     268     273     272   0.0+0   0.0+0
CQUAD4        34       1     268      63     270     273   0.0+0   0.0+0
CQUAD4        35       1     273     270      67     271   0.0+0   0.0+0
CQUAD4        36       1     272     273     271      66   0.0+0   0.0+0
CQUAD4        37       1      63     265     275     270   0.0+0   0.0+0
CQUAD4        38       1     265      16     128     275   0.0+0   0.0+0
CQUAD4        39       1     275     128      65     274   0.0+0   0.0+0
CQUAD4        40       1     270     275     274      67   0.0+0   0.0+0
CQUAD4        41       1      67     274     277     276   0.0+0   0.0+0
CQUAD4        42       1     274      65     136     277   0.0+0   0.0+0
CQUAD4        43       1     277     136       9     210   0.0+0   0.0+0
CQUAD4        44       1     276     277     210      47   0.0+0   0.0+0
CQUAD4        45       1      66     271     279     278   0.0+0   0.0+0
CQUAD4        46       1     271      67     276     279   0.0+0   0.0+0
CQUAD4        47       1     279     276      47     206   0.0+0   0.0+0
CQUAD4        48       1     278     279     206      10   0.0+0   0.0+0
CQUAD4        49       1      17     255     283     282   0.0+0   0.0+0
CQUAD4        50       1     255      58     280     283   0.0+0   0.0+0
CQUAD4        51       1     283     280      69     281   0.0+0   0.0+0
CQUAD4        52       1     282     283     281      68   0.0+0   0.0+0
CQUAD4        53       1      58     252     285     280   0.0+0   0.0+0
CQUAD4        54       1     252      18     272     285   0.0+0   0.0+0
CQUAD4        55       1     285     272      66     284   0.0+0   0.0+0
CQUAD4        56       1     280     285     284      69   0.0+0   0.0+0
CQUAD4        57       1      69     284     287     286   0.0+0   0.0+0
CQUAD4        58       1     284      66     278     287   0.0+0   0.0+0
CQUAD4        59       1     287     278      10     195   0.0+0   0.0+0
CQUAD4        60       1     286     287     195      42   0.0+0   0.0+0
CQUAD4        61       1      68     281     289     288   0.0+0   0.0+0
CQUAD4        62       1     281      69     286     289   0.0+0   0.0+0
CQUAD4        63       1     289     286      42     190   0.0+0   0.0+0
CQUAD4        64       1     288     289     190       8   0.0+0   0.0+0
CQUAD4        65       1       5      82      86      85   0.0+0   0.0+0
CQUAD4        66       1      82      70      83      86   0.0+0   0.0+0
CQUAD4        67       1      86      83      73      84   0.0+0   0.0+0
CQUAD4        68       1      85      86      84      62   0.0+0   0.0+0
CQUAD4        69       1      70      87      90      83   0.0+0   0.0+0
CQUAD4        70       1      87      19      88      90   0.0+0   0.0+0
CQUAD4        71       1      90      88      71      89   0.0+0   0.0+0
CQUAD4        72       1      83      90      89      73   0.0+0   0.0+0
CQUAD4        73       1      73      89      94      93   0.0+0   0.0+0
CQUAD4        74       1      89      71      91      94   0.0+0   0.0+0
CQUAD4        75       1      94      91      22      92   0.0+0   0.0+0
CQUAD4        76       1      93      94      92      72   0.0+0   0.0+0
CQUAD4        77       1      62      84      97      96   0.0+0   0.0+0
CQUAD4        78       1      84      73      93      97   0.0+0   0.0+0
CQUAD4        79       1      97      93      72      95   0.0+0   0.0+0
CQUAD4        80       1      96      97      95      16   0.0+0   0.0+0
CQUAD4        81       1      19      98     101      88   0.0+0   0.0+0
CQUAD4        82       1      98      74      99     101   0.0+0   0.0+0
CQUAD4        83       1     101      99      77     100   0.0+0   0.0+0
CQUAD4        84       1      88     101     100      71   0.0+0   0.0+0
CQUAD4        85       1      74     102     105      99   0.0+0   0.0+0
CQUAD4        86       1     102       2     103     105   0.0+0   0.0+0
CQUAD4        87       1     105     103      75     104   0.0+0   0.0+0
CQUAD4        88       1      99     105     104      77   0.0+0   0.0+0
CQUAD4        89       1      77     104     109     108   0.0+0   0.0+0
CQUAD4        90       1     104      75     106     109   0.0+0   0.0+0
CQUAD4        91       1     109     106      20     107   0.0+0   0.0+0
CQUAD4        92       1     108     109     107      76   0.0+0   0.0+0
CQUAD4        93       1      71     100     111      91   0.0+0   0.0+0
CQUAD4        94       1     100      77     108     111   0.0+0   0.0+0
CQUAD4        95       1     111     108      76     110   0.0+0   0.0+0
CQUAD4        96       1      91     111     110      22   0.0+0   0.0+0
CQUAD4        97       1      22     110     115     114   0.0+0   0.0+0
CQUAD4        98       1     110      76     112     115   0.0+0   0.0+0
CQUAD4        99       1     115     112      80     113   0.0+0   0.0+0
CQUAD4       100       1     114     115     113      79   0.0+0   0.0+0
CQUAD4       101       1      76     107     118     112   0.0+0   0.0+0
CQUAD4       102       1     107      20     116     118   0.0+0   0.0+0
CQUAD4       103       1     118     116      78     117   0.0+0   0.0+0
CQUAD4       104       1     112     118     117      80   0.0+0   0.0+0
CQUAD4       105       1      80     117     122     121   0.0+0   0.0+0
CQUAD4       106       1     117      78     119     122   0.0+0   0.0+0
CQUAD4       107       1     122     119       6     120   0.0+0   0.0+0
CQUAD4       108       1     121     122     120      31   0.0+0   0.0+0
CQUAD4       109       1      79     113     125     124   0.0+0   0.0+0
CQUAD4       110       1     113      80     121     125   0.0+0   0.0+0
CQUAD4       111       1     125     121      31     123   0.0+0   0.0+0
CQUAD4       112       1     124     125     123      21   0.0+0   0.0+0
CQUAD4       113       1      16      95     129     128   0.0+0   0.0+0
CQUAD4       114       1      95      72     126     129   0.0+0   0.0+0
CQUAD4       115       1     129     126      81     127   0.0+0   0.0+0
CQUAD4       116       1     128     129     127      65   0.0+0   0.0+0
CQUAD4       117       1      72      92     131     126   0.0+0   0.0+0
CQUAD4       118       1      92      22     114     131   0.0+0   0.0+0
CQUAD4       119       1     131     114      79     130   0.0+0   0.0+0
CQUAD4       120       1     126     131     130      81   0.0+0   0.0+0
CQUAD4       121       1      81     130     134     133   0.0+0   0.0+0
CQUAD4       122       1     130      79     124     134   0.0+0   0.0+0
CQUAD4       123       1     134     124      21     132   0.0+0   0.0+0
CQUAD4       124       1     133     134     132      26   0.0+0   0.0+0
CQUAD4       125       1      65     127     137     136   0.0+0   0.0+0
CQUAD4       126       1     127      81     133     137   0.0+0   0.0+0
CQUAD4       127       1     137     133      26     135   0.0+0   0.0+0
CQUAD4       128       1     136     137     135       9   0.0+0   0.0+0
CQUAD4       129       1       9     135     141     140   0.0+0   0.0+0
CQUAD4       130       1     135      26     138     141   0.0+0   0.0+0
CQUAD4       131       1     141     138      30     139   0.0+0   0.0+0
CQUAD4       132       1     140     141     139      29   0.0+0   0.0+0
CQUAD4       133       1      26     132     144     138   0.0+0   0.0+0
CQUAD4       134       1     132      21     142     144   0.0+0   0.0+0
CQUAD4       135       1     144     142      27     143   0.0+0   0.0+0
CQUAD4       136       1     138     144     143      30   0.0+0   0.0+0
CQUAD4       137       1      30     143     148     147   0.0+0   0.0+0
CQUAD4       138       1     143      27     145     148   0.0+0   0.0+0
CQUAD4       139       1     148     145      25     146   0.0+0   0.0+0
CQUAD4       140       1     147     148     146      28   0.0+0   0.0+0
CQUAD4       141       1      29     139     151     150   0.0+0   0.0+0
CQUAD4       142       1     139      30     147     151   0.0+0   0.0+0
CQUAD4       143       1     151     147      28     149   0.0+0   0.0+0
CQUAD4       144       1     150     151     149      11   0.0+0   0.0+0
CQUAD4       145       1      21     123     154     142   0.0+0   0.0+0
CQUAD4       146       1     123      31     152     154   0.0+0   0.0+0
CQUAD4       147       1     154     152      34     153   0.0+0   0.0+0
CQUAD4       148       1     142     154     153      27   0.0+0   0.0+0
CQUAD4       149       1      31     120     157     152   0.0+0   0.0+0
CQUAD4       150       1     120       6     155     157   0.0+0   0.0+0
CQUAD4       151       1     157     155      32     156   0.0+0   0.0+0
CQUAD4       152       1     152     157     156      34   0.0+0   0.0+0
CQUAD4       153       1      34     156     161     160   0.0+0   0.0+0
CQUAD4       154       1     156      32     158     161   0.0+0   0.0+0
CQUAD4       155       1     161     158      23     159   0.0+0   0.0+0
CQUAD4       156       1     160     161     159      33   0.0+0   0.0+0
CQUAD4       157       1      27     153     163     145   0.0+0   0.0+0
CQUAD4       158       1     153      34     160     163   0.0+0   0.0+0
CQUAD4       159       1     163     160      33     162   0.0+0   0.0+0
CQUAD4       160       1     145     163     162      25   0.0+0   0.0+0
CQUAD4       161       1      25     162     167     166   0.0+0   0.0+0
CQUAD4       162       1     162      33     164     167   0.0+0   0.0+0
CQUAD4       163       1     167     164      38     165   0.0+0   0.0+0
CQUAD4       164       1     166     167     165      37   0.0+0   0.0+0
CQUAD4       165       1      33     159     170     164   0.0+0   0.0+0
CQUAD4       166       1     159      23     168     170   0.0+0   0.0+0
CQUAD4       167       1     170     168      35     169   0.0+0   0.0+0
CQUAD4       168       1     164     170     169      38   0.0+0   0.0+0
CQUAD4       169       1      38     169     174     173   0.0+0   0.0+0
CQUAD4       170       1     169      35     171     174   0.0+0   0.0+0
CQUAD4       171       1     174     171       3     172   0.0+0   0.0+0
CQUAD4       172       1     173     174     172      36   0.0+0   0.0+0
CQUAD4       173       1      37     165     177     176   0.0+0   0.0+0
CQUAD4       174       1     165      38     173     177   0.0+0   0.0+0
CQUAD4       175       1     177     173      36     175   0.0+0   0.0+0
CQUAD4       176       1     176     177     175      24   0.0+0   0.0+0
CQUAD4       177       1      11     149     181     180   0.0+0   0.0+0
CQUAD4       178       1     149      28     178     181   0.0+0   0.0+0
CQUAD4       179       1     181     178      41     179   0.0+0   0.0+0
CQUAD4       180       1     180     181     179      40   0.0+0   0.0+0
CQUAD4       181       1      28     146     183     178   0.0+0   0.0+0
CQUAD4       182       1     146      25     166     183   0.0+0   0.0+0
CQUAD4       183       1     183     166      37     182   0.0+0   0.0+0
CQUAD4       184       1     178     183     182      41   0.0+0   0.0+0
CQUAD4       185       1      41     182     186     185   0.0+0   0.0+0
CQUAD4       186       1     182      37     176     186   0.0+0   0.0+0
CQUAD4       187       1     186     176      24     184   0.0+0   0.0+0
CQUAD4       188       1     185     186     184      39   0.0+0   0.0+0
CQUAD4       189       1      40     179     189     188   0.0+0   0.0+0
CQUAD4       190       1     179      41     185     189   0.0+0   0.0+0
CQUAD4       191       1     189     185      39     187   0.0+0   0.0+0
CQUAD4       192       1     188     189     187       7   0.0+0   0.0+0
CQUAD4       193       1       8     190     194     193   0.0+0   0.0+0
CQUAD4       194       1     190      42     191     194   0.0+0   0.0+0
CQUAD4       195       1     194     191      46     192   0.0+0   0.0+0
CQUAD4       196       1     193     194     192      45   0.0+0   0.0+0
CQUAD4       197       1      42     195     198     191   0.0+0   0.0+0
CQUAD4       198       1     195      10     196     198   0.0+0   0.0+0
CQUAD4       199       1     198     196      43     197   0.0+0   0.0+0
CQUAD4       200       1     191     198     197      46   0.0+0   0.0+0
CQUAD4       201       1      46     197     202     201   0.0+0   0.0+0
CQUAD4       202       1     197      43     199     202   0.0+0   0.0+0
CQUAD4       203       1     202     199      14     200   0.0+0   0.0+0
CQUAD4       204       1     201     202     200      44   0.0+0   0.0+0
CQUAD4       205       1      45     192     205     204   0.0+0   0.0+0
CQUAD4       206       1     192      46     201     205   0.0+0   0.0+0
CQUAD4       207       1     205     201      44     203   0.0+0   0.0+0
CQUAD4       208       1     204     205     203      13   0.0+0   0.0+0
CQUAD4       209       1      10     206     209     196   0.0+0   0.0+0
CQUAD4       210       1     206      47     207     209   0.0+0   0.0+0
CQUAD4       211       1     209     207      49     208   0.0+0   0.0+0
CQUAD4       212       1     196     209     208      43   0.0+0   0.0+0
CQUAD4       213       1      47     210     212     207   0.0+0   0.0+0
CQUAD4       214       1     210       9     140     212   0.0+0   0.0+0
CQUAD4       215       1     212     140      29     211   0.0+0   0.0+0
CQUAD4       216       1     207     212     211      49   0.0+0   0.0+0
CQUAD4       217       1      49     211     215     214   0.0+0   0.0+0
CQUAD4       218       1     211      29     150     215   0.0+0   0.0+0
CQUAD4       219       1     215     150      11     213   0.0+0   0.0+0
CQUAD4       220       1     214     215     213      48   0.0+0   0.0+0
CQUAD4       221       1      43     208     217     199   0.0+0   0.0+0
CQUAD4       222       1     208      49     214     217   0.0+0   0.0+0
CQUAD4       223       1     217     214      48     216   0.0+0   0.0+0
CQUAD4       224       1     199     217     216      14   0.0+0   0.0+0
CQUAD4       225       1      14     216     221     220   0.0+0   0.0+0
CQUAD4       226       1     216      48     218     221   0.0+0   0.0+0
CQUAD4       227       1     221     218      52     219   0.0+0   0.0+0
CQUAD4       228       1     220     221     219      51   0.0+0   0.0+0
CQUAD4       229       1      48     213     223     218   0.0+0   0.0+0
CQUAD4       230       1     213      11     180     223   0.0+0   0.0+0
CQUAD4       231       1     223     180      40     222   0.0+0   0.0+0
CQUAD4       232       1     218     223     222      52   0.0+0   0.0+0
CQUAD4       233       1      52     222     226     225   0.0+0   0.0+0
CQUAD4       234       1     222      40     188     226   0.0+0   0.0+0
CQUAD4       235       1     226     188       7     224   0.0+0   0.0+0
CQUAD4       236       1     225     226     224      50   0.0+0   0.0+0
CQUAD4       237       1      51     219     229     228   0.0+0   0.0+0
CQUAD4       238       1     219      52     225     229   0.0+0   0.0+0
CQUAD4       239       1     229     225      50     227   0.0+0   0.0+0
CQUAD4       240       1     228     229     227      12   0.0+0   0.0+0
CQUAD4       241       1      13     203     233     232   0.0+0   0.0+0
CQUAD4       242       1     203      44     230     233   0.0+0   0.0+0
CQUAD4       243       1     233     230      55     231   0.0+0   0.0+0
CQUAD4       244       1     232     233     231      54   0.0+0   0.0+0
CQUAD4       245       1      44     200     235     230   0.0+0   0.0+0
CQUAD4       246       1     200      14     220     235   0.0+0   0.0+0
CQUAD4       247       1     235     220      51     234   0.0+0   0.0+0
CQUAD4       248       1     230     235     234      55   0.0+0   0.0+0
CQUAD4       249       1      55     234     238     237   0.0+0   0.0+0
CQUAD4       250       1     234      51     228     238   0.0+0   0.0+0
CQUAD4       251       1     238     228      12     236   0.0+0   0.0+0
CQUAD4       252       1     237     238     236      53   0.0+0   0.0+0
CQUAD4       253       1      54     231     241     240   0.0+0   0.0+0
CQUAD4       254       1     231      55     237     241   0.0+0   0.0+0
CQUAD4       255       1     241     237      53     239   0.0+0   0.0+0
CQUAD4       256       1     240     241     239       4   0.0+0   0.0+0
$--1---><--2---><--3---><--4---><--5---><--6---><--7---><--8---><--9---><--10-->
$$$$$$$$$$$$$$$$$$$$$$$$$$$$$$$$$$$$ force $$$$$$$$$$$$$$$$$$$$$$$$$$$$$$$$$$$$$
FORCE          2       8       0   1.0+0  6.25-1   0.0+0   0.0+0
FORCE          2      13       0   1.0+0  6.25-1   0.0+0   0.0+0
FORCE          2      17       0   1.0+0  6.25-1   0.0+0   0.0+0
FORCE          2      45       0   1.0+0  6.25-1   0.0+0   0.0+0
FORCE          2      54       0   1.0+0  6.25-1   0.0+0   0.0+0
FORCE          2      59       0   1.0+0  6.25-1   0.0+0   0.0+0
FORCE          2      68       0   1.0+0  6.25-1   0.0+0   0.0+0
FORCE          2     193       0   1.0+0  6.25-1   0.0+0   0.0+0
FORCE          2     204       0   1.0+0  6.25-1   0.0+0   0.0+0
FORCE          2     232       0   1.0+0  6.25-1   0.0+0   0.0+0
FORCE          2     240       0   1.0+0  6.25-1   0.0+0   0.0+0
FORCE          2     245       0   1.0+0  6.25-1   0.0+0   0.0+0
FORCE          2     256       0   1.0+0  6.25-1   0.0+0   0.0+0
FORCE          2     282       0   1.0+0  6.25-1   0.0+0   0.0+0
FORCE          2     288       0   1.0+0  6.25-1   0.0+0   0.0+0
$--1---><--2---><--3---><--4---><--5---><--6---><--7---><--8---><--9---><--10-->
$$$$$$$$$$$$$$$$$$$$$$$$$$$$$$$$$$$$ force $$$$$$$$$$$$$$$$$$$$$$$$$$$$$$$$$$$$$
FORCE          2       4       0   1.0+0 3.125-1   0.0+0   0.0+0
FORCE          2       1       0   1.0+0 3.125-1   0.0+0   0.0+0
$--1---><--2---><--3---><--4---><--5---><--6---><--7---><--8---><--9---><--10-->
$$$$$$$$$$$$$$$$$$$$$$$$$$$$$$$$$$$$ force $$$$$$$$$$$$$$$$$$$$$$$$$$$$$$$$$$$$$
FORCE          2       6       0   1.0+0 -6.25-1   0.0+0   0.0+0
FORCE          2      20       0   1.0+0 -6.25-1   0.0+0   0.0+0
FORCE          2      23       0   1.0+0 -6.25-1   0.0+0   0.0+0
FORCE          2      32       0   1.0+0 -6.25-1   0.0+0   0.0+0
FORCE          2      35       0   1.0+0 -6.25-1   0.0+0   0.0+0
FORCE          2      75       0   1.0+0 -6.25-1   0.0+0   0.0+0
FORCE          2      78       0   1.0+0 -6.25-1   0.0+0   0.0+0
FORCE          2     103       0   1.0+0 -6.25-1   0.0+0   0.0+0
FORCE          2     106       0   1.0+0 -6.25-1   0.0+0   0.0+0
FORCE          2     116       0   1.0+0 -6.25-1   0.0+0   0.0+0
FORCE          2     119       0   1.0+0 -6.25-1   0.0+0   0.0+0
FORCE          2     155       0   1.0+0 -6.25-1   0.0+0   0.0+0
FORCE          2     158       0   1.0+0 -6.25-1   0.0+0   0.0+0
FORCE          2     168       0   1.0+0 -6.25-1   0.0+0   0.0+0
FORCE          2     171       0   1.0+0 -6.25-1   0.0+0   0.0+0
$--1---><--2---><--3---><--4---><--5---><--6---><--7---><--8---><--9---><--10-->
$$$$$$$$$$$$$$$$$$$$$$$$$$$$$$$$$$$$ force $$$$$$$$$$$$$$$$$$$$$$$$$$$$$$$$$$$$$
FORCE          2       3       0   1.0+0-3.125-1   0.0+0   0.0+0
FORCE          2       2       0   1.0+0-3.125-1   0.0+0   0.0+0
$--1---><--2---><--3---><--4---><--5---><--6---><--7---><--8---><--9---><--10-->
EIGRL          1                       1       0           1.0+0    MASS
LOAD           1   1.0+0   1.0+0       2
PARAM,QUAD4TYP,MITC4+
PARAM,PCOMPEQ,2

PSHELL,1,10,0.056,11,,10

$ MID1
MAT2,10,14652220.,3433359.,1604671.,8233541.,1604671.,4004762.

$ MID2 = D*/(t^3/12)
MAT2,11,1.168253+7,2.885615+6,6.438817+5,5.010838+6,1.604206+6,4.079855+6

ENDDATA 
