$ Generated by Mecway 33
$-----------------------EXECUTIVE CONTROL SECTION-----------------------
SOL 101
CEND
$-------------------------CASE CONTROL SECTION--------------------------
DISPLACEMENT = ALL
SPCFORCES = ALL
MPCFORCES = ALL
STRESS(CORNER) = ALL
STRAIN(CORNER) = ALL
FORCE(CORNER) = ALL
SPC = 1
LOAD = 1
BEGIN BULK
$---------------------------BULK DATA SECTION---------------------------
GRID*                  1               0          -1.5+0           2.1+1*
*        2.59807621135+0               0
GRID*                  2               0-2.29813332936+0           2.0+1*
*        1.92836282906+0               0
GRID*                  3               0          -3.0+0           1.8+1*
*        2.0902469209-15               0
GRID*                  4               0 2.81907786236+0           2.0+1*
*       -1.02606042998+0               0
GRID*                  5               0 5.20944533001-1           1.9+1*
*        2.95442325904+0               0
GRID*                  6               0-5.20944533001-1           2.0+1*
*        2.95442325904+0               0
GRID*                  7               0-2.81907786236+0           1.7+1*
*       -1.02606042998+0               0
GRID*                  8               0-2.81907786236+0           2.1+1*
*       -1.02606042998+0               0
GRID*                  9               0           1.5+0           1.8+1*
*        2.59807621135+0               0
GRID*                 10               0-2.29813332936+0           1.6+1*
*       -1.92836282906+0               0
GRID*                 11               0 5.20944533001-1           2.1+1*
*        2.95442325904+0               0
GRID*                 12               0          -1.5+0           1.7+1*
*       -2.59807621135+0               0
GRID*                 13               0-2.81907786236+0           1.3+1*
*       -1.02606042998+0               0
GRID*                 14               0 2.29813332936+0           1.1+1*
*       -1.92836282906+0               1
GRID*                 15               0           1.5+0           2.0+1*
*        2.59807621135+0               0
GRID*                 16               0 2.29813332936+0           1.3+1*
*       -1.92836282906+0               0
GRID*                 17               0 5.20944533001-1           1.9+1*
*       -2.95442325904+0               0
GRID*                 18               0 2.29813332936+0           1.9+1*
*        1.92836282906+0               0
GRID*                 19               0          -1.5+0           2.1+1*
*       -2.59807621135+0               0
GRID*                 20               0           1.5+0           1.2+1*
*       -2.59807621135+0               0
GRID*                 21               0-2.29813332936+0           1.8+1*
*       -1.92836282906+0               0
GRID*                 22               0           1.5+0           1.4+1*
*       -2.59807621135+0               0
GRID*                 23               0 2.29813332936+0           1.5+1*
*       -1.92836282906+0               0
GRID*                 24               0 5.20944533001-1           1.1+1*
*       -2.95442325904+0               2
GRID*                 25               0 5.20944533001-1           1.3+1*
*       -2.95442325904+0               0
GRID*                 26               0-2.29813332936+0           2.0+1*
*       -1.92836282906+0               0
GRID*                 27               0           3.0+0           1.1+1*
*        4.8466276565-15               0
GRID*                 28               0-2.81907786236+0           1.1+1*
*       -1.02606042998+0               3
GRID*                 29               0           1.5+0           2.0+1*
*       -2.59807621135+0               0
GRID*                 30               0 2.81907786236+0           1.2+1*
*       -1.02606042998+0               0
GRID*                 31               0 2.81907786236+0           1.4+1*
*       -1.02606042998+0               0
GRID*                 32               0 2.81907786236+0           1.6+1*
*        1.02606042998+0               0
GRID*                 33               0-2.81907786236+0           1.5+1*
*        1.02606042998+0               0
GRID*                 34               0 2.29813332936+0           1.7+1*
*        1.92836282906+0               0
GRID*                 35               0           3.0+0           1.7+1*
*        8.5706689955-15               0
GRID*                 36               0           3.0+0           1.3+1*
*        7.9648405384-15               0
GRID*                 37               0          -1.5+0           1.1+1*
*        2.59807621135+0               4
GRID*                 38               0-2.81907786236+0           1.5+1*
*       -1.02606042998+0               0
GRID*                 39               0          -1.5+0           1.3+1*
*        2.59807621135+0               0
GRID*                 40               0          -1.5+0           1.9+1*
*       -2.59807621135+0               0
GRID*                 41               0 2.29813332936+0           1.7+1*
*       -1.92836282906+0               0
GRID*                 42               0 2.81907786236+0           1.6+1*
*       -1.02606042998+0               0
GRID*                 43               0-5.20944533001-1           1.2+1*
*        2.95442325904+0               0
GRID*                 44               0          -3.0+0           1.6+1*
*        2.0902469209-15               0
GRID*                 45               0-5.20944533001-1           1.4+1*
*        2.95442325904+0               0
GRID*                 46               0          -1.5+0           1.5+1*
*        2.59807621135+0               0
GRID*                 47               0 5.20944533001-1           1.1+1*
*        2.95442325904+0               5
GRID*                 48               0 5.20944533001-1           1.3+1*
*        2.95442325904+0               0
GRID*                 49               0          -3.0+0           1.2+1*
*        2.0902469209-15               0
GRID*                 50               0-2.81907786236+0           1.1+1*
*        1.02606042998+0               6
GRID*                 51               0-2.81907786236+0           1.3+1*
*        1.02606042998+0               0
GRID*                 52               0-5.20944533001-1           1.8+1*
*       -2.95442325904+0               0
GRID*                 53               0-2.29813332936+0           1.2+1*
*        1.92836282906+0               0
GRID*                 54               0-2.29813332936+0           1.4+1*
*        1.92836282906+0               0
GRID*                 55               0-2.81907786236+0           1.7+1*
*        1.02606042998+0               0
GRID*                 56               0           3.0+0           1.5+1*
*        8.7975078069-15               0
GRID*                 57               0           1.5+0           1.8+1*
*       -2.59807621135+0               0
GRID*                 58               0          -1.5+0           1.7+1*
*        2.59807621135+0               0
GRID*                 59               0-2.29813332936+0           1.6+1*
*        1.92836282906+0               0
GRID*                 60               0-2.29813332936+0           1.4+1*
*       -1.92836282906+0               0
GRID*                 61               0-2.81907786236+0           1.9+1*
*        1.02606042998+0               0
GRID*                 62               0 2.29813332936+0           2.1+1*
*        1.92836282906+0               0
GRID*                 63               0 2.81907786236+0           1.8+1*
*        1.02606042998+0               0
GRID*                 64               0 2.81907786236+0           2.0+1*
*        1.02606042998+0               0
GRID*                 65               0          -3.0+0           1.4+1*
*        2.0902469209-15               0
GRID*                 66               0 2.29813332936+0           1.9+1*
*       -1.92836282906+0               0
GRID*                 67               0 5.20944533001-1           2.1+1*
*       -2.95442325904+0               0
GRID*                 68               0-5.20944533001-1           2.0+1*
*       -2.95442325904+0               0
GRID*                 69               0          -3.0+0           2.0+1*
*        2.0902469209-15               0
GRID*                 70               0-5.20944533001-1           1.8+1*
*        2.95442325904+0               0
GRID*                 71               0           1.5+0           1.2+1*
*        2.59807621135+0               0
GRID*                 72               0 5.20944533001-1           1.5+1*
*        2.95442325904+0               0
GRID*                 73               0-5.20944533001-1           1.6+1*
*        2.95442325904+0               0
GRID*                 74               0 2.81907786236+0           1.2+1*
*        1.02606042998+0               0
GRID*                 75               0-5.20944533001-1           1.2+1*
*       -2.95442325904+0               0
GRID*                 76               0           1.5+0           1.4+1*
*        2.59807621135+0               0
GRID*                 77               0 5.20944533001-1           1.7+1*
*        2.95442325904+0               0
GRID*                 78               0           1.5+0           1.6+1*
*        2.59807621135+0               0
GRID*                 79               0 5.20944533001-1           1.5+1*
*       -2.95442325904+0               0
GRID*                 80               0 2.29813332936+0           1.3+1*
*        1.92836282906+0               0
GRID*                 81               0 2.29813332936+0           1.1+1*
*        1.92836282906+0               7
GRID*                 82               0 2.29813332936+0           1.5+1*
*        1.92836282906+0               0
GRID*                 83               0           1.5+0           1.6+1*
*       -2.59807621135+0               0
GRID*                 84               0-2.29813332936+0           1.2+1*
*       -1.92836282906+0               0
GRID*                 85               0          -1.5+0           1.9+1*
*        2.59807621135+0               0
GRID*                 86               0-5.20944533001-1           1.4+1*
*       -2.95442325904+0               0
GRID*                 87               0 5.20944533001-1           1.7+1*
*       -2.95442325904+0               0
GRID*                 88               0-5.20944533001-1           1.6+1*
*       -2.95442325904+0               0
GRID*                 89               0 2.81907786236+0           1.8+1*
*       -1.02606042998+0               0
GRID*                 90               0          -1.5+0           1.3+1*
*       -2.59807621135+0               0
GRID*                 91               0          -1.5+0           1.1+1*
*       -2.59807621135+0               8
GRID*                 92               0          -1.5+0           1.5+1*
*       -2.59807621135+0               0
GRID*                 93               0           3.0+0           2.1+1*
*         8.873583224-15               0
GRID*                 94               0 2.81907786236+0           1.4+1*
*        1.02606042998+0               0
GRID*                 95               0-2.81907786236+0           1.9+1*
*       -1.02606042998+0               0
GRID*                 96               0 2.29813332936+0           2.1+1*
*       -1.92836282906+0               0
GRID*                 97               0-2.29813332936+0           1.8+1*
*        1.92836282906+0               0
GRID*                 98               0-2.81907786236+0           2.1+1*
*        1.02606042998+0               0
GRID*                 99               0           3.0+0           1.9+1*
*        8.7975078069-15               0
GRID*                100               0 2.81907786236+0           2.4+1*
*        1.02606042998+0               0
GRID*                101               0           3.0+0           2.5+1*
*        4.8466276565-15               0
GRID*                102               0 2.29813332936+0           2.5+1*
*        1.92836282906+0               0
GRID*                103               0           1.5+0           2.4+1*
*        2.59807621135+0               0
GRID*                104               0 5.20944533001-1           2.5+1*
*        2.95442325904+0               0
GRID*                105               0-5.20944533001-1           2.4+1*
*        2.95442325904+0               0
GRID*                106               0          -1.5+0           2.5+1*
*        2.59807621135+0               0
GRID*                107               0-2.29813332936+0           2.4+1*
*        1.92836282906+0               0
GRID*                108               0-2.81907786236+0           2.5+1*
*        1.02606042998+0               0
GRID*                109               0          -3.0+0           2.4+1*
*        2.0902469209-15               0
GRID*                110               0-2.81907786236+0           2.5+1*
*       -1.02606042998+0               0
GRID*                111               0-2.29813332936+0           2.4+1*
*       -1.92836282906+0               0
GRID*                112               0          -1.5+0           2.5+1*
*       -2.59807621135+0               0
GRID*                113               0-5.20944533001-1           2.4+1*
*       -2.95442325904+0               0
GRID*                114               0 5.20944533001-1           2.5+1*
*       -2.95442325904+0               0
GRID*                115               0           1.5+0           2.4+1*
*       -2.59807621135+0               0
GRID*                116               0 2.29813332936+0           2.5+1*
*       -1.92836282906+0               0
GRID*                117               0 2.81907786236+0           2.4+1*
*       -1.02606042998+0               0
GRID*                118               0-5.20944533001-1           2.2+1*
*        2.95442325904+0               0
GRID*                119               0-2.81907786236+0           2.3+1*
*        1.02606042998+0               0
GRID*                120               0          -3.0+0           2.2+1*
*        2.0902469209-15               0
GRID*                121               0-2.81907786236+0           2.3+1*
*       -1.02606042998+0               0
GRID*                122               0 5.20944533001-1           2.3+1*
*        2.95442325904+0               0
GRID*                123               0 2.81907786236+0           2.2+1*
*        1.02606042998+0               0
GRID*                124               0          -1.5+0           2.3+1*
*       -2.59807621135+0               0
GRID*                125               0           3.0+0           2.3+1*
*        8.7975078069-15               0
GRID*                126               0           1.5+0           2.2+1*
*        2.59807621135+0               0
GRID*                127               0 2.29813332936+0           2.3+1*
*       -1.92836282906+0               0
GRID*                128               0 2.81907786236+0           2.2+1*
*       -1.02606042998+0               0
GRID*                129               0-5.20944533001-1           2.2+1*
*       -2.95442325904+0               0
GRID*                130               0-2.29813332936+0           2.2+1*
*        1.92836282906+0               0
GRID*                131               0 5.20944533001-1           2.3+1*
*       -2.95442325904+0               0
GRID*                132               0 2.29813332936+0           2.3+1*
*        1.92836282906+0               0
GRID*                133               0           1.5+0           2.2+1*
*       -2.59807621135+0               0
GRID*                134               0-2.29813332936+0           2.2+1*
*       -1.92836282906+0               0
GRID*                135               0          -1.5+0           2.3+1*
*        2.59807621135+0               0
PARAM    STR_CID      -2
$--1---><--2---><--3---><--4---><--5---><--6---><--7---><--8---><--9---><--10-->
$$$$$$$$$$$$$$$$$$$$$$$$$$$$$$$$$$$ Material $$$$$$$$$$$$$$$$$$$$$$$$$$$$$$$$$$$
MAT1*                  1          2.0+11 7.6923076923+10           3.0-1*
*                  0.0+0           0.0+0           0.0+0
$--1---><--2---><--3---><--4---><--5---><--6---><--7---><--8---><--9---><--10-->
CORD2R*                1               0           0.0+0           0.0+0*
*                  0.0+0 6.42787609687-1           0.0+0 7.66044443119-1*
*        7.66044443119-1           0.0+0-6.42787609687-1                *
*
CORD2R*                2               0           0.0+0           0.0+0*
*                  0.0+0-1.73648177667-1           0.0+0 9.84807753012-1*
*        9.84807753012-1           0.0+0 1.73648177667-1                *
*
CORD2R*                3               0           0.0+0           0.0+0*
*                  0.0+0-3.42020143326-1           0.0+0 9.39692620786-1*
*        9.39692620786-1           0.0+0 3.42020143326-1                *
*
CORD2R*                4               0           0.0+0           0.0+0*
*                  0.0+0          -5.0-1           0.0+0 8.66025403784-1*
*        8.66025403784-1           0.0+0           5.0-1                *
*
CORD2R*                5               0           0.0+0           0.0+0*
*                  0.0+0 1.73648177667-1           0.0+0 9.84807753012-1*
*        9.84807753012-1           0.0+0-1.73648177667-1                *
*
CORD2R*                6               0           0.0+0           0.0+0*
*                  0.0+0 3.42020143326-1           0.0+0 9.39692620786-1*
*        9.39692620786-1           0.0+0-3.42020143326-1                *
*
CORD2R*                7               0           0.0+0           0.0+0*
*                  0.0+0-6.42787609687-1           0.0+0 7.66044443119-1*
*        7.66044443119-1           0.0+0 6.42787609687-1                *
*
CORD2R*                8               0           0.0+0           0.0+0*
*                  0.0+0           5.0-1           0.0+0 8.66025403784-1*
*        8.66025403784-1           0.0+0          -5.0-1                *
*
SPC            1      14       2   0.0+0
SPC            1      14       6   0.0+0
SPC            1      24       2   0.0+0
SPC            1      24       4   0.0+0
SPC            1      27       2   0.0+0
SPC            1      27       6   0.0+0
SPC            1      28       2   0.0+0
SPC            1      28       6   0.0+0
SPC            1      37       2   0.0+0
SPC            1      37       4   0.0+0
SPC            1      47       2   0.0+0
SPC            1      47       4   0.0+0
SPC            1      50       2   0.0+0
SPC            1      50       6   0.0+0
SPC            1      56       3   0.0+0
SPC            1      56       1   0.0+0
SPC            1      56       5   0.0+0
SPC            1      81       2   0.0+0
SPC            1      81       6   0.0+0
SPC            1      91       2   0.0+0
SPC            1      91       4   0.0+0
SPC            1     101       4   0.0+0
SPC            1     101       6   0.0+0
SPC            1     102       4   0.0+0
SPC            1     102       6   0.0+0
SPC            1     104       4   0.0+0
SPC            1     104       6   0.0+0
SPC            1     106       4   0.0+0
SPC            1     106       6   0.0+0
SPC            1     108       4   0.0+0
SPC            1     108       6   0.0+0
SPC            1     110       4   0.0+0
SPC            1     110       6   0.0+0
SPC            1     112       4   0.0+0
SPC            1     112       6   0.0+0
SPC            1     114       4   0.0+0
SPC            1     114       6   0.0+0
SPC            1     116       4   0.0+0
SPC            1     116       6   0.0+0
$--1---><--2---><--3---><--4---><--5---><--6---><--7---><--8---><--9---><--10-->
$$$$$$$$$$$$$$$$$$$$$$$$$$$$$$$$$$$ Default $$$$$$$$$$$$$$$$$$$$$$$$$$$$$$$$$$$$
PSHELL         9       1   1.0-1       1               1           0.0+0
CQUAD4*                1               9              99              63*
*                     35              89-1.34263067236+2           0.0+0
CQUAD4*                2               9              16              20*
*                     25              22 1.34263067236+2           0.0+0
CQUAD4*                3               9              33              65*
*                     51              54-1.34263067236+2           0.0+0
CQUAD4*                4               9              46              45*
*                     72              73 1.34263067236+2           0.0+0
CQUAD4*                5               9              12              10*
*                      7              21 1.34263067236+2           0.0+0
CQUAD4*                6               9              17              52*
*                     40              68 1.34263067236+2           0.0+0
CQUAD4*                7               9              89              41*
*                     57              66 1.34263067236+2           0.0+0
CQUAD4*                8               9              97              55*
*                     59              58-1.34263067236+2           0.0+0
CQUAD4*                9               9              85              70*
*                      5               6 1.34263067236+2           0.0+0
CQUAD4*               10               9              54              51*
*                     53              39-1.34263067236+2           0.0+0
CQUAD4*               11               9              13              49*
*                     51              65 1.34263067236+2           0.0+0
CQUAD4*               12               9               5               9*
*                     18              15 1.34263067236+2           0.0+0
CQUAD4*               13               9              21               7*
*                      3              95 1.34263067236+2           0.0+0
CQUAD4*               14               9              39              43*
*                     48              45 1.34263067236+2           0.0+0
CQUAD4*               15               9              87              88*
*                     12              52 1.34263067236+2           0.0+0
CQUAD4*               16               9              66              57*
*                     17              29 1.34263067236+2           0.0+0
CQUAD4*               17               9              99              89*
*                     66               4 1.34263067236+2           0.0+0
CQUAD4*               18               9              89              35*
*                     42              41-1.34263067236+2           0.0+0
CQUAD4*               19               9              56              94*
*                     36              31-1.34263067236+2           0.0+0
CQUAD4*               20               9              95               3*
*                     61              69 1.34263067236+2           0.0+0
CQUAD4*               21               9              16              30*
*                     14              20-1.34263067236+2           0.0+0
CQUAD4*               22               9              36              74*
*                     27              30-1.34263067236+2           0.0+0
CQUAD4*               23               9              86              90*
*                     60              92 1.34263067236+2           0.0+0
CQUAD4*               24               9              20              24*
*                     75              25 1.34263067236+2           0.0+0
CQUAD4*               25               9              43              47*
*                     71              48 1.34263067236+2           0.0+0
CQUAD4*               26               9              48              71*
*                     80              76 1.34263067236+2           0.0+0
CQUAD4*               27               9              41              83*
*                     87              57 1.34263067236+2           0.0+0
CQUAD4*               28               9              55              44*
*                     33              59-1.34263067236+2           0.0+0
CQUAD4*               29               9              72              76*
*                     82              78 1.34263067236+2           0.0+0
CQUAD4*               30               9              76              80*
*                     94              82 1.34263067236+2           0.0+0
CQUAD4*               31               9              71              81*
*                     74              80 1.34263067236+2           0.0+0
CQUAD4*               32               9              57              87*
*                     52              17 1.34263067236+2           0.0+0
CQUAD4*               33               9              84              28*
*                     49              13 1.34263067236+2           0.0+0
CQUAD4*               34               9              23              22*
*                     79              83 1.34263067236+2           0.0+0
CQUAD4*               35               9               4              66*
*                     29              96 1.34263067236+2           0.0+0
CQUAD4*               36               9              26              95*
*                     69               8 1.34263067236+2           0.0+0
CQUAD4*               37               9              88              92*
*                     10              12 1.34263067236+2           0.0+0
CQUAD4*               38               9              70              77*
*                      9               5 1.34263067236+2           0.0+0
CQUAD4*               39               9              40              21*
*                     95              26 1.34263067236+2           0.0+0
CQUAD4*               40               9              35              32*
*                     56              42-1.34263067236+2           0.0+0
CQUAD4*               41               9              90              84*
*                     13              60 1.34263067236+2           0.0+0
CQUAD4*               42               9              79              86*
*                     92              88 1.34263067236+2           0.0+0
CQUAD4*               43               9               6               5*
*                     15              11 1.34263067236+2           0.0+0
CQUAD4*               44               9              31              36*
*                     30              16-1.34263067236+2           0.0+0
CQUAD4*               45               9              75              91*
*                     84              90 1.34263067236+2           0.0+0
CQUAD4*               46               9              83              79*
*                     88              87 1.34263067236+2           0.0+0
CQUAD4*               47               9              22              25*
*                     86              79 1.34263067236+2           0.0+0
CQUAD4*               48               9              10              38*
*                     44               7 1.34263067236+2           0.0+0
CQUAD4*               49               9               9              34*
*                     63              18 1.34263067236+2           0.0+0
CQUAD4*               50               9              15              18*
*                     64              62 1.34263067236+2           0.0+0
CQUAD4*               51               9              64              18*
*                     63              99-1.34263067236+2           0.0+0
CQUAD4*               52               9              61               3*
*                     55              97-1.34263067236+2           0.0+0
CQUAD4*               53               9              98              69*
*                     61               2-1.34263067236+2           0.0+0
CQUAD4*               54               9              97              58*
*                     70              85 1.34263067236+2           0.0+0
CQUAD4*               55               9              68              40*
*                     26              19 1.34263067236+2           0.0+0
CQUAD4*               56               9              42              23*
*                     83              41 1.34263067236+2           0.0+0
CQUAD4*               57               9              45              48*
*                     76              72 1.34263067236+2           0.0+0
CQUAD4*               58               9              77              78*
*                     34               9 1.34263067236+2           0.0+0
CQUAD4*               59               9              31              16*
*                     22              23 1.34263067236+2           0.0+0
CQUAD4*               60               9              33              54*
*                     46              59 1.34263067236+2           0.0+0
CQUAD4*               61               9              59              46*
*                     73              58 1.34263067236+2           0.0+0
CQUAD4*               62               9              78              82*
*                     32              34 1.34263067236+2           0.0+0
CQUAD4*               63               9              63              34*
*                     32              35-1.34263067236+2           0.0+0
CQUAD4*               64               9               2              85*
*                      6               1 1.34263067236+2           0.0+0
CQUAD4*               65               9              73              72*
*                     78              77 1.34263067236+2           0.0+0
CQUAD4*               66               9              60              13*
*                     65              38 1.34263067236+2           0.0+0
CQUAD4*               67               9              52              12*
*                     21              40 1.34263067236+2           0.0+0
CQUAD4*               68               9              93              64*
*                     99               4-1.34263067236+2           0.0+0
CQUAD4*               69               9              29              17*
*                     68              67 1.34263067236+2           0.0+0
CQUAD4*               70               9               7              44*
*                     55               3 1.34263067236+2           0.0+0
CQUAD4*               71               9              39              53*
*                     37              43-1.34263067236+2           0.0+0
CQUAD4*               72               9              51              49*
*                     50              53-1.34263067236+2           0.0+0
CQUAD4*               73               9              58              73*
*                     77              70 1.34263067236+2           0.0+0
CQUAD4*               74               9              38              65*
*                     33              44 1.34263067236+2           0.0+0
CQUAD4*               75               9              61              97*
*                     85               2 1.34263067236+2           0.0+0
CQUAD4*               76               9              25              75*
*                     90              86 1.34263067236+2           0.0+0
CQUAD4*               77               9              56              31*
*                     23              42 1.34263067236+2           0.0+0
CQUAD4*               78               9              92              60*
*                     38              10 1.34263067236+2           0.0+0
CQUAD4*               79               9             123              62*
*                     64              93-1.34263067236+2           0.0+0
CQUAD4*               80               9              54              39*
*                     45              46 1.34263067236+2           0.0+0
CQUAD4*               81               9             100             132*
*                    123             125-1.34263067236+2           0.0+0
CQUAD4*              100               9             125             123*
*                     93             128-1.34263067236+2           0.0+0
CQUAD4*              101               9              19              26*
*                      8             134 1.34263067236+2           0.0+0
CQUAD4*              102               9             131             129*
*                    124             113 1.34263067236+2           0.0+0
CQUAD4*              103               9             128              96*
*                    133             127 1.34263067236+2           0.0+0
CQUAD4*              104               9             130              98*
*                      2               1-1.34263067236+2           0.0+0
CQUAD4*              105               9             135             118*
*                    122             105 1.34263067236+2           0.0+0
CQUAD4*              106               9             122             126*
*                    132             103 1.34263067236+2           0.0+0
CQUAD4*              107               9             134               8*
*                    120             121 1.34263067236+2           0.0+0
CQUAD4*              108               9              67              68*
*                     19             129 1.34263067236+2           0.0+0
CQUAD4*              109               9             127             133*
*                    131             115 1.34263067236+2           0.0+0
CQUAD4*              110               9             125             128*
*                    127             117 1.34263067236+2           0.0+0
CQUAD4*              111               9             128              93*
*                      4              96-1.34263067236+2           0.0+0
CQUAD4*              112               9             121             120*
*                    119             109 1.34263067236+2           0.0+0
CQUAD4*              113               9              96              29*
*                     67             133 1.34263067236+2           0.0+0
CQUAD4*              114               9             133              67*
*                    129             131 1.34263067236+2           0.0+0
CQUAD4*              115               9             117             127*
*                    115             116 1.34263067236+2           0.0+0
CQUAD4*              116               9             111             121*
*                    109             110 1.34263067236+2           0.0+0
CQUAD4*              117               9             118              11*
*                    126             122 1.34263067236+2           0.0+0
CQUAD4*              118               9             124             134*
*                    121             111 1.34263067236+2           0.0+0
CQUAD4*              119               9             105             122*
*                    103             104 1.34263067236+2           0.0+0
CQUAD4*              120               9             126              62*
*                    123             132 1.34263067236+2           0.0+0
CQUAD4*              121               9             103             132*
*                    100             102 1.34263067236+2           0.0+0
CQUAD4*              122               9              94              80*
*                     74              36-1.34263067236+2           0.0+0
CQUAD4*              123               9             119             120*
*                     98             130-1.34263067236+2           0.0+0
CQUAD4*              124               9             108             109*
*                    119             107-1.34263067236+2           0.0+0
CQUAD4*              125               9             130               1*
*                    118             135 1.34263067236+2           0.0+0
CQUAD4*              126               9             113             124*
*                    111             112 1.34263067236+2           0.0+0
CQUAD4*              127               9              11              15*
*                     62             126 1.34263067236+2           0.0+0
CQUAD4*              128               9             107             135*
*                    105             106 1.34263067236+2           0.0+0
CQUAD4*              129               9             129              19*
*                    134             124 1.34263067236+2           0.0+0
CQUAD4*              130               9             101             100*
*                    125             117-1.34263067236+2           0.0+0
CQUAD4*              131               9             115             131*
*                    113             114 1.34263067236+2           0.0+0
CQUAD4*              132               9               8              69*
*                     98             120 1.34263067236+2           0.0+0
CQUAD4*              133               9               1               6*
*                     11             118 1.34263067236+2           0.0+0
CQUAD4*              134               9             119             130*
*                    135             107 1.34263067236+2           0.0+0
CQUAD4*              135               9              32              82*
*                     94              56-1.34263067236+2           0.0+0
PSHELL        10       1   1.0-1       1               1           0.0+0
CTRIA3*               82              10             100             101*
*                    102 4.52756568482+1           0.0+0
CTRIA3*               83              10             103             102*
*                    104 4.52756568482+1           0.0+0
CTRIA3*               84              10             105             104*
*                    106 4.52756568482+1           0.0+0
CTRIA3*               85              10             107             106*
*                    108 4.52756568482+1           0.0+0
CTRIA3*               86              10             109             108*
*                    110 4.52756568482+1           0.0+0
CTRIA3*               87              10             111             110*
*                    112 4.52756568482+1           0.0+0
CTRIA3*               88              10             113             112*
*                    114 4.52756568482+1           0.0+0
CTRIA3*               89              10             115             114*
*                    116 4.52756568482+1           0.0+0
CTRIA3*               90              10             117             116*
*                    101 4.52756568482+1           0.0+0
CTRIA3*               91              10              75              24*
*                     91-1.34724343152+2           0.0+0
CTRIA3*               92              10              84              91*
*                     28-1.34724343152+2           0.0+0
CTRIA3*               93              10              49              28*
*                     50-1.34724343152+2           0.0+0
CTRIA3*               94              10              53              50*
*                     37-1.34724343152+2           0.0+0
CTRIA3*               95              10              43              37*
*                     47-1.34724343152+2           0.0+0
CTRIA3*               96              10              71              47*
*                     81-1.34724343152+2           0.0+0
CTRIA3*               97              10              74              81*
*                     27-1.34724343152+2           0.0+0
CTRIA3*               98              10              30              27*
*                     14-1.34724343152+2           0.0+0
CTRIA3*               99              10              20              14*
*                     24-1.34724343152+2           0.0+0
PLOAD2         2   1.0+4      25
PLOAD2         2   1.0+4      26
PLOAD2         2   1.0+4      14
PLOAD2         2   1.0+4      30
PLOAD2         2   1.0+4      31
PLOAD2         2   1.0+4      57
PLOAD2         2   1.0+4      71
PLOAD2         2   1.0+4      80
PLOAD2         2   1.0+4      29
PLOAD2         2   1.0+4       4
PLOAD2         2   1.0+4      10
PLOAD2         2   1.0+4      60
PLOAD2         2   1.0+4      40
PLOAD2         2   1.0+4      19
PLOAD2         2   1.0+4      62
PLOAD2         2   1.0+4      22
PLOAD2         2   1.0+4      65
PLOAD2         2   1.0+4      61
PLOAD2         2   1.0+4      72
PLOAD2         2   1.0+4       3
PLOAD2         2   1.0+4      28
PLOAD2         2   1.0+4      77
PLOAD2         2   1.0+4      44
PLOAD2         2   1.0+4      11
PLOAD2         2   1.0+4      74
PLOAD2         2   1.0+4      56
PLOAD2         2   1.0+4      59
PLOAD2         2   1.0+4      21
PLOAD2         2   1.0+4      33
PLOAD2         2   1.0+4      66
PLOAD2         2   1.0+4      48
PLOAD2         2   1.0+4      34
PLOAD2         2   1.0+4       2
PLOAD2         2   1.0+4      41
PLOAD2         2   1.0+4      78
PLOAD2         2   1.0+4      46
PLOAD2         2   1.0+4      47
PLOAD2         2   1.0+4      24
PLOAD2         2   1.0+4      45
PLOAD2         2   1.0+4      23
PLOAD2         2   1.0+4      37
PLOAD2         2   1.0+4      42
PLOAD2         2   1.0+4      76
PLOAD2         2   1.0+4      35
PLOAD2         2   1.0+4      49
PLOAD2         2   1.0+4      54
PLOAD2         2   1.0+4       8
PLOAD2         2   1.0+4       9
PLOAD2         2   1.0+4      89
PLOAD2         2   1.0+4      50
PLOAD2         2   1.0+4      73
PLOAD2         2   1.0+4      52
PLOAD2         2   1.0+4      38
PLOAD2         2   1.0+4      12
PLOAD2         2   1.0+4      83
PLOAD2         2   1.0+4      75
PLOAD2         2   1.0+4      58
PLOAD2         2   1.0+4      43
PLOAD2         2   1.0+4      39
PLOAD2         2   1.0+4       5
PLOAD2         2   1.0+4      67
PLOAD2         2   1.0+4       7
PLOAD2         2   1.0+4      18
PLOAD2         2   1.0+4      16
PLOAD2         2   1.0+4      68
PLOAD2         2   1.0+4      69
PLOAD2         2   1.0+4      27
PLOAD2         2   1.0+4       1
PLOAD2         2   1.0+4      32
PLOAD2         2   1.0+4       6
PLOAD2         2   1.0+4      82
PLOAD2         2   1.0+4      17
PLOAD2         2   1.0+4      15
PLOAD2         2   1.0+4      20
PLOAD2         2   1.0+4      70
PLOAD2         2   1.0+4      13
PLOAD2         2   1.0+4      90
PLOAD2         2   1.0+4      88
PLOAD2         2   1.0+4      84
PLOAD2         2   1.0+4      55
PLOAD2         2   1.0+4      64
PLOAD2         2   1.0+4      87
PLOAD2         2   1.0+4      85
PLOAD2         2   1.0+4      36
PLOAD2         2   1.0+4      53
PLOAD2         2   1.0+4      86
PLOAD2         2   1.0+4      95
PLOAD2         2   1.0+4      94
PLOAD2         2   1.0+4      93
PLOAD2         2   1.0+4      96
PLOAD2         2   1.0+4      92
PLOAD2         2   1.0+4      97
PLOAD2         2   1.0+4      91
PLOAD2         2   1.0+4      98
PLOAD2         2   1.0+4      99
PLOAD2         2   1.0+4     100
PLOAD2         2   1.0+4     101
PLOAD2         2   1.0+4     102
PLOAD2         2   1.0+4     103
PLOAD2         2   1.0+4     104
PLOAD2         2   1.0+4     105
PLOAD2         2   1.0+4     106
PLOAD2         2   1.0+4     107
PLOAD2         2   1.0+4     108
PLOAD2         2   1.0+4     109
PLOAD2         2   1.0+4     110
PLOAD2         2   1.0+4     111
PLOAD2         2   1.0+4     112
PLOAD2         2   1.0+4     113
PLOAD2         2   1.0+4     114
PLOAD2         2   1.0+4     115
PLOAD2         2   1.0+4     116
PLOAD2         2   1.0+4     117
PLOAD2         2   1.0+4     118
PLOAD2         2   1.0+4     119
PLOAD2         2   1.0+4     120
PLOAD2         2   1.0+4     121
PLOAD2         2   1.0+4     123
PLOAD2         2   1.0+4     124
PLOAD2         2   1.0+4     125
PLOAD2         2   1.0+4     126
PLOAD2         2   1.0+4     127
PLOAD2         2   1.0+4     128
PLOAD2         2   1.0+4     129
PLOAD2         2   1.0+4     130
PLOAD2         2   1.0+4     131
PLOAD2         2   1.0+4     132
PLOAD2         2   1.0+4     133
PLOAD2         2   1.0+4     134
PLOAD2         2   1.0+4      51
PLOAD2         2   1.0+4     135
PLOAD2         2   1.0+4     122
PLOAD2         2   1.0+4      63
PLOAD2         2   1.0+4      79
PLOAD2         2   1.0+4      81
$--1---><--2---><--3---><--4---><--5---><--6---><--7---><--8---><--9---><--10-->
LOAD           1   1.0+0   1.0+0       2
PARAM,QUAD4TYP,MITC4+
ENDDATA 
