$ Generated by Mecway 33
$-----------------------EXECUTIVE CONTROL SECTION-----------------------
SOL 101
CEND
$-------------------------CASE CONTROL SECTION--------------------------
DISPLACEMENT = ALL
SPCFORCES = ALL
MPCFORCES = ALL
STRESS(CORNER) = ALL
STRAIN(CORNER,FIBER) = ALL
FORCE(CORNER) = ALL
SPC = 1
TEMPERATURE = 1
BEGIN BULK
$---------------------------BULK DATA SECTION---------------------------
GRID           1       0   0.0+0   0.0+0   0.0+0       0
GRID           2       0   1.0+0   0.0+0   0.0+0       0
GRID           3       0   1.0+0   1.0+0   0.0+0       0
GRID           4       0   0.0+0   1.0+0   0.0+0       0
GRID           5       0   2.0+0   0.0+0   0.0+0       0
GRID           6       0   3.0+0   0.0+0   0.0+0       0
GRID           7       0   3.0+0   1.0+0   0.0+0       0
GRID           8       0   2.0+0   1.0+0   0.0+0       0
GRID           9       0   2.5+0   0.0+0   0.0+0       0
GRID          10       0   3.0+0   5.0-1   0.0+0       0
GRID          11       0   2.5+0   1.0+0   0.0+0       0
GRID          12       0   2.0+0   5.0-1   0.0+0       0
GRID*                 13               0 2.43737888336+0 5.59142112732-1*
*                  0.0+0               0
GRID          14       0   6.5+0 1.025+0   5.0-2       0
GRID*                 15               0           6.0+0        1.0625-1*
*                 -5.0-2               0
GRID          16       0   6.0+0   0.0+0   0.0+0       0
GRID          17       0   6.0+0 2.375-1  -5.0-2       0
GRID          18       0   6.5+0   0.0+0   0.0+0       0
GRID          19       0   7.0+0 2.625-1   5.0-2       0
GRID          20       0   6.5+0   2.5-2   5.0-2       0
GRID          21       0   7.0+0 2.375-1  -5.0-2       0
GRID          22       0   6.5+0  8.75-1   0.0+0       0
GRID          23       0  6.75+0   1.0+0   0.0+0       0
GRID          24       0   7.0+0   0.0+0   0.0+0       0
GRID          25       0   7.0+0  8.75-1   0.0+0       0
GRID          26       0   7.0+0   1.0+0   0.0+0       0
GRID          27       0   6.0+0   1.0+0   0.0+0       0
GRID          28       0  6.75+0   7.5-1   0.0+0       0
GRID          29       0   6.0+0   2.5-2   5.0-2       0
GRID          30       0   6.5+0   7.5-1  -2.5-2       0
GRID          31       0   7.0+0   2.5-2   5.0-2       0
GRID          32       0   7.0+0 1.025+0   5.0-2       0
GRID          33       0   6.0+0 1.025+0   5.0-2       0
GRID          34       0   6.5+0 9.875-1  -2.5-2       0
GRID          35       0   6.0+0  -2.5-2  -5.0-2       0
GRID          36       0   7.0+0 9.875-1  -2.5-2       0
GRID          37       0   6.0+0  9.75-1  -5.0-2       0
GRID          38       0   7.0+0   7.5-1  -2.5-2       0
GRID          39       0   6.5+0 8.625-1  -5.0-2       0
GRID          40       0  6.75+0  9.75-1  -5.0-2       0
GRID          41       0   7.0+0 8.625-1  -5.0-2       0
GRID          42       0   7.0+0  9.75-1  -5.0-2       0
GRID          43       0  6.75+0   7.5-1  -5.0-2       0
GRID          44       0   7.0+0  -2.5-2  -5.0-2       0
GRID          45       0  6.25+0   2.5-1   0.0+0       0
GRID          46       0   6.5+0  3.75-1   0.0+0       0
GRID          47       0  6.25+0   5.0-1   0.0+0       0
GRID          48       0   6.5+0   2.5-1   0.0+0       0
GRID          49       0   6.0+0  3.75-1   0.0+0       0
GRID*                 50               0           6.0+0        2.5625-1*
*                  2.5-2               0
GRID*                 51               0           6.5+0        2.5625-1*
*                  2.5-2               0
GRID          52       0   6.5+0   5.0-1   0.0+0       0
GRID          53       0   6.5+0   5.0-1   2.5-2       0
GRID          54       0   6.0+0   5.0-1   2.5-2       0
GRID          55       0   6.0+0   7.5-1   5.0-2       0
GRID          56       0  6.25+0 2.625-1   5.0-2       0
GRID*                 57               0           6.5+0        3.8125-1*
*                  5.0-2               0
GRID          58       0  6.25+0   5.0-1   5.0-2       0
GRID*                 59               0           6.0+0        3.8125-1*
*                  5.0-2               0
GRID          60       0  6.25+0   7.5-1   0.0+0       0
GRID*                 61               0           6.5+0        1.0625-1*
*                 -5.0-2               0
GRID          62       0  6.25+0   1.0+0   0.0+0       0
GRID          63       0   6.0+0  8.75-1   0.0+0       0
GRID          64       0   7.0+0   2.5-1   0.0+0       0
GRID          65       0  6.75+0   7.5-1   5.0-2       0
GRID          66       0   7.0+0   7.5-1  -5.0-2       0
GRID          67       0   7.0+0   5.0-1   0.0+0       0
GRID          68       0   6.5+0   7.5-1  -5.0-2       0
GRID          69       0   7.0+0   5.0-1   5.0-2       0
GRID          70       0   6.5+0   7.5-1   0.0+0       0
GRID          71       0   7.0+0 -1.25-2  -2.5-2       0
GRID          72       0   7.0+0   7.5-1   0.0+0       0
GRID          73       0   6.5+0   5.0-1   5.0-2       0
GRID          74       0   6.0+0   2.5-1   0.0+0       0
GRID*                 75               0           7.0+0        1.0625-1*
*                 -5.0-2               0
GRID          76       0   6.0+0   7.5-1  -5.0-2       0
GRID          77       0   6.0+0   7.5-1   2.5-2       0
GRID          78       0   6.5+0  9.75-1  -5.0-2       0
GRID          79       0   6.5+0   7.5-1   2.5-2       0
GRID*                 80               0           6.5+0        1.0125+0*
*                  2.5-2               0
GRID*                 81               0           6.0+0        1.0125+0*
*                  2.5-2               0
GRID          82       0  6.25+0   7.5-1   5.0-2       0
GRID          83       0   6.5+0 8.875-1   5.0-2       0
GRID          84       0  6.25+0 1.025+0   5.0-2       0
GRID          85       0   6.0+0 8.875-1   5.0-2       0
GRID          86       0  6.75+0   2.5-1   0.0+0       0
GRID          87       0   7.0+0  3.75-1   0.0+0       0
GRID          88       0  6.75+0   5.0-1   0.0+0       0
GRID*                 89               0           7.0+0        2.5625-1*
*                  2.5-2               0
GRID          90       0   7.0+0   5.0-1   2.5-2       0
GRID          91       0  6.75+0 2.625-1   5.0-2       0
GRID*                 92               0           7.0+0        3.8125-1*
*                  5.0-2               0
GRID          93       0  6.75+0   5.0-1   5.0-2       0
GRID          94       0  6.25+0  -2.5-2  -5.0-2       0
GRID          95       0  6.75+0  -2.5-2  -5.0-2       0
GRID          96       0  6.75+0 1.025+0   5.0-2       0
GRID*                 97               0           6.0+0        2.4375-1*
*                 -2.5-2               0
GRID          98       0   6.0+0   5.0-1  -2.5-2       0
GRID          99       0   6.5+0   5.0-1  -2.5-2       0
GRID*                100               0           6.5+0        2.4375-1*
*                 -2.5-2               0
GRID         101       0   6.0+0   5.0-1  -5.0-2       0
GRID         102       0   7.0+0   5.0-1  -5.0-2       0
GRID         103       0   6.0+0 -1.25-2  -2.5-2       0
GRID*                104               0           6.0+0        3.6875-1*
*                 -5.0-2               0
GRID         105       0  6.25+0   5.0-1  -5.0-2       0
GRID*                106               0           6.5+0        3.6875-1*
*                 -5.0-2               0
GRID         107       0  6.25+0 2.375-1  -5.0-2       0
GRID         108       0   6.0+0  6.25-1  -5.0-2       0
GRID         109       0   6.5+0  6.25-1  -5.0-2       0
GRID         110       0   7.0+0   5.0-1  -2.5-2       0
GRID*                111               0           7.0+0        2.4375-1*
*                 -2.5-2               0
GRID         112       0  6.75+0   5.0-1  -5.0-2       0
GRID*                113               0           7.0+0        3.6875-1*
*                 -5.0-2               0
GRID         114       0   7.0+0   7.5-1   5.0-2       0
GRID         115       0   6.5+0 -1.25-2  -2.5-2       0
GRID         116       0  6.75+0 2.375-1  -5.0-2       0
GRID*                117               0           7.0+0        1.0125+0*
*                  2.5-2               0
GRID         118       0   6.5+0 2.375-1  -5.0-2       0
GRID         119       0   7.0+0  6.25-1  -5.0-2       0
GRID         120       0   6.0+0   7.5-1  -2.5-2       0
GRID         121       0   6.0+0   5.0-1   0.0+0       0
GRID         122       0   6.5+0  -2.5-2  -5.0-2       0
GRID         123       0   6.0+0   5.0-1   5.0-2       0
GRID         124       0   6.5+0   1.0+0   0.0+0       0
GRID         125       0   6.5+0   7.5-1   5.0-2       0
GRID         126       0   6.0+0 2.625-1   5.0-2       0
GRID         127       0   6.0+0 9.875-1  -2.5-2       0
GRID         128       0   6.5+0   5.0-1  -5.0-2       0
GRID         129       0   6.0+0 8.625-1  -5.0-2       0
GRID         130       0  6.25+0  9.75-1  -5.0-2       0
GRID         131       0  6.25+0   7.5-1  -5.0-2       0
GRID         132       0  6.25+0   0.0+0   0.0+0       0
GRID         133       0   6.5+0  1.25-1   0.0+0       0
GRID         134       0   6.0+0  1.25-1   0.0+0       0
GRID         135       0   6.0+0  1.25-2   2.5-2       0
GRID         136       0   6.5+0  1.25-2   2.5-2       0
GRID         137       0  6.25+0   2.5-2   5.0-2       0
GRID*                138               0           6.5+0        1.4375-1*
*                  5.0-2               0
GRID*                139               0           6.0+0        1.4375-1*
*                  5.0-2               0
GRID         140       0   6.5+0  6.25-1   0.0+0       0
GRID         141       0   6.0+0  6.25-1   0.0+0       0
GRID         142       0   6.5+0 2.625-1   5.0-2       0
GRID         143       0   6.5+0  6.25-1   5.0-2       0
GRID         144       0   6.0+0  6.25-1   5.0-2       0
GRID         145       0  6.75+0   0.0+0   0.0+0       0
GRID         146       0   7.0+0  1.25-1   0.0+0       0
GRID         147       0   7.0+0  1.25-2   2.5-2       0
GRID         148       0  6.75+0   2.5-2   5.0-2       0
GRID*                149               0           7.0+0        1.4375-1*
*                  5.0-2               0
GRID         150       0   7.0+0  6.25-1   0.0+0       0
GRID         151       0   6.0+0   7.5-1   0.0+0       0
GRID         152       0   7.0+0 8.875-1   5.0-2       0
GRID         153       0   7.0+0   7.5-1   2.5-2       0
GRID         154       0   7.0+0  6.25-1   5.0-2       0
PARAM    STR_CID      -2
$--1---><--2---><--3---><--4---><--5---><--6---><--7---><--8---><--9---><--10-->
$$$$$$$$$$$$$$$$$$$$$$$$$$$$$$$$$$$ Material $$$$$$$$$$$$$$$$$$$$$$$$$$$$$$$$$$$
MAT1           1  2.0+11  1.0+11   0.0+0   0.0+0   3.0-3   0.0+0
$--1---><--2---><--3---><--4---><--5---><--6---><--7---><--8---><--9---><--10-->
$$$$$$$$$$$$$$$$$$$$$$$$$$$$$$$$$ Orthotropic $$$$$$$$$$$$$$$$$$$$$$$$$$$$$$$$$$
MAT9           2  2.0+11   0.0+0   0.0+0   0.0+0   0.0+0   0.0+0  2.0+11+
+          0.0+0   0.0+0   0.0+0   0.0+0  2.0+11   0.0+0   0.0+0   0.0+0+
+         1.0+11   0.0+0   0.0+0  1.0+11   0.0+0  1.0+11   0.0+0   3.0-3+
+          3.0-3   0.0+0   0.0+0   0.0+0   0.0+0   0.0+0   0.0+0
$--1---><--2---><--3---><--4---><--5---><--6---><--7---><--8---><--9---><--10-->
SPC            1       1       1   0.0+0
SPC            1       1       2   0.0+0
SPC            1       1       3   0.0+0
SPC            1       1       4   0.0+0
SPC            1       2       2   0.0+0
SPC            1       2       3   0.0+0
SPC            1       2       4   0.0+0
SPC            1       5       1   0.0+0
SPC            1       5       2   0.0+0
SPC            1       5       3   0.0+0
SPC            1       5       4   0.0+0
SPC            1       6       2   0.0+0
SPC            1       6       3   0.0+0
SPC            1       6       4   0.0+0
SPC            1       9       2   0.0+0
SPC            1       9       4   0.0+0
SPC            1      16       1   0.0+0
SPC            1      16       2   0.0+0
SPC            1      16       3   0.0+0
SPC            1      18       2   0.0+0
SPC            1      20       2   0.0+0
SPC            1      24       2   0.0+0
SPC            1      24       3   0.0+0
SPC            1      29       2   0.0+0
SPC            1      31       2   0.0+0
SPC            1      35       2   0.0+0
SPC            1      44       2   0.0+0
SPC            1      71       2   0.0+0
SPC            1      94       2   0.0+0
SPC            1      95       2   0.0+0
SPC            1     103       2   0.0+0
SPC            1     115       2   0.0+0
SPC            1     122       2   0.0+0
SPC            1     132       2   0.0+0
SPC            1     135       2   0.0+0
SPC            1     136       2   0.0+0
SPC            1     137       2   0.0+0
SPC            1     145       2   0.0+0
SPC            1     147       2   0.0+0
SPC            1     148       2   0.0+0
$--1---><--2---><--3---><--4---><--5---><--6---><--7---><--8---><--9---><--10-->
$$$$$$$$$$$$$$$$$$$$$$$$$$$$$$$$$$$ Default $$$$$$$$$$$$$$$$$$$$$$$$$$$$$$$$$$$$
PSHELL         1       1   1.0-1       1               1           0.0+0
CQUAD4         1       1       1       2       3       4   0.0+0   0.0+0
CQUAD4*                2               1              12              13*
*                     11               8-7.70079343254+0           0.0+0
CQUAD4         3       1       5       9      13      12   0.0+0   0.0+0
CQUAD4         4       1       9       6      10      13   0.0+0   0.0+0
CQUAD4*                5               1              13              10*
*                      7              11 6.00083102892+0           0.0+0
$--1---><--2---><--3---><--4---><--5---><--6---><--7---><--8---><--9---><--10-->
$$$$$$$$$$$$$$$$$$$$$$$$$$$$$$$$$ Component(2) $$$$$$$$$$$$$$$$$$$$$$$$$$$$$$$$$
CORD2R*                2               0           0.0+0           0.0+0*
*                  0.0+0           0.0+0 4.47213595499-1 8.94427190999-1*
*                  1.0+0           0.0+0           0.0+0                *
*
PSOLID         3       2       2       3               1
CHEXA          6       3     151      70     124      27      55     125+
+             14      33      60      22      62      63      77      79+
+             80      81      82      83      84      85
CHEXA          7       3      70      72      26     124     125     114+
+             32      14      28      25      23      22      79     153+
+            117      80      65     152      96      83
CHEXA          8       3      48      64      67      52     142      19+
+             69      73      86      87      88      46      51      89+
+             90      53      91      92      93      57
CHEXA          9       3      74     121      52      48      17     101+
+            128     118      49      47      46      45      97      98+
+             99     100     104     105     106     107
CHEXA         10       3      48      52      67      64     118     128+
+            102      21      46      88      87      86     100      99+
+            110     111     106     112     113     116
CHEXA         11       3     151      27     124      70      76      37+
+             78      68      63      62      22      60     120     127+
+             34      30     129     130      39     131
CHEXA         12       3      70     124      26      72      68      78+
+             42      66      22      23      25      28      30      34+
+             36      38      39      40      41      43
CHEXA         13       3      16      18      48      74      29      20+
+            142     126     132     133      45     134     135     136+
+             51      50     137     138      56     139
CHEXA         14       3     121      52      70     151     123      73+
+            125      55      47     140      60     141      54      53+
+             79      77      58     143      82     144
CHEXA         15       3      18      24      64      48      20      31+
+             19     142     145     146      86     133     136     147+
+             89      51     148     149      91     138
CHEXA         16       3      52      67      72      70      73      69+
+            114     125      88     150      28     140      53      90+
+            153      79      93     154      65     143
CHEXA         17       3      16      74      48      18      35      17+
+            118     122     134      45     133     132     103      97+
+            100     115      15     107      61      94
CHEXA         18       3     121     151      70      52     101      76+
+             68     128     141      60     140      47      98     120+
+             30      99     108     131     109     105
CHEXA         19       3      52      70      72      67     128      68+
+             66     102     140      28     150      88      99      30+
+             38     110     109      43     119     112
CHEXA         20       3      74      48      52     121     126     142+
+             73     123      45      46      47      49      50      51+
+             53      54      56      57      58      59
CHEXA         21       3      18      48      64      24     122     118+
+             21      44     133      86     146     145     115     100+
+            111      71      61     116      75      95
$--1---><--2---><--3---><--4---><--5---><--6---><--7---><--8---><--9---><--10-->
$$$$$$$$$$$$$$$$$$$$$$$$$$$$$$$$$ temperature $$$$$$$$$$$$$$$$$$$$$$$$$$$$$$$$$$
TEMP           1       1   1.0+0
TEMP           1       2   1.0+0
TEMP           1       3   1.0+0
TEMP           1       4   1.0+0
TEMP           1      12   1.0+0
TEMP           1      13   1.0+0
TEMP           1      11   1.0+0
TEMP           1       8   1.0+0
TEMP           1       5   1.0+0
TEMP           1       9   1.0+0
TEMP           1       6   1.0+0
TEMP           1      10   1.0+0
TEMP           1       7   1.0+0
TEMP           1      70   1.0+0
TEMP           1      72   1.0+0
TEMP           1      26   1.0+0
TEMP           1     124   1.0+0
TEMP           1     125   1.0+0
TEMP           1     114   1.0+0
TEMP           1      32   1.0+0
TEMP           1      14   1.0+0
TEMP           1      28   1.0+0
TEMP           1      25   1.0+0
TEMP           1      23   1.0+0
TEMP           1      22   1.0+0
TEMP           1      79   1.0+0
TEMP           1     153   1.0+0
TEMP           1     117   1.0+0
TEMP           1      80   1.0+0
TEMP           1      65   1.0+0
TEMP           1     152   1.0+0
TEMP           1      96   1.0+0
TEMP           1      83   1.0+0
TEMP           1      68   1.0+0
TEMP           1      78   1.0+0
TEMP           1      42   1.0+0
TEMP           1      66   1.0+0
TEMP           1      30   1.0+0
TEMP           1      34   1.0+0
TEMP           1      36   1.0+0
TEMP           1      38   1.0+0
TEMP           1      39   1.0+0
TEMP           1      40   1.0+0
TEMP           1      41   1.0+0
TEMP           1      43   1.0+0
TEMP           1      74   1.0+0
TEMP           1      48   1.0+0
TEMP           1      52   1.0+0
TEMP           1     121   1.0+0
TEMP           1     126   1.0+0
TEMP           1     142   1.0+0
TEMP           1      73   1.0+0
TEMP           1     123   1.0+0
TEMP           1      45   1.0+0
TEMP           1      46   1.0+0
TEMP           1      47   1.0+0
TEMP           1      49   1.0+0
TEMP           1      50   1.0+0
TEMP           1      51   1.0+0
TEMP           1      53   1.0+0
TEMP           1      54   1.0+0
TEMP           1      56   1.0+0
TEMP           1      57   1.0+0
TEMP           1      58   1.0+0
TEMP           1      59   1.0+0
TEMP           1     151   1.0+0
TEMP           1      27   1.0+0
TEMP           1      55   1.0+0
TEMP           1      33   1.0+0
TEMP           1      60   1.0+0
TEMP           1      62   1.0+0
TEMP           1      63   1.0+0
TEMP           1      77   1.0+0
TEMP           1      81   1.0+0
TEMP           1      82   1.0+0
TEMP           1      84   1.0+0
TEMP           1      85   1.0+0
TEMP           1      64   1.0+0
TEMP           1      67   1.0+0
TEMP           1      19   1.0+0
TEMP           1      69   1.0+0
TEMP           1      86   1.0+0
TEMP           1      87   1.0+0
TEMP           1      88   1.0+0
TEMP           1      89   1.0+0
TEMP           1      90   1.0+0
TEMP           1      91   1.0+0
TEMP           1      92   1.0+0
TEMP           1      93   1.0+0
TEMP           1      17   1.0+0
TEMP           1     101   1.0+0
TEMP           1     128   1.0+0
TEMP           1     118   1.0+0
TEMP           1      97   1.0+0
TEMP           1      98   1.0+0
TEMP           1      99   1.0+0
TEMP           1     100   1.0+0
TEMP           1     104   1.0+0
TEMP           1     105   1.0+0
TEMP           1     106   1.0+0
TEMP           1     107   1.0+0
TEMP           1     102   1.0+0
TEMP           1      21   1.0+0
TEMP           1     110   1.0+0
TEMP           1     111   1.0+0
TEMP           1     112   1.0+0
TEMP           1     113   1.0+0
TEMP           1     116   1.0+0
TEMP           1      76   1.0+0
TEMP           1      37   1.0+0
TEMP           1     120   1.0+0
TEMP           1     127   1.0+0
TEMP           1     129   1.0+0
TEMP           1     130   1.0+0
TEMP           1     131   1.0+0
TEMP           1      16   1.0+0
TEMP           1      18   1.0+0
TEMP           1      29   1.0+0
TEMP           1      20   1.0+0
TEMP           1     132   1.0+0
TEMP           1     133   1.0+0
TEMP           1     134   1.0+0
TEMP           1     135   1.0+0
TEMP           1     136   1.0+0
TEMP           1     137   1.0+0
TEMP           1     138   1.0+0
TEMP           1     139   1.0+0
TEMP           1     140   1.0+0
TEMP           1     141   1.0+0
TEMP           1     143   1.0+0
TEMP           1     144   1.0+0
TEMP           1      24   1.0+0
TEMP           1      31   1.0+0
TEMP           1     145   1.0+0
TEMP           1     146   1.0+0
TEMP           1     147   1.0+0
TEMP           1     148   1.0+0
TEMP           1     149   1.0+0
TEMP           1     150   1.0+0
TEMP           1     154   1.0+0
TEMP           1      35   1.0+0
TEMP           1     122   1.0+0
TEMP           1     103   1.0+0
TEMP           1     115   1.0+0
TEMP           1      15   1.0+0
TEMP           1      61   1.0+0
TEMP           1      94   1.0+0
TEMP           1     108   1.0+0
TEMP           1     109   1.0+0
TEMP           1     119   1.0+0
TEMP           1      44   1.0+0
TEMP           1      71   1.0+0
TEMP           1      75   1.0+0
TEMP           1      95   1.0+0
$--1---><--2---><--3---><--4---><--5---><--6---><--7---><--8---><--9---><--10-->
TEMPD          1   0.0+0
$--1---><--2---><--3---><--4---><--5---><--6---><--7---><--8---><--9---><--10-->
PARAM,QUAD4TYP,MITC4+

SNORM,1,0,0.0,1.0,2.0
SNORM,2,0,0.0,1.0,2.0
SNORM,3,0,0.0,1.0,2.0
SNORM,4,0,0.0,1.0,2.0

SNORM,5,0,0.0,1.0,2.0
SNORM,6,0,0.0,1.0,2.0
SNORM,7,0,0.0,1.0,2.0
SNORM,8,0,0.0,1.0,2.0
SNORM,9,0,0.0,1.0,2.0
SNORM,10,0,0.0,1.0,2.0
SNORM,11,0,0.0,1.0,2.0
SNORM,12,0,0.0,1.0,2.0
SNORM,13,0,0.0,1.0,2.0

ENDDATA 
