$ Generated by Mecway 33
$-----------------------EXECUTIVE CONTROL SECTION-----------------------
SOL 103
CEND
$-------------------------CASE CONTROL SECTION--------------------------
METHOD = 1
DISPLACEMENT = ALL
SPC = 1
BEGIN BULK
$---------------------------BULK DATA SECTION---------------------------
GRID           1       0   0.0+0   0.0+0   0.0+0       0
GRID           2       0   1.0-1   0.0+0   0.0+0       0
GRID           3       0   5.0-2   2.5-2   0.0+0       0
GRID           4       0   0.0+0   2.5-2   0.0+0       0
GRID           5       0   5.0-2   0.0+0   0.0+0       0
GRID*                  6               0 9.99999940395-2           2.5-2*
*                 -3.0-2               0
GRID           7       0   2.5-2   2.5-2   0.0+0       0
GRID*                  8               0-5.96046448309-9           2.5-2*
*                 -3.0-2               0
GRID*                  9               0 4.99999940395-2           2.5-2*
*                 -3.0-2               0
GRID*                 10               0 2.49999940395-2           2.5-2*
*                 -3.0-2               0
GRID          11       0   7.5-2   0.0+0   0.0+0       0
GRID          12       0   1.0-1   2.5-2   0.0+0       0
GRID*                 13               0 7.49999940395-2           2.5-2*
*                 -3.0-2               0
GRID          14       0   7.5-2   2.5-2   0.0+0       0
GRID          15       0   2.5-2   0.0+0   0.0+0       0
GRID          16       0  6.25-2   2.5-2   0.0+0       0
GRID*                 17               0 6.24999940395-2           2.5-2*
*                 -3.0-2               0
GRID          18       0  8.75-2   2.5-2   0.0+0       0
GRID*                 19               0 8.74999940395-2           2.5-2*
*                 -3.0-2               0
GRID          20       0  8.75-2   0.0+0   0.0+0       0
GRID          21       0  3.75-2   0.0+0   0.0+0       0
GRID          22       0  6.25-2   0.0+0   0.0+0       0
GRID          23       0  1.25-2   0.0+0   0.0+0       0
GRID          24       0  1.25-2   2.5-2   0.0+0       0
GRID*                 25               0 1.24999940395-2           2.5-2*
*                 -3.0-2               0
GRID          26       0  3.75-2   2.5-2   0.0+0       0
GRID*                 27               0 3.74999940395-2           2.5-2*
*                 -3.0-2               0
GRID          28       0 6.875-2   2.5-2   0.0+0       0
GRID*                 29               0 7.49999970198-2           2.5-2*
*                 -1.5-2               0
GRID*                 30               0 6.87499940395-2           2.5-2*
*                 -3.0-2               0
GRID*                 31               0 6.24999970198-2           2.5-2*
*                 -1.5-2               0
GRID*                 32               0 6.87499970198-2           2.5-2*
*                 -1.5-2               0
GRID          33       0 9.375-2   2.5-2   0.0+0       0
GRID*                 34               0 9.99999970198-2           2.5-2*
*                 -1.5-2               0
GRID*                 35               0 9.37499940395-2           2.5-2*
*                 -3.0-2               0
GRID*                 36               0 8.74999970198-2           2.5-2*
*                 -1.5-2               0
GRID*                 37               0 9.37499970198-2           2.5-2*
*                 -1.5-2               0
GRID          38       0 9.375-2   0.0+0   0.0+0       0
GRID          39       0   1.0-1  1.25-2   0.0+0       0
GRID          40       0  8.75-2  1.25-2   0.0+0       0
GRID          41       0 9.375-2  1.25-2   0.0+0       0
GRID          42       0 6.875-2   0.0+0   0.0+0       0
GRID          43       0   7.5-2  1.25-2   0.0+0       0
GRID          44       0  6.25-2  1.25-2   0.0+0       0
GRID          45       0 6.875-2  1.25-2   0.0+0       0
GRID          46       0 1.875-2   2.5-2   0.0+0       0
GRID*                 47               0 2.49999970198-2           2.5-2*
*                 -1.5-2               0
GRID*                 48               0 1.87499940395-2           2.5-2*
*                 -3.0-2               0
GRID*                 49               0 1.24999970198-2           2.5-2*
*                 -1.5-2               0
GRID*                 50               0 1.87499970198-2           2.5-2*
*                 -1.5-2               0
GRID          51       0 4.375-2   2.5-2   0.0+0       0
GRID*                 52               0 4.99999970198-2           2.5-2*
*                 -1.5-2               0
GRID*                 53               0 4.37499940395-2           2.5-2*
*                 -3.0-2               0
GRID*                 54               0 3.74999970198-2           2.5-2*
*                 -1.5-2               0
GRID*                 55               0 4.37499970198-2           2.5-2*
*                 -1.5-2               0
GRID          56       0 4.375-2   0.0+0   0.0+0       0
GRID          57       0   5.0-2  1.25-2   0.0+0       0
GRID          58       0  3.75-2  1.25-2   0.0+0       0
GRID          59       0 4.375-2  1.25-2   0.0+0       0
GRID          60       0 1.875-2   0.0+0   0.0+0       0
GRID          61       0   2.5-2  1.25-2   0.0+0       0
GRID          62       0  1.25-2  1.25-2   0.0+0       0
GRID          63       0 1.875-2  1.25-2   0.0+0       0
GRID          64       0 5.625-2   2.5-2   0.0+0       0
GRID*                 65               0 5.62499940395-2           2.5-2*
*                 -3.0-2               0
GRID*                 66               0 5.62499970198-2           2.5-2*
*                 -1.5-2               0
GRID          67       0 8.125-2   2.5-2   0.0+0       0
GRID*                 68               0 8.12499940395-2           2.5-2*
*                 -3.0-2               0
GRID*                 69               0 8.12499970198-2           2.5-2*
*                 -1.5-2               0
GRID          70       0 8.125-2   0.0+0   0.0+0       0
GRID          71       0 8.125-2  1.25-2   0.0+0       0
GRID          72       0 5.625-2   0.0+0   0.0+0       0
GRID          73       0 5.625-2  1.25-2   0.0+0       0
GRID          74       0  6.25-3   2.5-2   0.0+0       0
GRID*                 75               0 6.24999403954-3           2.5-2*
*                 -3.0-2               0
GRID*                 76               0-2.98023224155-9           2.5-2*
*                 -1.5-2               0
GRID*                 77               0 6.24999701977-3           2.5-2*
*                 -1.5-2               0
GRID          78       0 3.125-2   2.5-2   0.0+0       0
GRID*                 79               0 3.12499940395-2           2.5-2*
*                 -3.0-2               0
GRID*                 80               0 3.12499970198-2           2.5-2*
*                 -1.5-2               0
GRID          81       0 3.125-2   0.0+0   0.0+0       0
GRID          82       0 3.125-2  1.25-2   0.0+0       0
GRID          83       0  6.25-3   0.0+0   0.0+0       0
GRID          84       0   0.0+0  1.25-2   0.0+0       0
GRID          85       0  6.25-3  1.25-2   0.0+0       0
PARAM    STR_CID      -2
$--1---><--2---><--3---><--4---><--5---><--6---><--7---><--8---><--9---><--10-->
$$$$$$$$$$$$$$$$$$$$$$$$$$$$$$$$$$$ Material $$$$$$$$$$$$$$$$$$$$$$$$$$$$$$$$$$$
MAT1           1  2.0+11  1.0+11   0.0+0   7.8+3   0.0+0   0.0+0
$--1---><--2---><--3---><--4---><--5---><--6---><--7---><--8---><--9---><--10-->
SPC            1       2       1   0.0+0
SPC            1       2       2   0.0+0
SPC            1       2       3   0.0+0
SPC            1       2       4   0.0+0
SPC            1       2       5   0.0+0
SPC            1       2       6   0.0+0
SPC            1       6       1   0.0+0
SPC            1       6       2   0.0+0
SPC            1       6       3   0.0+0
SPC            1       6       4   0.0+0
SPC            1       6       5   0.0+0
SPC            1       6       6   0.0+0
SPC            1      12       1   0.0+0
SPC            1      12       2   0.0+0
SPC            1      12       3   0.0+0
SPC            1      12       4   0.0+0
SPC            1      12       5   0.0+0
SPC            1      12       6   0.0+0
SPC            1      34       1   0.0+0
SPC            1      34       2   0.0+0
SPC            1      34       3   0.0+0
SPC            1      34       4   0.0+0
SPC            1      34       5   0.0+0
SPC            1      34       6   0.0+0
SPC            1      39       1   0.0+0
SPC            1      39       2   0.0+0
SPC            1      39       3   0.0+0
SPC            1      39       4   0.0+0
SPC            1      39       5   0.0+0
SPC            1      39       6   0.0+0
$--1---><--2---><--3---><--4---><--5---><--6---><--7---><--8---><--9---><--10-->
$$$$$$$$$$$$$$$$$$$$$$$$$$$$$$$$$$$ Default $$$$$$$$$$$$$$$$$$$$$$$$$$$$$$$$$$$$
PSHELL         1       1   1.2-2       1               1           0.0+0
CQUAD4         1       1       4      74      77      76   0.0+0   0.0+0
CQUAD4         2       1      74      24      49      77   0.0+0   0.0+0
CQUAD4         3       1      77      49      25      75   0.0+0   0.0+0
CQUAD4         4       1      76      77      75       8   0.0+0   0.0+0
CQUAD4         5       1       7      78      80      47   0.0+0   0.0+0
CQUAD4         6       1      78      26      54      80   0.0+0   0.0+0
CQUAD4         7       1      80      54      27      79   0.0+0   0.0+0
CQUAD4         8       1      47      80      79      10   0.0+0   0.0+0
CQUAD4         9       1      15      81      82      61   0.0+0   0.0+0
CQUAD4        10       1      81      21      58      82   0.0+0   0.0+0
CQUAD4        11       1      82      58      26      78   0.0+0   0.0+0
CQUAD4        12       1      61      82      78       7   0.0+0   0.0+0
CQUAD4        13       1       1      83      85      84   0.0+0   0.0+0
CQUAD4        14       1      83      23      62      85   0.0+0   0.0+0
CQUAD4        15       1      85      62      24      74   0.0+0   0.0+0
CQUAD4        16       1      84      85      74       4   0.0+0   0.0+0
CQUAD4        17       1      16      28      32      31   0.0+0   0.0+0
CQUAD4        18       1      28      14      29      32   0.0+0   0.0+0
CQUAD4        19       1      32      29      13      30   0.0+0   0.0+0
CQUAD4        20       1      31      32      30      17   0.0+0   0.0+0
CQUAD4        21       1      18      33      37      36   0.0+0   0.0+0
CQUAD4        22       1      33      12      34      37   0.0+0   0.0+0
CQUAD4        23       1      37      34       6      35   0.0+0   0.0+0
CQUAD4        24       1      36      37      35      19   0.0+0   0.0+0
CQUAD4        25       1      20      38      41      40   0.0+0   0.0+0
CQUAD4        26       1      38       2      39      41   0.0+0   0.0+0
CQUAD4        27       1      41      39      12      33   0.0+0   0.0+0
CQUAD4        28       1      40      41      33      18   0.0+0   0.0+0
CQUAD4        29       1      22      42      45      44   0.0+0   0.0+0
CQUAD4        30       1      42      11      43      45   0.0+0   0.0+0
CQUAD4        31       1      45      43      14      28   0.0+0   0.0+0
CQUAD4        32       1      44      45      28      16   0.0+0   0.0+0
CQUAD4        33       1      24      46      50      49   0.0+0   0.0+0
CQUAD4        34       1      46       7      47      50   0.0+0   0.0+0
CQUAD4        35       1      50      47      10      48   0.0+0   0.0+0
CQUAD4        36       1      49      50      48      25   0.0+0   0.0+0
CQUAD4        37       1      26      51      55      54   0.0+0   0.0+0
CQUAD4        38       1      51       3      52      55   0.0+0   0.0+0
CQUAD4        39       1      55      52       9      53   0.0+0   0.0+0
CQUAD4        40       1      54      55      53      27   0.0+0   0.0+0
CQUAD4        41       1      21      56      59      58   0.0+0   0.0+0
CQUAD4        42       1      56       5      57      59   0.0+0   0.0+0
CQUAD4        43       1      59      57       3      51   0.0+0   0.0+0
CQUAD4        44       1      58      59      51      26   0.0+0   0.0+0
CQUAD4        45       1      23      60      63      62   0.0+0   0.0+0
CQUAD4        46       1      60      15      61      63   0.0+0   0.0+0
CQUAD4        47       1      63      61       7      46   0.0+0   0.0+0
CQUAD4        48       1      62      63      46      24   0.0+0   0.0+0
CQUAD4        49       1       3      64      66      52   0.0+0   0.0+0
CQUAD4        50       1      64      16      31      66   0.0+0   0.0+0
CQUAD4        51       1      66      31      17      65   0.0+0   0.0+0
CQUAD4        52       1      52      66      65       9   0.0+0   0.0+0
CQUAD4        53       1      14      67      69      29   0.0+0   0.0+0
CQUAD4        54       1      67      18      36      69   0.0+0   0.0+0
CQUAD4        55       1      69      36      19      68   0.0+0   0.0+0
CQUAD4        56       1      29      69      68      13   0.0+0   0.0+0
CQUAD4        57       1      11      70      71      43   0.0+0   0.0+0
CQUAD4        58       1      70      20      40      71   0.0+0   0.0+0
CQUAD4        59       1      71      40      18      67   0.0+0   0.0+0
CQUAD4        60       1      43      71      67      14   0.0+0   0.0+0
CQUAD4        61       1       5      72      73      57   0.0+0   0.0+0
CQUAD4        62       1      72      22      44      73   0.0+0   0.0+0
CQUAD4        63       1      73      44      16      64   0.0+0   0.0+0
CQUAD4        64       1      57      73      64       3   0.0+0   0.0+0
$--1---><--2---><--3---><--4---><--5---><--6---><--7---><--8---><--9---><--10-->
EIGRL          1                       4       0                    MASS
PARAM,QUAD4TYP,MITC4+
ENDDATA 
