$ Generated by Mecway 33
$-----------------------EXECUTIVE CONTROL SECTION-----------------------
SOL 101
CEND
$-------------------------CASE CONTROL SECTION--------------------------
DISPLACEMENT = ALL
SPC = 1
LOAD = 1
BEGIN BULK
$---------------------------BULK DATA SECTION---------------------------
GRID           1       0   0.0+0   0.0+0   0.0+0       0
GRID           2       0   1.0+2   0.0+0   0.0+0       0
GRID           3       0   1.0+2   1.0+2   0.0+0       0
GRID           4       0   0.0+0   1.0+2   0.0+0       0
GRID           5       0   5.0+1   0.0+0   0.0+0       0
GRID           6       0   1.0+2   5.0+1   0.0+0       0
GRID           7       0   5.0+1   1.0+2   0.0+0       0
GRID           8       0   0.0+0   5.0+1   0.0+0       0
GRID           9       0   5.0+1   5.0+1   0.0+0       0
GRID          10       0   2.5+1   5.0+1   0.0+0       0
GRID          11       0   5.0+1   7.5+1   0.0+0       0
GRID          12       0   2.5+1   1.0+2   0.0+0       0
GRID          13       0   0.0+0   7.5+1   0.0+0       0
GRID          14       0   2.5+1   7.5+1   0.0+0       0
GRID          15       0   2.5+1   0.0+0   0.0+0       0
GRID          16       0   5.0+1   2.5+1   0.0+0       0
GRID          17       0   0.0+0   2.5+1   0.0+0       0
GRID          18       0   2.5+1   2.5+1   0.0+0       0
GRID          19       0   7.5+1   0.0+0   0.0+0       0
GRID          20       0   1.0+2   2.5+1   0.0+0       0
GRID          21       0   7.5+1   5.0+1   0.0+0       0
GRID          22       0   7.5+1   2.5+1   0.0+0       0
GRID          23       0   1.0+2   7.5+1   0.0+0       0
GRID          24       0   7.5+1   1.0+2   0.0+0       0
GRID          25       0   7.5+1   7.5+1   0.0+0       0
PARAM    STR_CID      -2
$--1---><--2---><--3---><--4---><--5---><--6---><--7---><--8---><--9---><--10-->
SPC            1       1       1   0.0+0
SPC            1       1       2   0.0+0
SPC            1       1       3   0.0+0
SPC            1       1       4   0.0+0
SPC            1       1       5   0.0+0
SPC            1       1       6   0.0+0
SPC            1       2       1   0.0+0
SPC            1       2       2   0.0+0
SPC            1       2       3   0.0+0
SPC            1       2       4   0.0+0
SPC            1       2       5   0.0+0
SPC            1       2       6   0.0+0
SPC            1       5       1   0.0+0
SPC            1       5       2   0.0+0
SPC            1       5       3   0.0+0
SPC            1       5       4   0.0+0
SPC            1       5       5   0.0+0
SPC            1       5       6   0.0+0
SPC            1      15       1   0.0+0
SPC            1      15       2   0.0+0
SPC            1      15       3   0.0+0
SPC            1      15       4   0.0+0
SPC            1      15       5   0.0+0
SPC            1      15       6   0.0+0
SPC            1      19       1   0.0+0
SPC            1      19       2   0.0+0
SPC            1      19       3   0.0+0
SPC            1      19       4   0.0+0
SPC            1      19       5   0.0+0
SPC            1      19       6   0.0+0
$--1---><--2---><--3---><--4---><--5---><--6---><--7---><--8---><--9---><--10-->
$$$$$$$$$$$$$$$$$$$$$$$$$$$$$$$$$$$ Default $$$$$$$$$$$$$$$$$$$$$$$$$$$$$$$$$$$$
CQUAD4         1       1       9      21      25      11   0.0+0   0.0+0
CQUAD4         2       1      21       6      23      25   0.0+0   0.0+0
CQUAD4         3       1      25      23       3      24   0.0+0   0.0+0
CQUAD4         4       1      11      25      24       7   0.0+0   0.0+0
CQUAD4         5       1       8      10      14      13   0.0+0   0.0+0
CQUAD4         6       1      10       9      11      14   0.0+0   0.0+0
CQUAD4         7       1      14      11       7      12   0.0+0   0.0+0
CQUAD4         8       1      13      14      12       4   0.0+0   0.0+0
CQUAD4         9       1       1      15      18      17   0.0+0   0.0+0
CQUAD4        10       1      15       5      16      18   0.0+0   0.0+0
CQUAD4        11       1      18      16       9      10   0.0+0   0.0+0
CQUAD4        12       1      17      18      10       8   0.0+0   0.0+0
CQUAD4        13       1       5      19      22      16   0.0+0   0.0+0
CQUAD4        14       1      19       2      20      22   0.0+0   0.0+0
CQUAD4        15       1      22      20       6      21   0.0+0   0.0+0
CQUAD4        16       1      16      22      21       9   0.0+0   0.0+0
$--1---><--2---><--3---><--4---><--5---><--6---><--7---><--8---><--9---><--10-->
$$$$$$$$$$$$$$$$$$$$$$$$$$$$$$$$$$$$ force $$$$$$$$$$$$$$$$$$$$$$$$$$$$$$$$$$$$$
FORCE          2       3       0   1.0+0   0.0+0   5.0+2   1.0+1
FORCE          2       4       0   1.0+0   0.0+0   5.0+2   1.0+1
$--1---><--2---><--3---><--4---><--5---><--6---><--7---><--8---><--9---><--10-->
$$$$$$$$$$$$$$$$$$$$$$$$$$$$$$$$$$$$ force $$$$$$$$$$$$$$$$$$$$$$$$$$$$$$$$$$$$$
FORCE          2       7       0   1.0+0   0.0+0   1.0+3   2.0+1
FORCE          2      24       0   1.0+0   0.0+0   1.0+3   2.0+1
FORCE          2      12       0   1.0+0   0.0+0   1.0+3   2.0+1
$--1---><--2---><--3---><--4---><--5---><--6---><--7---><--8---><--9---><--10-->
LOAD           1   1.0+0   1.0+0       2
PARAM,QUAD4TYP,MITC4+
$ PARAM,PCOMPEQ,2

PSHELL,1,1000001,1.0000+0,2000001,1.0,  3000001,      1.0,         , +1000001
+1000001, -5.000-1, 5.0000-1

MAT2,1000001,6.300366E+10,2.080586E+10,0.0,6.300366E+10,0.0,2.800+10,0.0,+102
+102,0.0,0.,0.0,0.0

MAT2,2000001,1.194432E+11,3.705201E+10,0.0,1.194432E+11,0.0,5.392+10,0.0,+103
+103,0.0,0.0,0.0,0.0

MAT2,3000001,2.800+10,0.0000+0,0.0000+0,2.800+10,0.0000+0,0.0000+0,0.0000+0,+104
+104,0.0000+0,0.0000+0,,0.0000+0

ENDDATA 
