$ Generated by Mecway 33
$-----------------------EXECUTIVE CONTROL SECTION-----------------------
SOL 101
CEND
$-------------------------CASE CONTROL SECTION--------------------------
DISPLACEMENT = ALL
SPCFORCES = ALL
MPCFORCES = ALL
STRESS(CORNER) = ALL
STRAIN(CORNER) = ALL
FORCE(CORNER) = ALL
SPC = 1
LOAD = 1
BEGIN BULK
$---------------------------BULK DATA SECTION---------------------------
GRID           1       0   0.0+0   0.0+0   0.0+0       0
GRID           2       0   1.0+0   0.0+0   0.0+0       0
GRID           3       0   1.0+0   1.0+0   0.0+0       0
GRID           4       0   0.0+0   1.0+0   0.0+0       0
GRID           5       0   2.0+0   0.0+0   0.0+0       0
GRID           6       0   3.0+0   0.0+0   0.0+0       0
GRID           7       0   3.0+0   1.0+0   0.0+0       0
GRID           8       0   2.0+0   1.0+0   0.0+0       0
GRID           9       0   2.5+0   0.0+0   0.0+0       0
GRID          10       0   3.0+0   5.0-1   0.0+0       0
GRID          11       0   2.5+0   1.0+0   0.0+0       0
GRID          12       0   2.0+0   5.0-1   0.0+0       0
GRID*                 13               0 2.43737888336+0 5.59142112732-1*
*                  0.0+0               0
GRID          14       0   4.0+0   0.0+0   0.0+0       0
GRID          15       0   5.0+0   0.0+0   0.0+0       0
GRID          16       0   5.0+0   1.0+0   0.0+0       0
GRID          17       0   4.0+0   1.0+0   0.0+0       0
GRID          18       0   4.0+0   2.5-2   5.0-2       0
GRID          19       0   5.0+0   2.5-2   5.0-2       0
GRID          20       0   5.0+0 1.025+0   5.0-2       0
GRID          21       0   4.0+0 1.025+0   5.0-2       0
GRID          22       0   4.0+0  -2.5-2  -5.0-2       0
GRID          23       0   4.0+0  9.75-1  -5.0-2       0
GRID          24       0   5.0+0  9.75-1  -5.0-2       0
GRID          25       0   5.0+0  -2.5-2  -5.0-2       0
GRID          26       0   4.5+0   2.5-1   0.0+0       0
GRID          27       0   4.5+0   5.0-1   0.0+0       0
GRID          28       0   4.0+0   7.5-1   5.0-2       0
GRID          29       0   5.0+0   2.5-1   0.0+0       0
GRID          30       0  4.75+0   7.5-1   5.0-2       0
GRID          31       0   5.0+0   7.5-1  -5.0-2       0
GRID          32       0   5.0+0   5.0-1   0.0+0       0
GRID          33       0   4.5+0   7.5-1  -5.0-2       0
GRID          34       0   5.0+0   5.0-1   5.0-2       0
GRID          35       0   4.5+0   7.5-1   0.0+0       0
GRID          36       0   5.0+0 -1.25-2  -2.5-2       0
GRID          37       0   5.0+0   7.5-1   0.0+0       0
GRID          38       0   4.5+0   5.0-1   5.0-2       0
GRID          39       0   4.0+0   2.5-1   0.0+0       0
GRID*                 40               0           5.0+0        1.0625-1*
*                 -5.0-2               0
GRID          41       0   4.0+0   7.5-1  -5.0-2       0
GRID          42       0   4.5+0  9.75-1  -5.0-2       0
GRID          43       0   4.0+0   5.0-1  -5.0-2       0
GRID          44       0   5.0+0   5.0-1  -5.0-2       0
GRID          45       0   4.0+0 -1.25-2  -2.5-2       0
GRID          46       0   5.0+0   7.5-1   5.0-2       0
GRID          47       0   4.5+0 -1.25-2  -2.5-2       0
GRID          48       0   4.5+0 2.375-1  -5.0-2       0
GRID          49       0   4.0+0   5.0-1   0.0+0       0
GRID          50       0   4.5+0  -2.5-2  -5.0-2       0
GRID          51       0   4.0+0   5.0-1   5.0-2       0
GRID          52       0   4.5+0   1.0+0   0.0+0       0
GRID          53       0   4.5+0   7.5-1   5.0-2       0
GRID          54       0   4.0+0 2.625-1   5.0-2       0
GRID          55       0   4.5+0   5.0-1  -5.0-2       0
GRID          56       0   4.5+0 2.625-1   5.0-2       0
GRID          57       0   4.0+0   7.5-1   0.0+0       0
GRID          58       0   4.5+0 1.025+0   5.0-2       0
GRID*                 59               0           4.0+0        1.0625-1*
*                 -5.0-2               0
GRID          60       0   4.0+0 2.375-1  -5.0-2       0
GRID          61       0   4.5+0   0.0+0   0.0+0       0
GRID          62       0   5.0+0 2.625-1   5.0-2       0
GRID          63       0   4.5+0   2.5-2   5.0-2       0
GRID          64       0   5.0+0 2.375-1  -5.0-2       0
GRID          65       0   4.5+0  8.75-1   0.0+0       0
GRID          66       0  4.75+0   1.0+0   0.0+0       0
GRID          67       0   5.0+0  8.75-1   0.0+0       0
GRID          68       0  4.75+0   7.5-1   0.0+0       0
GRID          69       0   4.5+0   7.5-1  -2.5-2       0
GRID          70       0   4.5+0 9.875-1  -2.5-2       0
GRID          71       0   5.0+0 9.875-1  -2.5-2       0
GRID          72       0   5.0+0   7.5-1  -2.5-2       0
GRID          73       0   4.5+0 8.625-1  -5.0-2       0
GRID          74       0  4.75+0  9.75-1  -5.0-2       0
GRID          75       0   5.0+0 8.625-1  -5.0-2       0
GRID          76       0  4.75+0   7.5-1  -5.0-2       0
GRID          77       0  4.25+0   2.5-1   0.0+0       0
GRID          78       0   4.5+0  3.75-1   0.0+0       0
GRID          79       0  4.25+0   5.0-1   0.0+0       0
GRID          80       0   4.0+0  3.75-1   0.0+0       0
GRID*                 81               0           4.0+0        2.5625-1*
*                  2.5-2               0
GRID*                 82               0           4.5+0        2.5625-1*
*                  2.5-2               0
GRID          83       0   4.5+0   5.0-1   2.5-2       0
GRID          84       0   4.0+0   5.0-1   2.5-2       0
GRID          85       0  4.25+0 2.625-1   5.0-2       0
GRID*                 86               0           4.5+0        3.8125-1*
*                  5.0-2               0
GRID          87       0  4.25+0   5.0-1   5.0-2       0
GRID*                 88               0           4.0+0        3.8125-1*
*                  5.0-2               0
GRID          89       0  4.25+0   7.5-1   0.0+0       0
GRID*                 90               0           4.5+0        1.0625-1*
*                 -5.0-2               0
GRID          91       0  4.25+0   1.0+0   0.0+0       0
GRID          92       0   4.0+0  8.75-1   0.0+0       0
GRID          93       0   4.0+0   7.5-1   2.5-2       0
GRID          94       0   4.5+0   7.5-1   2.5-2       0
GRID*                 95               0           4.5+0        1.0125+0*
*                  2.5-2               0
GRID*                 96               0           4.0+0        1.0125+0*
*                  2.5-2               0
GRID          97       0  4.25+0   7.5-1   5.0-2       0
GRID          98       0   4.5+0 8.875-1   5.0-2       0
GRID          99       0  4.25+0 1.025+0   5.0-2       0
GRID         100       0   4.0+0 8.875-1   5.0-2       0
GRID         101       0  4.75+0   2.5-1   0.0+0       0
GRID         102       0   5.0+0  3.75-1   0.0+0       0
GRID         103       0  4.75+0   5.0-1   0.0+0       0
GRID*                104               0           5.0+0        2.5625-1*
*                  2.5-2               0
GRID         105       0   5.0+0   5.0-1   2.5-2       0
GRID         106       0  4.75+0 2.625-1   5.0-2       0
GRID*                107               0           5.0+0        3.8125-1*
*                  5.0-2               0
GRID         108       0  4.75+0   5.0-1   5.0-2       0
GRID         109       0  4.25+0  -2.5-2  -5.0-2       0
GRID         110       0  4.75+0  -2.5-2  -5.0-2       0
GRID         111       0  4.75+0 1.025+0   5.0-2       0
GRID*                112               0           4.0+0        2.4375-1*
*                 -2.5-2               0
GRID         113       0   4.0+0   5.0-1  -2.5-2       0
GRID         114       0   4.5+0   5.0-1  -2.5-2       0
GRID*                115               0           4.5+0        2.4375-1*
*                 -2.5-2               0
GRID*                116               0           4.0+0        3.6875-1*
*                 -5.0-2               0
GRID         117       0  4.25+0   5.0-1  -5.0-2       0
GRID*                118               0           4.5+0        3.6875-1*
*                 -5.0-2               0
GRID         119       0  4.25+0 2.375-1  -5.0-2       0
GRID         120       0   4.0+0  6.25-1  -5.0-2       0
GRID         121       0   4.5+0  6.25-1  -5.0-2       0
GRID         122       0   5.0+0   5.0-1  -2.5-2       0
GRID*                123               0           5.0+0        2.4375-1*
*                 -2.5-2               0
GRID         124       0  4.75+0   5.0-1  -5.0-2       0
GRID*                125               0           5.0+0        3.6875-1*
*                 -5.0-2               0
GRID         126       0  4.75+0 2.375-1  -5.0-2       0
GRID*                127               0           5.0+0        1.0125+0*
*                  2.5-2               0
GRID         128       0   5.0+0  6.25-1  -5.0-2       0
GRID         129       0   4.0+0   7.5-1  -2.5-2       0
GRID         130       0   4.0+0 9.875-1  -2.5-2       0
GRID         131       0   4.0+0 8.625-1  -5.0-2       0
GRID         132       0  4.25+0  9.75-1  -5.0-2       0
GRID         133       0  4.25+0   7.5-1  -5.0-2       0
GRID         134       0  4.25+0   0.0+0   0.0+0       0
GRID         135       0   4.5+0  1.25-1   0.0+0       0
GRID         136       0   4.0+0  1.25-1   0.0+0       0
GRID         137       0   4.0+0  1.25-2   2.5-2       0
GRID         138       0   4.5+0  1.25-2   2.5-2       0
GRID         139       0  4.25+0   2.5-2   5.0-2       0
GRID*                140               0           4.5+0        1.4375-1*
*                  5.0-2               0
GRID*                141               0           4.0+0        1.4375-1*
*                  5.0-2               0
GRID         142       0   4.5+0  6.25-1   0.0+0       0
GRID         143       0   4.0+0  6.25-1   0.0+0       0
GRID         144       0   4.5+0  6.25-1   5.0-2       0
GRID         145       0   4.0+0  6.25-1   5.0-2       0
GRID         146       0  4.75+0   0.0+0   0.0+0       0
GRID         147       0   5.0+0  1.25-1   0.0+0       0
GRID         148       0   5.0+0  1.25-2   2.5-2       0
GRID         149       0  4.75+0   2.5-2   5.0-2       0
GRID*                150               0           5.0+0        1.4375-1*
*                  5.0-2               0
GRID         151       0   5.0+0  6.25-1   0.0+0       0
GRID         152       0   5.0+0 8.875-1   5.0-2       0
GRID         153       0   5.0+0   7.5-1   2.5-2       0
GRID         154       0   5.0+0  6.25-1   5.0-2       0
PARAM    STR_CID      -2
$--1---><--2---><--3---><--4---><--5---><--6---><--7---><--8---><--9---><--10-->
$$$$$$$$$$$$$$$$$$$$$$$$$$$$$$$$$$$ Material $$$$$$$$$$$$$$$$$$$$$$$$$$$$$$$$$$$
MAT1           1  2.0+11  1.0+11   0.0+0   0.0+0   0.0+0   0.0+0
$--1---><--2---><--3---><--4---><--5---><--6---><--7---><--8---><--9---><--10-->
$$$$$$$$$$$$$$$$$$$$$$$$$$$$$$$$$ Material(2) $$$$$$$$$$$$$$$$$$$$$$$$$$$$$$$$$$
MAT1           2  2.0+11  1.0+11   0.0+0   0.0+0   0.0+0   0.0+0
$--1---><--2---><--3---><--4---><--5---><--6---><--7---><--8---><--9---><--10-->
SPC            1       1       1   0.0+0
SPC            1       1       2   0.0+0
SPC            1       1       3   0.0+0
SPC            1       1       4   0.0+0
SPC            1       1       5   0.0+0
SPC            1       1       6   0.0+0
SPC            1       2       1   0.0+0
SPC            1       2       2   0.0+0
SPC            1       2       3   0.0+0
SPC            1       2       4   0.0+0
SPC            1       2       5   0.0+0
SPC            1       2       6   0.0+0
SPC            1       5       1   0.0+0
SPC            1       5       2   0.0+0
SPC            1       5       3   0.0+0
SPC            1       5       4   0.0+0
SPC            1       5       5   0.0+0
SPC            1       5       6   0.0+0
SPC            1       6       1   0.0+0
SPC            1       6       2   0.0+0
SPC            1       6       3   0.0+0
SPC            1       6       4   0.0+0
SPC            1       6       5   0.0+0
SPC            1       6       6   0.0+0
SPC            1       9       1   0.0+0
SPC            1       9       2   0.0+0
SPC            1       9       3   0.0+0
SPC            1       9       4   0.0+0
SPC            1       9       5   0.0+0
SPC            1       9       6   0.0+0
SPC            1      14       1   0.0+0
SPC            1      14       2   0.0+0
SPC            1      14       3   0.0+0
SPC            1      15       1   0.0+0
SPC            1      15       2   0.0+0
SPC            1      15       3   0.0+0
SPC            1      18       1   0.0+0
SPC            1      18       2   0.0+0
SPC            1      18       3   0.0+0
SPC            1      19       1   0.0+0
SPC            1      19       2   0.0+0
SPC            1      19       3   0.0+0
SPC            1      22       1   0.0+0
SPC            1      22       2   0.0+0
SPC            1      22       3   0.0+0
SPC            1      25       1   0.0+0
SPC            1      25       2   0.0+0
SPC            1      25       3   0.0+0
SPC            1      36       1   0.0+0
SPC            1      36       2   0.0+0
SPC            1      36       3   0.0+0
SPC            1      45       1   0.0+0
SPC            1      45       2   0.0+0
SPC            1      45       3   0.0+0
SPC            1      47       1   0.0+0
SPC            1      47       2   0.0+0
SPC            1      47       3   0.0+0
SPC            1      50       1   0.0+0
SPC            1      50       2   0.0+0
SPC            1      50       3   0.0+0
SPC            1      61       1   0.0+0
SPC            1      61       2   0.0+0
SPC            1      61       3   0.0+0
SPC            1      63       1   0.0+0
SPC            1      63       2   0.0+0
SPC            1      63       3   0.0+0
SPC            1     109       1   0.0+0
SPC            1     109       2   0.0+0
SPC            1     109       3   0.0+0
SPC            1     110       1   0.0+0
SPC            1     110       2   0.0+0
SPC            1     110       3   0.0+0
SPC            1     134       1   0.0+0
SPC            1     134       2   0.0+0
SPC            1     134       3   0.0+0
SPC            1     137       1   0.0+0
SPC            1     137       2   0.0+0
SPC            1     137       3   0.0+0
SPC            1     138       1   0.0+0
SPC            1     138       2   0.0+0
SPC            1     138       3   0.0+0
SPC            1     139       1   0.0+0
SPC            1     139       2   0.0+0
SPC            1     139       3   0.0+0
SPC            1     146       1   0.0+0
SPC            1     146       2   0.0+0
SPC            1     146       3   0.0+0
SPC            1     148       1   0.0+0
SPC            1     148       2   0.0+0
SPC            1     148       3   0.0+0
SPC            1     149       1   0.0+0
SPC            1     149       2   0.0+0
SPC            1     149       3   0.0+0
$--1---><--2---><--3---><--4---><--5---><--6---><--7---><--8---><--9---><--10-->
$$$$$$$$$$$$$$$$$$$$$$$$$$$$$$$$$$$ Default $$$$$$$$$$$$$$$$$$$$$$$$$$$$$$$$$$$$
PSHELL         1       1   1.0-1       1               1           0.0+0
CQUAD4         1       1       1       2       3       4   0.0+0   0.0+0
CQUAD4         2       1      12      13      11       8   0.0+0   0.0+0
CQUAD4         3       1       5       9      13      12   0.0+0   0.0+0
CQUAD4         4       1       9       6      10      13   0.0+0   0.0+0
CQUAD4         5       1      13      10       7      11   0.0+0   0.0+0
$--1---><--2---><--3---><--4---><--5---><--6---><--7---><--8---><--9---><--10-->
$$$$$$$$$$$$$$$$$$$$$$$$$$$$$$$$$$ Component $$$$$$$$$$$$$$$$$$$$$$$$$$$$$$$$$$$
PSOLID         2       2       0       3               1
CHEXA          6       2      35      37      16      52      53      46+
+             20      58      68      67      66      65      94     153+
+            127      95      30     152     111      98
CHEXA          7       2      35      52      16      37      33      42+
+             24      31      65      66      67      68      69      70+
+             71      72      73      74      75      76
CHEXA          8       2      39      26      27      49      54      56+
+             38      51      77      78      79      80      81      82+
+             83      84      85      86      87      88
CHEXA          9       2      57      35      52      17      28      53+
+             58      21      89      65      91      92      93      94+
+             95      96      97      98      99     100
CHEXA         10       2      26      29      32      27      56      62+
+             34      38     101     102     103      78      82     104+
+            105      83     106     107     108      86
CHEXA         11       2      39      49      27      26      60      43+
+             55      48      80      79      78      77     112     113+
+            114     115     116     117     118     119
CHEXA         12       2      26      27      32      29      48      55+
+             44      64      78     103     102     101     115     114+
+            122     123     118     124     125     126
CHEXA         13       2      57      17      52      35      41      23+
+             42      33      92      91      65      89     129     130+
+             70      69     131     132      73     133
CHEXA         14       2      14      61      26      39      18      63+
+             56      54     134     135      77     136     137     138+
+             82      81     139     140      85     141
CHEXA         15       2      49      27      35      57      51      38+
+             53      28      79     142      89     143      84      83+
+             94      93      87     144      97     145
CHEXA         16       2      61      15      29      26      63      19+
+             62      56     146     147     101     135     138     148+
+            104      82     149     150     106     140
CHEXA         17       2      27      32      37      35      38      34+
+             46      53     103     151      68     142      83     105+
+            153      94     108     154      30     144
CHEXA         18       2      14      39      26      61      22      60+
+             48      50     136      77     135     134      45     112+
+            115      47      59     119      90     109
CHEXA         19       2      49      57      35      27      43      41+
+             33      55     143      89     142      79     113     129+
+             69     114     120     133     121     117
CHEXA         20       2      27      35      37      32      55      33+
+             31      44     142      68     151     103     114      69+
+             72     122     121      76     128     124
CHEXA         21       2      61      26      29      15      50      48+
+             64      25     135     101     147     146      47     115+
+            123      36      90     126      40     110
$--1---><--2---><--3---><--4---><--5---><--6---><--7---><--8---><--9---><--10-->
$$$$$$$$$$$$$$$$$$$$$$$$$$$$$$$$$$$$ force $$$$$$$$$$$$$$$$$$$$$$$$$$$$$$$$$$$$$
FORCE          2       3       0   1.0+0   0.0+0   5.0+7   0.0+0
FORCE          2       4       0   1.0+0   0.0+0   5.0+7   0.0+0
FORCE          2       7       0   1.0+0   0.0+0   2.5+7   0.0+0
FORCE          2      11       0   1.0+0   0.0+0   5.0+7   0.0+0
FORCE          2       8       0   1.0+0   0.0+0   2.5+7   0.0+0
$--1---><--2---><--3---><--4---><--5---><--6---><--7---><--8---><--9---><--10-->
$$$$$$$$$$$$$$$$$$$$$$$$$$$$$$$$$$$$ force $$$$$$$$$$$$$$$$$$$$$$$$$$$$$$$$$$$$$
FORCE*                 2              52               0           1.0+0*
*                  0.0+0-8.33333333333+6           0.0+0
FORCE*                 2              16               0           1.0+0*
*                  0.0+0-4.16666666667+6           0.0+0
FORCE*                 2              42               0           1.0+0*
*                  0.0+0-4.16666666667+6           0.0+0
FORCE*                 2              24               0           1.0+0*
*                  0.0+0-2.08333333333+6           0.0+0
FORCE*                 2              66               0           1.0+0*
*                  0.0+0 1.66666666667+7           0.0+0
FORCE*                 2              70               0           1.0+0*
*                  0.0+0 1.66666666667+7           0.0+0
FORCE*                 2              71               0           1.0+0*
*                  0.0+0 8.33333333333+6           0.0+0
FORCE*                 2              74               0           1.0+0*
*                  0.0+0 8.33333333333+6           0.0+0
FORCE*                 2              17               0           1.0+0*
*                  0.0+0-4.16666666667+6           0.0+0
FORCE*                 2              23               0           1.0+0*
*                  0.0+0-2.08333333333+6           0.0+0
FORCE*                 2              91               0           1.0+0*
*                  0.0+0 1.66666666667+7           0.0+0
FORCE*                 2             130               0           1.0+0*
*                  0.0+0 8.33333333333+6           0.0+0
FORCE*                 2             132               0           1.0+0*
*                  0.0+0 8.33333333333+6           0.0+0
FORCE*                 2              58               0           1.0+0*
*                  0.0+0-4.16666666667+6           0.0+0
FORCE*                 2              21               0           1.0+0*
*                  0.0+0-2.08333333333+6           0.0+0
FORCE*                 2              95               0           1.0+0*
*                  0.0+0 1.66666666667+7           0.0+0
FORCE*                 2              96               0           1.0+0*
*                  0.0+0 8.33333333333+6           0.0+0
FORCE*                 2              99               0           1.0+0*
*                  0.0+0 8.33333333333+6           0.0+0
FORCE*                 2              20               0           1.0+0*
*                  0.0+0-2.08333333333+6           0.0+0
FORCE*                 2             127               0           1.0+0*
*                  0.0+0 8.33333333333+6           0.0+0
FORCE*                 2             111               0           1.0+0*
*                  0.0+0 8.33333333333+6           0.0+0
$--1---><--2---><--3---><--4---><--5---><--6---><--7---><--8---><--9---><--10-->
LOAD           1   1.0+0   1.0+0       2
PARAM,QUAD4TYP,MITC4+
SNORM,1,0,0.0,1.0,2.0
SNORM,2,0,0.0,1.0,2.0
SNORM,3,0,0.0,1.0,2.0
SNORM,4,0,0.0,1.0,2.0

SNORM,5,0,0.0,1.0,2.0
SNORM,6,0,0.0,1.0,2.0
SNORM,7,0,0.0,1.0,2.0
SNORM,8,0,0.0,1.0,2.0
SNORM,9,0,0.0,1.0,2.0
SNORM,10,0,0.0,1.0,2.0
SNORM,11,0,0.0,1.0,2.0
SNORM,12,0,0.0,1.0,2.0
SNORM,13,0,0.0,1.0,2.0

ENDDATA 
