$ Generated by Mecway 33
$-----------------------EXECUTIVE CONTROL SECTION-----------------------
SOL 101
CEND
$-------------------------CASE CONTROL SECTION--------------------------
DISPLACEMENT = ALL
STRESS(CORNER) = ALL
SPC = 1
BEGIN BULK
$---------------------------BULK DATA SECTION---------------------------
GRID           1       0   0.0+0   0.0+0   0.0+0       0
GRID           2       0   1.0+0   0.0+0   0.0+0       0
GRID           3       0   1.0+0   1.0+0   0.0+0       0
GRID           4       0   0.0+0   1.0+0   0.0+0       0
GRID           5       0   0.0+0   0.0+0   1.0+0       0
GRID           6       0   1.0+0   0.0+0   1.0+0       0
GRID           7       0   1.0+0   1.0+0   1.0+0       0
GRID           8       0   0.0+0   1.0+0   1.0+0       0
GRID           9       0   5.0-1   0.0+0   0.0+0       0
GRID          10       0   1.0+0   5.0-1   0.0+0       0
GRID          11       0   5.0-1   1.0+0   0.0+0       0
GRID          12       0   0.0+0   5.0-1   0.0+0       0
GRID          13       0   0.0+0   0.0+0   5.0-1       0
GRID          14       0   1.0+0   0.0+0   5.0-1       0
GRID          15       0   1.0+0   1.0+0   5.0-1       0
GRID          16       0   0.0+0   1.0+0   5.0-1       0
GRID          17       0   5.0-1   0.0+0   1.0+0       0
GRID          18       0   1.0+0   5.0-1   1.0+0       0
GRID          19       0   5.0-1   1.0+0   1.0+0       0
GRID          20       0   0.0+0   5.0-1   1.0+0       0
GRID          21       0   0.0+0  -2.0+0   0.0+0       0
GRID          22       0   1.0+0  -2.0+0   0.0+0       0
GRID          23       0   1.0+0  -1.0+0   0.0+0       0
GRID          24       0   0.0+0  -1.0+0   0.0+0       0
GRID          25       0   0.0+0  -2.0+0   1.0+0       0
GRID          26       0   1.0+0  -2.0+0   1.0+0       0
GRID          27       0   1.0+0  -1.0+0   1.0+0       0
GRID          28       0   0.0+0  -1.0+0   1.0+0       0
GRID          29       0   5.0-1  -2.0+0   0.0+0       0
GRID          30       0   1.0+0  -1.5+0   0.0+0       0
GRID          31       0   5.0-1  -1.0+0   0.0+0       0
GRID          32       0   0.0+0  -1.5+0   0.0+0       0
GRID          33       0   0.0+0  -2.0+0   5.0-1       0
GRID          34       0   1.0+0  -2.0+0   5.0-1       0
GRID          35       0   1.0+0  -1.0+0   5.0-1       0
GRID          36       0   0.0+0  -1.0+0   5.0-1       0
GRID          37       0   5.0-1  -2.0+0   1.0+0       0
GRID          38       0   1.0+0  -1.5+0   1.0+0       0
GRID          39       0   5.0-1  -1.0+0   1.0+0       0
GRID          40       0   0.0+0  -1.5+0   1.0+0       0
GRID          41       0   5.0-1   2.0+0   5.0-1       0
GRID          42       0   0.0+0  -4.0+0   0.0+0       0
GRID          43       0   1.0+0  -4.0+0   0.0+0       0
GRID          44       0   1.0+0  -3.0+0   0.0+0       0
GRID          45       0   0.0+0  -3.0+0   0.0+0       0
GRID          46       0   0.0+0  -4.0+0   1.0+0       0
GRID          47       0   1.0+0  -4.0+0   1.0+0       0
GRID          48       0   1.0+0  -3.0+0   1.0+0       0
GRID          49       0   0.0+0  -3.0+0   1.0+0       0
GRID          50       0   5.0-1  -4.0+0   0.0+0       0
GRID          51       0   1.0+0  -3.5+0   0.0+0       0
GRID          52       0   5.0-1  -3.0+0   0.0+0       0
GRID          53       0   0.0+0  -3.5+0   0.0+0       0
GRID          54       0   0.0+0  -4.0+0   5.0-1       0
GRID          55       0   1.0+0  -4.0+0   5.0-1       0
GRID          56       0   1.0+0  -3.0+0   5.0-1       0
GRID          57       0   0.0+0  -3.0+0   5.0-1       0
GRID          58       0   5.0-1  -4.0+0   1.0+0       0
GRID          59       0   1.0+0  -3.5+0   1.0+0       0
GRID          60       0   5.0-1  -3.0+0   1.0+0       0
GRID          61       0   0.0+0  -3.5+0   1.0+0       0
GRID          62       0   2.0+0  -2.0+0   0.0+0       0
GRID          63       0   3.0+0  -2.0+0   0.0+0       0
GRID          64       0   3.0+0  -1.0+0   0.0+0       0
GRID          65       0   2.0+0  -1.0+0   0.0+0       0
GRID          66       0   2.0+0  -2.0+0   1.0+0       0
GRID          67       0   3.0+0  -2.0+0   1.0+0       0
GRID          68       0   3.0+0  -1.0+0   1.0+0       0
GRID          69       0   2.0+0  -1.0+0   1.0+0       0
GRID          70       0   2.5+0  -2.0+0   0.0+0       0
GRID          71       0   3.0+0  -1.5+0   0.0+0       0
GRID          72       0   2.5+0  -1.0+0   0.0+0       0
GRID          73       0   2.0+0  -1.5+0   0.0+0       0
GRID          74       0   2.0+0  -2.0+0   5.0-1       0
GRID          75       0   3.0+0  -2.0+0   5.0-1       0
GRID          76       0   3.0+0  -1.0+0   5.0-1       0
GRID          77       0   2.0+0  -1.0+0   5.0-1       0
GRID          78       0   2.5+0  -2.0+0   1.0+0       0
GRID          79       0   3.0+0  -1.5+0   1.0+0       0
GRID          80       0   2.5+0  -1.0+0   1.0+0       0
GRID          81       0   2.0+0  -1.5+0   1.0+0       0
PARAM    STR_CID      -2
$--1---><--2---><--3---><--4---><--5---><--6---><--7---><--8---><--9---><--10-->
$$$$$$$$$$$$$$$$$$$$$$$$$$$$$$$$$$$ Material $$$$$$$$$$$$$$$$$$$$$$$$$$$$$$$$$$$
MAT1           1  1.0+11  5.0+10   0.0+0   0.0+0   0.0+0   0.0+0
$--1---><--2---><--3---><--4---><--5---><--6---><--7---><--8---><--9---><--10-->
SPC            1       1       1   0.0+0
SPC            1       1       3   0.0+0
SPC            1      12       1   0.0+0
SPC            1      12       3   0.0+0
SPC            1      20       1   0.0+0
SPC            1      21       1   0.0+0
SPC            1      21       3   0.0+0
SPC            1      32       1   0.0+0
SPC            1      32       3   0.0+0
SPC            1      40       1   0.0+0
SPC            1      41       2   1.0-2
SPC            1      42       1   0.0+0
SPC            1      42       3   0.0+0
SPC            1      53       1   0.0+0
SPC            1      53       3   0.0+0
SPC            1      61       1   0.0+0
SPC            1      62       1   0.0+0
SPC            1      62       3   0.0+0
SPC            1      73       1   0.0+0
SPC            1      73       3   0.0+0
SPC            1      81       1   0.0+0
$--1---><--2---><--3---><--4---><--5---><--6---><--7---><--8---><--9---><--10-->
$$$$$$$$$$$$$$$$$$$$$$$$$$$$$$$$$$$ Default $$$$$$$$$$$$$$$$$$$$$$$$$$$$$$$$$$$$
PSOLID         1       1       0       3               1
CHEXA          1       1       1       2       3       4       5       6+
+              7       8       9      10      11      12      13      14+
+             15      16      17      18      19      20
CHEXA          2       1      21      22      23      24      25      26+
+             27      28      29      30      31      32      33      34+
+             35      36      37      38      39      40
CHEXA          3       1      42      43      44      45      46      47+
+             48      49      50      51      52      53      54      55+
+             56      57      58      59      60      61
CHEXA          4       1      62      63      64      65      66      67+
+             68      69      70      71      72      73      74      75+
+             76      77      78      79      80      81
$--1---><--2---><--3---><--4---><--5---><--6---><--7---><--8---><--9---><--10-->
$$$$$$$$$$$$$$$$$$$$$$$$$$$$ node-surface coupling $$$$$$$$$$$$$$$$$$$$$$$$$$$$$
RBE2           5      41     123       3      11       4      16       8+
+             19       7      15
$--1---><--2---><--3---><--4---><--5---><--6---><--7---><--8---><--9---><--10-->
$$$$$$$$$$$$$$$$$$$$$$$$$$$$ node-surface coupling $$$$$$$$$$$$$$$$$$$$$$$$$$$$$
RBE2           6      15     123      23      31      24      36      28+
+             39      27      35
$--1---><--2---><--3---><--4---><--5---><--6---><--7---><--8---><--9---><--10-->
$$$$$$$$$$$$$$$$$$$$$$$$$$$$ node-surface coupling $$$$$$$$$$$$$$$$$$$$$$$$$$$$$
RBE2           7      27     123      44      52      45      57      49+
+             60      48      56
$--1---><--2---><--3---><--4---><--5---><--6---><--7---><--8---><--9---><--10-->
$$$$$$$$$$$$$$$$$$$$$$$$$$$$ node-surface coupling $$$$$$$$$$$$$$$$$$$$$$$$$$$$$
RBE2           8      15     123      64      72      65      77      69+
+             80      68      76
$--1---><--2---><--3---><--4---><--5---><--6---><--7---><--8---><--9---><--10-->
ENDDATA 
