$ Generated by Mecway 33
$-----------------------EXECUTIVE CONTROL SECTION-----------------------
SOL 101
CEND
$-------------------------CASE CONTROL SECTION--------------------------
DISPLACEMENT = ALL
SPCFORCES = ALL
MPCFORCES = ALL
STRESS(CORNER) = ALL
SPC = 1
LOAD = 1
BEGIN BULK
$---------------------------BULK DATA SECTION---------------------------
GRID           1       0   0.0+0   0.0+0   0.0+0       0
GRID           2       0   1.0+0   0.0+0   0.0+0       0
GRID           3       0   1.0+0   1.0+0   0.0+0       0
GRID           4       0   0.0+0   1.0+0   0.0+0       0
GRID           5       0   0.0+0   0.0+0   1.0+0       1
GRID           6       0   0.0+0   1.0+0  -1.0+0       0
GRID           7       0   1.0+0   1.0+0  -1.0+0       0
GRID           8       0   1.0+0   0.0+0  -1.0+0       0
GRID           9       0   0.0+0   0.0+0  -1.0+0       0
GRID          10       0   2.0+0   0.0+0   0.0+0       0
GRID          11       0   3.0+0   0.0+0   0.0+0       0
GRID          12       0   3.0+0   1.0+0   0.0+0       0
GRID          13       0   2.0+0   1.0+0   0.0+0       0
GRID          14       0   2.0+0   0.0+0   1.0+0       1
GRID          15       0   2.0+0   1.0+0  -1.0+0       0
GRID          16       0   3.0+0   1.0+0  -1.0+0       0
GRID          17       0   3.0+0   0.0+0  -1.0+0       0
GRID          18       0   2.0+0   0.0+0  -1.0+0       0
GRID          19       0   2.0+0   1.0+0   1.0+0       0
GRID          20       0   3.0+0   1.0+0   1.0+0       0
GRID          21       0   3.0+0   0.0+0   1.0+0       0
PARAM    STR_CID      -2
$--1---><--2---><--3---><--4---><--5---><--6---><--7---><--8---><--9---><--10-->
$$$$$$$$$$$$$$$$$$$$$$$$$$$$$$$$$$$ Material $$$$$$$$$$$$$$$$$$$$$$$$$$$$$$$$$$$
MAT1           1  2.0+11  1.0+11   0.0+0   0.0+0   0.0+0   0.0+0
$--1---><--2---><--3---><--4---><--5---><--6---><--7---><--8---><--9---><--10-->
$$$$$$$$$$$$$$$$$$$$$$$$$$$$$$$$$ Material(2) $$$$$$$$$$$$$$$$$$$$$$$$$$$$$$$$$$
MAT1           2  2.0+17  1.0+17   0.0+0   0.0+0   0.0+0   0.0+0
$--1---><--2---><--3---><--4---><--5---><--6---><--7---><--8---><--9---><--10-->
CORD2R*                1               0           0.0+0           0.0+0*
*                  0.0+0           0.0+0           0.0+0           1.0+0*
*        7.07106781187-1 7.07106781187-1           0.0+0                *
*
SPC            1       5       1   1.0-1
SPC            1       6       1   0.0+0
SPC            1       6       2   0.0+0
SPC            1       6       3   0.0+0
SPC            1       7       1   0.0+0
SPC            1       7       2   0.0+0
SPC            1       7       3   0.0+0
SPC            1       8       1   0.0+0
SPC            1       8       2   0.0+0
SPC            1       8       3   0.0+0
SPC            1       9       1   0.0+0
SPC            1       9       2   0.0+0
SPC            1       9       3   0.0+0
SPC            1      14       1   1.0-1
SPC            1      15       1   0.0+0
SPC            1      15       2   0.0+0
SPC            1      15       3   0.0+0
SPC            1      16       1   0.0+0
SPC            1      16       2   0.0+0
SPC            1      16       3   0.0+0
SPC            1      17       1   0.0+0
SPC            1      17       2   0.0+0
SPC            1      17       3   0.0+0
SPC            1      18       1   0.0+0
SPC            1      18       2   0.0+0
SPC            1      18       3   0.0+0
$--1---><--2---><--3---><--4---><--5---><--6---><--7---><--8---><--9---><--10-->
$$$$$$$$$$$$$$$$$$$$$$$$$$$$$$$$$$$ Default $$$$$$$$$$$$$$$$$$$$$$$$$$$$$$$$$$$$
PSOLID         2       1       0       2               1
CHEXA          1       2       4       3       2       1       6       7+
+              8       9
CHEXA          2       2      13      12      11      10      15      16+
+             17      18
$--1---><--2---><--3---><--4---><--5---><--6---><--7---><--8---><--9---><--10-->
$$$$$$$$$$$$$$$$$$$$$$$$$$$$$$$$$$ Component $$$$$$$$$$$$$$$$$$$$$$$$$$$$$$$$$$$
PSOLID         3       2       0       2               1
CHEXA          3       3      13      10      11      12      19      14+
+             21      20
$--1---><--2---><--3---><--4---><--5---><--6---><--7---><--8---><--9---><--10-->
$$$$$$$$$$$$$$$$$$$$$$$$$$$$$$$$$$$$ force $$$$$$$$$$$$$$$$$$$$$$$$$$$$$$$$$$$$$
FORCE          2       4       0   1.0+0  -2.5+8   2.5+8   0.0+0
FORCE          2       3       0   1.0+0  -2.5+8   2.5+8   0.0+0
FORCE          2       2       0   1.0+0  -2.5+8   2.5+8   0.0+0
FORCE          2       1       0   1.0+0  -2.5+8   2.5+8   0.0+0
FORCE          2      13       0   1.0+0  -2.5+8   2.5+8   0.0+0
FORCE          2      12       0   1.0+0  -2.5+8   2.5+8   0.0+0
FORCE          2      11       0   1.0+0  -2.5+8   2.5+8   0.0+0
FORCE          2      10       0   1.0+0  -2.5+8   2.5+8   0.0+0
$--1---><--2---><--3---><--4---><--5---><--6---><--7---><--8---><--9---><--10-->
$$$$$$$$$$$$$$$$$$$$$$$$$$$$ node-surface coupling $$$$$$$$$$$$$$$$$$$$$$$$$$$$$
RBE2           4       5     123       4       1       2       3
$--1---><--2---><--3---><--4---><--5---><--6---><--7---><--8---><--9---><--10-->
LOAD           1   1.0+0   1.0+0       2
ENDDATA 
