$ Generated by Mecway 33
$-----------------------EXECUTIVE CONTROL SECTION-----------------------
SOL 101
CEND
$-------------------------CASE CONTROL SECTION--------------------------
DISPLACEMENT = ALL
SPC = 1
BEGIN BULK
$---------------------------BULK DATA SECTION---------------------------
GRID           1       0   0.0+0   0.0+0   0.0+0       0
GRID           2       0   1.0+0   0.0+0   0.0+0       0
GRID           3       0   1.0+0   1.0+0   0.0+0       0
GRID           4       0   0.0+0   1.0+0   0.0+0       0
GRID           5       0   0.0+0   0.0+0   1.0+0       0
GRID           6       0   1.0+0   0.0+0   1.0+0       0
GRID           7       0   1.0+0   1.0+0   1.0+0       0
GRID           8       0   0.0+0   1.0+0   1.0+0       0
GRID           9       0   3.0+0   5.0-1   5.0-1       0
GRID          10       0   1.0+0   2.0+0   1.0+0       0
GRID          11       0   1.0+0   2.0+0   0.0+0       0
GRID          12       0   1.0+0   3.0+0   0.0+0       0
GRID          13       0   1.0+0   3.0+0   1.0+0       0
GRID          14       0   3.0+0   2.5+0   5.0-1       0
GRID          15       0   5.0-1   5.0-1   4.0+0       0
GRID          16       0   5.0-1   5.0-1   3.0+0       0
GRID          17       0   5.0-1   1.5+0   3.0+0       0
GRID          18       0   5.0-1   1.5+0   4.0+0       0
GRID          19       0   1.5+0   5.0-1   4.0+0       0
GRID          20       0   1.5+0   5.0-1   3.0+0       0
GRID          21       0   1.5+0   1.5+0   3.0+0       0
GRID          22       0   1.5+0   1.5+0   4.0+0       0
GRID          23       0   5.0-1   2.5+0   4.0+0       0
GRID          24       0   5.0-1   2.5+0   3.0+0       0
GRID          25       0   5.0-1   3.5+0   3.0+0       0
GRID          26       0   5.0-1   3.5+0   4.0+0       0
GRID          27       0   1.5+0   2.5+0   4.0+0       0
GRID          28       0   1.5+0   2.5+0   3.0+0       0
GRID          29       0   1.5+0   3.5+0   3.0+0       0
GRID          30       0   1.5+0   3.5+0   4.0+0       0
PARAM    STR_CID      -2
$--1---><--2---><--3---><--4---><--5---><--6---><--7---><--8---><--9---><--10-->
$$$$$$$$$$$$$$$$$$$$$$$$$$$$$$$$$$$ Material $$$$$$$$$$$$$$$$$$$$$$$$$$$$$$$$$$$
MAT1           1  4.0+10  2.0+10   0.0+0   1.2+3   0.0+0   0.0+0
$--1---><--2---><--3---><--4---><--5---><--6---><--7---><--8---><--9---><--10-->
$$$$$$$$$$$$$$$$$$$$$$$$$$$$$$$$$ Material(2) $$$$$$$$$$$$$$$$$$$$$$$$$$$$$$$$$$
MAT1*                  2          4.0+10 1.5384615385+10           3.0-1*
*                  1.2+3           0.0+0           0.0+0
$--1---><--2---><--3---><--4---><--5---><--6---><--7---><--8---><--9---><--10-->
SPC            1       9       1   0.0+0
SPC            1       9       3   0.0+0
SPC*                   1               9               4-1.5317422308-18*
*       
SPC*                   1               9               5 1.74532925199-2*
*       
SPC            1       9       6   0.0+0
SPC            1      14       1   0.0+0
SPC            1      14       3   0.0+0
SPC*                   1              14               4-1.5317422308-18*
*       
SPC*                   1              14               5 1.74532925199-2*
*       
SPC            1      14       6   0.0+0
SPC            1      15       3   0.0+0
SPC            1      15       2   0.0+0
SPC            1      18       3   0.0+0
SPC            1      19       3   0.0+0
SPC            1      19       2   0.0+0
SPC            1      22       3   0.0+0
SPC            1      23       3   0.0+0
SPC            1      23       2   0.0+0
SPC            1      26       3   0.0+0
SPC            1      27       3   0.0+0
SPC            1      27       2   0.0+0
SPC            1      30       3   0.0+0
$--1---><--2---><--3---><--4---><--5---><--6---><--7---><--8---><--9---><--10-->
$$$$$$$$$$$$$$$$$$$$$$$$$$$$$$$$$$$ Default $$$$$$$$$$$$$$$$$$$$$$$$$$$$$$$$$$$$
PSOLID         1       1       0       2               1
CHEXA          1       1       1       2       3       4       5       6+
+              7       8
CHEXA          3       1      15      16      17      18      19      20+
+             21      22
CHEXA          4       1      23      24      25      26      27      28+
+             29      30
$--1---><--2---><--3---><--4---><--5---><--6---><--7---><--8---><--9---><--10-->
$$$$$$$$$$$$$$$$$$$$$$$$$$$$$$$$$$ Component $$$$$$$$$$$$$$$$$$$$$$$$$$$$$$$$$$$
PSHELL         2       2   1.0+0       2               2           0.0+0
CQUAD4         2       2      11      10      13      12   0.0+0   0.0+0
$--1---><--2---><--3---><--4---><--5---><--6---><--7---><--8---><--9---><--10-->
$$$$$$$$$$$$$$$$$$$$$$$$$$$$ node-surface coupling $$$$$$$$$$$$$$$$$$$$$$$$$$$$$
RBE2           5       9     123       2       3       7       6
$--1---><--2---><--3---><--4---><--5---><--6---><--7---><--8---><--9---><--10-->
$$$$$$$$$$$$$$$$$$$$$$$$$$$$ node-surface coupling $$$$$$$$$$$$$$$$$$$$$$$$$$$$$
RBE2           6      14     123      12      13      10      11
RBE2           7      14     456      12      13      10      11
$--1---><--2---><--3---><--4---><--5---><--6---><--7---><--8---><--9---><--10-->
$$$$$$$$$$$$$$$$$$$$$$$$$$$$ node-surface coupling $$$$$$$$$$$$$$$$$$$$$$$$$$$$$
RBE2           8      13     123      24      25      29      28
$--1---><--2---><--3---><--4---><--5---><--6---><--7---><--8---><--9---><--10-->
$$$$$$$$$$$$$$$$$$$$$$$$$$$$ node-surface coupling $$$$$$$$$$$$$$$$$$$$$$$$$$$$$
RBE2           9       7     123      16      17      21      20
$--1---><--2---><--3---><--4---><--5---><--6---><--7---><--8---><--9---><--10-->
ENDDATA 
