$ Generated by Mecway 33
$-----------------------EXECUTIVE CONTROL SECTION-----------------------
SOL 105
CEND
$-------------------------CASE CONTROL SECTION--------------------------
DISPLACEMENT = ALL
SPC = 1
SUBCASE 1
LOAD = 1
SUBCASE 2
METHOD = 1
BEGIN BULK
$---------------------------BULK DATA SECTION---------------------------
GRID*                  1               0-4.53153893518-2 -2.1130913087-2*
*                  0.0+0               0
GRID*                  2               0 -1.5138140653-1 8.49351040909-2*
*                  0.0+0               0
GRID*                  3               0   -1.33703737-1 6.72574345613-2*
*                  0.0+0               0
GRID*                  4               0-1.44310338718-1 9.20061719028-2*
*                  0.0+0               0
GRID*                  5               0-8.06707284112-2 1.42244259723-2*
*                  0.0+0               0
GRID*                  6               0-9.83483979408-2  3.1902095502-2*
*                  0.0+0               0
GRID*                  7               0  -3.824432154-2-1.40598452752-2*
*                  0.0+0               0
GRID*                  8               0-1.79665677777-1 1.27361510962-1*
*                  0.0+0               0
GRID*                  9               0 -9.1277330129-2 3.89731633138-2*
*                  0.0+0               0
GRID*                 10               0-1.69059076059-1 1.02612773621-1*
*                  0.0+0               0
GRID*                 11               0-1.61988008248-1 1.09683841432-1*
*                  0.0+0               0
GRID*                 12               0 -1.1602606747-1 4.95797650316-2*
*                  0.0+0               0
GRID*                 13               0-7.35996605993-2 2.12954937842-2*
*                  0.0+0               0
GRID*                 14               0-5.59219910696-2 3.61782425449-3*
*                  0.0+0               0
GRID*                 15               0-1.08954999659-1 5.66508328435-2*
*                  0.0+0               0
GRID*                 16               0-6.29930588815-2-3.45324355737-3*
*                  0.0+0               0
GRID*                 17               0-1.86736745589-1  1.2029044315-1*
*                  0.0+0               0
GRID*                 18               0-1.26632669188-1 7.43285023731-2*
*                  0.0+0               0
GRID*                 19               0 4.69846310393-2-1.71010071663-2*
*                  0.0+0               0
GRID*                 20               0 4.69846310393-2 5.78989928337-2*
*                  0.0+0               0
GRID*                 21               0 4.69846310393-2 8.28989928337-2*
*                  0.0+0               0
GRID*                 22               0 4.69846310393-2 1.82898992834-1*
*                  0.0+0               0
GRID*                 23               0 5.69846310393-2 5.78989928337-2*
*                  0.0+0               0
GRID*                 24               0 4.69846310393-2 7.89899283372-3*
*                  0.0+0               0
GRID*                 25               0 4.69846310393-2 1.32898992834-1*
*                  0.0+0               0
GRID*                 26               0 4.69846310393-2 1.07898992834-1*
*                  0.0+0               0
GRID*                 27               0 4.69846310393-2 3.28989928337-2*
*                  0.0+0               0
GRID*                 28               0 5.69846310393-2 1.07898992834-1*
*                  0.0+0               0
GRID*                 29               0 5.69846310393-2 1.32898992834-1*
*                  0.0+0               0
GRID*                 30               0 5.69846310393-2-1.71010071663-2*
*                  0.0+0               0
GRID*                 31               0 5.69846310393-2 1.82898992834-1*
*                  0.0+0               0
GRID*                 32               0 4.69846310393-2 1.57898992834-1*
*                  0.0+0               0
GRID*                 33               0 5.69846310393-2 1.57898992834-1*
*                  0.0+0               0
GRID*                 34               0 5.69846310393-2 3.28989928337-2*
*                  0.0+0               0
GRID*                 35               0 5.69846310393-2 7.89899283372-3*
*                  0.0+0               0
GRID*                 36               0 5.69846310393-2 8.28989928337-2*
*                  0.0+0               0
PARAM    STR_CID      -2
$--1---><--2---><--3---><--4---><--5---><--6---><--7---><--8---><--9---><--10-->
$$$$$$$$$$$$$$$$$$$$$$$$$$$$$$$$$$$ Material $$$$$$$$$$$$$$$$$$$$$$$$$$$$$$$$$$$
MAT1           1  5.0+10  2.5+10   0.0+0   0.0+0   6.0-4   0.0+0
$--1---><--2---><--3---><--4---><--5---><--6---><--7---><--8---><--9---><--10-->
SPC            1       1       1   0.0+0
SPC            1       1       2   0.0+0
SPC            1       1       3   0.0+0
SPC            1       1       4   0.0+0
SPC            1       1       5   0.0+0
SPC            1       1       6   0.0+0
SPC            1       7       1   0.0+0
SPC            1       7       2   0.0+0
SPC            1       7       3   0.0+0
SPC            1       7       4   0.0+0
SPC            1       7       5   0.0+0
SPC            1       7       6   0.0+0
SPC            1      19       1   0.0+0
SPC            1      19       2   0.0+0
SPC            1      19       3   0.0+0
SPC            1      19       4   0.0+0
SPC            1      19       5   0.0+0
SPC            1      19       6   0.0+0
SPC            1      30       1   0.0+0
SPC            1      30       2   0.0+0
SPC            1      30       3   0.0+0
SPC            1      30       4   0.0+0
SPC            1      30       5   0.0+0
SPC            1      30       6   0.0+0
$--1---><--2---><--3---><--4---><--5---><--6---><--7---><--8---><--9---><--10-->
$$$$$$$$$$$$$$$$$$$$$$$$$$$$$$$$$$$ Default $$$$$$$$$$$$$$$$$$$$$$$$$$$$$$$$$$$$
PSHELL         1       1   1.0-5       1               1           0.0+0
CQUAD4         1       1      14       7       1      16   0.0+0   0.0+0
CQUAD4         2       1      12      15      18       3   0.0+0   0.0+0
CQUAD4         3       1       2       4      11      10   0.0+0   0.0+0
CQUAD4         4       1       9      13       5       6   0.0+0   0.0+0
CQUAD4         5       1       3      18       4       2   0.0+0   0.0+0
CQUAD4         6       1      15       9       6      12   0.0+0   0.0+0
CQUAD4         7       1      13      14      16       5   0.0+0   0.0+0
CQUAD4         8       1      10      11       8      17   0.0+0   0.0+0
CQUAD4         9       1      30      35      24      19   0.0+0   0.0+0
CQUAD4        10       1      34      23      20      27   0.0+0   0.0+0
CQUAD4        11       1      21      36      28      26   0.0+0   0.0+0
CQUAD4        12       1      35      34      27      24   0.0+0   0.0+0
CQUAD4        13       1      25      29      33      32   0.0+0   0.0+0
CQUAD4        14       1      26      28      29      25   0.0+0   0.0+0
CQUAD4        15       1      23      36      21      20   0.0+0   0.0+0
CQUAD4        16       1      32      33      31      22   0.0+0   0.0+0
$--1---><--2---><--3---><--4---><--5---><--6---><--7---><--8---><--9---><--10-->
$$$$$$$$$$$$$$$$$$$$$$$$$$$$$$$$$$$$ force $$$$$$$$$$$$$$$$$$$$$$$$$$$$$$$$$$$$$
FORCE          2      31       0   1.0+0   0.0+0  -5.0-1   0.0+0
FORCE          2      22       0   1.0+0   0.0+0  -5.0-1   0.0+0
$--1---><--2---><--3---><--4---><--5---><--6---><--7---><--8---><--9---><--10-->
$$$$$$$$$$$$$$$$$$$$$$$$$$$$$$$$$$$$ force $$$$$$$$$$$$$$$$$$$$$$$$$$$$$$$$$$$$$
FORCE*                 2               8               0           1.0+0*
*        3.53553390593-1-3.53553390593-1           0.0+0
FORCE*                 2              17               0           1.0+0*
*        3.53553390593-1-3.53553390593-1           0.0+0
$--1---><--2---><--3---><--4---><--5---><--6---><--7---><--8---><--9---><--10-->
EIGRL          1                       2       0           1.0-6    MASS
LOAD           1   1.0+0   1.0+0       2
ENDDATA 
