$ Generated by Mecway 33
$-----------------------EXECUTIVE CONTROL SECTION-----------------------
SOL 105
CEND
$-------------------------CASE CONTROL SECTION--------------------------
DISPLACEMENT = ALL
SPC = 1
SUBCASE 1
TEMPERATURE = 4
SUBCASE 2
METHOD = 1
BEGIN BULK
$---------------------------BULK DATA SECTION---------------------------
GRID           1       0   0.0+0   0.0+0   0.0+0       0
GRID*                  2               0-2.56515107494-2 7.04769465589-2*
*                  0.0+0               0
GRID*                  3               0-3.42020143326-2 9.39692620786-2*
*                  0.0+0               0
GRID*                  4               0-6.84040286651-2 1.87938524157-1*
*                  0.0+0               0
GRID*                  5               0-2.15919522978-3 7.90274501421-2*
*                  0.0+0               0
GRID*                  6               0-8.55050358314-3 2.34923155196-2*
*                  0.0+0               0
GRID*                  7               0-5.13030214989-2 1.40953893118-1*
*                  0.0+0               0
GRID*                  8               0-4.27525179157-2 1.17461577598-1*
*                  0.0+0               0
GRID*                  9               0-1.71010071663-2 4.69846310393-2*
*                  0.0+0               0
GRID*                 10               0-1.92602023961-2 1.26012081181-1*
*                  0.0+0               0
GRID*                 11               0-2.78107059792-2 1.49504396701-1*
*                  0.0+0               0
GRID*                 12               0 2.34923155196-2 8.55050358314-3*
*                  0.0+0               0
GRID*                 13               0-4.49117131455-2  1.9648902774-1*
*                  0.0+0               0
GRID*                 14               0 -5.9853525082-2 1.64446208638-1*
*                  0.0+0               0
GRID*                 15               0-3.63612095623-2 1.72996712221-1*
*                  0.0+0               0
GRID*                 16               0 6.39130835336-3 5.55351346224-2*
*                  0.0+0               0
GRID*                 17               0 1.49418119365-2 3.20428191028-2*
*                  0.0+0               0
GRID*                 18               0-1.07096988129-2 1.02519765662-1*
*                  0.0+0               0
GRID*                 19               0 4.69846310393-2-1.71010071663-2*
*                  0.0+0               0
GRID*                 20               0 4.69846310393-2 5.78989928337-2*
*                  0.0+0               0
GRID*                 21               0 4.69846310393-2 8.28989928337-2*
*                  0.0+0               0
GRID*                 22               0 4.69846310393-2 1.82898992834-1*
*                  0.0+0               0
GRID*                 23               0 7.19846310393-2 5.78989928337-2*
*                  0.0+0               0
GRID*                 24               0 4.69846310393-2 7.89899283372-3*
*                  0.0+0               0
GRID*                 25               0 4.69846310393-2 1.32898992834-1*
*                  0.0+0               0
GRID*                 26               0 4.69846310393-2 1.07898992834-1*
*                  0.0+0               0
GRID*                 27               0 4.69846310393-2 3.28989928337-2*
*                  0.0+0               0
GRID*                 28               0 7.19846310393-2 1.07898992834-1*
*                  0.0+0               0
GRID*                 29               0 7.19846310393-2 1.32898992834-1*
*                  0.0+0               0
GRID*                 30               0 7.19846310393-2-1.71010071663-2*
*                  0.0+0               0
GRID*                 31               0 7.19846310393-2 1.82898992834-1*
*                  0.0+0               0
GRID*                 32               0 4.69846310393-2 1.57898992834-1*
*                  0.0+0               0
GRID*                 33               0 7.19846310393-2 1.57898992834-1*
*                  0.0+0               0
GRID*                 34               0 7.19846310393-2 3.28989928337-2*
*                  0.0+0               0
GRID*                 35               0 7.19846310393-2 7.89899283372-3*
*                  0.0+0               0
GRID*                 36               0 7.19846310393-2 8.28989928337-2*
*                  0.0+0               0
GRID*                 37               0-4.53153893518-2 -2.1130913087-2*
*                  0.0+0               0
GRID*                 38               0-9.83483979408-2  3.1902095502-2*
*                  0.0+0               0
GRID*                 39               0 -1.1602606747-1 4.95797650316-2*
*                  0.0+0               0
GRID*                 40               0-1.86736745589-1  1.2029044315-1*
*                  0.0+0               0
GRID*                 41               0-8.06707284112-2 4.95797650316-2*
*                  0.0+0               0
GRID*                 42               0-6.29930588815-2-3.45324355737-3*
*                  0.0+0               0
GRID*                 43               0 -1.5138140653-1 8.49351040909-2*
*                  0.0+0               0
GRID*                 44               0   -1.33703737-1 6.72574345613-2*
*                  0.0+0               0
GRID*                 45               0-8.06707284112-2 1.42244259723-2*
*                  0.0+0               0
GRID*                 46               0 -1.1602606747-1 8.49351040909-2*
*                  0.0+0               0
GRID*                 47               0   -1.33703737-1 1.02612773621-1*
*                  0.0+0               0
GRID*                 48               0-2.76377198222-2-3.45324355737-3*
*                  0.0+0               0
GRID*                 49               0-1.69059076059-1  1.3796811268-1*
*                  0.0+0               0
GRID*                 50               0-1.69059076059-1 1.02612773621-1*
*                  0.0+0               0
GRID*                 51               0 -1.5138140653-1  1.2029044315-1*
*                  0.0+0               0
GRID*                 52               0-6.29930588815-2  3.1902095502-2*
*                  0.0+0               0
GRID*                 53               0-4.53153893518-2 1.42244259723-2*
*                  0.0+0               0
GRID*                 54               0-9.83483979408-2 6.72574345613-2*
*                  0.0+0               0
PARAM   QUAD4TYP   MIN4T
PARAM    STR_CID      -2
$--1---><--2---><--3---><--4---><--5---><--6---><--7---><--8---><--9---><--10-->
$$$$$$$$$$$$$$$$$$$$$$$$$$$$$$$$$$$ Material $$$$$$$$$$$$$$$$$$$$$$$$$$$$$$$$$$$
MAT1           1  5.0+10  2.5+10   0.0+0   0.0+0   6.0-4   3.0+2
$--1---><--2---><--3---><--4---><--5---><--6---><--7---><--8---><--9---><--10-->
SPC            1       1       1   0.0+0
SPC            1       1       2   0.0+0
SPC            1       1       3   0.0+0
SPC            1       4       1   0.0+0
SPC            1       4       2   0.0+0
SPC            1       4       4   0.0+0
SPC            1       4       5   0.0+0
SPC            1      12       1   0.0+0
SPC            1      12       2   0.0+0
SPC            1      12       3   0.0+0
SPC            1      13       2   0.0+0
SPC            1      13       1   0.0+0
SPC            1      13       4   0.0+0
SPC            1      13       5   0.0+0
SPC            1      19       1   0.0+0
SPC            1      19       2   0.0+0
SPC            1      19       3   0.0+0
SPC            1      22       1   0.0+0
SPC            1      22       2   0.0+0
SPC            1      22       4   0.0+0
SPC            1      22       5   0.0+0
SPC            1      30       1   0.0+0
SPC            1      30       2   0.0+0
SPC            1      30       3   0.0+0
SPC            1      31       2   0.0+0
SPC            1      31       1   0.0+0
SPC            1      31       4   0.0+0
SPC            1      31       5   0.0+0
SPC            1      37       1   0.0+0
SPC            1      37       2   0.0+0
SPC            1      37       3   0.0+0
SPC            1      40       2   0.0+0
SPC            1      40       1   0.0+0
SPC            1      40       4   0.0+0
SPC            1      40       5   0.0+0
SPC            1      48       1   0.0+0
SPC            1      48       2   0.0+0
SPC            1      48       3   0.0+0
SPC            1      49       2   0.0+0
SPC            1      49       1   0.0+0
SPC            1      49       4   0.0+0
SPC            1      49       5   0.0+0
$--1---><--2---><--3---><--4---><--5---><--6---><--7---><--8---><--9---><--10-->
$$$$$$$$$$$$$$$$$$$$$$$$$$$$$$$$$$$ Default $$$$$$$$$$$$$$$$$$$$$$$$$$$$$$$$$$$$
PSHELL         1       1   1.0-3       1               1           0.0+0
CQUAD4         1       1      12      17       6       1   0.0+0   0.0+0
CQUAD4         2       1      16       5       2       9   0.0+0   0.0+0
CQUAD4         3       1       3      18      10       8   0.0+0   0.0+0
CQUAD4         4       1      17      16       9       6   0.0+0   0.0+0
CQUAD4         5       1       7      11      15      14   0.0+0   0.0+0
CQUAD4         6       1       8      10      11       7   0.0+0   0.0+0
CQUAD4         7       1       5      18       3       2   0.0+0   0.0+0
CQUAD4         8       1      14      15      13       4   0.0+0   0.0+0
CQUAD4         9       1      30      35      24      19   0.0+0   0.0+0
CQUAD4        10       1      34      23      20      27   0.0+0   0.0+0
CQUAD4        11       1      21      36      28      26   0.0+0   0.0+0
CQUAD4        12       1      35      34      27      24   0.0+0   0.0+0
CQUAD4        13       1      25      29      33      32   0.0+0   0.0+0
CQUAD4        14       1      26      28      29      25   0.0+0   0.0+0
CQUAD4        15       1      23      36      21      20   0.0+0   0.0+0
CQUAD4        16       1      32      33      31      22   0.0+0   0.0+0
CQUAD4        17       1      53      48      37      42   0.0+0   0.0+0
CQUAD4        18       1      41      52      45      38   0.0+0   0.0+0
CQUAD4        19       1      39      54      46      44   0.0+0   0.0+0
CQUAD4        20       1      52      53      42      45   0.0+0   0.0+0
CQUAD4        21       1      43      47      51      50   0.0+0   0.0+0
CQUAD4        22       1      44      46      47      43   0.0+0   0.0+0
CQUAD4        23       1      54      41      38      39   0.0+0   0.0+0
CQUAD4        24       1      50      51      49      40   0.0+0   0.0+0
$--1---><--2---><--3---><--4---><--5---><--6---><--7---><--8---><--9---><--10-->
$$$$$$$$$$$$$$$$$$$$$$$$$$$$$$$$$ temperature $$$$$$$$$$$$$$$$$$$$$$$$$$$$$$$$$$
TEMP           4       7   4.0+2
TEMP           4      11   4.0+2
TEMP           4      15   4.0+2
TEMP           4      14   4.0+2
TEMP           4      13   4.0+2
TEMP           4       4   4.0+2
TEMP           4       5   4.0+2
TEMP           4      18   4.0+2
TEMP           4       3   4.0+2
TEMP           4       2   4.0+2
TEMP           4      12   4.0+2
TEMP           4      17   4.0+2
TEMP           4       6   4.0+2
TEMP           4       1   4.0+2
TEMP           4      10   4.0+2
TEMP           4       8   4.0+2
TEMP           4      16   4.0+2
TEMP           4       9   4.0+2
TEMP           4      30   4.0+2
TEMP           4      35   4.0+2
TEMP           4      24   4.0+2
TEMP           4      19   4.0+2
TEMP           4      34   4.0+2
TEMP           4      23   4.0+2
TEMP           4      20   4.0+2
TEMP           4      27   4.0+2
TEMP           4      21   4.0+2
TEMP           4      36   4.0+2
TEMP           4      28   4.0+2
TEMP           4      26   4.0+2
TEMP           4      25   4.0+2
TEMP           4      29   4.0+2
TEMP           4      33   4.0+2
TEMP           4      32   4.0+2
TEMP           4      31   4.0+2
TEMP           4      22   4.0+2
TEMP           4      52   4.0+2
TEMP           4      53   4.0+2
TEMP           4      42   4.0+2
TEMP           4      45   4.0+2
TEMP           4      39   4.0+2
TEMP           4      54   4.0+2
TEMP           4      46   4.0+2
TEMP           4      44   4.0+2
TEMP           4      48   4.0+2
TEMP           4      37   4.0+2
TEMP           4      43   4.0+2
TEMP           4      47   4.0+2
TEMP           4      51   4.0+2
TEMP           4      50   4.0+2
TEMP           4      41   4.0+2
TEMP           4      38   4.0+2
TEMP           4      49   4.0+2
TEMP           4      40   4.0+2
$--1---><--2---><--3---><--4---><--5---><--6---><--7---><--8---><--9---><--10-->
TEMPD          4   3.0+2
$--1---><--2---><--3---><--4---><--5---><--6---><--7---><--8---><--9---><--10-->
EIGRL          1                       3       0           1.0-5    MASS
ENDDATA 
