$ Generated by Mecway 33
$-----------------------EXECUTIVE CONTROL SECTION-----------------------
SOL 105
CEND
$-------------------------CASE CONTROL SECTION--------------------------
DISPLACEMENT = ALL
SPC = 1
SUBCASE 1
LOAD = 1
SUBCASE 2
METHOD = 1
BEGIN BULK
$---------------------------BULK DATA SECTION---------------------------
GRID           1       0  -5.0-1   0.0+0   0.0+0       0
GRID           2       0   5.0-1   0.0+0   0.0+0       0
GRID           3       0   5.0-1   1.0+0   0.0+0       0
GRID           4       0  -5.0-1   1.0+0   0.0+0       0
GRID           5       0   0.0+0   0.0+0   0.0+0       0
GRID           6       0   5.0-1   5.0-1   0.0+0       0
GRID           7       0   0.0+0   1.0+0   0.0+0       0
GRID           8       0  -5.0-1   5.0-1   0.0+0       0
GRID           9       0   0.0+0   5.0-1   0.0+0       0
GRID          10       0  -2.5-1   5.0-1   0.0+0       0
GRID          11       0   0.0+0   7.5-1   0.0+0       0
GRID          12       0  -2.5-1   1.0+0   0.0+0       0
GRID          13       0  -5.0-1   7.5-1   0.0+0       0
GRID          14       0  -2.5-1   7.5-1   0.0+0       0
GRID          15       0  -2.5-1   0.0+0   0.0+0       0
GRID          16       0   0.0+0   2.5-1   0.0+0       0
GRID          17       0  -5.0-1   2.5-1   0.0+0       0
GRID          18       0  -2.5-1   2.5-1   0.0+0       0
GRID          19       0   2.5-1   0.0+0   0.0+0       0
GRID          20       0   5.0-1   2.5-1   0.0+0       0
GRID          21       0   2.5-1   5.0-1   0.0+0       0
GRID          22       0   2.5-1   2.5-1   0.0+0       0
GRID          23       0   2.5-1   1.0+0   0.0+0       0
GRID          24       0   5.0-1   7.5-1   0.0+0       0
GRID          25       0   2.5-1   7.5-1   0.0+0       0
PARAM    STR_CID      -2
$--1---><--2---><--3---><--4---><--5---><--6---><--7---><--8---><--9---><--10-->
$$$$$$$$$$$$$$$$$$$$$$$$$$$$$$$$$$$ Material $$$$$$$$$$$$$$$$$$$$$$$$$$$$$$$$$$$
MAT1           1  2.0+11  1.0+11   0.0+0   0.0+0   0.0+0   0.0+0
$--1---><--2---><--3---><--4---><--5---><--6---><--7---><--8---><--9---><--10-->
SPC            1       1       1   0.0+0
SPC            1       1       2   0.0+0
SPC            1       1       3   0.0+0
SPC            1       1       4   0.0+0
SPC            1       1       5   0.0+0
SPC            1       1       6   0.0+0
SPC            1       4       1   0.0+0
SPC            1       4       2   0.0+0
SPC            1       4       3   0.0+0
SPC            1       4       4   0.0+0
SPC            1       4       5   0.0+0
SPC            1       4       6   0.0+0
SPC            1       8       1   0.0+0
SPC            1       8       2   0.0+0
SPC            1       8       3   0.0+0
SPC            1       8       4   0.0+0
SPC            1       8       5   0.0+0
SPC            1       8       6   0.0+0
SPC            1      13       1   0.0+0
SPC            1      13       2   0.0+0
SPC            1      13       3   0.0+0
SPC            1      13       4   0.0+0
SPC            1      13       5   0.0+0
SPC            1      13       6   0.0+0
SPC            1      17       1   0.0+0
SPC            1      17       2   0.0+0
SPC            1      17       3   0.0+0
SPC            1      17       4   0.0+0
SPC            1      17       5   0.0+0
SPC            1      17       6   0.0+0
$--1---><--2---><--3---><--4---><--5---><--6---><--7---><--8---><--9---><--10-->
$$$$$$$$$$$$$$$$$$$$$$$$$$$$$$$$$$$ Default $$$$$$$$$$$$$$$$$$$$$$$$$$$$$$$$$$$$
PSHELL         1       1   1.0-1       1               1           0.0+0
CTRIA3         1       1       6      25      24   0.0+0   0.0+0
CTRIA3         2       1      21      11      25   0.0+0   0.0+0
CTRIA3         3       1      25       7      23   0.0+0   0.0+0
CTRIA3         4       1      24      23       3   0.0+0   0.0+0
CTRIA3         5       1       8      14      13   0.0+0   0.0+0
CTRIA3         6       1      10      11      14   0.0+0   0.0+0
CTRIA3         7       1      14       7      12   0.0+0   0.0+0
CTRIA3         8       1      13      12       4   0.0+0   0.0+0
CTRIA3         9       1       1      18      17   0.0+0   0.0+0
CTRIA3        10       1      15      16      18   0.0+0   0.0+0
CTRIA3        11       1      18       9      10   0.0+0   0.0+0
CTRIA3        12       1      17      10       8   0.0+0   0.0+0
CTRIA3        13       1       5      22      16   0.0+0   0.0+0
CTRIA3        14       1      19      20      22   0.0+0   0.0+0
CTRIA3        15       1      22       6      21   0.0+0   0.0+0
CTRIA3        16       1      16      21       9   0.0+0   0.0+0
CTRIA3        17       1       6      21      25   0.0+0   0.0+0
CTRIA3        18       1      21       9      11   0.0+0   0.0+0
CTRIA3        19       1      25      11       7   0.0+0   0.0+0
CTRIA3        20       1      24      25      23   0.0+0   0.0+0
CTRIA3        21       1       8      10      14   0.0+0   0.0+0
CTRIA3        22       1      10       9      11   0.0+0   0.0+0
CTRIA3        23       1      14      11       7   0.0+0   0.0+0
CTRIA3        24       1      13      14      12   0.0+0   0.0+0
CTRIA3        25       1       1      15      18   0.0+0   0.0+0
CTRIA3        26       1      15       5      16   0.0+0   0.0+0
CTRIA3        27       1      18      16       9   0.0+0   0.0+0
CTRIA3        28       1      17      18      10   0.0+0   0.0+0
CTRIA3        29       1       5      19      22   0.0+0   0.0+0
CTRIA3        30       1      19       2      20   0.0+0   0.0+0
CTRIA3        31       1      22      20       6   0.0+0   0.0+0
CTRIA3        32       1      16      22      21   0.0+0   0.0+0
$--1---><--2---><--3---><--4---><--5---><--6---><--7---><--8---><--9---><--10-->
$$$$$$$$$$$$$$$$$$$$$$$$$$$$$$$$$$$$ force $$$$$$$$$$$$$$$$$$$$$$$$$$$$$$$$$$$$$
FORCE*                 2               2               0           1.0+0*
*       -2.60416666667+1           0.0+0           0.0+0
$--1---><--2---><--3---><--4---><--5---><--6---><--7---><--8---><--9---><--10-->
$$$$$$$$$$$$$$$$$$$$$$$$$$$$$$$$$$$$ force $$$$$$$$$$$$$$$$$$$$$$$$$$$$$$$$$$$$$
FORCE          2      20       0   1.0+0-9.375+1   0.0+0   0.0+0
$--1---><--2---><--3---><--4---><--5---><--6---><--7---><--8---><--9---><--10-->
$$$$$$$$$$$$$$$$$$$$$$$$$$$$$$$$$$$$ force $$$$$$$$$$$$$$$$$$$$$$$$$$$$$$$$$$$$$
FORCE*                 2               6               0           1.0+0*
*              -1.5625+2           0.0+0           0.0+0
$--1---><--2---><--3---><--4---><--5---><--6---><--7---><--8---><--9---><--10-->
$$$$$$$$$$$$$$$$$$$$$$$$$$$$$$$$$$$$ force $$$$$$$$$$$$$$$$$$$$$$$$$$$$$$$$$$$$$
FORCE*                 2              24               0           1.0+0*
*              -2.1875+2           0.0+0           0.0+0
$--1---><--2---><--3---><--4---><--5---><--6---><--7---><--8---><--9---><--10-->
$$$$$$$$$$$$$$$$$$$$$$$$$$$$$$$$$$$$ force $$$$$$$$$$$$$$$$$$$$$$$$$$$$$$$$$$$$$
FORCE*                 2               3               0           1.0+0*
*       -1.30208333333+2           0.0+0           0.0+0
$--1---><--2---><--3---><--4---><--5---><--6---><--7---><--8---><--9---><--10-->
EIGRL          1                       1       0           1.0+4    MASS
LOAD           1   1.0+0   1.0+0       2
ENDDATA 
