$ Generated by Mecway 33
$-----------------------EXECUTIVE CONTROL SECTION-----------------------
SOL 105
CEND
$-------------------------CASE CONTROL SECTION--------------------------
DISPLACEMENT = ALL
SPC = 1
SUBCASE 1
LOAD = 1
SUBCASE 2
METHOD = 1
BEGIN BULK
$---------------------------BULK DATA SECTION---------------------------
GRID           1       0   0.0+0   0.0+0   0.0+0       0
GRID           2       0   1.0+0   0.0+0   0.0+0       0
GRID           3       0   1.0+0   1.0-1   0.0+0       0
GRID           4       0   0.0+0   1.0-1   0.0+0       0
GRID           5       0   1.0-1   0.0+0   0.0+0       0
GRID           6       0   1.0-1   1.0-1   0.0+0       0
GRID           7       0   2.0-1   0.0+0   0.0+0       0
GRID           8       0   2.0-1   1.0-1   0.0+0       0
GRID           9       0   3.0-1   0.0+0   0.0+0       0
GRID          10       0   3.0-1   1.0-1   0.0+0       0
GRID          11       0   4.0-1   0.0+0   0.0+0       0
GRID          12       0   4.0-1   1.0-1   0.0+0       0
GRID          13       0   5.0-1   0.0+0   0.0+0       0
GRID          14       0   5.0-1   1.0-1   0.0+0       0
GRID          15       0   6.0-1   0.0+0   0.0+0       0
GRID          16       0   6.0-1   1.0-1   0.0+0       0
GRID          17       0   7.0-1   0.0+0   0.0+0       0
GRID          18       0   7.0-1   1.0-1   0.0+0       0
GRID          19       0   8.0-1   0.0+0   0.0+0       0
GRID          20       0   8.0-1   1.0-1   0.0+0       0
GRID          21       0   9.0-1   0.0+0   0.0+0       0
GRID          22       0   9.0-1   1.0-1   0.0+0       0
GRID          23       0   9.5-1   0.0+0   0.0+0       0
GRID          24       0   1.0+0   5.0-2   0.0+0       0
GRID          25       0   9.5-1   1.0-1   0.0+0       0
GRID          26       0   9.0-1   5.0-2   0.0+0       0
GRID          27       0   9.5-1   5.0-2   0.0+0       0
GRID          28       0   5.0-2   0.0+0   0.0+0       0
GRID          29       0   1.0-1   5.0-2   0.0+0       0
GRID          30       0   5.0-2   1.0-1   0.0+0       0
GRID          31       0   0.0+0   5.0-2   0.0+0       0
GRID          32       0   5.0-2   5.0-2   0.0+0       0
GRID          33       0   1.5-1   0.0+0   0.0+0       0
GRID          34       0   2.0-1   5.0-2   0.0+0       0
GRID          35       0   1.5-1   1.0-1   0.0+0       0
GRID          36       0   1.5-1   5.0-2   0.0+0       0
GRID          37       0   2.5-1   0.0+0   0.0+0       0
GRID          38       0   3.0-1   5.0-2   0.0+0       0
GRID          39       0   2.5-1   1.0-1   0.0+0       0
GRID          40       0   2.5-1   5.0-2   0.0+0       0
GRID          41       0   3.5-1   0.0+0   0.0+0       0
GRID          42       0   4.0-1   5.0-2   0.0+0       0
GRID          43       0   3.5-1   1.0-1   0.0+0       0
GRID          44       0   3.5-1   5.0-2   0.0+0       0
GRID          45       0   4.5-1   0.0+0   0.0+0       0
GRID          46       0   5.0-1   5.0-2   0.0+0       0
GRID          47       0   4.5-1   1.0-1   0.0+0       0
GRID          48       0   4.5-1   5.0-2   0.0+0       0
GRID          49       0   5.5-1   0.0+0   0.0+0       0
GRID          50       0   6.0-1   5.0-2   0.0+0       0
GRID          51       0   5.5-1   1.0-1   0.0+0       0
GRID          52       0   5.5-1   5.0-2   0.0+0       0
GRID          53       0   6.5-1   0.0+0   0.0+0       0
GRID          54       0   7.0-1   5.0-2   0.0+0       0
GRID          55       0   6.5-1   1.0-1   0.0+0       0
GRID          56       0   6.5-1   5.0-2   0.0+0       0
GRID          57       0   7.5-1   0.0+0   0.0+0       0
GRID          58       0   8.0-1   5.0-2   0.0+0       0
GRID          59       0   7.5-1   1.0-1   0.0+0       0
GRID          60       0   7.5-1   5.0-2   0.0+0       0
GRID          61       0   8.5-1   0.0+0   0.0+0       0
GRID          62       0   8.5-1   1.0-1   0.0+0       0
GRID          63       0   8.5-1   5.0-2   0.0+0       0
PARAM   QUAD4TYP  MITC4+
PARAM    STR_CID      -2
$--1---><--2---><--3---><--4---><--5---><--6---><--7---><--8---><--9---><--10-->
$$$$$$$$$$$$$$$$$$$$$$$$$$$$$$$$$$$ Material $$$$$$$$$$$$$$$$$$$$$$$$$$$$$$$$$$$
MAT1*                  1          1.0+11 3.8461538462+10           3.0-1*
*                  0.0+0           0.0+0           0.0+0
$--1---><--2---><--3---><--4---><--5---><--6---><--7---><--8---><--9---><--10-->
SPC            1       1       1   0.0+0
SPC            1       1       2   0.0+0
SPC            1       1       3   0.0+0
SPC            1       1       4   0.0+0
SPC            1       1       5   0.0+0
SPC            1       1       6   0.0+0
SPC            1       4       1   0.0+0
SPC            1       4       2   0.0+0
SPC            1       4       3   0.0+0
SPC            1       4       4   0.0+0
SPC            1       4       5   0.0+0
SPC            1       4       6   0.0+0
SPC            1      31       1   0.0+0
SPC            1      31       2   0.0+0
SPC            1      31       3   0.0+0
SPC            1      31       4   0.0+0
SPC            1      31       5   0.0+0
SPC            1      31       6   0.0+0
$--1---><--2---><--3---><--4---><--5---><--6---><--7---><--8---><--9---><--10-->
$$$$$$$$$$$$$$$$$$$$$$$$$$$$$$$$$$$ Default $$$$$$$$$$$$$$$$$$$$$$$$$$$$$$$$$$$$
PSHELL         1       1   1.0-3       1               1           0.0+0
CQUAD4         1       1      56      54      18      55   0.0+0   0.0+0
CQUAD4         2       1      50      56      55      16   0.0+0   0.0+0
CQUAD4         3       1      17      57      60      54   0.0+0   0.0+0
CQUAD4         4       1      57      19      58      60   0.0+0   0.0+0
CQUAD4         5       1      60      58      20      59   0.0+0   0.0+0
CQUAD4         6       1      54      60      59      18   0.0+0   0.0+0
CQUAD4         7       1      19      61      63      58   0.0+0   0.0+0
CQUAD4         8       1      61      21      26      63   0.0+0   0.0+0
CQUAD4         9       1      63      26      22      62   0.0+0   0.0+0
CQUAD4        10       1      58      63      62      20   0.0+0   0.0+0
CQUAD4        11       1      21      23      27      26   0.0+0   0.0+0
CQUAD4        12       1      23       2      24      27   0.0+0   0.0+0
CQUAD4        13       1      27      24       3      25   0.0+0   0.0+0
CQUAD4        14       1      26      27      25      22   0.0+0   0.0+0
CQUAD4        15       1       1      28      32      31   0.0+0   0.0+0
CQUAD4        16       1      28       5      29      32   0.0+0   0.0+0
CQUAD4        17       1      32      29       6      30   0.0+0   0.0+0
CQUAD4        18       1      31      32      30       4   0.0+0   0.0+0
CQUAD4        19       1       5      33      36      29   0.0+0   0.0+0
CQUAD4        20       1      33       7      34      36   0.0+0   0.0+0
CQUAD4        21       1      36      34       8      35   0.0+0   0.0+0
CQUAD4        22       1      29      36      35       6   0.0+0   0.0+0
CQUAD4        23       1       7      37      40      34   0.0+0   0.0+0
CQUAD4        24       1      37       9      38      40   0.0+0   0.0+0
CQUAD4        25       1      40      38      10      39   0.0+0   0.0+0
CQUAD4        26       1      34      40      39       8   0.0+0   0.0+0
CQUAD4        27       1       9      41      44      38   0.0+0   0.0+0
CQUAD4        28       1      41      11      42      44   0.0+0   0.0+0
CQUAD4        29       1      44      42      12      43   0.0+0   0.0+0
CQUAD4        30       1      38      44      43      10   0.0+0   0.0+0
CQUAD4        31       1      11      45      48      42   0.0+0   0.0+0
CQUAD4        32       1      45      13      46      48   0.0+0   0.0+0
CQUAD4        33       1      48      46      14      47   0.0+0   0.0+0
CQUAD4        34       1      42      48      47      12   0.0+0   0.0+0
CQUAD4        35       1      13      49      52      46   0.0+0   0.0+0
CQUAD4        36       1      49      15      50      52   0.0+0   0.0+0
CQUAD4        37       1      52      50      16      51   0.0+0   0.0+0
CQUAD4        38       1      46      52      51      14   0.0+0   0.0+0
CQUAD4        39       1      15      53      56      50   0.0+0   0.0+0
CQUAD4        40       1      53      17      54      56   0.0+0   0.0+0
$--1---><--2---><--3---><--4---><--5---><--6---><--7---><--8---><--9---><--10-->
$$$$$$$$$$$$$$$$$$$$$$$$$$$$$$$$$$$$ force $$$$$$$$$$$$$$$$$$$$$$$$$$$$$$$$$$$$$
FORCE          2       2       0   1.0+0   0.0+0   2.5-1   0.0+0
FORCE          2      24       0   1.0+0   0.0+0   5.0-1   0.0+0
FORCE          2       3       0   1.0+0   0.0+0   2.5-1   0.0+0
$--1---><--2---><--3---><--4---><--5---><--6---><--7---><--8---><--9---><--10-->
EIGRL          1                       1       0           1.0+0    MASS
LOAD           1   1.0+0   1.0+0       2
ENDDATA 
