$ Generated by Mecway 33
$-----------------------EXECUTIVE CONTROL SECTION-----------------------
SOL 101
CEND
$-------------------------CASE CONTROL SECTION--------------------------
DISPLACEMENT = ALL
SPCFORCES = ALL
MPCFORCES = ALL
SPC = 1
LOAD = 1
BEGIN BULK
$---------------------------BULK DATA SECTION---------------------------
GRID           1       0   0.0+0   5.5-1   0.0+0       0
GRID*                  2               0  7.1789405721-2 5.45294673756-1*
*                  1.0+0               0
GRID*                  3               0 1.42350474806-1 5.31259204459-1*
*                  2.0+0               0
GRID*                  4               0 2.10475887801-1 5.08133742881-1*
*                  3.0+0               0
GRID*                  5               0          2.75-1 4.76313972081-1*
*                  4.0+0               0
GRID*                  6               0 3.34818785955-1  4.3634433716-1*
*                  5.0+0               0
GRID*                  7               0 3.88908729653-1 3.88908729653-1*
*                  6.0+0               0
GRID*                  8               0  4.3634433716-1 3.34818785955-1*
*                  7.0+0               0
GRID*                  9               0 4.76313972081-1          2.75-1*
*                  8.0+0               0
GRID*                 10               0 5.08133742881-1 2.10475887801-1*
*                  9.0+0               0
GRID*                 11               0 5.31259204459-1 1.42350474806-1*
*                  1.0+1               0
GRID*                 12               0 5.45294673756-1  7.1789405721-2*
*                  1.1+1               0
GRID*                 13               0           5.5-1  3.367667473-17*
*                  1.2+1               0
GRID          14       0   0.0+0  -5.5-1   0.0+0       0
GRID*                 15               0 -7.1789405721-2-5.45294673756-1*
*                  1.0+0               0
GRID*                 16               0-1.42350474806-1-5.31259204459-1*
*                  2.0+0               0
GRID*                 17               0-2.10475887801-1-5.08133742881-1*
*                  3.0+0               0
GRID*                 18               0         -2.75-1-4.76313972081-1*
*                  4.0+0               0
GRID*                 19               0-3.34818785955-1 -4.3634433716-1*
*                  5.0+0               0
GRID*                 20               0-3.88908729653-1-3.88908729653-1*
*                  6.0+0               0
GRID*                 21               0 -4.3634433716-1-3.34818785955-1*
*                  7.0+0               0
GRID*                 22               0-4.76313972081-1         -2.75-1*
*                  8.0+0               0
GRID*                 23               0-5.08133742881-1-2.10475887801-1*
*                  9.0+0               0
GRID*                 24               0-5.31259204459-1-1.42350474806-1*
*                  1.0+1               0
GRID*                 25               0-5.45294673756-1 -7.1789405721-2*
*                  1.1+1               0
GRID*                 26               0          -5.5-1 -3.367667473-17*
*                  1.2+1               0
GRID          27       0   0.0+0   0.0+0   0.0+0       0
GRID          28       0   0.0+0   0.0+0   1.0+0       0
GRID          29       0   0.0+0   0.0+0   7.0+0       0
GRID          30       0   0.0+0   0.0+0   2.0+0       0
GRID          31       0   0.0+0   0.0+0   1.0+1       0
GRID          32       0   0.0+0   0.0+0   3.0+0       0
GRID          33       0   0.0+0   0.0+0   8.0+0       0
GRID          34       0   0.0+0   0.0+0   4.0+0       0
GRID          35       0   0.0+0   0.0+0   1.2+1       0
GRID          36       0   0.0+0   0.0+0   5.0+0       0
GRID          37       0   0.0+0   0.0+0   9.0+0       0
GRID          38       0   0.0+0   0.0+0   6.0+0       0
GRID          39       0   0.0+0   0.0+0   1.1+1       0
GRID          40       0   0.0+0  2.75-1   0.0+0       0
GRID*                 41               0 3.59717210766-2 5.48822407781-1*
*                  5.0-1               0
GRID*                 42               0 3.58947028605-2 2.72647336878-1*
*                  1.0+0               0
GRID          43       0   0.0+0   0.0+0   5.0-1       0
GRID*                 44               0 1.07299677109-1 5.39431904222-1*
*                  1.5+0               0
GRID*                 45               0 7.11752374032-2 2.65629602229-1*
*                  2.0+0               0
GRID          46       0   0.0+0   0.0+0   1.5+0       0
GRID*                 47               0 1.76791705917-1 5.20811571222-1*
*                  2.5+0               0
GRID*                 48               0   1.052379439-1 2.54066871441-1*
*                  3.0+0               0
GRID          49       0   0.0+0   0.0+0   2.5+0       0
GRID*                 50               0  2.4325877962-1 4.93280007843-1*
*                  3.5+0               0
GRID*                 51               0         1.375-1 2.38156986041-1*
*                  4.0+0               0
GRID          52       0   0.0+0   0.0+0   3.5+0       0
GRID*                 53               0 3.05563628161-1 4.57308286766-1*
*                  4.5+0               0
GRID*                 54               0 1.67409392977-1  2.1817216858-1*
*                  5.0+0               0
GRID          55       0   0.0+0   0.0+0   4.5+0       0
GRID*                 56               0 3.62640198305-1 4.13511894113-1*
*                  5.5+0               0
GRID*                 57               0 1.94454364826-1 1.94454364826-1*
*                  6.0+0               0
GRID          58       0   0.0+0   0.0+0   5.5+0       0
GRID*                 59               0 4.13511894113-1 3.62640198305-1*
*                  6.5+0               0
GRID*                 60               0  2.1817216858-1 1.67409392977-1*
*                  7.0+0               0
GRID          61       0   0.0+0   0.0+0   6.5+0       0
GRID*                 62               0 4.57308286766-1 3.05563628161-1*
*                  7.5+0               0
GRID*                 63               0 2.38156986041-1         1.375-1*
*                  8.0+0               0
GRID          64       0   0.0+0   0.0+0   7.5+0       0
GRID*                 65               0 4.93280007843-1  2.4325877962-1*
*                  8.5+0               0
GRID*                 66               0 2.54066871441-1   1.052379439-1*
*                  9.0+0               0
GRID          67       0   0.0+0   0.0+0   8.5+0       0
GRID*                 68               0 5.20811571222-1 1.76791705917-1*
*                  9.5+0               0
GRID*                 69               0 2.65629602229-1 7.11752374032-2*
*                  1.0+1               0
GRID          70       0   0.0+0   0.0+0   9.5+0       0
GRID*                 71               0 5.39431904222-1 1.07299677109-1*
*                 1.05+1               0
GRID*                 72               0 2.72647336878-1 3.58947028605-2*
*                  1.1+1               0
GRID          73       0   0.0+0   0.0+0  1.05+1       0
GRID*                 74               0 5.48822407781-1 3.59717210766-2*
*                 1.15+1               0
GRID*                 75               0          2.75-1 1.6838337365-17*
*                  1.2+1               0
GRID          76       0   0.0+0   0.0+0  1.15+1       0
GRID          77       0   0.0+0 -2.75-1   0.0+0       0
GRID*                 78               0-3.58947028605-2-2.72647336878-1*
*                  1.0+0               0
GRID*                 79               0-3.59717210766-2-5.48822407781-1*
*                  5.0-1               0
GRID*                 80               0-7.11752374032-2-2.65629602229-1*
*                  2.0+0               0
GRID*                 81               0-1.07299677109-1-5.39431904222-1*
*                  1.5+0               0
GRID*                 82               0  -1.052379439-1-2.54066871441-1*
*                  3.0+0               0
GRID*                 83               0-1.76791705917-1-5.20811571222-1*
*                  2.5+0               0
GRID*                 84               0        -1.375-1-2.38156986041-1*
*                  4.0+0               0
GRID*                 85               0 -2.4325877962-1-4.93280007843-1*
*                  3.5+0               0
GRID*                 86               0-1.67409392977-1 -2.1817216858-1*
*                  5.0+0               0
GRID*                 87               0-3.05563628161-1-4.57308286766-1*
*                  4.5+0               0
GRID*                 88               0-1.94454364826-1-1.94454364826-1*
*                  6.0+0               0
GRID*                 89               0-3.62640198305-1-4.13511894113-1*
*                  5.5+0               0
GRID*                 90               0 -2.1817216858-1-1.67409392977-1*
*                  7.0+0               0
GRID*                 91               0-4.13511894113-1-3.62640198305-1*
*                  6.5+0               0
GRID*                 92               0-2.38156986041-1        -1.375-1*
*                  8.0+0               0
GRID*                 93               0-4.57308286766-1-3.05563628161-1*
*                  7.5+0               0
GRID*                 94               0-2.54066871441-1  -1.052379439-1*
*                  9.0+0               0
GRID*                 95               0-4.93280007843-1 -2.4325877962-1*
*                  8.5+0               0
GRID*                 96               0-2.65629602229-1-7.11752374032-2*
*                  1.0+1               0
GRID*                 97               0-5.20811571222-1-1.76791705917-1*
*                  9.5+0               0
GRID*                 98               0-2.72647336878-1-3.58947028605-2*
*                  1.1+1               0
GRID*                 99               0-5.39431904222-1-1.07299677109-1*
*                 1.05+1               0
GRID*                100               0         -2.75-1-1.6838337365-17*
*                  1.2+1               0
GRID*                101               0-5.48822407781-1-3.59717210766-2*
*                 1.15+1               0
PARAM    STR_CID      -2
$--1---><--2---><--3---><--4---><--5---><--6---><--7---><--8---><--9---><--10-->
$$$$$$$$$$$$$$$$$$$$$$$$$$$$$$$$$$$ Material $$$$$$$$$$$$$$$$$$$$$$$$$$$$$$$$$$$
MAT1*                  1           2.9+7 1.18852459016+7           2.2-1*
*                  0.0+0           0.0+0           0.0+0
$--1---><--2---><--3---><--4---><--5---><--6---><--7---><--8---><--9---><--10-->
SPC            1       1       1   0.0+0
SPC            1       1       2   0.0+0
SPC            1       1       3   0.0+0
SPC            1       1       4   0.0+0
SPC            1       1       5   0.0+0
SPC            1       1       6   0.0+0
SPC            1      14       1   0.0+0
SPC            1      14       2   0.0+0
SPC            1      14       3   0.0+0
SPC            1      14       4   0.0+0
SPC            1      14       5   0.0+0
SPC            1      14       6   0.0+0
SPC            1      27       1   0.0+0
SPC            1      27       2   0.0+0
SPC            1      27       3   0.0+0
SPC            1      27       4   0.0+0
SPC            1      27       5   0.0+0
SPC            1      27       6   0.0+0
SPC            1      40       1   0.0+0
SPC            1      40       2   0.0+0
SPC            1      40       3   0.0+0
SPC            1      40       4   0.0+0
SPC            1      40       5   0.0+0
SPC            1      40       6   0.0+0
SPC            1      77       1   0.0+0
SPC            1      77       2   0.0+0
SPC            1      77       3   0.0+0
SPC            1      77       4   0.0+0
SPC            1      77       5   0.0+0
SPC            1      77       6   0.0+0
$--1---><--2---><--3---><--4---><--5---><--6---><--7---><--8---><--9---><--10-->
$$$$$$$$$$$$$$$$$$$$$$$$$$$$$$$$$$$ Default $$$$$$$$$$$$$$$$$$$$$$$$$$$$$$$$$$$$
PSHELL         1       1   3.2-1       1               1           0.0+0
CQUAD8         1       1       1      27      28       2      40      43+
+             42      41                                       2   0.0+0
CORD2R         2       0   0.0+0   0.0+0   0.0+0   1.0+0   0.0+0   0.0+0+
+          0.0+0  -1.0+0   0.0+0
CQUAD8         2       1       2      28      30       3      42      46+
+             45      44                                       3   0.0+0
CORD2R*                3               0           0.0+0           0.0+0*
*                  0.0+0 9.91444861374-1 -1.3052619222-1           0.0+0*
*        -1.3052619222-1-9.91444861374-1           0.0+0                *
*
CQUAD8         3       1       3      30      32       4      45      49+
+             48      47                                       4   0.0+0
CORD2R*                4               0           0.0+0           0.0+0*
*                  0.0+0 9.65925826289-1-2.58819045103-1           0.0+0*
*       -2.58819045103-1-9.65925826289-1           0.0+0                *
*
CQUAD8         4       1       4      32      34       5      48      52+
+             51      50                                       5   0.0+0
CORD2R*                5               0           0.0+0           0.0+0*
*                  0.0+0 9.23879532511-1-3.82683432365-1           0.0+0*
*       -3.82683432365-1-9.23879532511-1           0.0+0                *
*
CQUAD8         5       1       5      34      36       6      51      55+
+             54      53                                       6   0.0+0
CORD2R*                6               0           0.0+0           0.0+0*
*                  0.0+0 8.66025403784-1          -5.0-1           0.0+0*
*                 -5.0-1-8.66025403784-1           0.0+0                *
*
CQUAD8         6       1       6      36      38       7      54      58+
+             57      56                                       7   0.0+0
CORD2R*                7               0           0.0+0           0.0+0*
*                  0.0+0 7.93353340291-1-6.08761429009-1           0.0+0*
*       -6.08761429009-1-7.93353340291-1           0.0+0                *
*
CQUAD8         7       1       7      38      29       8      57      61+
+             60      59                                       8   0.0+0
CORD2R*                8               0           0.0+0           0.0+0*
*                  0.0+0 7.07106781187-1-7.07106781187-1           0.0+0*
*       -7.07106781187-1-7.07106781187-1           0.0+0                *
*
CQUAD8         8       1       8      29      33       9      60      64+
+             63      62                                       9   0.0+0
CORD2R*                9               0           0.0+0           0.0+0*
*                  0.0+0 6.08761429009-1-7.93353340291-1           0.0+0*
*       -7.93353340291-1-6.08761429009-1           0.0+0                *
*
CQUAD8         9       1       9      33      37      10      63      67+
+             66      65                                      10   0.0+0
CORD2R*               10               0           0.0+0           0.0+0*
*                  0.0+0           5.0-1-8.66025403784-1           0.0+0*
*       -8.66025403784-1          -5.0-1           0.0+0                *
*
CQUAD8        10       1      10      37      31      11      66      70+
+             69      68                                      11   0.0+0
CORD2R*               11               0           0.0+0           0.0+0*
*                  0.0+0 3.82683432365-1-9.23879532511-1           0.0+0*
*       -9.23879532511-1-3.82683432365-1           0.0+0                *
*
CQUAD8        11       1      11      31      39      12      69      73+
+             72      71                                      12   0.0+0
CORD2R*               12               0           0.0+0           0.0+0*
*                  0.0+0 2.58819045103-1-9.65925826289-1           0.0+0*
*       -9.65925826289-1-2.58819045103-1           0.0+0                *
*
CQUAD8        12       1      12      39      35      13      72      76+
+             75      74                                      13   0.0+0
CORD2R*               13               0           0.0+0           0.0+0*
*                  0.0+0  1.3052619222-1-9.91444861374-1           0.0+0*
*       -9.91444861374-1 -1.3052619222-1           0.0+0                *
*
CQUAD8        13       1      27      14      15      28      77      79+
+             78      43                                      14   0.0+0
CORD2R        14       0   0.0+0   0.0+0   0.0+0   1.0+0   0.0+0   0.0+0+
+          0.0+0  -1.0+0   0.0+0
CQUAD8        14       1      28      15      16      30      78      81+
+             80      46                                      15   0.0+0
CORD2R*               15               0           0.0+0           0.0+0*
*                  0.0+0 9.91444861374-1 -1.3052619222-1           0.0+0*
*        -1.3052619222-1-9.91444861374-1           0.0+0                *
*
CQUAD8        15       1      30      16      17      32      80      83+
+             82      49                                      16   0.0+0
CORD2R*               16               0           0.0+0           0.0+0*
*                  0.0+0 9.65925826289-1-2.58819045103-1           0.0+0*
*       -2.58819045103-1-9.65925826289-1           0.0+0                *
*
CQUAD8        16       1      32      17      18      34      82      85+
+             84      52                                      17   0.0+0
CORD2R*               17               0           0.0+0           0.0+0*
*                  0.0+0 9.23879532511-1-3.82683432365-1           0.0+0*
*       -3.82683432365-1-9.23879532511-1           0.0+0                *
*
CQUAD8        17       1      34      18      19      36      84      87+
+             86      55                                      18   0.0+0
CORD2R*               18               0           0.0+0           0.0+0*
*                  0.0+0 8.66025403784-1          -5.0-1           0.0+0*
*                 -5.0-1-8.66025403784-1           0.0+0                *
*
CQUAD8        18       1      36      19      20      38      86      89+
+             88      58                                      19   0.0+0
CORD2R*               19               0           0.0+0           0.0+0*
*                  0.0+0 7.93353340291-1-6.08761429009-1           0.0+0*
*       -6.08761429009-1-7.93353340291-1           0.0+0                *
*
CQUAD8        19       1      38      20      21      29      88      91+
+             90      61                                      20   0.0+0
CORD2R*               20               0           0.0+0           0.0+0*
*                  0.0+0 7.07106781187-1-7.07106781187-1           0.0+0*
*       -7.07106781187-1-7.07106781187-1           0.0+0                *
*
CQUAD8        20       1      29      21      22      33      90      93+
+             92      64                                      21   0.0+0
CORD2R*               21               0           0.0+0           0.0+0*
*                  0.0+0 6.08761429009-1-7.93353340291-1           0.0+0*
*       -7.93353340291-1-6.08761429009-1           0.0+0                *
*
CQUAD8        21       1      33      22      23      37      92      95+
+             94      67                                      22   0.0+0
CORD2R*               22               0           0.0+0           0.0+0*
*                  0.0+0           5.0-1-8.66025403784-1           0.0+0*
*       -8.66025403784-1          -5.0-1           0.0+0                *
*
CQUAD8        22       1      37      23      24      31      94      97+
+             96      70                                      23   0.0+0
CORD2R*               23               0           0.0+0           0.0+0*
*                  0.0+0 3.82683432365-1-9.23879532511-1           0.0+0*
*       -9.23879532511-1-3.82683432365-1           0.0+0                *
*
CQUAD8        23       1      31      24      25      39      96      99+
+             98      73                                      24   0.0+0
CORD2R*               24               0           0.0+0           0.0+0*
*                  0.0+0 2.58819045103-1-9.65925826289-1           0.0+0*
*       -9.65925826289-1-2.58819045103-1           0.0+0                *
*
CQUAD8        24       1      39      25      26      35      98     101+
+            100      76                                      25   0.0+0
CORD2R*               25               0           0.0+0           0.0+0*
*                  0.0+0  1.3052619222-1-9.91444861374-1           0.0+0*
*       -9.91444861374-1 -1.3052619222-1           0.0+0                *
*
$--1---><--2---><--3---><--4---><--5---><--6---><--7---><--8---><--9---><--10-->
$$$$$$$$$$$$$$$$$$$$$$$$$$$$$$$$$$$$ force $$$$$$$$$$$$$$$$$$$$$$$$$$$$$$$$$$$$$
FORCE*                 2              35               0           1.0+0*
*        1.66666618358-1           0.0+0           0.0+0
FORCE*                 2              75               0           1.0+0*
*        3.33333332853-1           0.0+0           0.0+0
FORCE*                 2              13               0           1.0+0*
*        8.33333579676-2           0.0+0           0.0+0
FORCE*                 2              26               0           1.0+0*
*        8.33333579676-2           0.0+0           0.0+0
FORCE*                 2             100               0           1.0+0*
*        3.33333332853-1           0.0+0           0.0+0
$--1---><--2---><--3---><--4---><--5---><--6---><--7---><--8---><--9---><--10-->
LOAD           1   1.0+0   1.0+0       2
ENDDATA 
