$ Generated by Mecway 33
$-----------------------EXECUTIVE CONTROL SECTION-----------------------
SOL 101
CEND
$-------------------------CASE CONTROL SECTION--------------------------
DISPLACEMENT = ALL
SPCFORCES = ALL
MPCFORCES = ALL
STRESS(CORNER) = ALL
STRAIN(CORNER,FIBER) = ALL
FORCE(CORNER) = ALL
SPC = 1
LOAD = 1
BEGIN BULK
$---------------------------BULK DATA SECTION---------------------------
GRID           1       0   0.0+0   0.0+0   0.0+0       0
GRID           2       0   1.2+0   0.0+0   0.0+0       0
GRID           3       0   1.2+0   1.2+0   0.0+0       0
GRID           4       0   0.0+0   1.2+0   0.0+0       0
GRID           5       0   2.0+0   0.0+0   0.0+0       0
GRID           6       0   3.2+0   0.0+0   0.0+0       0
GRID           7       0   3.2+0   1.2+0   0.0+0       0
GRID           8       0   2.0+0   1.2+0   0.0+0       0
GRID           9       0  -2.0+0   0.0+0   0.0+0       0
GRID          10       0  -8.0-1   0.0+0   0.0+0       0
GRID          11       0  -8.0-1   1.2+0   0.0+0       0
GRID          12       0  -2.0+0   1.2+0   0.0+0       0
GRID          13       0  -2.0+0   2.0+0   0.0+0       0
GRID          14       0  -8.0-1   2.0+0   0.0+0       0
GRID          15       0  -8.0-1   3.2+0   0.0+0       0
GRID          16       0  -2.0+0   3.2+0   0.0+0       0
GRID          17       0   2.0+0   2.0+0   0.0+0       0
GRID          18       0   3.2+0   2.0+0   0.0+0       0
GRID          19       0   3.2+0   3.2+0   0.0+0       0
GRID          20       0   2.0+0   3.2+0   0.0+0       0
GRID          21       0   5.2+0   1.2+0   0.0+0       0
GRID          22       0   4.0+0   1.2+0   0.0+0       0
GRID          23       0   5.2+0   0.0+0   0.0+0       0
GRID          24       0   4.0+0   0.0+0   0.0+0       0
GRID*                 25               0 6.35536269767+0 3.59017617689+0*
*                  0.0+0               1
GRID*                 26               0 5.22773155272+0  3.1797520049+0*
*                  0.0+0               0
GRID*                 27               0 6.76578686966+0 2.46254503194+0*
*                  0.0+0               1
GRID*                 28               0 5.63815572472+0 2.05212085995+0*
*                  0.0+0               0
GRID          29       0   6.0-1   0.0+0   0.0+0       0
GRID          30       0   1.2+0   6.0-1   0.0+0       0
GRID          31       0   6.0-1   1.2+0   0.0+0       0
GRID          32       0   0.0+0   6.0-1   0.0+0       0
GRID          33       0   2.6+0   0.0+0   0.0+0       0
GRID          34       0   3.2+0   6.0-1   0.0+0       0
GRID          35       0   2.6+0   1.2+0   0.0+0       0
GRID          36       0   2.0+0   6.0-1   0.0+0       0
GRID          37       0  -1.4+0   0.0+0   0.0+0       0
GRID          38       0  -8.0-1   6.0-1   0.0+0       0
GRID          39       0  -1.4+0   1.2+0   0.0+0       0
GRID          40       0  -2.0+0   6.0-1   0.0+0       0
GRID          41       0  -1.4+0   2.0+0   0.0+0       0
GRID          42       0  -8.0-1   2.6+0   0.0+0       0
GRID          43       0  -1.4+0   3.2+0   0.0+0       0
GRID          44       0  -2.0+0   2.6+0   0.0+0       0
GRID          45       0   2.6+0   2.0+0   0.0+0       0
GRID          46       0   3.2+0   2.6+0   0.0+0       0
GRID          47       0   2.6+0   3.2+0   0.0+0       0
GRID          48       0   2.0+0   2.6+0   0.0+0       0
GRID          49       0   4.6+0   0.0+0   0.0+0       0
GRID          50       0   5.2+0   6.0-1   0.0+0       0
GRID          51       0   4.6+0   1.2+0   0.0+0       0
GRID          52       0   4.0+0   6.0-1   0.0+0       0
GRID*                 53               0 6.20197129719+0 2.25733294595+0*
*                  0.0+0               1
GRID*                 54               0 6.56057478366+0 3.02636060442+0*
*                  0.0+0               1
GRID*                 55               0  5.7915471252+0 3.38496409089+0*
*                  0.0+0               1
GRID*                 56               0 5.43294363872+0 2.61593643243+0*
*                  0.0+0               0
PARAM    STR_CID      -2
$--1---><--2---><--3---><--4---><--5---><--6---><--7---><--8---><--9---><--10-->
$$$$$$$$$$$$$$$$$$$$$$$$$$$$$$$$$$$ Material $$$$$$$$$$$$$$$$$$$$$$$$$$$$$$$$$$$
MAT1           1   5.0+0   2.5+0   0.0+0   0.0+0   0.0+0   0.0+0
$--1---><--2---><--3---><--4---><--5---><--6---><--7---><--8---><--9---><--10-->
CORD2R*                1               0           0.0+0           0.0+0*
*                  0.0+0           0.0+0           0.0+0           1.0+0*
*        9.39692620786-1 3.42020143326-1           0.0+0                *
*
SPC            1       1       1   0.0+0
SPC            1       1       2   0.0+0
SPC            1       1       3   0.0+0
SPC            1       1       4   0.0+0
SPC            1       1       5   0.0+0
SPC            1       1       6   0.0+0
SPC*                   1               2               1-2.1371793224-18*
*       
SPC            1       2       2   1.2-2
SPC*                   1               3               1-2.1371793224-18*
*       
SPC            1       3       2   1.2-2
SPC            1       4       1   0.0+0
SPC            1       4       2   0.0+0
SPC            1       4       3   0.0+0
SPC            1       4       4   0.0+0
SPC            1       4       5   0.0+0
SPC            1       4       6   0.0+0
SPC            1       5       1   0.0+0
SPC            1       5       2   0.0+0
SPC            1       5       3   0.0+0
SPC            1       5       4   0.0+0
SPC            1       5       5   0.0+0
SPC            1       5       6   0.0+0
SPC*                   1               6               1 5.5511151231-18*
*       
SPC            1       6       3   1.0-1
SPC            1       6       5   0.0+0
SPC*                   1               7               1 5.5511151231-18*
*       
SPC            1       7       3   1.0-1
SPC            1       7       5   0.0+0
SPC            1       8       1   0.0+0
SPC            1       8       2   0.0+0
SPC            1       8       3   0.0+0
SPC            1       8       4   0.0+0
SPC            1       8       5   0.0+0
SPC            1       8       6   0.0+0
SPC            1       9       1   0.0+0
SPC            1       9       2   0.0+0
SPC            1       9       3   0.0+0
SPC            1       9       4   0.0+0
SPC            1       9       5   0.0+0
SPC            1       9       6   0.0+0
SPC            1      10       1   1.3-1
SPC            1      11       1   1.3-1
SPC            1      12       1   0.0+0
SPC            1      12       2   0.0+0
SPC            1      12       3   0.0+0
SPC            1      12       4   0.0+0
SPC            1      12       5   0.0+0
SPC            1      12       6   0.0+0
SPC            1      13       1   0.0+0
SPC            1      13       2   0.0+0
SPC            1      13       3   0.0+0
SPC            1      13       4   0.0+0
SPC            1      13       5   0.0+0
SPC            1      13       6   0.0+0
SPC            1      14       1   0.0+0
SPC            1      14       2   0.0+0
SPC            1      14       3   0.0+0
SPC            1      14       4   0.0+0
SPC            1      14       5   0.0+0
SPC            1      14       6   0.0+0
SPC            1      15       2   1.3-1
SPC            1      16       2   1.3-1
SPC            1      17       1   0.0+0
SPC            1      17       2   0.0+0
SPC            1      17       3   0.0+0
SPC            1      17       4   0.0+0
SPC            1      17       5   0.0+0
SPC            1      17       6   0.0+0
SPC            1      18       1   0.0+0
SPC            1      18       2   0.0+0
SPC            1      18       3   0.0+0
SPC            1      18       4   0.0+0
SPC            1      18       5   0.0+0
SPC            1      18       6   0.0+0
SPC            1      19       3   1.0-1
SPC            1      19       2   0.0+0
SPC            1      19       5   0.0+0
SPC            1      19       4   0.0+0
SPC            1      20       3   1.0-1
SPC            1      20       2   0.0+0
SPC            1      20       4   0.0+0
SPC            1      22       1   0.0+0
SPC            1      22       2   0.0+0
SPC            1      22       3   0.0+0
SPC            1      22       4   0.0+0
SPC            1      22       5   0.0+0
SPC            1      22       6   0.0+0
SPC            1      24       1   0.0+0
SPC            1      24       2   0.0+0
SPC            1      24       3   0.0+0
SPC            1      24       4   0.0+0
SPC            1      24       5   0.0+0
SPC            1      24       6   0.0+0
SPC            1      25       2   7.0-2
SPC*                   1              25               1 6.7654215563-16*
*       
SPC            1      25       5   0.0+0
SPC            1      25       6   0.0+0
SPC            1      26       1   0.0+0
SPC            1      26       2   0.0+0
SPC            1      26       3   0.0+0
SPC            1      26       4   0.0+0
SPC            1      26       5   0.0+0
SPC            1      26       6   0.0+0
SPC            1      27       2   7.0-2
SPC*                   1              27               1 -3.469446952-16*
*       
SPC            1      27       5   0.0+0
SPC            1      27       6   0.0+0
SPC            1      28       1   0.0+0
SPC            1      28       2   0.0+0
SPC            1      28       3   0.0+0
SPC            1      28       4   0.0+0
SPC            1      28       5   0.0+0
SPC            1      28       6   0.0+0
SPC            1      29       1   0.0+0
SPC*                   1              30               1-2.1371793224-18*
*       
SPC            1      30       2   1.2-2
SPC            1      31       1   0.0+0
SPC            1      32       1   0.0+0
SPC            1      32       2   0.0+0
SPC            1      32       3   0.0+0
SPC            1      32       4   0.0+0
SPC            1      32       5   0.0+0
SPC            1      32       6   0.0+0
SPC            1      33       5   0.0+0
SPC*                   1              34               1 5.5511151231-18*
*       
SPC            1      34       3   1.0-1
SPC            1      34       5   0.0+0
SPC            1      35       5   0.0+0
SPC            1      36       1   0.0+0
SPC            1      36       2   0.0+0
SPC            1      36       3   0.0+0
SPC            1      36       4   0.0+0
SPC            1      36       5   0.0+0
SPC            1      36       6   0.0+0
SPC            1      38       1   1.3-1
SPC            1      40       1   0.0+0
SPC            1      40       2   0.0+0
SPC            1      40       3   0.0+0
SPC            1      40       4   0.0+0
SPC            1      40       5   0.0+0
SPC            1      40       6   0.0+0
SPC            1      41       1   0.0+0
SPC            1      41       2   0.0+0
SPC            1      41       3   0.0+0
SPC            1      41       4   0.0+0
SPC            1      41       5   0.0+0
SPC            1      41       6   0.0+0
SPC            1      43       2   1.3-1
SPC            1      45       1   0.0+0
SPC            1      45       2   0.0+0
SPC            1      45       3   0.0+0
SPC            1      45       4   0.0+0
SPC            1      45       5   0.0+0
SPC            1      45       6   0.0+0
SPC            1      46       5   0.0+0
SPC            1      46       4   0.0+0
SPC            1      47       3   1.0-1
SPC            1      47       2   0.0+0
SPC            1      47       4   0.0+0
SPC            1      48       4   0.0+0
SPC            1      52       1   0.0+0
SPC            1      52       2   0.0+0
SPC            1      52       3   0.0+0
SPC            1      52       4   0.0+0
SPC            1      52       5   0.0+0
SPC            1      52       6   0.0+0
SPC            1      53       1   0.0+0
SPC*                   1              54               1-6.9388939039-18*
*       
SPC            1      54       2   7.0-2
SPC            1      54       5   0.0+0
SPC            1      54       6   0.0+0
SPC            1      55       1   0.0+0
SPC            1      56       1   0.0+0
SPC            1      56       2   0.0+0
SPC            1      56       3   0.0+0
SPC            1      56       4   0.0+0
SPC            1      56       5   0.0+0
SPC            1      56       6   0.0+0
$--1---><--2---><--3---><--4---><--5---><--6---><--7---><--8---><--9---><--10-->
$$$$$$$$$$$$$$$$$$$$$$$$$$$$$$$$$$$ Default $$$$$$$$$$$$$$$$$$$$$$$$$$$$$$$$$$$$
PSHELL         2       1   3.0-1       1               1           0.0+0
CQUAD8         1       2       1       2       3       4      29      30+
+             31      32                                       3   0.0+0
CORD2R         3       0   0.0+0   0.0+0   0.0+0   0.0+0   1.0+0   0.0+0+
+          1.0+0   0.0+0   0.0+0
CQUAD8         2       2       5       6       7       8      33      34+
+             35      36                                       4   0.0+0
CORD2R         4       0   0.0+0   0.0+0   0.0+0   0.0+0   1.0+0   0.0+0+
+          1.0+0   0.0+0   0.0+0
CQUAD8         3       2       9      10      11      12      37      38+
+             39      40                                       5   0.0+0
CORD2R         5       0   0.0+0   0.0+0   0.0+0   0.0+0   1.0+0   0.0+0+
+          1.0+0   0.0+0   0.0+0
CQUAD8         4       2      13      14      15      16      41      42+
+             43      44                                       6   0.0+0
CORD2R         6       0   0.0+0   0.0+0   0.0+0  -1.0+0   0.0+0   0.0+0+
+          0.0+0   1.0+0   0.0+0
CQUAD8         5       2      17      18      19      20      45      46+
+             47      48                                       7   0.0+0
CORD2R         7       0   0.0+0   0.0+0   0.0+0  -1.0+0   0.0+0   0.0+0+
+          0.0+0   1.0+0   0.0+0
CQUAD8         6       2      24      23      21      22      49      50+
+             51      52                                       8   0.0+0
CORD2R         8       0   0.0+0   0.0+0   0.0+0   0.0+0   1.0+0   0.0+0+
+          1.0+0   0.0+0   0.0+0
CQUAD8         7       2      28      27      25      26      53      54+
+             55      56                                       9   0.0+0
CORD2R*                9               0           0.0+0           0.0+0*
*                  0.0+0-3.42020143326-1 9.39692620786-1           0.0+0*
*        9.39692620786-1 3.42020143326-1           0.0+0                *
*
$--1---><--2---><--3---><--4---><--5---><--6---><--7---><--8---><--9---><--10-->
$$$$$$$$$$$$$$$$$$$$$$$$$$$$$$$$$$$$ moment $$$$$$$$$$$$$$$$$$$$$$$$$$$$$$$$$$$$
MOMENT         2      21       0   1.0+0   0.0+0   1.0-3   0.0+0
$--1---><--2---><--3---><--4---><--5---><--6---><--7---><--8---><--9---><--10-->
$$$$$$$$$$$$$$$$$$$$$$$$$$$$$$$$$$$$ moment $$$$$$$$$$$$$$$$$$$$$$$$$$$$$$$$$$$$
MOMENT         2      23       0   1.0+0   0.0+0   1.0-3   0.0+0
$--1---><--2---><--3---><--4---><--5---><--6---><--7---><--8---><--9---><--10-->
$$$$$$$$$$$$$$$$$$$$$$$$$$$$$$$$$$$$ moment $$$$$$$$$$$$$$$$$$$$$$$$$$$$$$$$$$$$
MOMENT         2      50       0   1.0+0   0.0+0   4.0-3   0.0+0
$--1---><--2---><--3---><--4---><--5---><--6---><--7---><--8---><--9---><--10-->
LOAD           1   1.0+0   1.0+0       2
ENDDATA 
