$ Generated by Mecway 33
$-----------------------EXECUTIVE CONTROL SECTION-----------------------
SOL 101
CEND
$-------------------------CASE CONTROL SECTION--------------------------
DISPLACEMENT = ALL
SPCFORCES = ALL
MPCFORCES = ALL
STRESS(CORNER) = ALL
SPC = 1
LOAD = 1
BEGIN BULK
$---------------------------BULK DATA SECTION---------------------------
GRID           1       0   0.0+0   0.0+0   0.0+0       0
GRID           2       0   1.0+0   0.0+0   0.0+0       0
GRID           3       0   3.0+0   1.0+0   0.0+0       0
GRID           4       0   2.0+0   1.0+0   0.0+0       0
GRID           5       0   5.0-1   0.0+0   0.0+0       0
GRID           6       0   2.0+0   5.0-1   0.0+0       0
GRID           7       0   2.5+0   1.0+0   0.0+0       0
GRID           8       0   1.0+0   5.0-1   0.0+0       0
GRID           9       0   3.0+0   0.0+0   0.0+0       0
GRID          10       0   4.0+0   0.0+0   0.0+0       0
GRID          11       0   6.0+0   1.0+0   0.0+0       0
GRID          12       0   5.0+0   1.0+0   0.0+0       0
GRID          13       0   3.5+0   0.0+0   0.0+0       0
GRID          14       0   5.0+0   5.0-1   0.0+0       0
GRID          15       0   5.5+0   1.0+0   0.0+0       0
GRID          16       0   4.0+0   5.0-1   0.0+0       0
PARAM    STR_CID      -2
$--1---><--2---><--3---><--4---><--5---><--6---><--7---><--8---><--9---><--10-->
$$$$$$$$$$$$$$$$$$$$$$$$$$$$$$$$$$$ Material $$$$$$$$$$$$$$$$$$$$$$$$$$$$$$$$$$$
MAT1           1  2.0+11  1.0+11   0.0+0   0.0+0   0.0+0   0.0+0
$--1---><--2---><--3---><--4---><--5---><--6---><--7---><--8---><--9---><--10-->
SPC            1       1       1   0.0+0
SPC            1       1       2   0.0+0
SPC            1       1       3   0.0+0
SPC            1       1       4   0.0+0
SPC            1       1       5   0.0+0
SPC            1       1       6   0.0+0
SPC            1       2       1   0.0+0
SPC            1       2       2   0.0+0
SPC            1       2       3   0.0+0
SPC            1       2       4   0.0+0
SPC            1       2       5   0.0+0
SPC            1       2       6   0.0+0
SPC            1       5       1   0.0+0
SPC            1       5       2   0.0+0
SPC            1       5       3   0.0+0
SPC            1       5       4   0.0+0
SPC            1       5       5   0.0+0
SPC            1       5       6   0.0+0
SPC            1       9       1   0.0+0
SPC            1       9       2   0.0+0
SPC            1       9       3   0.0+0
SPC            1       9       4   0.0+0
SPC            1       9       5   0.0+0
SPC            1       9       6   0.0+0
SPC            1      10       1   0.0+0
SPC            1      10       2   0.0+0
SPC            1      10       3   0.0+0
SPC            1      10       4   0.0+0
SPC            1      10       5   0.0+0
SPC            1      10       6   0.0+0
SPC            1      13       1   0.0+0
SPC            1      13       2   0.0+0
SPC            1      13       3   0.0+0
SPC            1      13       4   0.0+0
SPC            1      13       5   0.0+0
SPC            1      13       6   0.0+0
$--1---><--2---><--3---><--4---><--5---><--6---><--7---><--8---><--9---><--10-->
$$$$$$$$$$$$$$$$$$$$$$$$$$$$$$$$$$$ Default $$$$$$$$$$$$$$$$$$$$$$$$$$$$$$$$$$$$
PSHELL         1       1   1.0-2       1               1           0.0+0
CQUAD8         1       1       1       2       3       4       5       6+
+              7       8                                       2   0.0+0
CORD2R         2       0   0.0+0   0.0+0   0.0+0   0.0+0   1.0+0   0.0+0+
+          1.0+0   0.0+0   0.0+0
CQUAD8         2       1      10      11      12       9      14      15+
+             16      13                                       3   0.0+0
CORD2R         3       0   0.0+0   0.0+0   0.0+0   0.0+0   1.0+0   0.0+0+
+          1.0+0   0.0+0   0.0+0
$--1---><--2---><--3---><--4---><--5---><--6---><--7---><--8---><--9---><--10-->
$$$$$$$$$$$$$$$$$$$$$$$$$$$$$$$$$$$$ force $$$$$$$$$$$$$$$$$$$$$$$$$$$$$$$$$$$$$
FORCE*                 2              11               0           1.0+0*
*        8.33333333333+3           0.0+0           0.0+0
FORCE*                 2              15               0           1.0+0*
*        3.33333333333+4           0.0+0           0.0+0
FORCE*                 2              12               0           1.0+0*
*        8.33333333333+3           0.0+0           0.0+0
FORCE*                 2               3               0           1.0+0*
*        8.33333333333+3           0.0+0           0.0+0
FORCE*                 2               7               0           1.0+0*
*        3.33333333333+4           0.0+0           0.0+0
FORCE*                 2               4               0           1.0+0*
*        8.33333333333+3           0.0+0           0.0+0
$--1---><--2---><--3---><--4---><--5---><--6---><--7---><--8---><--9---><--10-->
LOAD           1   1.0+0   1.0+0       2
ENDDATA 
