$ Generated by Mecway 33
$-----------------------EXECUTIVE CONTROL SECTION-----------------------
SOL 101
CEND
$-------------------------CASE CONTROL SECTION--------------------------
DISPLACEMENT = ALL
SPCFORCES = ALL
MPCFORCES = ALL
STRESS(CORNER) = ALL
SPC = 1
LOAD = 1
BEGIN BULK
$---------------------------BULK DATA SECTION---------------------------
GRID*                  1               0 4.57288312912+0-1.93422758579+0*
*       -1.69990742207+0               0
GRID*                  2               0  4.0408873558+0-1.43147540092+0*
*        -1.8557497263+0               0
GRID*                  3               0 3.66326355934+0-1.55069482327+0*
*       -1.36021947861+0               0
GRID*                  4               0 4.46993398666+0-1.48930215836+0*
*       -2.17267346382+0               0
GRID*                  5               0 4.07874488831+0-9.39786612988-1*
*       -2.51622796059+0               0
GRID*                  6               0 2.03489637375+0-7.19697833061-1*
*       -2.44356513023+0               0
GRID*                  7               0 2.77731776237+0-3.19759398699-1*
*       -3.28582835197+0               0
GRID*                  8               0 3.08246541023+0-7.05722033978-1*
*       -3.73440265656+0               0
GRID*                  9               0  2.3825917244+0-9.82232391834-1*
*       -3.48294448853+0               0
GRID*                 10               0  3.1962044239+0 -1.8483080864+0*
*        -5.5614823103-1               0
GRID*                 11               0 2.84907996655+0-1.13519632816+0*
*       -1.90189230442+0               0
GRID*                 12               0 2.40610706806+0 -5.1972861588-1*
*        -2.8646967411+0               0
GRID*                 13               0 3.40910255909+0-8.75617399812-1*
*       -2.57078903913+0               0
GRID*                 14               0 3.85207545757+0-1.49108511209+0*
*       -1.60798460245+0               0
GRID*                 15               0 3.58060514927+0-8.22754323483-1*
*       -3.12531530857+0               0
GRID*                 16               0  2.9298915863+0-5.12740716338-1*
*       -3.51011550426+0               0
GRID*                 17               0 4.05981612206+0-1.18563100696+0*
*       -2.18598884344+0               0
GRID*                 18               0 2.73252856731+0-8.43977212906-1*
*       -3.60867357254+0               0
GRID*                 19               0 2.20874404907+0-8.50965112448-1*
*       -2.96325480938+0               0
GRID*                 20               0 3.88454377651+0-1.89126783609+0*
*       -1.12802782655+0               0
GRID*                 21               0 4.30688524246+0-1.68285149336+0*
*       -1.77782857418+0               0
GRID*                 22               0 3.42973399162+0-1.69950145483+0*
*       -9.58183854818-1               0
GRID*                 23               0 4.52140855789+0-1.71176487207+0*
*       -1.93629044294+0               0
GRID*                 24               0 4.27433943748+0-1.21454438567+0*
*        -2.3444507122+0               0
PARAM    STR_CID      -2
$--1---><--2---><--3---><--4---><--5---><--6---><--7---><--8---><--9---><--10-->
$$$$$$$$$$$$$$$$$$$$$$$$$$$$$$$$$$$ Material $$$$$$$$$$$$$$$$$$$$$$$$$$$$$$$$$$$
MAT1*                  1          2.0+11 7.1428571429+10           4.0-1*
*                  0.0+0           0.0+0           0.0+0
$--1---><--2---><--3---><--4---><--5---><--6---><--7---><--8---><--9---><--10-->
SPC*                   1               6               6-3.49065850399-2*
*       
SPC            1       7       5   0.0+0
SPC            1       8       4   1.0-2
SPC            1      10     123   0.0+0
$--1---><--2---><--3---><--4---><--5---><--6---><--7---><--8---><--9---><--10-->
$$$$$$$$$$$$$$$$$$$$$$$$$$$$$$$$$$$ Default $$$$$$$$$$$$$$$$$$$$$$$$$$$$$$$$$$$$
PSHELL         1       1   1.0-2       1               1           0.0+0
CQUAD8         1       1       3       6       7       2      11      12+
+             13      14                                       2   0.0+0
CORD2R*                2               0           0.0+0           0.0+0*
*                  0.0+0-4.54556017902-1-8.90718152161-1           0.0+0*
*       -7.66277841418-1 3.91050977637-1-5.09801336445-1                *
*
CQUAD8         2       1       5       8       7       2      15      16+
+             13      17                                       3   0.0+0
CORD2R*                3               0           0.0+0           0.0+0*
*                  0.0+0-2.28711449911-1-9.73494259192-1           0.0+0*
*       -6.26193616323-1 1.47117097571-1-7.65661879995-1                *
*
CQUAD8         3       1       8       9       6       7      18      19+
+             12      16                                       4   0.0+0
CORD2R*                4               0           0.0+0           0.0+0*
*                  0.0+0 3.67447544918-1-9.30044247191-1           0.0+0*
*       -8.82099412282-1 -3.4850520757-1 3.16930192864-1                *
*
CQUAD8         4       1      10       1       2       3      20      21+
+             14      22                                       5   0.0+0
CORD2R*                5               0           0.0+0           0.0+0*
*                  0.0+0 6.22895189178-2 9.98058122472-1           0.0+0*
*        7.68290015901-1-4.79495275899-2-6.38303449991-1                *
*
CQUAD8         5       1       1       4       5       2      23      24+
+             17      21                                       6   0.0+0
CORD2R*                6               0           0.0+0           0.0+0*
*                  0.0+0-9.74259551441-1-2.25429204908-1           0.0+0*
*       -1.56620369429-1  6.7688164419-1 -7.1923660894-1                *
*
$--1---><--2---><--3---><--4---><--5---><--6---><--7---><--8---><--9---><--10-->
$$$$$$$$$$$$$$$$$$$$$$$$$$$$$$$$$$$$ moment $$$$$$$$$$$$$$$$$$$$$$$$$$$$$$$$$$$$
FORCE*                 2               1               0           1.0+0*
*        7.40333309274-1 2.54788982331-1-2.59332832199-1
MOMENT*                2               1               0           1.0+0*
*       -1.57477349486-3 2.62851342793-3-1.91314464578-3
FORCE*                 2              23               0           1.0+0*
*         1.7043611986+0 1.38896706264+0-4.37379292192-1
MOMENT*                2              23               0           1.0+0*
*       -5.23830513751-3 5.66003586375-3-2.43806950731-3
FORCE*                 2               4               0           1.0+0*
*        7.45298825042-2 2.44006700568-1 1.73366805106-2
MOMENT*                2               4               0           1.0+0*
*       -5.97458450711-4 1.58154619247-4 3.42484245233-4
FORCE*                 2              24               0           1.0+0*
*       -1.19141727059+0 9.03934444934-1 6.78768258641-1
MOMENT*                2              24               0           1.0+0*
*       -1.06951776549-4-4.87068049992-3 6.29869519239-3
FORCE*                 2               5               0           1.0+0*
*        -8.4082652678-1-2.07091909958-2  3.4798790648-1
MOMENT*                2               5               0           1.0+0*
*        1.24848673426-3 -3.1162957591-3 2.83120300831-3
FORCE*                 2              17               0           1.0+0*
*       -1.88781981185+0-1.28333343803+0 5.35221895863-1
MOMENT*                2              17               0           1.0+0*
*        5.28928589253-3-6.39367360714-3 3.32572926127-3
FORCE*                 2               2               0           1.0+0*
*        -1.3918617551-1 -8.4494713102-1-1.09822966602-1
MOMENT*                2               2               0           1.0+0*
*        1.89822334901-3-1.05576204893-4-1.59348093635-3
FORCE*                 2              21               0           1.0+0*
*        1.54002539435+0-6.42707430426-1-7.72779650502-1
MOMENT*                2              21               0           1.0+0*
*       -9.18514790352-4 6.03953208837-3-6.85342227278-3
$--1---><--2---><--3---><--4---><--5---><--6---><--7---><--8---><--9---><--10-->
LOAD           1   1.0+0   1.0+0       2
ENDDATA 
