$ Generated by Mecway 33
$-----------------------EXECUTIVE CONTROL SECTION-----------------------
SOL 101
CEND
$-------------------------CASE CONTROL SECTION--------------------------
DISPLACEMENT = ALL
SPCFORCES = ALL
MPCFORCES = ALL
STRESS(CORNER) = ALL
STRAIN(CORNER,FIBER) = ALL
FORCE(CORNER) = ALL
SPC = 1
LOAD = 1
BEGIN BULK
$---------------------------BULK DATA SECTION---------------------------
GRID           1       0   0.0+0   0.0+0   0.0+0       0
GRID           2       0   3.0-2   0.0+0   0.0+0       0
GRID           3       0   3.0-2   2.1-2   0.0+0       0
GRID           4       0   0.0+0   2.1-2   0.0+0       0
GRID           5       0   6.0-2   0.0+0   0.0+0       0
GRID           6       0   9.0-2   0.0+0   0.0+0       0
GRID           7       0   9.0-2   2.1-2   0.0+0       0
GRID           8       0   6.0-2   2.1-2   0.0+0       0
GRID           9       0   1.2-1   0.0+0   0.0+0       0
GRID          10       0   1.5-1   0.0+0   0.0+0       0
GRID          11       0   1.5-1   2.1-2   0.0+0       0
GRID          12       0   1.2-1   2.1-2   0.0+0       0
GRID          13       0   1.8-1   0.0+0   0.0+0       0
GRID          14       0   2.1-1   0.0+0   0.0+0       0
GRID          15       0   2.1-1   2.1-2   0.0+0       0
GRID          16       0   1.8-1   2.1-2   0.0+0       0
GRID          17       0  -1.0-1   0.0+0   2.8-1       0
GRID          18       0  -1.0-1   0.0+0   3.1-1       0
GRID          19       0  -1.0-1   2.1-2   3.1-1       0
GRID          20       0  -1.0-1   2.1-2   2.8-1       0
GRID          21       0  -1.0-1   0.0+0   2.2-1       0
GRID          22       0  -1.0-1   0.0+0   2.5-1       0
GRID          23       0  -1.0-1   2.1-2   2.5-1       0
GRID          24       0  -1.0-1   2.1-2   2.2-1       0
GRID          25       0  -1.0-1   0.0+0   1.6-1       0
GRID          26       0  -1.0-1   0.0+0   1.9-1       0
GRID          27       0  -1.0-1   2.1-2   1.9-1       0
GRID          28       0  -1.0-1   2.1-2   1.6-1       0
GRID          29       0  -1.0-1   0.0+0   1.0-1       0
GRID          30       0  -1.0-1   0.0+0   1.3-1       0
GRID          31       0  -1.0-1   2.1-2   1.3-1       0
GRID          32       0  -1.0-1   2.1-2   1.0-1       0
GRID*                 33               0-6.03073792141-3 3.42020143326-2*
*                  0.0+0               1
GRID*                 34               0 2.21600407022-2 4.44626186323-2*
*                  0.0+0               0
GRID*                 35               0 1.49776176923-2 6.41961636688-2*
*                  0.0+0               0
GRID*                 36               0-1.32131609312-2 5.39355593691-2*
*                  0.0+0               1
GRID*                 37               0 5.03508193257-2 5.47232229321-2*
*                  0.0+0               1
GRID*                 38               0 7.85415979493-2 6.49838272319-2*
*                  0.0+0               0
GRID*                 39               0 7.13591749395-2 8.47173722684-2*
*                  0.0+0               0
GRID*                 40               0 4.31683963159-2 7.44567679686-2*
*                  0.0+0               1
GRID*                 41               0 1.06732376573-1 7.52444315316-2*
*                  0.0+0               1
GRID*                 42               0 1.34923155196-1 8.55050358314-2*
*                  0.0+0               0
GRID*                 43               0 1.27740732187-1 1.05238580868-1*
*                  0.0+0               0
GRID*                 44               0 9.95499535631-2 9.49779765682-2*
*                  0.0+0               2
GRID*                 45               0  1.6311393382-1 9.57656401312-2*
*                  0.0+0               2
GRID*                 46               0 1.91304712444-1 1.06026244431-1*
*                  0.0+0               0
GRID*                 47               0 1.84122289434-1 1.25759789467-1*
*                  0.0+0               0
GRID*                 48               0  1.5593151081-1 1.15499185168-1*
*                  0.0+0               1
GRID          49       0   1.5-2   0.0+0   0.0+0       0
GRID          50       0   3.0-2  1.05-2   0.0+0       0
GRID          51       0   1.5-2   2.1-2   0.0+0       0
GRID          52       0   0.0+0  1.05-2   0.0+0       0
GRID          53       0   9.0-2  1.05-2   0.0+0       0
GRID          54       0   7.5-2   2.1-2   0.0+0       0
GRID          55       0   6.0-2  1.05-2   0.0+0       0
GRID          56       0   7.5-2   0.0+0   0.0+0       0
GRID          57       0  1.35-1   2.1-2   0.0+0       0
GRID          58       0   1.2-1  1.05-2   0.0+0       0
GRID          59       0  1.35-1   0.0+0   0.0+0       0
GRID          60       0   1.5-1  1.05-2   0.0+0       0
GRID          61       0   1.8-1  1.05-2   0.0+0       0
GRID          62       0  1.95-1   0.0+0   0.0+0       0
GRID          63       0   2.1-1  1.05-2   0.0+0       0
GRID          64       0  1.95-1   2.1-2   0.0+0       0
GRID          65       0  -1.0-1  1.05-2   2.8-1       0
GRID          66       0  -1.0-1   0.0+0  2.95-1       0
GRID          67       0  -1.0-1  1.05-2   3.1-1       0
GRID          68       0  -1.0-1   2.1-2  2.95-1       0
GRID          69       0  -1.0-1   2.1-2  2.35-1       0
GRID          70       0  -1.0-1  1.05-2   2.2-1       0
GRID          71       0  -1.0-1   0.0+0  2.35-1       0
GRID          72       0  -1.0-1  1.05-2   2.5-1       0
GRID          73       0  -1.0-1  1.05-2   1.9-1       0
GRID          74       0  -1.0-1   2.1-2  1.75-1       0
GRID          75       0  -1.0-1  1.05-2   1.6-1       0
GRID          76       0  -1.0-1   0.0+0  1.75-1       0
GRID          77       0  -1.0-1   0.0+0  1.15-1       0
GRID          78       0  -1.0-1  1.05-2   1.3-1       0
GRID          79       0  -1.0-1   2.1-2  1.15-1       0
GRID          80       0  -1.0-1  1.05-2   1.0-1       0
GRID*                 81               0 8.06465139038-3 3.93323164825-2*
*                  0.0+0               0
GRID*                 82               0 1.85688291972-2 5.43293911506-2*
*                  0.0+0               0
GRID*                 83               0  8.8222838054-4  5.9065861519-2*
*                  0.0+0               0
GRID*                 84               0-9.62194942633-3 4.40687868508-2*
*                  0.0+0               1
GRID*                 85               0 7.49503864444-2 7.48505997501-2*
*                  0.0+0               0
GRID*                 86               0 5.72637856277-2 7.95870701185-2*
*                  0.0+0               0
GRID*                 87               0 4.67596078208-2 6.45899954504-2*
*                  0.0+0               1
GRID*                 88               0 6.44462086375-2  5.9853525082-2*
*                  0.0+0               0
GRID*                 89               0 1.13645342875-1 1.00108278718-1*
*                  0.0+0               0
GRID*                 90               0 1.03141165068-1 8.51112040499-2*
*                  0.0+0               1
GRID*                 91               0 1.20827765885-1 8.03747336815-2*
*                  0.0+0               0
GRID*                 92               0 1.31331943692-1 9.53718083497-2*
*                  0.0+0               0
GRID*                 93               0 1.59522722315-1 1.05632412649-1*
*                  0.0+0               1
GRID*                 94               0 1.77209323132-1 1.00895942281-1*
*                  0.0+0               0
GRID*                 95               0 1.87713500939-1 1.15893016949-1*
*                  0.0+0               0
GRID*                 96               0 1.70026900122-1 1.20629487318-1*
*                  0.0+0               0
PARAM    STR_CID      -2
$--1---><--2---><--3---><--4---><--5---><--6---><--7---><--8---><--9---><--10-->
$$$$$$$$$$$$$$$$$$$$$$$$$$$$$$$$$$$ Material $$$$$$$$$$$$$$$$$$$$$$$$$$$$$$$$$$$
MAT1*                  1          2.0+11 7.1428571429+10           4.0-1*
*                  0.0+0           0.0+0           0.0+0
$--1---><--2---><--3---><--4---><--5---><--6---><--7---><--8---><--9---><--10-->
CORD2R*                1               0           0.0+0           0.0+0*
*                  0.0+0           0.0+0           0.0+0           1.0+0*
*        9.39692620786-1 3.42020143326-1           0.0+0                *
*
CORD2R*                2               0           0.0+0           0.0+0*
*                  0.0+0           0.0+0           0.0+0           1.0+0*
*        9.39692620786-1 3.42020143326-1           0.0+0                *
*
SPC            1       1       2   0.0+0
SPC            1       1       3   0.0+0
SPC            1       1       1   0.0+0
SPC            1       1       5   0.0+0
SPC            1       1       6   0.0+0
SPC            1       4       1   0.0+0
SPC            1       4       3   0.0+0
SPC            1       4       5   0.0+0
SPC            1       4       6   0.0+0
SPC            1       5       2   0.0+0
SPC            1       5       3   0.0+0
SPC            1       5       1   0.0+0
SPC            1       5       5   0.0+0
SPC            1       5       6   0.0+0
SPC            1       8       1   0.0+0
SPC            1       8       3   0.0+0
SPC            1       8       5   0.0+0
SPC            1       8       6   0.0+0
SPC            1       9       2   0.0+0
SPC            1       9       3   0.0+0
SPC            1       9       1   0.0+0
SPC            1       9       5   0.0+0
SPC            1       9       6   0.0+0
SPC            1      12       1   0.0+0
SPC            1      12       5   0.0+0
SPC            1      12       6   0.0+0
SPC            1      13       2   0.0+0
SPC            1      13       3   0.0+0
SPC            1      13       1   0.0+0
SPC            1      13       5   0.0+0
SPC            1      13       6   0.0+0
SPC            1      16       1   0.0+0
SPC            1      16       5   0.0+0
SPC            1      16       6   0.0+0
SPC            1      17       2   0.0+0
SPC            1      17       1   0.0+0
SPC            1      17       3   0.0+0
SPC            1      17       5   0.0+0
SPC            1      17       4   0.0+0
SPC            1      20       3   0.0+0
SPC            1      20       5   0.0+0
SPC            1      20       4   0.0+0
SPC            1      21       2   0.0+0
SPC            1      21       1   0.0+0
SPC            1      21       3   0.0+0
SPC            1      21       5   0.0+0
SPC            1      21       4   0.0+0
SPC            1      22       6   0.0+0
SPC            1      24       3   0.0+0
SPC            1      24       5   0.0+0
SPC            1      24       4   0.0+0
SPC            1      25       2   0.0+0
SPC            1      25       1   0.0+0
SPC            1      25       3   0.0+0
SPC            1      25       5   0.0+0
SPC            1      25       4   0.0+0
SPC            1      27       6   0.0+0
SPC            1      28       3   0.0+0
SPC            1      28       5   0.0+0
SPC            1      28       4   0.0+0
SPC            1      29       2   0.0+0
SPC            1      29       1   0.0+0
SPC            1      29       3   0.0+0
SPC            1      29       5   0.0+0
SPC            1      29       4   0.0+0
SPC            1      32       3   0.0+0
SPC            1      32       6   0.0+0
SPC            1      32       4   0.0+0
SPC            1      32       5   0.0+0
SPC            1      33       2   0.0+0
SPC            1      33       3   0.0+0
SPC            1      33       1   0.0+0
SPC            1      33       5   0.0+0
SPC            1      33       6   0.0+0
SPC            1      36       1   0.0+0
SPC            1      36       3   0.0+0
SPC            1      36       5   0.0+0
SPC            1      36       6   0.0+0
SPC            1      37       2   0.0+0
SPC            1      37       3   0.0+0
SPC            1      37       1   0.0+0
SPC            1      37       5   0.0+0
SPC            1      37       6   0.0+0
SPC            1      40       3   0.0+0
SPC            1      40       1   0.0+0
SPC            1      40       6   0.0+0
SPC            1      40       5   0.0+0
SPC            1      41       3   0.0+0
SPC            1      41       2   0.0+0
SPC            1      41       1   0.0+0
SPC            1      41       6   0.0+0
SPC            1      41       5   0.0+0
SPC            1      44       1   0.0+0
SPC            1      44       5   0.0+0
SPC            1      44       6   0.0+0
SPC            1      45       2   0.0+0
SPC            1      45       3   0.0+0
SPC            1      45       1   0.0+0
SPC            1      45       5   0.0+0
SPC            1      45       6   0.0+0
SPC            1      48       1   0.0+0
SPC            1      48       5   0.0+0
SPC            1      48       6   0.0+0
SPC            1      52       1   0.0+0
SPC            1      52       5   0.0+0
SPC            1      52       6   0.0+0
SPC            1      55       1   0.0+0
SPC            1      55       5   0.0+0
SPC            1      55       6   0.0+0
SPC            1      58       1   0.0+0
SPC            1      58       3   0.0+0
SPC            1      58       5   0.0+0
SPC            1      58       6   0.0+0
SPC            1      61       1   0.0+0
SPC            1      61       3   0.0+0
SPC            1      61       5   0.0+0
SPC            1      61       6   0.0+0
SPC            1      65       3   0.0+0
SPC            1      65       5   0.0+0
SPC            1      65       4   0.0+0
SPC            1      67       6   0.0+0
SPC            1      70       3   0.0+0
SPC            1      70       5   0.0+0
SPC            1      70       4   0.0+0
SPC            1      75       3   0.0+0
SPC            1      75       5   0.0+0
SPC            1      75       4   0.0+0
SPC            1      80       3   0.0+0
SPC            1      80       5   0.0+0
SPC            1      80       4   0.0+0
SPC            1      84       1   0.0+0
SPC            1      84       5   0.0+0
SPC            1      84       6   0.0+0
SPC            1      87       1   0.0+0
SPC            1      87       5   0.0+0
SPC            1      87       6   0.0+0
SPC            1      90       1   0.0+0
SPC            1      90       3   0.0+0
SPC            1      90       5   0.0+0
SPC            1      90       6   0.0+0
SPC            1      93       1   0.0+0
SPC            1      93       3   0.0+0
SPC            1      93       5   0.0+0
SPC            1      93       6   0.0+0
$--1---><--2---><--3---><--4---><--5---><--6---><--7---><--8---><--9---><--10-->
$$$$$$$$$$$$$$$$$$$$$$$$$$$$$$$$$$$ Default $$$$$$$$$$$$$$$$$$$$$$$$$$$$$$$$$$$$
PSHELL         3       1   1.0-3       1               1           0.0+0
CQUAD8         1       3       1       2       3       4      49      50+
+             51      52                                       4   0.0+0
CORD2R         4       0   0.0+0   0.0+0   0.0+0   0.0+0   1.0+0   0.0+0+
+          1.0+0   0.0+0   0.0+0
CQUAD8         2       3       6       7       8       5      53      54+
+             55      56                                       5   0.0+0
CORD2R         5       0   0.0+0   0.0+0   0.0+0  -1.0+0   0.0+0   0.0+0+
+          0.0+0   1.0+0   0.0+0
CQUAD8         3       3      11      12       9      10      57      58+
+             59      60                                       6   0.0+0
CORD2R         6       0   0.0+0   0.0+0   0.0+0   0.0+0  -1.0+0   0.0+0+
+         -1.0+0   0.0+0   0.0+0
CQUAD8         4       3      16      13      14      15      61      62+
+             63      64                                       7   0.0+0
CORD2R         7       0   0.0+0   0.0+0   0.0+0   1.0+0   0.0+0   0.0+0+
+          0.0+0  -1.0+0   0.0+0
CQUAD8         5       3      20      17      18      19      65      66+
+             67      68                                       8   0.0+0
CORD2R         8       0   0.0+0   0.0+0   0.0+0   1.0+0   0.0+0   0.0+0+
+          0.0+0  -1.0+0   0.0+0
CQUAD8         6       3      23      24      21      22      69      70+
+             71      72                                       9   0.0+0
CORD2R         9       0   0.0+0   0.0+0   0.0+0  -1.0+0   0.0+0   0.0+0+
+          0.0+0   0.0+0  -1.0+0
CQUAD8         7       3      26      27      28      25      73      74+
+             75      76                                      10   0.0+0
CORD2R        10       0   0.0+0   0.0+0   0.0+0  -1.0+0   0.0+0   0.0+0+
+          0.0+0   1.0+0   0.0+0
CQUAD8         8       3      29      30      31      32      77      78+
+             79      80                                      11   0.0+0
CORD2R        11       0   0.0+0   0.0+0   0.0+0   1.0+0   0.0+0   0.0+0+
+          0.0+0   0.0+0   1.0+0
CQUAD8         9       3      33      34      35      36      81      82+
+             83      84                                      12   0.0+0
CORD2R*               12               0           0.0+0           0.0+0*
*                  0.0+0-3.42020143326-1 9.39692620786-1           0.0+0*
*        9.39692620786-1 3.42020143326-1           0.0+0                *
*
CQUAD8        10       3      38      39      40      37      85      86+
+             87      88                                      13   0.0+0
CORD2R*               13               0           0.0+0           0.0+0*
*                  0.0+0-9.39692620786-1-3.42020143326-1           0.0+0*
*       -3.42020143326-1 9.39692620786-1           0.0+0                *
*
CQUAD8        11       3      43      44      41      42      89      90+
+             91      92                                      14   0.0+0
CORD2R*               14               0           0.0+0           0.0+0*
*                  0.0+0 3.42020143326-1-9.39692620786-1           0.0+0*
*       -9.39692620786-1-3.42020143326-1           0.0+0                *
*
CQUAD8        12       3      48      45      46      47      93      94+
+             95      96                                      15   0.0+0
CORD2R*               15               0           0.0+0           0.0+0*
*                  0.0+0 9.39692620786-1 3.42020143326-1           0.0+0*
*        3.42020143326-1-9.39692620786-1           0.0+0                *
*
$--1---><--2---><--3---><--4---><--5---><--6---><--7---><--8---><--9---><--10-->
$$$$$$$$$$$$$$$$$$$$$$$$$$$$$$$$$$$ pressure $$$$$$$$$$$$$$$$$$$$$$$$$$$$$$$$$$$
FORCE          2       6       0   1.0+0  1.75+2   0.0+0   0.0+0
FORCE          2      53       0   1.0+0   7.0+2   0.0+0   0.0+0
FORCE          2       7       0   1.0+0  1.75+2   0.0+0   0.0+0
FORCE          2      11       0   1.0+0  1.75+2   0.0+0   0.0+0
FORCE          2      10       0   1.0+0  1.75+2   0.0+0   0.0+0
FORCE          2      60       0   1.0+0   7.0+2   0.0+0   0.0+0
FORCE          2      14       0   1.0+0  1.75+2   0.0+0   0.0+0
FORCE          2      63       0   1.0+0   7.0+2   0.0+0   0.0+0
FORCE          2      15       0   1.0+0  1.75+2   0.0+0   0.0+0
FORCE          2      18       0   1.0+0   0.0+0   0.0+0  1.75+2
FORCE          2      67       0   1.0+0   0.0+0   0.0+0   7.0+2
FORCE          2      19       0   1.0+0   0.0+0   0.0+0  1.75+2
FORCE*                 2              34               0           1.0+0*
*        1.64446208638+2  5.9853525082+1           0.0+0
FORCE*                 2              82               0           1.0+0*
*         6.5778483455+2 2.39414100328+2           0.0+0
FORCE*                 2              35               0           1.0+0*
*        1.64446208638+2  5.9853525082+1           0.0+0
FORCE          2      30       0   1.0+0   0.0+0   0.0+0  1.75+2
FORCE          2      78       0   1.0+0   0.0+0   0.0+0   7.0+2
FORCE          2      31       0   1.0+0   0.0+0   0.0+0  1.75+2
FORCE*                 2              26               0           1.0+0*
*       -1.6190752442-13           0.0+0          1.75+2
FORCE*                 2              73               0           1.0+0*
*        -6.476300977-13           0.0+0           7.0+2
FORCE*                 2              27               0           1.0+0*
*       -1.6190752442-13           0.0+0          1.75+2
FORCE          2      23       0   1.0+0   0.0+0   0.0+0  1.75+2
FORCE          2      22       0   1.0+0   0.0+0   0.0+0  1.75+2
FORCE          2      72       0   1.0+0   0.0+0   0.0+0   7.0+2
FORCE*                 2              38               0           1.0+0*
*        1.64446208638+2  5.9853525082+1           0.0+0
FORCE*                 2              85               0           1.0+0*
*         6.5778483455+2 2.39414100328+2           0.0+0
FORCE*                 2              39               0           1.0+0*
*        1.64446208638+2  5.9853525082+1           0.0+0
FORCE*                 2              43               0           1.0+0*
*        1.64446208638+2  5.9853525082+1           0.0+0
FORCE*                 2              42               0           1.0+0*
*        1.64446208638+2  5.9853525082+1           0.0+0
FORCE*                 2              92               0           1.0+0*
*         6.5778483455+2 2.39414100328+2           0.0+0
FORCE*                 2              46               0           1.0+0*
*        1.64446208638+2  5.9853525082+1           0.0+0
FORCE*                 2              95               0           1.0+0*
*         6.5778483455+2 2.39414100328+2           0.0+0
FORCE*                 2              47               0           1.0+0*
*        1.64446208638+2  5.9853525082+1           0.0+0
FORCE          2       2       0   1.0+0  1.75+2   0.0+0   0.0+0
FORCE          2      50       0   1.0+0   7.0+2   0.0+0   0.0+0
FORCE          2       3       0   1.0+0  1.75+2   0.0+0   0.0+0
$--1---><--2---><--3---><--4---><--5---><--6---><--7---><--8---><--9---><--10-->
LOAD           1   1.0+0   1.0+0       2
ENDDATA 
