$ Generated by Mecway 33
$-----------------------EXECUTIVE CONTROL SECTION-----------------------
SOL 101
CEND
$-------------------------CASE CONTROL SECTION--------------------------
DISPLACEMENT = ALL
SPCFORCES = ALL
MPCFORCES = ALL
STRESS(CORNER) = ALL
FORCE(CORNER) = ALL
SPC = 1
LOAD = 1
BEGIN BULK
$---------------------------BULK DATA SECTION---------------------------
GRID           1       0   0.0+0   0.0+0   0.0+0       0
GRID           2       0   1.5+0   0.0+0   0.0+0       0
GRID           3       0   1.5+0   8.0-1   0.0+0       0
GRID           4       0   0.0+0   8.0-1   0.0+0       0
GRID           5       0   0.0+0   2.0+0   0.0+0       0
GRID           6       0   1.5+0   2.0+0   0.0+0       0
GRID           7       0   1.5+0   2.8+0   0.0+0       0
GRID           8       0   0.0+0   2.8+0   0.0+0       0
GRID           9       0   0.0+0   4.0+0   0.0+0       0
GRID          10       0   1.5+0   4.0+0   0.0+0       0
GRID          11       0   1.5+0   4.8+0   0.0+0       0
GRID          12       0   0.0+0   4.8+0   0.0+0       0
GRID          13       0   2.0+0   2.0+0   0.0+0       0
GRID          14       0   3.5+0   2.0+0   0.0+0       0
GRID          15       0   3.5+0   2.8+0   0.0+0       0
GRID          16       0   2.0+0   2.8+0   0.0+0       0
GRID          17       0   7.5-1   0.0+0   0.0+0       0
GRID          18       0   1.5+0   4.0-1   0.0+0       0
GRID          19       0   7.5-1   8.0-1   0.0+0       0
GRID          20       0   0.0+0   4.0-1   0.0+0       0
GRID          21       0   7.5-1   2.0+0   0.0+0       0
GRID          22       0   1.5+0   2.4+0   0.0+0       0
GRID          23       0   7.5-1   2.8+0   0.0+0       0
GRID          24       0   0.0+0   2.4+0   0.0+0       0
GRID          25       0   7.5-1   4.0+0   0.0+0       0
GRID          26       0   1.5+0   4.4+0   0.0+0       0
GRID          27       0   7.5-1   4.8+0   0.0+0       0
GRID          28       0   0.0+0   4.4+0   0.0+0       0
GRID          29       0  2.75+0   2.0+0   0.0+0       0
GRID          30       0   3.5+0   2.4+0   0.0+0       0
GRID          31       0  2.75+0   2.8+0   0.0+0       0
GRID          32       0   2.0+0   2.4+0   0.0+0       0
PARAM    STR_CID      -2
$--1---><--2---><--3---><--4---><--5---><--6---><--7---><--8---><--9---><--10-->
$$$$$$$$$$$$$$$$$$$$$$$$$$$$$$$$$$$ Material $$$$$$$$$$$$$$$$$$$$$$$$$$$$$$$$$$$
MAT1           1  2.0+11  1.0+11   0.0+0   0.0+0   0.0+0   0.0+0
$--1---><--2---><--3---><--4---><--5---><--6---><--7---><--8---><--9---><--10-->
SPC            1       1       1   0.0+0
SPC            1       1       2   0.0+0
SPC            1       1       3   0.0+0
SPC            1       1       4   0.0+0
SPC            1       1       5   0.0+0
SPC            1       1       6   0.0+0
SPC            1       4       1   0.0+0
SPC            1       4       2   0.0+0
SPC            1       4       3   0.0+0
SPC            1       4       4   0.0+0
SPC            1       4       5   0.0+0
SPC            1       4       6   0.0+0
SPC            1       5       5   0.0+0
SPC            1       8       5   0.0+0
SPC            1      10       5   0.0+0
SPC            1      13       1   0.0+0
SPC            1      13       2   0.0+0
SPC            1      13       3   0.0+0
SPC            1      13       4   0.0+0
SPC            1      13       5   0.0+0
SPC            1      13       6   0.0+0
SPC            1      16       1   0.0+0
SPC            1      16       2   0.0+0
SPC            1      16       3   0.0+0
SPC            1      16       4   0.0+0
SPC            1      16       5   0.0+0
SPC            1      16       6   0.0+0
SPC            1      20       1   0.0+0
SPC            1      20       2   0.0+0
SPC            1      20       3   0.0+0
SPC            1      20       4   0.0+0
SPC            1      20       5   0.0+0
SPC            1      20       6   0.0+0
SPC            1      24       5   0.0+0
SPC            1      32       1   0.0+0
SPC            1      32       2   0.0+0
SPC            1      32       3   0.0+0
SPC            1      32       4   0.0+0
SPC            1      32       5   0.0+0
SPC            1      32       6   0.0+0
SPC            1      12     123   0.0+0
SPC            1       9     123   0.0+0
SPC            1       8     123   0.0+0
SPC            1       5     123   0.0+0
$--1---><--2---><--3---><--4---><--5---><--6---><--7---><--8---><--9---><--10-->
$$$$$$$$$$$$$$$$$$$$$$$$$$$$$$$$$$$ Default $$$$$$$$$$$$$$$$$$$$$$$$$$$$$$$$$$$$
PSHELL         1       1   1.0-2       1               1           0.0+0
CQUAD8         1       1       1       2       3       4      17      18+
+             19      20                                       2   0.0+0
CORD2R         2       0   0.0+0   0.0+0   0.0+0   1.0+0   0.0+0   0.0+0+
+          0.0+0  -1.0+0   0.0+0
CQUAD8         2       1       5       6       7       8      21      22+
+             23      24                                       3   0.0+0
CORD2R         3       0   0.0+0   0.0+0   0.0+0   0.0+0   1.0+0   0.0+0+
+          1.0+0   0.0+0   0.0+0
CQUAD8         3       1       9      10      11      12      25      26+
+             27      28                                       4   0.0+0
CORD2R         4       0   0.0+0   0.0+0   0.0+0   0.0+0   1.0+0   0.0+0+
+          1.0+0   0.0+0   0.0+0
CQUAD8         4       1      13      14      15      16      29      30+
+             31      32                                       5   0.0+0
CORD2R*                5               0           0.0+0           0.0+0*
*                  0.0+0 7.07106781187-1 7.07106781187-1           0.0+0*
*                 4.44+2         -4.44+2           0.0+0                *
*
$--1---><--2---><--3---><--4---><--5---><--6---><--7---><--8---><--9---><--10-->
$$$$$$$$$$$$$$$$$$$$$$$$$$$$$$$$$$$$ force $$$$$$$$$$$$$$$$$$$$$$$$$$$$$$$$$$$$$
FORCE          2      11       0   1.0+0   0.0+0   0.0+0   3.3+0
$--1---><--2---><--3---><--4---><--5---><--6---><--7---><--8---><--9---><--10-->
$$$$$$$$$$$$$$$$$$$$$$$$$$$$$$$$$$$$ force $$$$$$$$$$$$$$$$$$$$$$$$$$$$$$$$$$$$$
FORCE          2      10       0   1.0+0   0.0+0   0.0+0  -3.3+0
$--1---><--2---><--3---><--4---><--5---><--6---><--7---><--8---><--9---><--10-->
$$$$$$$$$$$$$$$$$$$$$$$$$$$$$$$$$$$$ moment $$$$$$$$$$$$$$$$$$$$$$$$$$$$$$$$$$$$
MOMENT*                2               7               0           1.0+0*
*                  0.0+0 1.83333333333-1           0.0+0
$--1---><--2---><--3---><--4---><--5---><--6---><--7---><--8---><--9---><--10-->
$$$$$$$$$$$$$$$$$$$$$$$$$$$$$$$$$$$$ moment $$$$$$$$$$$$$$$$$$$$$$$$$$$$$$$$$$$$
MOMENT*                2               6               0           1.0+0*
*                  0.0+0 1.83333333333-1           0.0+0
$--1---><--2---><--3---><--4---><--5---><--6---><--7---><--8---><--9---><--10-->
$$$$$$$$$$$$$$$$$$$$$$$$$$$$$$$$$$$$ moment $$$$$$$$$$$$$$$$$$$$$$$$$$$$$$$$$$$$
MOMENT*                2               3               0           1.0+0*
*                  0.0+0 1.83333333333-1           0.0+0
$--1---><--2---><--3---><--4---><--5---><--6---><--7---><--8---><--9---><--10-->
$$$$$$$$$$$$$$$$$$$$$$$$$$$$$$$$$$$$ moment $$$$$$$$$$$$$$$$$$$$$$$$$$$$$$$$$$$$
MOMENT*                2               2               0           1.0+0*
*                  0.0+0 1.83333333333-1           0.0+0
$--1---><--2---><--3---><--4---><--5---><--6---><--7---><--8---><--9---><--10-->
$$$$$$$$$$$$$$$$$$$$$$$$$$$$$$$$$$$$ moment $$$$$$$$$$$$$$$$$$$$$$$$$$$$$$$$$$$$
MOMENT*                2              15               0           1.0+0*
*                  0.0+0 1.83333333333-1           0.0+0
$--1---><--2---><--3---><--4---><--5---><--6---><--7---><--8---><--9---><--10-->
$$$$$$$$$$$$$$$$$$$$$$$$$$$$$$$$$$$$ moment $$$$$$$$$$$$$$$$$$$$$$$$$$$$$$$$$$$$
MOMENT*                2              14               0           1.0+0*
*                  0.0+0 1.83333333333-1           0.0+0
$--1---><--2---><--3---><--4---><--5---><--6---><--7---><--8---><--9---><--10-->
$$$$$$$$$$$$$$$$$$$$$$$$$$$$$$$$$$$$ moment $$$$$$$$$$$$$$$$$$$$$$$$$$$$$$$$$$$$
MOMENT*                2              22               0           1.0+0*
*                  0.0+0 7.33333333333-1           0.0+0
$--1---><--2---><--3---><--4---><--5---><--6---><--7---><--8---><--9---><--10-->
$$$$$$$$$$$$$$$$$$$$$$$$$$$$$$$$$$$$ moment $$$$$$$$$$$$$$$$$$$$$$$$$$$$$$$$$$$$
MOMENT*                2              18               0           1.0+0*
*                  0.0+0 7.33333333333-1           0.0+0
$--1---><--2---><--3---><--4---><--5---><--6---><--7---><--8---><--9---><--10-->
$$$$$$$$$$$$$$$$$$$$$$$$$$$$$$$$$$$$ moment $$$$$$$$$$$$$$$$$$$$$$$$$$$$$$$$$$$$
MOMENT*                2              30               0           1.0+0*
*                  0.0+0 7.33333333333-1           0.0+0
$--1---><--2---><--3---><--4---><--5---><--6---><--7---><--8---><--9---><--10-->
LOAD           1   1.0+0   1.0+0       2
ENDDATA 
