$ Generated by Mecway 33
$-----------------------EXECUTIVE CONTROL SECTION-----------------------
SOL 101
CEND
$-------------------------CASE CONTROL SECTION--------------------------
DISPLACEMENT = ALL
SPC = 1
LOAD = 1
BEGIN BULK
$---------------------------BULK DATA SECTION---------------------------
GRID           1       0   1.0+1   0.0+0   0.0+0       0
GRID*                  2               0 5.43042764105+0 2.24935677841+0*
*        8.09016994375+0               0
GRID*                  3               0 5.72061402818+0 5.72061402818+0*
*        5.87785252292+0               0
GRID*                  4               0 2.18508012224+0 2.18508012224+0*
*        9.51056516295+0               0
GRID*                  5               0 9.51056516295+0           0.0+0*
*        3.09016994375+0               0
GRID*                  6               0 3.82683432365+0 9.23879532511+0*
*                  0.0+0               0
GRID*                  7               0 2.24935677841+0 5.43042764105+0*
*        8.09016994375+0               0
GRID*                  8               0 8.78661649667+0 3.63953572029+0*
*        3.09016994375+0               0
GRID*                  9               0 8.09016994375+0           0.0+0*
*        5.87785252292+0               0
GRID*                 10               0 2.85494476301+0 1.18255684067+0*
*        9.51056516295+0               0
GRID*                 11               0 5.8233492635-16 9.51056516295+0*
*        3.09016994375+0               0
GRID*                 12               0 6.1230317691-16           1.0+1*
*                  0.0+0               0
GRID*                 13               0 5.87785252292+0           0.0+0*
*        8.09016994375+0               0
GRID*                 14               0 3.09597400249+0 7.47434242557+0*
*        5.87785252292+0               0
GRID*                 15               0 4.15626937777+0 4.15626937777+0*
*        8.09016994375+0               0
GRID*                 16               0 6.72498511964+0 6.72498511964+0*
*        3.09016994375+0               0
GRID*                 17               0 3.09016994375+0           0.0+0*
*        9.51056516295+0               0
GRID*                 18               0 1.8921208738-16 3.09016994375+0*
*        9.51056516295+0               0
GRID*                 19               0 7.47434242557+0 3.09597400249+0*
*        5.87785252292+0               0
GRID*                 20               0 3.5990277732-16 5.87785252292+0*
*        8.09016994375+0               0
GRID*                 21               0 9.23879532511+0 3.82683432365+0*
*                  0.0+0               0
GRID*                 22               0 4.9536367583-16 8.09016994375+0*
*        5.87785252292+0               0
GRID*                 23               0 1.18255684067+0 2.85494476301+0*
*        9.51056516295+0               0
GRID*                 24               0 3.63953572029+0 8.78661649667+0*
*        3.09016994375+0               0
GRID*                 25               0 7.07106781187+0 7.07106781187+0*
*                  0.0+0               0
GRID*                 26               0  4.5399049974+0           0.0+0*
*        8.91006524188+0               0
GRID*                 27               0 5.76491123487+0 1.14671214146+0*
*        8.09016994375+0               0
GRID*                 28               0 4.19432530664+0 1.73734642701+0*
*        8.91006524188+0               0
GRID*                 29               0 3.03079319477+0 6.02862249411-1*
*        9.51056516295+0               0
GRID*                 30               0 7.07106781187+0           0.0+0*
*        7.07106781187+0               0
GRID*                 31               0 7.93471959679+0 1.57831385949+0*
*        5.87785252292+0               0
GRID*                 32               0 6.53281482438+0 2.70598050073+0*
*        7.07106781187+0               0
GRID*                 33               0 4.88725575841+0 3.26555989582+0*
*        8.09016994375+0               0
GRID*                 34               0  3.2101976096+0  3.2101976096+0*
*        8.91006524188+0               0
GRID*                 35               0 2.56938240508+0 1.71680643572+0*
*        9.51056516295+0               0
GRID*                 36               0 6.72673046659+0 4.49465760082+0*
*        5.87785252292+0               0
GRID*                 37               0           5.0+0           5.0+0*
*        7.07106781187+0               0
GRID*                 38               0 8.91006524188+0           0.0+0*
*         4.5399049974+0               0
GRID*                 39               0 9.32782232014+0  1.8554192202+0*
*        3.09016994375+0               0
GRID*                 40               0 8.23182691032+0 3.40973434936+0*
*         4.5399049974+0               0
GRID*                 41               0 7.90774592882+0 5.28378690373+0*
*        3.09016994375+0               0
GRID*                 42               0 6.30036755335+0 6.30036755335+0*
*         4.5399049974+0               0
GRID*                 43               0 3.26555989582+0 4.88725575841+0*
*        8.09016994375+0               0
GRID*                 44               0 1.73734642701+0 4.19432530664+0*
*        8.91006524188+0               0
GRID*                 45               0 1.71680643572+0 2.56938240508+0*
*        9.51056516295+0               0
GRID*                 46               0 4.49465760082+0 6.72673046659+0*
*        5.87785252292+0               0
GRID*                 47               0 2.70598050073+0 6.53281482438+0*
*        7.07106781187+0               0
GRID*                 48               0 5.28378690373+0 7.90774592882+0*
*        3.09016994375+0               0
GRID*                 49               0 3.40973434936+0 8.23182691032+0*
*         4.5399049974+0               0
GRID*                 50               0 9.87688340595+0           0.0+0*
*         1.5643446504+0               0
GRID*                 51               0 9.80785280403+0 1.95090322016+0*
*                  0.0+0               0
GRID*                 52               0 9.12505042376+0 3.77971964286+0*
*         1.5643446504+0               0
GRID*                 53               0 8.31469612303+0  5.5557023302+0*
*                  0.0+0               0
GRID*                 54               0 6.98401123334+0 6.98401123334+0*
*         1.5643446504+0               0
GRID*                 55               0  5.5557023302+0 8.31469612303+0*
*                  0.0+0               0
GRID*                 56               0 3.77971964286+0 9.12505042376+0*
*         1.5643446504+0               0
GRID*                 57               0 1.14671214146+0 5.76491123487+0*
*        8.09016994375+0               0
GRID*                 58               0 2.7797982528-16  4.5399049974+0*
*        8.91006524188+0               0
GRID*                 59               0 6.02862249411-1 3.03079319477+0*
*        9.51056516295+0               0
GRID*                 60               0 1.57831385949+0 7.93471959679+0*
*        5.87785252292+0               0
GRID*                 61               0 4.3296372854-16 7.07106781187+0*
*        7.07106781187+0               0
GRID*                 62               0  1.8554192202+0 9.32782232014+0*
*        3.09016994375+0               0
GRID*                 63               0 5.4556612541-16 8.91006524188+0*
*         4.5399049974+0               0
GRID*                 64               0 1.95090322016+0 9.80785280403+0*
*                  0.0+0               0
GRID*                 65               0 6.0476470874-16 9.87688340595+0*
*         1.5643446504+0               0
GRID*                 66               0 3.82901091159+0           0.0+0*
*        9.23773962455+0               0
GRID*                 67               0 5.22285220117+0           0.0+0*
*        8.52754201495+0               0
GRID*                 68               0 5.84907466711+0 5.78864508794-1*
*        8.09016994375+0               0
GRID*                 69               0 5.62536222618+0   1.703542898+0*
*        8.09016994375+0               0
GRID*                 70               0    4.82528625+0 1.99869900708+0*
*        8.52754201495+0               0
GRID*                 71               0 3.53754481098+0 1.46529903821+0*
*        9.23773962455+0               0
GRID*                 72               0 2.95742793924+0 8.95605502308-1*
*        9.51056516295+0               0
GRID*                 73               0 3.07504052961+0 3.04327081975-1*
*        9.51056516295+0               0
GRID*                 74               0 4.45161864915+0 8.85482004175-1*
*        8.91006524188+0               0
GRID*                 75               0 3.75464753055+0 7.46845828977-1*
*        9.23773962455+0               0
GRID*                 76               0 4.51688769756+0 4.46943199754-1*
*        8.91006524188+0               0
GRID*                 77               0 5.12170655059+0   1.018770775+0*
*        8.52754201495+0               0
GRID*                 78               0 4.34409785218+0 1.31561641326+0*
*        8.91006524188+0               0
GRID*                 79               0 6.49622431203+0           0.0+0*
*        7.60238302244+0               0
GRID*                 80               0 7.60238302244+0           0.0+0*
*        6.49622431203+0               0
GRID*                 81               0  8.0505606233+0 7.96738644307-1*
*        5.87785252292+0               0
GRID*                 82               0 7.74264686421+0 2.34472564555+0*
*        5.87785252292+0               0
GRID*                 83               0 7.02368607274+0 2.90930602918+0*
*        6.49622431203+0               0
GRID*                 84               0 6.00172868048+0 2.48599741714+0*
*        7.60238302244+0               0
GRID*                 85               0 6.93355860063+0 1.37917055562+0*
*        7.07106781187+0               0
GRID*                 86               0 6.37017071395+0 1.26710573732+0*
*        7.60238302244+0               0
GRID*                 87               0 7.03521752687+0 6.96130354121-1*
*        7.07106781187+0               0
GRID*                 88               0 7.45507489491+0 1.48290659634+0*
*        6.49622431203+0               0
GRID*                 89               0 6.76609103313+0 2.04912060449+0*
*        7.07106781187+0               0
GRID*                 90               0 5.18231851198+0 2.77314504154+0*
*        8.09016994375+0               0
GRID*                 91               0 4.54523938034+0 3.72660134123+0*
*        8.09016994375+0               0
GRID*                 92               0 3.69311420859+0 3.69311420859+0*
*        8.52754201495+0               0
GRID*                 93               0 2.70751958082+0 2.70751958082+0*
*        9.23773962455+0               0
GRID*                 94               0 2.38957375427+0 1.95919026755+0*
*        9.51056516295+0               0
GRID*                 95               0 2.72450607466+0 1.45792862676+0*
*        9.51056516295+0               0
GRID*                 96               0 3.77390006384+0  2.5216394043+0*
*        8.91006524188+0               0
GRID*                 97               0 4.00202233667+0 2.14145976216+0*
*        8.91006524188+0               0
GRID*                 98               0 4.34197315665+0 2.90121370969+0*
*        8.52754201495+0               0
GRID*                 99               0 3.50995848815+0 2.87788535345+0*
*        8.91006524188+0               0
GRID*                100               0 3.18303647999+0 2.12683697964+0*
*        9.23773962455+0               0
GRID*                101               0 7.13284950601+0 3.81690669802+0*
*        5.87785252292+0               0
GRID*                102               0 6.25598530731+0 5.12922671087+0*
*        5.87785252292+0               0
GRID*                103               0 5.37569658834+0 5.37569658834+0*
*        6.49622431203+0               0
GRID*                104               0 4.59352426314+0 4.59352426314+0*
*        7.60238302244+0               0
GRID*                105               0 5.87798715655+0 3.92754545197+0*
*        7.07106781187+0               0
GRID*                106               0 5.40036996849+0 3.60841184981+0*
*        7.60238302244+0               0
GRID*                107               0 6.23329592655+0 3.33540177675+0*
*        7.07106781187+0               0
GRID*                108               0 6.32010732258+0 4.22296070231+0*
*        6.49622431203+0               0
GRID*                109               0 5.46688851436+0 4.48241152639+0*
*        7.07106781187+0               0
GRID*                110               0 8.52754201495+0           0.0+0*
*        5.22285220117+0               0
GRID*                111               0 9.23773962455+0           0.0+0*
*        3.82901091159+0               0
GRID*                112               0 9.46400161413+0  9.3662245011-1*
*        3.09016994375+0               0
GRID*                113               0 9.10202728098+0 2.75639031026+0*
*        3.09016994375+0               0
GRID*                114               0 8.53455856579+0 3.53512990682+0*
*        3.82901091159+0               0
GRID*                115               0 7.87842153024+0 3.26334904792+0*
*        5.22285220117+0               0
GRID*                116               0 8.73679352733+0 1.73785628383+0*
*         4.5399049974+0               0
GRID*                117               0 8.36213720428+0 1.66333250766+0*
*        5.22285220117+0               0
GRID*                118               0 8.86489124741+0 8.77175419201-1*
*         4.5399049974+0               0
GRID*                119               0 9.05868856595+0 1.80188518801+0*
*        3.82901091159+0               0
GRID*                120               0 8.52577208163+0 2.58204259388+0*
*         4.5399049974+0               0
GRID*                121               0 8.38516749291+0 4.48704293295+0*
*        3.09016994375+0               0
GRID*                122               0 7.35435180439+0 6.02976763263+0*
*        3.09016994375+0               0
GRID*                123               0 6.53206833136+0 6.53206833136+0*
*        3.82901091159+0               0
GRID*                124               0 6.02988278562+0 6.02988278562+0*
*        5.22285220117+0               0
GRID*                125               0 7.40669591203+0 4.94899598598+0*
*         4.5399049974+0               0
GRID*                126               0 7.08907761789+0 4.73677022682+0*
*        5.22285220117+0               0
GRID*                127               0 7.85441108122+0 4.20285142633+0*
*         4.5399049974+0               0
GRID*                128               0   7.679585349+0 5.13133487828+0*
*        3.82901091159+0               0
GRID*                129               0 6.88868140274+0 5.64816802832+0*
*         4.5399049974+0               0
GRID*                130               0 3.72660134123+0 4.54523938034+0*
*        8.09016994375+0               0
GRID*                131               0 2.77314504154+0 5.18231851198+0*
*        8.09016994375+0               0
GRID*                132               0 1.99869900708+0    4.82528625+0*
*        8.52754201495+0               0
GRID*                133               0 1.46529903821+0 3.53754481098+0*
*        9.23773962455+0               0
GRID*                134               0 1.45792862676+0 2.72450607466+0*
*        9.51056516295+0               0
GRID*                135               0 1.95919026755+0 2.38957375427+0*
*        9.51056516295+0               0
GRID*                136               0  2.5216394043+0 3.77390006384+0*
*        8.91006524188+0               0
GRID*                137               0 2.87788535345+0 3.50995848815+0*
*        8.91006524188+0               0
GRID*                138               0 2.90121370969+0 4.34197315665+0*
*        8.52754201495+0               0
GRID*                139               0 2.14145976216+0 4.00202233667+0*
*        8.91006524188+0               0
GRID*                140               0 2.12683697964+0 3.18303647999+0*
*        9.23773962455+0               0
GRID*                141               0 5.12922671087+0 6.25598530731+0*
*        5.87785252292+0               0
GRID*                142               0 3.81690669802+0 7.13284950601+0*
*        5.87785252292+0               0
GRID*                143               0 2.90930602918+0 7.02368607274+0*
*        6.49622431203+0               0
GRID*                144               0 2.48599741714+0 6.00172868048+0*
*        7.60238302244+0               0
GRID*                145               0 3.92754545197+0 5.87798715655+0*
*        7.07106781187+0               0
GRID*                146               0 3.60841184981+0 5.40036996849+0*
*        7.60238302244+0               0
GRID*                147               0 4.48241152639+0 5.46688851436+0*
*        7.07106781187+0               0
GRID*                148               0 4.22296070231+0 6.32010732258+0*
*        6.49622431203+0               0
GRID*                149               0 3.33540177675+0 6.23329592655+0*
*        7.07106781187+0               0
GRID*                150               0 6.02976763263+0 7.35435180439+0*
*        3.09016994375+0               0
GRID*                151               0 4.48704293295+0 8.38516749291+0*
*        3.09016994375+0               0
GRID*                152               0 3.53512990682+0 8.53455856579+0*
*        3.82901091159+0               0
GRID*                153               0 3.26334904792+0 7.87842153024+0*
*        5.22285220117+0               0
GRID*                154               0 4.94899598598+0 7.40669591203+0*
*         4.5399049974+0               0
GRID*                155               0 4.73677022682+0 7.08907761789+0*
*        5.22285220117+0               0
GRID*                156               0 5.64816802832+0 6.88868140274+0*
*         4.5399049974+0               0
GRID*                157               0 5.13133487828+0   7.679585349+0*
*        3.82901091159+0               0
GRID*                158               0 4.20285142633+0 7.85441108122+0*
*         4.5399049974+0               0
GRID*                159               0 9.72412449057+0           0.0+0*
*        2.33207221671+0               0
GRID*                160               0 9.96884190909+0           0.0+0*
*        7.86987244833-1               0
GRID*                161               0 9.95104018739+0 9.84823124665-1*
*                  0.0+0               0
GRID*                162               0 9.57043784994+0 2.89824028649+0*
*                  0.0+0               0
GRID*                163               0 9.21000900265+0 3.81491063848+0*
*        7.86987244833-1               0
GRID*                164               0 8.98391958843+0  3.7212613368+0*
*        2.33207221671+0               0
GRID*                165               0 9.68481023076+0 1.92642853062+0*
*         1.5643446504+0               0
GRID*                166               0 9.53555944262+0 1.89674070302+0*
*        2.33207221671+0               0
GRID*                167               0 9.82680764733+0  9.7235644261-1*
*         1.5643446504+0               0
GRID*                168               0 9.77557468456+0   1.944482703+0*
*        7.86987244833-1               0
GRID*                169               0 9.45089115623+0 2.86221626404+0*
*         1.5643446504+0               0
GRID*                170               0  8.8166868627+0 4.71795614253+0*
*                  0.0+0               0
GRID*                171               0 7.73282310608+0 6.34007288664+0*
*                  0.0+0               0
GRID*                172               0  7.0490357145+0  7.0490357145+0*
*        7.86987244833-1               0
GRID*                173               0 6.87599436838+0 6.87599436838+0*
*        2.33207221671+0               0
GRID*                174               0 8.21038566615+0  5.4860043112+0*
*         1.5643446504+0               0
GRID*                175               0 8.08385695754+0 5.40146053102+0*
*        2.33207221671+0               0
GRID*                176               0 8.70668175435+0  4.6588966953+0*
*         1.5643446504+0               0
GRID*                177               0 8.28733205464+0 5.53741824426+0*
*        7.86987244833-1               0
GRID*                178               0 7.63616215914+0 6.26104249054+0*
*         1.5643446504+0               0
GRID*                179               0 6.34007288664+0 7.73282310608+0*
*                  0.0+0               0
GRID*                180               0 4.71795614253+0  8.8166868627+0*
*                  0.0+0               0
GRID*                181               0 3.81491063848+0 9.21000900265+0*
*        7.86987244833-1               0
GRID*                182               0  3.7212613368+0 8.98391958843+0*
*        2.33207221671+0               0
GRID*                183               0  5.4860043112+0 8.21038566615+0*
*         1.5643446504+0               0
GRID*                184               0 5.40146053102+0 8.08385695754+0*
*        2.33207221671+0               0
GRID*                185               0 6.26104249054+0 7.63616215914+0*
*         1.5643446504+0               0
GRID*                186               0 5.53741824426+0 8.28733205464+0*
*        7.86987244833-1               0
GRID*                187               0  4.6588966953+0 8.70668175435+0*
*         1.5643446504+0               0
GRID*                188               0   1.703542898+0 5.62536222618+0*
*        8.09016994375+0               0
GRID*                189               0 5.78864508794-1 5.84907466711+0*
*        8.09016994375+0               0
GRID*                190               0 3.1979689953-16 5.22285220117+0*
*        8.52754201495+0               0
GRID*                191               0 2.3445155456-16 3.82901091159+0*
*        9.23773962455+0               0
GRID*                192               0 3.04327081975-1 3.07504052961+0*
*        9.51056516295+0               0
GRID*                193               0 8.95605502308-1 2.95742793924+0*
*        9.51056516295+0               0
GRID*                194               0 8.85482004175-1 4.45161864915+0*
*        8.91006524188+0               0
GRID*                195               0 1.31561641326+0 4.34409785218+0*
*        8.91006524188+0               0
GRID*                196               0   1.018770775+0 5.12170655059+0*
*        8.52754201495+0               0
GRID*                197               0 4.46943199754-1 4.51688769756+0*
*        8.91006524188+0               0
GRID*                198               0 7.46845828977-1 3.75464753055+0*
*        9.23773962455+0               0
GRID*                199               0 2.34472564555+0 7.74264686421+0*
*        5.87785252292+0               0
GRID*                200               0 7.96738644307-1  8.0505606233+0*
*        5.87785252292+0               0
GRID*                201               0 4.6549632767-16 7.60238302244+0*
*        6.49622431203+0               0
GRID*                202               0 3.9776587842-16 6.49622431203+0*
*        7.60238302244+0               0
GRID*                203               0 1.37917055562+0 6.93355860063+0*
*        7.07106781187+0               0
GRID*                204               0 1.26710573732+0 6.37017071395+0*
*        7.60238302244+0               0
GRID*                205               0 2.04912060449+0 6.76609103313+0*
*        7.07106781187+0               0
GRID*                206               0 1.48290659634+0 7.45507489491+0*
*        6.49622431203+0               0
GRID*                207               0 6.96130354121-1 7.03521752687+0*
*        7.07106781187+0               0
GRID*                208               0 2.75639031026+0 9.10202728098+0*
*        3.09016994375+0               0
GRID*                209               0  9.3662245011-1 9.46400161413+0*
*        3.09016994375+0               0
GRID*                210               0 5.6562973196-16 9.23773962455+0*
*        3.82901091159+0               0
GRID*                211               0  5.221441067-16 8.52754201495+0*
*        5.22285220117+0               0
GRID*                212               0 1.73785628383+0 8.73679352733+0*
*         4.5399049974+0               0
GRID*                213               0 1.66333250766+0 8.36213720428+0*
*        5.22285220117+0               0
GRID*                214               0 2.58204259388+0 8.52577208163+0*
*         4.5399049974+0               0
GRID*                215               0 1.80188518801+0 9.05868856595+0*
*        3.82901091159+0               0
GRID*                216               0 8.77175419201-1 8.86489124741+0*
*         4.5399049974+0               0
GRID*                217               0 2.89824028649+0 9.57043784994+0*
*                  0.0+0               0
GRID*                218               0 9.84823124665-1 9.95104018739+0*
*                  0.0+0               0
GRID*                219               0 6.1039535711-16 9.96884190909+0*
*        7.86987244833-1               0
GRID*                220               0 5.9541123183-16 9.72412449057+0*
*        2.33207221671+0               0
GRID*                221               0 1.92642853062+0 9.68481023076+0*
*         1.5643446504+0               0
GRID*                222               0 1.89674070302+0 9.53555944262+0*
*        2.33207221671+0               0
GRID*                223               0 2.86221626404+0 9.45089115623+0*
*         1.5643446504+0               0
GRID*                224               0   1.944482703+0 9.77557468456+0*
*        7.86987244833-1               0
GRID*                225               0  9.7235644261-1 9.82680764733+0*
*         1.5643446504+0               0
PARAM    STR_CID      -2
$--1---><--2---><--3---><--4---><--5---><--6---><--7---><--8---><--9---><--10-->
$$$$$$$$$$$$$$$$$$$$$$$$$$$$$$$$$$$ Material $$$$$$$$$$$$$$$$$$$$$$$$$$$$$$$$$$$
MAT1           1 6.825+7 2.625+7   3.0-1   0.0+0   0.0+0   0.0+0
$--1---><--2---><--3---><--4---><--5---><--6---><--7---><--8---><--9---><--10-->
SPC            1       1       2   0.0+0
SPC            1       1       6   0.0+0
SPC            1       1       4   0.0+0
SPC            1       5       2   0.0+0
SPC            1       5       6   0.0+0
SPC            1       5       4   0.0+0
SPC            1       9       2   0.0+0
SPC            1       9       6   0.0+0
SPC            1       9       4   0.0+0
SPC            1      11       1   0.0+0
SPC            1      11       5   0.0+0
SPC            1      11       6   0.0+0
SPC            1      12       1   0.0+0
SPC            1      12       5   0.0+0
SPC            1      12       6   0.0+0
SPC            1      13       2   0.0+0
SPC            1      13       6   0.0+0
SPC            1      13       4   0.0+0
SPC            1      17       2   0.0+0
SPC            1      17       6   0.0+0
SPC            1      17       4   0.0+0
SPC            1      18       1   0.0+0
SPC            1      18       5   0.0+0
SPC            1      18       6   0.0+0
SPC            1      20       1   0.0+0
SPC            1      20       5   0.0+0
SPC            1      20       6   0.0+0
SPC            1      22       1   0.0+0
SPC            1      22       5   0.0+0
SPC            1      22       6   0.0+0
SPC            1      26       2   0.0+0
SPC            1      26       6   0.0+0
SPC            1      26       4   0.0+0
SPC            1      30       2   0.0+0
SPC            1      30       6   0.0+0
SPC            1      30       4   0.0+0
SPC            1      38       2   0.0+0
SPC            1      38       6   0.0+0
SPC            1      38       4   0.0+0
SPC            1      50       2   0.0+0
SPC            1      50       6   0.0+0
SPC            1      50       4   0.0+0
SPC            1      58       1   0.0+0
SPC            1      58       5   0.0+0
SPC            1      58       6   0.0+0
SPC            1      61       1   0.0+0
SPC            1      61       5   0.0+0
SPC            1      61       6   0.0+0
SPC            1      63       1   0.0+0
SPC            1      63       5   0.0+0
SPC            1      63       6   0.0+0
SPC            1      65       1   0.0+0
SPC            1      65       5   0.0+0
SPC            1      65       6   0.0+0
SPC            1      66       2   0.0+0
SPC            1      66       6   0.0+0
SPC            1      66       4   0.0+0
SPC            1      67       2   0.0+0
SPC            1      67       6   0.0+0
SPC            1      67       4   0.0+0
SPC            1      79       2   0.0+0
SPC            1      79       6   0.0+0
SPC            1      79       4   0.0+0
SPC            1      80       2   0.0+0
SPC            1      80       6   0.0+0
SPC            1      80       4   0.0+0
SPC            1     110       2   0.0+0
SPC            1     110       6   0.0+0
SPC            1     110       4   0.0+0
SPC            1     111       2   0.0+0
SPC            1     111       6   0.0+0
SPC            1     111       4   0.0+0
SPC            1     159       2   0.0+0
SPC            1     159       6   0.0+0
SPC            1     159       4   0.0+0
SPC            1     160       2   0.0+0
SPC            1     160       6   0.0+0
SPC            1     160       4   0.0+0
SPC            1     190       1   0.0+0
SPC            1     190       5   0.0+0
SPC            1     190       6   0.0+0
SPC            1     191       1   0.0+0
SPC            1     191       5   0.0+0
SPC            1     191       6   0.0+0
SPC            1     201       1   0.0+0
SPC            1     201       5   0.0+0
SPC            1     201       6   0.0+0
SPC            1     202       1   0.0+0
SPC            1     202       5   0.0+0
SPC            1     202       6   0.0+0
SPC            1     210       1   0.0+0
SPC            1     210       5   0.0+0
SPC            1     210       6   0.0+0
SPC            1     211       1   0.0+0
SPC            1     211       5   0.0+0
SPC            1     211       6   0.0+0
SPC            1     219       1   0.0+0
SPC            1     219       5   0.0+0
SPC            1     219       6   0.0+0
SPC            1     220       1   0.0+0
SPC            1     220       5   0.0+0
SPC            1     220       6   0.0+0
$--1---><--2---><--3---><--4---><--5---><--6---><--7---><--8---><--9---><--10-->
$$$$$$$$$$$$$$$$$$$$$$$$$$$$$$$$$$$ Default $$$$$$$$$$$$$$$$$$$$$$$$$$$$$$$$$$$$
PSHELL         1       1   4.0-2       1               1           0.0+0
CQUAD8         1       1       7      57     194      44     188     196+
+            195     132                                       2   0.0+0
CORD2R*                2               0           0.0+0           0.0+0*
*                  0.0+0-2.90284677254-1-9.56940335732-1           0.0+0*
*       -9.56940335732-1 2.90284677254-1           0.0+0                *
*
CQUAD8         2       1      57      20      58     194     189     190+
+            197     196                                       3   0.0+0
CORD2R*                3               0           0.0+0           0.0+0*
*                  0.0+0-9.80171403296-2-9.95184726672-1           0.0+0*
*       -9.95184726672-1 9.80171403296-2           0.0+0                *
*
CQUAD8         3       1     194      58      18      59     197     191+
+            192     198                                       4   0.0+0
CORD2R*                4               0           0.0+0           0.0+0*
*                  0.0+0-9.92123700818-2-9.95066282025-1           0.0+0*
*       -9.95066282025-1 9.92123700818-2           0.0+0                *
*
CQUAD8         4       1      44     194      59      23     195     198+
+            193     133                                       5   0.0+0
CORD2R*                5               0           0.0+0           0.0+0*
*                  0.0+0-2.89135102145-1-9.57288301771-1           0.0+0*
*       -9.57288301771-1 2.89135102145-1           0.0+0                *
*
CQUAD8         5       1       7      47     203      57     144     205+
+            204     188                                       6   0.0+0
CORD2R*                6               0           0.0+0           0.0+0*
*                  0.0+0-9.23879532511-1 3.82683432365-1           0.0+0*
*        2.90994764907-1 7.02523508017-1 -6.4944804833-1                *
*
CQUAD8         6       1      47      14      60     203     143     199+
+            206     205                                       7   0.0+0
CORD2R*                7               0           0.0+0           0.0+0*
*                  0.0+0-9.23879532511-1 3.82683432365-1           0.0+0*
*        2.48533008278-1 6.00011759282-1  -7.604059656-1                *
*
CQUAD8         7       1     203      60      22      61     206     200+
+            201     207                                       8   0.0+0
CORD2R*                8               0           0.0+0           0.0+0*
*                  0.0+0-9.80785280403-1 1.95090322016-1           0.0+0*
*        1.26821155193-1 6.37573001938-1-7.59879636387-1                *
*
CQUAD8         8       1      57     203      61      20     204     207+
+            202     189                                       9   0.0+0
CORD2R*                9               0           0.0+0           0.0+0*
*                  0.0+0-9.80785280403-1 1.95090322016-1           0.0+0*
*        1.48260020307-1 7.45353455194-1-6.49974763516-1                *
*
CQUAD8         9       1      14      49     212      60     153     214+
+            213     199                                      10   0.0+0
CORD2R*               10               0           0.0+0           0.0+0*
*                  0.0+0-9.23879532511-1 3.82683432365-1           0.0+0*
*        1.99951544151-1 4.82725729708-1-8.52640164354-1                *
*
CQUAD8        10       1      49      24      62     212     152     208+
+            215     214                                      11   0.0+0
CORD2R*               11               0           0.0+0           0.0+0*
*                  0.0+0-9.23879532511-1 3.82683432365-1           0.0+0*
*        1.46446609407-1 3.53553390593-1-9.23879532511-1                *
*
CQUAD8        11       1     212      62      11      63     215     209+
+            210     216                                      12   0.0+0
CORD2R*               12               0           0.0+0           0.0+0*
*                  0.0+0-9.80785280403-1 1.95090322016-1           0.0+0*
*        7.48813402373-2 3.76453918998-1-9.23404154071-1                *
*
CQUAD8        12       1      60     212      63      22     213     216+
+            211     200                                      13   0.0+0
CORD2R*               13               0           0.0+0           0.0+0*
*                  0.0+0-9.80785280403-1 1.95090322016-1           0.0+0*
*        1.01743699211-1 5.11500117121-1-8.53238448416-1                *
*
CQUAD8        13       1      24      56     221      62     182     223+
+            222     208                                      14   0.0+0
CORD2R*               14               0           0.0+0           0.0+0*
*                  0.0+0-9.23879532511-1 3.82683432365-1           0.0+0*
*        8.93356731101-2 2.15675393626-1-9.72369920398-1                *
*
CQUAD8        14       1      56       6      64     221     181     217+
+            224     223                                      15   0.0+0
CORD2R*               15               0           0.0+0           0.0+0*
*                  0.0+0-9.99546766196-1           0.0+0-3.01041888778-2*
*        3.00249960534-2 7.24867526823-2-9.96917333733-1                *
*
CQUAD8        15       1     221      64      12      65     224     218+
+            219     225                                      16   0.0+0
CORD2R*               16               0           0.0+0           0.0+0*
*                  0.0+0-9.99877634276-1           0.0+0-1.56434163463-2*
*        1.55952623484-2 7.84026782942-2-9.96799783221-1                *
*
CQUAD8        16       1      62     221      65      11     222     225+
+            220     209                                      17   0.0+0
CORD2R*               17               0           0.0+0           0.0+0*
*                  0.0+0-9.80785280403-1 1.95090322016-1           0.0+0*
*          4.526812783-2 2.27578246774-1  -9.727070156-1                *
*
CQUAD8        17       1      17      26      74      29      66      76+
+             75      73                                      18   0.0+0
CORD2R*               18               0           0.0+0           0.0+0*
*                  0.0+0           0.0+0           1.0+0           0.0+0*
*        9.23879532511-1           0.0+0-3.82683432365-1                *
*
CQUAD8        18       1      26      13      27      74      67      68+
+             77      76                                      19   0.0+0
CORD2R*               19               0           0.0+0           0.0+0*
*                  0.0+0           0.0+0           1.0+0           0.0+0*
*        8.52640164354-1           0.0+0-5.22498564716-1                *
*
CQUAD8        19       1      74      27       2      28      77      69+
+             70      78                                      20   0.0+0
CORD2R*               20               0           0.0+0           0.0+0*
*                  0.0+0-1.95090322016-1 9.80785280403-1           0.0+0*
*        8.36440022618-1  1.6637826507-1-5.22193796856-1                *
*
CQUAD8        20       1      29      74      28      10      75      78+
+             71      72                                      21   0.0+0
CORD2R*               21               0           0.0+0           0.0+0*
*                  0.0+0-1.95090322016-1 9.80785280403-1           0.0+0*
*        9.06029047636-1  1.8022038278-1-3.82925552125-1                *
*
CQUAD8        21       1      13      30      85      27      79      87+
+             86      68                                      22   0.0+0
CORD2R*               22               0           0.0+0           0.0+0*
*                  0.0+0           0.0+0           1.0+0           0.0+0*
*          7.604059656-1           0.0+0 -6.4944804833-1                *
*
CQUAD8        22       1      30       9      31      85      80      81+
+             88      87                                      23   0.0+0
CORD2R*               23               0           0.0+0           0.0+0*
*                  0.0+0           0.0+0           1.0+0           0.0+0*
*         6.4944804833-1           0.0+0  -7.604059656-1                *
*
CQUAD8        23       1      85      31      19      32      88      82+
+             83      89                                      24   0.0+0
CORD2R*               24               0           0.0+0           0.0+0*
*                  0.0+0-1.95090322016-1 9.80785280403-1           0.0+0*
*        6.37573001938-1 1.26821155193-1-7.59879636387-1                *
*
CQUAD8        24       1      27      85      32       2      86      89+
+             84      69                                      25   0.0+0
CORD2R*               25               0           0.0+0           0.0+0*
*                  0.0+0-1.95090322016-1 9.80785280403-1           0.0+0*
*        7.45353455194-1 1.48260020307-1-6.49974763516-1                *
*
CQUAD8        25       1       2      33      96      28      90      98+
+             97      70                                      26   0.0+0
CORD2R*               26               0           0.0+0           0.0+0*
*                  0.0+0-8.81921264348-1-4.71396736826-1           0.0+0*
*       -4.71396736826-1 8.81921264348-1           0.0+0                *
*
CQUAD8        26       1      33      15      34      96      91      92+
+             99      98                                      27   0.0+0
CORD2R*               27               0           0.0+0           0.0+0*
*                  0.0+0-7.73010453363-1-6.34393284164-1           0.0+0*
*       -6.34393284164-1 7.73010453363-1           0.0+0                *
*
CQUAD8        27       1      96      34       4      35      99      93+
+             94     100                                      28   0.0+0
CORD2R*               28               0           0.0+0           0.0+0*
*                  0.0+0-7.73771855412-1-6.33464376087-1           0.0+0*
*       -6.33464376087-1 7.73771855412-1           0.0+0                *
*
CQUAD8        28       1      28      96      35      10      97     100+
+             95      71                                      29   0.0+0
CORD2R*               29               0           0.0+0           0.0+0*
*                  0.0+0-8.81354441139-1-4.72455658327-1           0.0+0*
*       -4.72455658327-1 8.81354441139-1           0.0+0                *
*
CQUAD8        29       1       2      32     105      33      84     107+
+            106      90                                      30   0.0+0
CORD2R*               30               0           0.0+0           0.0+0*
*                  0.0+0-3.82683432365-1 9.23879532511-1           0.0+0*
*        7.02523508017-1 2.90994764907-1 -6.4944804833-1                *
*
CQUAD8        30       1      32      19      36     105      83     101+
+            108     107                                      31   0.0+0
CORD2R*               31               0           0.0+0           0.0+0*
*                  0.0+0-3.82683432365-1 9.23879532511-1           0.0+0*
*        6.00011759282-1 2.48533008278-1  -7.604059656-1                *
*
CQUAD8        31       1     105      36       3      37     108     102+
+            103     109                                      32   0.0+0
CORD2R*               32               0           0.0+0           0.0+0*
*                  0.0+0 -5.5557023302-1 8.31469612303-1           0.0+0*
*        5.40508292006-1 3.61156094337-1-7.59879636387-1                *
*
CQUAD8        32       1      33     105      37      15     106     109+
+            104      91                                      33   0.0+0
CORD2R*               33               0           0.0+0           0.0+0*
*                  0.0+0 -5.5557023302-1 8.31469612303-1           0.0+0*
*        6.31880148287-1 4.22208816811-1-6.49974763516-1                *
*
CQUAD8        33       1       9      38     116      31     110     118+
+            117      81                                      34   0.0+0
CORD2R*               34               0           0.0+0           0.0+0*
*                  0.0+0           0.0+0           1.0+0           0.0+0*
*        5.22498564716-1           0.0+0-8.52640164354-1                *
*
CQUAD8        34       1      38       5      39     116     111     112+
+            119     118                                      35   0.0+0
CORD2R*               35               0           0.0+0           0.0+0*
*                  0.0+0           0.0+0           1.0+0           0.0+0*
*        3.82683432365-1           0.0+0-9.23879532511-1                *
*
CQUAD8        35       1     116      39       8      40     119     113+
+            114     120                                      36   0.0+0
CORD2R*               36               0           0.0+0           0.0+0*
*                  0.0+0-1.95090322016-1 9.80785280403-1           0.0+0*
*        3.76453918998-1 7.48813402373-2-9.23404154071-1                *
*
CQUAD8        36       1      31     116      40      19     117     120+
+            115      82                                      37   0.0+0
CORD2R*               37               0           0.0+0           0.0+0*
*                  0.0+0-1.95090322016-1 9.80785280403-1           0.0+0*
*        5.11500117121-1 1.01743699211-1-8.53238448416-1                *
*
CQUAD8        37       1      19      40     125      36     115     127+
+            126     101                                      38   0.0+0
CORD2R*               38               0           0.0+0           0.0+0*
*                  0.0+0-3.82683432365-1 9.23879532511-1           0.0+0*
*        4.82725729708-1 1.99951544151-1-8.52640164354-1                *
*
CQUAD8        38       1      40       8      41     125     114     121+
+            128     127                                      39   0.0+0
CORD2R*               39               0           0.0+0           0.0+0*
*                  0.0+0-3.82683432365-1 9.23879532511-1           0.0+0*
*        3.53553390593-1 1.46446609407-1-9.23879532511-1                *
*
CQUAD8        39       1     125      41      16      42     128     122+
+            123     129                                      40   0.0+0
CORD2R*               40               0           0.0+0           0.0+0*
*                  0.0+0 -5.5557023302-1 8.31469612303-1           0.0+0*
*        3.19142222394-1 2.13244015462-1-9.23404154071-1                *
*
CQUAD8        40       1      36     125      42       3     126     129+
+            124     102                                      41   0.0+0
CORD2R*               41               0           0.0+0           0.0+0*
*                  0.0+0 -5.5557023302-1 8.31469612303-1           0.0+0*
*        4.33628861049-1 2.89741541738-1-8.53238448416-1                *
*
CQUAD8        41       1      15      43     136      34     130     138+
+            137      92                                      42   0.0+0
CORD2R*               42               0           0.0+0           0.0+0*
*                  0.0+0-6.34393284164-1-7.73010453363-1           0.0+0*
*       -7.73010453363-1 6.34393284164-1           0.0+0                *
*
CQUAD8        42       1      43       7      44     136     131     132+
+            139     138                                      43   0.0+0
CORD2R*               43               0           0.0+0           0.0+0*
*                  0.0+0-4.71396736826-1-8.81921264348-1           0.0+0*
*       -8.81921264348-1 4.71396736826-1           0.0+0                *
*
CQUAD8        43       1     136      44      23      45     139     133+
+            134     140                                      44   0.0+0
CORD2R*               44               0           0.0+0           0.0+0*
*                  0.0+0-4.72455658327-1-8.81354441139-1           0.0+0*
*       -8.81354441139-1 4.72455658327-1           0.0+0                *
*
CQUAD8        44       1      34     136      45       4     137     140+
+            135      93                                      45   0.0+0
CORD2R*               45               0           0.0+0           0.0+0*
*                  0.0+0-6.33464376087-1-7.73771855412-1           0.0+0*
*       -7.73771855412-1 6.33464376087-1           0.0+0                *
*
CQUAD8        45       1      15      37     145      43     104     147+
+            146     130                                      46   0.0+0
CORD2R*               46               0           0.0+0           0.0+0*
*                  0.0+0-7.07106781187-1 7.07106781187-1           0.0+0*
*         5.3768821473-1  5.3768821473-1 -6.4944804833-1                *
*
CQUAD8        46       1      37       3      46     145     103     141+
+            148     147                                      47   0.0+0
CORD2R*               47               0           0.0+0           0.0+0*
*                  0.0+0-7.07106781187-1 7.07106781187-1           0.0+0*
*        4.59229119003-1 4.59229119003-1  -7.604059656-1                *
*
CQUAD8        47       1     145      46      14      47     148     142+
+            143     149                                      48   0.0+0
CORD2R*               48               0           0.0+0           0.0+0*
*                  0.0+0-8.31469612303-1  5.5557023302-1           0.0+0*
*        3.61156094337-1 5.40508292006-1-7.59879636387-1                *
*
CQUAD8        48       1      43     145      47       7     146     149+
+            144     131                                      49   0.0+0
CORD2R*               49               0           0.0+0           0.0+0*
*                  0.0+0-8.31469612303-1  5.5557023302-1           0.0+0*
*        4.22208816811-1 6.31880148287-1-6.49974763516-1                *
*
CQUAD8        49       1       3      42     154      46     124     156+
+            155     141                                      50   0.0+0
CORD2R*               50               0           0.0+0           0.0+0*
*                  0.0+0-7.07106781187-1 7.07106781187-1           0.0+0*
*        3.69462278271-1 3.69462278271-1-8.52640164354-1                *
*
CQUAD8        50       1      42      16      48     154     123     150+
+            157     156                                      51   0.0+0
CORD2R*               51               0           0.0+0           0.0+0*
*                  0.0+0-7.07106781187-1 7.07106781187-1           0.0+0*
*        2.70598050073-1 2.70598050073-1-9.23879532511-1                *
*
CQUAD8        51       1     154      48      24      49     157     151+
+            152     158                                      52   0.0+0
CORD2R*               52               0           0.0+0           0.0+0*
*                  0.0+0-8.31469612303-1  5.5557023302-1           0.0+0*
*        2.13244015462-1 3.19142222394-1-9.23404154071-1                *
*
CQUAD8        52       1      46     154      49      14     155     158+
+            153     142                                      53   0.0+0
CORD2R*               53               0           0.0+0           0.0+0*
*                  0.0+0-8.31469612303-1  5.5557023302-1           0.0+0*
*        2.89741541738-1 4.33628861049-1-8.53238448416-1                *
*
CQUAD8        53       1       5      50     165      39     159     167+
+            166     112                                      54   0.0+0
CORD2R*               54               0           0.0+0           0.0+0*
*                  0.0+0           0.0+0           1.0+0           0.0+0*
*        2.33445363856-1           0.0+0-9.72369920398-1                *
*
CQUAD8        54       1      50       1      51     165     160     161+
+            168     167                                      55   0.0+0
CORD2R*               55               0           0.0+0           0.0+0*
*                  0.0+0-9.96917333733-1           0.0+0-7.84590957278-2*
*        7.84590957278-2           0.0+0-9.96917333733-1                *
*
CQUAD8        55       1     165      51      21      52     168     162+
+            163     169                                      56   0.0+0
CORD2R*               56               0           0.0+0           0.0+0*
*                  0.0+0-9.96921022274-1           0.0+0-7.84122142779-2*
*        7.84026782942-2 1.55952623484-2-9.96799783221-1                *
*
CQUAD8        56       1      39     165      52       8     166     169+
+            164     113                                      57   0.0+0
CORD2R*               57               0           0.0+0           0.0+0*
*                  0.0+0-1.95090322016-1 9.80785280403-1           0.0+0*
*        2.27578246774-1   4.526812783-2  -9.727070156-1                *
*
CQUAD8        57       1       8      52     174      41     164     176+
+            175     121                                      58   0.0+0
CORD2R*               58               0           0.0+0           0.0+0*
*                  0.0+0-3.82683432365-1 9.23879532511-1           0.0+0*
*        2.15675393626-1 8.93356731101-2-9.72369920398-1                *
*
CQUAD8        58       1      52      21      53     174     163     170+
+            177     176                                      59   0.0+0
CORD2R*               59               0           0.0+0           0.0+0*
*                  0.0+0-9.97366998467-1           0.0+0-7.25194482081-2*
*        7.24867526823-2 3.00249960534-2-9.96917333733-1                *
*
CQUAD8        59       1     174      53      25      54     177     171+
+            172     178                                      60   0.0+0
CORD2R*               60               0           0.0+0           0.0+0*
*                  0.0+0-9.97784276654-1           0.0+0-6.65322272401-2*
*        6.64665812459-2 4.44115497241-2-9.96799783221-1                *
*
CQUAD8        60       1      41     174      54      16     175     178+
+            173     122                                      61   0.0+0
CORD2R*               61               0           0.0+0           0.0+0*
*                  0.0+0 -5.5557023302-1 8.31469612303-1           0.0+0*
*        1.92931521705-1 1.28912721384-1  -9.727070156-1                *
*
CQUAD8        61       1      16      54     183      48     173     185+
+            184     150                                      62   0.0+0
CORD2R*               62               0           0.0+0           0.0+0*
*                  0.0+0-7.07106781187-1 7.07106781187-1           0.0+0*
*        1.65070799819-1 1.65070799819-1-9.72369920398-1                *
*
CQUAD8        62       1      54      25      55     183     172     179+
+            186     185                                      63   0.0+0
CORD2R*               63               0           0.0+0           0.0+0*
*                  0.0+0-9.98455097809-1           0.0+0-5.55645359909-2*
*        5.54789586349-2 5.54789586349-2-9.96917333733-1                *
*
CQUAD8        63       1     183      55       6      56     186     180+
+            181     187                                      64   0.0+0
CORD2R*               64               0           0.0+0           0.0+0*
*                  0.0+0-9.99008939883-1           0.0+0 -4.4509976783-2*
*        4.44115497241-2 6.64665812459-2-9.96799783221-1                *
*
CQUAD8        64       1      48     183      56      24     184     187+
+            182     151                                      65   0.0+0
CORD2R*               65               0           0.0+0           0.0+0*
*                  0.0+0-8.31469612303-1  5.5557023302-1           0.0+0*
*        1.28912721384-1 1.92931521705-1  -9.727070156-1                *
*
$--1---><--2---><--3---><--4---><--5---><--6---><--7---><--8---><--9---><--10-->
$$$$$$$$$$$$$$$$$$$$$$$$$$$$$$$$$$$$ force $$$$$$$$$$$$$$$$$$$$$$$$$$$$$$$$$$$$$
FORCE          2      12       0   1.0+0   0.0+0  -1.0+0   0.0+0
$--1---><--2---><--3---><--4---><--5---><--6---><--7---><--8---><--9---><--10-->
$$$$$$$$$$$$$$$$$$$$$$$$$$$$$$$$$$$$ force $$$$$$$$$$$$$$$$$$$$$$$$$$$$$$$$$$$$$
FORCE          2       1       0   1.0+0   1.0+0   0.0+0   0.0+0
$--1---><--2---><--3---><--4---><--5---><--6---><--7---><--8---><--9---><--10-->
LOAD           1   1.0+0   1.0+0       2
ENDDATA 
