$ Generated by Mecway 33
$-----------------------EXECUTIVE CONTROL SECTION-----------------------
SOL 103
CEND
$-------------------------CASE CONTROL SECTION--------------------------
METHOD = 1
DISPLACEMENT = ALL
SPC = 1
MPC = 1
BEGIN BULK
$---------------------------BULK DATA SECTION---------------------------
GRID           1       0   0.0+0   0.0+0   0.0+0       0
GRID           2       0   9.0-1   0.0+0   0.0+0       0
GRID           3       0   5.0-1   0.0+0   0.0+0       0
GRID           4       0   9.0-1   1.0-1   0.0+0       0
GRID           5       0   9.0-1  -1.0-1   0.0+0       0
GRID           6       0   9.0-1   1.0+0   0.0+0       0
GRID           7       0   5.0-1   1.0+0   0.0+0       0
GRID           8       0   9.0-1   1.1+0   0.0+0       0
GRID           9       0   9.0-1   9.0-1   0.0+0       0
GRID          10       0   1.4+0   1.0+0   0.0+0       0
GRID          11       0   1.4+0   0.0+0   0.0+0       0
GRID          12       0   0.0+0   1.0+0   0.0+0       0
GRID          13       0   5.0-1   1.0+0   0.0+0       0
GRID          14       0   9.0-1   1.0+0   0.0+0       0
PARAM    STR_CID      -2
$--1---><--2---><--3---><--4---><--5---><--6---><--7---><--8---><--9---><--10-->
$$$$$$$$$$$$$$$$$$$$$$$$$$$$$$$$$$$ Material $$$$$$$$$$$$$$$$$$$$$$$$$$$$$$$$$$$
MAT1           1  2.0+11  1.0+11   0.0+0   8.0+3   0.0+0   0.0+0
$--1---><--2---><--3---><--4---><--5---><--6---><--7---><--8---><--9---><--10-->
SPC            1       1       1   0.0+0
SPC            1       1       2   0.0+0
SPC            1       1       3   0.0+0
SPC            1       1       4   0.0+0
SPC            1       1       5   0.0+0
SPC            1       1       6   0.0+0
SPC            1      10       1   0.0+0
SPC            1      10       2   0.0+0
SPC            1      10       3   0.0+0
SPC            1      10       4   0.0+0
SPC            1      10       5   0.0+0
SPC            1      10       6   0.0+0
SPC            1      11       1   0.0+0
SPC            1      11       2   0.0+0
SPC            1      11       3   0.0+0
SPC            1      11       4   0.0+0
SPC            1      11       5   0.0+0
SPC            1      11       6   0.0+0
SPC            1      12       1   0.0+0
SPC            1      12       2   0.0+0
SPC            1      12       3   0.0+0
SPC            1      12       4   0.0+0
SPC            1      12       5   0.0+0
SPC            1      12       6   0.0+0
MPC            1      13       1   1.0+0       7       1  -1.0+0
MPC            1      13       2   1.0+0       7       2  -1.0+0
MPC            1      13       3   1.0+0       7       3  -1.0+0
MPC            1      13       5   1.0+0       7       5  -1.0+0
MPC            1      13       6   1.0+0       7       6  -1.0+0
MPC            1       6       1   1.0+0      14       1  -1.0+0
MPC            1       6       2   1.0+0      14       2  -1.0+0
MPC            1       6       3   1.0+0      14       3  -1.0+0
MPC            1       6       4   1.0+0      14       4  -1.0+0
MPC            1       6       5   1.0+0      14       5  -1.0+0
MPC            1       6       6   1.0+0      14       6  -1.0+0
$--1---><--2---><--3---><--4---><--5---><--6---><--7---><--8---><--9---><--10-->
$$$$$$$$$$$$$$$$$$$$$$$$$$$$$$$$$$$ Default $$$$$$$$$$$$$$$$$$$$$$$$$$$$$$$$$$$$
PBAR*                  1               1           5.0-3 4.16666666667-6*
*        1.04166666667-6 2.86100260417-6           0.0+0
CBAR           1       1       2       3   0.0+0  -1.0+0   0.0+0        +
+                      4
CBAR           2       1       1       3   0.0+0   1.0+0   0.0+0        
CBAR           3       1       2       4  -1.0+0   0.0+0   0.0+0        
CBAR           4       1       2       5   1.0+0   0.0+0   0.0+0        
CBAR           5       1       7       6   0.0+0   1.0+0   0.0+0        
CBAR           6       1      14       8  -1.0+0   0.0+0   0.0+0        
CBAR           7       1      14       9   1.0+0   0.0+0   0.0+0        
CBAR           8       1      14      10   0.0+0   1.0+0   0.0+0        
CBAR           9       1       2      11   0.0+0   1.0+0   0.0+0        
CBAR          10       1      12      13   0.0+0   1.0+0   0.0+0        
$--1---><--2---><--3---><--4---><--5---><--6---><--7---><--8---><--9---><--10-->
EIGRL          1                      10       0                    MASS
ENDDATA 
