$ Generated by Mecway 33
$-----------------------EXECUTIVE CONTROL SECTION-----------------------
SOL 103
CEND
$-------------------------CASE CONTROL SECTION--------------------------
METHOD = 1
DISPLACEMENT = ALL
SPC = 1
BEGIN BULK
$---------------------------BULK DATA SECTION---------------------------
GRID           1       0   0.0+0   0.0+0   0.0+0       0
GRID*                  2               0 8.45111787319-1 4.85520102084-2*
*       -6.63475841284-2               0
GRID*                  3               0 4.79621857405-1-1.36085733771-1*
*        8.69443565607-2               0
GRID*                  4               0 1.25400602818+0 3.08036088943-1*
*       -3.53301137686-1               0
GRID           5       0   0.0+0   1.0+0   0.0+0       0
GRID*                  6               0 6.98714484792-1 1.04855201021+0*
*       -4.80014586994-1               0
GRID*                  7               0 4.58836891003-1 8.63914266229-1*
*       -1.64514907205-1               0
GRID*                  8               0 9.09350508056-1 1.30803608894+0*
*        -9.3297077451-1               0
GRID*                  9               0          -1.0+0-1.2246063538-16*
*                  0.0+0               0
GRID*                 10               0-9.51447989792-1-8.45111787319-1*
*       -6.63475841284-2               0
GRID*                 11               0-1.13608573377+0-4.79621857405-1*
*        8.69443565607-2               0
GRID*                 12               0-6.91963911057-1-1.25400602818+0*
*       -3.53301137686-1               0
PARAM    STR_CID      -2
$--1---><--2---><--3---><--4---><--5---><--6---><--7---><--8---><--9---><--10-->
$$$$$$$$$$$$$$$$$$$$$$$$$$$$$$$$$$$ Material $$$$$$$$$$$$$$$$$$$$$$$$$$$$$$$$$$$
MAT1           1  2.0+11  1.0+11   0.0+0   8.0+3   0.0+0   0.0+0
$--1---><--2---><--3---><--4---><--5---><--6---><--7---><--8---><--9---><--10-->
SPC            1       1       1   0.0+0
SPC            1       1       2   0.0+0
SPC            1       1       3   0.0+0
SPC            1       1       4   0.0+0
SPC            1       1       5   0.0+0
SPC            1       1       6   0.0+0
SPC            1       4       1   0.0+0
SPC            1       4       2   0.0+0
SPC            1       4       3   0.0+0
SPC            1       4       4   0.0+0
SPC            1       4       5   0.0+0
SPC            1       4       6   0.0+0
SPC            1       5       1   0.0+0
SPC            1       5       2   0.0+0
SPC            1       5       3   0.0+0
SPC            1       5       4   0.0+0
SPC            1       5       5   0.0+0
SPC            1       5       6   0.0+0
SPC            1       8       1   0.0+0
SPC            1       8       2   0.0+0
SPC            1       8       3   0.0+0
SPC            1       8       4   0.0+0
SPC            1       8       5   0.0+0
SPC            1       8       6   0.0+0
SPC            1       9       1   0.0+0
SPC            1       9       2   0.0+0
SPC            1       9       3   0.0+0
SPC            1       9       4   0.0+0
SPC            1       9       5   0.0+0
SPC            1       9       6   0.0+0
SPC            1      12       1   0.0+0
SPC            1      12       2   0.0+0
SPC            1      12       3   0.0+0
SPC            1      12       4   0.0+0
SPC            1      12       5   0.0+0
SPC            1      12       6   0.0+0
$--1---><--2---><--3---><--4---><--5---><--6---><--7---><--8---><--9---><--10-->
$$$$$$$$$$$$$$$$$$$$$$$$$$$$$$$$$$$ Default $$$$$$$$$$$$$$$$$$$$$$$$$$$$$$$$$$$$
PBAR*                  1               1           5.0-3 4.16666666667-6*
*        1.04166666667-6 2.86100260417-6           0.0+0
CBAR*                  1               1               3               2*
*        -2.3365301661-1 8.51795751476-1 4.68881931403-1                *
*                      5               6                                *
*
CBAR*                  2               1               1               3*
*        1.87627194457-1 9.05081366509-1 3.81606807982-1                
CBAR*                  3               1               2               4*
*       -1.58098859148-1 8.33898887078-1 5.28788612648-1                
CBAR*                  4               1               7               6*
*        3.20915176461-2 8.51795751476-1 5.22890172276-1                *
*                      5               6                                *
*
CBAR*                  5               1               5               7*
*        3.53293320831-1 9.05081366509-1 2.36667592741-1                
CBAR*                  6               1               6               8*
*        1.27476677993-1 8.33898887078-1 5.36993801359-1                
CBAR*                  7               1              11              10*
*        8.51795751476-1  2.3365301661-1 4.68881931403-1                *
*                      5               6                                *
*
CBAR*                  8               1               9              11*
*        9.05081366509-1-1.87627194457-1 3.81606807982-1                
CBAR*                  9               1              10              12*
*        8.33898887078-1 1.58098859148-1 5.28788612648-1                
$--1---><--2---><--3---><--4---><--5---><--6---><--7---><--8---><--9---><--10-->
EIGRL          1                       6       0                    MASS
ENDDATA 
