$ Generated by Mecway 33
$-----------------------EXECUTIVE CONTROL SECTION-----------------------
SOL 101
CEND
$-------------------------CASE CONTROL SECTION--------------------------
DISPLACEMENT = ALL
STRESS(CORNER) = ALL
SPC = 1
LOAD = 1
BEGIN BULK
$---------------------------BULK DATA SECTION---------------------------
GRID           1       0   0.0+0   0.0+0   0.0+0       0
GRID*                  2               0 6.1230317691-17           1.0+0*
*                  0.0+0               0
GRID*                  3               0 6.1230317691-17           1.0+0*
*                  1.0+0               0
GRID*                  4               0-6.1230317691-17 7.4983036091-33*
*                  1.0+0               0
GRID*                  5               0           1.0+0           0.0+0*
*        1.2246063538-16               0
GRID*                  6               0           1.0+0           1.0+0*
*        1.2246063538-16               0
GRID           7       0   1.0+0   1.0+0   1.0+0       0
GRID           8       0   1.0+0   0.0+0   1.0+0       0
GRID           9       0   1.0+0   1.0+0   2.0+0       0
GRID          10       0   1.0+0   0.0+0   2.0+0       0
GRID*                 11               0-1.6081428723-16           1.0+0*
*                  2.0+0               0
GRID*                 12               0-1.2246063538-16 1.4996607218-32*
*                  2.0+0               0
GRID*                 13               0           5.0-1 3.7491518046-33*
*                  1.0+0               0
GRID          14       0   0.0+0   5.0-1   1.0+0       0
GRID          15       0   5.0-1   1.0+0   1.0+0       0
GRID          16       0   1.0+0   5.0-1   1.0+0       0
GRID*                 17               0           5.0-1           0.0+0*
*        6.1230317691-17               0
GRID*                 18               0 3.0615158846-17           5.0-1*
*                  0.0+0               0
GRID*                 19               0           5.0-1           1.0+0*
*        6.1230317691-17               0
GRID*                 20               0           1.0+0           5.0-1*
*        1.2246063538-16               0
GRID          21       0   1.0+0   0.0+0   5.0-1       0
GRID*                 22               0-3.0615158846-17 3.7491518046-33*
*                  5.0-1               0
GRID*                 23               0 6.1230317691-17           1.0+0*
*                  5.0-1               0
GRID          24       0   1.0+0   1.0+0   5.0-1       0
GRID*                 25               0           5.0-1 1.8745759023-33*
*                  5.0-1               0
GRID*                 26               0 1.5307579423-17           5.0-1*
*                  5.0-1               0
GRID          27       0   5.0-1   1.0+0   5.0-1       0
GRID          28       0   1.0+0   5.0-1   5.0-1       0
GRID          29       0   5.0-1   5.0-1   1.0+0       0
GRID*                 30               0           5.0-1           5.0-1*
*        6.1230317691-17               0
GRID          31       0   5.0-1   5.0-1   5.0-1       0
GRID*                 32               0           5.0-1 7.4983036091-33*
*                  2.0+0               0
GRID*                 33               0-1.4163746131-16           5.0-1*
*                  2.0+0               0
GRID          34       0   5.0-1   1.0+0   2.0+0       0
GRID          35       0   1.0+0   5.0-1   2.0+0       0
GRID          36       0   1.0+0   0.0+0   1.5+0       0
GRID*                 37               0-9.1845476537-17 1.1247455414-32*
*                  1.5+0               0
GRID*                 38               0-4.9791984771-17           1.0+0*
*                  1.5+0               0
GRID          39       0   1.0+0   1.0+0   1.5+0       0
GRID*                 40               0           5.0-1 5.6237277068-33*
*                  1.5+0               0
GRID*                 41               0-7.0818730654-17           5.0-1*
*                  1.5+0               0
GRID          42       0   5.0-1   1.0+0   1.5+0       0
GRID          43       0   1.0+0   5.0-1   1.5+0       0
GRID          44       0   5.0-1   5.0-1   2.0+0       0
GRID          45       0   5.0-1   5.0-1   1.5+0       0
PARAM    STR_CID      -2
$--1---><--2---><--3---><--4---><--5---><--6---><--7---><--8---><--9---><--10-->
$$$$$$$$$$$$$$$$$$$$$$$$$$$$$$$$$$$ Material $$$$$$$$$$$$$$$$$$$$$$$$$$$$$$$$$$$
MAT1           1  2.0+11  1.0+11   0.0+0   0.0+0   0.0+0   0.0+0
$--1---><--2---><--3---><--4---><--5---><--6---><--7---><--8---><--9---><--10-->
SPC            1       1       1   0.0+0
SPC            1       1       2   0.0+0
SPC            1       1       3   0.0+0
SPC            1       2       1   0.0+0
SPC            1       2       2   0.0+0
SPC            1       2       3   0.0+0
SPC            1       5       1   0.0+0
SPC            1       5       2   0.0+0
SPC            1       5       3   0.0+0
SPC            1       6       1   0.0+0
SPC            1       6       2   0.0+0
SPC            1       6       3   0.0+0
SPC            1      17       1   0.0+0
SPC            1      17       2   0.0+0
SPC            1      17       3   0.0+0
SPC            1      18       1   0.0+0
SPC            1      18       2   0.0+0
SPC            1      18       3   0.0+0
SPC            1      19       1   0.0+0
SPC            1      19       2   0.0+0
SPC            1      19       3   0.0+0
SPC            1      20       1   0.0+0
SPC            1      20       2   0.0+0
SPC            1      20       3   0.0+0
SPC            1      30       1   0.0+0
SPC            1      30       2   0.0+0
SPC            1      30       3   0.0+0
$--1---><--2---><--3---><--4---><--5---><--6---><--7---><--8---><--9---><--10-->
$$$$$$$$$$$$$$$$$$$$$$$$$$$$$$$$$$$ Default $$$$$$$$$$$$$$$$$$$$$$$$$$$$$$$$$$$$
PSOLID         1       1       0       2               1
CHEXA          1       1      45      41      38      42      29      14+
+              3      15
CHEXA          2       1      43      45      42      39      16      29+
+             15       7
CHEXA          3       1       8      13      29      16      21      25+
+             31      28
CHEXA          4       1      13       4      14      29      25      22+
+             26      31
CHEXA          5       1      29      14       3      15      31      26+
+             23      27
CHEXA          6       1      16      29      15       7      28      31+
+             27      24
CHEXA          7       1      21      25      31      28       5      17+
+             30      20
CHEXA          8       1      25      22      26      31      17       1+
+             18      30
CHEXA          9       1      31      26      23      27      30      18+
+              2      19
CHEXA         10       1      28      31      27      24      20      30+
+             19       6
CHEXA         11       1      10      32      44      35      36      40+
+             45      43
CHEXA         12       1      32      12      33      44      40      37+
+             41      45
CHEXA         13       1      44      33      11      34      45      41+
+             38      42
CHEXA         14       1      35      44      34       9      43      45+
+             42      39
CHEXA         15       1      36      40      45      43       8      13+
+             29      16
CHEXA         16       1      40      37      41      45      13       4+
+             14      29
$--1---><--2---><--3---><--4---><--5---><--6---><--7---><--8---><--9---><--10-->
$$$$$$$$$$$$$$$$$$$$$$$$$$$$$$$$$$$$ force $$$$$$$$$$$$$$$$$$$$$$$$$$$$$$$$$$$$$
FORCE          2      10       0   1.0+0   0.0+0   0.0+0 -6.25+6
FORCE          2      32       0   1.0+0   0.0+0   0.0+0 -1.25+7
FORCE          2      44       0   1.0+0   0.0+0   0.0+0  -2.5+7
FORCE          2      35       0   1.0+0   0.0+0   0.0+0 -1.25+7
FORCE          2      12       0   1.0+0   0.0+0   0.0+0 -6.25+6
FORCE          2      33       0   1.0+0   0.0+0   0.0+0 -1.25+7
FORCE          2      11       0   1.0+0   0.0+0   0.0+0 -6.25+6
FORCE          2      34       0   1.0+0   0.0+0   0.0+0 -1.25+7
FORCE          2       9       0   1.0+0   0.0+0   0.0+0 -6.25+6
$--1---><--2---><--3---><--4---><--5---><--6---><--7---><--8---><--9---><--10-->
LOAD           1   1.0+0   1.0+0       2
ENDDATA 
