$ Generated by Mecway 33
$-----------------------EXECUTIVE CONTROL SECTION-----------------------
SOL 101
CEND
$-------------------------CASE CONTROL SECTION--------------------------
DISPLACEMENT = ALL
SPCFORCES = ALL
MPCFORCES = ALL
SPC = 1
LOAD = 1
BEGIN BULK
$---------------------------BULK DATA SECTION---------------------------
GRID           1       0   0.0+0   0.0+0   0.0+0       0
GRID           2       0  6.25-2   2.5-1   0.0+0       0
GRID           3       0   0.0+0 1.875-1   0.0+0       0
GRID           4       0   2.5-1   0.0+0   0.0+0       0
GRID           5       0  6.25-2  1.25-1   0.0+0       0
GRID           6       0   2.5-1   2.5-1   0.0+0       0
GRID           7       0   0.0+0  6.25-2   0.0+0       0
GRID           8       0 1.875-1   0.0+0   0.0+0       0
GRID           9       0   0.0+0   2.5-1   0.0+0       0
GRID          10       0   0.0+0   1.0+0   0.0+0       0
GRID          11       0  1.25-1   0.0+0   0.0+0       0
GRID          12       0   2.5-1  1.25-1   0.0+0       0
GRID          13       0  1.25-1   2.5-1   0.0+0       0
GRID          14       0   0.0+0  1.25-1   0.0+0       0
GRID          15       0  1.25-1  1.25-1   0.0+0       0
GRID          16       0   2.5-1  6.25-2   0.0+0       0
GRID          17       0   2.5-1   1.0+0   0.0+0       0
GRID          18       0   2.5-1 1.875-1   0.0+0       0
GRID          19       0 1.875-1  1.25-1   0.0+0       0
GRID          20       0   2.5-1  1.25+0   0.0+0       0
GRID          21       0   0.0+0  1.25+0   0.0+0       0
GRID          22       0  1.25-1   1.0+0   5.0-2       0
GRID          23       0 1.875-1   2.5-1   0.0+0       0
GRID          24       0  1.25-1 1.875-1   0.0+0       0
GRID          25       0   2.5-1 1.125+0   5.0-2       0
GRID          26       0  1.25-1  1.25+0   5.0-2       0
GRID          27       0   0.0+0 1.125+0   5.0-2       0
GRID          28       0   0.0+0   1.0+0  -5.0-2       0
GRID          29       0   2.5-1   1.0+0  -5.0-2       0
GRID          30       0   2.5-1  1.25+0  -5.0-2       0
GRID          31       0   0.0+0  1.25+0  -5.0-2       0
GRID          32       0   0.0+0   1.0+0   5.0-2       0
GRID          33       0   2.5-1   1.0+0   5.0-2       0
GRID          34       0   2.5-1  1.25+0   5.0-2       0
GRID          35       0   0.0+0  1.25+0   5.0-2       0
GRID          36       0  1.25-1   1.0+0  -5.0-2       0
GRID          37       0   2.5-1 1.125+0  -5.0-2       0
GRID          38       0  1.25-1  1.25+0  -5.0-2       0
GRID          39       0   0.0+0 1.125+0  -5.0-2       0
GRID          40       0  6.25-2   0.0+0   0.0+0       0
GRID          41       0  1.25-1  6.25-2   0.0+0       0
GRID          42       0   0.0+0  -1.0+0   0.0+0       0
GRID          43       0  1.25-1  -1.0+0   0.0+0       0
GRID          44       0   2.5-1 -8.75-1   0.0+0       0
GRID          45       0   2.5-1  -1.0+0   0.0+0       0
GRID          46       0  1.25-1  -7.5-1   0.0+0       0
GRID          47       0   2.5-1  -7.5-1   0.0+0       0
GRID          48       0   0.0+0 -8.75-1   0.0+0       0
GRID          49       0  1.25-1 -8.75-1   0.0+0       0
GRID          50       0   0.0+0  -7.5-1   0.0+0       0
PARAM    STR_CID      -2
$--1---><--2---><--3---><--4---><--5---><--6---><--7---><--8---><--9---><--10-->
$$$$$$$$$$$$$$$$$$$$$$$$$$$$$$$$$$$ Material $$$$$$$$$$$$$$$$$$$$$$$$$$$$$$$$$$$
MAT1           1  2.0+11  1.0+11   0.0+0   0.0+0   0.0+0   0.0+0
$--1---><--2---><--3---><--4---><--5---><--6---><--7---><--8---><--9---><--10-->
$$$$$$$$$$$$$$$$$$$$$$$$$$$$$$$$$ Material(2) $$$$$$$$$$$$$$$$$$$$$$$$$$$$$$$$$$
MAT1           2  2.0+11  1.0+11   0.0+0   0.0+0   0.0+0   0.0+0
$--1---><--2---><--3---><--4---><--5---><--6---><--7---><--8---><--9---><--10-->
SPC            1       1       1   0.0+0
SPC            1       1       2   0.0+0
SPC            1       1       3   0.0+0
SPC            1       1       4   0.0+0
SPC            1       1       5   0.0+0
SPC            1       1       6   0.0+0
SPC            1       3       1   0.0+0
SPC            1       3       2   0.0+0
SPC            1       3       3   0.0+0
SPC            1       3       4   0.0+0
SPC            1       3       5   0.0+0
SPC            1       3       6   0.0+0
SPC            1       7       1   0.0+0
SPC            1       7       2   0.0+0
SPC            1       7       3   0.0+0
SPC            1       7       4   0.0+0
SPC            1       7       5   0.0+0
SPC            1       7       6   0.0+0
SPC            1       9       1   0.0+0
SPC            1       9       2   0.0+0
SPC            1       9       3   0.0+0
SPC            1       9       4   0.0+0
SPC            1       9       5   0.0+0
SPC            1       9       6   0.0+0
SPC            1      10       1   0.0+0
SPC            1      10       2   0.0+0
SPC            1      10       3   0.0+0
SPC            1      14       1   0.0+0
SPC            1      14       2   0.0+0
SPC            1      14       3   0.0+0
SPC            1      14       4   0.0+0
SPC            1      14       5   0.0+0
SPC            1      14       6   0.0+0
SPC            1      21       1   0.0+0
SPC            1      21       2   0.0+0
SPC            1      21       3   0.0+0
SPC            1      27       1   0.0+0
SPC            1      27       2   0.0+0
SPC            1      27       3   0.0+0
SPC            1      28       1   0.0+0
SPC            1      28       2   0.0+0
SPC            1      28       3   0.0+0
SPC            1      31       1   0.0+0
SPC            1      31       2   0.0+0
SPC            1      31       3   0.0+0
SPC            1      32       1   0.0+0
SPC            1      32       2   0.0+0
SPC            1      32       3   0.0+0
SPC            1      35       1   0.0+0
SPC            1      35       2   0.0+0
SPC            1      35       3   0.0+0
SPC            1      39       1   0.0+0
SPC            1      39       2   0.0+0
SPC            1      39       3   0.0+0
SPC            1      42       1   0.0+0
SPC            1      42       2   0.0+0
SPC            1      42       3   0.0+0
SPC            1      42       4   0.0+0
SPC            1      42       5   0.0+0
SPC            1      42       6   0.0+0
SPC            1      48       1   0.0+0
SPC            1      48       2   0.0+0
SPC            1      48       3   0.0+0
SPC            1      48       4   0.0+0
SPC            1      48       5   0.0+0
SPC            1      48       6   0.0+0
SPC            1      50       1   0.0+0
SPC            1      50       2   0.0+0
SPC            1      50       3   0.0+0
SPC            1      50       4   0.0+0
SPC            1      50       5   0.0+0
SPC            1      50       6   0.0+0
$--1---><--2---><--3---><--4---><--5---><--6---><--7---><--8---><--9---><--10-->
$$$$$$$$$$$$$$$$$$$$$$$$$$$$$$$$$$$ Default $$$$$$$$$$$$$$$$$$$$$$$$$$$$$$$$$$$$
PSHELL         1       1   1.0-1       1               1           0.0+0
CQUAD8         1       1      14      15      13       9       5      24+
+              2       3                                       2   0.0+0
CORD2R         2       0   0.0+0   0.0+0   0.0+0   0.0+0   1.0+0   0.0+0+
+          1.0+0   0.0+0   0.0+0
CQUAD8         2       1      11       4      12      15       8      16+
+             19      41                                       3   0.0+0
CORD2R         3       0   0.0+0   0.0+0   0.0+0   0.0+0   1.0+0   0.0+0+
+          1.0+0   0.0+0   0.0+0
CQUAD8         3       1      15      12       6      13      19      18+
+             23      24                                       4   0.0+0
CORD2R         4       0   0.0+0   0.0+0   0.0+0   0.0+0   1.0+0   0.0+0+
+          1.0+0   0.0+0   0.0+0
CQUAD8         5       1       1      11      15      14      40      41+
+              5       7                                       5   0.0+0
CORD2R         5       0   0.0+0   0.0+0   0.0+0   0.0+0   1.0+0   0.0+0+
+          1.0+0   0.0+0   0.0+0
PSHELL         6       1   1.0-1       1               1           0.0+0
CQUAD4         6       6      48      49      46      50   0.0+0   0.0+0
CQUAD4         7       6      43      45      44      49   0.0+0   0.0+0
CQUAD4         8       6      49      44      47      46   0.0+0   0.0+0
CQUAD4         9       6      42      43      49      48   0.0+0   0.0+0
$--1---><--2---><--3---><--4---><--5---><--6---><--7---><--8---><--9---><--10-->
$$$$$$$$$$$$$$$$$$$$$$$$$$$$$$$$$$ Component $$$$$$$$$$$$$$$$$$$$$$$$$$$$$$$$$$$
PSOLID         7       2       0       3               1
CHEXA          4       7      28      29      30      31      32      33+
+             34      35      36      37      38      39      10      17+
+             20      21      22      25      26      27
$--1---><--2---><--3---><--4---><--5---><--6---><--7---><--8---><--9---><--10-->
$$$$$$$$$$$$$$$$$$$$$$$$$$$$$$$$$$$$ force $$$$$$$$$$$$$$$$$$$$$$$$$$$$$$$$$$$$$
FORCE*                 2              12               0           1.0+0*
*        5.55555555556-2           0.0+0           0.0+0
FORCE*                 2              18               0           1.0+0*
*        1.11111111111-1           0.0+0           0.0+0
FORCE*                 2               6               0           1.0+0*
*        2.77777777778-2           0.0+0           0.0+0
FORCE*                 2               4               0           1.0+0*
*        2.77777777778-2           0.0+0           0.0+0
FORCE*                 2              16               0           1.0+0*
*        1.11111111111-1           0.0+0           0.0+0
FORCE*                 2              29               0           1.0+0*
*       -2.77777777778-2           0.0+0           0.0+0
FORCE*                 2              30               0           1.0+0*
*       -2.77777777778-2           0.0+0           0.0+0
FORCE*                 2              33               0           1.0+0*
*       -2.77777777778-2           0.0+0           0.0+0
FORCE*                 2              34               0           1.0+0*
*       -2.77777777778-2           0.0+0           0.0+0
FORCE*                 2              37               0           1.0+0*
*        1.11111111111-1           0.0+0           0.0+0
FORCE*                 2              17               0           1.0+0*
*        1.11111111111-1           0.0+0           0.0+0
FORCE*                 2              20               0           1.0+0*
*        1.11111111111-1           0.0+0           0.0+0
FORCE*                 2              25               0           1.0+0*
*        1.11111111111-1           0.0+0           0.0+0
FORCE*                 2              45               0           1.0+0*
*        8.33333333333-2           0.0+0           0.0+0
FORCE*                 2              44               0           1.0+0*
*        1.66666666667-1           0.0+0           0.0+0
FORCE*                 2              47               0           1.0+0*
*        8.33333333333-2           0.0+0           0.0+0
$--1---><--2---><--3---><--4---><--5---><--6---><--7---><--8---><--9---><--10-->
LOAD           1   1.0+0   1.0+0       2
PARAM,QUAD4TYP,MITC4+
ENDDATA 
