$ Generated by Mecway 33
$-----------------------EXECUTIVE CONTROL SECTION-----------------------
SOL 101
CEND
$-------------------------CASE CONTROL SECTION--------------------------
DISPLACEMENT = ALL
SPC = 1
LOAD = 1
BEGIN BULK
$---------------------------BULK DATA SECTION---------------------------
GRID*                  1               0-3.48713457584-1-4.51806008816-1*
*       -2.84093767405-1               0
GRID*                  2               0 7.17663347721-1-3.13300937414-1*
*       -5.41292466223-2               0
GRID*                  3               0 6.87916368246-1 4.82810199261-1*
*       -1.61847265437-1               0
GRID*                  4               0-3.17180544138-1 5.20577251911-1*
*       -2.38907057792-2               0
GRID*                  5               0   1.295594275-1 9.28873717785-1*
*       -8.38056715205-1               0
GRID*                  6               0-4.14515842916-1 1.16941142082+0*
*       -5.34518869594-1               0
GRID*                  7               0 1.65128654242+0-4.51806008816-1*
*       -2.84093767405-1               0
GRID*                  8               0 2.71766334772+0-3.13300937414-1*
*       -5.41292466223-2               0
GRID*                  9               0 2.68791636825+0 4.82810199261-1*
*       -1.61847265437-1               0
GRID*                 10               0 1.68281945586+0 5.20577251911-1*
*       -2.38907057792-2               0
GRID*                 11               0  2.1295594275+0 9.28873717785-1*
*       -8.38056715205-1               0
GRID*                 12               0 1.58548415708+0 1.16941142082+0*
*       -5.34518869594-1               0
GRID*                 13               0 2.18447494507+0-3.82553473115-1*
*       -1.69111507013-1               0
GRID*                 14               0 2.70278985798+0 8.47546309233-2*
*        -1.0798825603-1               0
GRID*                 15               0 2.18536791205+0 5.01693725586-1*
*       -9.28689856082-2               0
GRID*                 16               0 1.66705299914+0 3.43856215477-2*
*       -1.53992236592-1               0
GRID*                 17               0 2.18492142856+0 5.95701262355-2*
*       -1.30990246311-1               0
GRID*                 18               0 2.40873789787+0 7.05841958523-1*
*       -4.99951990321-1               0
GRID*                 19               0 1.85752179229+0  1.0491425693+0*
*         -6.862877924-1               0
GRID*                 20               0 1.63415180647+0 8.44994336367-1*
*       -2.79204787686-1               0
GRID*                 21               0 2.02144485217+0 7.75418147445-1*
*       -3.89578389004-1               0
GRID*                 22               0 1.93948332223+0 9.12280358374-1*
*       -5.37933090702-1               0
GRID*                 23               0 1.72150297469+0 1.10927699506+0*
*       -6.10403330997-1               0
GRID*                 24               0 1.60981798178+0 1.00720287859+0*
*        -4.0686182864-1               0
GRID*                 25               0 1.82779832932+0 8.10206241906-1*
*       -3.34391588345-1               0
GRID*                 26               0 1.77465065201+0 9.59741618484-1*
*       -4.72397459671-1               0
GRID*                 27               0 2.10340638211+0 6.38555936515-1*
*       -2.41223687306-1               0
GRID*                 28               0 1.65848563117+0 6.82785794139-1*
*       -1.51547746733-1               0
GRID*                 29               0 1.93409368396+0 5.11135488749-1*
*       -5.83798456937-2               0
GRID*                 30               0 1.88094600664+0 6.60670865327-1*
*       -1.96385717019-1               0
GRID*                 31               0 1.91788074374+0-4.17179740965-1*
*       -2.26602637209-1               0
GRID*                 32               0 2.18469818681+0 -1.6149167344-1*
*       -1.50050876662-1               0
GRID*                 33               0 1.92598721385+0 4.69778738916-2*
*       -1.42491241451-1               0
GRID*                 34               0 1.65916977078+0-2.08710193634-1*
*       -2.19043001998-1               0
GRID*                 35               0  1.9219339788+0-1.85100933537-1*
*        -1.8454693933-1               0
GRID*                 36               0 2.45106914639+0-3.47927205265-1*
*       -1.11620376818-1               0
GRID*                 37               0 2.71022660285+0-1.14273153245-1*
*       -8.10587513261-2               0
GRID*                 38               0 2.44385564327+0 7.21623785794-2*
*        -1.1948925117-1               0
GRID*                 39               0 2.44746239483+0-1.37882413343-1*
*       -1.15554813994-1               0
GRID*                 40               0 2.69535311311+0 2.83782415092-1*
*       -1.34917760734-1               0
GRID*                 41               0 2.43664214015+0 4.92251962423-1*
*       -1.27358125523-1               0
GRID*                 42               0 2.18514467031+0 2.80631925911-1*
*        -1.1192961596-1               0
GRID*                 43               0 2.44024889171+0 2.82207170501-1*
*       -1.23423688347-1               0
GRID*                 44               0  1.6749362275+0 2.77481436729-1*
*       -8.89414711855-2               0
GRID*                 45               0  1.9300404489+0  2.7905668132-1*
*       -1.00435543573-1               0
GRID*                 46               0 2.54832713306+0 5.94326078892-1*
*       -3.30899627879-1               0
GRID*                 47               0 2.21509137502+0 7.40630052984-1*
*       -4.44765189663-1               0
GRID*                 48               0 2.32586675759+0 6.16441007704-1*
*       -2.86061657593-1               0
GRID*                 49               0 2.26914866269+0 8.17357838154-1*
*       -6.69004352763-1               0
GRID*                 50               0  1.9935406099+0 9.89008143544-1*
*       -7.62172253802-1               0
GRID*                 51               0 2.10431599246+0 8.64819098264-1*
*       -6.03468721732-1               0
PARAM    STR_CID      -2
$--1---><--2---><--3---><--4---><--5---><--6---><--7---><--8---><--9---><--10-->
$$$$$$$$$$$$$$$$$$$$$$$$$$$$$$$$$$$ Material $$$$$$$$$$$$$$$$$$$$$$$$$$$$$$$$$$$
MAT1*                  1          2.1+11 8.0769230769+10           3.0-1*
*                  0.0+0           0.0+0           0.0+0
$--1---><--2---><--3---><--4---><--5---><--6---><--7---><--8---><--9---><--10-->
SPC            1       1       1   0.0+0
SPC            1       1       2   0.0+0
SPC            1       1       3   0.0+0
SPC            1       1       4   0.0+0
SPC            1       1       5   0.0+0
SPC            1       1       6   0.0+0
SPC            1       2       1   0.0+0
SPC            1       2       2   0.0+0
SPC            1       2       3   0.0+0
SPC            1       2       4   0.0+0
SPC            1       2       5   0.0+0
SPC            1       2       6   0.0+0
SPC            1       7       1   0.0+0
SPC            1       7       2   0.0+0
SPC            1       7       3   0.0+0
SPC            1       7       4   0.0+0
SPC            1       7       5   0.0+0
SPC            1       7       6   0.0+0
SPC            1       8       1   0.0+0
SPC            1       8       2   0.0+0
SPC            1       8       3   0.0+0
SPC            1       8       4   0.0+0
SPC            1       8       5   0.0+0
SPC            1       8       6   0.0+0
SPC            1      13       1   0.0+0
SPC            1      13       2   0.0+0
SPC            1      13       3   0.0+0
SPC            1      13       4   0.0+0
SPC            1      13       5   0.0+0
SPC            1      13       6   0.0+0
SPC            1      31       1   0.0+0
SPC            1      31       2   0.0+0
SPC            1      31       3   0.0+0
SPC            1      31       4   0.0+0
SPC            1      31       5   0.0+0
SPC            1      31       6   0.0+0
SPC            1      36       1   0.0+0
SPC            1      36       2   0.0+0
SPC            1      36       3   0.0+0
SPC            1      36       4   0.0+0
SPC            1      36       5   0.0+0
SPC            1      36       6   0.0+0
$--1---><--2---><--3---><--4---><--5---><--6---><--7---><--8---><--9---><--10-->
$$$$$$$$$$$$$$$$$$$$$$$$$$$$$$$$$$$ Default $$$$$$$$$$$$$$$$$$$$$$$$$$$$$$$$$$$$
PSHELL         1       1   6.0-3       1               1           0.0+0
CQUAD4*                1               1               1               2*
*                      3               4 -1.554993975-15           0.0+0
CQUAD4*                2               1               3               5*
*                      6               4  8.139387355-16           0.0+0
CQUAD4*                3               1               9              46*
*                     48              41 4.4920143516-16           0.0+0
CQUAD4*                4               1              46              18*
*                     47              48 -7.646129042-15           0.0+0
CQUAD4*                5               1              48              47*
*                     21              27 9.4589014653-16           0.0+0
CQUAD4         6       1      41      48      27      15   0.0+0   0.0+0
CQUAD4*                7               1              18              49*
*                     51              47 6.5556053043-15           0.0+0
CQUAD4*                8               1              49              11*
*                     50              51 5.0004891678-15           0.0+0
CQUAD4         9       1      51      50      19      22   0.0+0   0.0+0
CQUAD4*               10               1              47              51*
*                     22              21-3.6768107595-15           0.0+0
CQUAD4*               11               1              21              22*
*                     26              25-3.4989502129-15           0.0+0
CQUAD4*               12               1              22              19*
*                     23              26-3.0746899719-15           0.0+0
CQUAD4*               13               1              26              23*
*                     12              24  1.600983061-15           0.0+0
CQUAD4*               14               1              25              26*
*                     24              20 1.3511352784-16           0.0+0
CQUAD4        15       1      15      27      30      29   0.0+0   0.0+0
CQUAD4*               16               1              27              21*
*                     25              30 3.7310935957-15           0.0+0
CQUAD4*               17               1              30              25*
*                     20              28 1.8795312754-15           0.0+0
CQUAD4        18       1      29      30      28      10   0.0+0   0.0+0
CQUAD4*               19               1               7              31*
*                     35              34-3.1184419667-16           0.0+0
CQUAD4*               20               1              31              13*
*                     32              35-3.5340628213-16           0.0+0
CQUAD4*               21               1              35              32*
*                     17              33-7.8568504669-16           0.0+0
CQUAD4*               22               1              34              35*
*                     33              16-3.3908795082-16           0.0+0
CQUAD4*               23               1              13              36*
*                     39              32 2.3813884322-17           0.0+0
CQUAD4*               24               1              36               8*
*                     37              39 1.4508271654-15           0.0+0
CQUAD4*               25               1              39              37*
*                     14              38 6.2189806213-17           0.0+0
CQUAD4*               26               1              32              39*
*                     38              17-7.7190146086-16           0.0+0
CQUAD4*               27               1              17              38*
*                     43              42 4.0037775205-16           0.0+0
CQUAD4*               28               1              38              14*
*                     40              43  3.927016251-16           0.0+0
CQUAD4*               29               1              43              40*
*                      9              41 1.6090854302-16           0.0+0
CQUAD4        30       1      42      43      41      15   0.0+0   0.0+0
CQUAD4*               31               1              16              33*
*                     45              44 1.0953359062-17           0.0+0
CQUAD4*               32               1              33              17*
*                     42              45 6.6544256397-17           0.0+0
CQUAD4*               33               1              45              42*
*                     15              29 2.0680423803-16           0.0+0
CQUAD4*               34               1              44              45*
*                     29              10-9.7618370936-17           0.0+0
$--1---><--2---><--3---><--4---><--5---><--6---><--7---><--8---><--9---><--10-->
$$$$$$$$$$$$$$$$$$$$$$$$$$$$$$$$$$$$ force $$$$$$$$$$$$$$$$$$$$$$$$$$$$$$$$$$$$$
FORCE*                 2               5               0           1.0+0*
*                  0.0+0 4.94361684625+1-2.96617010775+1
FORCE*                 2               6               0           1.0+0*
*                  0.0+0 4.94361684625+1-2.96617010775+1
FORCE*                 2              19               0           1.0+0*
*                  0.0+0 2.52808803147+1-1.51685281888+1
FORCE*                 2              23               0           1.0+0*
*                  0.0+0 2.52772234464+1-1.51663340678+1
FORCE*                 2              12               0           1.0+0*
*                  0.0+0 1.26380463952+1-7.58282783711+0
FORCE*                 2              11               0           1.0+0*
*                  0.0+0 1.26449048277+1 -7.5869428966+0
FORCE*                 2              50               0           1.0+0*
*                  0.0+0 2.52866080911+1-1.51719648547+1
$--1---><--2---><--3---><--4---><--5---><--6---><--7---><--8---><--9---><--10-->
LOAD           1   1.0+0   1.0+0       2
PARAM,QUAD4TYP,MITC4+
ENDDATA 
