$ Generated by Mecway 33
$-----------------------EXECUTIVE CONTROL SECTION-----------------------
SOL 101
CEND
$-------------------------CASE CONTROL SECTION--------------------------
DISPLACEMENT = ALL
SPC = 1
LOAD = 1
BEGIN BULK
$---------------------------BULK DATA SECTION---------------------------
GRID*                  1               0 -8.5045941174-2  1.4020422101-1*
*        3.45283038914-2               0
GRID*                  2               0 2.72788405418-1-4.02518570423-1*
*       -8.88095021248-1               0
GRID*                  3               0 -2.5501164794-1 1.06523668766+0*
*       -9.22035038471-1               0
GRID*                  4               0 -1.2907075882-1 1.26843106747+0*
*       -3.04771959782-1               0
GRID*                  5               0 -8.5045941174-2  1.4020422101-1*
*        2.03452830389+0               0
GRID*                  6               0 2.72788405418-1-4.02518570423-1*
*        1.11190497875+0               0
GRID*                  7               0 -2.5501164794-1 1.06523668766+0*
*        1.07796496153+0               0
GRID*                  8               0 -1.2907075882-1 1.26843106747+0*
*        1.69522804022+0               0
GRID*                  9               0 -8.5045941174-2  1.4020422101-1*
*        4.03452830389+0               0
GRID*                 10               0 2.72788405418-1-4.02518570423-1*
*        3.11190497875+0               0
GRID*                 11               0 -2.5501164794-1 1.06523668766+0*
*        3.07796496153+0               0
GRID*                 12               0 -1.2907075882-1 1.26843106747+0*
*        3.69522804022+0               0
GRID*                 13               0 -8.5045941174-2  1.4020422101-1*
*        6.03452830389+0               0
GRID*                 14               0 2.72788405418-1-4.02518570423-1*
*        5.11190497875+0               0
GRID*                 15               0 -2.5501164794-1 1.06523668766+0*
*        5.07796496153+0               0
GRID*                 16               0 -1.2907075882-1 1.26843106747+0*
*        5.69522804022+0               0
GRID*                 17               0 -8.5045941174-2 3.14020422101+0*
*        3.45283038914-2               0
GRID*                 18               0 2.72788405418-1 2.59748142958+0*
*       -8.88095021248-1               0
GRID*                 19               0 -2.5501164794-1 4.06523668766+0*
*       -9.22035038471-1               0
GRID*                 20               0 -1.2907075882-1 4.26843106747+0*
*       -3.04771959782-1               0
GRID*                 21               0 -8.5045941174-2 3.14020422101+0*
*        2.03452830389+0               0
GRID*                 22               0 2.72788405418-1 2.59748142958+0*
*        1.11190497875+0               0
GRID*                 23               0 -2.5501164794-1 4.06523668766+0*
*        1.07796496153+0               0
GRID*                 24               0 -1.2907075882-1 4.26843106747+0*
*        1.69522804022+0               0
GRID*                 25               0 -8.5045941174-2 3.14020422101+0*
*        4.03452830389+0               0
GRID*                 26               0 2.72788405418-1 2.59748142958+0*
*        3.11190497875+0               0
GRID*                 27               0 -2.5501164794-1 4.06523668766+0*
*        3.07796496153+0               0
GRID*                 28               0 -1.2907075882-1 4.26843106747+0*
*        3.69522804022+0               0
GRID*                 29               0 -8.5045941174-2 3.14020422101+0*
*        6.03452830389+0               0
GRID*                 30               0 2.72788405418-1 2.59748142958+0*
*        5.11190497875+0               0
GRID*                 31               0 -2.5501164794-1 4.06523668766+0*
*        5.07796496153+0               0
GRID*                 32               0 -1.2907075882-1 4.26843106747+0*
*        5.69522804022+0               0
GRID*                 33               0 3.14020422101+0  8.5045941174-2*
*        3.45283038914-2               0
GRID*                 34               0 2.59748142958+0-2.72788405418-1*
*       -8.88095021248-1               0
GRID*                 35               0 4.06523668766+0  2.5501164794-1*
*       -9.22035038471-1               0
GRID*                 36               0 4.26843106747+0  1.2907075882-1*
*       -3.04771959782-1               0
PARAM    STR_CID      -2
$--1---><--2---><--3---><--4---><--5---><--6---><--7---><--8---><--9---><--10-->
$$$$$$$$$$$$$$$$$$$$$$$$$$$$$$$$$$$ Material $$$$$$$$$$$$$$$$$$$$$$$$$$$$$$$$$$$
MAT1*                  1          2.1+11 7.7777777778+10           3.5-1*
*                  0.0+0           0.0+0           0.0+0
$--1---><--2---><--3---><--4---><--5---><--6---><--7---><--8---><--9---><--10-->
SPC            1       1       1   0.0+0
SPC            1       1       2   0.0+0
SPC            1       1       3   0.0+0
SPC            1       2       1   0.0+0
SPC            1       2       2   0.0+0
SPC            1       4       6   0.0+0
SPC            1       5       1   0.0+0
SPC            1       5       2   0.0+0
SPC            1       5       3   0.0+0
SPC            1       6       1   0.0+0
SPC            1       6       2   0.0+0
SPC            1       8       6   0.0+0
SPC            1       9       1   0.0+0
SPC            1       9       2   0.0+0
SPC            1       9       3   0.0+0
SPC            1      10       1   0.0+0
SPC            1      10       2   0.0+0
SPC            1      12       6   0.0+0
SPC            1      13       1   0.0+0
SPC            1      13       2   0.0+0
SPC            1      13       3   0.0+0
SPC            1      14       1   0.0+0
SPC            1      14       2   0.0+0
SPC            1      16       6   0.0+0
SPC            1      17       1   0.0+0
SPC            1      17       2   0.0+0
SPC            1      17       3   0.0+0
SPC            1      18       1   0.0+0
SPC            1      18       2   0.0+0
SPC            1      20       6   0.0+0
SPC            1      21       1   0.0+0
SPC            1      21       2   0.0+0
SPC            1      21       3   0.0+0
SPC            1      22       1   0.0+0
SPC            1      22       2   0.0+0
SPC            1      24       6   0.0+0
SPC            1      25       1   0.0+0
SPC            1      25       2   0.0+0
SPC            1      25       3   0.0+0
SPC            1      26       1   0.0+0
SPC            1      26       2   0.0+0
SPC            1      28       6   0.0+0
SPC            1      29       1   0.0+0
SPC            1      29       2   0.0+0
SPC            1      29       3   0.0+0
SPC            1      30       1   0.0+0
SPC            1      30       2   0.0+0
SPC            1      32       6   0.0+0
SPC            1      33       1   0.0+0
SPC            1      33       2   0.0+0
SPC            1      33       3   0.0+0
SPC            1      34       1   0.0+0
SPC            1      34       2   0.0+0
SPC            1      36       6   0.0+0
$--1---><--2---><--3---><--4---><--5---><--6---><--7---><--8---><--9---><--10-->
$$$$$$$$$$$$$$$$$$$$$$$$$$$$$$$$$$$ Default $$$$$$$$$$$$$$$$$$$$$$$$$$$$$$$$$$$$
PSHELL         1       1   3.0-3       1               1           0.0+0
CQUAD4*                1               1               1               2*
*                      3               4-3.4184550133-15           0.0+0
CQUAD4*                2               1               6               7*
*                      8               5-1.2465867631-16           0.0+0
CQUAD4*                3               1              11              12*
*                      9              10-5.6693853075-15           0.0+0
CQUAD4*                4               1              16              13*
*                     14              15 3.5774463816-15           0.0+0
CQUAD4*                5               1              18              17*
*                     20              19-3.1315157934-15           0.0+0
CQUAD4*                6               1              23              22*
*                     21              24 2.0468658771-16           0.0+0
CQUAD4         7       1      28      27      26      25   0.0+0   0.0+0
CQUAD4*                8               1              29              32*
*                     31              30-3.2749854033-15           0.0+0
CQUAD4*                9               1              34              33*
*                     36              35-6.5499708067-15           0.0+0
$--1---><--2---><--3---><--4---><--5---><--6---><--7---><--8---><--9---><--10-->
$$$$$$$$$$$$$$$$$$$$$$$$$$$$$$$$$$$$ moment $$$$$$$$$$$$$$$$$$$$$$$$$$$$$$$$$$$$
MOMENT         2       3       0   1.0+0   0.0+0   0.0+0   1.0+0
$--1---><--2---><--3---><--4---><--5---><--6---><--7---><--8---><--9---><--10-->
$$$$$$$$$$$$$$$$$$$$$$$$$$$$$$$$$$$$ moment $$$$$$$$$$$$$$$$$$$$$$$$$$$$$$$$$$$$
MOMENT         2       7       0   1.0+0   0.0+0   0.0+0   1.0+0
$--1---><--2---><--3---><--4---><--5---><--6---><--7---><--8---><--9---><--10-->
$$$$$$$$$$$$$$$$$$$$$$$$$$$$$$$$$$$$ moment $$$$$$$$$$$$$$$$$$$$$$$$$$$$$$$$$$$$
MOMENT         2      11       0   1.0+0   0.0+0   0.0+0   1.0+0
$--1---><--2---><--3---><--4---><--5---><--6---><--7---><--8---><--9---><--10-->
$$$$$$$$$$$$$$$$$$$$$$$$$$$$$$$$$$$$ moment $$$$$$$$$$$$$$$$$$$$$$$$$$$$$$$$$$$$
MOMENT         2      15       0   1.0+0   0.0+0   0.0+0   1.0+0
$--1---><--2---><--3---><--4---><--5---><--6---><--7---><--8---><--9---><--10-->
$$$$$$$$$$$$$$$$$$$$$$$$$$$$$$$$$$$$ moment $$$$$$$$$$$$$$$$$$$$$$$$$$$$$$$$$$$$
MOMENT         2      19       0   1.0+0   0.0+0   0.0+0   1.0+0
$--1---><--2---><--3---><--4---><--5---><--6---><--7---><--8---><--9---><--10-->
$$$$$$$$$$$$$$$$$$$$$$$$$$$$$$$$$$$$ moment $$$$$$$$$$$$$$$$$$$$$$$$$$$$$$$$$$$$
MOMENT         2      23       0   1.0+0   0.0+0   0.0+0   1.0+0
$--1---><--2---><--3---><--4---><--5---><--6---><--7---><--8---><--9---><--10-->
$$$$$$$$$$$$$$$$$$$$$$$$$$$$$$$$$$$$ moment $$$$$$$$$$$$$$$$$$$$$$$$$$$$$$$$$$$$
MOMENT         2      27       0   1.0+0   0.0+0   0.0+0   1.0+0
$--1---><--2---><--3---><--4---><--5---><--6---><--7---><--8---><--9---><--10-->
$$$$$$$$$$$$$$$$$$$$$$$$$$$$$$$$$$$$ moment $$$$$$$$$$$$$$$$$$$$$$$$$$$$$$$$$$$$
MOMENT         2      31       0   1.0+0   0.0+0   0.0+0   1.0+0
$--1---><--2---><--3---><--4---><--5---><--6---><--7---><--8---><--9---><--10-->
$$$$$$$$$$$$$$$$$$$$$$$$$$$$$$$$$$$$ force $$$$$$$$$$$$$$$$$$$$$$$$$$$$$$$$$$$$$
FORCE          2      28       0   1.0+0  -2.5-1 8.375+0   7.5+0
FORCE          2      32       0   1.0+0  -2.5-1 8.375+0   7.5+0
FORCE          2      24       0   1.0+0  -2.5-1 8.375+0   7.5+0
FORCE          2      20       0   1.0+0  -2.5-1 8.375+0   7.5+0
FORCE          2       4       0   1.0+0  -2.5-1 8.375+0   7.5+0
FORCE          2       8       0   1.0+0  -2.5-1 8.375+0   7.5+0
FORCE          2      12       0   1.0+0  -2.5-1 8.375+0   7.5+0
FORCE          2      16       0   1.0+0  -2.5-1 8.375+0   7.5+0
$--1---><--2---><--3---><--4---><--5---><--6---><--7---><--8---><--9---><--10-->
$$$$$$$$$$$$$$$$$$$$$$$$$$$$$$$$$$$$ moment $$$$$$$$$$$$$$$$$$$$$$$$$$$$$$$$$$$$
MOMENT         2      35       0   1.0+0   0.0+0   0.0+0   1.0+0
$--1---><--2---><--3---><--4---><--5---><--6---><--7---><--8---><--9---><--10-->
$$$$$$$$$$$$$$$$$$$$$$$$$$$$$$$$$$$$ force $$$$$$$$$$$$$$$$$$$$$$$$$$$$$$$$$$$$$
FORCE          2      36       0   1.0+0 8.375+0   2.5-1   7.5+0
$--1---><--2---><--3---><--4---><--5---><--6---><--7---><--8---><--9---><--10-->
LOAD           1   1.0+0   1.0+0       2
PARAM,QUAD4TYP,MITC4
ENDDATA 
