$ Generated by Mecway 33
$-----------------------EXECUTIVE CONTROL SECTION-----------------------
SOL 101
CEND
$-------------------------CASE CONTROL SECTION--------------------------
DISPLACEMENT = ALL
SPCFORCES = ALL
MPCFORCES = ALL
SPC = 1
LOAD = 1
BEGIN BULK
$---------------------------BULK DATA SECTION---------------------------
GRID           1       0   0.0+0   0.0+0   0.0+0       0
GRID           2       0   1.0+0   0.0+0   0.0+0       0
GRID           3       0   1.0+0   1.0+0   0.0+0       0
GRID           4       0   0.0+0   1.0+0   0.0+0       0
GRID           5       0   0.0+0   5.0-2   1.0+0       0
GRID           6       0   1.0+0   5.0-2   1.0+0       0
GRID           7       0   1.0+0   9.5-1   1.0+0       0
GRID           8       0   0.0+0   9.5-1   1.0+0       0
GRID           9       0   0.0+0  -5.0-2   1.1+0       0
GRID          10       0   1.0+0  -5.0-2   1.1+0       0
GRID          11       0   1.0+0  1.05+0   1.1+0       0
GRID          12       0   0.0+0  1.05+0   1.1+0       0
GRID          13       0   0.0+0   2.0+0   0.0+0       0
GRID          14       0   1.0+0   2.0+0   0.0+0       0
GRID          15       0   1.0+0   3.0+0   0.0+0       0
GRID          16       0   0.0+0   3.0+0   0.0+0       0
GRID          17       0   0.0+0  2.05+0   1.0+0       0
GRID          18       0   1.0+0  2.05+0   1.0+0       0
GRID          19       0   1.0+0  2.95+0   1.0+0       0
GRID          20       0   0.0+0  2.95+0   1.0+0       0
GRID          21       0   0.0+0  1.95+0   1.1+0       0
GRID          22       0   1.0+0  1.95+0   1.1+0       0
GRID          23       0   1.0+0  3.05+0   1.1+0       0
GRID          24       0   0.0+0  3.05+0   1.1+0       0
GRID          25       0   5.0-1   2.0+0   0.0+0       0
GRID          26       0   1.0+0   2.5+0   0.0+0       0
GRID          27       0   5.0-1   3.0+0   0.0+0       0
GRID          28       0   0.0+0   2.5+0   0.0+0       0
GRID          29       0   5.0-1   2.5+0   0.0+0       0
GRID          30       0   5.0-1  2.05+0   1.0+0       0
GRID          31       0   1.0+0   2.5+0   1.0+0       0
GRID          32       0   5.0-1  2.95+0   1.0+0       0
GRID          33       0   0.0+0   2.5+0   1.0+0       0
GRID          34       0   5.0-1  1.95+0   1.1+0       0
GRID          35       0   1.0+0   2.5+0   1.1+0       0
GRID          36       0   5.0-1  3.05+0   1.1+0       0
GRID          37       0   0.0+0   2.5+0   1.1+0       0
GRID          38       0   0.0+0   2.0+0  1.05+0       0
GRID          39       0   1.0+0   2.0+0  1.05+0       0
GRID          40       0   1.0+0   3.0+0  1.05+0       0
GRID          41       0   0.0+0   3.0+0  1.05+0       0
GRID          42       0   5.0-1   2.0+0  1.05+0       0
GRID          43       0   1.0+0   2.5+0  1.05+0       0
GRID          44       0   5.0-1   3.0+0  1.05+0       0
GRID          45       0   0.0+0   2.5+0  1.05+0       0
GRID          46       0   5.0-1   2.5+0   1.0+0       0
GRID          47       0   5.0-1   2.5+0   1.1+0       0
GRID          48       0   5.0-1   2.5+0  1.05+0       0
GRID          49       0   2.0+0   0.0+0   0.0+0       0
GRID          50       0   3.0+0   0.0+0   0.0+0       0
GRID          51       0   3.0+0   1.0+0   0.0+0       0
GRID          52       0   2.0+0   1.0+0   0.0+0       0
GRID          53       0   2.0+0   2.0+0   0.0+0       0
GRID          54       0   3.0+0   2.0+0   0.0+0       0
GRID          55       0   3.0+0   3.0+0   0.0+0       0
GRID          56       0   2.0+0   3.0+0   0.0+0       0
GRID          57       0   2.5+0   2.0+0   0.0+0       0
GRID          58       0   3.0+0   2.5+0   0.0+0       0
GRID          59       0   2.5+0   3.0+0   0.0+0       0
GRID          60       0   2.0+0   2.5+0   0.0+0       0
GRID          61       0   2.5+0   2.5+0   0.0+0       0
GRID          62       0   0.0+0  -2.0+0   0.0+0       0
GRID          63       0   1.0+0  -2.0+0   0.0+0       0
GRID          64       0   1.0+0  -1.0+0   0.0+0       0
GRID          65       0   0.0+0  -1.0+0   0.0+0       0
GRID          66       0   2.0+0  -2.0+0   0.0+0       0
GRID          67       0   3.0+0  -2.0+0   0.0+0       0
GRID          68       0   3.0+0  -1.0+0   0.0+0       0
GRID          69       0   2.0+0  -1.0+0   0.0+0       0
PARAM    STR_CID      -2
$--1---><--2---><--3---><--4---><--5---><--6---><--7---><--8---><--9---><--10-->
$$$$$$$$$$$$$$$$$$$$$$$$$$$$$$$$$$$ Material $$$$$$$$$$$$$$$$$$$$$$$$$$$$$$$$$$$
MAT1           1  1.0+11  5.0+10   0.0+0   0.0+0   0.0+0   0.0+0
$--1---><--2---><--3---><--4---><--5---><--6---><--7---><--8---><--9---><--10-->
$$$$$$$$$$$$$$$$$$$$$$$$$$$$$$$$$ Material(2) $$$$$$$$$$$$$$$$$$$$$$$$$$$$$$$$$$
MAT1           2  1.0+11  5.0+10   0.0+0   0.0+0   0.0+0   0.0+0
$--1---><--2---><--3---><--4---><--5---><--6---><--7---><--8---><--9---><--10-->
$$$$$$$$$$$$$$$$$$$$$$$$$$$$$$$$$ Material(3) $$$$$$$$$$$$$$$$$$$$$$$$$$$$$$$$$$
MAT1           3  1.0+11  5.0+10   0.0+0   0.0+0   0.0+0   0.0+0
$--1---><--2---><--3---><--4---><--5---><--6---><--7---><--8---><--9---><--10-->
SPC            1       1       1   0.0+0
SPC            1       1       2   0.0+0
SPC            1       1       3   0.0+0
SPC            1       1       4   0.0+0
SPC            1       1       5   0.0+0
SPC            1       1       6   0.0+0
SPC            1       4       1   0.0+0
SPC            1       4       2   0.0+0
SPC            1       4       3   0.0+0
SPC            1       4       4   0.0+0
SPC            1       4       5   0.0+0
SPC            1       4       6   0.0+0
SPC            1       5       1   0.0+0
SPC            1       5       2   0.0+0
SPC            1       5       3   0.0+0
SPC            1       8       1   0.0+0
SPC            1       8       2   0.0+0
SPC            1       8       3   0.0+0
SPC            1       9       1   0.0+0
SPC            1       9       2   0.0+0
SPC            1       9       3   0.0+0
SPC            1      12       1   0.0+0
SPC            1      12       2   0.0+0
SPC            1      12       3   0.0+0
SPC            1      13       1   0.0+0
SPC            1      13       2   0.0+0
SPC            1      13       3   0.0+0
SPC            1      13       4   0.0+0
SPC            1      13       5   0.0+0
SPC            1      13       6   0.0+0
SPC            1      16       1   0.0+0
SPC            1      16       2   0.0+0
SPC            1      16       3   0.0+0
SPC            1      16       4   0.0+0
SPC            1      16       5   0.0+0
SPC            1      16       6   0.0+0
SPC            1      17       1   0.0+0
SPC            1      17       2   0.0+0
SPC            1      17       3   0.0+0
SPC            1      20       1   0.0+0
SPC            1      20       2   0.0+0
SPC            1      20       3   0.0+0
SPC            1      21       1   0.0+0
SPC            1      21       2   0.0+0
SPC            1      21       3   0.0+0
SPC            1      24       1   0.0+0
SPC            1      24       2   0.0+0
SPC            1      24       3   0.0+0
SPC            1      28       1   0.0+0
SPC            1      28       2   0.0+0
SPC            1      28       3   0.0+0
SPC            1      28       4   0.0+0
SPC            1      28       5   0.0+0
SPC            1      28       6   0.0+0
SPC            1      33       1   0.0+0
SPC            1      33       2   0.0+0
SPC            1      33       3   0.0+0
SPC            1      37       1   0.0+0
SPC            1      37       2   0.0+0
SPC            1      37       3   0.0+0
SPC            1      38       1   0.0+0
SPC            1      38       2   0.0+0
SPC            1      38       3   0.0+0
SPC            1      41       1   0.0+0
SPC            1      41       2   0.0+0
SPC            1      41       3   0.0+0
SPC            1      45       1   0.0+0
SPC            1      45       2   0.0+0
SPC            1      45       3   0.0+0
SPC            1      49       1   0.0+0
SPC            1      49       2   0.0+0
SPC            1      49       3   0.0+0
SPC            1      49       4   0.0+0
SPC            1      49       5   0.0+0
SPC            1      49       6   0.0+0
SPC            1      52       1   0.0+0
SPC            1      52       2   0.0+0
SPC            1      52       3   0.0+0
SPC            1      52       4   0.0+0
SPC            1      52       5   0.0+0
SPC            1      52       6   0.0+0
SPC            1      53       1   0.0+0
SPC            1      53       2   0.0+0
SPC            1      53       3   0.0+0
SPC            1      53       4   0.0+0
SPC            1      53       5   0.0+0
SPC            1      53       6   0.0+0
SPC            1      56       1   0.0+0
SPC            1      56       2   0.0+0
SPC            1      56       3   0.0+0
SPC            1      56       4   0.0+0
SPC            1      56       5   0.0+0
SPC            1      56       6   0.0+0
SPC            1      60       1   0.0+0
SPC            1      60       2   0.0+0
SPC            1      60       3   0.0+0
SPC            1      60       4   0.0+0
SPC            1      60       5   0.0+0
SPC            1      60       6   0.0+0
SPC            1      62       1   0.0+0
SPC            1      62       2   0.0+0
SPC            1      62       3   0.0+0
SPC            1      62       4   0.0+0
SPC            1      62       5   0.0+0
SPC            1      62       6   0.0+0
SPC            1      65       1   0.0+0
SPC            1      65       2   0.0+0
SPC            1      65       3   0.0+0
SPC            1      65       4   0.0+0
SPC            1      65       5   0.0+0
SPC            1      65       6   0.0+0
SPC            1      66       1   0.0+0
SPC            1      66       2   0.0+0
SPC            1      66       3   0.0+0
SPC            1      66       4   0.0+0
SPC            1      66       5   0.0+0
SPC            1      66       6   0.0+0
SPC            1      69       1   0.0+0
SPC            1      69       2   0.0+0
SPC            1      69       3   0.0+0
SPC            1      69       4   0.0+0
SPC            1      69       5   0.0+0
SPC            1      69       6   0.0+0
$--1---><--2---><--3---><--4---><--5---><--6---><--7---><--8---><--9---><--10-->
$$$$$$$$$$$$$$$$$$$$$$$$$$$$$$$$$$$ Default $$$$$$$$$$$$$$$$$$$$$$$$$$$$$$$$$$$$
PSHELL         1       1   1.0-1       1               1           0.0+0
CQUAD4         1       1       1       2       3       4   0.0+0   0.0+0
CQUAD4         5       1      13      25      29      28   0.0+0   0.0+0
CQUAD4         6       1      25      14      26      29   0.0+0   0.0+0
CQUAD4         7       1      29      26      15      27   0.0+0   0.0+0
CQUAD4         8       1      28      29      27      16   0.0+0   0.0+0
CQUAD4        15       1      49      50      51      52   0.0+0   0.0+0
CQUAD4        16       1      53      57      61      60   0.0+0   0.0+0
CQUAD4        17       1      57      54      58      61   0.0+0   0.0+0
CQUAD4        18       1      61      58      55      59   0.0+0   0.0+0
CQUAD4        19       1      60      61      59      56   0.0+0   0.0+0
$--1---><--2---><--3---><--4---><--5---><--6---><--7---><--8---><--9---><--10-->
$$$$$$$$$$$$$$$$$$$$$$$$$$$$$$$$$$ Component $$$$$$$$$$$$$$$$$$$$$$$$$$$$$$$$$$$
PSOLID         2       2       0       2               1
CHEXA          2       2       5       6       7       8       9      10+
+             11      12
CHEXA          3       2      48      43      40      44      47      35+
+             23      36
CHEXA          4       2      45      48      44      41      37      47+
+             36      24
CHEXA          9       2      17      30      46      33      38      42+
+             48      45
CHEXA         10       2      30      18      31      46      42      39+
+             43      48
CHEXA         11       2      46      31      19      32      48      43+
+             40      44
CHEXA         12       2      33      46      32      20      45      48+
+             44      41
CHEXA         13       2      38      42      48      45      21      34+
+             47      37
CHEXA         14       2      42      39      43      48      34      22+
+             35      47
$--1---><--2---><--3---><--4---><--5---><--6---><--7---><--8---><--9---><--10-->
$$$$$$$$$$$$$$$$$$$$$$$$$$$$$$$$$ Component(2) $$$$$$$$$$$$$$$$$$$$$$$$$$$$$$$$$
PSHELL         3       3   1.0-3       3               3           0.0+0
CQUAD4        20       3      62      63      64      65   0.0+0   0.0+0
CQUAD4        21       3      66      67      68      69   0.0+0   0.0+0
$--1---><--2---><--3---><--4---><--5---><--6---><--7---><--8---><--9---><--10-->
$$$$$$$$$$$$$$$$$$$$$$$$$$$$$$$$$$$$ force $$$$$$$$$$$$$$$$$$$$$$$$$$$$$$$$$$$$$
FORCE          2       2       0   1.0+0   5.0+9   0.0+0   0.0+0
FORCE          2       3       0   1.0+0   5.0+9   0.0+0   0.0+0
$--1---><--2---><--3---><--4---><--5---><--6---><--7---><--8---><--9---><--10-->
$$$$$$$$$$$$$$$$$$$$$$$$$$$$$$$$$$$$ force $$$$$$$$$$$$$$$$$$$$$$$$$$$$$$$$$$$$$
FORCE          2       7       0   1.0+0   2.5+9   0.0+0   0.0+0
FORCE          2       6       0   1.0+0   2.5+9   0.0+0   0.0+0
FORCE          2      10       0   1.0+0   2.5+9   0.0+0   0.0+0
FORCE          2      11       0   1.0+0   2.5+9   0.0+0   0.0+0
$--1---><--2---><--3---><--4---><--5---><--6---><--7---><--8---><--9---><--10-->
$$$$$$$$$$$$$$$$$$$$$$$$$$$$$$$$$$$$ force $$$$$$$$$$$$$$$$$$$$$$$$$$$$$$$$$$$$$
FORCE          2      26       0   1.0+0   5.0+9   0.0+0   0.0+0
$--1---><--2---><--3---><--4---><--5---><--6---><--7---><--8---><--9---><--10-->
$$$$$$$$$$$$$$$$$$$$$$$$$$$$$$$$$$$$ force $$$$$$$$$$$$$$$$$$$$$$$$$$$$$$$$$$$$$
FORCE          2      14       0   1.0+0   2.5+9   0.0+0   0.0+0
FORCE          2      15       0   1.0+0   2.5+9   0.0+0   0.0+0
$--1---><--2---><--3---><--4---><--5---><--6---><--7---><--8---><--9---><--10-->
$$$$$$$$$$$$$$$$$$$$$$$$$$$$$$$$$$$$ force $$$$$$$$$$$$$$$$$$$$$$$$$$$$$$$$$$$$$
FORCE          2      18       0   1.0+0  6.25+8   0.0+0   0.0+0
FORCE          2      22       0   1.0+0  6.25+8   0.0+0   0.0+0
FORCE          2      19       0   1.0+0  6.25+8   0.0+0   0.0+0
FORCE          2      23       0   1.0+0  6.25+8   0.0+0   0.0+0
$--1---><--2---><--3---><--4---><--5---><--6---><--7---><--8---><--9---><--10-->
$$$$$$$$$$$$$$$$$$$$$$$$$$$$$$$$$$$$ force $$$$$$$$$$$$$$$$$$$$$$$$$$$$$$$$$$$$$
FORCE          2      40       0   1.0+0  1.25+9   0.0+0   0.0+0
FORCE          2      35       0   1.0+0  1.25+9   0.0+0   0.0+0
FORCE          2      31       0   1.0+0  1.25+9   0.0+0   0.0+0
FORCE          2      39       0   1.0+0  1.25+9   0.0+0   0.0+0
$--1---><--2---><--3---><--4---><--5---><--6---><--7---><--8---><--9---><--10-->
$$$$$$$$$$$$$$$$$$$$$$$$$$$$$$$$$$$$ force $$$$$$$$$$$$$$$$$$$$$$$$$$$$$$$$$$$$$
FORCE          2      43       0   1.0+0   2.5+9   0.0+0   0.0+0
$--1---><--2---><--3---><--4---><--5---><--6---><--7---><--8---><--9---><--10-->
$$$$$$$$$$$$$$$$$$$$$$$$$$$$$$$$$$$$ moment $$$$$$$$$$$$$$$$$$$$$$$$$$$$$$$$$$$$
MOMENT*                2              50               0           1.0+0*
*                  0.0+0-8.33333333333+6           0.0+0
$--1---><--2---><--3---><--4---><--5---><--6---><--7---><--8---><--9---><--10-->
$$$$$$$$$$$$$$$$$$$$$$$$$$$$$$$$$$$$ moment $$$$$$$$$$$$$$$$$$$$$$$$$$$$$$$$$$$$
MOMENT*                2              51               0           1.0+0*
*                  0.0+0-8.33333333333+6           0.0+0
$--1---><--2---><--3---><--4---><--5---><--6---><--7---><--8---><--9---><--10-->
$$$$$$$$$$$$$$$$$$$$$$$$$$$$$$$$$$$$ moment $$$$$$$$$$$$$$$$$$$$$$$$$$$$$$$$$$$$
MOMENT*                2              58               0           1.0+0*
*                  0.0+0-8.33333333333+6           0.0+0
$--1---><--2---><--3---><--4---><--5---><--6---><--7---><--8---><--9---><--10-->
$$$$$$$$$$$$$$$$$$$$$$$$$$$$$$$$$$$$ moment $$$$$$$$$$$$$$$$$$$$$$$$$$$$$$$$$$$$
MOMENT*                2              55               0           1.0+0*
*                  0.0+0-4.16666666667+6           0.0+0
$--1---><--2---><--3---><--4---><--5---><--6---><--7---><--8---><--9---><--10-->
$$$$$$$$$$$$$$$$$$$$$$$$$$$$$$$$$$$$ moment $$$$$$$$$$$$$$$$$$$$$$$$$$$$$$$$$$$$
MOMENT*                2              54               0           1.0+0*
*                  0.0+0-4.16666666667+6           0.0+0
$--1---><--2---><--3---><--4---><--5---><--6---><--7---><--8---><--9---><--10-->
$$$$$$$$$$$$$$$$$$$$$$$$$$$$$$$$$$$$ force $$$$$$$$$$$$$$$$$$$$$$$$$$$$$$$$$$$$$
FORCE          2      63       0   1.0+0   5.0+7   0.0+0   0.0+0
FORCE          2      64       0   1.0+0   5.0+7   0.0+0   0.0+0
$--1---><--2---><--3---><--4---><--5---><--6---><--7---><--8---><--9---><--10-->
$$$$$$$$$$$$$$$$$$$$$$$$$$$$$$$$$$$$ moment $$$$$$$$$$$$$$$$$$$$$$$$$$$$$$$$$$$$
MOMENT*                2              67               0           1.0+0*
*                  0.0+0  -8.333333335+0           0.0+0
$--1---><--2---><--3---><--4---><--5---><--6---><--7---><--8---><--9---><--10-->
$$$$$$$$$$$$$$$$$$$$$$$$$$$$$$$$$$$$ moment $$$$$$$$$$$$$$$$$$$$$$$$$$$$$$$$$$$$
MOMENT*                2              68               0           1.0+0*
*                  0.0+0  -8.333333335+0           0.0+0
$--1---><--2---><--3---><--4---><--5---><--6---><--7---><--8---><--9---><--10-->
LOAD           1   1.0+0   1.0+0       2
PARAM,QUAD4TYP,MITC4+

$ 1 element
SNORM,1,0,0.,-1.,1.
SNORM,2,0,0.,-1.,1.
SNORM,3,0,0.,1.,1.
SNORM,4,0,0.,1.,1.

$ 4x4 elements
SNORM,13,0,0.,-1.,1.
SNORM,25,0,0.,-1.,1.
SNORM,14,0,0.,-1.,1.
SNORM,16,0,0.,1.,1.
SNORM,27,0,0.,1.,1.
SNORM,15,0,0.,1.,1.

$ 1 element 0.001 thickness
SNORM,62,0,0.,-1.,1.
SNORM,63,0,0.,-1.,1.
SNORM,65,0,0.,1.,1.
SNORM,64,0,0.,1.,1.

ENDDATA 
