$ Generated by Mecway 33
$-----------------------EXECUTIVE CONTROL SECTION-----------------------
SOL 101
CEND
$-------------------------CASE CONTROL SECTION--------------------------
DISPLACEMENT = ALL
SPCFORCES = ALL
MPCFORCES = ALL
STRESS(CORNER) = ALL
STRAIN(CORNER,FIBER) = ALL
FORCE(CORNER) = ALL
SPC = 1
LOAD = 1
BEGIN BULK
$---------------------------BULK DATA SECTION---------------------------
GRID           1       0   0.0+0   0.0+0   0.0+0       0
GRID           2       0   3.0+0   0.0+0   0.0+0       0
GRID           3       0   3.0+0   3.6+0   0.0+0       0
GRID           4       0   0.0+0   2.4+0   0.0+0       0
GRID           5       0   3.0+0   6.0+0   0.0+0       0
GRID           6       0   0.0+0   6.0+0   0.0+0       0
GRID           7       0   1.5+0   0.0+0   0.0+0       0
GRID           8       0   3.0+0   1.8+0   0.0+0       0
GRID           9       0   1.5+0   3.0+0   0.0+0       0
GRID          10       0   0.0+0   1.2+0   0.0+0       0
GRID          11       0   3.0+0   4.8+0   0.0+0       0
GRID          12       0   1.5+0   6.0+0   0.0+0       0
GRID          13       0   0.0+0   4.2+0   0.0+0       0
GRID*                 14               0 4.24264068712+0 4.24264068712+0*
*                  0.0+0               0
GRID*                 15               0 6.36396103068+0 6.36396103068+0*
*                  0.0+0               0
GRID*                 16               0 3.81837661841+0 8.90954544295+0*
*                  0.0+0               0
GRID*                 17               0 2.54558441227+0 5.93969696197+0*
*                  0.0+0               0
GRID*                 18               0 2.12132034356+0 1.06066017178+1*
*                  0.0+0               0
GRID*                 19               0 5.1955647424-16 8.48528137424+0*
*                  0.0+0               0
GRID*                 20               0  5.3033008589+0  5.3033008589+0*
*                  0.0+0               0
GRID*                 21               0 5.09116882454+0 7.63675323681+0*
*                  0.0+0               0
GRID*                 22               0 3.18198051534+0 7.42462120246+0*
*                  0.0+0               0
GRID*                 23               0  3.3941125497+0 5.09116882454+0*
*                  0.0+0               0
GRID*                 24               0 2.96984848098+0 9.75807358037+0*
*                  0.0+0               0
GRID*                 25               0 1.06066017178+0 9.54594154602+0*
*                  0.0+0               0
GRID*                 26               0 1.27279220614+0  7.2124891681+0*
*                  0.0+0               0
PARAM    STR_CID      -2
$--1---><--2---><--3---><--4---><--5---><--6---><--7---><--8---><--9---><--10-->
$$$$$$$$$$$$$$$$$$$$$$$$$$$$$$$$$$$ Material $$$$$$$$$$$$$$$$$$$$$$$$$$$$$$$$$$$
MAT1           1  2.1+11 1.05+11   0.0+0   0.0+0   0.0+0   0.0+0
$--1---><--2---><--3---><--4---><--5---><--6---><--7---><--8---><--9---><--10-->
SPC            1       1       1   0.0+0
SPC            1       1       2   0.0+0
SPC            1       1       3   0.0+0
SPC            1       1       4   0.0+0
SPC            1       1       5   0.0+0
SPC            1       1       6   0.0+0
SPC            1       2       1   0.0+0
SPC            1       2       2   0.0+0
SPC            1       2       3   0.0+0
SPC            1       2       4   0.0+0
SPC            1       2       5   0.0+0
SPC            1       2       6   0.0+0
SPC            1       7       1   0.0+0
SPC            1       7       2   0.0+0
SPC            1       7       3   0.0+0
SPC            1       7       4   0.0+0
SPC            1       7       5   0.0+0
SPC            1       7       6   0.0+0
SPC            1      14       1   0.0+0
SPC            1      14       2   0.0+0
SPC            1      14       3   0.0+0
SPC            1      14       4   0.0+0
SPC            1      14       5   0.0+0
SPC            1      14       6   0.0+0
SPC            1      15       1   0.0+0
SPC            1      15       2   0.0+0
SPC            1      15       3   0.0+0
SPC            1      15       4   0.0+0
SPC            1      15       5   0.0+0
SPC            1      15       6   0.0+0
SPC            1      20       1   0.0+0
SPC            1      20       2   0.0+0
SPC            1      20       3   0.0+0
SPC            1      20       4   0.0+0
SPC            1      20       5   0.0+0
SPC            1      20       6   0.0+0
$--1---><--2---><--3---><--4---><--5---><--6---><--7---><--8---><--9---><--10-->
$$$$$$$$$$$$$$$$$$$$$$$$$$$$$$$$$$$ Default $$$$$$$$$$$$$$$$$$$$$$$$$$$$$$$$$$$$
PSHELL         1       1   2.2-1       1               1           0.0+0
CQUAD8         1       1       1       2       3       4       7       8+
+              9      10                                       2   0.0+0
CORD2R         2       0   0.0+0   0.0+0   0.0+0   0.0+0   1.0+0   0.0+0+
+          1.0+0   0.0+0   0.0+0
CQUAD8         2       1       4       3       5       6       9      11+
+             12      13                                       3   0.0+0
CORD2R         3       0   0.0+0   0.0+0   0.0+0   0.0+0   1.0+0   0.0+0+
+          1.0+0   0.0+0   0.0+0
CQUAD8         3       1      14      15      16      17      20      21+
+             22      23                                       4   0.0+0
CORD2R*                4               0           0.0+0           0.0+0*
*                  0.0+0-7.07106781187-1 7.07106781187-1           0.0+0*
*                  3.3+1           3.3+1           0.0+0                *
*
CQUAD8         4       1      17      16      18      19      22      24+
+             25      26                                       5   0.0+0
CORD2R*                5               0           0.0+0           0.0+0*
*                  0.0+0-7.07106781187-1 7.07106781187-1           0.0+0*
*                  3.3+1           3.3+1           0.0+0                *
*
$--1---><--2---><--3---><--4---><--5---><--6---><--7---><--8---><--9---><--10-->
$$$$$$$$$$$$$$$$$$$$$$$$$$$$$$$$$$$ pressure $$$$$$$$$$$$$$$$$$$$$$$$$$$$$$$$$$$
FORCE          2       5       0   1.0+0   0.0+0-1.353+5   0.0+0
FORCE          2      12       0   1.0+0   0.0+0-5.412+5   0.0+0
FORCE          2       6       0   1.0+0   0.0+0-1.353+5   0.0+0
FORCE*                 2              18               0           1.0+0*
*        9.56715474945+4-9.56715474945+4           0.0+0
FORCE*                 2              25               0           1.0+0*
*        3.82686189978+5-3.82686189978+5           0.0+0
FORCE*                 2              19               0           1.0+0*
*        9.56715474945+4-9.56715474945+4           0.0+0
$--1---><--2---><--3---><--4---><--5---><--6---><--7---><--8---><--9---><--10-->
LOAD           1   1.0+0   1.0+0       2
ENDDATA 
