$ Generated by Mecway 33
$-----------------------EXECUTIVE CONTROL SECTION-----------------------
SOL 101
CEND
$-------------------------CASE CONTROL SECTION--------------------------
DISPLACEMENT = ALL
STRESS(CORNER) = ALL
STRAIN(CORNER) = ALL
FORCE(CORNER) = ALL
SPC = 1
LOAD = 1
BEGIN BULK
$---------------------------BULK DATA SECTION---------------------------
GRID           1       0   0.0+0   0.0+0   0.0+0       0
GRID           2       0   1.0+0   0.0+0   0.0+0       0
GRID           3       0   1.0+0   1.0+0   0.0+0       0
GRID*                  4               0 1.39093548059-1 9.12268340588-1*
*                  0.0+0               0
GRID*                  5               0 4.88753050566-1 8.27732309699-2*
*                  0.0+0               0
GRID*                  6               0 1.08543205261+0 5.05943119526-1*
*                  0.0+0               0
GRID*                  7               0 5.79759113491-1 1.06033468246+0*
*                  0.0+0               0
GRID*                  8               0 1.81309685111-1  5.2292984724-1*
*                  0.0+0               0
GRID           9       0   2.0+0   0.0+0   0.0+0       0
GRID          10       0   3.0+0   0.0+0   0.0+0       0
GRID          11       0   3.0+0   1.0+0   0.0+0       0
GRID*                 12               0 2.13909354806+0 9.12268340588-1*
*                  0.0+0               0
GRID*                 13               0 2.48875305057+0 8.27732309699-2*
*                  0.0+0               0
GRID*                 14               0 3.08543205261+0 5.05943119526-1*
*                  0.0+0               0
GRID*                 15               0 2.57975911349+0 1.06033468246+0*
*                  0.0+0               0
GRID*                 16               0 2.18130968511+0  5.2292984724-1*
*                  0.0+0               0
GRID          17       0   4.0+0   0.0+0   0.0+0       0
GRID          18       0   5.0+0   0.0+0   0.0+0       0
GRID          19       0   5.0+0   1.0+0   0.0+0       0
GRID*                 20               0 4.13909354806+0 9.12268340588-1*
*                  0.0+0               0
GRID*                 21               0 4.48875305057+0 8.27732309699-2*
*                  0.0+0               0
GRID*                 22               0 5.08543205261+0 5.05943119526-1*
*                  0.0+0               0
GRID*                 23               0 4.57975911349+0 1.06033468246+0*
*                  0.0+0               0
GRID*                 24               0 4.18130968511+0  5.2292984724-1*
*                  0.0+0               0
GRID          25       0   6.0+0   0.0+0   0.0+0       0
GRID          26       0   7.0+0   0.0+0   0.0+0       0
GRID          27       0   7.0+0   1.0+0   0.0+0       0
GRID*                 28               0 6.13909354806+0 9.12268340588-1*
*                  0.0+0               0
GRID*                 29               0 6.48875305057+0 8.27732309699-2*
*                  0.0+0               0
GRID*                 30               0 7.08543205261+0 5.05943119526-1*
*                  0.0+0               0
GRID*                 31               0 6.57975911349+0 1.06033468246+0*
*                  0.0+0               0
GRID*                 32               0 6.18130968511+0  5.2292984724-1*
*                  0.0+0               0
PARAM    STR_CID      -2
$--1---><--2---><--3---><--4---><--5---><--6---><--7---><--8---><--9---><--10-->
$$$$$$$$$$$$$$$$$$$$$$$$$$$$$$$$$$$ Material $$$$$$$$$$$$$$$$$$$$$$$$$$$$$$$$$$$
MAT1           1  2.0+11  1.0+11   0.0+0   0.0+0   0.0+0   0.0+0
$--1---><--2---><--3---><--4---><--5---><--6---><--7---><--8---><--9---><--10-->
SPC            1       2       1   0.0+0
SPC            1       2       2   0.0+0
SPC            1       2       3   0.0+0
SPC            1       2       4   0.0+0
SPC            1       2       5   0.0+0
SPC            1       2       6   0.0+0
SPC            1       3       1   0.0+0
SPC            1       3       2   0.0+0
SPC            1       3       3   0.0+0
SPC            1       3       4   0.0+0
SPC            1       3       5   0.0+0
SPC            1       3       6   0.0+0
SPC            1       6       1   0.0+0
SPC            1       6       2   0.0+0
SPC            1       6       3   0.0+0
SPC            1       6       4   0.0+0
SPC            1       6       5   0.0+0
SPC            1       6       6   0.0+0
SPC            1      10       1   0.0+0
SPC            1      10       2   0.0+0
SPC            1      10       3   0.0+0
SPC            1      10       4   0.0+0
SPC            1      10       5   0.0+0
SPC            1      10       6   0.0+0
SPC            1      11       1   0.0+0
SPC            1      11       2   0.0+0
SPC            1      11       3   0.0+0
SPC            1      11       4   0.0+0
SPC            1      11       5   0.0+0
SPC            1      11       6   0.0+0
SPC            1      14       1   0.0+0
SPC            1      14       2   0.0+0
SPC            1      14       3   0.0+0
SPC            1      14       4   0.0+0
SPC            1      14       5   0.0+0
SPC            1      14       6   0.0+0
SPC            1      18       1   0.0+0
SPC            1      18       2   0.0+0
SPC            1      18       3   0.0+0
SPC            1      18       4   0.0+0
SPC            1      18       5   0.0+0
SPC            1      18       6   0.0+0
SPC            1      19       1   0.0+0
SPC            1      19       2   0.0+0
SPC            1      19       3   0.0+0
SPC            1      19       4   0.0+0
SPC            1      19       5   0.0+0
SPC            1      19       6   0.0+0
SPC            1      22       1   0.0+0
SPC            1      22       2   0.0+0
SPC            1      22       3   0.0+0
SPC            1      22       4   0.0+0
SPC            1      22       5   0.0+0
SPC            1      22       6   0.0+0
SPC            1      26       1   0.0+0
SPC            1      26       2   0.0+0
SPC            1      26       3   0.0+0
SPC            1      26       4   0.0+0
SPC            1      26       5   0.0+0
SPC            1      26       6   0.0+0
SPC            1      27       1   0.0+0
SPC            1      27       2   0.0+0
SPC            1      27       3   0.0+0
SPC            1      27       4   0.0+0
SPC            1      27       5   0.0+0
SPC            1      27       6   0.0+0
SPC            1      30       1   0.0+0
SPC            1      30       2   0.0+0
SPC            1      30       3   0.0+0
SPC            1      30       4   0.0+0
SPC            1      30       5   0.0+0
SPC            1      30       6   0.0+0
$--1---><--2---><--3---><--4---><--5---><--6---><--7---><--8---><--9---><--10-->
$$$$$$$$$$$$$$$$$$$$$$$$$$$$$$$$$$$ Default $$$$$$$$$$$$$$$$$$$$$$$$$$$$$$$$$$$$
PSHELL         1       1   1.0-1       1               1           0.0+0
CQUAD8         1       1       1       2       3       4       5       6+
+              7       8                                       2   0.0+0
CORD2R         2       0   0.0+0   0.0+0   0.0+0   0.0+0   1.0+0   0.0+0+
+          1.1+1   0.0+0   0.0+0
CQUAD8         2       1      10      11      12       9      14      15+
+             16      13                                       3   0.0+0
CORD2R         3       0   0.0+0   0.0+0   0.0+0   0.0+0   1.0+0   0.0+0+
+          1.1+1   0.0+0   0.0+0
CQUAD8         3       1      19      20      17      18      23      24+
+             21      22                                       4   0.0+0
CORD2R         4       0   0.0+0   0.0+0   0.0+0   0.0+0   1.0+0   0.0+0+
+          1.1+1   0.0+0   0.0+0
CQUAD8         4       1      28      25      26      27      32      29+
+             30      31                                       5   0.0+0
CORD2R         5       0   0.0+0   0.0+0   0.0+0   0.0+0   1.0+0   0.0+0+
+          1.1+1   0.0+0   0.0+0
$--1---><--2---><--3---><--4---><--5---><--6---><--7---><--8---><--9---><--10-->
$$$$$$$$$$$$$$$$$$$$$$$$$$$$$$$$$$$$ force $$$$$$$$$$$$$$$$$$$$$$$$$$$$$$$$$$$$$
FORCE*                 2               1               0           1.0+0*
*        1.12819306681+2 5.64096533406+1 5.64096533406+0
FORCE*                 2               4               0           1.0+0*
*        5.80993833615+1 2.90496916807+1 2.90496916807+0
FORCE*                 2               8               0           1.0+0*
*        3.29081309957+2 1.64540654979+2 1.64540654979+1
FORCE*                 2              12               0           1.0+0*
*        5.80993833615+1 2.90496916807+1 2.90496916807+0
FORCE*                 2              16               0           1.0+0*
*        3.29081309957+2 1.64540654979+2 1.64540654979+1
FORCE*                 2               9               0           1.0+0*
*        1.12819306681+2 5.64096533406+1 5.64096533406+0
FORCE*                 2              20               0           1.0+0*
*        5.80993833615+1 2.90496916807+1 2.90496916807+0
FORCE*                 2              24               0           1.0+0*
*        3.29081309957+2 1.64540654979+2 1.64540654979+1
FORCE*                 2              17               0           1.0+0*
*        1.12819306681+2 5.64096533406+1 5.64096533406+0
FORCE*                 2              28               0           1.0+0*
*        5.80993833615+1 2.90496916807+1 2.90496916807+0
FORCE*                 2              32               0           1.0+0*
*        3.29081309957+2 1.64540654979+2 1.64540654979+1
FORCE*                 2              25               0           1.0+0*
*        1.12819306681+2 5.64096533406+1 5.64096533406+0
$--1---><--2---><--3---><--4---><--5---><--6---><--7---><--8---><--9---><--10-->
LOAD           1   1.0+0   1.0+0       2
ENDDATA 
