$ Generated by Mecway 33
$-----------------------EXECUTIVE CONTROL SECTION-----------------------
SOL 101
CEND
$-------------------------CASE CONTROL SECTION--------------------------
DISPLACEMENT = ALL
SPCFORCES = ALL
MPCFORCES = ALL
STRESS(CORNER) = ALL
STRAIN(CORNER) = ALL
FORCE(CORNER) = ALL
SPC = 1
LOAD = 1
BEGIN BULK
$---------------------------BULK DATA SECTION---------------------------
GRID*                  1               0 3.82683432365-1-9.23879532511-1*
*        3.33333333333-1               0
GRID*                  2               0 3.82683432365-1-9.23879532511-1*
*                  5.0-1               0
GRID*                  3               0 3.82683432365-1-9.23879532511-1*
*        6.66666666667-1               0
GRID*                  4               0 3.82683432365-1-9.23879532511-1*
*        8.33333333333-1               0
GRID*                  5               0 3.82683432365-1-9.23879532511-1*
*                  1.0+0               0
GRID*                  6               0 9.23879532511-1-3.82683432365-1*
*        1.66666666667-1               0
GRID*                  7               0 9.32118768589-1 -3.6215273193-1*
*        3.79715561867-1               0
GRID*                  8               0 9.32105547304-1-3.62186759402-1*
*        5.43930590153-1               0
GRID*                  9               0 9.08562791672-1-4.17748313687-1*
*        6.91538512707-1               0
GRID*                 10               0 9.23879532511-1-3.82683432365-1*
*        8.33333333333-1               0
GRID*                 11               0 9.23879532511-1-3.82683432365-1*
*                  1.0+0               0
GRID*                 12               0 7.07106781187-1-7.07106781187-1*
*        1.66666666667-1               0
GRID*                 13               0 7.30589739354-1-6.82816690445-1*
*        2.91344225407-1               0
GRID*                 14               0 6.98406011208-1-7.15701783921-1*
*        4.58432376385-1               0
GRID*                 15               0 6.82798856653-1-7.30606406592-1*
*        6.13040328026-1               0
GRID*                 16               0 7.07106781187-1-7.07106781187-1*
*        8.33333333333-1               0
GRID*                 17               0 7.07106781187-1-7.07106781187-1*
*                  1.0+0               0
GRID*                 18               0  8.1029507833-1-5.86022086644-1*
*        6.32675945759-1               0
GRID*                 19               0 8.31469612303-1 -5.5557023302-1*
*                  1.0+0               0
GRID*                 20               0           1.0+0           0.0+0*
*        6.66666666667-1               0
GRID          21       0   1.0+0   0.0+0   0.0+0       0
GRID*                 22               0           1.0+0           0.0+0*
*        8.33333333333-1               0
GRID          23       0   1.0+0   0.0+0   1.0+0       0
GRID*                 24               0 3.82683432365-1-9.23879532511-1*
*        1.66666666667-1               0
GRID*                 25               0           0.0+0          -1.0+0*
*        1.66666666667-1               0
GRID*                 26               0  9.2702241317-1 -3.7500592726-1*
*          2.673933357-1               0
GRID*                 27               0 9.22817873865-1-3.85236513942-1*
*        7.75355547667-2               0
GRID*                 28               0    8.32622965-1-5.53840228003-1*
*        1.54391611616-1               0
GRID*                 29               0 8.82451476248-1-4.70403435433-1*
*        1.57460375379-1               0
GRID*                 30               0 8.30137932503-1-5.57558080401-1*
*          7.692123577-2               0
GRID*                 31               0 7.74263520358-1-6.32863335202-1*
*        1.57460375379-1               0
GRID*                 32               0           0.0+0          -1.0+0*
*        3.33333333333-1               0
GRID          33       0   0.0+0  -1.0+0   5.0-1       0
GRID*                 34               0           0.0+0          -1.0+0*
*        6.66666666667-1               0
GRID*                 35               0           0.0+0          -1.0+0*
*        8.33333333333-1               0
GRID          36       0   0.0+0  -1.0+0   1.0+0       0
GRID*                 37               0           1.0+0           0.0+0*
*        1.66666666667-1               0
GRID*                 38               0 8.38848582672-1-5.44364818251-1*
*        2.32411127537-1               0
GRID*                 39               0 6.34029234705-1-7.73309077627-1*
*                  0.0+0               1
GRID*                 40               0 4.71811945368-1-8.81699205063-1*
*                  0.0+0               2
GRID*                 41               0 3.82683432365-1-9.23879532511-1*
*        8.33333333333-2               0
GRID*                 42               0 3.82683432365-1-9.23879532511-1*
*                  2.5-1               0
GRID*                 43               0 5.48700024567-1-8.36019307815-1*
*        1.77163943648-1               0
GRID*                 44               0 6.29154100816-1-7.77280591181-1*
*        1.74539624403-1               0
GRID*                 45               0 5.50418734018-1-8.34888745428-1*
*        9.12062910696-2               0
GRID*                 46               0 4.66496080967-1-8.84523265066-1*
*        1.74539624403-1               0
GRID*                 47               0 5.50418734018-1-8.34888745428-1*
*        2.57872957736-1               0
GRID*                 48               0 9.94737824086-1-1.02453215331-1*
*        1.57969998817-1               0
GRID*                 49               0 7.07106781187-1-7.07106781187-1*
*                  0.0+0               3
GRID*                 50               0 9.79981146663-1-1.99090311628-1*
*        7.46366654833-2               0
GRID*                 51               0 9.55870668363-1-2.93787789676-1*
*        1.57969998817-1               0
GRID*                 52               0 9.79981146663-1-1.99090311628-1*
*         2.4130333215-1               0
GRID*                 53               0 2.89834060852-1-9.57076912881-1*
*                  0.0+0               4
GRID*                 54               0 9.84857214128-2-9.95138464073-1*
*                  0.0+0               5
GRID*                 55               0           0.0+0          -1.0+0*
*        5.83333333333-1               0
GRID*                 56               0           0.0+0          -1.0+0*
*        4.16666666667-1               0
GRID*                 57               0 9.84857214128-2-9.95138464073-1*
*        3.33333333333-1               0
GRID*                 58               0           1.0+0           0.0+0*
*        3.33333333333-1               0
GRID*                 59               0  5.5557023302-1-8.31469612303-1*
*                  0.0+0               6
GRID*                 60               0 2.89834060852-1-9.57076912881-1*
*        3.33333333333-1               0
GRID*                 61               0 1.95090322016-1-9.80785280403-1*
*        1.66666666667-1               0
GRID*                 62               0 2.89834060852-1-9.57076912881-1*
*        1.66666666667-1               0
GRID*                 63               0 1.95090322016-1-9.80785280403-1*
*        8.33333333333-2               0
GRID*                 64               0 9.84857214128-2-9.95138464073-1*
*        1.66666666667-1               0
GRID*                 65               0 1.95090322016-1-9.80785280403-1*
*                  2.5-1               0
GRID*                 66               0           0.0+0          -1.0+0*
*        9.16666666667-1               0
GRID          67       0   0.0+0  -1.0+0   7.5-1       0
GRID*                 68               0 9.84857214128-2-9.95138464073-1*
*        6.66666666667-1               0
GRID*                 69               0 2.89834060852-1-9.57076912881-1*
*        6.66666666667-1               0
GRID*                 70               0 1.95090322016-1-9.80785280403-1*
*                  5.0-1               0
GRID*                 71               0 2.89834060852-1-9.57076912881-1*
*                  5.0-1               0
GRID          72       0   1.0+0   0.0+0   5.0-1       0
GRID*                 73               0 1.95090322016-1-9.80785280403-1*
*        3.33333333333-1               0
GRID*                 74               0 1.95090322016-1-9.80785280403-1*
*        6.66666666667-1               0
GRID*                 75               0 1.95090322016-1-9.80785280403-1*
*                  1.0+0               0
GRID*                 76               0 9.80785280403-1-1.95090322016-1*
*        3.33333333333-1               0
GRID*                 77               0 9.80785280403-1-1.95090322016-1*
*        6.66666666667-1               0
GRID*                 78               0 9.80785280403-1-1.95090322016-1*
*                  1.0+0               0
GRID*                 79               0 3.82683432365-1-9.23879532511-1*
*                  0.0+0               7
GRID*                 80               0 1.95090322016-1-9.80785280403-1*
*        4.16666666667-1               0
GRID*                 81               0 3.82683432365-1-9.23879532511-1*
*                  7.5-1               0
GRID*                 82               0 3.82683432365-1-9.23879532511-1*
*        9.16666666667-1               0
GRID*                 83               0 4.71811945368-1-8.81699205063-1*
*                  1.0+0               0
GRID*                 84               0 6.34029234705-1-7.73309077627-1*
*                  1.0+0               0
GRID*                 85               0 5.62476293229-1-8.26813412781-1*
*        8.46739917994-1               0
GRID*                 86               0 6.38905077962-1-7.69285578543-1*
*        8.43388271828-1               0
GRID          87       0   0.0+0  -1.0+0   0.0+0       0
GRID*                 88               0 1.95090322016-1-9.80785280403-1*
*                  0.0+0               8
GRID*                 89               0 9.80785280403-1-1.95090322016-1*
*                  0.0+0               9
GRID*                 90               0  5.5557023302-1-8.31469612303-1*
*        3.33333333333-1               0
GRID*                 91               0  5.5557023302-1-8.31469612303-1*
*        6.66666666667-1               0
GRID*                 92               0  5.5557023302-1-8.31469612303-1*
*                  1.0+0               0
GRID*                 93               0 9.23879532511-1-3.82683432365-1*
*                  0.0+0              10
GRID*                 94               0 8.31469612303-1 -5.5557023302-1*
*                  0.0+0              11
GRID*                 95               0 8.48611124131-1-5.29017164184-1*
*        3.10979783535-1               0
GRID*                 96               0 9.94873231695-1-1.01129881128-1*
*        3.27535554767-1               0
GRID*                 97               0 9.59437746044-1 -2.8192057652-1*
*        3.50726669033-1               0
GRID*                 98               0 9.34813941533-1-3.55137853115-1*
*        4.63898964226-1               0
GRID*                 99               0 9.23669498595-1-3.83190106038-1*
*        6.19810439646-1               0
GRID*                100               0 9.52842688673-1-3.03464677752-1*
*        6.75993608932-1               0
GRID*                101               0 9.95575688322-1-9.39630183787-2*
*        6.63557685912-1               0
GRID*                102               0           1.0+0           0.0+0*
*        5.83333333333-1               0
GRID*                103               0           1.0+0           0.0+0*
*        4.16666666667-1               0
GRID*                104               0 9.83550041202-1 -1.8063586701-1*
*        5.04151776433-1               0
GRID*                105               0 9.95905662385-1-9.03986262568-2*
*        4.97622508556-1               0
GRID*                106               0 9.82880415227-1-1.84244645411-1*
*        4.19780498991-1               0
GRID*                107               0    9.62533966-1 -2.7116114083-1*
*        5.19587803632-1               0
GRID*                108               0 9.82880415227-1-1.84244645411-1*
*        5.86447165658-1               0
GRID*                109               0 9.18293328891-1 -3.9590069729-1*
*        7.59326942265-1               0
GRID*                110               0 9.25698831235-1-3.78261382975-1*
*        9.13557685912-1               0
GRID*                111               0 9.57076912881-1-2.89834060852-1*
*                  1.0+0               0
GRID*                112               0 9.95138464073-1-9.84857214128-2*
*                  1.0+0               0
GRID*                113               0           1.0+0           0.0+0*
*        9.16666666667-1               0
GRID         114       0   1.0+0   0.0+0   7.5-1       0
GRID*                115               0 9.82561916888-1-1.85935686412-1*
*        8.27115371823-1               0
GRID*                116               0 9.95786128116-1-9.17059815441-2*
*        8.28669862201-1               0
GRID*                117               0 9.82126451367-1 -1.8822229816-1*
*        7.45336528867-1               0
GRID*                118               0 9.59115959351-1-2.83013385759-1*
*        8.28669862201-1               0
GRID*                119               0 9.82126451367-1 -1.8822229816-1*
*        9.12003195534-1               0
GRID*                120               0 5.60751517144-1-8.27984139957-1*
*        7.60054938495-1               0
GRID*                121               0 7.50168263704-1-6.61246985726-1*
*         6.1795476824-1               0
GRID*                122               0 8.63176905696-1-5.04901603754-1*
*        6.57203860581-1               0
GRID*                123               0 8.34818712241-1-5.50524947384-1*
*        4.79099690914-1               0
GRID*                124               0 8.88474892619-1-4.58925228316-1*
*        5.05994692445-1               0
GRID*                125               0 8.42993278588-1-5.37924095255-1*
*        3.96857693791-1               0
GRID*                126               0  7.7138862013-1-6.36364358472-1*
*        4.63245585561-1               0
GRID*                127               0 8.23961784059-1-5.66645372708-1*
*        5.57705774903-1               0
GRID*                128               0 4.77188679588-1-8.78800867133-1*
*        8.43388271828-1               0
GRID*                129               0 5.60751517144-1-8.27984139957-1*
*        9.26721605162-1               0
GRID*                130               0 9.84857214128-2-9.95138464073-1*
*                  5.0-1               0
GRID*                131               0 1.95090322016-1-9.80785280403-1*
*        5.83333333333-1               0
GRID*                132               0 9.84857214128-2-9.95138464073-1*
*                  1.0+0               0
GRID*                133               0 2.89834060852-1-9.57076912881-1*
*                  1.0+0               0
GRID*                134               0 1.95090322016-1-9.80785280403-1*
*        8.33333333333-1               0
GRID*                135               0 2.89834060852-1-9.57076912881-1*
*        8.33333333333-1               0
GRID*                136               0 1.95090322016-1-9.80785280403-1*
*                  7.5-1               0
GRID*                137               0 9.84857214128-2-9.95138464073-1*
*        8.33333333333-1               0
GRID*                138               0 1.95090322016-1-9.80785280403-1*
*        9.16666666667-1               0
GRID*                139               0 6.98084829743-1-7.16015063028-1*
*         7.2989012301-1               0
GRID*                140               0 7.10088200883-1-7.04112737398-1*
*        9.23369958997-1               0
GRID*                141               0 7.73309077627-1-6.34029234705-1*
*                  1.0+0               0
GRID*                142               0 8.81699205063-1-4.71811945368-1*
*                  1.0+0               0
GRID*                143               0 8.30988815737-1-5.56289122777-1*
*         8.2352659603-1               0
GRID*                144               0 8.81402779872-1-4.72365472525-1*
*        8.25978280356-1               0
GRID*                145               0  8.2329252495-1-5.67617316827-1*
*        7.29898426682-1               0
GRID*                146               0 7.72888449779-1-6.34541916818-1*
*        8.25978280356-1               0
GRID*                147               0 8.33678245448-1-5.52250471314-1*
*        9.13560453802-1               0
GRID*                148               0 9.95138464073-1-9.84857214128-2*
*                  0.0+0              12
GRID*                149               0 9.57076912881-1-2.89834060852-1*
*                  0.0+0              13
GRID         150       0   1.0+0   0.0+0   2.5-1       0
GRID*                151               0           1.0+0           0.0+0*
*        8.33333333333-2               0
GRID         152       0   0.0+0  -1.0+0   2.5-1       0
GRID*                153               0           0.0+0          -1.0+0*
*        8.33333333333-2               0
GRID*                154               0 9.79709202937-1-2.00424244242-1*
*        1.55071109533-1               0
GRID*                155               0 6.43724835539-1-7.65257039242-1*
*        3.17587417861-1               0
GRID*                156               0 4.68267611671-1-8.83586692895-1*
*        3.38581971824-1               0
GRID*                157               0 3.82683432365-1-9.23879532511-1*
*        4.16666666667-1               0
GRID*                158               0 3.82683432365-1-9.23879532511-1*
*        5.83333333333-1               0
GRID*                159               0 4.75396354104-1-8.79771735455-1*
*        6.73369958997-1               0
GRID*                160               0 6.24217447135-1-7.81250650363-1*
*        6.46556789676-1               0
GRID*                161               0 6.88433430918-1-7.25299532052-1*
*        5.37296377122-1               0
GRID*                162               0 7.12546123416-1-7.01625271783-1*
*        3.76448325813-1               0
GRID*                163               0 5.50626125829-1-8.34751980863-1*
*        5.03120049834-1               0
GRID*                164               0 6.26967391053-1 -7.7904549967-1*
*         4.8675217852-1               0
GRID*                165               0 5.51862628059-1-8.33935033292-1*
*        4.19006704042-1               0
GRID*                166               0 4.69286380658-1-8.83046031036-1*
*        5.07535990328-1               0
GRID*                167               0 5.51862628059-1-8.33935033292-1*
*        5.85673370709-1               0
GRID*                168               0 8.81699205063-1-4.71811945368-1*
*                  0.0+0              14
GRID*                169               0 7.73309077627-1-6.34029234705-1*
*                  0.0+0              15
GRID*                170               0 7.04114902299-1-7.10086054194-1*
*        8.85819718242-2               0
GRID*                171               0 7.16008673512-1-6.98091383312-1*
*        2.34254084527-1               0
GRID*                172               0 7.94145969196-1-6.07727060126-1*
*        2.95024476945-1               0
GRID*                173               0 8.94475782927-1-4.47116398444-1*
*        3.39210145175-1               0
PARAM    STR_CID      -2
$--1---><--2---><--3---><--4---><--5---><--6---><--7---><--8---><--9---><--10-->
$$$$$$$$$$$$$$$$$$$$$$$$$$$$$$$$$$$ Material $$$$$$$$$$$$$$$$$$$$$$$$$$$$$$$$$$$
MAT1*                  1          2.0+11 7.6923076923+10           3.0-1*
*                  0.0+0           0.0+0           0.0+0
$--1---><--2---><--3---><--4---><--5---><--6---><--7---><--8---><--9---><--10-->
CORD2R*                1               0           0.0+0           0.0+0*
*                  0.0+0           0.0+0           0.0+0           1.0+0*
*        7.73010453363-1 6.34393284164-1           0.0+0                *
*
CORD2R*                2               0           0.0+0           0.0+0*
*                  0.0+0           0.0+0           0.0+0           1.0+0*
*        8.81921264348-1 4.71396736826-1           0.0+0                *
*
CORD2R*                3               0           0.0+0           0.0+0*
*                  0.0+0           0.0+0           0.0+0           1.0+0*
*        7.07106781203-1  7.0710678117-1           0.0+0                *
*
CORD2R*                4               0           0.0+0           0.0+0*
*                  0.0+0           0.0+0           0.0+0           1.0+0*
*        9.56940335732-1 2.90284677255-1           0.0+0                *
*
CORD2R*                5               0           0.0+0           0.0+0*
*                  0.0+0           0.0+0           0.0+0           1.0+0*
*        9.95184726672-1 9.80171403296-2           0.0+0                *
*
CORD2R*                6               0           0.0+0           0.0+0*
*                  0.0+0           0.0+0           0.0+0           1.0+0*
*        8.31469612308-1 5.55570233011-1           0.0+0                *
*
CORD2R*                7               0           0.0+0           0.0+0*
*                  0.0+0           0.0+0           0.0+0           1.0+0*
*        9.23879532511-1 3.82683432365-1           0.0+0                *
*
CORD2R*                8               0           0.0+0           0.0+0*
*                  0.0+0           0.0+0           0.0+0           1.0+0*
*        9.80785280403-1 1.95090322016-1           0.0+0                *
*
CORD2R*                9               0           0.0+0           0.0+0*
*                  0.0+0           0.0+0           0.0+0           1.0+0*
*        9.80785280402-1-1.95090322021-1           0.0+0                *
*
CORD2R*               10               0           0.0+0           0.0+0*
*                  0.0+0           0.0+0           0.0+0           1.0+0*
*        9.23879532507-1-3.82683432375-1           0.0+0                *
*
CORD2R*               11               0           0.0+0           0.0+0*
*                  0.0+0           0.0+0           0.0+0           1.0+0*
*        8.31469612301-1-5.55570233022-1           0.0+0                *
*
CORD2R*               12               0           0.0+0           0.0+0*
*                  0.0+0           0.0+0           0.0+0           1.0+0*
*        9.95184726672-1-9.80171403296-2           0.0+0                *
*
CORD2R*               13               0           0.0+0           0.0+0*
*                  0.0+0           0.0+0           0.0+0           1.0+0*
*        9.56940335732-1-2.90284677255-1           0.0+0                *
*
CORD2R*               14               0           0.0+0           0.0+0*
*                  0.0+0           0.0+0           0.0+0           1.0+0*
*        8.81921264348-1-4.71396736826-1           0.0+0                *
*
CORD2R*               15               0           0.0+0           0.0+0*
*                  0.0+0           0.0+0           0.0+0           1.0+0*
*        7.73010453363-1-6.34393284164-1           0.0+0                *
*
SPC            1      20       2   0.0+0
SPC            1      20       6   0.0+0
SPC            1      21       3   0.0+0
SPC            1      21       2   0.0+0
SPC            1      21       6   0.0+0
SPC            1      21       5   0.0+0
SPC            1      21       4   0.0+0
SPC            1      22       2   0.0+0
SPC            1      22       6   0.0+0
SPC            1      23       2   0.0+0
SPC            1      23       6   0.0+0
SPC            1      25       1   0.0+0
SPC            1      25       6   0.0+0
SPC            1      32       1   0.0+0
SPC            1      32       6   0.0+0
SPC            1      33       1   0.0+0
SPC            1      33       6   0.0+0
SPC            1      34       1   0.0+0
SPC            1      34       6   0.0+0
SPC            1      35       1   0.0+0
SPC            1      35       6   0.0+0
SPC            1      36       1   0.0+0
SPC            1      36       6   0.0+0
SPC            1      37       2   0.0+0
SPC            1      37       6   0.0+0
SPC            1      39       3   0.0+0
SPC            1      39       4   0.0+0
SPC            1      40       3   0.0+0
SPC            1      40       4   0.0+0
SPC            1      49       3   0.0+0
SPC            1      49       4   0.0+0
SPC            1      53       3   0.0+0
SPC            1      53       4   0.0+0
SPC            1      54       3   0.0+0
SPC            1      54       4   0.0+0
SPC            1      55       1   0.0+0
SPC            1      55       6   0.0+0
SPC            1      56       1   0.0+0
SPC            1      56       6   0.0+0
SPC            1      58       2   0.0+0
SPC            1      58       6   0.0+0
SPC            1      59       3   0.0+0
SPC            1      59       4   0.0+0
SPC            1      66       1   0.0+0
SPC            1      66       6   0.0+0
SPC            1      67       1   0.0+0
SPC            1      67       6   0.0+0
SPC            1      72       2   0.0+0
SPC            1      72       6   0.0+0
SPC            1      79       3   0.0+0
SPC            1      79       4   0.0+0
SPC            1      87       3   0.0+0
SPC            1      87       1   0.0+0
SPC            1      87       6   0.0+0
SPC            1      87       4   0.0+0
SPC            1      87       5   0.0+0
SPC            1      88       3   0.0+0
SPC            1      88       4   0.0+0
SPC            1      89       3   0.0+0
SPC            1      89       5   0.0+0
SPC            1      93       3   0.0+0
SPC            1      93       5   0.0+0
SPC            1      94       3   0.0+0
SPC            1      94       5   0.0+0
SPC            1     102       2   0.0+0
SPC            1     102       6   0.0+0
SPC            1     103       2   0.0+0
SPC            1     103       6   0.0+0
SPC            1     113       2   0.0+0
SPC            1     113       6   0.0+0
SPC            1     114       2   0.0+0
SPC            1     114       6   0.0+0
SPC            1     148       3   0.0+0
SPC            1     148       5   0.0+0
SPC            1     149       3   0.0+0
SPC            1     149       5   0.0+0
SPC            1     150       2   0.0+0
SPC            1     150       6   0.0+0
SPC            1     151       2   0.0+0
SPC            1     151       6   0.0+0
SPC            1     152       1   0.0+0
SPC            1     152       6   0.0+0
SPC            1     153       1   0.0+0
SPC            1     153       6   0.0+0
SPC            1     168       3   0.0+0
SPC            1     168       5   0.0+0
SPC            1     169       3   0.0+0
SPC            1     169       5   0.0+0
$--1---><--2---><--3---><--4---><--5---><--6---><--7---><--8---><--9---><--10-->
$$$$$$$$$$$$$$$$$$$$$$$$$$$$$$$$$$$ Default $$$$$$$$$$$$$$$$$$$$$$$$$$$$$$$$$$$$
PSHELL        16       1   1.0-2       1               1           0.0+0
CQUAD8         1      16       9      18     143      10     122     145+
+            144     109                                      17   0.0+0
CORD2R        17       0   0.0+0   0.0+0   0.0+0   1.0+0   0.0+0   0.0+0+
+          0.0+0   0.0+0   1.0+0
CQUAD8         2      16      18      15      16     143     121     139+
+            146     145                                      18   0.0+0
CORD2R        18       0   0.0+0   0.0+0   0.0+0   1.0+0   0.0+0   0.0+0+
+          0.0+0   0.0+0   1.0+0
CQUAD8         3      16     143      16      17      19     146     140+
+            141     147                                      19   0.0+0
CORD2R        19       0   0.0+0   0.0+0   0.0+0   1.0+0   0.0+0   0.0+0+
+          0.0+0   0.0+0   1.0+0
CQUAD8         4      16      10     143      19      11     144     147+
+            142     110                                      20   0.0+0
CORD2R        20       0   0.0+0   0.0+0   0.0+0   1.0+0   0.0+0   0.0+0+
+          0.0+0   0.0+0   1.0+0
CQUAD8         5      16      15      91      85      16     160     120+
+             86     139                                      21   0.0+0
CORD2R        21       0   0.0+0   0.0+0   0.0+0   1.0+0   0.0+0   0.0+0+
+          0.0+0   0.0+0   1.0+0
CQUAD8         6      16      91       3       4      85     159      81+
+            128     120                                      22   0.0+0
CORD2R        22       0   0.0+0   0.0+0   0.0+0   1.0+0   0.0+0   0.0+0+
+          0.0+0   0.0+0   1.0+0
CQUAD8         7      16      85       4       5      92     128      82+
+             83     129                                      23   0.0+0
CORD2R        23       0   0.0+0   0.0+0   0.0+0   1.0+0   0.0+0   0.0+0+
+          0.0+0   0.0+0   1.0+0
CQUAD8         8      16      16      85      92      17      86     129+
+             84     140                                      24   0.0+0
CORD2R        24       0   0.0+0   0.0+0   0.0+0   1.0+0   0.0+0   0.0+0+
+          0.0+0   0.0+0   1.0+0
CQUAD8         9      16      79      88      61      24      53      63+
+             62      41                                      25   0.0+0
CORD2R        25       0   0.0+0   0.0+0   0.0+0   1.0+0   0.0+0   0.0+0+
+          0.0+0   0.0+0   1.0+0
CQUAD8        10      16      88      87      25      61      54     153+
+             64      63                                      26   0.0+0
CORD2R        26       0   0.0+0   0.0+0   0.0+0   1.0+0   0.0+0   0.0+0+
+          0.0+0   0.0+0   1.0+0
CQUAD8        11      16      61      25      32      73      64     152+
+             57      65                                      27   0.0+0
CORD2R        27       0   0.0+0   0.0+0   0.0+0   1.0+0   0.0+0   0.0+0+
+          0.0+0   0.0+0   1.0+0
CQUAD8        12      16      24      61      73       1      62      65+
+             60      42                                      28   0.0+0
CORD2R        28       0   0.0+0   0.0+0   0.0+0   1.0+0   0.0+0   0.0+0+
+          0.0+0   0.0+0   1.0+0
CQUAD8        13      16       1      73      70       2      60      80+
+             71     157                                      29   0.0+0
CORD2R        29       0   0.0+0   0.0+0   0.0+0   1.0+0   0.0+0   0.0+0+
+          0.0+0   0.0+0   1.0+0
CQUAD8        14      16      73      32      33      70      57      56+
+            130      80                                      30   0.0+0
CORD2R        30       0   0.0+0   0.0+0   0.0+0   1.0+0   0.0+0   0.0+0+
+          0.0+0   0.0+0   1.0+0
CQUAD8        15      16      70      33      34      74     130      55+
+             68     131                                      31   0.0+0
CORD2R        31       0   0.0+0   0.0+0   0.0+0   1.0+0   0.0+0   0.0+0+
+          0.0+0   0.0+0   1.0+0
CQUAD8        16      16       2      70      74       3      71     131+
+             69     158                                      32   0.0+0
CORD2R        32       0   0.0+0   0.0+0   0.0+0   1.0+0   0.0+0   0.0+0+
+          0.0+0   0.0+0   1.0+0
CQUAD8        17      16       3      74     134       4      69     136+
+            135      81                                      33   0.0+0
CORD2R        33       0   0.0+0   0.0+0   0.0+0   1.0+0   0.0+0   0.0+0+
+          0.0+0   0.0+0   1.0+0
CQUAD8        18      16      74      34      35     134      68      67+
+            137     136                                      34   0.0+0
CORD2R        34       0   0.0+0   0.0+0   0.0+0   1.0+0   0.0+0   0.0+0+
+          0.0+0   0.0+0   1.0+0
CQUAD8        19      16     134      35      36      75     137      66+
+            132     138                                      35   0.0+0
CORD2R        35       0   0.0+0   0.0+0   0.0+0   1.0+0   0.0+0   0.0+0+
+          0.0+0   0.0+0   1.0+0
CQUAD8        20      16       4     134      75       5     135     138+
+            133      82                                      36   0.0+0
CORD2R        36       0   0.0+0   0.0+0   0.0+0   1.0+0   0.0+0   0.0+0+
+          0.0+0   0.0+0   1.0+0
CQUAD8        21      16      21      89     154      37     148      50+
+             48     151                                      37   0.0+0
CORD2R        37       0   0.0+0   0.0+0   0.0+0   1.0+0   0.0+0   0.0+0+
+          0.0+0   0.0+0   1.0+0
CQUAD8        22      16      89      93       6     154     149      27+
+             51      50                                      38   0.0+0
CORD2R        38       0   0.0+0   0.0+0   0.0+0   1.0+0   0.0+0   0.0+0+
+          0.0+0   0.0+0   1.0+0
CQUAD8        23      16     154       6       7      76      51      26+
+             97      52                                      39   0.0+0
CORD2R        39       0   0.0+0   0.0+0   0.0+0   1.0+0   0.0+0   0.0+0+
+          0.0+0   0.0+0   1.0+0
CQUAD8        24      16      37     154      76      58      48      52+
+             96     150                                      40   0.0+0
CORD2R        40       0   0.0+0   0.0+0   0.0+0   1.0+0   0.0+0   0.0+0+
+          0.0+0   0.0+0   1.0+0
CQUAD8        25      16      58      76     104      72      96     106+
+            105     103                                      41   0.0+0
CORD2R        41       0   0.0+0   0.0+0   0.0+0   1.0+0   0.0+0   0.0+0+
+          0.0+0   0.0+0   1.0+0
CQUAD8        26      16      76       7       8     104      97      98+
+            107     106                                      42   0.0+0
CORD2R        42       0   0.0+0   0.0+0   0.0+0   1.0+0   0.0+0   0.0+0+
+          0.0+0   0.0+0   1.0+0
CQUAD8        27      16     104       8       9      77     107      99+
+            100     108                                      43   0.0+0
CORD2R        43       0   0.0+0   0.0+0   0.0+0   1.0+0   0.0+0   0.0+0+
+          0.0+0   0.0+0   1.0+0
CQUAD8        28      16      72     104      77      20     105     108+
+            101     102                                      44   0.0+0
CORD2R        44       0   0.0+0   0.0+0   0.0+0   1.0+0   0.0+0   0.0+0+
+          0.0+0   0.0+0   1.0+0
CQUAD8        29      16      20      77     115      22     101     117+
+            116     114                                      45   0.0+0
CORD2R        45       0   0.0+0   0.0+0   0.0+0   1.0+0   0.0+0   0.0+0+
+          0.0+0   0.0+0   1.0+0
CQUAD8        30      16      77       9      10     115     100     109+
+            118     117                                      46   0.0+0
CORD2R        46       0   0.0+0   0.0+0   0.0+0   1.0+0   0.0+0   0.0+0+
+          0.0+0   0.0+0   1.0+0
CQUAD8        31      16     115      10      11      78     118     110+
+            111     119                                      47   0.0+0
CORD2R        47       0   0.0+0   0.0+0   0.0+0   1.0+0   0.0+0   0.0+0+
+          0.0+0   0.0+0   1.0+0
CQUAD8        32      16      22     115      78      23     116     119+
+            112     113                                      48   0.0+0
CORD2R        48       0   0.0+0   0.0+0   0.0+0   1.0+0   0.0+0   0.0+0+
+          0.0+0   0.0+0   1.0+0
CQUAD8        33      16      93      94      28       6     168      30+
+             29      27                                      49   0.0+0
CORD2R        49       0   0.0+0   0.0+0   0.0+0   1.0+0   0.0+0   0.0+0+
+          0.0+0   0.0+0   1.0+0
CQUAD8        34      16      94      49      12      28     169     170+
+             31      30                                      50   0.0+0
CORD2R        50       0   0.0+0   0.0+0   0.0+0   1.0+0   0.0+0   0.0+0+
+          0.0+0   0.0+0   1.0+0
CQUAD8        35      16       6      28      95       7      29      38+
+            173      26                                      51   0.0+0
CORD2R        51       0   0.0+0   0.0+0   0.0+0   1.0+0   0.0+0   0.0+0+
+          0.0+0   0.0+0   1.0+0
CQUAD8        36      16      28      12      13      95      31     171+
+            172      38                                      52   0.0+0
CORD2R        52       0   0.0+0   0.0+0   0.0+0   1.0+0   0.0+0   0.0+0+
+          0.0+0   0.0+0   1.0+0
CQUAD8        37      16      49      59      43      12      39      45+
+             44     170                                      53   0.0+0
CORD2R        53       0   0.0+0   0.0+0   0.0+0   1.0+0   0.0+0   0.0+0+
+          0.0+0   0.0+0   1.0+0
CQUAD8        38      16      59      79      24      43      40      41+
+             46      45                                      54   0.0+0
CORD2R        54       0   0.0+0   0.0+0   0.0+0   1.0+0   0.0+0   0.0+0+
+          0.0+0   0.0+0   1.0+0
CQUAD8        39      16      12      43      90      13      44      47+
+            155     171                                      55   0.0+0
CORD2R        55       0   0.0+0   0.0+0   0.0+0   1.0+0   0.0+0   0.0+0+
+          0.0+0   0.0+0   1.0+0
CQUAD8        40      16      43      24       1      90      46      42+
+            156      47                                      56   0.0+0
CORD2R        56       0   0.0+0   0.0+0   0.0+0   1.0+0   0.0+0   0.0+0+
+          0.0+0   0.0+0   1.0+0
CQUAD8        41      16       7      95     123       8     173     125+
+            124      98                                      57   0.0+0
CORD2R        57       0   0.0+0   0.0+0   0.0+0   1.0+0   0.0+0   0.0+0+
+          0.0+0   0.0+0   1.0+0
CQUAD8        42      16      95      13      14     123     172     162+
+            126     125                                      58   0.0+0
CORD2R        58       0   0.0+0   0.0+0   0.0+0   1.0+0   0.0+0   0.0+0+
+          0.0+0   0.0+0   1.0+0
CQUAD8        43      16     123      14      15      18     126     161+
+            121     127                                      59   0.0+0
CORD2R        59       0   0.0+0   0.0+0   0.0+0   1.0+0   0.0+0   0.0+0+
+          0.0+0   0.0+0   1.0+0
CQUAD8        44      16       8     123      18       9     124     127+
+            122      99                                      60   0.0+0
CORD2R        60       0   0.0+0   0.0+0   0.0+0   1.0+0   0.0+0   0.0+0+
+          0.0+0   0.0+0   1.0+0
CQUAD8        45      16      13      90     163      14     155     165+
+            164     162                                      61   0.0+0
CORD2R        61       0   0.0+0   0.0+0   0.0+0   1.0+0   0.0+0   0.0+0+
+          0.0+0   0.0+0   1.0+0
CQUAD8        46      16      90       1       2     163     156     157+
+            166     165                                      62   0.0+0
CORD2R        62       0   0.0+0   0.0+0   0.0+0   1.0+0   0.0+0   0.0+0+
+          0.0+0   0.0+0   1.0+0
CQUAD8        47      16     163       2       3      91     166     158+
+            159     167                                      63   0.0+0
CORD2R        63       0   0.0+0   0.0+0   0.0+0   1.0+0   0.0+0   0.0+0+
+          0.0+0   0.0+0   1.0+0
CQUAD8        48      16      14     163      91      15     164     167+
+            160     161                                      64   0.0+0
CORD2R        64       0   0.0+0   0.0+0   0.0+0   1.0+0   0.0+0   0.0+0+
+          0.0+0   0.0+0   1.0+0
$--1---><--2---><--3---><--4---><--5---><--6---><--7---><--8---><--9---><--10-->
$$$$$$$$$$$$$$$$$$$$$$$$$$$$$$$$$$$$ force $$$$$$$$$$$$$$$$$$$$$$$$$$$$$$$$$$$$$
FORCE*                 2              11               0           1.0+0*
*                  0.0+0           0.0+0 4.21201334752+4
MOMENT*                2              11               0           1.0+0*
*       -1.30479258617-1-3.15004751691-1           0.0+0
FORCE*                 2             111               0           1.0+0*
*                  0.0+0           0.0+0 8.32799131027+4
MOMENT*                2             111               0           1.0+0*
*       -2.00424694427-1-6.62043383145-1           0.0+0
FORCE*                 2              78               0           1.0+0*
*                  0.0+0           0.0+0 4.13200076313+4
MOMENT*                2              78               0           1.0+0*
*       -6.90759686372-2 -3.4726832671-1           0.0+0
FORCE*                 2             112               0           1.0+0*
*                  0.0+0           0.0+0 8.32799106244+4
MOMENT*                2             112               0           1.0+0*
*       -6.81847281095-2-6.88347234703-1           0.0+0
FORCE*                 2              23               0           1.0+0*
*                  0.0+0           0.0+0 2.10600606319+4
MOMENT*                2              23               0           1.0+0*
*       -3.88320917892-5-1.70478870282-1           0.0+0
FORCE*                 2              17               0           1.0+0*
*                  0.0+0           0.0+0 4.21201260916+4
MOMENT*                2              17               0           1.0+0*
*       -2.41093585977-1-2.41093638837-1           0.0+0
FORCE*                 2             141               0           1.0+0*
*                  0.0+0           0.0+0 8.32799336535+4
MOMENT*                2             141               0           1.0+0*
*       -4.38522806738-1-5.34950951695-1           0.0+0
FORCE*                 2              19               0           1.0+0*
*                  0.0+0           0.0+0 4.13200451217+4
MOMENT*                2              19               0           1.0+0*
*       -1.96712758282-1-2.94401447448-1           0.0+0
FORCE*                 2             142               0           1.0+0*
*                  0.0+0           0.0+0  8.3279933732+4
MOMENT*                2             142               0           1.0+0*
*       -3.26414775993-1 -6.0985902455-1           0.0+0
FORCE*                 2               5               0           1.0+0*
*                  0.0+0           0.0+0 4.21201264754+4
MOMENT*                2               5               0           1.0+0*
*       -3.15004410057-1-1.30479067395-1           0.0+0
FORCE*                 2              83               0           1.0+0*
*                  0.0+0           0.0+0 8.32799085827+4
MOMENT*                2              83               0           1.0+0*
*       -6.09855937012-1-3.26413124937-1           0.0+0
FORCE*                 2              92               0           1.0+0*
*                  0.0+0           0.0+0  4.1320007884+4
MOMENT*                2              92               0           1.0+0*
*        -2.9439894265-1-1.96711071739-1           0.0+0
FORCE*                 2              84               0           1.0+0*
*                  0.0+0           0.0+0  8.3279904979+4
MOMENT*                2              84               0           1.0+0*
*       -5.34947162093-1-4.38519699498-1           0.0+0
FORCE*                 2              36               0           1.0+0*
*                  0.0+0           0.0+0 2.10600741768+4
MOMENT*                2              36               0           1.0+0*
*       -1.70479813468-1-3.88508649686-5           0.0+0
FORCE*                 2             132               0           1.0+0*
*                  0.0+0           0.0+0 8.32799340299+4
MOMENT*                2             132               0           1.0+0*
*       -6.88349987728-1-6.81850042823-2           0.0+0
FORCE*                 2              75               0           1.0+0*
*                  0.0+0           0.0+0 4.13200457779+4
MOMENT*                2              75               0           1.0+0*
*       -3.47270269671-1-6.90763514608-2           0.0+0
FORCE*                 2             133               0           1.0+0*
*                  0.0+0           0.0+0 8.32799340299+4
MOMENT*                2             133               0           1.0+0*
*        -6.6204573634-1-2.00425406091-1           0.0+0
$--1---><--2---><--3---><--4---><--5---><--6---><--7---><--8---><--9---><--10-->
LOAD           1   1.0+0   1.0+0       2
ENDDATA 
