$ Generated by Mecway 33
$-----------------------EXECUTIVE CONTROL SECTION-----------------------
SOL 101
CEND
$-------------------------CASE CONTROL SECTION--------------------------
DISPLACEMENT = ALL
SPCFORCES = ALL
MPCFORCES = ALL
STRESS(CORNER) = ALL
SPC = 1
LOAD = 1
BEGIN BULK
$---------------------------BULK DATA SECTION---------------------------
GRID*                  1               0-7.07106781187-1-7.07106781187-1*
*                  3.0-1               0
GRID*                  2               0-9.23879532511-1 3.82683432365-1*
*                  3.0-1               0
GRID           3       0   0.0+0   1.0+0   0.0+0       0
GRID*                  4               0-9.23879532511-1-3.82683432365-1*
*                  3.0-1               0
GRID           5       0  -1.0+0   0.0+0   3.0-1       0
GRID*                  6               0-5.52477814683-1-8.33527602592-1*
*                  0.0+0               0
GRID*                  7               0-5.52477814683-1-8.33527602592-1*
*                  3.0-1               0
GRID*                  8               0-9.23879532511-1-3.82683432365-1*
*                  0.0+0               0
GRID*                  9               0-7.07106781187-1-7.07106781187-1*
*                  0.0+0               0
GRID*                 10               0-1.98732210882-1 9.80053829317-1*
*                  0.0+0               0
GRID          11       0   0.0+0   1.0+0   3.0-1       0
GRID*                 12               0-7.07106781187-1 7.07106781187-1*
*                  1.5-1               0
GRID          13       0   0.0+0  -1.0+0   3.0-1       0
GRID*                 14               0-1.98732210882-1 9.80053829317-1*
*                  3.0-1               0
GRID          15       0  -1.0+0   0.0+0   0.0+0       0
GRID*                 16               0-9.23879532511-1 3.82683432365-1*
*                  0.0+0               0
GRID*                 17               0-7.07106781187-1-7.07106781187-1*
*                  1.5-1               0
GRID          18       0   0.0+0  -1.0+0   0.0+0       0
GRID*                 19               0-7.07106781187-1 7.07106781187-1*
*                  3.0-1               0
GRID*                 20               0-7.07106781187-1 7.07106781187-1*
*                  0.0+0               0
GRID*                 21               0-3.82683432365-1-9.23879532511-1*
*                  1.5-1               0
GRID          22       0   0.0+0   1.0+0   1.5-1       0
GRID          23       0  -1.0+0   0.0+0   1.5-1       0
GRID*                 24               0-3.82683432365-1-9.23879532511-1*
*                  3.0-1               0
GRID*                 25               0-5.52477814683-1 8.33527602592-1*
*                  0.0+0               0
GRID*                 26               0-5.52477814683-1 8.33527602592-1*
*                  3.0-1               0
GRID*                 27               0-3.82683432365-1 9.23879532511-1*
*                  0.0+0               0
GRID*                 28               0-3.82683432365-1 9.23879532511-1*
*                  1.5-1               0
GRID*                 29               0-3.82683432365-1 9.23879532511-1*
*                  3.0-1               0
GRID          30       0   0.0+0  -1.0+0   1.5-1       0
GRID*                 31               0-1.98732210882-1-9.80053829317-1*
*                  0.0+0               0
GRID*                 32               0-1.98732210882-1-9.80053829317-1*
*                  3.0-1               0
GRID*                 33               0-3.82683432365-1-9.23879532511-1*
*                  0.0+0               0
PARAM    STR_CID      -2
$--1---><--2---><--3---><--4---><--5---><--6---><--7---><--8---><--9---><--10-->
$$$$$$$$$$$$$$$$$$$$$$$$$$$$$$$$$$$ Material $$$$$$$$$$$$$$$$$$$$$$$$$$$$$$$$$$$
MAT1           1  2.0+11  1.0+11   0.0+0   0.0+0   0.0+0   0.0+0
$--1---><--2---><--3---><--4---><--5---><--6---><--7---><--8---><--9---><--10-->
SPC            1       1       1   0.0+0
SPC            1       1       2   0.0+0
SPC            1       1       3   0.0+0
SPC            1       1       4   0.0+0
SPC            1       1       5   0.0+0
SPC            1       1       6   0.0+0
SPC            1       2       1   0.0+0
SPC            1       2       2   0.0+0
SPC            1       2       3   0.0+0
SPC            1       2       4   0.0+0
SPC            1       2       5   0.0+0
SPC            1       2       6   0.0+0
SPC            1       4       1   0.0+0
SPC            1       4       2   0.0+0
SPC            1       4       3   0.0+0
SPC            1       4       4   0.0+0
SPC            1       4       5   0.0+0
SPC            1       4       6   0.0+0
SPC            1       5       1   0.0+0
SPC            1       5       2   0.0+0
SPC            1       5       3   0.0+0
SPC            1       5       4   0.0+0
SPC            1       5       5   0.0+0
SPC            1       5       6   0.0+0
SPC            1       7       1   0.0+0
SPC            1       7       2   0.0+0
SPC            1       7       3   0.0+0
SPC            1       7       4   0.0+0
SPC            1       7       5   0.0+0
SPC            1       7       6   0.0+0
SPC            1      11       1   0.0+0
SPC            1      11       2   0.0+0
SPC            1      11       3   0.0+0
SPC            1      11       4   0.0+0
SPC            1      11       5   0.0+0
SPC            1      11       6   0.0+0
SPC            1      13       1   0.0+0
SPC            1      13       2   0.0+0
SPC            1      13       3   0.0+0
SPC            1      13       4   0.0+0
SPC            1      13       5   0.0+0
SPC            1      13       6   0.0+0
SPC            1      14       1   0.0+0
SPC            1      14       2   0.0+0
SPC            1      14       3   0.0+0
SPC            1      14       4   0.0+0
SPC            1      14       5   0.0+0
SPC            1      14       6   0.0+0
SPC            1      19       1   0.0+0
SPC            1      19       2   0.0+0
SPC            1      19       3   0.0+0
SPC            1      19       4   0.0+0
SPC            1      19       5   0.0+0
SPC            1      19       6   0.0+0
SPC            1      24       1   0.0+0
SPC            1      24       2   0.0+0
SPC            1      24       3   0.0+0
SPC            1      24       4   0.0+0
SPC            1      24       5   0.0+0
SPC            1      24       6   0.0+0
SPC            1      26       1   0.0+0
SPC            1      26       2   0.0+0
SPC            1      26       3   0.0+0
SPC            1      26       4   0.0+0
SPC            1      26       5   0.0+0
SPC            1      26       6   0.0+0
SPC            1      29       1   0.0+0
SPC            1      29       2   0.0+0
SPC            1      29       3   0.0+0
SPC            1      29       4   0.0+0
SPC            1      29       5   0.0+0
SPC            1      29       6   0.0+0
SPC            1      32       1   0.0+0
SPC            1      32       2   0.0+0
SPC            1      32       3   0.0+0
SPC            1      32       4   0.0+0
SPC            1      32       5   0.0+0
SPC            1      32       6   0.0+0
$--1---><--2---><--3---><--4---><--5---><--6---><--7---><--8---><--9---><--10-->
$$$$$$$$$$$$$$$$$$$$$$$$$$$$$$$$$$$ Default $$$$$$$$$$$$$$$$$$$$$$$$$$$$$$$$$$$$
PSHELL         1       1   1.0-1       1               1           0.0+0
CQUAD8         1       1      27       3      11      29      10      22+
+             14      28                                       2   0.0+0
CORD2R*                2               0           0.0+0           0.0+0*
*                  0.0+0-1.95090322016-1 9.80785280403-1           0.0+0*
*        9.80785280403-1 1.95090322016-1           0.0+0                *
*
CQUAD8         2       1       9      15       5       1       8      23+
+              4      17                                       3   0.0+0
CORD2R*                3               0           0.0+0           0.0+0*
*                  0.0+0-9.23879532511-1-3.82683432365-1           0.0+0*
*       -3.82683432365-1 9.23879532511-1           0.0+0                *
*
CQUAD8         3       1      15      20      19       5      16      12+
+              2      23                                       4   0.0+0
CORD2R*                4               0           0.0+0           0.0+0*
*                  0.0+0-9.23879532511-1 3.82683432365-1           0.0+0*
*        3.82683432365-1 9.23879532511-1           0.0+0                *
*
CQUAD8         4       1      33       9       1      24       6      17+
+              7      21                                       5   0.0+0
CORD2R*                5               0           0.0+0           0.0+0*
*                  0.0+0 -5.5557023302-1-8.31469612303-1           0.0+0*
*       -8.31469612303-1  5.5557023302-1           0.0+0                *
*
CQUAD8         5       1      20      27      29      19      25      28+
+             26      12                                       6   0.0+0
CORD2R*                6               0           0.0+0           0.0+0*
*                  0.0+0 -5.5557023302-1 8.31469612303-1           0.0+0*
*        8.31469612303-1  5.5557023302-1           0.0+0                *
*
CQUAD8         6       1      18      33      24      13      31      21+
+             32      30                                       7   0.0+0
CORD2R*                7               0           0.0+0           0.0+0*
*                  0.0+0-1.95090322016-1-9.80785280403-1           0.0+0*
*       -9.80785280403-1 1.95090322016-1           0.0+0                *
*
$--1---><--2---><--3---><--4---><--5---><--6---><--7---><--8---><--9---><--10-->
$$$$$$$$$$$$$$$$$$$$$$$$$$$$$$$$$$$ pressure $$$$$$$$$$$$$$$$$$$$$$$$$$$$$$$$$$$
FORCE*                 2              18               0           1.0+0*
*                  0.0+0           0.0+0 6.82651500228+4
MOMENT*                2              18               0           1.0+0*
*       -5.08681985853+1  8.3606828994-2           0.0+0
FORCE*                 2              31               0           1.0+0*
*                  0.0+0           0.0+0 2.61120821306+5
MOMENT*                2              31               0           1.0+0*
*       -2.10627331914+2 4.28324394519+1           0.0+0
FORCE*                 2              33               0           1.0+0*
*        1.4411002176-11 2.1567588902-11 1.26591305161+5
MOMENT*                2              33               0           1.0+0*
*       -1.08330942763+2 4.48721457169+1           0.0+0
FORCE*                 2              15               0           1.0+0*
*       -1.2790729041-10-4.5751424793-11 2.66790609687+5
MOMENT*                2              15               0           1.0+0*
*                  0.0+0 2.19669368585+2           0.0+0
FORCE*                 2              16               0           1.0+0*
*       -3.3889363498-11 1.4037433981-11 5.18023457449+5
MOMENT*                2              16               0           1.0+0*
*        1.57080956034+2 3.79226974448+2           0.0+0
FORCE*                 2              20               0           1.0+0*
*       -9.8203459053-13-7.9760908996-12 2.01660454866+5
MOMENT*                2              20               0           1.0+0*
*        1.11807693579+2 1.15460502899+2           0.0+0
FORCE*                 2              27               0           1.0+0*
*        7.1809606109-12-1.0747067032-11 1.26591305161+5
MOMENT*                2              27               0           1.0+0*
*        1.08330942763+2 4.48721457169+1           0.0+0
FORCE*                 2              10               0           1.0+0*
*                  0.0+0           0.0+0 2.61120821306+5
MOMENT*                2              10               0           1.0+0*
*        2.10627331914+2 4.28324394519+1           0.0+0
FORCE*                 2               3               0           1.0+0*
*                  0.0+0           0.0+0 6.82651500228+4
MOMENT*                2               3               0           1.0+0*
*        5.08681985853+1  8.3606828994-2           0.0+0
FORCE*                 2               9               0           1.0+0*
*        -1.036380549-10-2.6105266224-11 2.01660454866+5
MOMENT*                2               9               0           1.0+0*
*       -1.11807693579+2 1.15460502899+2           0.0+0
FORCE*                 2               8               0           1.0+0*
*       -4.6282209791-10-1.9170718992-10 5.18023457449+5
MOMENT*                2               8               0           1.0+0*
*       -1.57080956034+2 3.79226974448+2           0.0+0
FORCE*                 2               6               0           1.0+0*
*        5.9451361517-11 8.8975250244-11 2.61120821306+5
MOMENT*                2               6               0           1.0+0*
*       -1.79223123091+2 1.18648906308+2           0.0+0
FORCE*                 2              25               0           1.0+0*
*        2.9624441111-11-4.4336109283-11 2.61120821306+5
MOMENT*                2              25               0           1.0+0*
*        1.79223123091+2 1.18648906308+2           0.0+0
$--1---><--2---><--3---><--4---><--5---><--6---><--7---><--8---><--9---><--10-->
LOAD           1   1.0+0   1.0+0       2
ENDDATA 
