$ Generated by Mecway 33
$-----------------------EXECUTIVE CONTROL SECTION-----------------------
SOL 101
CEND
$-------------------------CASE CONTROL SECTION--------------------------
DISPLACEMENT = ALL
STRESS(CORNER) = ALL
STRAIN(CORNER,FIBER) = ALL
FORCE(CORNER) = ALL
SPC = 1
LOAD = 1
BEGIN BULK
$---------------------------BULK DATA SECTION---------------------------
GRID           1       0   0.0+0   0.0+0   0.0+0       0
GRID           2       0   1.0+0   0.0+0   0.0+0       0
GRID           3       0   1.0+0   1.0+0   0.0+0       0
GRID           4       0   0.0+0   1.0+0   0.0+0       0
GRID           5       0   5.0-1   0.0+0  -1.0-1       0
GRID           6       0   1.0+0   5.0-1  -1.0-1       0
GRID           7       0   5.0-1   1.0+0  -1.0-1       0
GRID           8       0   0.0+0   5.0-1  -1.0-1       0
GRID           9       0   2.0+0   0.0+0   0.0+0       0
GRID          10       0   3.0+0   0.0+0   0.0+0       0
GRID          11       0   3.0+0   1.0+0   0.0+0       0
GRID          12       0   2.0+0   1.0+0   0.0+0       0
GRID          13       0   2.5+0   0.0+0  -1.0-1       0
GRID          14       0   3.0+0   5.0-1  -1.0-1       0
GRID          15       0   2.5+0   1.0+0  -1.0-1       0
GRID          16       0   2.0+0   5.0-1  -1.0-1       0
PARAM    STR_CID      -2
$--1---><--2---><--3---><--4---><--5---><--6---><--7---><--8---><--9---><--10-->
$$$$$$$$$$$$$$$$$$$$$$$$$$$$$$$$$$$ Material $$$$$$$$$$$$$$$$$$$$$$$$$$$$$$$$$$$
MAT1           1  2.0+11  1.0+11   0.0+0   0.0+0   0.0+0   0.0+0
$--1---><--2---><--3---><--4---><--5---><--6---><--7---><--8---><--9---><--10-->
SPC            1       2       1   0.0+0
SPC            1       2       2   0.0+0
SPC            1       2       3   0.0+0
SPC            1       2       4   0.0+0
SPC            1       2       5   0.0+0
SPC            1       2       6   0.0+0
SPC            1       3       1   0.0+0
SPC            1       3       2   0.0+0
SPC            1       3       3   0.0+0
SPC            1       3       4   0.0+0
SPC            1       3       5   0.0+0
SPC            1       3       6   0.0+0
SPC            1       6       1   0.0+0
SPC            1       6       2   0.0+0
SPC            1       6       3   0.0+0
SPC            1       6       4   0.0+0
SPC            1       6       5   0.0+0
SPC            1       6       6   0.0+0
SPC            1      10       1   0.0+0
SPC            1      10       2   0.0+0
SPC            1      10       3   0.0+0
SPC            1      10       4   0.0+0
SPC            1      10       5   0.0+0
SPC            1      10       6   0.0+0
SPC            1      11       1   0.0+0
SPC            1      11       2   0.0+0
SPC            1      11       3   0.0+0
SPC            1      11       4   0.0+0
SPC            1      11       5   0.0+0
SPC            1      11       6   0.0+0
SPC            1      14       1   0.0+0
SPC            1      14       2   0.0+0
SPC            1      14       3   0.0+0
SPC            1      14       4   0.0+0
SPC            1      14       5   0.0+0
SPC            1      14       6   0.0+0
$--1---><--2---><--3---><--4---><--5---><--6---><--7---><--8---><--9---><--10-->
$$$$$$$$$$$$$$$$$$$$$$$$$$$$$$$$$$$ Default $$$$$$$$$$$$$$$$$$$$$$$$$$$$$$$$$$$$
PSHELL         1       1   1.0-1       1               1           0.0+0
CQUAD8         1       1       1       2       3       4       5       6+
+              7       8                                       2   0.0+0
CORD2R         2       0   0.0+0   0.0+0   0.0+0   0.0+0   1.0+0   0.0+0+
+          1.1+1   0.0+0   0.0+0
CQUAD8         2       1      10      11      12       9      14      15+
+             16      13                                       3   0.0+0
CORD2R         3       0   0.0+0   0.0+0   0.0+0   0.0+0   1.0+0   0.0+0+
+          1.1+1   0.0+0   0.0+0
$--1---><--2---><--3---><--4---><--5---><--6---><--7---><--8---><--9---><--10-->
$$$$$$$$$$$$$$$$$$$$$$$$$$$$$$$$$$$$ force $$$$$$$$$$$$$$$$$$$$$$$$$$$$$$$$$$$$$
FORCE*                 2               1               0           1.0+0*
*        1.70016351854+2 8.50081759271+1 8.50081759271+0
MOMENT*                2               1               0           1.0+0*
*        4.17493765294-2-8.51460642801-2 1.64731122139-2
FORCE*                 2               4               0           1.0+0*
*        1.70016351854+2 8.50081759271+1 8.50081759271+0
MOMENT*                2               4               0           1.0+0*
*         4.5134362532-2-8.51460642801-2-5.12266078384-2
FORCE*                 2               8               0           1.0+0*
*        6.59967296292+2 3.29983648146+2 3.29983648146+1
MOMENT*                2               8               0           1.0+0*
*        1.74638454223-1-3.42291370277-1-6.98553816891-2
FORCE*                 2              12               0           1.0+0*
*        1.70016351854+2 8.50081759271+1 8.50081759271+0
MOMENT*                2              12               0           1.0+0*
*         4.5134362532-2-8.51460642801-2-5.12266078384-2
FORCE*                 2              16               0           1.0+0*
*        6.59967296292+2 3.29983648146+2 3.29983648146+1
MOMENT*                2              16               0           1.0+0*
*        1.74638454223-1-3.42291370277-1-6.98553816891-2
FORCE*                 2               9               0           1.0+0*
*        1.70016351854+2 8.50081759271+1 8.50081759271+0
MOMENT*                2               9               0           1.0+0*
*        4.17493765294-2-8.51460642801-2 1.64731122139-2
$--1---><--2---><--3---><--4---><--5---><--6---><--7---><--8---><--9---><--10-->
LOAD           1   1.0+0   1.0+0       2
ENDDATA 
