$ Generated by Mecway 33
$-----------------------EXECUTIVE CONTROL SECTION-----------------------
SOL 103
CEND
$-------------------------CASE CONTROL SECTION--------------------------
METHOD = 1
DISPLACEMENT = ALL
SPC = 1
BEGIN BULK
$---------------------------BULK DATA SECTION---------------------------
GRID           1       0   0.0+0   0.0+0   0.0+0       0
GRID           2       0   1.0+0   0.0+0   0.0+0       0
GRID           3       0   1.0+0   1.0+0   0.0+0       0
GRID           4       0   0.0+0   1.0+0   0.0+0       0
GRID           5       0   5.0-1   0.0+0   0.0+0       0
GRID           6       0   1.0+0   5.0-1   0.0+0       0
GRID           7       0   5.0-1   1.0+0   0.0+0       0
GRID           8       0   0.0+0   5.0-1   0.0+0       0
GRID           9       0   1.0+0   7.5-1   0.0+0       0
GRID          10       0  1.25+0   5.0-1   0.0+0       0
GRID          11       0   1.5+0   7.5-1   0.0+0       0
GRID          12       0   1.5+0   1.0+0   0.0+0       0
GRID          13       0  1.25+0   1.0+0   0.0+0       0
GRID          14       0   1.5+0   5.0-1   0.0+0       0
GRID          15       0   1.5+0   0.0+0   0.0+0       0
GRID          16       0  -5.0-1   1.0+0   0.0+0       0
GRID          17       0  -5.0-1   5.0-1   0.0+0       0
GRID          18       0  -5.0-1   0.0+0   0.0+0       0
GRID          19       0   1.0+0   2.5-1   0.0+0       0
GRID          20       0  1.25+0   0.0+0   0.0+0       0
GRID          21       0   5.0-1   5.0-1   0.0+0       0
GRID          22       0   2.5-1   5.0-1   0.0+0       0
GRID          23       0   5.0-1   7.5-1   0.0+0       0
GRID          24       0   2.5-1   1.0+0   0.0+0       0
GRID          25       0   0.0+0   7.5-1   0.0+0       0
GRID          26       0   1.5+0   2.5-1   0.0+0       0
GRID          27       0   2.5-1   0.0+0   0.0+0       0
GRID          28       0   7.5-1   0.0+0   0.0+0       0
GRID          29       0   7.5-1   1.0+0   0.0+0       0
GRID          30       0   5.0-1   2.5-1   0.0+0       0
GRID          31       0   7.5-1   5.0-1   0.0+0       0
GRID          32       0  -2.5-1   1.0+0   0.0+0       0
GRID          33       0  -5.0-1   7.5-1   0.0+0       0
GRID          34       0  -2.5-1   5.0-1   0.0+0       0
GRID          35       0   0.0+0   2.5-1   0.0+0       0
GRID          36       0  -5.0-1   2.5-1   0.0+0       0
GRID          37       0  -2.5-1   0.0+0   0.0+0       0
GRID          38       0   0.0+0   2.0+0   0.0+0       0
GRID          39       0   1.0+0   2.0+0   0.0+0       0
GRID          40       0   1.0+0   3.0+0   0.0+0       0
GRID          41       0   0.0+0   3.0+0   0.0+0       0
GRID          42       0   5.0-1   2.0+0   0.0+0       0
GRID          43       0   1.0+0   2.5+0   0.0+0       0
GRID          44       0   5.0-1   3.0+0   0.0+0       0
GRID          45       0   0.0+0   2.5+0   0.0+0       0
GRID          46       0  -5.0-1   3.0+0   0.0+0       0
GRID          47       0  -5.0-1   2.5+0   0.0+0       0
GRID          48       0   5.0-1   2.5+0   0.0+0       0
GRID          49       0   1.5+0   3.0+0   0.0+0       0
GRID          50       0  -5.0-1   2.0+0   0.0+0       0
GRID          51       0   1.5+0   2.5+0   0.0+0       0
GRID          52       0   1.5+0   2.0+0   0.0+0       0
PARAM    STR_CID      -2
$--1---><--2---><--3---><--4---><--5---><--6---><--7---><--8---><--9---><--10-->
$$$$$$$$$$$$$$$$$$$$$$$$$$$$$$$$$$$ Material $$$$$$$$$$$$$$$$$$$$$$$$$$$$$$$$$$$
MAT1           1  2.1+11 1.05+11   0.0+0   1.0+2   0.0+0   0.0+0
$--1---><--2---><--3---><--4---><--5---><--6---><--7---><--8---><--9---><--10-->
SPC            1      11       1   0.0+0
SPC            1      11       2   0.0+0
SPC            1      11       3   0.0+0
SPC            1      11       4   0.0+0
SPC            1      11       5   0.0+0
SPC            1      11       6   0.0+0
SPC            1      12       1   0.0+0
SPC            1      12       2   0.0+0
SPC            1      12       3   0.0+0
SPC            1      12       4   0.0+0
SPC            1      12       5   0.0+0
SPC            1      12       6   0.0+0
SPC            1      14       1   0.0+0
SPC            1      14       2   0.0+0
SPC            1      14       3   0.0+0
SPC            1      14       4   0.0+0
SPC            1      14       5   0.0+0
SPC            1      14       6   0.0+0
SPC            1      15       1   0.0+0
SPC            1      15       2   0.0+0
SPC            1      15       3   0.0+0
SPC            1      15       4   0.0+0
SPC            1      15       5   0.0+0
SPC            1      15       6   0.0+0
SPC            1      26       1   0.0+0
SPC            1      26       2   0.0+0
SPC            1      26       3   0.0+0
SPC            1      26       4   0.0+0
SPC            1      26       5   0.0+0
SPC            1      26       6   0.0+0
SPC            1      49       1   0.0+0
SPC            1      49       2   0.0+0
SPC            1      49       3   0.0+0
SPC            1      49       4   0.0+0
SPC            1      49       5   0.0+0
SPC            1      49       6   0.0+0
SPC            1      51       1   0.0+0
SPC            1      51       2   0.0+0
SPC            1      51       3   0.0+0
SPC            1      51       4   0.0+0
SPC            1      51       5   0.0+0
SPC            1      51       6   0.0+0
SPC            1      52       1   0.0+0
SPC            1      52       2   0.0+0
SPC            1      52       3   0.0+0
SPC            1      52       4   0.0+0
SPC            1      52       5   0.0+0
SPC            1      52       6   0.0+0
$--1---><--2---><--3---><--4---><--5---><--6---><--7---><--8---><--9---><--10-->
$$$$$$$$$$$$$$$$$$$$$$$$$$$$$$$$$$$ Default $$$$$$$$$$$$$$$$$$$$$$$$$$$$$$$$$$$$
PSHELL         1       1   1.0-2       1               1           0.0+0
CQUAD8         1       1       8      21       7       4      22      23+
+             24      25                                       2   0.0+0
CORD2R         2       0   0.0+0   0.0+0   0.0+0   0.0+0   1.0+0   0.0+0+
+          1.0+0   0.0+0   0.0+0
CQUAD8         2       1      21       6       3       7      31       9+
+             29      23                                       3   0.0+0
CORD2R         3       0   0.0+0   0.0+0   0.0+0   0.0+0   1.0+0   0.0+0+
+          1.0+0   0.0+0   0.0+0
CQUAD8         3       1       1       5      21       8      27      30+
+             22      35                                       4   0.0+0
CORD2R         4       0   0.0+0   0.0+0   0.0+0   0.0+0   1.0+0   0.0+0+
+          1.0+0   0.0+0   0.0+0
CQUAD8         4       1       8       4      16      17      25      32+
+             33      34                                       5   0.0+0
CORD2R         5       0   0.0+0   0.0+0   0.0+0  -1.0+0   0.0+0   0.0+0+
+          0.0+0   1.0+0   0.0+0
CQUAD8         5       1       1       8      17      18      35      34+
+             36      37                                       6   0.0+0
CORD2R         6       0   0.0+0   0.0+0   0.0+0  -1.0+0   0.0+0   0.0+0+
+          0.0+0   1.0+0   0.0+0
CQUAD8         6       1       3       6      14      12       9      10+
+             11      13                                       7   0.0+0
CORD2R         7       0   0.0+0   0.0+0   0.0+0   1.0+0   0.0+0   0.0+0+
+          0.0+0  -1.0+0   0.0+0
CQUAD8         7       1       6       2      15      14      19      20+
+             26      10                                       8   0.0+0
CORD2R         8       0   0.0+0   0.0+0   0.0+0   1.0+0   0.0+0   0.0+0+
+          0.0+0  -1.0+0   0.0+0
CQUAD8         8       1       5       2       6      21      28      19+
+             31      30                                       9   0.0+0
CORD2R         9       0   0.0+0   0.0+0   0.0+0   0.0+0   1.0+0   0.0+0+
+          1.0+0   0.0+0   0.0+0
PSHELL        10       1   1.0-2       1               1           0.0+0
CQUAD4         9      10      45      48      44      41   0.0+0   0.0+0
CQUAD4        10      10      48      43      40      44   0.0+0   0.0+0
CQUAD4        11      10      38      42      48      45   0.0+0   0.0+0
CQUAD4        12      10      45      41      46      47   0.0+0   0.0+0
CQUAD4        13      10      38      45      47      50   0.0+0   0.0+0
CQUAD4        14      10      40      43      51      49   0.0+0   0.0+0
CQUAD4        15      10      43      39      52      51   0.0+0   0.0+0
CQUAD4        16      10      42      39      43      48   0.0+0   0.0+0
$--1---><--2---><--3---><--4---><--5---><--6---><--7---><--8---><--9---><--10-->
EIGRL          1                       3       0                    MASS
ENDDATA 
