$ Generated by Mecway 33
$-----------------------EXECUTIVE CONTROL SECTION-----------------------
SOL 101
CEND
$-------------------------CASE CONTROL SECTION--------------------------
DISPLACEMENT = ALL
SPCFORCES = ALL
MPCFORCES = ALL
STRESS(CORNER) = ALL
STRAIN(CORNER) = ALL
FORCE(CORNER) = ALL
SPC = 1
LOAD = 1
BEGIN BULK
$---------------------------BULK DATA SECTION---------------------------
GRID           1       0   1.0+0   2.5-1   0.0+0       0
GRID           2       0   1.0+0   0.0+0   0.0+0       0
GRID           3       0  1.25+0   5.0-1   0.0+0       0
GRID           4       0   1.5+0   5.0-1   0.0+0       0
GRID           5       0  1.25+0   0.0+0   0.0+0       0
GRID           6       0   1.0+0   5.0-1   0.0+0       0
GRID           7       0   1.5+0   0.0+0   0.0+0       0
GRID           8       0   1.5+0   2.5-1   0.0+0       0
GRID           9       0   3.0+0   2.5-1   0.0+0       0
GRID          10       0   3.0+0   0.0+0   0.0+0       0
GRID          11       0  3.25+0   5.0-1   0.0+0       0
GRID          12       0   3.5+0   5.0-1   0.0+0       0
GRID          13       0  3.25+0   0.0+0   0.0+0       0
GRID          14       0   3.0+0   5.0-1   0.0+0       0
GRID          15       0   3.5+0   0.0+0   0.0+0       0
GRID          16       0   3.5+0   2.5-1   0.0+0       0
PARAM    STR_CID      -2
$--1---><--2---><--3---><--4---><--5---><--6---><--7---><--8---><--9---><--10-->
$$$$$$$$$$$$$$$$$$$$$$$$$$$$$$$$$$$ Material $$$$$$$$$$$$$$$$$$$$$$$$$$$$$$$$$$$
MAT1           1  2.1+11 1.05+11   0.0+0   0.0+0   0.0+0   0.0+0
$--1---><--2---><--3---><--4---><--5---><--6---><--7---><--8---><--9---><--10-->
$$$$$$$$$$$$$$$$$$$$$$$$$$$$$$$$$ Material(2) $$$$$$$$$$$$$$$$$$$$$$$$$$$$$$$$$$
MAT1           2  2.1+11 1.05+11   0.0+0   0.0+0   0.0+0   0.0+0
$--1---><--2---><--3---><--4---><--5---><--6---><--7---><--8---><--9---><--10-->
SPC            1       4       1   0.0+0
SPC            1       4       2   0.0+0
SPC            1       4       3   0.0+0
SPC            1       4       4   0.0+0
SPC            1       4       5   0.0+0
SPC            1       4       6   0.0+0
SPC            1       7       1   0.0+0
SPC            1       7       2   0.0+0
SPC            1       7       3   0.0+0
SPC            1       7       4   0.0+0
SPC            1       7       5   0.0+0
SPC            1       7       6   0.0+0
SPC            1       8       1   0.0+0
SPC            1       8       2   0.0+0
SPC            1       8       3   0.0+0
SPC            1       8       4   0.0+0
SPC            1       8       5   0.0+0
SPC            1       8       6   0.0+0
SPC            1      12       1   0.0+0
SPC            1      12       2   0.0+0
SPC            1      12       3   0.0+0
SPC            1      12       4   0.0+0
SPC            1      12       5   0.0+0
SPC            1      12       6   0.0+0
SPC            1      15       1   0.0+0
SPC            1      15       2   0.0+0
SPC            1      15       3   0.0+0
SPC            1      15       4   0.0+0
SPC            1      15       5   0.0+0
SPC            1      15       6   0.0+0
SPC            1      16       1   0.0+0
SPC            1      16       2   0.0+0
SPC            1      16       3   0.0+0
SPC            1      16       4   0.0+0
SPC            1      16       5   0.0+0
SPC            1      16       6   0.0+0
$--1---><--2---><--3---><--4---><--5---><--6---><--7---><--8---><--9---><--10-->
$$$$$$$$$$$$$$$$$$$$$$$$$$$$$$$$$$$ Default $$$$$$$$$$$$$$$$$$$$$$$$$$$$$$$$$$$$
PSHELL         1       1   1.0-2       1               1           0.0+0
CQUAD8         1       1       6       2       7       4       1       5+
+              8       3                                       2   0.0+0
CORD2R         2       0   0.0+0   0.0+0   0.0+0   1.0+0   0.0+0   0.0+0+
+          0.0+0  -1.0+0   0.0+0
$--1---><--2---><--3---><--4---><--5---><--6---><--7---><--8---><--9---><--10-->
$$$$$$$$$$$$$$$$$$$$$$$$$$$$$$$$$$ Component $$$$$$$$$$$$$$$$$$$$$$$$$$$$$$$$$$$
PSHELL         3       2   1.0-2       2               2           0.0+0
CQUAD8         2       3      14      10      15      12       9      13+
+             16      11                                       4   0.0+0
CORD2R         4       0   0.0+0   0.0+0   0.0+0   1.0+0   0.0+0   0.0+0+
+          0.0+0  -1.0+0   0.0+0
$--1---><--2---><--3---><--4---><--5---><--6---><--7---><--8---><--9---><--10-->
$$$$$$$$$$$$$$$$$$$$$$$$$$$$$$$$$$$$ force $$$$$$$$$$$$$$$$$$$$$$$$$$$$$$$$$$$$$
FORCE*                 2               6               0           1.0+0*
*                  0.0+0           0.0+0 8.33333333333+1
FORCE*                 2               1               0           1.0+0*
*                  0.0+0           0.0+0 3.33333333333+2
FORCE*                 2               2               0           1.0+0*
*                  0.0+0           0.0+0 8.33333333333+1
FORCE*                 2              14               0           1.0+0*
*                  0.0+0           0.0+0 8.33333333333+1
FORCE*                 2               9               0           1.0+0*
*                  0.0+0           0.0+0 3.33333333333+2
FORCE*                 2              10               0           1.0+0*
*                  0.0+0           0.0+0 8.33333333333+1
$--1---><--2---><--3---><--4---><--5---><--6---><--7---><--8---><--9---><--10-->
LOAD           1   1.0+0   1.0+0       2
$--1---><------2-------><------3-------><------4-------><------5-------><--6--->
PSHELL*  33                  1            0.1              2            *
*                            1                                          *
CQUAD8*   3                33               2               7           *
*         4               6                5                  8         *
*         3                1                                            *
*                                                           
ENDDATA 
