$ Generated by Mecway 33
$-----------------------EXECUTIVE CONTROL SECTION-----------------------
SOL 101
CEND
$-------------------------CASE CONTROL SECTION--------------------------
DISPLACEMENT = ALL
SPCFORCES = ALL
MPCFORCES = ALL
STRESS(CORNER) = ALL
STRAIN(CORNER) = ALL
SPC = 1
LOAD = 1
BEGIN BULK
$---------------------------BULK DATA SECTION---------------------------
GRID           1       0   0.0+0   0.0+0   0.0+0       0
GRID           2       0   1.0+0   0.0+0   0.0+0       0
GRID           3       0   1.0+0   1.0+0   0.0+0       0
GRID           4       0   0.0+0   1.0+0   0.0+0       0
GRID           5       0   0.0+0   0.0+0   1.0+0       0
GRID           6       0   1.0+0   0.0+0   1.0+0       0
GRID           7       0   1.0+0   1.0+0   1.0+0       0
GRID           8       0   0.0+0   1.0+0   1.0+0       0
GRID           9       0   5.0-1   5.0-1   1.0+0       0
GRID          10       0   0.0+0   5.0-1   1.0+0       0
GRID          11       0   5.0-1   0.0+0   0.0+0       0
GRID          12       0   1.0+0   5.0-1   0.0+0       0
GRID          13       0   5.0-1   1.0+0   0.0+0       0
GRID          14       0   0.0+0   5.0-1   0.0+0       0
GRID          15       0   0.0+0   0.0+0   5.0-1       0
GRID          16       0   1.0+0   0.0+0   5.0-1       0
GRID          17       0   1.0+0   1.0+0   5.0-1       0
GRID          18       0   0.0+0   1.0+0   5.0-1       0
GRID          19       0   5.0-1   0.0+0   1.0+0       0
GRID          20       0   1.0+0   5.0-1   1.0+0       0
GRID          21       0   5.0-1   1.0+0   1.0+0       0
GRID*                 22               0           0.0+0 1.2246063538-16*
*                  2.0+0               0
GRID*                 23               0           1.0+0 1.2246063538-16*
*                  2.0+0               0
GRID*                 24               0           1.0+0 1.8369095307-16*
*                  3.0+0               0
GRID*                 25               0           0.0+0 1.8369095307-16*
*                  3.0+0               0
GRID          26       0   0.0+0  -1.0+0   2.0+0       0
GRID          27       0   0.0+0  -1.0+0   3.0+0       0
GRID*                 28               0 3.33333333333-1-3.33333333333-1*
*                  3.0+0               0
GRID          29       0   0.0+0  -5.0-1   3.0+0       0
GRID*                 30               0           5.0-1 1.8369095307-16*
*                  3.0+0               0
GRID          31       0   5.0-1  -5.0-1   3.0+0       0
GRID          32       0   0.0+0  -1.0+0   2.5+0       0
GRID*                 33               0           0.0+0 1.5307579423-16*
*                  2.5+0               0
GRID*                 34               0           1.0+0 1.5307579423-16*
*                  2.5+0               0
GRID          35       0   0.0+0  -5.0-1   2.0+0       0
GRID*                 36               0           5.0-1 1.2246063538-16*
*                  2.0+0               0
GRID          37       0   5.0-1  -5.0-1   2.0+0       0
PARAM    STR_CID      -2
$--1---><--2---><--3---><--4---><--5---><--6---><--7---><--8---><--9---><--10-->
$$$$$$$$$$$$$$$$$$$$$$$$$$$$$$$$$$$ Material $$$$$$$$$$$$$$$$$$$$$$$$$$$$$$$$$$$
MAT1           1  1.0+11  5.0+10   0.0+0   0.0+0   0.0+0   0.0+0
$--1---><--2---><--3---><--4---><--5---><--6---><--7---><--8---><--9---><--10-->
SPC            1       1       1   0.0+0
SPC            1       1       2   0.0+0
SPC            1       1       3   0.0+0
SPC            1       2       1   0.0+0
SPC            1       2       2   0.0+0
SPC            1       2       3   0.0+0
SPC            1       3       1   0.0+0
SPC            1       3       2   0.0+0
SPC            1       3       3   0.0+0
SPC            1       4       1   0.0+0
SPC            1       4       2   0.0+0
SPC            1       4       3   0.0+0
SPC            1      11       1   0.0+0
SPC            1      11       2   0.0+0
SPC            1      11       3   0.0+0
SPC            1      12       1   0.0+0
SPC            1      12       2   0.0+0
SPC            1      12       3   0.0+0
SPC            1      13       1   0.0+0
SPC            1      13       2   0.0+0
SPC            1      13       3   0.0+0
SPC            1      14       1   0.0+0
SPC            1      14       2   0.0+0
SPC            1      14       3   0.0+0
SPC            1      22       1   0.0+0
SPC            1      22       2   0.0+0
SPC            1      22       3   0.0+0
SPC            1      23       1   0.0+0
SPC            1      23       2   0.0+0
SPC            1      23       3   0.0+0
SPC            1      26       1   0.0+0
SPC            1      26       2   0.0+0
SPC            1      26       3   0.0+0
SPC            1      35       1   0.0+0
SPC            1      35       2   0.0+0
SPC            1      35       3   0.0+0
SPC            1      36       1   0.0+0
SPC            1      36       2   0.0+0
SPC            1      36       3   0.0+0
SPC            1      37       1   0.0+0
SPC            1      37       2   0.0+0
SPC            1      37       3   0.0+0
$--1---><--2---><--3---><--4---><--5---><--6---><--7---><--8---><--9---><--10-->
$$$$$$$$$$$$$$$$$$$$$$$$$$$$$$$$$$$ Default $$$$$$$$$$$$$$$$$$$$$$$$$$$$$$$$$$$$
PSOLID         1       1       0       3               1
CHEXA          1       1       8       4       3       7       5       1+
+              2       6      18      13      17      21      10      14+
+             12      20      15      11      16      19
PSOLID         2       1       0       3               1
CPENTA         2       2      27      25      24      26      22      23+
+             29      30      31      32      33      34      35      36+
+             37
$--1---><--2---><--3---><--4---><--5---><--6---><--7---><--8---><--9---><--10-->
$$$$$$$$$$$$$$$$$$$$$$$$$$$$$$$$$$$$ force $$$$$$$$$$$$$$$$$$$$$$$$$$$$$$$$$$$$$
FORCE          2       9       0   1.0+0   0.0+0   0.0+0   1.0+6
$--1---><--2---><--3---><--4---><--5---><--6---><--7---><--8---><--9---><--10-->
$$$$$$$$$$$$$$$$$$$$$$$$$$$$$$$$$$$$ force $$$$$$$$$$$$$$$$$$$$$$$$$$$$$$$$$$$$$
FORCE          2      28       0   1.0+0   0.0+0   0.0+0   5.0+5
$--1---><--2---><--3---><--4---><--5---><--6---><--7---><--8---><--9---><--10-->
$$$$$$$$$$$$$$$$$$$$$$$$$$$$ node-surface coupling $$$$$$$$$$$$$$$$$$$$$$$$$$$$$
RBE3*                  3                               9          123456*
*       -8.33333333333-2             123               7 3.33333333333-1*
*                    123              21-8.33333333333-2             123*
*                      8 3.33333333333-1             123              10*
*       -8.33333333333-2             123               5 3.33333333333-1*
*                    123              19-8.33333333333-2             123*
*                      6 3.33333333333-1             123              20*
*       
$--1---><--2---><--3---><--4---><--5---><--6---><--7---><--8---><--9---><--10-->
$$$$$$$$$$$$$$$$$$$$$$$$$$$$ node-surface coupling $$$$$$$$$$$$$$$$$$$$$$$$$$$$$
RBE3*                  4                              28          123456*
*        2.3673591733-11             123              27 1.66666666802-1*
*                    123              31-3.9295977063-11             123*
*                     24  1.6666666655-1             123              30*
*       -3.9295993542-11             123              25 1.66666666802-1*
*                    123              29
$--1---><--2---><--3---><--4---><--5---><--6---><--7---><--8---><--9---><--10-->
LOAD           1   1.0+0   1.0+0       2
ENDDATA 
