$ Generated by Mecway 33
$-----------------------EXECUTIVE CONTROL SECTION-----------------------
SOL 101
CEND
$-------------------------CASE CONTROL SECTION--------------------------
DISPLACEMENT = ALL
SPCFORCES = ALL
MPCFORCES = ALL
STRESS(CORNER) = ALL
SPC = 1
LOAD = 1
BEGIN BULK
$---------------------------BULK DATA SECTION---------------------------
GRID           1       0   0.0+0   0.0+0   0.0+0       0
GRID           2       0   1.0+0   0.0+0   0.0+0       0
GRID           3       0   1.0+0   1.0+0   0.0+0       0
GRID           4       0   0.0+0   1.0+0   0.0+0       0
GRID           5       0   0.0+0   0.0+0   1.0+0       0
GRID           6       0   1.0+0   0.0+0   1.0+0       0
GRID           7       0   1.0+0   1.0+0   1.0+0       0
GRID           8       0   0.0+0   1.0+0   1.0+0       0
GRID           9       0   2.0+0   0.0+0   0.0+0       0
GRID          10       0   3.0+0   0.0+0   0.0+0       0
GRID          11       0   3.0+0   1.0+0   0.0+0       0
GRID          12       0   2.0+0   1.0+0   0.0+0       0
GRID          13       0   2.0+0   0.0+0   1.0+0       0
GRID          14       0   3.0+0   0.0+0   1.0+0       0
GRID          15       0   3.0+0   1.0+0   1.0+0       0
GRID          16       0   2.0+0   1.0+0   1.0+0       0
GRID          17       0   4.0+0   0.0+0   0.0+0       0
GRID          18       0   5.0+0   0.0+0   0.0+0       0
GRID          19       0   5.0+0   1.0+0   0.0+0       0
GRID          20       0   4.0+0   1.0+0   0.0+0       0
GRID          21       0   4.0+0   0.0+0   1.0+0       0
GRID          22       0   5.0+0   0.0+0   1.0+0       0
GRID          23       0   5.0+0   1.0+0   1.0+0       0
GRID          24       0   4.0+0   1.0+0   1.0+0       0
GRID*                 25               0           1.5+0 2.29747414589+0*
*                  3.0-1               0
GRID*                 26               0           3.5+0 2.29747414589+0*
*                  3.0-1               0
GRID          27       0   1.5+0   1.0+0   2.0+0       0
GRID          28       0   2.5+0   1.0+0   2.0+0       0
GRID          29       0   2.5+0   2.0+0   2.0+0       0
GRID          30       0   1.5+0   2.0+0   2.0+0       0
GRID          31       0   1.5+0   1.0+0   3.0+0       0
GRID          32       0   2.5+0   1.0+0   3.0+0       0
GRID          33       0   2.5+0   2.0+0   3.0+0       0
GRID          34       0   1.5+0   2.0+0   3.0+0       0
PARAM    STR_CID      -2
$--1---><--2---><--3---><--4---><--5---><--6---><--7---><--8---><--9---><--10-->
$$$$$$$$$$$$$$$$$$$$$$$$$$$$$$$$$$$ Material $$$$$$$$$$$$$$$$$$$$$$$$$$$$$$$$$$$
MAT1           1  1.0+11  5.0+10   0.0+0   0.0+0   0.0+0   0.0+0
$--1---><--2---><--3---><--4---><--5---><--6---><--7---><--8---><--9---><--10-->
SPC            1       1       1   0.0+0
SPC            1       1       2   0.0+0
SPC            1       1       3   0.0+0
SPC            1       2       1   0.0+0
SPC            1       2       2   0.0+0
SPC            1       2       3   0.0+0
SPC            1       5       1   0.0+0
SPC            1       5       2   0.0+0
SPC            1       5       3   0.0+0
SPC            1       6       1   0.0+0
SPC            1       6       2   0.0+0
SPC            1       6       3   0.0+0
SPC            1       9       1   0.0+0
SPC            1       9       2   0.0+0
SPC            1       9       3   0.0+0
SPC            1      10       1   0.0+0
SPC            1      10       2   0.0+0
SPC            1      10       3   0.0+0
SPC            1      13       1   0.0+0
SPC            1      13       2   0.0+0
SPC            1      13       3   0.0+0
SPC            1      14       1   0.0+0
SPC            1      14       2   0.0+0
SPC            1      14       3   0.0+0
SPC            1      17       1   0.0+0
SPC            1      17       2   0.0+0
SPC            1      17       3   0.0+0
SPC            1      18       1   0.0+0
SPC            1      18       2   0.0+0
SPC            1      18       3   0.0+0
SPC            1      21       1   0.0+0
SPC            1      21       2   0.0+0
SPC            1      21       3   0.0+0
SPC            1      22       1   0.0+0
SPC            1      22       2   0.0+0
SPC            1      22       3   0.0+0
SPC            1      31       2   0.0+0
SPC            1      31       1   0.0+0
SPC            1      32       2   0.0+0
$--1---><--2---><--3---><--4---><--5---><--6---><--7---><--8---><--9---><--10-->
$$$$$$$$$$$$$$$$$$$$$$$$$$$$$$$$$$$ Default $$$$$$$$$$$$$$$$$$$$$$$$$$$$$$$$$$$$
PSOLID         1       1       0       2               1
CHEXA          1       1       1       2       3       4       5       6+
+              7       8
CHEXA          2       1       9      10      11      12      13      14+
+             15      16
CHEXA          3       1      17      18      19      20      21      22+
+             23      24
CHEXA          4       1      27      28      29      30      31      32+
+             33      34
$--1---><--2---><--3---><--4---><--5---><--6---><--7---><--8---><--9---><--10-->
$$$$$$$$$$$$$$$$$$$$$$$$$$$$$$$$$$$$ force $$$$$$$$$$$$$$$$$$$$$$$$$$$$$$$$$$$$$
FORCE          2      25       0   1.0+0   0.0+0   1.0+2   0.0+0
$--1---><--2---><--3---><--4---><--5---><--6---><--7---><--8---><--9---><--10-->
$$$$$$$$$$$$$$$$$$$$$$$$$$$$ node-surface coupling $$$$$$$$$$$$$$$$$$$$$$$$$$$$$
RBE3           5              25  123456   2.5-1     123       3   2.5-1+
+            123       4   2.5-1     123       8   2.5-1     123       7+
+          2.5-1     123      11   2.5-1     123      12   2.5-1     123+
+             16   2.5-1     123      15
$--1---><--2---><--3---><--4---><--5---><--6---><--7---><--8---><--9---><--10-->
$$$$$$$$$$$$$$$$$$$$$$$$$$$$ node-surface coupling $$$$$$$$$$$$$$$$$$$$$$$$$$$$$
RBE3           6              26  123456   2.5-1     123      11   2.5-1+
+            123      12   2.5-1     123      16   2.5-1     123      15+
+          2.5-1     123      19   2.5-1     123      20   2.5-1     123+
+             24   2.5-1     123      23
$--1---><--2---><--3---><--4---><--5---><--6---><--7---><--8---><--9---><--10-->
$$$$$$$$$$$$$$$$$$$$$$$$$$$$ node-surface coupling $$$$$$$$$$$$$$$$$$$$$$$$$$$$$
RBE2           7      16     123      27      30      29      28
$--1---><--2---><--3---><--4---><--5---><--6---><--7---><--8---><--9---><--10-->
LOAD           1   1.0+0   1.0+0       2
ENDDATA 
