$ Generated by Mecway 33
$-----------------------EXECUTIVE CONTROL SECTION-----------------------
SOL 101
CEND
$-------------------------CASE CONTROL SECTION--------------------------
DISPLACEMENT = ALL
SPCFORCES = ALL
MPCFORCES = ALL
SPC = 1
LOAD = 1
BEGIN BULK
$---------------------------BULK DATA SECTION---------------------------
GRID           1       0   0.0+0   0.0+0   0.0+0       0
GRID           2       0   1.0+0   0.0+0   0.0+0       0
GRID           3       0   1.0+0   1.0+0   0.0+0       0
GRID           4       0   0.0+0   1.0+0   0.0+0       0
GRID           5       0   0.0+0   0.0+0   1.0+0       0
GRID           6       0   1.0+0   0.0+0   1.0+0       0
GRID           7       0   1.0+0   1.0+0   1.0+0       0
GRID           8       0   0.0+0   1.0+0   1.0+0       0
GRID           9       0   5.0-1   5.0-1   1.0+0       0
GRID          10       0   0.0+0   5.0-1   1.0+0       0
GRID          11       0   5.0-1   0.0+0   0.0+0       0
GRID          12       0   1.0+0   5.0-1   0.0+0       0
GRID          13       0   5.0-1   1.0+0   0.0+0       0
GRID          14       0   0.0+0   5.0-1   0.0+0       0
GRID          15       0   0.0+0   0.0+0   5.0-1       0
GRID          16       0   1.0+0   0.0+0   5.0-1       0
GRID          17       0   1.0+0   1.0+0   5.0-1       0
GRID          18       0   0.0+0   1.0+0   5.0-1       0
GRID          19       0   5.0-1   0.0+0   1.0+0       0
GRID          20       0   1.0+0   5.0-1   1.0+0       0
GRID          21       0   5.0-1   1.0+0   1.0+0       0
GRID          22       0   0.0+0   2.0+0   0.0+0       0
GRID          23       0   1.0+0   2.0+0   0.0+0       0
GRID          24       0   1.0+0   3.0+0   0.0+0       0
GRID          25       0   0.0+0   3.0+0   0.0+0       0
GRID          26       0   0.0+0   2.0+0   1.0+0       0
GRID          27       0   1.0+0   2.0+0   1.0+0       0
GRID          28       0   1.0+0   3.0+0   1.0+0       0
GRID          29       0   0.0+0   3.0+0   1.0+0       0
GRID          30       0   0.0+0   2.5+0   1.0+0       0
GRID          31       0   5.0-1   2.0+0   0.0+0       0
GRID          32       0   1.0+0   2.5+0   0.0+0       0
GRID          33       0   5.0-1   3.0+0   0.0+0       0
GRID          34       0   0.0+0   2.5+0   0.0+0       0
GRID          35       0   0.0+0   2.0+0   5.0-1       0
GRID          36       0   1.0+0   2.0+0   5.0-1       0
GRID          37       0   1.0+0   3.0+0   5.0-1       0
GRID          38       0   0.0+0   3.0+0   5.0-1       0
GRID          39       0   5.0-1   2.0+0   1.0+0       0
GRID          40       0   1.0+0   2.5+0   1.0+0       0
GRID          41       0   5.0-1   3.0+0   1.0+0       0
GRID          42       0   5.0-1   2.5+0   1.0+0       0
GRID          43       0   0.0+0   3.0+0   7.5-1       0
GRID          44       0   0.0+0   3.0+0   2.5-1       0
GRID          45       0   2.5-1   3.0+0   0.0+0       0
GRID          46       0   7.5-1   3.0+0   0.0+0       0
GRID          47       0   1.0+0   3.0+0   2.5-1       0
GRID          48       0   1.0+0   3.0+0   7.5-1       0
GRID          49       0   7.5-1   3.0+0   1.0+0       0
GRID          50       0   2.5-1   3.0+0   1.0+0       0
GRID          51       0   0.0+0   2.0+0   7.5-1       0
GRID          52       0   0.0+0   2.0+0   2.5-1       0
GRID          53       0   2.5-1   2.0+0   0.0+0       0
GRID          54       0   7.5-1   2.0+0   0.0+0       0
GRID          55       0   1.0+0   2.0+0   2.5-1       0
GRID          56       0   1.0+0   2.0+0   7.5-1       0
GRID          57       0   7.5-1   2.0+0   1.0+0       0
GRID          58       0   2.5-1   2.0+0   1.0+0       0
GRID          59       0   0.0+0  2.75+0   1.0+0       0
GRID          60       0   0.0+0  2.25+0   1.0+0       0
GRID          61       0   0.0+0  2.75+0   0.0+0       0
GRID          62       0   0.0+0  2.25+0   0.0+0       0
GRID          63       0   1.0+0  2.75+0   0.0+0       0
GRID          64       0   1.0+0  2.25+0   0.0+0       0
GRID          65       0   1.0+0  2.75+0   1.0+0       0
GRID          66       0   1.0+0  2.25+0   1.0+0       0
GRID          67       0   5.0-1   3.0+0   5.0-1       0
GRID          68       0   2.5-1   3.0+0   5.0-1       0
GRID          69       0   5.0-1   3.0+0   2.5-1       0
GRID          70       0   7.5-1   3.0+0   5.0-1       0
GRID          71       0   5.0-1   3.0+0   7.5-1       0
GRID          72       0   5.0-1   2.0+0   5.0-1       0
GRID          73       0   2.5-1   2.0+0   5.0-1       0
GRID          74       0   5.0-1   2.0+0   2.5-1       0
GRID          75       0   7.5-1   2.0+0   5.0-1       0
GRID          76       0   5.0-1   2.0+0   7.5-1       0
GRID          77       0   0.0+0   2.5+0   5.0-1       0
GRID          78       0   0.0+0  2.75+0   5.0-1       0
GRID          79       0   0.0+0   2.5+0   2.5-1       0
GRID          80       0   0.0+0  2.25+0   5.0-1       0
GRID          81       0   0.0+0   2.5+0   7.5-1       0
GRID          82       0   5.0-1   2.5+0   0.0+0       0
GRID          83       0   5.0-1  2.75+0   0.0+0       0
GRID          84       0   7.5-1   2.5+0   0.0+0       0
GRID          85       0   5.0-1  2.25+0   0.0+0       0
GRID          86       0   2.5-1   2.5+0   0.0+0       0
GRID          87       0   1.0+0   2.5+0   5.0-1       0
GRID          88       0   1.0+0  2.75+0   5.0-1       0
GRID          89       0   1.0+0   2.5+0   7.5-1       0
GRID          90       0   1.0+0  2.25+0   5.0-1       0
GRID          91       0   1.0+0   2.5+0   2.5-1       0
GRID          92       0   5.0-1   2.5+0   1.0+0       0
GRID          93       0   5.0-1  2.75+0   1.0+0       0
GRID          94       0   7.5-1   2.5+0   1.0+0       0
GRID          95       0   5.0-1  2.25+0   1.0+0       0
GRID          96       0   2.5-1   2.5+0   1.0+0       0
GRID          97       0   5.0-1   2.5+0   5.0-1       0
GRID          98       0   5.0-1  2.75+0   5.0-1       0
GRID          99       0   5.0-1  2.25+0   5.0-1       0
GRID         100       0   2.5-1   2.5+0   5.0-1       0
GRID         101       0   5.0-1   2.5+0   2.5-1       0
GRID         102       0   7.5-1   2.5+0   5.0-1       0
GRID         103       0   5.0-1   2.5+0   7.5-1       0
GRID         104       0   5.0-1   2.5+0  8.75-1       0
GRID         105       0   5.0-1   2.5+0  6.25-1       0
GRID         106       0  6.25-1   2.5+0   5.0-1       0
GRID         107       0  8.75-1   2.5+0   5.0-1       0
GRID         108       0   1.0+0   2.5+0  6.25-1       0
GRID         109       0   1.0+0   2.5+0  8.75-1       0
GRID         110       0  8.75-1   2.5+0   1.0+0       0
GRID         111       0  6.25-1   2.5+0   1.0+0       0
GRID         112       0   5.0-1   2.0+0  8.75-1       0
GRID         113       0   5.0-1   2.0+0  6.25-1       0
GRID         114       0  6.25-1   2.0+0   5.0-1       0
GRID         115       0  8.75-1   2.0+0   5.0-1       0
GRID         116       0   1.0+0   2.0+0  6.25-1       0
GRID         117       0   1.0+0   2.0+0  8.75-1       0
GRID         118       0  8.75-1   2.0+0   1.0+0       0
GRID         119       0  6.25-1   2.0+0   1.0+0       0
GRID         120       0   5.0-1 2.375+0   1.0+0       0
GRID         121       0   5.0-1 2.125+0   1.0+0       0
GRID         122       0   5.0-1 2.375+0   5.0-1       0
GRID         123       0   5.0-1 2.125+0   5.0-1       0
GRID         124       0   1.0+0 2.375+0   5.0-1       0
GRID         125       0   1.0+0 2.125+0   5.0-1       0
GRID         126       0   1.0+0 2.375+0   1.0+0       0
GRID         127       0   1.0+0 2.125+0   1.0+0       0
GRID         128       0   7.5-1   2.5+0   7.5-1       0
GRID         129       0  6.25-1   2.5+0   7.5-1       0
GRID         130       0   7.5-1   2.5+0  6.25-1       0
GRID         131       0  8.75-1   2.5+0   7.5-1       0
GRID         132       0   7.5-1   2.5+0  8.75-1       0
GRID         133       0   7.5-1   2.0+0   7.5-1       0
GRID         134       0  6.25-1   2.0+0   7.5-1       0
GRID         135       0   7.5-1   2.0+0  6.25-1       0
GRID         136       0  8.75-1   2.0+0   7.5-1       0
GRID         137       0   7.5-1   2.0+0  8.75-1       0
GRID         138       0   5.0-1  2.25+0   7.5-1       0
GRID         139       0   5.0-1 2.375+0   7.5-1       0
GRID         140       0   5.0-1  2.25+0  6.25-1       0
GRID         141       0   5.0-1 2.125+0   7.5-1       0
GRID         142       0   5.0-1  2.25+0  8.75-1       0
GRID         143       0   7.5-1  2.25+0   5.0-1       0
GRID         144       0   7.5-1 2.375+0   5.0-1       0
GRID         145       0  8.75-1  2.25+0   5.0-1       0
GRID         146       0   7.5-1 2.125+0   5.0-1       0
GRID         147       0  6.25-1  2.25+0   5.0-1       0
GRID         148       0   1.0+0  2.25+0   7.5-1       0
GRID         149       0   1.0+0 2.375+0   7.5-1       0
GRID         150       0   1.0+0  2.25+0  8.75-1       0
GRID         151       0   1.0+0 2.125+0   7.5-1       0
GRID         152       0   1.0+0  2.25+0  6.25-1       0
GRID         153       0   7.5-1  2.25+0   1.0+0       0
GRID         154       0   7.5-1 2.375+0   1.0+0       0
GRID         155       0  8.75-1  2.25+0   1.0+0       0
GRID         156       0   7.5-1 2.125+0   1.0+0       0
GRID         157       0  6.25-1  2.25+0   1.0+0       0
GRID         158       0   7.5-1  2.25+0   7.5-1       0
GRID         159       0   7.5-1 2.375+0   7.5-1       0
GRID         160       0   7.5-1 2.125+0   7.5-1       0
GRID         161       0  6.25-1  2.25+0   7.5-1       0
GRID         162       0   7.5-1  2.25+0  6.25-1       0
GRID         163       0  8.75-1  2.25+0   7.5-1       0
GRID         164       0   7.5-1  2.25+0  8.75-1       0
GRID         165       0   0.0+0   3.0+0  8.75-1       0
GRID         166       0   0.0+0   3.0+0  6.25-1       0
GRID         167       0  1.25-1   3.0+0   5.0-1       0
GRID         168       0  3.75-1   3.0+0   5.0-1       0
GRID         169       0   5.0-1   3.0+0  6.25-1       0
GRID         170       0   5.0-1   3.0+0  8.75-1       0
GRID         171       0  3.75-1   3.0+0   1.0+0       0
GRID         172       0  1.25-1   3.0+0   1.0+0       0
GRID         173       0   0.0+0   2.5+0  8.75-1       0
GRID         174       0   0.0+0   2.5+0  6.25-1       0
GRID         175       0  1.25-1   2.5+0   5.0-1       0
GRID         176       0  3.75-1   2.5+0   5.0-1       0
GRID         177       0  3.75-1   2.5+0   1.0+0       0
GRID         178       0  1.25-1   2.5+0   1.0+0       0
GRID         179       0   0.0+0 2.875+0   1.0+0       0
GRID         180       0   0.0+0 2.625+0   1.0+0       0
GRID         181       0   0.0+0 2.875+0   5.0-1       0
GRID         182       0   0.0+0 2.625+0   5.0-1       0
GRID         183       0   5.0-1 2.875+0   5.0-1       0
GRID         184       0   5.0-1 2.625+0   5.0-1       0
GRID         185       0   5.0-1 2.875+0   1.0+0       0
GRID         186       0   5.0-1 2.625+0   1.0+0       0
GRID         187       0   2.5-1   3.0+0   7.5-1       0
GRID         188       0  1.25-1   3.0+0   7.5-1       0
GRID         189       0   2.5-1   3.0+0  6.25-1       0
GRID         190       0  3.75-1   3.0+0   7.5-1       0
GRID         191       0   2.5-1   3.0+0  8.75-1       0
GRID         192       0   2.5-1   2.5+0   7.5-1       0
GRID         193       0  1.25-1   2.5+0   7.5-1       0
GRID         194       0   2.5-1   2.5+0  6.25-1       0
GRID         195       0  3.75-1   2.5+0   7.5-1       0
GRID         196       0   2.5-1   2.5+0  8.75-1       0
GRID         197       0   0.0+0  2.75+0   7.5-1       0
GRID         198       0   0.0+0 2.875+0   7.5-1       0
GRID         199       0   0.0+0  2.75+0  6.25-1       0
GRID         200       0   0.0+0 2.625+0   7.5-1       0
GRID         201       0   0.0+0  2.75+0  8.75-1       0
GRID         202       0   2.5-1  2.75+0   5.0-1       0
GRID         203       0   2.5-1 2.875+0   5.0-1       0
GRID         204       0  3.75-1  2.75+0   5.0-1       0
GRID         205       0   2.5-1 2.625+0   5.0-1       0
GRID         206       0  1.25-1  2.75+0   5.0-1       0
GRID         207       0   5.0-1  2.75+0   7.5-1       0
GRID         208       0   5.0-1 2.875+0   7.5-1       0
GRID         209       0   5.0-1  2.75+0  8.75-1       0
GRID         210       0   5.0-1 2.625+0   7.5-1       0
GRID         211       0   5.0-1  2.75+0  6.25-1       0
GRID         212       0   2.5-1  2.75+0   1.0+0       0
GRID         213       0   2.5-1 2.875+0   1.0+0       0
GRID         214       0  3.75-1  2.75+0   1.0+0       0
GRID         215       0   2.5-1 2.625+0   1.0+0       0
GRID         216       0  1.25-1  2.75+0   1.0+0       0
GRID         217       0   2.5-1  2.75+0   7.5-1       0
GRID         218       0   2.5-1 2.875+0   7.5-1       0
GRID         219       0   2.5-1 2.625+0   7.5-1       0
GRID         220       0  1.25-1  2.75+0   7.5-1       0
GRID         221       0   2.5-1  2.75+0  6.25-1       0
GRID         222       0  3.75-1  2.75+0   7.5-1       0
GRID         223       0   2.5-1  2.75+0  8.75-1       0
GRID         224       0   0.0+0   3.0+0  3.75-1       0
GRID         225       0   0.0+0   3.0+0  1.25-1       0
GRID         226       0  1.25-1   3.0+0   0.0+0       0
GRID         227       0  3.75-1   3.0+0   0.0+0       0
GRID         228       0   5.0-1   3.0+0  1.25-1       0
GRID         229       0   5.0-1   3.0+0  3.75-1       0
GRID         230       0   0.0+0   2.5+0  3.75-1       0
GRID         231       0   0.0+0   2.5+0  1.25-1       0
GRID         232       0  1.25-1   2.5+0   0.0+0       0
GRID         233       0  3.75-1   2.5+0   0.0+0       0
GRID         234       0   5.0-1   2.5+0  1.25-1       0
GRID         235       0   5.0-1   2.5+0  3.75-1       0
GRID         236       0   0.0+0 2.875+0   0.0+0       0
GRID         237       0   0.0+0 2.625+0   0.0+0       0
GRID         238       0   5.0-1 2.875+0   0.0+0       0
GRID         239       0   5.0-1 2.625+0   0.0+0       0
GRID         240       0   2.5-1   3.0+0   2.5-1       0
GRID         241       0  1.25-1   3.0+0   2.5-1       0
GRID         242       0   2.5-1   3.0+0  1.25-1       0
GRID         243       0  3.75-1   3.0+0   2.5-1       0
GRID         244       0   2.5-1   3.0+0  3.75-1       0
GRID         245       0   2.5-1   2.5+0   2.5-1       0
GRID         246       0  1.25-1   2.5+0   2.5-1       0
GRID         247       0   2.5-1   2.5+0  1.25-1       0
GRID         248       0  3.75-1   2.5+0   2.5-1       0
GRID         249       0   2.5-1   2.5+0  3.75-1       0
GRID         250       0   0.0+0  2.75+0   2.5-1       0
GRID         251       0   0.0+0 2.875+0   2.5-1       0
GRID         252       0   0.0+0  2.75+0  1.25-1       0
GRID         253       0   0.0+0 2.625+0   2.5-1       0
GRID         254       0   0.0+0  2.75+0  3.75-1       0
GRID         255       0   2.5-1  2.75+0   0.0+0       0
GRID         256       0   2.5-1 2.875+0   0.0+0       0
GRID         257       0  3.75-1  2.75+0   0.0+0       0
GRID         258       0   2.5-1 2.625+0   0.0+0       0
GRID         259       0  1.25-1  2.75+0   0.0+0       0
GRID         260       0   5.0-1  2.75+0   2.5-1       0
GRID         261       0   5.0-1 2.875+0   2.5-1       0
GRID         262       0   5.0-1  2.75+0  3.75-1       0
GRID         263       0   5.0-1 2.625+0   2.5-1       0
GRID         264       0   5.0-1  2.75+0  1.25-1       0
GRID         265       0   2.5-1  2.75+0   2.5-1       0
GRID         266       0   2.5-1 2.875+0   2.5-1       0
GRID         267       0   2.5-1 2.625+0   2.5-1       0
GRID         268       0  1.25-1  2.75+0   2.5-1       0
GRID         269       0   2.5-1  2.75+0  1.25-1       0
GRID         270       0  3.75-1  2.75+0   2.5-1       0
GRID         271       0   2.5-1  2.75+0  3.75-1       0
GRID         272       0  6.25-1   3.0+0   0.0+0       0
GRID         273       0  8.75-1   3.0+0   0.0+0       0
GRID         274       0   1.0+0   3.0+0  1.25-1       0
GRID         275       0   1.0+0   3.0+0  3.75-1       0
GRID         276       0  8.75-1   3.0+0   5.0-1       0
GRID         277       0  6.25-1   3.0+0   5.0-1       0
GRID         278       0  6.25-1   2.5+0   0.0+0       0
GRID         279       0  8.75-1   2.5+0   0.0+0       0
GRID         280       0   1.0+0   2.5+0  1.25-1       0
GRID         281       0   1.0+0   2.5+0  3.75-1       0
GRID         282       0   1.0+0 2.875+0   0.0+0       0
GRID         283       0   1.0+0 2.625+0   0.0+0       0
GRID         284       0   1.0+0 2.875+0   5.0-1       0
GRID         285       0   1.0+0 2.625+0   5.0-1       0
GRID         286       0   7.5-1   3.0+0   2.5-1       0
GRID         287       0  6.25-1   3.0+0   2.5-1       0
GRID         288       0   7.5-1   3.0+0  1.25-1       0
GRID         289       0  8.75-1   3.0+0   2.5-1       0
GRID         290       0   7.5-1   3.0+0  3.75-1       0
GRID         291       0   7.5-1   2.5+0   2.5-1       0
GRID         292       0  6.25-1   2.5+0   2.5-1       0
GRID         293       0   7.5-1   2.5+0  1.25-1       0
GRID         294       0  8.75-1   2.5+0   2.5-1       0
GRID         295       0   7.5-1   2.5+0  3.75-1       0
GRID         296       0   7.5-1  2.75+0   0.0+0       0
GRID         297       0   7.5-1 2.875+0   0.0+0       0
GRID         298       0  8.75-1  2.75+0   0.0+0       0
GRID         299       0   7.5-1 2.625+0   0.0+0       0
GRID         300       0  6.25-1  2.75+0   0.0+0       0
GRID         301       0   1.0+0  2.75+0   2.5-1       0
GRID         302       0   1.0+0 2.875+0   2.5-1       0
GRID         303       0   1.0+0  2.75+0  3.75-1       0
GRID         304       0   1.0+0 2.625+0   2.5-1       0
GRID         305       0   1.0+0  2.75+0  1.25-1       0
GRID         306       0   7.5-1  2.75+0   5.0-1       0
GRID         307       0   7.5-1 2.875+0   5.0-1       0
GRID         308       0  8.75-1  2.75+0   5.0-1       0
GRID         309       0   7.5-1 2.625+0   5.0-1       0
GRID         310       0  6.25-1  2.75+0   5.0-1       0
GRID         311       0   7.5-1  2.75+0   2.5-1       0
GRID         312       0   7.5-1 2.875+0   2.5-1       0
GRID         313       0   7.5-1 2.625+0   2.5-1       0
GRID         314       0  6.25-1  2.75+0   2.5-1       0
GRID         315       0   7.5-1  2.75+0  1.25-1       0
GRID         316       0  8.75-1  2.75+0   2.5-1       0
GRID         317       0   7.5-1  2.75+0  3.75-1       0
GRID         318       0   1.0+0   3.0+0  6.25-1       0
GRID         319       0   1.0+0   3.0+0  8.75-1       0
GRID         320       0  8.75-1   3.0+0   1.0+0       0
GRID         321       0  6.25-1   3.0+0   1.0+0       0
GRID         322       0   1.0+0 2.875+0   1.0+0       0
GRID         323       0   1.0+0 2.625+0   1.0+0       0
GRID         324       0   7.5-1   3.0+0   7.5-1       0
GRID         325       0  6.25-1   3.0+0   7.5-1       0
GRID         326       0   7.5-1   3.0+0  6.25-1       0
GRID         327       0  8.75-1   3.0+0   7.5-1       0
GRID         328       0   7.5-1   3.0+0  8.75-1       0
GRID         329       0   1.0+0  2.75+0   7.5-1       0
GRID         330       0   1.0+0 2.875+0   7.5-1       0
GRID         331       0   1.0+0  2.75+0  8.75-1       0
GRID         332       0   1.0+0 2.625+0   7.5-1       0
GRID         333       0   1.0+0  2.75+0  6.25-1       0
GRID         334       0   7.5-1  2.75+0   1.0+0       0
GRID         335       0   7.5-1 2.875+0   1.0+0       0
GRID         336       0  8.75-1  2.75+0   1.0+0       0
GRID         337       0   7.5-1 2.625+0   1.0+0       0
GRID         338       0  6.25-1  2.75+0   1.0+0       0
GRID         339       0   7.5-1  2.75+0   7.5-1       0
GRID         340       0   7.5-1 2.875+0   7.5-1       0
GRID         341       0   7.5-1 2.625+0   7.5-1       0
GRID         342       0  6.25-1  2.75+0   7.5-1       0
GRID         343       0   7.5-1  2.75+0  6.25-1       0
GRID         344       0  8.75-1  2.75+0   7.5-1       0
GRID         345       0   7.5-1  2.75+0  8.75-1       0
GRID         346       0   0.0+0   2.0+0  8.75-1       0
GRID         347       0   0.0+0   2.0+0  6.25-1       0
GRID         348       0  1.25-1   2.0+0   5.0-1       0
GRID         349       0  3.75-1   2.0+0   5.0-1       0
GRID         350       0  3.75-1   2.0+0   1.0+0       0
GRID         351       0  1.25-1   2.0+0   1.0+0       0
GRID         352       0   0.0+0 2.375+0   1.0+0       0
GRID         353       0   0.0+0 2.125+0   1.0+0       0
GRID         354       0   0.0+0 2.375+0   5.0-1       0
GRID         355       0   0.0+0 2.125+0   5.0-1       0
GRID         356       0   2.5-1   2.0+0   7.5-1       0
GRID         357       0  1.25-1   2.0+0   7.5-1       0
GRID         358       0   2.5-1   2.0+0  6.25-1       0
GRID         359       0  3.75-1   2.0+0   7.5-1       0
GRID         360       0   2.5-1   2.0+0  8.75-1       0
GRID         361       0   0.0+0  2.25+0   7.5-1       0
GRID         362       0   0.0+0 2.375+0   7.5-1       0
GRID         363       0   0.0+0  2.25+0  6.25-1       0
GRID         364       0   0.0+0 2.125+0   7.5-1       0
GRID         365       0   0.0+0  2.25+0  8.75-1       0
GRID         366       0   2.5-1  2.25+0   5.0-1       0
GRID         367       0   2.5-1 2.375+0   5.0-1       0
GRID         368       0  3.75-1  2.25+0   5.0-1       0
GRID         369       0   2.5-1 2.125+0   5.0-1       0
GRID         370       0  1.25-1  2.25+0   5.0-1       0
GRID         371       0   2.5-1  2.25+0   1.0+0       0
GRID         372       0   2.5-1 2.375+0   1.0+0       0
GRID         373       0  3.75-1  2.25+0   1.0+0       0
GRID         374       0   2.5-1 2.125+0   1.0+0       0
GRID         375       0  1.25-1  2.25+0   1.0+0       0
GRID         376       0   2.5-1  2.25+0   7.5-1       0
GRID         377       0   2.5-1 2.375+0   7.5-1       0
GRID         378       0   2.5-1 2.125+0   7.5-1       0
GRID         379       0  1.25-1  2.25+0   7.5-1       0
GRID         380       0   2.5-1  2.25+0  6.25-1       0
GRID         381       0  3.75-1  2.25+0   7.5-1       0
GRID         382       0   2.5-1  2.25+0  8.75-1       0
GRID         383       0   0.0+0   2.0+0  3.75-1       0
GRID         384       0   0.0+0   2.0+0  1.25-1       0
GRID         385       0  1.25-1   2.0+0   0.0+0       0
GRID         386       0  3.75-1   2.0+0   0.0+0       0
GRID         387       0   5.0-1   2.0+0  1.25-1       0
GRID         388       0   5.0-1   2.0+0  3.75-1       0
GRID         389       0   0.0+0 2.375+0   0.0+0       0
GRID         390       0   0.0+0 2.125+0   0.0+0       0
GRID         391       0   5.0-1 2.375+0   0.0+0       0
GRID         392       0   5.0-1 2.125+0   0.0+0       0
GRID         393       0   2.5-1   2.0+0   2.5-1       0
GRID         394       0  1.25-1   2.0+0   2.5-1       0
GRID         395       0   2.5-1   2.0+0  1.25-1       0
GRID         396       0  3.75-1   2.0+0   2.5-1       0
GRID         397       0   2.5-1   2.0+0  3.75-1       0
GRID         398       0   0.0+0  2.25+0   2.5-1       0
GRID         399       0   0.0+0 2.375+0   2.5-1       0
GRID         400       0   0.0+0  2.25+0  1.25-1       0
GRID         401       0   0.0+0 2.125+0   2.5-1       0
GRID         402       0   0.0+0  2.25+0  3.75-1       0
GRID         403       0   2.5-1  2.25+0   0.0+0       0
GRID         404       0   2.5-1 2.375+0   0.0+0       0
GRID         405       0  3.75-1  2.25+0   0.0+0       0
GRID         406       0   2.5-1 2.125+0   0.0+0       0
GRID         407       0  1.25-1  2.25+0   0.0+0       0
GRID         408       0   5.0-1  2.25+0   2.5-1       0
GRID         409       0   5.0-1 2.375+0   2.5-1       0
GRID         410       0   5.0-1  2.25+0  3.75-1       0
GRID         411       0   5.0-1 2.125+0   2.5-1       0
GRID         412       0   5.0-1  2.25+0  1.25-1       0
GRID         413       0   2.5-1  2.25+0   2.5-1       0
GRID         414       0   2.5-1 2.375+0   2.5-1       0
GRID         415       0   2.5-1 2.125+0   2.5-1       0
GRID         416       0  1.25-1  2.25+0   2.5-1       0
GRID         417       0   2.5-1  2.25+0  1.25-1       0
GRID         418       0  3.75-1  2.25+0   2.5-1       0
GRID         419       0   2.5-1  2.25+0  3.75-1       0
GRID         420       0  6.25-1   2.0+0   0.0+0       0
GRID         421       0  8.75-1   2.0+0   0.0+0       0
GRID         422       0   1.0+0   2.0+0  1.25-1       0
GRID         423       0   1.0+0   2.0+0  3.75-1       0
GRID         424       0   1.0+0 2.375+0   0.0+0       0
GRID         425       0   1.0+0 2.125+0   0.0+0       0
GRID         426       0   7.5-1   2.0+0   2.5-1       0
GRID         427       0  6.25-1   2.0+0   2.5-1       0
GRID         428       0   7.5-1   2.0+0  1.25-1       0
GRID         429       0  8.75-1   2.0+0   2.5-1       0
GRID         430       0   7.5-1   2.0+0  3.75-1       0
GRID         431       0   7.5-1  2.25+0   0.0+0       0
GRID         432       0   7.5-1 2.375+0   0.0+0       0
GRID         433       0  8.75-1  2.25+0   0.0+0       0
GRID         434       0   7.5-1 2.125+0   0.0+0       0
GRID         435       0  6.25-1  2.25+0   0.0+0       0
GRID         436       0   1.0+0  2.25+0   2.5-1       0
GRID         437       0   1.0+0 2.375+0   2.5-1       0
GRID         438       0   1.0+0  2.25+0  3.75-1       0
GRID         439       0   1.0+0 2.125+0   2.5-1       0
GRID         440       0   1.0+0  2.25+0  1.25-1       0
GRID         441       0   7.5-1  2.25+0   2.5-1       0
GRID         442       0   7.5-1 2.375+0   2.5-1       0
GRID         443       0   7.5-1 2.125+0   2.5-1       0
GRID         444       0  6.25-1  2.25+0   2.5-1       0
GRID         445       0   7.5-1  2.25+0  1.25-1       0
GRID         446       0  8.75-1  2.25+0   2.5-1       0
GRID         447       0   7.5-1  2.25+0  3.75-1       0
PARAM    STR_CID      -2
$--1---><--2---><--3---><--4---><--5---><--6---><--7---><--8---><--9---><--10-->
$$$$$$$$$$$$$$$$$$$$$$$$$$$$$$$$$$$ Material $$$$$$$$$$$$$$$$$$$$$$$$$$$$$$$$$$$
MAT1           1  1.0+11  5.0+10   0.0+0   0.0+0   0.0+0   0.0+0
$--1---><--2---><--3---><--4---><--5---><--6---><--7---><--8---><--9---><--10-->
SPC            1       1       1   0.0+0
SPC            1       1       2   0.0+0
SPC            1       1       3   0.0+0
SPC            1       2       1   0.0+0
SPC            1       2       2   0.0+0
SPC            1       2       3   0.0+0
SPC            1       3       1   0.0+0
SPC            1       3       2   0.0+0
SPC            1       3       3   0.0+0
SPC            1       4       1   0.0+0
SPC            1       4       2   0.0+0
SPC            1       4       3   0.0+0
SPC            1      11       1   0.0+0
SPC            1      11       2   0.0+0
SPC            1      11       3   0.0+0
SPC            1      12       1   0.0+0
SPC            1      12       2   0.0+0
SPC            1      12       3   0.0+0
SPC            1      13       1   0.0+0
SPC            1      13       2   0.0+0
SPC            1      13       3   0.0+0
SPC            1      14       1   0.0+0
SPC            1      14       2   0.0+0
SPC            1      14       3   0.0+0
SPC            1      22       1   0.0+0
SPC            1      22       2   0.0+0
SPC            1      22       3   0.0+0
SPC            1      23       1   0.0+0
SPC            1      23       2   0.0+0
SPC            1      23       3   0.0+0
SPC            1      24       1   0.0+0
SPC            1      24       2   0.0+0
SPC            1      24       3   0.0+0
SPC            1      25       1   0.0+0
SPC            1      25       2   0.0+0
SPC            1      25       3   0.0+0
SPC            1      31       1   0.0+0
SPC            1      31       2   0.0+0
SPC            1      31       3   0.0+0
SPC            1      32       1   0.0+0
SPC            1      32       2   0.0+0
SPC            1      32       3   0.0+0
SPC            1      33       1   0.0+0
SPC            1      33       2   0.0+0
SPC            1      33       3   0.0+0
SPC            1      34       1   0.0+0
SPC            1      34       2   0.0+0
SPC            1      34       3   0.0+0
SPC            1      45       1   0.0+0
SPC            1      45       2   0.0+0
SPC            1      45       3   0.0+0
SPC            1      46       1   0.0+0
SPC            1      46       2   0.0+0
SPC            1      46       3   0.0+0
SPC            1      53       1   0.0+0
SPC            1      53       2   0.0+0
SPC            1      53       3   0.0+0
SPC            1      54       1   0.0+0
SPC            1      54       2   0.0+0
SPC            1      54       3   0.0+0
SPC            1      61       1   0.0+0
SPC            1      61       2   0.0+0
SPC            1      61       3   0.0+0
SPC            1      62       1   0.0+0
SPC            1      62       2   0.0+0
SPC            1      62       3   0.0+0
SPC            1      63       1   0.0+0
SPC            1      63       2   0.0+0
SPC            1      63       3   0.0+0
SPC            1      64       1   0.0+0
SPC            1      64       2   0.0+0
SPC            1      64       3   0.0+0
SPC            1      82       1   0.0+0
SPC            1      82       2   0.0+0
SPC            1      82       3   0.0+0
SPC            1      83       1   0.0+0
SPC            1      83       2   0.0+0
SPC            1      83       3   0.0+0
SPC            1      84       1   0.0+0
SPC            1      84       2   0.0+0
SPC            1      84       3   0.0+0
SPC            1      85       1   0.0+0
SPC            1      85       2   0.0+0
SPC            1      85       3   0.0+0
SPC            1      86       1   0.0+0
SPC            1      86       2   0.0+0
SPC            1      86       3   0.0+0
SPC            1     226       1   0.0+0
SPC            1     226       2   0.0+0
SPC            1     226       3   0.0+0
SPC            1     227       1   0.0+0
SPC            1     227       2   0.0+0
SPC            1     227       3   0.0+0
SPC            1     232       1   0.0+0
SPC            1     232       2   0.0+0
SPC            1     232       3   0.0+0
SPC            1     233       1   0.0+0
SPC            1     233       2   0.0+0
SPC            1     233       3   0.0+0
SPC            1     236       1   0.0+0
SPC            1     236       2   0.0+0
SPC            1     236       3   0.0+0
SPC            1     237       1   0.0+0
SPC            1     237       2   0.0+0
SPC            1     237       3   0.0+0
SPC            1     238       1   0.0+0
SPC            1     238       2   0.0+0
SPC            1     238       3   0.0+0
SPC            1     239       1   0.0+0
SPC            1     239       2   0.0+0
SPC            1     239       3   0.0+0
SPC            1     255       1   0.0+0
SPC            1     255       2   0.0+0
SPC            1     255       3   0.0+0
SPC            1     256       1   0.0+0
SPC            1     256       2   0.0+0
SPC            1     256       3   0.0+0
SPC            1     257       1   0.0+0
SPC            1     257       2   0.0+0
SPC            1     257       3   0.0+0
SPC            1     258       1   0.0+0
SPC            1     258       2   0.0+0
SPC            1     258       3   0.0+0
SPC            1     259       1   0.0+0
SPC            1     259       2   0.0+0
SPC            1     259       3   0.0+0
SPC            1     272       1   0.0+0
SPC            1     272       2   0.0+0
SPC            1     272       3   0.0+0
SPC            1     273       1   0.0+0
SPC            1     273       2   0.0+0
SPC            1     273       3   0.0+0
SPC            1     278       1   0.0+0
SPC            1     278       2   0.0+0
SPC            1     278       3   0.0+0
SPC            1     279       1   0.0+0
SPC            1     279       2   0.0+0
SPC            1     279       3   0.0+0
SPC            1     282       1   0.0+0
SPC            1     282       2   0.0+0
SPC            1     282       3   0.0+0
SPC            1     283       1   0.0+0
SPC            1     283       2   0.0+0
SPC            1     283       3   0.0+0
SPC            1     296       1   0.0+0
SPC            1     296       2   0.0+0
SPC            1     296       3   0.0+0
SPC            1     297       1   0.0+0
SPC            1     297       2   0.0+0
SPC            1     297       3   0.0+0
SPC            1     298       1   0.0+0
SPC            1     298       2   0.0+0
SPC            1     298       3   0.0+0
SPC            1     299       1   0.0+0
SPC            1     299       2   0.0+0
SPC            1     299       3   0.0+0
SPC            1     300       1   0.0+0
SPC            1     300       2   0.0+0
SPC            1     300       3   0.0+0
SPC            1     385       1   0.0+0
SPC            1     385       2   0.0+0
SPC            1     385       3   0.0+0
SPC            1     386       1   0.0+0
SPC            1     386       2   0.0+0
SPC            1     386       3   0.0+0
SPC            1     389       1   0.0+0
SPC            1     389       2   0.0+0
SPC            1     389       3   0.0+0
SPC            1     390       1   0.0+0
SPC            1     390       2   0.0+0
SPC            1     390       3   0.0+0
SPC            1     391       1   0.0+0
SPC            1     391       2   0.0+0
SPC            1     391       3   0.0+0
SPC            1     392       1   0.0+0
SPC            1     392       2   0.0+0
SPC            1     392       3   0.0+0
SPC            1     403       1   0.0+0
SPC            1     403       2   0.0+0
SPC            1     403       3   0.0+0
SPC            1     404       1   0.0+0
SPC            1     404       2   0.0+0
SPC            1     404       3   0.0+0
SPC            1     405       1   0.0+0
SPC            1     405       2   0.0+0
SPC            1     405       3   0.0+0
SPC            1     406       1   0.0+0
SPC            1     406       2   0.0+0
SPC            1     406       3   0.0+0
SPC            1     407       1   0.0+0
SPC            1     407       2   0.0+0
SPC            1     407       3   0.0+0
SPC            1     420       1   0.0+0
SPC            1     420       2   0.0+0
SPC            1     420       3   0.0+0
SPC            1     421       1   0.0+0
SPC            1     421       2   0.0+0
SPC            1     421       3   0.0+0
SPC            1     424       1   0.0+0
SPC            1     424       2   0.0+0
SPC            1     424       3   0.0+0
SPC            1     425       1   0.0+0
SPC            1     425       2   0.0+0
SPC            1     425       3   0.0+0
SPC            1     431       1   0.0+0
SPC            1     431       2   0.0+0
SPC            1     431       3   0.0+0
SPC            1     432       1   0.0+0
SPC            1     432       2   0.0+0
SPC            1     432       3   0.0+0
SPC            1     433       1   0.0+0
SPC            1     433       2   0.0+0
SPC            1     433       3   0.0+0
SPC            1     434       1   0.0+0
SPC            1     434       2   0.0+0
SPC            1     434       3   0.0+0
SPC            1     435       1   0.0+0
SPC            1     435       2   0.0+0
SPC            1     435       3   0.0+0
$--1---><--2---><--3---><--4---><--5---><--6---><--7---><--8---><--9---><--10-->
$$$$$$$$$$$$$$$$$$$$$$$$$$$$$$$$$$$ Default $$$$$$$$$$$$$$$$$$$$$$$$$$$$$$$$$$$$
PSOLID         1       1       0       3               1
CHEXA          1       1       8       4       3       7       5       1+
+              2       6      18      13      17      21      10      14+
+             12      20      15      11      16      19
CHEXA          2       1      97     101     291     102      99     408+
+            441     143     235     292     295     106     122     409+
+            442     144     410     444     447     147
CHEXA          3       1     101      82      84     291     408      85+
+            431     441     234     278     293     292     409     391+
+            432     442     412     435     445     444
CHEXA          4       1     291      84      32      91     441     431+
+             64     436     293     279     280     294     442     432+
+            424     437     445     433     440     446
CHEXA          5       1     102     291      91      87     143     441+
+            436      90     295     294     281     107     144     442+
+            437     124     447     446     438     145
CHEXA          6       1      99     408     441     143      72      74+
+            426      75     410     444     447     147     123     411+
+            443     146     388     427     430     114
CHEXA          7       1     408      85     431     441      74      31+
+             54     426     412     435     445     444     411     392+
+            434     443     387     420     428     427
CHEXA          8       1     441     431      64     436     426      54+
+             23      55     445     433     440     446     443     434+
+            425     439     428     421     422     429
CHEXA          9       1     143     441     436      90      75     426+
+             55      36     447     446     438     145     146     443+
+            439     125     430     429     423     115
CHEXA         10       1      92     103     128      94      95     138+
+            158     153     104     129     132     111     120     139+
+            159     154     142     161     164     157
CHEXA         11       1     103      97     102     128     138      99+
+            143     158     105     106     130     129     139     122+
+            144     159     140     147     162     161
CHEXA         12       1     128     102      87      89     158     143+
+             90     148     130     107     108     131     159     144+
+            124     149     162     145     152     163
CHEXA         13       1      94     128      89      40     153     158+
+            148      66     132     131     109     110     154     159+
+            149     126     164     163     150     155
CHEXA         14       1      95     138     158     153      39      76+
+            133      57     142     161     164     157     121     141+
+            160     156     112     134     137     119
CHEXA         15       1     138      99     143     158      76      72+
+             75     133     140     147     162     161     141     123+
+            146     160     113     114     135     134
CHEXA         16       1     158     143      90     148     133      75+
+             36      56     162     145     152     163     160     146+
+            125     151     135     115     116     136
CHEXA         17       1     153     158     148      66      57     133+
+             56      27     164     163     150     155     156     160+
+            151     127     137     136     117     118
CHEXA         18       1      29      43     187      50      59     197+
+            217     212     165     188     191     172     179     198+
+            218     213     201     220     223     216
CHEXA         19       1      43      38      68     187     197      78+
+            202     217     166     167     189     188     198     181+
+            203     218     199     206     221     220
CHEXA         20       1     187      68      67      71     217     202+
+             98     207     189     168     169     190     218     203+
+            183     208     221     204     211     222
CHEXA         21       1      50     187      71      41     212     217+
+            207      93     191     190     170     171     213     218+
+            208     185     223     222     209     214
CHEXA         22       1      59     197     217     212      30      81+
+            192      96     201     220     223     216     180     200+
+            219     215     173     193     196     178
CHEXA         23       1     197      78     202     217      81      77+
+            100     192     199     206     221     220     200     182+
+            205     219     174     175     194     193
CHEXA         24       1     217     202      98     207     192     100+
+             97     103     221     204     211     222     219     205+
+            184     210     194     176     105     195
CHEXA         25       1     212     217     207      93      96     192+
+            103      92     223     222     209     214     215     219+
+            210     186     196     195     104     177
CHEXA         26       1      38      44     240      68      78     250+
+            265     202     224     241     244     167     181     251+
+            266     203     254     268     271     206
CHEXA         27       1      44      25      45     240     250      61+
+            255     265     225     226     242     241     251     236+
+            256     266     252     259     269     268
CHEXA         28       1     240      45      33      69     265     255+
+             83     260     242     227     228     243     266     256+
+            238     261     269     257     264     270
CHEXA         29       1      68     240      69      67     202     265+
+            260      98     244     243     229     168     203     266+
+            261     183     271     270     262     204
CHEXA         30       1      78     250     265     202      77      79+
+            245     100     254     268     271     206     182     253+
+            267     205     230     246     249     175
CHEXA         31       1     250      61     255     265      79      34+
+             86     245     252     259     269     268     253     237+
+            258     267     231     232     247     246
CHEXA         32       1     265     255      83     260     245      86+
+             82     101     269     257     264     270     267     258+
+            239     263     247     233     234     248
CHEXA         33       1     202     265     260      98     100     245+
+            101      97     271     270     262     204     205     267+
+            263     184     249     248     235     176
CHEXA         34       1      67      69     286      70      98     260+
+            311     306     229     287     290     277     183     261+
+            312     307     262     314     317     310
CHEXA         35       1      69      33      46     286     260      83+
+            296     311     228     272     288     287     261     238+
+            297     312     264     300     315     314
CHEXA         36       1     286      46      24      47     311     296+
+             63     301     288     273     274     289     312     297+
+            282     302     315     298     305     316
CHEXA         37       1      70     286      47      37     306     311+
+            301      88     290     289     275     276     307     312+
+            302     284     317     316     303     308
CHEXA         38       1      98     260     311     306      97     101+
+            291     102     262     314     317     310     184     263+
+            313     309     235     292     295     106
CHEXA         39       1     260      83     296     311     101      82+
+             84     291     264     300     315     314     263     239+
+            299     313     234     278     293     292
CHEXA         40       1     311     296      63     301     291      84+
+             32      91     315     298     305     316     313     299+
+            283     304     293     279     280     294
CHEXA         41       1     306     311     301      88     102     291+
+             91      87     317     316     303     308     309     313+
+            304     285     295     294     281     107
CHEXA         42       1      41      71     324      49      93     207+
+            339     334     170     325     328     321     185     208+
+            340     335     209     342     345     338
CHEXA         43       1      71      67      70     324     207      98+
+            306     339     169     277     326     325     208     183+
+            307     340     211     310     343     342
CHEXA         44       1     324      70      37      48     339     306+
+             88     329     326     276     318     327     340     307+
+            284     330     343     308     333     344
CHEXA         45       1      49     324      48      28     334     339+
+            329      65     328     327     319     320     335     340+
+            330     322     345     344     331     336
CHEXA         46       1      93     207     339     334      92     103+
+            128      94     209     342     345     338     186     210+
+            341     337     104     129     132     111
CHEXA         47       1     207      98     306     339     103      97+
+            102     128     211     310     343     342     210     184+
+            309     341     105     106     130     129
CHEXA         48       1     339     306      88     329     128     102+
+             87      89     343     308     333     344     341     309+
+            285     332     130     107     108     131
CHEXA         49       1     334     339     329      65      94     128+
+             89      40     345     344     331     336     337     341+
+            332     323     132     131     109     110
CHEXA         50       1      30      81     192      96      60     361+
+            376     371     173     193     196     178     352     362+
+            377     372     365     379     382     375
CHEXA         51       1      81      77     100     192     361      80+
+            366     376     174     175     194     193     362     354+
+            367     377     363     370     380     379
CHEXA         52       1     192     100      97     103     376     366+
+             99     138     194     176     105     195     377     367+
+            122     139     380     368     140     381
CHEXA         53       1      96     192     103      92     371     376+
+            138      95     196     195     104     177     372     377+
+            139     120     382     381     142     373
CHEXA         54       1      60     361     376     371      26      51+
+            356      58     365     379     382     375     353     364+
+            378     374     346     357     360     351
CHEXA         55       1     361      80     366     376      51      35+
+             73     356     363     370     380     379     364     355+
+            369     378     347     348     358     357
CHEXA         56       1     376     366      99     138     356      73+
+             72      76     380     368     140     381     378     369+
+            123     141     358     349     113     359
CHEXA         57       1     371     376     138      95      58     356+
+             76      39     382     381     142     373     374     378+
+            141     121     360     359     112     350
CHEXA         58       1      77      79     245     100      80     398+
+            413     366     230     246     249     175     354     399+
+            414     367     402     416     419     370
CHEXA         59       1      79      34      86     245     398      62+
+            403     413     231     232     247     246     399     389+
+            404     414     400     407     417     416
CHEXA         60       1     245      86      82     101     413     403+
+             85     408     247     233     234     248     414     404+
+            391     409     417     405     412     418
CHEXA         61       1     100     245     101      97     366     413+
+            408      99     249     248     235     176     367     414+
+            409     122     419     418     410     368
CHEXA         62       1      80     398     413     366      35      52+
+            393      73     402     416     419     370     355     401+
+            415     369     383     394     397     348
CHEXA         63       1     398      62     403     413      52      22+
+             53     393     400     407     417     416     401     390+
+            406     415     384     385     395     394
CHEXA         64       1     413     403      85     408     393      53+
+             31      74     417     405     412     418     415     406+
+            392     411     395     386     387     396
CHEXA         65       1     366     413     408      99      73     393+
+             74      72     419     418     410     368     369     415+
+            411     123     397     396     388     349
$--1---><--2---><--3---><--4---><--5---><--6---><--7---><--8---><--9---><--10-->
$$$$$$$$$$$$$$$$$$$$$$$$$$$$$$$$$$$$ moment $$$$$$$$$$$$$$$$$$$$$$$$$$$$$$$$$$$$
MOMENT         2       9       0   1.0+0   0.0+0   1.0+7   0.0+0
$--1---><--2---><--3---><--4---><--5---><--6---><--7---><--8---><--9---><--10-->
$$$$$$$$$$$$$$$$$$$$$$$$$$$$$$$$$$$$ moment $$$$$$$$$$$$$$$$$$$$$$$$$$$$$$$$$$$$
MOMENT         2      42       0   1.0+0   0.0+0   1.0+7   0.0+0
$--1---><--2---><--3---><--4---><--5---><--6---><--7---><--8---><--9---><--10-->
$$$$$$$$$$$$$$$$$$$$$$$$$$$$ node-surface coupling $$$$$$$$$$$$$$$$$$$$$$$$$$$$$
RBE3*                 66                               9          123456*
*       -8.33333333333-2             123               7 3.33333333333-1*
*                    123              21-8.33333333333-2             123*
*                      8 3.33333333333-1             123              10*
*       -8.33333333333-2             123               5 3.33333333333-1*
*                    123              19-8.33333333333-2             123*
*                      6 3.33333333333-1             123              20*
*       
$--1---><--2---><--3---><--4---><--5---><--6---><--7---><--8---><--9---><--10-->
$$$$$$$$$$$$$$$$$$$$$$$$$$$$ node-surface coupling $$$$$$$$$$$$$$$$$$$$$$$$$$$$$
RBE3*                 67                              42          123456*
*       -1.04166666667-2             123              40 4.16666666667-2*
*                    123             110-2.08333333333-2             123*
*                     94 4.16666666667-2             123             154*
*       -2.08333333333-2             123             153 4.16666666667-2*
*                    123             155-1.04166666667-2             123*
*                     66 2.08333333333-2             123             126*
*        4.16666666667-2             123             111-2.08333333333-2*
*                    123              92 4.16666666667-2             123*
*                    120-2.08333333333-2             123              95*
*        4.16666666667-2             123             157 4.16666666667-2*
*                    123             156-1.04166666667-2             123*
*                     57 2.08333333333-2             123             118*
*       -5.20833333333-3             123              27 2.08333333333-2*
*                    123             127 4.16666666667-2             123*
*                    121-1.04166666667-2             123              39*
*        2.08333333333-2             123             119-1.04166666667-2*
*                    123              41 2.08333333333-2             123*
*                    171-1.04166666667-2             123              50*
*        4.16666666667-2             123             213-2.08333333333-2*
*                    123             212 4.16666666667-2             123*
*                    214-2.08333333333-2             123              93*
*        4.16666666667-2             123             185 2.08333333333-2*
*                    123             172-5.20833333333-3             123*
*                     29 2.08333333333-2             123             179*
*       -1.04166666667-2             123              59 4.16666666667-2*
*                    123             216 4.16666666667-2             123*
*                    215-2.08333333333-2             123              96*
*        4.16666666667-2             123             177 4.16666666667-2*
*                    123             186 2.08333333333-2             123*
*                    180-1.04166666667-2             123              30*
*        4.16666666667-2             123             178-5.20833333333-3*
*                    123              28 2.08333333333-2             123*
*                    320-1.04166666667-2             123              49*
*        4.16666666667-2             123             335-2.08333333333-2*
*                    123             334 4.16666666667-2             123*
*                    336-1.04166666667-2             123              65*
*        2.08333333333-2             123             322 2.08333333333-2*
*                    123             321 4.16666666667-2             123*
*                    338 4.16666666667-2             123             337*
*        2.08333333333-2             123             323 4.16666666667-2*
*                    123             372-2.08333333333-2             123*
*                    371 4.16666666667-2             123             373*
*        2.08333333333-2             123             352-1.04166666667-2*
*                    123              60 4.16666666667-2             123*
*                    375 4.16666666667-2             123             374*
*       -1.04166666667-2             123              58 2.08333333333-2*
*                    123             350 2.08333333333-2             123*
*                    353-5.20833333333-3             123              26*
*        2.08333333333-2             123             351
$--1---><--2---><--3---><--4---><--5---><--6---><--7---><--8---><--9---><--10-->
LOAD           1   1.0+0   1.0+0       2
ENDDATA 
