$ Generated by Mecway 33
$-----------------------EXECUTIVE CONTROL SECTION-----------------------
SOL 101
CEND
$-------------------------CASE CONTROL SECTION--------------------------
DISPLACEMENT = ALL
SPCFORCES = ALL
MPCFORCES = ALL
SPC = 1
LOAD = 1
BEGIN BULK
$---------------------------BULK DATA SECTION---------------------------
GRID           1       0   2.0-1   0.0+0   5.0-2       0
GRID           2       0   2.0-1  -1.0+0   5.0-2       0
GRID           3       0   2.0-1   0.0+0  -5.0-2       0
GRID           4       0   2.0-1  -1.0+0  -5.0-2       0
GRID           5       0   0.0+0   2.0-1   1.0-1       0
GRID           6       0  -2.0-1   0.0+0 -1.25-2       0
GRID           7       0  -2.0-1  -1.0+0  1.25-2       0
GRID*                  8               0          -5.0-2-1.8369095307-17*
*                 -5.0-2               0
GRID*                  9               0           5.0-2-1.8369095307-17*
*                 -5.0-2               0
GRID          10       0   5.0-2   0.0+0   5.0-2       0
GRID          11       0  -5.0-2   0.0+0   5.0-2       0
GRID          12       0  -2.0-1  -1.0+0 -1.25-2       0
GRID          13       0  -2.0-1   0.0+0  1.25-2       0
GRID          14       0   5.0-2  -1.0+0   5.0-2       0
GRID          15       0  -5.0-2  -1.0+0   5.0-2       0
GRID          16       0  -5.0-2  -1.0+0  -5.0-2       0
GRID          17       0   5.0-2  -1.0+0  -5.0-2       0
GRID          18       0  -5.0-1  -1.0+0   2.0-1       0
GRID          19       0   5.0-1  -1.0+0   2.0-1       0
GRID          20       0   5.0-1   0.0+0   2.0-1       0
GRID          21       0  -5.0-1   0.0+0   2.0-1       0
GRID          22       0   0.0+0   0.0+0   2.0-1       0
GRID          23       0  -5.0-1  -5.0-1   2.0-1       0
GRID          24       0   0.0+0  -1.0+0   2.0-1       0
GRID          25       0   5.0-1  -5.0-1   2.0-1       0
PARAM    STR_CID      -2
$--1---><--2---><--3---><--4---><--5---><--6---><--7---><--8---><--9---><--10-->
$$$$$$$$$$$$$$$$$$$$$$$$$$$$$$$$$$$ Material $$$$$$$$$$$$$$$$$$$$$$$$$$$$$$$$$$$
MAT1           1  2.0+11  1.0+11   0.0+0   0.0+0   0.0+0   0.0+0
$--1---><--2---><--3---><--4---><--5---><--6---><--7---><--8---><--9---><--10-->
$$$$$$$$$$$$$$$$$$$$$$$$$$$$$$$$$ Material(2) $$$$$$$$$$$$$$$$$$$$$$$$$$$$$$$$$$
MAT1           2  2.0+11  1.0+11   0.0+0   0.0+0   0.0+0   0.0+0
$--1---><--2---><--3---><--4---><--5---><--6---><--7---><--8---><--9---><--10-->
SPC            1       2       1   0.0+0
SPC            1       2       2   0.0+0
SPC            1       2       3   0.0+0
SPC            1       2       4   0.0+0
SPC            1       2       5   0.0+0
SPC            1       2       6   0.0+0
SPC            1       3       1   0.0+0
SPC            1       3       3   0.0+0
SPC            1       7       1   0.0+0
SPC            1       7       2   0.0+0
SPC            1       7       3   0.0+0
SPC            1       7       4   0.0+0
SPC            1       7       5   0.0+0
SPC            1       7       6   0.0+0
SPC            1      12       1   0.0+0
SPC            1      12       2   0.0+0
SPC            1      12       3   0.0+0
SPC            1      12       4   0.0+0
SPC            1      12       5   0.0+0
SPC            1      12       6   0.0+0
SPC            1      14       1   0.0+0
SPC            1      14       2   0.0+0
SPC            1      14       3   0.0+0
SPC            1      14       4   0.0+0
SPC            1      14       5   0.0+0
SPC            1      14       6   0.0+0
SPC            1      15       1   0.0+0
SPC            1      15       2   0.0+0
SPC            1      15       3   0.0+0
SPC            1      15       4   0.0+0
SPC            1      15       5   0.0+0
SPC            1      15       6   0.0+0
SPC            1      16       1   0.0+0
SPC            1      16       2   0.0+0
SPC            1      16       3   0.0+0
SPC            1      16       4   0.0+0
SPC            1      16       5   0.0+0
SPC            1      16       6   0.0+0
SPC            1      17       1   0.0+0
SPC            1      17       2   0.0+0
SPC            1      17       3   0.0+0
SPC            1      17       4   0.0+0
SPC            1      17       5   0.0+0
SPC            1      17       6   0.0+0
SPC            1      18       1   0.0+0
SPC            1      18       2   0.0+0
SPC            1      18       3   0.0+0
SPC            1      18       4   0.0+0
SPC            1      18       5   0.0+0
SPC            1      18       6   0.0+0
SPC            1      19       1   0.0+0
SPC            1      19       2   0.0+0
SPC            1      19       3   0.0+0
SPC            1      19       4   0.0+0
SPC            1      19       5   0.0+0
SPC            1      19       6   0.0+0
SPC            1      24       1   0.0+0
SPC            1      24       2   0.0+0
SPC            1      24       3   0.0+0
SPC            1      24       4   0.0+0
SPC            1      24       5   0.0+0
SPC            1      24       6   0.0+0
SPC            1       4     123   0.0+0
$--1---><--2---><--3---><--4---><--5---><--6---><--7---><--8---><--9---><--10-->
$$$$$$$$$$$$$$$$$$$$$$$$$$$$$$$$$$$ Default $$$$$$$$$$$$$$$$$$$$$$$$$$$$$$$$$$$$
PBAR*                  1               1           2.5-3 5.20833333333-7*
*        5.20833333333-7 8.80208333333-7           0.0+0
CBAR           1       1       1       2   1.0+0   0.0+0   0.0+0        
CBAR           3       1       6      12   1.0+0   0.0+0   0.0+0        
CBAR           5       1      13       7   1.0+0   0.0+0   0.0+0        
CBAR           6       1      13       6   0.0+0   1.0+0   0.0+0        
CBAR           7       1      10      14   1.0+0   0.0+0   0.0+0        
CBAR           8       1      11      15   1.0+0   0.0+0   0.0+0        
CBAR           9       1       8      16   1.0+0   0.0+0   0.0+0        
CBAR          10       1       9      17   1.0+0   0.0+0   0.0+0        
PROD           2       1   2.5-3
CROD           2       2       3       4
$--1---><--2---><--3---><--4---><--5---><--6---><--7---><--8---><--9---><--10-->
$$$$$$$$$$$$$$$$$$$$$$$$$$$$$$$$$$ Component $$$$$$$$$$$$$$$$$$$$$$$$$$$$$$$$$$$
PSHELL         3       2   2.0-2       2               2           0.0+0
CQUAD4         4       3       8       9      10      11   0.0+0   0.0+0
PSHELL         4       2   2.0-2       2               2           0.0+0
CQUAD8        11       4      18      19      20      21      24      25+
+             22      23                                       5   0.0+0
CORD2R         5       0   0.0+0   0.0+0   0.0+0   0.0+0   1.0+0   0.0+0+
+          1.0+0   0.0+0   0.0+0
$--1---><--2---><--3---><--4---><--5---><--6---><--7---><--8---><--9---><--10-->
$$$$$$$$$$$$$$$$$$$$$$$$$$$$$$$$$$$$ force $$$$$$$$$$$$$$$$$$$$$$$$$$$$$$$$$$$$$
FORCE          2       5       0   1.0+0   0.0+0   1.0+2   0.0+0
$--1---><--2---><--3---><--4---><--5---><--6---><--7---><--8---><--9---><--10-->
$$$$$$$$$$$$$$$$$$$$$$$$$$$$ node-surface coupling $$$$$$$$$$$$$$$$$$$$$$$$$$$$$
RBE3*                 12                               5          123456*
*                  2.5-3             123               1           2.5-3*
*                    123               3           2.5-3             123*
*                     11           2.5-3             123              10*
*                  2.5-3             123               9           2.5-3*
*                    123               8           2.5-3             123*
*                     13           2.5-3             123               6*
*        3.33333333333-3             123              20 1.33333333333-2*
*                    123              22 3.33333333333-3             123*
*                     21
$--1---><--2---><--3---><--4---><--5---><--6---><--7---><--8---><--9---><--10-->
LOAD           1   1.0+0   1.0+0       2
ENDDATA 
