$ Generated by Mecway 33
$-----------------------EXECUTIVE CONTROL SECTION-----------------------
SOL 101
CEND
$-------------------------CASE CONTROL SECTION--------------------------
DISPLACEMENT = ALL
SPCFORCES = ALL
MPCFORCES = ALL
SPC = 1
LOAD = 1
BEGIN BULK
$---------------------------BULK DATA SECTION---------------------------
GRID           1       0   5.0-2   5.0-2  1.15+0       0
GRID           2       0   0.0+0   0.0+0   9.5-1       0
GRID           3       0   5.0-2   0.0+0   9.0-1       0
GRID           4       0   1.0-1   0.0+0   9.5-1       0
GRID           5       0   0.0+0   0.0+0   1.0+0       0
GRID           6       0   1.0-1   0.0+0   1.0+0       0
GRID           7       0   1.0-1   1.0-1   1.0+0       0
GRID           8       0   0.0+0   1.0-1   1.0+0       0
GRID           9       0   5.0-2   5.0-2   1.0+0       0
GRID          10       0   5.0-2   0.0+0   1.0+0       0
GRID          11       0   0.0+0   1.0-1   9.0-1       0
GRID          12       0   0.0+0   0.0+0   9.0-1       0
GRID          13       0   1.0-1   1.0-1   9.0-1       0
GRID          14       0   1.0-1   0.0+0   9.0-1       0
GRID          15       0   0.0+0   5.0-2   1.0+0       0
GRID          16       0   0.0+0   5.0-2   9.0-1       0
GRID          17       0   1.0-1   5.0-2   9.0-1       0
GRID          18       0   1.0-1   5.0-2   1.0+0       0
GRID          19       0   0.0+0   5.0-2   9.5-1       0
GRID          20       0   5.0-2   5.0-2   9.0-1       0
GRID          21       0   1.0-1   5.0-2   9.5-1       0
GRID          22       0   5.0-2   5.0-2   1.0+0       0
GRID          23       0   5.0-2   1.0-1   9.5-1       0
GRID          24       0   5.0-2   0.0+0   9.5-1       0
GRID          25       0   5.0-2   5.0-2   9.5-1       0
GRID          26       0   5.0-2   5.0-2   1.1+0       0
GRID          27       0   5.0-2   5.0-2  1.05+0       0
GRID          28       0   0.0+0   1.0-1   9.5-1       0
GRID          29       0   5.0-2   1.0-1   9.0-1       0
GRID          30       0   1.0-1   1.0-1   9.5-1       0
GRID          31       0   5.0-2   1.0-1   1.0+0       0
PARAM    STR_CID      -2
$--1---><--2---><--3---><--4---><--5---><--6---><--7---><--8---><--9---><--10-->
$$$$$$$$$$$$$$$$$$$$$$$$$$$$$$$$$$$ Material $$$$$$$$$$$$$$$$$$$$$$$$$$$$$$$$$$$
MAT1           1  1.0+11  5.0+10   0.0+0   0.0+0   0.0+0   0.0+0
$--1---><--2---><--3---><--4---><--5---><--6---><--7---><--8---><--9---><--10-->
$$$$$$$$$$$$$$$$$$$$$$$$$$$$$$$$$ Material(2) $$$$$$$$$$$$$$$$$$$$$$$$$$$$$$$$$$
MAT1           2  1.0+11  5.0+10   0.0+0   0.0+0   0.0+0   0.0+0
$--1---><--2---><--3---><--4---><--5---><--6---><--7---><--8---><--9---><--10-->
SPC            1       3       1   0.0+0
SPC            1       3       2   0.0+0
SPC            1       3       3   0.0+0
SPC            1      11       1   0.0+0
SPC            1      11       2   0.0+0
SPC            1      11       3   0.0+0
SPC            1      12       1   0.0+0
SPC            1      12       2   0.0+0
SPC            1      12       3   0.0+0
SPC            1      13       1   0.0+0
SPC            1      13       2   0.0+0
SPC            1      13       3   0.0+0
SPC            1      14       1   0.0+0
SPC            1      14       2   0.0+0
SPC            1      14       3   0.0+0
SPC            1      16       1   0.0+0
SPC            1      16       2   0.0+0
SPC            1      16       3   0.0+0
SPC            1      17       1   0.0+0
SPC            1      17       2   0.0+0
SPC            1      17       3   0.0+0
SPC            1      20       1   0.0+0
SPC            1      20       2   0.0+0
SPC            1      20       3   0.0+0
SPC            1      29       1   0.0+0
SPC            1      29       2   0.0+0
SPC            1      29       3   0.0+0
$--1---><--2---><--3---><--4---><--5---><--6---><--7---><--8---><--9---><--10-->
$$$$$$$$$$$$$$$$$$$$$$$$$$$$$$$$$$$ Default $$$$$$$$$$$$$$$$$$$$$$$$$$$$$$$$$$$$
PSOLID         1       1       0       2               1
CHEXA          1       1      15      19      25      22       5       2+
+             24      10
CHEXA          3       1      19      16      20      25       2      12+
+              3      24
CHEXA          4       1      25      20      17      21      24       3+
+             14       4
CHEXA          5       1      22      25      21      18      10      24+
+              4       6
CHEXA          6       1       8      28      23      31      15      19+
+             25      22
CHEXA          7       1      23      29      13      30      25      20+
+             17      21
CHEXA          9       1      31      23      30       7      22      25+
+             21      18
CHEXA         10       1      28      11      29      23      19      16+
+             20      25
$--1---><--2---><--3---><--4---><--5---><--6---><--7---><--8---><--9---><--10-->
$$$$$$$$$$$$$$$$$$$$$$$$$$$$$$$$$$ Component $$$$$$$$$$$$$$$$$$$$$$$$$$$$$$$$$$$
PBAR*                  2               2           1.0-2 8.33333333333-6*
*        8.33333333333-6 1.40833333333-5           0.0+0
CBAR           2       2      27      26   0.0+0   1.0+0   0.0+0        
CBAR           8       2      26       1   0.0+0   1.0+0   0.0+0        
CBAR          11       2       9      27   0.0+0   1.0+0   0.0+0        
$--1---><--2---><--3---><--4---><--5---><--6---><--7---><--8---><--9---><--10-->
$$$$$$$$$$$$$$$$$$$$$$$$$$$$$$$$$$$$ force $$$$$$$$$$$$$$$$$$$$$$$$$$$$$$$$$$$$$
FORCE          2       1       0   1.0+0   0.0+0   1.3+4   0.0+0
$--1---><--2---><--3---><--4---><--5---><--6---><--7---><--8---><--9---><--10-->
$$$$$$$$$$$$$$$$$$$$$$$$$$$$$$$$$$$$ moment $$$$$$$$$$$$$$$$$$$$$$$$$$$$$$$$$$$$
MOMENT         2       1       0   1.0+0   0.0+0   0.0+0   1.0+4
$--1---><--2---><--3---><--4---><--5---><--6---><--7---><--8---><--9---><--10-->
$$$$$$$$$$$$$$$$$$$$$$$$$$$$ node-surface coupling $$$$$$$$$$$$$$$$$$$$$$$$$$$$$
RBE3          12               9  123456  6.25-4     123       7  1.25-3+
+            123      31   2.5-3     123      22  1.25-3     123      18+
+         6.25-4     123       8  1.25-3     123      15  1.25-3     123+
+             10  6.25-4     123       6  6.25-4     123       5
$--1---><--2---><--3---><--4---><--5---><--6---><--7---><--8---><--9---><--10-->
LOAD           1   1.0+0   1.0+0       2
ENDDATA 
