$ Generated by Mecway 33
$-----------------------EXECUTIVE CONTROL SECTION-----------------------
SOL 101
CEND
$-------------------------CASE CONTROL SECTION--------------------------
DISPLACEMENT = ALL
SPCFORCES = ALL
MPCFORCES = ALL
SPC = 1
LOAD = 1
BEGIN BULK
$---------------------------BULK DATA SECTION---------------------------
GRID           1       0   0.0+0   0.0+0   0.0+0       0
GRID           2       0   4.0+0   0.0+0   0.0+0       0
GRID           3       0   4.0+0   2.0-1   0.0+0       0
GRID           4       0   0.0+0   2.0-1   0.0+0       0
GRID           5       0   0.0+0   0.0+0   1.0+0       0
GRID           6       0   4.0+0   0.0+0   1.0+0       0
GRID           7       0   4.0+0   2.0-1   1.0+0       0
GRID           8       0   0.0+0   2.0-1   1.0+0       0
GRID           9       0   1.0+0   0.0+0   0.0+0       0
GRID          10       0   1.0+0   0.0+0   1.0+0       0
GRID          11       0   1.0+0   2.0-1   0.0+0       0
GRID          12       0   1.0+0   2.0-1   1.0+0       0
GRID          13       0   2.0+0   0.0+0   0.0+0       0
GRID          14       0   2.0+0   0.0+0   1.0+0       0
GRID          15       0   2.0+0   2.0-1   0.0+0       0
GRID          16       0   2.0+0   2.0-1   1.0+0       0
GRID          17       0   3.0+0   0.0+0   0.0+0       0
GRID          18       0   3.0+0   0.0+0   1.0+0       0
GRID          19       0   3.0+0   2.0-1   0.0+0       0
GRID          20       0   3.0+0   2.0-1   1.0+0       0
GRID          21       0 3.875+0   0.0+0   0.0+0       0
GRID          22       0 3.875+0   0.0+0   1.0+0       0
GRID          23       0 3.875+0   2.0-1   0.0+0       0
GRID          24       0   3.0+0   1.0-1   0.0+0       0
GRID          25       0   3.0+0   0.0+0   5.0-1       0
GRID          26       0 3.875+0   2.0-1   1.0+0       0
GRID          27       0   4.0+0   0.0+0   5.0-1       0
GRID          28       0   3.0+0   2.0-1   5.0-1       0
GRID          29       0   4.0+0   1.0-1   0.0+0       0
GRID          30       0   4.0+0   1.0-1   1.0+0       0
GRID          31       0   4.0+0   2.0-1   5.0-1       0
GRID          32       0   3.0+0   1.0-1   1.0+0       0
GRID          33       0   5.0-1   0.0+0   0.0+0       0
GRID          34       0   1.0+0   1.0-1   0.0+0       0
GRID          35       0   5.0-1   2.0-1   0.0+0       0
GRID          36       0   0.0+0   1.0-1   0.0+0       0
GRID*                 37               0-1.23180598021-1-2.98023223877-7*
*        3.82685184479-1               0
GRID          38       0   1.0+0   0.0+0   5.0-1       0
GRID          39       0   1.0+0   2.0-1   5.0-1       0
GRID*                 40               0-1.23180598021-1 1.99999701977-1*
*        3.82685184479-1               0
GRID          41       0   5.0-1   0.0+0   1.0+0       0
GRID          42       0   1.0+0   1.0-1   1.0+0       0
GRID          43       0   5.0-1   2.0-1   1.0+0       0
GRID          44       0   0.0+0   1.0-1   1.0+0       0
GRID          45       0   1.5+0   0.0+0   0.0+0       0
GRID          46       0   2.0+0   1.0-1   0.0+0       0
GRID          47       0   1.5+0   2.0-1   0.0+0       0
GRID          48       0   2.0+0   0.0+0   5.0-1       0
GRID          49       0   2.0+0   2.0-1   5.0-1       0
GRID          50       0   1.5+0   0.0+0   1.0+0       0
GRID          51       0   2.0+0   1.0-1   1.0+0       0
GRID          52       0   1.5+0   2.0-1   1.0+0       0
GRID          53       0   2.5+0   0.0+0   0.0+0       0
GRID          54       0   2.5+0   2.0-1   0.0+0       0
GRID          55       0   2.5+0   0.0+0   1.0+0       0
GRID          56       0   2.5+0   2.0-1   1.0+0       0
GRID          57       0   5.0+0   3.0-1   0.0+0       0
GRID          58       0   5.0+0   6.0-1   1.5+0       0
GRID          59       0   5.0+0   3.0-1   3.0+0       0
GRID          60       0   5.0+0   0.0+0   1.5+0       0
GRID          61       0 3.125+0   0.0+0   0.0+0       0
GRID          62       0 3.125+0   0.0+0   1.0+0       0
GRID          63       0 3.125+0   2.0-1   0.0+0       0
GRID          64       0 3.125+0   2.0-1   1.0+0       0
GRID          65       0  3.25+0   0.0+0   0.0+0       0
GRID          66       0  3.25+0   0.0+0   5.0-1       0
GRID          67       0  3.25+0   0.0+0   1.0+0       0
GRID          68       0  3.25+0   1.0-1   0.0+0       0
GRID          69       0  3.25+0   1.0-1   1.0+0       0
GRID          70       0  3.25+0   2.0-1   0.0+0       0
GRID          71       0  3.25+0   2.0-1   5.0-1       0
GRID          72       0  3.25+0   2.0-1   1.0+0       0
GRID          73       0 3.375+0   0.0+0   0.0+0       0
GRID          74       0 3.375+0   0.0+0   1.0+0       0
GRID          75       0 3.375+0   2.0-1   0.0+0       0
GRID          76       0 3.375+0   2.0-1   1.0+0       0
GRID          77       0   3.5+0   0.0+0   0.0+0       0
GRID          78       0   3.5+0   0.0+0   5.0-1       0
GRID          79       0   3.5+0   0.0+0   1.0+0       0
GRID          80       0   3.5+0   1.0-1   0.0+0       0
GRID          81       0   3.5+0   1.0-1   1.0+0       0
GRID          82       0   3.5+0   2.0-1   0.0+0       0
GRID          83       0   3.5+0   2.0-1   5.0-1       0
GRID          84       0   3.5+0   2.0-1   1.0+0       0
GRID          85       0 3.625+0   0.0+0   0.0+0       0
GRID          86       0 3.625+0   0.0+0   1.0+0       0
GRID          87       0 3.625+0   2.0-1   0.0+0       0
GRID          88       0 3.625+0   2.0-1   1.0+0       0
GRID          89       0  3.75+0   0.0+0   0.0+0       0
GRID          90       0  3.75+0   0.0+0   5.0-1       0
GRID          91       0  3.75+0   0.0+0   1.0+0       0
GRID          92       0  3.75+0   1.0-1   0.0+0       0
GRID          93       0  3.75+0   1.0-1   1.0+0       0
GRID          94       0  3.75+0   2.0-1   0.0+0       0
GRID          95       0  3.75+0   2.0-1   5.0-1       0
GRID          96       0  3.75+0   2.0-1   1.0+0       0
GRID          97       0  -5.0-1   2.0-1   0.0+0       0
GRID          98       0  -1.0+0   2.0-1   0.0+0       0
GRID          99       0  -5.0-1   0.0+0   0.0+0       0
GRID         100       0  -1.0+0   0.0+0   0.0+0       0
GRID         101       0  -5.0-1   0.0+0   1.0+0       0
GRID         102       0  -1.0+0   0.0+0   1.0+0       0
GRID         103       0  -5.0-1   2.0-1   1.0+0       0
GRID         104       0  -1.0+0   2.0-1   1.0+0       0
GRID         105       0  -1.0+0   1.0-1   0.0+0       0
GRID         106       0  -1.0+0   0.0+0   5.0-1       0
GRID         107       0  -1.0+0   1.0-1   1.0+0       0
GRID         108       0  -1.0+0   2.0-1   5.0-1       0
GRID         109       0   4.5+0   0.0+0   0.0+0       0
GRID         110       0   5.0+0   0.0+0   0.0+0       0
GRID         111       0   4.5+0   4.0-1   0.0+0       0
GRID         112       0   5.0+0   6.0-1   0.0+0       0
GRID         113       0   4.5+0   4.0-1   2.0+0       0
GRID         114       0   5.0+0   6.0-1   3.0+0       0
GRID         115       0   4.5+0   0.0+0   2.0+0       0
GRID         116       0   5.0+0   0.0+0   3.0+0       0
GRID         117       0   1.5+0   1.7+0   5.0-1       0
GRID         118       0   0.0+0   0.0+0   4.0+0       0
GRID         119       0   4.0+0   0.0+0   4.0+0       0
GRID         120       0   4.0+0   2.0-1   4.0+0       0
GRID         121       0   0.0+0   2.0-1   4.0+0       0
GRID         122       0   0.0+0   0.0+0   5.0+0       0
GRID         123       0   4.0+0   0.0+0   5.0+0       0
GRID         124       0   4.0+0   2.0-1   5.0+0       0
GRID         125       0   0.0+0   2.0-1   5.0+0       0
GRID         126       0   1.0+0   0.0+0   4.0+0       0
GRID         127       0   1.0+0   0.0+0   5.0+0       0
GRID         128       0   1.0+0   2.0-1   4.0+0       0
GRID         129       0   1.0+0   2.0-1   5.0+0       0
GRID         130       0   2.0+0   0.0+0   4.0+0       0
GRID         131       0   2.0+0   0.0+0   5.0+0       0
GRID         132       0   2.0+0   2.0-1   4.0+0       0
GRID         133       0   2.0+0   2.0-1   5.0+0       0
GRID         134       0   3.0+0   0.0+0   4.0+0       0
GRID         135       0   3.0+0   0.0+0   5.0+0       0
GRID         136       0   3.0+0   2.0-1   4.0+0       0
GRID         137       0   3.0+0   2.0-1   5.0+0       0
GRID         138       0 3.875+0   0.0+0   4.0+0       0
GRID         139       0 3.875+0   0.0+0   5.0+0       0
GRID         140       0 3.875+0   2.0-1   4.0+0       0
GRID         141       0   3.0+0   1.0-1   4.0+0       0
GRID         142       0   3.0+0   0.0+0   4.5+0       0
GRID         143       0 3.875+0   2.0-1   5.0+0       0
GRID         144       0   4.0+0   0.0+0   4.5+0       0
GRID         145       0   3.0+0   2.0-1   4.5+0       0
GRID         146       0   4.0+0   1.0-1   4.0+0       0
GRID         147       0   4.0+0   1.0-1   5.0+0       0
GRID         148       0   4.0+0   2.0-1   4.5+0       0
GRID         149       0   3.0+0   1.0-1   5.0+0       0
GRID         150       0   5.0-1   0.0+0   4.0+0       0
GRID         151       0   1.0+0   1.0-1   4.0+0       0
GRID         152       0   5.0-1   2.0-1   4.0+0       0
GRID         153       0   0.0+0   1.0-1   4.0+0       0
GRID*                154               0-1.23180598021-1-2.98023223877-7*
*        4.38268518448+0               0
GRID         155       0   1.0+0   0.0+0   4.5+0       0
GRID         156       0   1.0+0   2.0-1   4.5+0       0
GRID*                157               0-1.23180598021-1 1.99999701977-1*
*        4.38268518448+0               0
GRID         158       0   5.0-1   0.0+0   5.0+0       0
GRID         159       0   1.0+0   1.0-1   5.0+0       0
GRID         160       0   5.0-1   2.0-1   5.0+0       0
GRID         161       0   0.0+0   1.0-1   5.0+0       0
GRID         162       0   1.5+0   0.0+0   4.0+0       0
GRID         163       0   2.0+0   1.0-1   4.0+0       0
GRID         164       0   1.5+0   2.0-1   4.0+0       0
GRID         165       0   2.0+0   0.0+0   4.5+0       0
GRID         166       0   2.0+0   2.0-1   4.5+0       0
GRID         167       0   1.5+0   0.0+0   5.0+0       0
GRID         168       0   2.0+0   1.0-1   5.0+0       0
GRID         169       0   1.5+0   2.0-1   5.0+0       0
GRID         170       0   2.5+0   0.0+0   4.0+0       0
GRID         171       0   2.5+0   2.0-1   4.0+0       0
GRID         172       0   2.5+0   0.0+0   5.0+0       0
GRID         173       0   2.5+0   2.0-1   5.0+0       0
GRID         174       0  -1.0+0   1.0-1   4.0+0       0
GRID         175       0  -1.0+0   0.0+0   4.5+0       0
GRID         176       0  -1.0+0   1.0-1   5.0+0       0
GRID         177       0  -1.0+0   2.0-1   4.5+0       0
GRID         178       0 3.125+0   0.0+0   4.0+0       0
GRID         179       0 3.125+0   0.0+0   5.0+0       0
GRID         180       0 3.125+0   2.0-1   4.0+0       0
GRID         181       0 3.125+0   2.0-1   5.0+0       0
GRID         182       0  3.25+0   0.0+0   4.0+0       0
GRID         183       0  3.25+0   0.0+0   4.5+0       0
GRID         184       0  3.25+0   0.0+0   5.0+0       0
GRID         185       0  3.25+0   1.0-1   4.0+0       0
GRID         186       0  3.25+0   1.0-1   5.0+0       0
GRID         187       0  3.25+0   2.0-1   4.0+0       0
GRID         188       0  3.25+0   2.0-1   4.5+0       0
GRID         189       0  3.25+0   2.0-1   5.0+0       0
GRID         190       0 3.375+0   0.0+0   4.0+0       0
GRID         191       0 3.375+0   0.0+0   5.0+0       0
GRID         192       0 3.375+0   2.0-1   4.0+0       0
GRID         193       0 3.375+0   2.0-1   5.0+0       0
GRID         194       0   3.5+0   0.0+0   4.0+0       0
GRID         195       0   3.5+0   0.0+0   4.5+0       0
GRID         196       0   3.5+0   0.0+0   5.0+0       0
GRID         197       0   3.5+0   1.0-1   4.0+0       0
GRID         198       0   3.5+0   1.0-1   5.0+0       0
GRID         199       0   3.5+0   2.0-1   4.0+0       0
GRID         200       0   3.5+0   2.0-1   4.5+0       0
GRID         201       0   3.5+0   2.0-1   5.0+0       0
GRID         202       0 3.625+0   0.0+0   4.0+0       0
GRID         203       0 3.625+0   0.0+0   5.0+0       0
GRID         204       0 3.625+0   2.0-1   4.0+0       0
GRID         205       0 3.625+0   2.0-1   5.0+0       0
GRID         206       0  3.75+0   0.0+0   4.0+0       0
GRID         207       0  3.75+0   0.0+0   4.5+0       0
GRID         208       0  3.75+0   0.0+0   5.0+0       0
GRID         209       0  3.75+0   1.0-1   4.0+0       0
GRID         210       0  3.75+0   1.0-1   5.0+0       0
GRID         211       0  3.75+0   2.0-1   4.0+0       0
GRID         212       0  3.75+0   2.0-1   4.5+0       0
GRID         213       0  3.75+0   2.0-1   5.0+0       0
GRID         214       0  -5.0-1   2.0-1   4.0+0       0
GRID         215       0  -1.0+0   2.0-1   4.0+0       0
GRID         216       0  -5.0-1   0.0+0   4.0+0       0
GRID         217       0  -1.0+0   0.0+0   4.0+0       0
GRID         218       0  -5.0-1   0.0+0   5.0+0       0
GRID         219       0  -1.0+0   0.0+0   5.0+0       0
GRID         220       0  -5.0-1   2.0-1   5.0+0       0
GRID         221       0  -1.0+0   2.0-1   5.0+0       0
PARAM    STR_CID      -2
$--1---><--2---><--3---><--4---><--5---><--6---><--7---><--8---><--9---><--10-->
$$$$$$$$$$$$$$$$$$$$$$$$$$$$$$$$$$$ Material $$$$$$$$$$$$$$$$$$$$$$$$$$$$$$$$$$$
MAT1*                  1          1.0+11 3.5714285714+10           4.0-1*
*                  0.0+0           0.0+0           0.0+0
$--1---><--2---><--3---><--4---><--5---><--6---><--7---><--8---><--9---><--10-->
$$$$$$$$$$$$$$$$$$$$$$$$$$$$$$$$$ Material(2) $$$$$$$$$$$$$$$$$$$$$$$$$$$$$$$$$$
MAT1*                  2           1.0+6 3.57142857143+5           4.0-1*
*                  0.0+0           0.0+0           0.0+0
$--1---><--2---><--3---><--4---><--5---><--6---><--7---><--8---><--9---><--10-->
SPC            1       9       1   0.0+0
SPC            1       9       2   0.0+0
SPC            1       9       3   0.0+0
SPC            1      10       1   0.0+0
SPC            1      10       2   0.0+0
SPC            1      10       3   0.0+0
SPC            1      13       1   0.0+0
SPC            1      13       2   0.0+0
SPC            1      13       3   0.0+0
SPC            1      14       1   0.0+0
SPC            1      14       2   0.0+0
SPC            1      14       3   0.0+0
SPC            1      38       1   0.0+0
SPC            1      38       2   0.0+0
SPC            1      38       3   0.0+0
SPC            1      45       1   0.0+0
SPC            1      45       2   0.0+0
SPC            1      45       3   0.0+0
SPC            1      48       1   0.0+0
SPC            1      48       2   0.0+0
SPC            1      48       3   0.0+0
SPC            1      50       1   0.0+0
SPC            1      50       2   0.0+0
SPC            1      50       3   0.0+0
SPC            1     126       1   0.0+0
SPC            1     126       2   0.0+0
SPC            1     126       3   0.0+0
SPC            1     127       1   0.0+0
SPC            1     127       2   0.0+0
SPC            1     127       3   0.0+0
SPC            1     130       1   0.0+0
SPC            1     130       2   0.0+0
SPC            1     130       3   0.0+0
SPC            1     131       1   0.0+0
SPC            1     131       2   0.0+0
SPC            1     131       3   0.0+0
SPC            1     155       1   0.0+0
SPC            1     155       2   0.0+0
SPC            1     155       3   0.0+0
SPC            1     162       1   0.0+0
SPC            1     162       2   0.0+0
SPC            1     162       3   0.0+0
SPC            1     165       1   0.0+0
SPC            1     165       2   0.0+0
SPC            1     165       3   0.0+0
SPC            1     167       1   0.0+0
SPC            1     167       2   0.0+0
SPC            1     167       3   0.0+0
$--1---><--2---><--3---><--4---><--5---><--6---><--7---><--8---><--9---><--10-->
$$$$$$$$$$$$$$$$$$$$$$$$$$$$$$$$$$$ Default $$$$$$$$$$$$$$$$$$$$$$$$$$$$$$$$$$$$
PSOLID         1       1       0       3               1
CHEXA          1       1      89       2       3      94      91       6+
+              7      96      21      29      23      92      90      27+
+             31      95      22      30      26      93
CHEXA          2       1       1       9      11       4       5      10+
+             12       8      33      34      35      36      37      38+
+             39      40      41      42      43      44
CHEXA          3       1       9      13      15      11      10      14+
+             16      12      45      46      47      34      38      48+
+             49      39      50      51      52      42
CHEXA          4       1      13      17      19      15      14      18+
+             20      16      53      24      54      46      48      25+
+             28      49      55      32      56      51
CHEXA          5       1      17      65      70      19      18      67+
+             72      20      61      68      63      24      25      66+
+             71      28      62      69      64      32
CHEXA          6       1      65      77      82      70      67      79+
+             84      72      73      80      75      68      66      78+
+             83      71      74      81      76      69
CHEXA          7       1      77      89      94      82      79      91+
+             96      84      85      92      87      80      78      90+
+             95      83      86      93      88      81
CHEXA          8       1       4       1       5       8      98     100+
+            102     104      36      37      44      40      97      99+
+            101     103     105     106     107     108
CHEXA         10       1     206     119     120     211     208     123+
+            124     213     138     146     140     209     207     144+
+            148     212     139     147     143     210
CHEXA         11       1     118     126     128     121     122     127+
+            129     125     150     151     152     153     154     155+
+            156     157     158     159     160     161
CHEXA         12       1     126     130     132     128     127     131+
+            133     129     162     163     164     151     155     165+
+            166     156     167     168     169     159
CHEXA         13       1     130     134     136     132     131     135+
+            137     133     170     141     171     163     165     142+
+            145     166     172     149     173     168
CHEXA         14       1     134     182     187     136     135     184+
+            189     137     178     185     180     141     142     183+
+            188     145     179     186     181     149
CHEXA         15       1     182     194     199     187     184     196+
+            201     189     190     197     192     185     183     195+
+            200     188     191     198     193     186
CHEXA         16       1     194     206     211     199     196     208+
+            213     201     202     209     204     197     195     207+
+            212     200     203     210     205     198
CHEXA         17       1     121     118     122     125     215     217+
+            219     221     153     154     161     157     214     216+
+            218     220     174     175     176     177
$--1---><--2---><--3---><--4---><--5---><--6---><--7---><--8---><--9---><--10-->
$$$$$$$$$$$$$$$$$$$$$$$$$$$$$$$$$$ Component $$$$$$$$$$$$$$$$$$$$$$$$$$$$$$$$$$$
PSOLID         2       2       0       3               1
CHEXA          9       2       2       3       7       6     110     112+
+            114     116      29      31      30      27     109     111+
+            113     115      57      58      59      60
$--1---><--2---><--3---><--4---><--5---><--6---><--7---><--8---><--9---><--10-->
$$$$$$$$$$$$$$$$$$$$$$$$$$$$$$$$$$$$ moment $$$$$$$$$$$$$$$$$$$$$$$$$$$$$$$$$$$$
MOMENT         2     117       0   1.0+0   0.0+0  1.23+6  3.34+4
$--1---><--2---><--3---><--4---><--5---><--6---><--7---><--8---><--9---><--10-->
$$$$$$$$$$$$$$$$$$$$$$$$$$$$$$$$$$$$ moment $$$$$$$$$$$$$$$$$$$$$$$$$$$$$$$$$$$$
FORCE*                 2             128               0           1.0+0*
*        -2.8768659492+3 3.15230637964+2-1.11622262241+4
FORCE*                 2             121               0           1.0+0*
*       -1.84486072517+3 9.21917246144+2-3.26449945368+4
FORCE*                 2             129               0           1.0+0*
*        3.60011322658+3 3.23996845835+2  -1.147280483+4
FORCE*                 2             125               0           1.0+0*
*        4.21281507048+3 6.63727000154+2-2.35026479848+4
FORCE*                 2             152               0           1.0+0*
*       -6.68099054427+3-1.11035419242+3 3.93177577803+4
FORCE*                 2             156               0           1.0+0*
*       -7.23247321593+2-1.19557006608+3 4.23350932881+4
FORCE*                 2             157               0           1.0+0*
*       -2.36795417543+3-3.27661456414+3 1.16024814534+5
FORCE*                 2             160               0           1.0+0*
*        6.38930464283+3-1.29920576829+3 4.60046440892+4
FORCE*                 2             215               0           1.0+0*
*       -1.27580453303+3 4.50204238174+2-1.59416759062+4
FORCE*                 2             221               0           1.0+0*
*         1.7365343646+3 4.42254834754+2-1.56602659045+4
FORCE*                 2             214               0           1.0+0*
*       -5.76771626694+3-1.84032217913+3 6.51658630209+4
FORCE*                 2             220               0           1.0+0*
*         6.0594024232+3-2.16291799565+3 7.65886581903+4
FORCE*                 2             177               0           1.0+0*
*       -4.60729851062+2 -2.1187462462+3 7.50247075661+4
FORCE*                 2             132               0           1.0+0*
*       -3.15384613266+3 -2.6719770044+2 9.46153846169+3
FORCE*                 2             133               0           1.0+0*
*        3.15384617513+3-2.67202310852+2 9.46153846169+3
FORCE*                 2             164               0           1.0+0*
*       -6.30769235026+3 4.61041199827-3-1.51200651999-9
FORCE*                 2             166               0           1.0+0*
*       -8.49401892538-5 1.06880002258+3-3.78461538468+4
FORCE*                 2             169               0           1.0+0*
*        6.30769226532+3-4.61041185068-3-1.51612766786-9
FORCE*                 2             136               0           1.0+0*
*       -1.97115383291+3-3.33998566303+2 1.18269230771+4
FORCE*                 2             137               0           1.0+0*
*        1.97115385946+3-3.34001447811+2 1.18269230771+4
FORCE*                 2             171               0           1.0+0*
*       -6.30769235026+3 1.06880463299+3-3.78461538468+4
FORCE*                 2             145               0           1.0+0*
*        -5.3087616493-5 1.67000003529+3-5.91346153856+4
FORCE*                 2             173               0           1.0+0*
*        6.30769226532+3 1.06879541217+3-3.78461538468+4
FORCE*                 2             187               0           1.0+0*
*       -7.88461533166+2-2.33799428638+2 8.27884615398+3
FORCE*                 2             189               0           1.0+0*
*        7.88461543783+2-2.33800581241+2 8.27884615398+3
FORCE*                 2             180               0           1.0+0*
*       -1.57692308757+3 4.34201161777+2-1.53750000002+4
FORCE*                 2             188               0           1.0+0*
*       -2.12350465034-5  9.3520001976+2-3.31153846159+4
FORCE*                 2             181               0           1.0+0*
*        1.57692306633+3 4.34198856571+2-1.53750000002+4
FORCE*                 2             199               0           1.0+0*
*       -7.88461533166+2-2.67199429344+2 9.46153846169+3
FORCE*                 2             201               0           1.0+0*
*        7.88461543783+2-2.67200581947+2 9.46153846169+3
FORCE*                 2             192               0           1.0+0*
*       -1.57692308757+3 5.01001163189+2-1.77403846157+4
FORCE*                 2             200               0           1.0+0*
*       -2.12350471216-5 1.06880002258+3-3.78461538468+4
FORCE*                 2             193               0           1.0+0*
*        1.57692306633+3 5.00998857983+2-1.77403846157+4
FORCE*                 2             211               0           1.0+0*
*       -7.88461533166+2 -3.0059943005+2 1.06442307694+4
FORCE*                 2             213               0           1.0+0*
*        7.88461543783+2-3.00600582653+2 1.06442307694+4
FORCE*                 2             204               0           1.0+0*
*       -1.57692308757+3   5.678011646+2-2.01057692311+4
FORCE*                 2             212               0           1.0+0*
*       -2.12350490827-5 1.20240002541+3-4.25769230776+4
FORCE*                 2             205               0           1.0+0*
*        1.57692306633+3 5.67798859394+2-2.01057692311+4
FORCE*                 2             120               0           1.0+0*
*       -3.94230766583+2-1.55866381809+2 5.51923076932+3
FORCE*                 2             124               0           1.0+0*
*        3.94230771892+2-1.55866958111+2 5.51923076932+3
FORCE*                 2             140               0           1.0+0*
*       -1.57692308757+3 6.34601166011+2-2.24711538465+4
FORCE*                 2             148               0           1.0+0*
*       -1.06175243033-5 6.45733346977+2-2.28653846158+4
FORCE*                 2             143               0           1.0+0*
*        1.57692306633+3 6.34598860805+2-2.24711538465+4
$--1---><--2---><--3---><--4---><--5---><--6---><--7---><--8---><--9---><--10-->
$$$$$$$$$$$$$$$$$$$$$$$$$$$$$$$$$$$$ force $$$$$$$$$$$$$$$$$$$$$$$$$$$$$$$$$$$$$
FORCE*                 2             128               0           1.0+0*
*                  0.0+0-2.69658491164+3           0.0+0
FORCE*                 2             121               0           1.0+0*
*                  0.0+0-2.94887037277+3           0.0+0
FORCE*                 2             129               0           1.0+0*
*                  0.0+0-2.69658491164+3           0.0+0
FORCE*                 2             125               0           1.0+0*
*                  0.0+0-2.15112962723+3           0.0+0
FORCE*                 2             152               0           1.0+0*
*                  0.0+0  5.1199436605+3           0.0+0
FORCE*                 2             156               0           1.0+0*
*                  0.0+0 1.07025768399+4           0.0+0
FORCE          2     157       0   1.0+0   0.0+0  1.02+4   0.0+0
FORCE*                 2             160               0           1.0+0*
*                  0.0+0 5.91768440604+3           0.0+0
FORCE*                 2             215               0           1.0+0*
*                  0.0+0-1.12841508836+3           0.0+0
FORCE*                 2             221               0           1.0+0*
*                  0.0+0-1.12841508836+3           0.0+0
FORCE*                 2             214               0           1.0+0*
*                  0.0+0 4.28231559396+3           0.0+0
FORCE*                 2             220               0           1.0+0*
*                  0.0+0  5.0800563395+3           0.0+0
FORCE*                 2             177               0           1.0+0*
*                  0.0+0 4.59742316008+3           0.0+0
FORCE          2     132       0   1.0+0   0.0+0 -2.55+3   0.0+0
FORCE          2     133       0   1.0+0   0.0+0 -2.55+3   0.0+0
FORCE          2     164       0   1.0+0   0.0+0   5.1+3   0.0+0
FORCE          2     166       0   1.0+0   0.0+0  1.02+4   0.0+0
FORCE          2     169       0   1.0+0   0.0+0   5.1+3   0.0+0
FORCE*                 2             136               0           1.0+0*
*                  0.0+0      -1.59375+3           0.0+0
FORCE*                 2             137               0           1.0+0*
*                  0.0+0      -1.59375+3           0.0+0
FORCE          2     171       0   1.0+0   0.0+0   5.1+3   0.0+0
FORCE          2     145       0   1.0+0   0.0+0 6.375+3   0.0+0
FORCE          2     173       0   1.0+0   0.0+0   5.1+3   0.0+0
FORCE          2     187       0   1.0+0   0.0+0-6.375+2   0.0+0
FORCE          2     189       0   1.0+0   0.0+0-6.375+2   0.0+0
FORCE          2     180       0   1.0+0   0.0+0 1.275+3   0.0+0
FORCE          2     188       0   1.0+0   0.0+0  2.55+3   0.0+0
FORCE          2     181       0   1.0+0   0.0+0 1.275+3   0.0+0
FORCE          2     199       0   1.0+0   0.0+0-6.375+2   0.0+0
FORCE          2     201       0   1.0+0   0.0+0-6.375+2   0.0+0
FORCE          2     192       0   1.0+0   0.0+0 1.275+3   0.0+0
FORCE          2     200       0   1.0+0   0.0+0  2.55+3   0.0+0
FORCE          2     193       0   1.0+0   0.0+0 1.275+3   0.0+0
FORCE          2     211       0   1.0+0   0.0+0-6.375+2   0.0+0
FORCE          2     213       0   1.0+0   0.0+0-6.375+2   0.0+0
FORCE          2     204       0   1.0+0   0.0+0 1.275+3   0.0+0
FORCE          2     212       0   1.0+0   0.0+0  2.55+3   0.0+0
FORCE          2     205       0   1.0+0   0.0+0 1.275+3   0.0+0
FORCE*                 2             120               0           1.0+0*
*                  0.0+0       -3.1875+2           0.0+0
FORCE*                 2             124               0           1.0+0*
*                  0.0+0       -3.1875+2           0.0+0
FORCE          2     140       0   1.0+0   0.0+0 1.275+3   0.0+0
FORCE          2     148       0   1.0+0   0.0+0 1.275+3   0.0+0
FORCE          2     143       0   1.0+0   0.0+0 1.275+3   0.0+0
$--1---><--2---><--3---><--4---><--5---><--6---><--7---><--8---><--9---><--10-->
$$$$$$$$$$$$$$$$$$$$$$$$$$$$$$$$$$$$ force $$$$$$$$$$$$$$$$$$$$$$$$$$$$$$$$$$$$$
FORCE          2     117       0   1.0+0   0.0+0  7.65+4   0.0+0
$--1---><--2---><--3---><--4---><--5---><--6---><--7---><--8---><--9---><--10-->
$$$$$$$$$$$$$$$$$$$$$$$$$$$$ node-surface coupling $$$$$$$$$$$$$$$$$$$$$$$$$$$$$
RBE3*                 18                             117          123456*
*       -1.76247379846-1             123              11 3.34636840555-1*
*                    123              35-1.92736625671-1             123*
*                      4 6.66666666667-1             123              40*
*       -1.40596707662-1             123               8 3.86776758565-1*
*                    123              43-1.76247379846-1             123*
*                     12 6.99514826139-1             123              39*
*        2.79889908102-1             123              97 -7.3752620154-2*
*                    123              98 3.00485173861-1             123*
*                    108 -7.3752620154-2             123             104*
*        3.32029826111-1             123             103-1.66666666667-1*
*                    123              15 3.33333333333-1             123*
*                     47 3.33333333333-1             123              52*
*       -1.66666666667-1             123              16 6.66666666667-1*
*                    123              49-1.04166666667-1             123*
*                     19 3.33333333333-1             123              54*
*        3.33333333333-1             123              56-1.04166666667-1*
*                    123              20 4.16666666667-1             123*
*                     28-4.16666666667-2             123              82*
*        8.33333333333-2             123              75-4.16666666667-2*
*                    123              70 1.66666666667-1             123*
*                     71-4.16666666667-2             123              72*
*        8.33333333333-2             123              76-4.16666666667-2*
*                    123              84 1.66666666667-1             123*
*                     83 8.33333333333-2             123              63*
*        8.33333333333-2             123              64-2.08333333333-2*
*                    123               3 8.33333333333-2             123*
*                     23-4.16666666667-2             123              94*
*        1.66666666667-1             123              95-4.16666666667-2*
*                    123              96 8.33333333333-2             123*
*                     26-2.08333333333-2             123               7*
*        8.33333333333-2             123              31 8.33333333333-2*
*                    123              87 8.33333333333-2             123*
*                     88
$--1---><--2---><--3---><--4---><--5---><--6---><--7---><--8---><--9---><--10-->
LOAD           1   1.0+0   1.0+0       2
ENDDATA 
