$ Generated by Mecway 33
$-----------------------EXECUTIVE CONTROL SECTION-----------------------
SOL 101
CEND
$-------------------------CASE CONTROL SECTION--------------------------
DISPLACEMENT = ALL
SPCFORCES = ALL
MPCFORCES = ALL
STRESS(CORNER) = ALL
SPC = 1
LOAD = 1
BEGIN BULK
$---------------------------BULK DATA SECTION---------------------------
GRID*                  1               0-7.15515181423-4-1.21087256819-3*
*        1.19209289551-9               0
GRID           2       0   1.0-2   0.0+0   0.0+0       0
GRID*                  3               0 1.10090589523-2 9.72480177879-3*
*        8.3446536792-10               0
GRID*                  4               0-1.90804094076-3 8.83499324322-3*
*        8.3446536792-10               0
GRID*                  5               0-7.15514346957-4-3.35742074996-3*
*        8.73408615589-3               0
GRID*                  6               0 1.00000008345-2-2.14654818177-3*
*         8.7340849638-3               0
GRID*                  7               0 1.10090589523-2 9.72480177879-3*
*        1.00000008345-2               0
GRID*                  8               0-1.90804094076-3 8.83499324322-3*
*        1.00000008345-2               0
GRID*                  9               0 6.77785510197-3 5.39676006883-3*
*        1.31895663217-2               0
GRID*                 10               0-8.98980349302-4 2.85345226526-3*
*        8.78912746906-3               0
GRID          11       0   5.0-3   0.0+0   0.0+0       0
GRID*                 12               0 1.02293328047-2 4.99999947846-3*
*        1.19209289551-9               0
GRID          13       0   5.0-3   1.0-2   0.0+0       0
GRID*                 14               0-8.98981183768-4 3.78912784159-3*
*        1.19209289551-9               0
GRID*                 15               0-7.15514346957-4-1.59615144134-3*
*        3.95424515009-3               0
GRID*                 16               0 1.00000008345-2-3.85278873146-4*
*          3.954243958-3               0
GRID*                 17               0 1.10090589523-2 9.72480177879-3*
*        5.00000083447-3               0
GRID*                 18               0-1.90804094076-3 8.83499324322-3*
*        5.00000083447-3               0
GRID*                 19               0 5.00000083447-3-2.14654818177-3*
*         8.7340849638-3               0
GRID*                 20               0 1.02293336391-2 4.06432390213-3*
*        8.78912746906-3               0
GRID          21       0   5.0-3   1.0-2   1.0-2       0
PARAM    STR_CID      -2
$--1---><--2---><--3---><--4---><--5---><--6---><--7---><--8---><--9---><--10-->
$$$$$$$$$$$$$$$$$$$$$$$$$$$$$$$$$$$ Material $$$$$$$$$$$$$$$$$$$$$$$$$$$$$$$$$$$
MAT1           1  1.0+11  5.0+10   0.0+0   0.0+0   0.0+0   0.0+0
$--1---><--2---><--3---><--4---><--5---><--6---><--7---><--8---><--9---><--10-->
SPC            1       1       1   0.0+0
SPC            1       1       2   0.0+0
SPC            1       1       3   0.0+0
SPC            1       2       1   0.0+0
SPC            1       2       2   0.0+0
SPC            1       2       3   0.0+0
SPC            1       3       1   0.0+0
SPC            1       3       2   0.0+0
SPC            1       3       3   0.0+0
SPC            1       4       1   0.0+0
SPC            1       4       2   0.0+0
SPC            1       4       3   0.0+0
SPC            1      11       1   0.0+0
SPC            1      11       2   0.0+0
SPC            1      11       3   0.0+0
SPC            1      12       1   0.0+0
SPC            1      12       2   0.0+0
SPC            1      12       3   0.0+0
SPC            1      13       1   0.0+0
SPC            1      13       2   0.0+0
SPC            1      13       3   0.0+0
SPC            1      14       1   0.0+0
SPC            1      14       2   0.0+0
SPC            1      14       3   0.0+0
$--1---><--2---><--3---><--4---><--5---><--6---><--7---><--8---><--9---><--10-->
$$$$$$$$$$$$$$$$$$$$$$$$$$$$$$$$$$$ Default $$$$$$$$$$$$$$$$$$$$$$$$$$$$$$$$$$$$
PSOLID         1       1       0       3               1
CHEXA          1       1       8       4       3       7       5       1+
+              2       6      18      13      17      21      10      14+
+             12      20      15      11      16      19
$--1---><--2---><--3---><--4---><--5---><--6---><--7---><--8---><--9---><--10-->
$$$$$$$$$$$$$$$$$$$$$$$$$$$$$$$$$$$$ force $$$$$$$$$$$$$$$$$$$$$$$$$$$$$$$$$$$$$
FORCE          2       9       0   1.0+0  -2.1+2   1.3+2   1.0+2
$--1---><--2---><--3---><--4---><--5---><--6---><--7---><--8---><--9---><--10-->
$$$$$$$$$$$$$$$$$$$$$$$$$$$$$$$$$$$$ moment $$$$$$$$$$$$$$$$$$$$$$$$$$$$$$$$$$$$
MOMENT         2       9       0   1.0+0  -9.1-1   3.3+0 -1.45+0
$--1---><--2---><--3---><--4---><--5---><--6---><--7---><--8---><--9---><--10-->
$$$$$$$$$$$$$$$$$$$$$$$$$$$$ node-surface coupling $$$$$$$$$$$$$$$$$$$$$$$$$$$$$
RBE3*                  2                               9          123456*
*        -1.1948262517-5             123               7 4.75698218338-5*
*                    123              21-1.02612278387-5             123*
*                      8 4.87824522351-5             123              10*
*       -1.12449319005-5             123               5 4.56435226249-5*
*                    123              19-1.21204084033-5             123*
*                      6 4.36834779837-5             123              20*
*       
$--1---><--2---><--3---><--4---><--5---><--6---><--7---><--8---><--9---><--10-->
LOAD           1   1.0+0   1.0+0       2
ENDDATA 
