$ Generated by Mecway 33
$-----------------------EXECUTIVE CONTROL SECTION-----------------------
SOL 101
CEND
$-------------------------CASE CONTROL SECTION--------------------------
DISPLACEMENT = ALL
STRESS(CORNER) = ALL
FORCE(CORNER) = ALL
SPC = 1
TEMPERATURE = 4
BEGIN BULK
$---------------------------BULK DATA SECTION---------------------------
GRID*                  1               0 2.4492127076-16           0.0+0*
*                 -2.0+0               0
GRID*                  2               0 3.6738190615-16           0.0+0*
*                 -3.0+0               0
GRID*                  3               0 3.6738190615-16           1.0+0*
*                 -3.0+0               0
GRID*                  4               0 2.4492127076-16           1.0+0*
*                 -2.0+0               0
GRID*                  5               0 3.0615158846-16           0.0+0*
*                 -2.5+0               0
GRID*                  6               0 3.6738190615-16 4.36314374208-1*
*                 -3.0+0               0
GRID*                  7               0 2.9835260991-16           1.0+0*
*       -2.43631440401+0               0
GRID*                  8               0 2.4492127076-16 4.45412307978-1*
*                 -2.0+0               0
GRID*                  9               0 2.9111070438-16 5.72783470154-1*
*       -2.37717780471+0               0
GRID*                 10               0 2.6608172459-16 4.83825802803-1*
*       -2.17279392481+0               0
GRID*                 11               0 2.9473165714-16 7.86391735077-1*
*       -2.40674610436+0               0
GRID*                 12               0 2.7163694034-16           1.0+0*
*       -2.21815720201+0               0
GRID*                 13               0 2.4492127076-16 7.22706153989-1*
*                 -2.0+0               0
GRID*                 14               0 2.6982646395-16 7.54548944533-1*
*       -2.20337305218+0               0
GRID*                 15               0 2.7553642961-16           0.0+0*
*                -2.25+0               0
GRID*                 16               0 2.9863114642-16 2.86391735077-1*
*       -2.43858890235+0               0
GRID*                 17               0 2.4492127076-16 2.22706153989-1*
*                 -2.0+0               0
GRID*                 18               0  2.667471126-16 2.35594883561-1*
*       -2.17822740972+0               0
GRID*                 19               0  3.367667473-16 2.18157187104-1*
*                -2.75+0               0
GRID*                 20               0 3.2653833197-16  5.8036506176-1*
*       -2.66647589207+0               0
GRID*                 21               0 3.6738190615-16 7.18157187104-1*
*                 -3.0+0               0
GRID*                 22               0 3.3286725803-16           1.0+0*
*       -2.71815720201+0               0
GRID*                 23               0 3.3105678165-16 7.52274461091-1*
*       -2.70337305218+0               0
GRID*                 24               0  3.367667473-16           0.0+0*
*                -2.75+0               0
GRID*                 25               0 3.6738190615-16 2.18157187104-1*
*                 -3.0+0               0
GRID          26       0   0.0+0   0.0+0   0.0+0       0
GRID*                 27               0 1.2246063538-16           0.0+0*
*                 -1.0+0               0
GRID*                 28               0 1.2246063538-16           1.0+0*
*                 -1.0+0               0
GRID          29       0   0.0+0   1.0+0   0.0+0       0
GRID*                 30               0 6.1230317691-17           0.0+0*
*                 -5.0-1               0
GRID*                 31               0 1.2246063538-16 4.36314374208-1*
*                 -1.0+0               0
GRID*                 32               0 5.3431339142-17           1.0+0*
*       -4.36314404011-1               0
GRID*                 33               0           0.0+0 4.45412307978-1*
*                  0.0+0               0
GRID*                 34               0 4.6189433617-17 5.72783470154-1*
*       -3.77177804708-1               0
GRID*                 35               0 2.1160453822-17 4.83825802803-1*
*       -1.72793924809-1               0
GRID*                 36               0 4.9810386379-17 7.86391735077-1*
*        -4.0674610436-1               0
GRID*                 37               0 2.6715669571-17           1.0+0*
*       -2.18157202005-1               0
GRID*                 38               0           0.0+0 7.22706153989-1*
*                  0.0+0               0
GRID*                 39               0  2.490519319-17 7.54548944533-1*
*        -2.0337305218-1               0
GRID*                 40               0 3.0615158846-17           0.0+0*
*                 -2.5-1               0
GRID*                 41               0 5.3709875654-17 2.86391735077-1*
*       -4.38588902354-1               0
GRID*                 42               0           0.0+0 2.22706153989-1*
*                  0.0+0               0
GRID*                 43               0 2.1825841837-17 2.35594883561-1*
*        -1.7822740972-1               0
GRID*                 44               0 9.1845476537-17 2.18157187104-1*
*                 -7.5-1               0
GRID*                 45               0 8.1617061209-17  5.8036506176-1*
*       -6.66475892067-1               0
GRID*                 46               0 1.2246063538-16 7.18157187104-1*
*                 -1.0+0               0
GRID*                 47               0 8.7945987262-17           1.0+0*
*       -7.18157202005-1               0
GRID*                 48               0 8.6135510881-17 7.52274461091-1*
*        -7.0337305218-1               0
GRID*                 49               0 9.1845476537-17           0.0+0*
*                 -7.5-1               0
GRID*                 50               0 1.2246063538-16 2.18157187104-1*
*                 -1.0+0               0
PARAM    STR_CID      -2
$--1---><--2---><--3---><--4---><--5---><--6---><--7---><--8---><--9---><--10-->
$$$$$$$$$$$$$$$$$$$$$$$$$$$$$$$$$$$$ ortho $$$$$$$$$$$$$$$$$$$$$$$$$$$$$$$$$$$$$
MAT8*                  1          2.0+11          2.0+11           0.0+0*
*                 1.0+11          1.0+11          1.0+11           0.0+0*
*                  1.1-3           2.5-3        3.2315+2                *
*
$--1---><--2---><--3---><--4---><--5---><--6---><--7---><--8---><--9---><--10-->
SPC            1       1       2   0.0+0
SPC            1       1       3   0.0+0
SPC            1       1       5   0.0+0
SPC            1       1       6   0.0+0
SPC            1       1       4   0.0+0
SPC            1       2       2   0.0+0
SPC            1       2       6   0.0+0
SPC            1       2       4   0.0+0
SPC            1       3       2   0.0+0
SPC            1       3       6   0.0+0
SPC            1       3       4   0.0+0
SPC            1       4       2   0.0+0
SPC            1       4       3   0.0+0
SPC            1       4       5   0.0+0
SPC            1       4       6   0.0+0
SPC            1       4       4   0.0+0
SPC            1       5       2   0.0+0
SPC            1       5       6   0.0+0
SPC            1       5       4   0.0+0
SPC            1       7       2   0.0+0
SPC            1       7       6   0.0+0
SPC            1       7       4   0.0+0
SPC            1       8       3   0.0+0
SPC            1       8       5   0.0+0
SPC            1       8       4   0.0+0
SPC            1      12       2   0.0+0
SPC            1      12       6   0.0+0
SPC            1      12       4   0.0+0
SPC            1      13       3   0.0+0
SPC            1      13       5   0.0+0
SPC            1      13       4   0.0+0
SPC            1      15       2   0.0+0
SPC            1      15       6   0.0+0
SPC            1      15       4   0.0+0
SPC            1      17       3   0.0+0
SPC            1      17       5   0.0+0
SPC            1      17       4   0.0+0
SPC            1      22       2   0.0+0
SPC            1      22       6   0.0+0
SPC            1      22       4   0.0+0
SPC            1      24       2   0.0+0
SPC            1      24       6   0.0+0
SPC            1      24       4   0.0+0
SPC            1      26       2   0.0+0
SPC            1      26       3   0.0+0
SPC            1      26       5   0.0+0
SPC            1      26       6   0.0+0
SPC            1      26       4   0.0+0
SPC            1      27       2   0.0+0
SPC            1      27       6   0.0+0
SPC            1      27       4   0.0+0
SPC            1      28       2   0.0+0
SPC            1      28       6   0.0+0
SPC            1      28       4   0.0+0
SPC            1      29       2   0.0+0
SPC            1      29       3   0.0+0
SPC            1      29       5   0.0+0
SPC            1      29       6   0.0+0
SPC            1      29       4   0.0+0
SPC            1      30       2   0.0+0
SPC            1      30       6   0.0+0
SPC            1      30       4   0.0+0
SPC            1      32       2   0.0+0
SPC            1      32       6   0.0+0
SPC            1      32       4   0.0+0
SPC            1      33       3   0.0+0
SPC            1      33       5   0.0+0
SPC            1      33       4   0.0+0
SPC            1      37       2   0.0+0
SPC            1      37       6   0.0+0
SPC            1      37       4   0.0+0
SPC            1      38       3   0.0+0
SPC            1      38       5   0.0+0
SPC            1      38       4   0.0+0
SPC            1      40       2   0.0+0
SPC            1      40       6   0.0+0
SPC            1      40       4   0.0+0
SPC            1      42       3   0.0+0
SPC            1      42       5   0.0+0
SPC            1      42       4   0.0+0
SPC            1      47       2   0.0+0
SPC            1      47       6   0.0+0
SPC            1      47       4   0.0+0
SPC            1      49       2   0.0+0
SPC            1      49       6   0.0+0
SPC            1      49       4   0.0+0
$--1---><--2---><--3---><--4---><--5---><--6---><--7---><--8---><--9---><--10-->
$$$$$$$$$$$$$$$$$$$$$$$$$$$$$$$$$$$ Default $$$$$$$$$$$$$$$$$$$$$$$$$$$$$$$$$$$$
PSHELL         1       1   3.0-1       1               1           0.0+0
CQUAD4*                1               1              13              14*
*                     12               4 1.71101259304+2           0.0+0
CQUAD4         2       1       1      15      18      17   1.8+2   0.0+0
CQUAD4         3       1      15       5      16      18   1.8+2   0.0+0
CQUAD4*                4               1              10              18*
*                     16               9-9.12539374605+1           0.0+0
CQUAD4*                5               1              17              18*
*                     10               8 1.75863787032+2           0.0+0
CQUAD4*               10               1               9              20*
*                     23              11 1.78498801707+2           0.0+0
CQUAD4*               11               1              20               6*
*                     21              23-1.56640248851+2           0.0+0
CQUAD4*               12               1              23              21*
*                      3              22 -1.7343881706+2           0.0+0
CQUAD4*               17               1              16               5*
*                     24              19-1.02102683415+2           0.0+0
CQUAD4        18       1      24       2      25      19   1.8+2   0.0+0
CQUAD4        19       1      25       6      20      19   9.0+1   0.0+0
CQUAD4*               20               1              20               9*
*                     16              19-1.50119829347+0           0.0+0
CQUAD4*               41               1              11              23*
*                     22               7 -1.7343881706+2           0.0+0
CQUAD4*               46               1               8              10*
*                     14              13 1.67466501688+2           0.0+0
CQUAD4*               47               1              14              10*
*                      9              11-8.35555554683+1           0.0+0
CQUAD4*               48               1              14              11*
*                      7              12 1.71101259304+2           0.0+0
PSHELL         2       1   3.0-1       1               1           0.0+0
CTRIA3*                6               2              42              43*
*                     35 1.75863787032+2           0.0+0
CTRIA3*                7               2              34              45*
*                     48 1.78498801707+2           0.0+0
CTRIA3*                8               2              45              31*
*                     46-1.56640248851+2           0.0+0
CTRIA3*                9               2              48              46*
*                     28 -1.7343881706+2           0.0+0
CTRIA3*               13               2              36              48*
*                     47 -1.7343881706+2           0.0+0
CTRIA3*               14               2              33              35*
*                     39 1.67466501688+2           0.0+0
CTRIA3*               15               2              39              35*
*                     34-8.35555554683+1           0.0+0
CTRIA3*               16               2              39              36*
*                     32 1.71101259304+2           0.0+0
CTRIA3*               21               2              36              47*
*                     32 1.45552348286+2           0.0+0
CTRIA3*               22               2              44              30*
*                     49-4.11088858903+1           0.0+0
CTRIA3        23       2      49      27      50   1.8+2   0.0+0
CTRIA3        24       2      44      50      31   1.8+2   0.0+0
CTRIA3        25       2      44      49      50  -9.0+1   0.0+0
CTRIA3*               26               2              33              39*
*                     38 1.23339890603+2           0.0+0
CTRIA3*               27               2              39              34*
*                     36-1.33717441611+2           0.0+0
CTRIA3*               28               2              39              32*
*                     37 1.33502087603+2           0.0+0
CTRIA3*               29               2              38              37*
*                     29 1.28193422896+2           0.0+0
CTRIA3*               30               2              26              43*
*                     42 1.27107486872+2           0.0+0
CTRIA3*               31               2              40              41*
*                     43 1.23364896162+2           0.0+0
CTRIA3*               32               2              35              41*
*                     34-1.43394818544+2           0.0+0
CTRIA3*               33               2              42              35*
*                     33 1.23494293075+2           0.0+0
CTRIA3*               34               2              30              44*
*                     41  1.3889111411+2           0.0+0
CTRIA3*               35               2              44              31*
*                     45  1.3889111411+2           0.0+0
CTRIA3*               36               2              41              45*
*                     34 1.27782704838+2           0.0+0
CTRIA3*               37               2              41              44*
*                     45-1.67641008037+2           0.0+0
CTRIA3*               38               2              34              48*
*                     36 1.51177932943+2           0.0+0
CTRIA3*               39               2              45              46*
*                     48 1.57552526107+2           0.0+0
CTRIA3*               40               2              48              28*
*                     47 1.40133334712+2           0.0+0
CTRIA3*               42               2              38              39*
*                     37 1.71101259304+2           0.0+0
CTRIA3        43       2      26      40      43  -1.8+2   0.0+0
CTRIA3        44       2      40      30      41  -1.8+2   0.0+0
CTRIA3*               45               2              35              43*
*                     41-9.12539374605+1           0.0+0
$--1---><--2---><--3---><--4---><--5---><--6---><--7---><--8---><--9---><--10-->
$$$$$$$$$$$$$$$$$$$$$$$$$$$$$$$$$ temperature $$$$$$$$$$$$$$$$$$$$$$$$$$$$$$$$$$
TEMP*                  4              13        3.2615+2                *
*
TEMP*                  4              14        3.2615+2                *
*
TEMP*                  4              12        3.2615+2                *
*
TEMP*                  4               4        3.2615+2                *
*
TEMP*                  4               1        3.2615+2                *
*
TEMP*                  4              15        3.2615+2                *
*
TEMP*                  4              18        3.2615+2                *
*
TEMP*                  4              17        3.2615+2                *
*
TEMP*                  4               5        3.2615+2                *
*
TEMP*                  4              16        3.2615+2                *
*
TEMP*                  4              10        3.2615+2                *
*
TEMP*                  4               9        3.2615+2                *
*
TEMP*                  4               8        3.2615+2                *
*
TEMP*                  4              42        3.2615+2                *
*
TEMP*                  4              43        3.2615+2                *
*
TEMP*                  4              35        3.2615+2                *
*
TEMP*                  4              34        3.2615+2                *
*
TEMP*                  4              45        3.2615+2                *
*
TEMP*                  4              48        3.2615+2                *
*
TEMP*                  4              31        3.2615+2                *
*
TEMP*                  4              46        3.2615+2                *
*
TEMP*                  4              28        3.2615+2                *
*
TEMP*                  4              20        3.2615+2                *
*
TEMP*                  4              23        3.2615+2                *
*
TEMP*                  4              11        3.2615+2                *
*
TEMP*                  4               6        3.2615+2                *
*
TEMP*                  4              21        3.2615+2                *
*
TEMP*                  4               3        3.2615+2                *
*
TEMP*                  4              22        3.2615+2                *
*
TEMP*                  4              36        3.2615+2                *
*
TEMP*                  4              47        3.2615+2                *
*
TEMP*                  4              33        3.2615+2                *
*
TEMP*                  4              39        3.2615+2                *
*
TEMP*                  4              32        3.2615+2                *
*
TEMP*                  4              24        3.2615+2                *
*
TEMP*                  4              19        3.2615+2                *
*
TEMP*                  4               2        3.2615+2                *
*
TEMP*                  4              25        3.2615+2                *
*
TEMP*                  4              44        3.2615+2                *
*
TEMP*                  4              30        3.2615+2                *
*
TEMP*                  4              49        3.2615+2                *
*
TEMP*                  4              27        3.2615+2                *
*
TEMP*                  4              50        3.2615+2                *
*
TEMP*                  4              38        3.2615+2                *
*
TEMP*                  4              37        3.2615+2                *
*
TEMP*                  4              29        3.2615+2                *
*
TEMP*                  4              26        3.2615+2                *
*
TEMP*                  4              40        3.2615+2                *
*
TEMP*                  4              41        3.2615+2                *
*
TEMP*                  4               7        3.2615+2                *
*
$--1---><--2---><--3---><--4---><--5---><--6---><--7---><--8---><--9---><--10-->
TEMPD*                 4        3.2315+2                                *
*
$--1---><--2---><--3---><--4---><--5---><--6---><--7---><--8---><--9---><--10-->
ENDDATA 
