SOL 101
CEND
TITLE = MacNeal-Harder solid patch test - CHEXA
DISPLACEMENT = ALL
SPCFORCES = ALL
STRESS = ALL
STRAIN = ALL
SPC = 1
BEGIN BULK
MAT1           1 1.000+6         2.500-1
PARAM    STR_CID      -2
PSOLID,1,1,0,2,
GRID           1            0.0     0.0     0.0 
GRID           2         1.000+0    0.0     0.0 
GRID           3         1.000+0 1.000+0    0.0 
GRID           4            0.0  1.000+0    0.0 
GRID           5            0.0     0.0  1.000+0
GRID           6         1.000+0    0.0  1.000+0
GRID           7         1.000+0 1.000+0 1.000+0
GRID           8            0.0  1.000+0 1.000+0
GRID           9         2.490-1 3.420-1 1.920-1
GRID          10         8.260-1 2.880-1 2.880-1
GRID          11         8.500-1 6.490-1 2.630-1
GRID          12         2.730-1 7.500-1 2.300-1
GRID          13         3.200-1 1.860-1 6.430-1
GRID          14         6.770-1 3.050-1 6.830-1
GRID          15         7.880-1 6.930-1 6.440-1
GRID          16         1.650-1 7.450-1 7.020-1
CHEXA          1       1       1       2       3       4       9      10+
+             11      12
CHEXA          2       1      13      14      15      16       5       6+
+              7       8
CHEXA          3       1       1       2      10       9       5       6+
+             14      13
CHEXA          4       1      12      11       3       4      16      15+
+              7       8
CHEXA          5       1       1       9      12       4       5      13+
+             16       8
CHEXA          6       1      10       2       3      11      14       6+
+              7      15
CHEXA          7       1       9      10      11      12      13      14+
+             15      16
SPC1           1     456       1       2       3       4       5       6+
+              7       8       9      10      11      12      13      14+
+             15      16
SPC            1       1       1    0.0 
SPC            1       1       2    0.0 
SPC            1       1       3    0.0 
SPC            1       2       1 1.000-3
SPC            1       2       2 5.000-4
SPC            1       2       3 5.000-4
SPC            1       3       1 1.500-3
SPC            1       3       2 1.500-3
SPC            1       3       3 1.000-3
SPC            1       4       1 5.000-4
SPC            1       4       2 1.000-3
SPC            1       4       3 5.000-4
SPC            1       5       1 5.000-4
SPC            1       5       2 5.000-4
SPC            1       5       3 1.000-3
SPC            1       6       1 1.500-3
SPC            1       6       2 1.000-3
SPC            1       6       3 1.500-3
SPC            1       7       1 2.000-3
SPC            1       7       2 2.000-3
SPC            1       7       3 2.000-3
SPC            1       8       1 1.000-3
SPC            1       8       2 1.500-3
SPC            1       8       3 1.500-3
ENDDATA
