$ Generated by Mecway 29
$-----------------------EXECUTIVE CONTROL SECTION-----------------------
SOL 101
CEND
$-------------------------CASE CONTROL SECTION--------------------------
DISPLACEMENT = ALL
STRESS(CORNER) = ALL
FORCE = ALL
SPC = 1
LOAD = 1
BEGIN BULK
$---------------------------BULK DATA SECTION---------------------------
GRID*                  1               0          3.0+00          5.0-01*       
*                 0.0+00               0
GRID*                  2               0          2.0+00          0.0+00*       
*                 0.0+00               0
GRID*                  3               0          3.0+00          1.0+00*       
*                 0.0+00               0
GRID*                  4               0          3.0+00          0.0+00*       
*                 0.0+00               0
GRID*                  5               0          2.5+00          5.0-01*       
*                 0.0+00               0
GRID*                  6               0          2.0+00          1.0+00*       
*                 0.0+00               0
GRID*                  7               0          2.5+00          1.0+00*       
*                 0.0+00               0
GRID*                  8               0          2.0+00          5.0-01*       
*                 0.0+00               0
GRID*                  9               0          2.5+00          0.0+00*       
*                 0.0+00               0
GRID*                 10               0         -5.0-01          1.0+00*       
*                 0.0+00               0
GRID*                 11               0          1.0+00          0.0+00*       
*                 0.0+00               0
GRID*                 12               0         -1.0+00          0.0+00*       
*                 0.0+00               0
GRID*                 13               0         -1.0+00          5.0-01*       
*                 0.0+00               0
GRID*                 14               0          1.5+00          5.0-01*       
*                 0.0+00               0
GRID*                 15               0          1.0+00          1.0+00*       
*                 0.0+00               0
GRID*                 16               0          1.5+00          1.0+00*       
*                 0.0+00               0
GRID*                 17               0          1.0+00          5.0-01*       
*                 0.0+00               0
GRID*                 18               0          1.5+00          0.0+00*       
*                 0.0+00               0
GRID*                 19               0         -5.0-01          0.0+00*       
*                 0.0+00               0
GRID*                 20               0          0.0+00          0.0+00*       
*                 0.0+00               0
GRID*                 21               0         -5.0-01          5.0-01*       
*                 0.0+00               0
GRID*                 22               0         -1.0+00          1.0+00*       
*                 0.0+00               0
GRID*                 23               0          5.0-01          5.0-01*       
*                 0.0+00               0
GRID*                 24               0          0.0+00          1.0+00*       
*                 0.0+00               0
GRID*                 25               0          5.0-01          1.0+00*       
*                 0.0+00               0
GRID*                 26               0          0.0+00          5.0-01*       
*                 0.0+00               0
GRID*                 27               0          5.0-01          0.0+00*       
*                 0.0+00               0
GRID*                 28               0          2.5+00          7.5-01*       
*                 0.0+00               0
GRID*                 29               0         2.75+00          5.0-01*       
*                 0.0+00               0
GRID*                 30               0          3.0+00          7.5-01*       
*                 0.0+00               0
GRID*                 31               0         2.75+00          1.0+00*       
*                 0.0+00               0
GRID*                 32               0         2.75+00          7.5-01*       
*                 0.0+00               0
GRID*                 33               0          2.0+00          7.5-01*       
*                 0.0+00               0
GRID*                 34               0         2.25+00          5.0-01*       
*                 0.0+00               0
GRID*                 35               0         2.25+00          1.0+00*       
*                 0.0+00               0
GRID*                 36               0         2.25+00          7.5-01*       
*                 0.0+00               0
GRID*                 37               0          2.0+00          2.5-01*       
*                 0.0+00               0
GRID*                 38               0         2.25+00          0.0+00*       
*                 0.0+00               0
GRID*                 39               0          2.5+00          2.5-01*       
*                 0.0+00               0
GRID*                 40               0         2.25+00          2.5-01*       
*                 0.0+00               0
GRID*                 41               0         2.75+00          0.0+00*       
*                 0.0+00               0
GRID*                 42               0          3.0+00          2.5-01*       
*                 0.0+00               0
GRID*                 43               0         2.75+00          2.5-01*       
*                 0.0+00               0
GRID*                 44               0          1.5+00          7.5-01*       
*                 0.0+00               0
GRID*                 45               0         1.75+00          5.0-01*       
*                 0.0+00               0
GRID*                 46               0         1.75+00          1.0+00*       
*                 0.0+00               0
GRID*                 47               0         1.75+00          7.5-01*       
*                 0.0+00               0
GRID*                 48               0          1.0+00          7.5-01*       
*                 0.0+00               0
GRID*                 49               0         1.25+00          5.0-01*       
*                 0.0+00               0
GRID*                 50               0         1.25+00          1.0+00*       
*                 0.0+00               0
GRID*                 51               0         1.25+00          7.5-01*       
*                 0.0+00               0
GRID*                 52               0          1.0+00          2.5-01*       
*                 0.0+00               0
GRID*                 53               0         1.25+00          0.0+00*       
*                 0.0+00               0
GRID*                 54               0          1.5+00          2.5-01*       
*                 0.0+00               0
GRID*                 55               0         1.25+00          2.5-01*       
*                 0.0+00               0
GRID*                 56               0         1.75+00          0.0+00*       
*                 0.0+00               0
GRID*                 57               0         1.75+00          2.5-01*       
*                 0.0+00               0
GRID*                 58               0          5.0-01          7.5-01*       
*                 0.0+00               0
GRID*                 59               0          7.5-01          5.0-01*       
*                 0.0+00               0
GRID*                 60               0          7.5-01          1.0+00*       
*                 0.0+00               0
GRID*                 61               0          7.5-01          7.5-01*       
*                 0.0+00               0
GRID*                 62               0          0.0+00          7.5-01*       
*                 0.0+00               0
GRID*                 63               0          2.5-01          5.0-01*       
*                 0.0+00               0
GRID*                 64               0          2.5-01          1.0+00*       
*                 0.0+00               0
GRID*                 65               0          2.5-01          7.5-01*       
*                 0.0+00               0
GRID*                 66               0          0.0+00          2.5-01*       
*                 0.0+00               0
GRID*                 67               0          2.5-01          0.0+00*       
*                 0.0+00               0
GRID*                 68               0          5.0-01          2.5-01*       
*                 0.0+00               0
GRID*                 69               0          2.5-01          2.5-01*       
*                 0.0+00               0
GRID*                 70               0          7.5-01          0.0+00*       
*                 0.0+00               0
GRID*                 71               0          7.5-01          2.5-01*       
*                 0.0+00               0
GRID*                 72               0         -5.0-01          7.5-01*       
*                 0.0+00               0
GRID*                 73               0         -2.5-01          5.0-01*       
*                 0.0+00               0
GRID*                 74               0         -2.5-01          1.0+00*       
*                 0.0+00               0
GRID*                 75               0         -2.5-01          7.5-01*       
*                 0.0+00               0
GRID*                 76               0         -1.0+00          7.5-01*       
*                 0.0+00               0
GRID*                 77               0         -7.5-01          5.0-01*       
*                 0.0+00               0
GRID*                 78               0         -7.5-01          1.0+00*       
*                 0.0+00               0
GRID*                 79               0         -7.5-01          7.5-01*       
*                 0.0+00               0
GRID*                 80               0         -1.0+00          2.5-01*       
*                 0.0+00               0
GRID*                 81               0         -7.5-01          0.0+00*       
*                 0.0+00               0
GRID*                 82               0         -5.0-01          2.5-01*       
*                 0.0+00               0
GRID*                 83               0         -7.5-01          2.5-01*       
*                 0.0+00               0
GRID*                 84               0         -2.5-01          0.0+00*       
*                 0.0+00               0
GRID*                 85               0         -2.5-01          2.5-01*       
*                 0.0+00               0
$--1---><------2-------><------3-------><------4-------><------5-------><--6--->
$$$$$$$$$$$$$$$$$$$$$$$$$$$$$$$$$$$ Material $$$$$$$$$$$$$$$$$$$$$$$$$$$$$$$$$$$
MAT1*                  1          2.0+11          1.0+11          0.0+00*       
*                 0.0+00          0.0+00          0.0+00
$--1---><------2-------><------3-------><------4-------><------5-------><--6--->
SPC*                   1               1               1          0.0+00*       
*                                                                       
SPC*                   1               1               2          0.0+00*       
*                                                                       
SPC*                   1               1               3          0.0+00*       
*                                                                       
SPC*                   1               1               4          0.0+00*       
*                                                                       
SPC*                   1               1               5          0.0+00*       
*                                                                       
SPC*                   1               1               6          0.0+00*       
*                                                                       
SPC*                   1               3               1          0.0+00*       
*                                                                       
SPC*                   1               3               2          0.0+00*       
*                                                                       
SPC*                   1               3               3          0.0+00*       
*                                                                       
SPC*                   1               3               4          0.0+00*       
*                                                                       
SPC*                   1               3               5          0.0+00*       
*                                                                       
SPC*                   1               3               6          0.0+00*       
*                                                                       
SPC*                   1               4               1          0.0+00*       
*                                                                       
SPC*                   1               4               2          0.0+00*       
*                                                                       
SPC*                   1               4               3          0.0+00*       
*                                                                       
SPC*                   1               4               4          0.0+00*       
*                                                                       
SPC*                   1               4               5          0.0+00*       
*                                                                       
SPC*                   1               4               6          0.0+00*       
*                                                                       
SPC*                   1              30               1          0.0+00*       
*                                                                       
SPC*                   1              30               2          0.0+00*       
*                                                                       
SPC*                   1              30               3          0.0+00*       
*                                                                       
SPC*                   1              30               4          0.0+00*       
*                                                                       
SPC*                   1              30               5          0.0+00*       
*                                                                       
SPC*                   1              30               6          0.0+00*       
*                                                                       
SPC*                   1              42               1          0.0+00*       
*                                                                       
SPC*                   1              42               2          0.0+00*       
*                                                                       
SPC*                   1              42               3          0.0+00*       
*                                                                       
SPC*                   1              42               4          0.0+00*       
*                                                                       
SPC*                   1              42               5          0.0+00*       
*                                                                       
SPC*                   1              42               6          0.0+00*       
*                                                                       
$--1---><------2-------><------3-------><------4-------><------5-------><--6--->
$$$$$$$$$$$$$$$$$$$$$$$$$$$$$$$$$$$ Default $$$$$$$$$$$$$$$$$$$$$$$$$$$$$$$$$$$$
PSHELL*                1               1          5.0-01               1*       
*                                      1                          0.0+00
CQUAD4*                1               1              10              72*       
*                     75              74          0.0+00          0.0+00
CQUAD4*                2               1              72              21*       
*                     73              75          0.0+00          0.0+00
CQUAD4*                3               1              75              73*       
*                     26              62          0.0+00          0.0+00
CQUAD4*                4               1              74              75*       
*                     62              24          0.0+00          0.0+00
CQUAD4*                5               1              22              76*       
*                     79              78          0.0+00          0.0+00
CQUAD4*                6               1              76              13*       
*                     77              79          0.0+00          0.0+00
CQUAD4*                7               1              79              77*       
*                     21              72          0.0+00          0.0+00
CQUAD4*                8               1              78              79*       
*                     72              10          0.0+00          0.0+00
CQUAD4*                9               1              13              80*       
*                     83              77          0.0+00          0.0+00
CQUAD4*               10               1              80              12*       
*                     81              83          0.0+00          0.0+00
CQUAD4*               11               1              83              81*       
*                     19              82          0.0+00          0.0+00
CQUAD4*               12               1              77              83*       
*                     82              21          0.0+00          0.0+00
CQUAD4*               13               1              21              82*       
*                     85              73          0.0+00          0.0+00
CQUAD4*               14               1              82              19*       
*                     84              85          0.0+00          0.0+00
CQUAD4*               15               1              85              84*       
*                     20              66          0.0+00          0.0+00
CQUAD4*               16               1              73              85*       
*                     66              26          0.0+00          0.0+00
CQUAD4*               17               1               7              28*       
*                     32              31          0.0+00          0.0+00
CQUAD4*               18               1              28               5*       
*                     29              32          0.0+00          0.0+00
CQUAD4*               19               1              32              29*       
*                      1              30          0.0+00          0.0+00
CQUAD4*               20               1              31              32*       
*                     30               3          0.0+00          0.0+00
CQUAD4*               21               1               6              33*       
*                     36              35          0.0+00          0.0+00
CQUAD4*               22               1              33               8*       
*                     34              36          0.0+00          0.0+00
CQUAD4*               23               1              36              34*       
*                      5              28          0.0+00          0.0+00
CQUAD4*               24               1              35              36*       
*                     28               7          0.0+00          0.0+00
CQUAD4*               25               1               8              37*       
*                     40              34          0.0+00          0.0+00
CQUAD4*               26               1              37               2*       
*                     38              40          0.0+00          0.0+00
CQUAD4*               27               1              40              38*       
*                      9              39          0.0+00          0.0+00
CQUAD4*               28               1              34              40*       
*                     39               5          0.0+00          0.0+00
CQUAD4*               29               1               5              39*       
*                     43              29          0.0+00          0.0+00
CQUAD4*               30               1              39               9*       
*                     41              43          0.0+00          0.0+00
CQUAD4*               31               1              43              41*       
*                      4              42          0.0+00          0.0+00
CQUAD4*               32               1              29              43*       
*                     42               1          0.0+00          0.0+00
CQUAD4*               33               1              16              44*       
*                     47              46          0.0+00          0.0+00
CQUAD4*               34               1              44              14*       
*                     45              47          0.0+00          0.0+00
CQUAD4*               35               1              47              45*       
*                      8              33          0.0+00          0.0+00
CQUAD4*               36               1              46              47*       
*                     33               6          0.0+00          0.0+00
CQUAD4*               37               1              15              48*       
*                     51              50          0.0+00          0.0+00
CQUAD4*               38               1              48              17*       
*                     49              51          0.0+00          0.0+00
CQUAD4*               39               1              51              49*       
*                     14              44          0.0+00          0.0+00
CQUAD4*               40               1              50              51*       
*                     44              16          0.0+00          0.0+00
CQUAD4*               41               1              17              52*       
*                     55              49          0.0+00          0.0+00
CQUAD4*               42               1              52              11*       
*                     53              55          0.0+00          0.0+00
CQUAD4*               43               1              55              53*       
*                     18              54          0.0+00          0.0+00
CQUAD4*               44               1              49              55*       
*                     54              14          0.0+00          0.0+00
CQUAD4*               45               1              14              54*       
*                     57              45          0.0+00          0.0+00
CQUAD4*               46               1              54              18*       
*                     56              57          0.0+00          0.0+00
CQUAD4*               47               1              57              56*       
*                      2              37          0.0+00          0.0+00
CQUAD4*               48               1              45              57*       
*                     37               8          0.0+00          0.0+00
CQUAD4*               49               1              25              58*       
*                     61              60          0.0+00          0.0+00
CQUAD4*               50               1              58              23*       
*                     59              61          0.0+00          0.0+00
CQUAD4*               51               1              61              59*       
*                     17              48          0.0+00          0.0+00
CQUAD4*               52               1              60              61*       
*                     48              15          0.0+00          0.0+00
CQUAD4*               53               1              24              62*       
*                     65              64          0.0+00          0.0+00
CQUAD4*               54               1              62              26*       
*                     63              65          0.0+00          0.0+00
CQUAD4*               55               1              65              63*       
*                     23              58          0.0+00          0.0+00
CQUAD4*               56               1              64              65*       
*                     58              25          0.0+00          0.0+00
CQUAD4*               57               1              26              66*       
*                     69              63          0.0+00          0.0+00
CQUAD4*               58               1              66              20*       
*                     67              69          0.0+00          0.0+00
CQUAD4*               59               1              69              67*       
*                     27              68          0.0+00          0.0+00
CQUAD4*               60               1              63              69*       
*                     68              23          0.0+00          0.0+00
CQUAD4*               61               1              23              68*       
*                     71              59          0.0+00          0.0+00
CQUAD4*               62               1              68              27*       
*                     70              71          0.0+00          0.0+00
CQUAD4*               63               1              71              70*       
*                     11              52          0.0+00          0.0+00
CQUAD4*               64               1              59              71*       
*                     52              17          0.0+00          0.0+00
$--1---><------2-------><------3-------><------4-------><------5-------><--6--->
$$$$$$$$$$$$$$$$$$$$$$$$$$$$$$$$$$$$ force $$$$$$$$$$$$$$$$$$$$$$$$$$$$$$$$$$$$$
FORCE*                 1              22               0          1.0+00*       
*                 0.0+00          0.0+00         1.25+02
FORCE*                 1              76               0          1.0+00*       
*                 0.0+00          0.0+00          2.5+02
FORCE*                 1              13               0          1.0+00*       
*                 0.0+00          0.0+00          2.5+02
FORCE*                 1              80               0          1.0+00*       
*                 0.0+00          0.0+00          2.5+02
FORCE*                 1              12               0          1.0+00*       
*                 0.0+00          0.0+00         1.25+02
$--1---><------2-------><------3-------><------4-------><------5-------><--6--->
ENDDATA
