$ Generated by Mecway 29
$-----------------------EXECUTIVE CONTROL SECTION-----------------------
SOL 101
CEND
$-------------------------CASE CONTROL SECTION--------------------------
DISPLACEMENT = ALL
STRESS(CORNER) = ALL
FORCE = ALL
SPC = 1
LOAD = 1
BEGIN BULK
$---------------------------BULK DATA SECTION---------------------------
GRID*                  1               0 9.2387953251-01 3.8268343237-01*       
*                 0.0+00               0
GRID*                  2               0 7.0710678119-01 7.0710678119-01*       
*                 0.0+00               0
GRID*                  3               0 3.8268343237-01 9.2387953251-01*       
*                 0.0+00               0
GRID*                  4               0          0.0+00          1.0+00*       
*                 0.0+00               0
GRID*                  5               0          5.0-01          0.0+00*       
*                 0.0+00               0
GRID*                  6               0 4.6193976626-01 1.9134171618-01*       
*                 0.0+00               0
GRID*                  7               0 3.5355339059-01 3.5355339059-01*       
*                 0.0+00               0
GRID*                  8               0 1.9134171618-01 4.6193976626-01*       
*                 0.0+00               0
GRID*                  9               0          0.0+00          5.0-01*       
*                 0.0+00               0
GRID*                 10               0          7.5-01          0.0+00*       
*                 0.0+00               0
GRID*                 11               0 5.3033008589-01 5.3033008589-01*       
*                 0.0+00               0
GRID*                 12               0          0.0+00          7.5-01*       
*                 0.0+00               0
GRID*                 13               0          1.0+00          0.0+00*       
*                 0.0+00               0
GRID*                 14               0 2.9238795325+00 3.8268343237-01*       
*                 0.0+00               0
GRID*                 15               0 2.7071067812+00 7.0710678119-01*       
*                 0.0+00               0
GRID*                 16               0 2.3826834324+00 9.2387953251-01*       
*                 0.0+00               0
GRID*                 17               0          2.0+00          1.0+00*       
*                 0.0+00               0
GRID*                 18               0          2.5+00          0.0+00*       
*                 0.0+00               0
GRID*                 19               0 2.4619397663+00 1.9134171618-01*       
*                 0.0+00               0
GRID*                 20               0 2.3535533906+00 3.5355339059-01*       
*                 0.0+00               0
GRID*                 21               0 2.1913417162+00 4.6193976626-01*       
*                 0.0+00               0
GRID*                 22               0          2.0+00          5.0-01*       
*                 0.0+00               0
GRID*                 23               0         2.75+00          0.0+00*       
*                 0.0+00               0
GRID*                 24               0 2.5303300859+00 5.3033008589-01*       
*                 0.0+00               0
GRID*                 25               0          2.0+00          7.5-01*       
*                 0.0+00               0
GRID*                 26               0          3.0+00          0.0+00*       
*                 0.0+00               0
GRID*                 27               0 2.4165373462+00 2.7608880861-01*       
*                 0.0+00               0
GRID*                 28               0 2.4897606509+00 9.9312113313-02*       
*                 0.0+00               0
GRID*                 29               0        2.625+00          0.0+00*       
*                 0.0+00               0
GRID*                 30               0        2.875+00          0.0+00*       
*                 0.0+00               0
GRID*                 31               0 2.9795213017+00 1.9862422663-01*       
*                 0.0+00               0
GRID*                 32               0 2.8330746923+00 5.5217761722-01*       
*                 0.0+00               0
GRID*                 33               0 2.6187184335+00 6.1871843354-01*       
*                 0.0+00               0
GRID*                 34               0 2.4419417382+00 4.4194173824-01*       
*                 0.0+00               0
GRID*                 35               0 2.6929096494+00 2.8701257427-01*       
*                 0.0+00               0
GRID*                 36               0 2.6248060192+00 4.1413321291-01*       
*                 0.0+00               0
GRID*                 37               0 2.5774247078+00 2.3917714523-01*       
*                 0.0+00               0
GRID*                 38               0 2.7346409763+00 1.4896816997-01*       
*                 0.0+00               0
GRID*                 39               0 2.8083945909+00 3.3484800332-01*       
*                 0.0+00               0
GRID*                 40               0 2.0993121133+00 4.8976065087-01*       
*                 0.0+00               0
GRID*                 41               0 2.2760888086+00 4.1653734616-01*       
*                 0.0+00               0
GRID*                 42               0 2.5521776172+00 8.3307469233-01*       
*                 0.0+00               0
GRID*                 43               0 2.1986242266+00 9.7952130174-01*       
*                 0.0+00               0
GRID*                 44               0          2.0+00         8.75-01*       
*                 0.0+00               0
GRID*                 45               0          2.0+00         6.25-01*       
*                 0.0+00               0
GRID*                 46               0 2.2870125743+00 6.9290964938-01*       
*                 0.0+00               0
GRID*                 47               0   2.14896817+00  7.346409763-01*       
*                 0.0+00               0
GRID*                 48               0 2.2391771452+00 5.7742470782-01*       
*                 0.0+00               0
GRID*                 49               0 2.4141332129+00 6.2480601925-01*       
*                 0.0+00               0
GRID*                 50               0 2.3348480033+00 8.0839459095-01*       
*                 0.0+00               0
$DEBUG*               250               1                                *       
$*                                                                       
$--1---><------2-------><------3-------><------4-------><------5-------><--6--->
$$$$$$$$$$$$$$$$$$$$$$$$$$$$$$$$$$$ Material $$$$$$$$$$$$$$$$$$$$$$$$$$$$$$$$$$$
MAT1*                  1          2.0+11          1.0+11          0.0+00*       
*                 0.0+00          0.0+00          0.0+00
$--1---><------2-------><------3-------><------4-------><------5-------><--6--->
SPC*                   1               4               1          0.0+00*       
*                                                                       
SPC*                   1               4               5          0.0+00*       
*                                                                       
SPC*                   1               5               2          0.0+00*       
*                                                                       
SPC*                   1               5               4          0.0+00*       
*                                                                       
SPC*                   1               9               1          0.0+00*       
*                                                                       
SPC*                   1               9               5          0.0+00*       
*                                                                       
SPC*                   1              10               2          0.0+00*       
*                                                                       
SPC*                   1              10               4          0.0+00*       
*                                                                       
SPC*                   1              12               1          0.0+00*       
*                                                                       
SPC*                   1              12               5          0.0+00*       
*                                                                       
SPC*                   1              13               2          0.0+00*       
*                                                                       
SPC*                   1              13               4          0.0+00*       
*                                                                       
SPC*                   1              17               1          0.0+00*       
*                                                                       
SPC*                   1              17               5          0.0+00*       
*                                                                       
SPC*                   1              18               2          0.0+00*       
*                                                                       
SPC*                   1              18               4          0.0+00*       
*                                                                       
SPC*                   1              22               1          0.0+00*       
*                                                                       
SPC*                   1              22               5          0.0+00*       
*                                                                       
SPC*                   1              23               2          0.0+00*       
*                                                                       
SPC*                   1              23               4          0.0+00*       
*                                                                       
SPC*                   1              25               1          0.0+00*       
*                                                                       
SPC*                   1              25               5          0.0+00*       
*                                                                       
SPC*                   1              26               2          0.0+00*       
*                                                                       
SPC*                   1              26               4          0.0+00*       
*                                                                       
SPC*                   1              29               2          0.0+00*       
*                                                                       
SPC*                   1              29               4          0.0+00*       
*                                                                       
SPC*                   1              30               2          0.0+00*       
*                                                                       
SPC*                   1              30               4          0.0+00*       
*                                                                       
SPC*                   1              44               1          0.0+00*       
*                                                                       
SPC*                   1              44               5          0.0+00*       
*                                                                       
SPC*                   1              45               1          0.0+00*       
*                                                                       
SPC*                   1              45               5          0.0+00*       
*                                                                       
$--1---><------2-------><------3-------><------4-------><------5-------><--6--->
$$$$$$$$$$$$$$$$$$$$$$$$$$$$$$$$$$$ Default $$$$$$$$$$$$$$$$$$$$$$$$$$$$$$$$$$$$
PSHELL*                1               1          1.0-01               1*       
*                                      1                          0.0+00
CQUAD8*                1               1               7               5*       
*                     13               2               6              10*       
*                      1              11                                *       
*                                                 0.0+00          0.0+00
CQUAD8*                2               1               9               7*       
*                      2               4               8              11*       
*                      3              12                                *       
*                                                 0.0+00          0.0+00
CQUAD8*                3               1              46              24*       
*                     15              16              49              33*       
*                     42              50                                *       
*                                                 0.0+00          0.0+00
CQUAD8*                4               1              25              46*       
*                     16              17              47              50*       
*                     43              44                                *       
*                                                 0.0+00          0.0+00
CQUAD8*                5               1              20              19*       
*                     35              24              27              37*       
*                     36              34                                *       
*                                                 0.0+00          0.0+00
CQUAD8*                6               1              19              18*       
*                     23              35              28              29*       
*                     38              37                                *       
*                                                 0.0+00          0.0+00
CQUAD8*                7               1              35              23*       
*                     26              14              38              30*       
*                     31              39                                *       
*                                                 0.0+00          0.0+00
CQUAD8*                8               1              24              35*       
*                     14              15              36              39*       
*                     32              33                                *       
*                                                 0.0+00          0.0+00
CQUAD8*                9               1              22              21*       
*                     46              25              40              48*       
*                     47              45                                *       
*                                                 0.0+00          0.0+00
CQUAD8*               10               1              21              20*       
*                     24              46              41              34*       
*                     49              48                                *       
*                                                 0.0+00          0.0+00
$--1---><------2-------><------3-------><------4-------><------5-------><--6--->
$$$$$$$$$$$$$$$$$$$$$$$$$$$$$$$$$$$ pressure $$$$$$$$$$$$$$$$$$$$$$$$$$$$$$$$$$$
FORCE*                 1               2               0          1.0+00*       
*       -1.7440045806+01-1.7440045806+01          0.0+00
FORCE*                 1               3               0          1.0+00*       
*       -1.9828237928+01-4.7869600924+01          0.0+00
FORCE*                 1               4               0          1.0+00*       
*       -5.1080711523+00-1.2331974653+01          0.0+00
FORCE*                 1              13               0          1.0+00*       
*       -1.2331974653+01-5.1080711523+00          0.0+00
FORCE*                 1               1               0          1.0+00*       
*       -4.7869600924+01-1.9828237928+01          0.0+00
FORCE*                 1              26               0          1.0+00*       
*       -6.6879140482+00-1.3303088162+00          0.0+00
FORCE*                 1              31               0          1.0+00*       
*       -2.5605204558+01-5.0931918558+00          0.0+00
FORCE*                 1              14               0          1.0+00*       
*       -1.1470267362+01-4.7511403053+00          0.0+00
FORCE*                 1              32               0          1.0+00*       
*       -2.1707044276+01-1.4504183277+01          0.0+00
FORCE*                 1              15               0          1.0+00*       
*        -9.458138751+00 -9.458138751+00          0.0+00
FORCE*                 1              16               0          1.0+00*       
*       -4.7511403053+00-1.1470267362+01          0.0+00
FORCE*                 1              43               0          1.0+00*       
*       -5.0931918558+00-2.5605204558+01          0.0+00
FORCE*                 1              17               0          1.0+00*       
*       -1.3303088162+00-6.6879140482+00          0.0+00
FORCE*                 1              42               0          1.0+00*       
*       -1.4504183277+01-2.1707044276+01          0.0+00
$--1---><------2-------><------3-------><------4-------><------5-------><--6--->
ENDDATA
