$ Same as 02 with PSOLID IN=TWO, ISOP=REDUCED. MYSTRAN 3a5913a: 0.01562 at
$ nodes 13-16 (3.9% high, symmetric).
SOL 101
CEND
SUBCASE 1
  SPC = 1
  DISPLACEMENT = ALL
BEGIN BULK
GRID           1             0.0     0.0     0.0
GRID           2             1.0     0.0     0.0
GRID           3             1.0     1.0     0.0
GRID           4             0.0     1.0     0.0
GRID           5             0.0     0.0     1.0
GRID           6             1.0     0.0     1.0
GRID           7             1.0     1.0     1.0
GRID           8             0.0     1.0     1.0
GRID           9             0.5     0.0     0.0
GRID          10             1.0     0.5     0.0
GRID          11             0.5     1.0     0.0
GRID          12             0.0     0.5     0.0
GRID          13             0.0     0.0     0.5
GRID          14             1.0     0.0     0.5
GRID          15             1.0     1.0     0.5
GRID          16             0.0     1.0     0.5
GRID          17             0.5     0.0     1.0
GRID          18             1.0     0.5     1.0
GRID          19             0.5     1.0     1.0
GRID          20             0.0     0.5     1.0
CHEXA          1       1       1       2       3       4       5       6+H1
+H1            7       8       9      10      11      12      13      14+H2
+H2           15      16      17      18      19      20
PSOLID         1       1             TWO         REDUCED
MAT1           1    1.e7              0.

SPC            1       1       1     0.0
SPC            1       1       2      0.
SPC            1       1       3      0.
SPC            1       2       1     0.0
SPC            1       2       2      0.
SPC            1       2       3      0.
SPC            1       3       1     0.0
SPC            1       3       2      0.
SPC            1       3       3      0.
SPC            1       4       1     0.0
SPC            1       4       2      0.
SPC            1       4       3      0.
SPC            1       5       1    0.03
SPC            1       5       2      0.
SPC            1       5       3      0.
SPC            1       6       1    0.03
SPC            1       6       2      0.
SPC            1       6       3      0.
SPC            1       7       1    0.03
SPC            1       7       2      0.
SPC            1       7       3      0.
SPC            1       8       1    0.03
SPC            1       8       2      0.
SPC            1       8       3      0.
SPC            1       9       1     0.0
SPC            1       9       2      0.
SPC            1       9       3      0.
SPC            1      10       1     0.0
SPC            1      10       2      0.
SPC            1      10       3      0.
SPC            1      11       1     0.0
SPC            1      11       2      0.
SPC            1      11       3      0.
SPC            1      12       1     0.0
SPC            1      12       2      0.
SPC            1      12       3      0.
SPC            1      13       2      0.
SPC            1      13       3      0.
SPC            1      14       2      0.
SPC            1      14       3      0.
SPC            1      15       2      0.
SPC            1      15       3      0.
SPC            1      16       2      0.
SPC            1      16       3      0.
SPC            1      17       1    0.03
SPC            1      17       2      0.
SPC            1      17       3      0.
SPC            1      18       1    0.03
SPC            1      18       2      0.
SPC            1      18       3      0.
SPC            1      19       1    0.03
SPC            1      19       2      0.
SPC            1      19       3      0.
SPC            1      20       1    0.03
SPC            1      20       2      0.
SPC            1      20       3      0.
ENDDATA
