$ Exercise potential RBE3 bug with a combination of:
$ - Rotated CD on an independent grid point
$ - Different weights in each direction in the plane of the CD rotation.
$ 
$ The CBUSH is to make GP 2 fully constrained in displacement as well as satisfy
$ the requirement of some solvers to have at least one element.
SOL 101
CEND
DISPLACEMENT = ALL
SPC = 1
BEGIN BULK
$--1---><--2---><--3---><--4---><--5---><--6---><--7---><--8---><--9---><--10-->
GRID           1       0   0.0+0   0.0+0   0.0+0       0
GRID           2       0   1.0+0   0.0+0   0.0+0       1
GRID           3       0   2.0+0  -1.0+0   0.0+0       0
CORD2R*                1               0           0.0+0           0.0+0*
*                  0.0+0           0.0+0           0.0+0           1.0+0*
*        7.07106781187-1 7.07106781187-1           0.0+0                *
*
PBUSH          2       K   1.0+0
CBUSH          1       2       2       3  -1.0+0   0.0+0   0.0+0        
SPC            1       1     456   0.0+0
SPC            1       2       1   1.0-1
SPC            1       2    3456   0.0+0
SPC            1       3  123456   0.0+0
RBE3           1               1     123     1.0       1       2        +
+            0.1       2       2                                        +
+            0.1       3       2                                        +
+            0.1       4       2                                        +
+            0.1       5       2                                        +
+            0.1       6       2
ENDDATA 
