$ RBE3 with:
$ Random grid point positions
$ Random weight on each DOF of each grid point
$ Random displacement coordinate system for each grid point
SOL 101
TIME 10
CEND
$-------------------------------------------------------------------
ECHO     = NONE
DISPLACEMENT(PRINT) = ALL
SPCFORCES(PRINT)    = ALL
ELFORCE(PRINT)      = ALL
LOAD = 1
$-------------------------------------------------------------------
BEGIN BULK
PARAM,AUTOSPC,N
GRID,1,,0.23498483512564,-0.1425901958801,0.67362742272881, 1
$
$ RBE3 independent grids - randomly placed in 3D
GRID*                101               0 9.78759541551-2-7.93657003464-2*
*       -4.58452661624-1             101             
GRID*                102               0-5.26920383681-1-7.60756784915-1*
*        9.19427124759-1             102             
GRID*                103               0-2.07729259762-1 8.12918343935-1*
*       -2.21153058047-1             103             
GRID*                104               0 4.41434442925-2-9.19691871157-1*
*        9.29346969865-1             104             
GRID*                105               0 8.02424720427-1 8.61660244088-2*
*        2.89557366248-1             105             
GRID*                106               0 8.30935514459-1-6.25186694203-1*
*       -7.99732182546-1             106             
$ Spring anchors
GRID         201             0.0     0.0     0.0          123456
GRID         202             0.0     0.0     0.0          123456
GRID         203             0.0     0.0     0.0          123456
GRID         204             0.0     0.0     0.0          123456
GRID         205             0.0     0.0     0.0          123456
GRID         206             0.0     0.0     0.0          123456
$
$=====================================================================
$ CORD2R - random CD coordinate system for each grid.
$=====================================================================
CORD2R         1          0.3372  0.0151 -0.3447 -0.7189  0.8844  0.9820+
+         0.1462 -0.3673 -0.5290
CORD2R       101          0.1209  0.5219 -0.5564  0.1317 -0.9027  0.0198
+        -0.7425 -0.3723 -0.4616
CORD2R       102         -0.4995 -0.8792 -0.0825 -0.2511 -0.4778  0.5199
+        -0.4924 -0.2174  0.3360
CORD2R       103          0.5793 -0.2897  0.8012 -0.0805  0.7168 -0.3242+
+        -0.4076  0.7142 -0.4559
CORD2R       104          0.0663  0.2248  0.8958 -0.4314  0.0281  0.6112+
+        -0.3884  0.6166  0.2729
CORD2R       105          0.9639  0.0495 -0.1832 -0.2230  0.3303  0.7026+
+        -0.3841 -0.5998 -0.8040
CORD2R       106         -0.9684  0.4656  0.4694  0.3670  0.5023  0.0604+
+         0.1720  0.4269  0.4209
$
$=====================================================================
$ RBE3 - random weights
$ REFC = 123456 so the reference grid picks up a full 6-DOF fit
$=====================================================================
RBE3         100               1  123456 -0.1877       1     101        +
+         0.3453       2     101                                        +
+        -0.5540       3     101                                        +
+        -0.8967       1     102                                        +
+        -0.4823       2     102                                        +
+        -0.9787       3     102                                        +
+         0.5198       1     103                                        +
+         0.4088       2     103                                        +
+         0.1200       3     103                                        +
+        -0.3037       1     104                                        +
+         0.7118       2     104                                        +
+        -0.7601       3     104                                        +
+         0.0876       1     105                                        +
+        -0.4574       2     105                                        +
+         0.6761       3     105                                        +
+         0.6344       1     106                                        +
+         0.9328       2     106                                        +
+        -0.1400       3     106                                        +
+        -0.5049       4     101                                        +
+         0.4659       5     101                                        +
+        -0.8482       6     101                                        +
+         0.6183       4     102                                        +
+        -0.3769       5     102                                        +
+         0.0130       6     102                                        +
+         0.4726       4     103                                        +
+         0.2785       5     103                                        +
+         0.0295       6     103                                        +
+        -0.7227       4     104                                        +
+         0.7924       5     104                                        +
+         0.8062       6     104                                        +
+         0.2008       4     105                                        +
+         0.6875       5     105                                        +
+         0.0405       6     105                                        +
+        -0.7754       4     106                                        +
+         0.0413       5     106                                        +
+        -0.1381       6     106                                        +
$
$=====================================================================
$ CELAS2 - 3 springs per independent grid (DOF1, DOF2, DOF3),
$ each connecting the independent grid to its own fixed grid.
$=====================================================================
CELAS2,1011,1000.0,101,1,201,1
CELAS2,1012,1000.0,101,2,201,2
CELAS2,1013,1000.0,101,3,201,3
CELAS2,1021,1000.0,102,1,202,1
CELAS2,1022,1000.0,102,2,202,2
CELAS2,1023,1000.0,102,3,202,3
CELAS2,1031,1000.0,103,1,203,1
CELAS2,1032,1000.0,103,2,203,2
CELAS2,1033,1000.0,103,3,203,3
CELAS2,1041,1000.0,104,1,204,1
CELAS2,1042,1000.0,104,2,204,2
CELAS2,1043,1000.0,104,3,204,3
CELAS2,1051,1000.0,105,1,205,1
CELAS2,1052,1000.0,105,2,205,2
CELAS2,1053,1000.0,105,3,205,3
CELAS2,1061,1000.0,106,1,206,1
CELAS2,1062,1000.0,106,2,206,2
CELAS2,1063,1000.0,106,3,206,3

CELAS2,1014,1000.0,101,4,201,4
CELAS2,1015,1000.0,101,5,201,5
CELAS2,1016,1000.0,101,6,201,6
CELAS2,1024,1000.0,102,4,202,4
CELAS2,1025,1000.0,102,5,202,5
CELAS2,1026,1000.0,102,6,202,6
CELAS2,1034,1000.0,103,4,203,4
CELAS2,1035,1000.0,103,5,203,5
CELAS2,1036,1000.0,103,6,203,6
CELAS2,1044,1000.0,104,4,204,4
CELAS2,1045,1000.0,104,5,204,5
CELAS2,1046,1000.0,104,6,204,6
CELAS2,1054,1000.0,105,4,205,4
CELAS2,1055,1000.0,105,5,205,5
CELAS2,1056,1000.0,105,6,205,6
CELAS2,1064,1000.0,106,4,206,4
CELAS2,1065,1000.0,106,5,206,5
CELAS2,1066,1000.0,106,6,206,6
$
$=====================================================================
$ LOADING - random 6-dof load at the RBE3 dependent (reference) grid.
$=====================================================================
FORCE          1       1          1000.0 -0.0645 -0.8672 -0.7900
MOMENT         1       1           500.0  0.4717  0.2849 -0.4081
$
ENDDATA
