$ Generated by Mecway 34
$-----------------------EXECUTIVE CONTROL SECTION-----------------------
SOL 101
CEND
$-------------------------CASE CONTROL SECTION--------------------------
DISPLACEMENT = ALL
SPCFORCES = ALL
MPCFORCES = ALL
STRESS(CORNER) = ALL
STRAIN(FIBER, CORNER) = ALL
SPC = 1
TEMPERATURE(LOAD) = 4
BEGIN BULK
$---------------------------BULK DATA SECTION---------------------------
PARAM, POST,-1
GRID*                  1               0 3.91952062009-1 7.33290731749-1*
*         5.5557023302-1               0
GRID*                  2               0 5.97545161008-1 4.90392640202-1*
*        6.34393284164-1               0
GRID*                  3               0 9.23879532511-1 3.82683432365-1*
*                  0.0+0               0
GRID*                  4               0 7.95666809948-1 5.31647565309-1*
*        2.90284677254-1               0
GRID*                  5               0 7.33290731749-1 3.91952062009-1*
*         5.5557023302-1               0
GRID*                  6               0  9.1943080004-1 9.05560297858-2*
*        3.82683432365-1               0
GRID*                  7               0 7.39724882765-1 2.24393089969-1*
*        6.34393284164-1               0
GRID*                  8               0 9.06127446353-1 1.80239955502-1*
*        3.82683432365-1               0
GRID*                  9               0 6.34393284164-1 7.73010453363-1*
*                  0.0+0               0
GRID*                 10               0 8.84097590017-1 2.68188071917-1*
*        3.82683432365-1               0
GRID*                 11               0 8.77674572407-1 8.64434003273-2*
*        4.71396736826-1               0
GRID*                 12               0 8.53553390593-1 3.53553390593-1*
*        3.82683432365-1               0
GRID*                 13               0 7.39724882765-1 6.07076522334-1*
*        2.90284677254-1               0
GRID*                 14               0 8.14789005418-1 4.35513796846-1*
*        3.82683432365-1               0
GRID*                 15               0 9.06127446353-1 3.75330277518-1*
*        1.95090322016-1               0
GRID*                 16               0 7.68177756711-1 5.13279967159-1*
*        3.82683432365-1               0
GRID*                 17               0 3.82683432365-1 9.23879532511-1*
*                  0.0+0               0
GRID*                 18               0 7.14168536279-1 5.86102970801-1*
*        3.82683432365-1               0
GRID*                 19               0 6.76659000587-1 6.76659000587-1*
*        2.90284677254-1               0
GRID*                 20               0 6.53281482438-1 6.53281482438-1*
*        3.82683432365-1               0
GRID*                 21               0 4.51098551601-1 8.43946030795-1*
*        2.90284677254-1               0
GRID*                 22               0 5.86102970801-1 7.14168536279-1*
*        3.82683432365-1               0
GRID*                 23               0 9.80785280403-1 1.95090322016-1*
*                  0.0+0               0
GRID*                 24               0 5.13279967159-1 7.68177756711-1*
*        3.82683432365-1               0
GRID*                 25               0 6.42734701963-1 5.27478738031-1*
*         5.5557023302-1               0
GRID*                 26               0 4.35513796846-1 8.14789005418-1*
*        3.82683432365-1               0
GRID*                 27               0 2.05262263761-1 6.76659000587-1*
*        7.07106781187-1               0
GRID*                 28               0 3.53553390593-1 8.53553390593-1*
*        3.82683432365-1               0
GRID*                 29               0 5.0911148512-17 8.31469612303-1*
*         5.5557023302-1               0
GRID*                 30               0 2.68188071917-1 8.84097590017-1*
*        3.82683432365-1               0
GRID*                 31               0 7.33290731749-1 4.89969202339-1*
*        4.71396736826-1               0
GRID*                 32               0 1.80239955502-1 9.06127446353-1*
*        3.82683432365-1               0
GRID*                 33               0  7.7778511651-1 4.15734806151-1*
*        4.71396736826-1               0
GRID*                 34               0 9.05560297858-2  9.1943080004-1*
*        3.82683432365-1               0
GRID*                 35               0 1.91341716183-1 9.61939766256-1*
*        1.95090322016-1               0
GRID*                 36               0 5.6569437284-17 9.23879532511-1*
*        3.82683432365-1               0
GRID*                 37               0 5.46600933501-1 5.46600933501-1*
*        6.34393284164-1               0
GRID*                 38               0 9.56940335732-1 2.90284677254-1*
*                  0.0+0               0
GRID*                 39               0 4.90392640202-1 5.97545161008-1*
*        6.34393284164-1               0
GRID*                 40               0 6.07076522334-1 7.39724882765-1*
*        2.90284677254-1               0
GRID*                 41               0 4.29461597701-1 6.42734701963-1*
*        6.34393284164-1               0
GRID*                 42               0 1.62211674411-1 8.15493156849-1*
*         5.5557023302-1               0
GRID*                 43               0 3.64394605248-1 6.81734356384-1*
*        6.34393284164-1               0
GRID*                 44               0 5.52895010495-1 8.27465858856-1*
*        9.80171403296-2               0
GRID*                 45               0 2.95818293547-1 7.14168536279-1*
*        6.34393284164-1               0
GRID*                 46               0 2.41362888054-1 7.95666809948-1*
*         5.5557023302-1               0
GRID*                 47               0 2.24393089969-1 7.39724882765-1*
*        6.34393284164-1               0
GRID*                 48               0 4.69126832692-1 8.77674572407-1*
*        9.80171403296-2               0
GRID*                 49               0 1.50806858268-1 7.58157274256-1*
*        6.34393284164-1               0
GRID*                 50               0 6.93085845995-2 7.03701868763-1*
*        7.07106781187-1               0
GRID*                 51               0 7.57682740835-2 7.69288196745-1*
*        6.34393284164-1               0
GRID*                 52               0 7.73010453363-1 6.34393284164-1*
*                  0.0+0               0
GRID*                 53               0 4.7331675638-17 7.73010453363-1*
*        6.34393284164-1               0
GRID*                 54               0 8.15493156849-1 1.62211674411-1*
*         5.5557023302-1               0
GRID*                 55               0 4.71396736826-1 8.81921264348-1*
*                  0.0+0               0
GRID*                 56               0 6.22203595094-1 7.58157274256-1*
*        1.95090322016-1               0
GRID*                 57               0 9.76062531202-1 1.94150908792-1*
*        9.80171403296-2               0
GRID*                 58               0 2.56008229585-1 8.43946030795-1*
*        4.71396736826-1               0
GRID*                 59               0 6.81734356384-1 3.64394605248-1*
*        6.34393284164-1               0
GRID*                 60               0 1.72054303455-1 8.64975394547-1*
*        4.71396736826-1               0
GRID*                 61               0 4.62338980709-1 8.64975394547-1*
*        1.95090322016-1               0
GRID*                 62               0 8.64434003273-2 8.77674572407-1*
*        4.71396736826-1               0
GRID*                 63               0 9.61939766256-1 1.91341716183-1*
*        1.95090322016-1               0
GRID*                 64               0 5.4000319195-17 8.81921264348-1*
*        4.71396736826-1               0
GRID*                 65               0 3.18189645143-1 7.68177756711-1*
*         5.5557023302-1               0
GRID*                 66               0 2.88886877191-1 9.52332406457-1*
*        9.80171403296-2               0
GRID*                 67               0 8.31469612303-1  5.5557023302-1*
*                  0.0+0               0
GRID*                 68               0 8.81921264348-1 4.71396736826-1*
*                  0.0+0               0
GRID          69       0   1.0+0   0.0+0   0.0+0       0
GRID*                 70               0 9.95184726672-1 9.80171403296-2*
*                  0.0+0               0
GRID*                 71               0 9.95184726672-1 6.0016206416-18*
*        9.80171403296-2               0
GRID*                 72               0 7.69288196745-1 7.57682740835-2*
*        6.34393284164-1               0
GRID*                 73               0 9.80785280403-1 1.1945442396-17*
*        1.95090322016-1               0
GRID*                 74               0 7.03701868763-1 7.03701868763-1*
*        9.80171403296-2               0
GRID*                 75               0 9.56940335732-1 1.7774223009-17*
*        2.90284677254-1               0
GRID*                 76               0 6.91341716183-1 4.61939766256-1*
*         5.5557023302-1               0
GRID*                 77               0 9.23879532511-1 2.3431828139-17*
*        3.82683432365-1               0
GRID*                 78               0 7.14168536279-1 2.95818293547-1*
*        6.34393284164-1               0
GRID*                 79               0 8.81921264348-1 2.8863771954-17*
*        4.71396736826-1               0
GRID*                 80               0 3.66205212247-1 8.84097590017-1*
*        2.90284677254-1               0
GRID*                 81               0 8.31469612303-1 3.4017741868-17*
*         5.5557023302-1               0
GRID*                 82               0 9.75451610081-2 9.90392640202-1*
*        9.80171403296-2               0
GRID*                 83               0 7.73010453363-1  3.884410233-17*
*        6.34393284164-1               0
GRID*                 84               0 7.69288196745-1 6.31338507103-1*
*        9.80171403296-2               0
GRID*                 85               0 7.07106781187-1 4.3296372854-17*
*        7.07106781187-1               0
GRID*                 86               0 2.84706938578-1  9.3855299551-1*
*        1.95090322016-1               0
GRID*                 87               0 6.0053794306-17 9.80785280403-1*
*        1.95090322016-1               0
GRID*                 88               0 7.58157274256-1 1.50806858268-1*
*        6.34393284164-1               0
GRID*                 89               0 4.3296372854-17 7.07106781187-1*
*        7.07106781187-1               0
GRID*                 90               0 9.80171403296-2 9.95184726672-1*
*                  0.0+0               0
GRID*                 91               0 3.75330277518-1 9.06127446353-1*
*        1.95090322016-1               0
GRID*                 92               0 6.31338507103-1 7.69288196745-1*
*        9.80171403296-2               0
GRID*                 93               0 6.42734701963-1 4.29461597701-1*
*        6.34393284164-1               0
GRID*                 94               0 8.43946030795-1 2.56008229585-1*
*        4.71396736826-1               0
GRID*                 95               0 6.93519922661-1 6.93519922661-1*
*        1.95090322016-1               0
GRID*                 96               0 6.23612506493-1 3.33327829239-1*
*        7.07106781187-1               0
GRID*                 97               0 8.14789005418-1 3.37496656517-1*
*        4.71396736826-1               0
GRID*                 98               0 7.58157274256-1 6.22203595094-1*
*        1.95090322016-1               0
GRID*                 99               0 9.52332406457-1 2.88886877191-1*
*        9.80171403296-2               0
GRID*                100               0 5.44895106776-1 8.15493156849-1*
*        1.95090322016-1               0
GRID*                101               0 6.53281482438-1 2.70598050073-1*
*        7.07106781187-1               0
GRID*                102               0  5.8793780121-1 3.92847479194-1*
*        7.07106781187-1               0
GRID*                103               0 7.03701868763-1 6.93085845995-2*
*        7.07106781187-1               0
GRID*                104               0  9.3855299551-1 2.84706938578-1*
*        1.95090322016-1               0
GRID*                105               0 9.15734806151-1  2.7778511651-1*
*        2.90284677254-1               0
GRID*                106               0 8.84097590017-1 3.66205212247-1*
*        2.90284677254-1               0
GRID*                107               0 4.61939766256-1 6.91341716183-1*
*         5.5557023302-1               0
GRID*                108               0 6.93519922661-1 1.37949689641-1*
*        7.07106781187-1               0
GRID*                109               0 2.70598050073-1 6.53281482438-1*
*        7.07106781187-1               0
GRID*                110               0  9.1943080004-1  3.8084070704-1*
*        9.80171403296-2               0
GRID*                111               0 1.37949689641-1 6.93519922661-1*
*        7.07106781187-1               0
GRID*                112               0 7.07106781187-1 7.07106781187-1*
*                  0.0+0               0
GRID*                113               0 1.95090322016-1 9.80785280403-1*
*                  0.0+0               0
GRID*                114               0  5.8793780121-1  5.8793780121-1*
*         5.5557023302-1               0
GRID*                115               0 5.31647565309-1 7.95666809948-1*
*        2.90284677254-1               0
GRID*                116               0 6.0935476975-17 9.95184726672-1*
*        9.80171403296-2               0
GRID*                117               0 1.94150908792-1 9.76062531202-1*
*        9.80171403296-2               0
GRID*                118               0 5.46600933501-1 4.48583793171-1*
*        7.07106781187-1               0
GRID*                119               0  3.8084070704-1  9.1943080004-1*
*        9.80171403296-2               0
GRID*                120               0 8.64975394547-1 1.72054303455-1*
*        4.71396736826-1               0
GRID*                121               0 3.37496656517-1 8.14789005418-1*
*        4.71396736826-1               0
GRID*                122               0 7.68177756711-1 3.18189645143-1*
*         5.5557023302-1               0
GRID*                123               0 4.48583793171-1 5.46600933501-1*
*        7.07106781187-1               0
GRID*                124               0 8.27465858856-1 8.14982736688-2*
*         5.5557023302-1               0
GRID*                125               0 8.77674572407-1 4.69126832692-1*
*        9.80171403296-2               0
GRID*                126               0 3.92847479194-1  5.8793780121-1*
*        7.07106781187-1               0
GRID*                127               0 8.27465858856-1 5.52895010495-1*
*        9.80171403296-2               0
GRID*                128               0 2.90284677254-1 9.56940335732-1*
*                  0.0+0               0
GRID*                129               0 6.1230317691-17           1.0+0*
*                  0.0+0               0
GRID*                130               0 7.95666809948-1 2.41362888054-1*
*         5.5557023302-1               0
GRID*                131               0           5.0-1           5.0-1*
*        7.07106781187-1               0
GRID*                132               0 3.33327829239-1 6.23612506493-1*
*        7.07106781187-1               0
GRID*                133               0 8.64975394547-1 4.62338980709-1*
*        1.95090322016-1               0
GRID*                134               0  2.7778511651-1 9.15734806151-1*
*        2.90284677254-1               0
GRID*                135               0 4.15734806151-1  7.7778511651-1*
*        4.71396736826-1               0
GRID*                136               0 9.52332406457-1 9.37965551745-2*
*        2.90284677254-1               0
GRID*                137               0 4.89969202339-1 7.33290731749-1*
*        4.71396736826-1               0
GRID*                138               0 5.59484927264-1 6.81734356384-1*
*        4.71396736826-1               0
GRID*                139               0 6.23612506493-1 6.23612506493-1*
*        4.71396736826-1               0
GRID*                140               0 6.81734356384-1 5.59484927264-1*
*        4.71396736826-1               0
GRID*                141               0 9.61337684625-2 9.76062531202-1*
*        1.95090322016-1               0
GRID*                142               0 6.76659000587-1 2.05262263761-1*
*        7.07106781187-1               0
GRID*                143               0  9.3855299551-1 1.86689798248-1*
*        2.90284677254-1               0
GRID*                144               0 9.90392640202-1 9.75451610081-2*
*        9.80171403296-2               0
GRID*                145               0 8.14982736688-2 8.27465858856-1*
*         5.5557023302-1               0
GRID*                146               0 8.43946030795-1 4.51098551601-1*
*        2.90284677254-1               0
GRID*                147               0 5.27478738031-1 6.42734701963-1*
*         5.5557023302-1               0
GRID*                148               0 1.86689798248-1  9.3855299551-1*
*        2.90284677254-1               0
GRID*                149               0  5.5557023302-1 8.31469612303-1*
*                  0.0+0               0
GRID*                150               0 9.37965551745-2 9.52332406457-1*
*        2.90284677254-1               0
GRID*                151               0 9.76062531202-1 9.61337684625-2*
*        1.95090322016-1               0
GRID*                152               0 5.8593760768-17 9.56940335732-1*
*        2.90284677254-1               0
GRID*                153               0 8.15493156849-1 5.44895106776-1*
*        1.95090322016-1               0
SNORM*                 1               0 3.91952062009-1 7.33290731749-1*
*         5.5557023302-1
SNORM*                 2               0 5.97545161008-1 4.90392640202-1*
*        6.34393284164-1
SNORM*                 3               0 9.23879532511-1 3.82683432365-1*
*                  0.0+0
SNORM*                 4               0 7.95666809948-1 5.31647565309-1*
*        2.90284677254-1
SNORM*                 5               0 7.33290731749-1 3.91952062009-1*
*         5.5557023302-1
SNORM*                 6               0  9.1943080004-1 9.05560297858-2*
*        3.82683432365-1
SNORM*                 7               0 7.39724882765-1 2.24393089969-1*
*        6.34393284164-1
SNORM*                 8               0 9.06127446353-1 1.80239955502-1*
*        3.82683432365-1
SNORM*                 9               0 6.34393284164-1 7.73010453363-1*
*                  0.0+0
SNORM*                10               0 8.84097590017-1 2.68188071917-1*
*        3.82683432365-1
SNORM*                11               0 8.77674572407-1 8.64434003273-2*
*        4.71396736826-1
SNORM*                12               0 8.53553390593-1 3.53553390593-1*
*        3.82683432365-1
SNORM*                13               0 7.39724882765-1 6.07076522334-1*
*        2.90284677254-1
SNORM*                14               0 8.14789005418-1 4.35513796846-1*
*        3.82683432365-1
SNORM*                15               0 9.06127446353-1 3.75330277518-1*
*        1.95090322016-1
SNORM*                16               0 7.68177756711-1 5.13279967159-1*
*        3.82683432365-1
SNORM*                17               0 3.82683432365-1 9.23879532511-1*
*                  0.0+0
SNORM*                18               0 7.14168536279-1 5.86102970801-1*
*        3.82683432365-1
SNORM*                19               0 6.76659000587-1 6.76659000587-1*
*        2.90284677254-1
SNORM*                20               0 6.53281482438-1 6.53281482438-1*
*        3.82683432365-1
SNORM*                21               0 4.51098551601-1 8.43946030795-1*
*        2.90284677254-1
SNORM*                22               0 5.86102970801-1 7.14168536279-1*
*        3.82683432365-1
SNORM*                23               0 9.80785280403-1 1.95090322016-1*
*                  0.0+0
SNORM*                24               0 5.13279967159-1 7.68177756711-1*
*        3.82683432365-1
SNORM*                25               0 6.42734701963-1 5.27478738031-1*
*         5.5557023302-1
SNORM*                26               0 4.35513796846-1 8.14789005418-1*
*        3.82683432365-1
SNORM*                27               0 2.05262263761-1 6.76659000587-1*
*        7.07106781187-1
SNORM*                28               0 3.53553390593-1 8.53553390593-1*
*        3.82683432365-1
SNORM*                29               0 5.0911148512-17 8.31469612303-1*
*         5.5557023302-1
SNORM*                30               0 2.68188071917-1 8.84097590017-1*
*        3.82683432365-1
SNORM*                31               0 7.33290731749-1 4.89969202339-1*
*        4.71396736826-1
SNORM*                32               0 1.80239955502-1 9.06127446353-1*
*        3.82683432365-1
SNORM*                33               0  7.7778511651-1 4.15734806151-1*
*        4.71396736826-1
SNORM*                34               0 9.05560297858-2  9.1943080004-1*
*        3.82683432365-1
SNORM*                35               0 1.91341716183-1 9.61939766256-1*
*        1.95090322016-1
SNORM*                36               0 5.6569437284-17 9.23879532511-1*
*        3.82683432365-1
SNORM*                37               0 5.46600933501-1 5.46600933501-1*
*        6.34393284164-1
SNORM*                38               0 9.56940335732-1 2.90284677254-1*
*                  0.0+0
SNORM*                39               0 4.90392640202-1 5.97545161008-1*
*        6.34393284164-1
SNORM*                40               0 6.07076522334-1 7.39724882765-1*
*        2.90284677254-1
SNORM*                41               0 4.29461597701-1 6.42734701963-1*
*        6.34393284164-1
SNORM*                42               0 1.62211674411-1 8.15493156849-1*
*         5.5557023302-1
SNORM*                43               0 3.64394605248-1 6.81734356384-1*
*        6.34393284164-1
SNORM*                44               0 5.52895010495-1 8.27465858856-1*
*        9.80171403296-2
SNORM*                45               0 2.95818293547-1 7.14168536279-1*
*        6.34393284164-1
SNORM*                46               0 2.41362888054-1 7.95666809948-1*
*         5.5557023302-1
SNORM*                47               0 2.24393089969-1 7.39724882765-1*
*        6.34393284164-1
SNORM*                48               0 4.69126832692-1 8.77674572407-1*
*        9.80171403296-2
SNORM*                49               0 1.50806858268-1 7.58157274256-1*
*        6.34393284164-1
SNORM*                50               0 6.93085845995-2 7.03701868763-1*
*        7.07106781187-1
SNORM*                51               0 7.57682740835-2 7.69288196745-1*
*        6.34393284164-1
SNORM*                52               0 7.73010453363-1 6.34393284164-1*
*                  0.0+0
SNORM*                53               0 4.7331675638-17 7.73010453363-1*
*        6.34393284164-1
SNORM*                54               0 8.15493156849-1 1.62211674411-1*
*         5.5557023302-1
SNORM*                55               0 4.71396736826-1 8.81921264348-1*
*                  0.0+0
SNORM*                56               0 6.22203595094-1 7.58157274256-1*
*        1.95090322016-1
SNORM*                57               0 9.76062531202-1 1.94150908792-1*
*        9.80171403296-2
SNORM*                58               0 2.56008229585-1 8.43946030795-1*
*        4.71396736826-1
SNORM*                59               0 6.81734356384-1 3.64394605248-1*
*        6.34393284164-1
SNORM*                60               0 1.72054303455-1 8.64975394547-1*
*        4.71396736826-1
SNORM*                61               0 4.62338980709-1 8.64975394547-1*
*        1.95090322016-1
SNORM*                62               0 8.64434003273-2 8.77674572407-1*
*        4.71396736826-1
SNORM*                63               0 9.61939766256-1 1.91341716183-1*
*        1.95090322016-1
SNORM*                64               0 5.4000319195-17 8.81921264348-1*
*        4.71396736826-1
SNORM*                65               0 3.18189645143-1 7.68177756711-1*
*         5.5557023302-1
SNORM*                66               0 2.88886877191-1 9.52332406457-1*
*        9.80171403296-2
SNORM*                67               0 8.31469612303-1  5.5557023302-1*
*                  0.0+0
SNORM*                68               0 8.81921264348-1 4.71396736826-1*
*                  0.0+0
SNORM         69       0   1.0+0   0.0+0   0.0+0
SNORM*                70               0 9.95184726672-1 9.80171403296-2*
*                  0.0+0
SNORM*                71               0 9.95184726672-1 6.0016206416-18*
*        9.80171403296-2
SNORM*                72               0 7.69288196745-1 7.57682740835-2*
*        6.34393284164-1
SNORM*                73               0 9.80785280403-1 1.1945442396-17*
*        1.95090322016-1
SNORM*                74               0 7.03701868763-1 7.03701868763-1*
*        9.80171403296-2
SNORM*                75               0 9.56940335732-1 1.7774223009-17*
*        2.90284677254-1
SNORM*                76               0 6.91341716183-1 4.61939766256-1*
*         5.5557023302-1
SNORM*                77               0 9.23879532511-1 2.3431828139-17*
*        3.82683432365-1
SNORM*                78               0 7.14168536279-1 2.95818293547-1*
*        6.34393284164-1
SNORM*                79               0 8.81921264348-1 2.8863771954-17*
*        4.71396736826-1
SNORM*                80               0 3.66205212247-1 8.84097590017-1*
*        2.90284677254-1
SNORM*                81               0 8.31469612303-1 3.4017741868-17*
*         5.5557023302-1
SNORM*                82               0 9.75451610081-2 9.90392640202-1*
*        9.80171403296-2
SNORM*                83               0 7.73010453363-1  3.884410233-17*
*        6.34393284164-1
SNORM*                84               0 7.69288196745-1 6.31338507103-1*
*        9.80171403296-2
SNORM*                85               0 7.07106781187-1 4.3296372854-17*
*        7.07106781187-1
SNORM*                86               0 2.84706938578-1  9.3855299551-1*
*        1.95090322016-1
SNORM*                87               0 6.0053794306-17 9.80785280403-1*
*        1.95090322016-1
SNORM*                88               0 7.58157274256-1 1.50806858268-1*
*        6.34393284164-1
SNORM*                89               0 4.3296372854-17 7.07106781187-1*
*        7.07106781187-1
SNORM*                90               0 9.80171403296-2 9.95184726672-1*
*                  0.0+0
SNORM*                91               0 3.75330277518-1 9.06127446353-1*
*        1.95090322016-1
SNORM*                92               0 6.31338507103-1 7.69288196745-1*
*        9.80171403296-2
SNORM*                93               0 6.42734701963-1 4.29461597701-1*
*        6.34393284164-1
SNORM*                94               0 8.43946030795-1 2.56008229585-1*
*        4.71396736826-1
SNORM*                95               0 6.93519922661-1 6.93519922661-1*
*        1.95090322016-1
SNORM*                96               0 6.23612506493-1 3.33327829239-1*
*        7.07106781187-1
SNORM*                97               0 8.14789005418-1 3.37496656517-1*
*        4.71396736826-1
SNORM*                98               0 7.58157274256-1 6.22203595094-1*
*        1.95090322016-1
SNORM*                99               0 9.52332406457-1 2.88886877191-1*
*        9.80171403296-2
SNORM*               100               0 5.44895106776-1 8.15493156849-1*
*        1.95090322016-1
SNORM*               101               0 6.53281482438-1 2.70598050073-1*
*        7.07106781187-1
SNORM*               102               0  5.8793780121-1 3.92847479194-1*
*        7.07106781187-1
SNORM*               103               0 7.03701868763-1 6.93085845995-2*
*        7.07106781187-1
SNORM*               104               0  9.3855299551-1 2.84706938578-1*
*        1.95090322016-1
SNORM*               105               0 9.15734806151-1  2.7778511651-1*
*        2.90284677254-1
SNORM*               106               0 8.84097590017-1 3.66205212247-1*
*        2.90284677254-1
SNORM*               107               0 4.61939766256-1 6.91341716183-1*
*         5.5557023302-1
SNORM*               108               0 6.93519922661-1 1.37949689641-1*
*        7.07106781187-1
SNORM*               109               0 2.70598050073-1 6.53281482438-1*
*        7.07106781187-1
SNORM*               110               0  9.1943080004-1  3.8084070704-1*
*        9.80171403296-2
SNORM*               111               0 1.37949689641-1 6.93519922661-1*
*        7.07106781187-1
SNORM*               112               0 7.07106781187-1 7.07106781187-1*
*                  0.0+0
SNORM*               113               0 1.95090322016-1 9.80785280403-1*
*                  0.0+0
SNORM*               114               0  5.8793780121-1  5.8793780121-1*
*         5.5557023302-1
SNORM*               115               0 5.31647565309-1 7.95666809948-1*
*        2.90284677254-1
SNORM*               116               0 6.0935476975-17 9.95184726672-1*
*        9.80171403296-2
SNORM*               117               0 1.94150908792-1 9.76062531202-1*
*        9.80171403296-2
SNORM*               118               0 5.46600933501-1 4.48583793171-1*
*        7.07106781187-1
SNORM*               119               0  3.8084070704-1  9.1943080004-1*
*        9.80171403296-2
SNORM*               120               0 8.64975394547-1 1.72054303455-1*
*        4.71396736826-1
SNORM*               121               0 3.37496656517-1 8.14789005418-1*
*        4.71396736826-1
SNORM*               122               0 7.68177756711-1 3.18189645143-1*
*         5.5557023302-1
SNORM*               123               0 4.48583793171-1 5.46600933501-1*
*        7.07106781187-1
SNORM*               124               0 8.27465858856-1 8.14982736688-2*
*         5.5557023302-1
SNORM*               125               0 8.77674572407-1 4.69126832692-1*
*        9.80171403296-2
SNORM*               126               0 3.92847479194-1  5.8793780121-1*
*        7.07106781187-1
SNORM*               127               0 8.27465858856-1 5.52895010495-1*
*        9.80171403296-2
SNORM*               128               0 2.90284677254-1 9.56940335732-1*
*                  0.0+0
SNORM*               129               0 6.1230317691-17           1.0+0*
*                  0.0+0
SNORM*               130               0 7.95666809948-1 2.41362888054-1*
*         5.5557023302-1
SNORM*               131               0           5.0-1           5.0-1*
*        7.07106781187-1
SNORM*               132               0 3.33327829239-1 6.23612506493-1*
*        7.07106781187-1
SNORM*               133               0 8.64975394547-1 4.62338980709-1*
*        1.95090322016-1
SNORM*               134               0  2.7778511651-1 9.15734806151-1*
*        2.90284677254-1
SNORM*               135               0 4.15734806151-1  7.7778511651-1*
*        4.71396736826-1
SNORM*               136               0 9.52332406457-1 9.37965551745-2*
*        2.90284677254-1
SNORM*               137               0 4.89969202339-1 7.33290731749-1*
*        4.71396736826-1
SNORM*               138               0 5.59484927264-1 6.81734356384-1*
*        4.71396736826-1
SNORM*               139               0 6.23612506493-1 6.23612506493-1*
*        4.71396736826-1
SNORM*               140               0 6.81734356384-1 5.59484927264-1*
*        4.71396736826-1
SNORM*               141               0 9.61337684625-2 9.76062531202-1*
*        1.95090322016-1
SNORM*               142               0 6.76659000587-1 2.05262263761-1*
*        7.07106781187-1
SNORM*               143               0  9.3855299551-1 1.86689798248-1*
*        2.90284677254-1
SNORM*               144               0 9.90392640202-1 9.75451610081-2*
*        9.80171403296-2
SNORM*               145               0 8.14982736688-2 8.27465858856-1*
*         5.5557023302-1
SNORM*               146               0 8.43946030795-1 4.51098551601-1*
*        2.90284677254-1
SNORM*               147               0 5.27478738031-1 6.42734701963-1*
*         5.5557023302-1
SNORM*               148               0 1.86689798248-1  9.3855299551-1*
*        2.90284677254-1
SNORM*               149               0  5.5557023302-1 8.31469612303-1*
*                  0.0+0
SNORM*               150               0 9.37965551745-2 9.52332406457-1*
*        2.90284677254-1
SNORM*               151               0 9.76062531202-1 9.61337684625-2*
*        1.95090322016-1
SNORM*               152               0 5.8593760768-17 9.56940335732-1*
*        2.90284677254-1
SNORM*               153               0 8.15493156849-1 5.44895106776-1*
*        1.95090322016-1
$--1---><--2---><--3---><--4---><--5---><--6---><--7---><--8---><--9---><--10-->
$$$$$$$$$$$$$$$$$$$$$$$$$$$$$$$$$$$ Material $$$$$$$$$$$$$$$$$$$$$$$$$$$$$$$$$$$
MAT8           1  2.0+11  2.0+11   0.0+0  1.0+11  1.0+11  1.0+11   0.0+0+
+          1.0-4   5.0-4   0.0+0
$--1---><--2---><--3---><--4---><--5---><--6---><--7---><--8---><--9---><--10-->
SPC            1      69       3   0.0+0
SPC            1      69       2   0.0+0
SPC            1     112       3   0.0+0
SPC            1     112       6   0.0+0
SPC            1     129       3   0.0+0
SPC            1     129       1   0.0+0
$--1---><--2---><--3---><--4---><--5---><--6---><--7---><--8---><--9---><--10-->
$$$$$$$$$$$$$$$$$$$$$$$$$$$$$$$$$$$ Default $$$$$$$$$$$$$$$$$$$$$$$$$$$$$$$$$$$$
PSHELL         1       1   1.0-2       1               1           0.0+0
CQUAD4*                1               1              42              60*
*                     62             145-1.78554513302+2           0.0+0
CQUAD4*                2               1             103              72*
*                     88             108-1.78111657025+2           0.0+0
CQUAD4*                3               1              96              59*
*                     93             102-1.78111657025+2           0.0+0
CQUAD4*                4               1              84              52*
*                    112              74-1.79862052447+2           0.0+0
CQUAD4*                5               1              51             145*
*                     29              53-1.78325029895+2           0.0+0
CQUAD4*                6               1              79              77*
*                      6              11-1.78797895969+2           0.0+0
CQUAD4*                7               1              11               6*
*                      8             120-1.78797895969+2           0.0+0
CQUAD4*                8               1             120               8*
*                     10              94-1.78797895969+2           0.0+0
CQUAD4*                9               1              94              10*
*                     12              97-1.78797895969+2           0.0+0
CQUAD4*               10               1              97              12*
*                     14              33-1.78797895969+2           0.0+0
CQUAD4*               11               1              33              14*
*                     16              31-1.78797895969+2           0.0+0
CQUAD4*               12               1              31              16*
*                     18             140-1.78797895969+2           0.0+0
CQUAD4*               13               1             140              18*
*                     20             139-1.78797895969+2           0.0+0
CQUAD4*               14               1             139              20*
*                     22             138-1.78797895969+2           0.0+0
CQUAD4*               15               1             138              22*
*                     24             137-1.78797895969+2           0.0+0
CQUAD4*               16               1             137              24*
*                     26             135-1.78797895969+2           0.0+0
CQUAD4*               17               1             135              26*
*                     28             121-1.78797895969+2           0.0+0
CQUAD4*               18               1             121              28*
*                     30              58-1.78797895969+2           0.0+0
CQUAD4*               19               1              58              30*
*                     32              60-1.78797895969+2           0.0+0
CQUAD4*               20               1              60              32*
*                     34              62-1.78797895969+2           0.0+0
CQUAD4*               21               1              74             112*
*                      9              92-1.79862052447+2           0.0+0
CQUAD4*               22               1              62              34*
*                     36              64-1.78797895969+2           0.0+0
CQUAD4*               23               1             102              93*
*                      2             118-1.78111657025+2           0.0+0
CQUAD4*               24               1              92               9*
*                    149              44-1.79862052447+2           0.0+0
CQUAD4*               25               1             118               2*
*                     37             131-1.78111657025+2           0.0+0
CQUAD4*               26               1             122              97*
*                     33               5-1.78554513302+2           0.0+0
CQUAD4*               27               1              25             140*
*                    139             114-1.78554513302+2           0.0+0
CQUAD4*               28               1             114             139*
*                    138             147-1.78554513302+2           0.0+0
CQUAD4*               29               1             108              88*
*                      7             142-1.78111657025+2           0.0+0
CQUAD4*               30               1             142               7*
*                     78             101-1.78111657025+2           0.0+0
CQUAD4*               31               1             131              37*
*                     39             123-1.78111657025+2           0.0+0
CQUAD4*               32               1             126              41*
*                     43             132-1.78111657025+2           0.0+0
CQUAD4*               33               1             132              43*
*                     45             109-1.78111657025+2           0.0+0
CQUAD4*               34               1             109              45*
*                     47              27-1.78111657025+2           0.0+0
CQUAD4*               35               1              27              47*
*                     49             111-1.78111657025+2           0.0+0
CQUAD4*               36               1             111              49*
*                     51              50-1.78111657025+2           0.0+0
CQUAD4*               37               1              65             121*
*                     58              46-1.78554513302+2           0.0+0
CQUAD4*               38               1              50              51*
*                     53              89-1.78111657025+2           0.0+0
CQUAD4*               39               1             145              62*
*                     64              29-1.78554513302+2           0.0+0
CQUAD4*               40               1              46              58*
*                     60              42-1.78554513302+2           0.0+0
CQUAD4*               41               1              44             149*
*                     55              48-1.79862052447+2           0.0+0
CQUAD4*               42               1               1             135*
*                    121              65-1.78554513302+2           0.0+0
CQUAD4*               43               1             123              39*
*                     41             126-1.78111657025+2           0.0+0
CQUAD4*               44               1              48              55*
*                     17             119-1.79862052447+2           0.0+0
CQUAD4*               45               1             147             138*
*                    137             107-1.78554513302+2           0.0+0
CQUAD4*               46               1              77              75*
*                    136               6-1.79052834615+2           0.0+0
CQUAD4*               47               1               6             136*
*                    143               8-1.79052834615+2           0.0+0
CQUAD4*               48               1               8             143*
*                    105              10-1.79052834615+2           0.0+0
CQUAD4*               49               1              10             105*
*                    106              12-1.79052834615+2           0.0+0
CQUAD4*               50               1              12             106*
*                    146              14-1.79052834615+2           0.0+0
CQUAD4*               51               1              14             146*
*                      4              16-1.79052834615+2           0.0+0
CQUAD4*               52               1              16               4*
*                     13              18-1.79052834615+2           0.0+0
CQUAD4*               53               1              18              13*
*                     19              20-1.79052834615+2           0.0+0
CQUAD4*               54               1              20              19*
*                     40              22-1.79052834615+2           0.0+0
CQUAD4*               55               1              22              40*
*                    115              24-1.79052834615+2           0.0+0
CQUAD4*               56               1              24             115*
*                     21              26-1.79052834615+2           0.0+0
CQUAD4*               57               1              26              21*
*                     80              28-1.79052834615+2           0.0+0
CQUAD4*               58               1              28              80*
*                    134              30-1.79052834615+2           0.0+0
CQUAD4*               59               1              30             134*
*                    148              32-1.79052834615+2           0.0+0
CQUAD4*               60               1              32             148*
*                    150              34-1.79052834615+2           0.0+0
CQUAD4*               61               1             119              17*
*                    128              66-1.79862052447+2           0.0+0
CQUAD4*               62               1              34             150*
*                    152              36-1.79052834615+2           0.0+0
CQUAD4*               63               1              47              46*
*                     42              49-1.78325029895+2           0.0+0
CQUAD4*               64               1              66             128*
*                    113             117-1.79862052447+2           0.0+0
CQUAD4*               65               1             124              11*
*                    120              54-1.78554513302+2           0.0+0
CQUAD4*               66               1              82              90*
*                    129             116-1.79862052447+2           0.0+0
CQUAD4*               67               1              54             120*
*                     94             130-1.78554513302+2           0.0+0
CQUAD4*               68               1              81              79*
*                     11             124-1.78554513302+2           0.0+0
CQUAD4*               69               1              39             147*
*                    107              41-1.78325029895+2           0.0+0
CQUAD4*               70               1             144              70*
*                     23              57-1.79862052447+2           0.0+0
CQUAD4*               71               1              41             107*
*                      1              43-1.78325029895+2           0.0+0
CQUAD4*               72               1              57              23*
*                     38              99-1.79862052447+2           0.0+0
CQUAD4*               73               1              43               1*
*                     65              45-1.78325029895+2           0.0+0
CQUAD4*               74               1              99              38*
*                      3             110-1.79862052447+2           0.0+0
CQUAD4*               75               1              45              65*
*                     46              47-1.78325029895+2           0.0+0
CQUAD4*               76               1             110               3*
*                     68             125-1.79862052447+2           0.0+0
CQUAD4*               77               1             125              68*
*                     67             127-1.79862052447+2           0.0+0
CQUAD4*               78               1              49              42*
*                    145              51-1.78325029895+2           0.0+0
CQUAD4*               79               1             127              67*
*                     52              84-1.79862052447+2           0.0+0
CQUAD4*               80               1             107             137*
*                    135               1-1.78554513302+2           0.0+0
CQUAD4*               81               1             101              78*
*                     59              96-1.78111657025+2           0.0+0
CQUAD4*               82               1              85              83*
*                     72             103-1.78111657025+2           0.0+0
CQUAD4*               83               1             117             113*
*                     90              82-1.79862052447+2           0.0+0
CQUAD4*               84               1             130              94*
*                     97             122-1.78554513302+2           0.0+0
CQUAD4*               85               1               5              33*
*                     31              76-1.78554513302+2           0.0+0
CQUAD4*               86               1              75              73*
*                    151             136-1.79316876469+2           0.0+0
CQUAD4*               87               1             136             151*
*                     63             143-1.79316876469+2           0.0+0
CQUAD4*               88               1             143              63*
*                    104             105-1.79316876469+2           0.0+0
CQUAD4*               89               1             105             104*
*                     15             106-1.79316876469+2           0.0+0
CQUAD4*               90               1             106              15*
*                    133             146-1.79316876469+2           0.0+0
CQUAD4*               91               1             146             133*
*                    153               4-1.79316876469+2           0.0+0
CQUAD4*               92               1               4             153*
*                     98              13-1.79316876469+2           0.0+0
CQUAD4*               93               1              13              98*
*                     95              19-1.79316876469+2           0.0+0
CQUAD4*               94               1              19              95*
*                     56              40-1.79316876469+2           0.0+0
CQUAD4*               95               1              40              56*
*                    100             115-1.79316876469+2           0.0+0
CQUAD4*               96               1             115             100*
*                     61              21-1.79316876469+2           0.0+0
CQUAD4*               97               1              21              61*
*                     91              80-1.79316876469+2           0.0+0
CQUAD4*               98               1              80              91*
*                     86             134-1.79316876469+2           0.0+0
CQUAD4*               99               1             134              86*
*                     35             148-1.79316876469+2           0.0+0
CQUAD4*              100               1             148              35*
*                    141             150-1.79316876469+2           0.0+0
CQUAD4*              101               1              76              31*
*                    140              25-1.78554513302+2           0.0+0
CQUAD4*              102               1             150             141*
*                     87             152-1.79316876469+2           0.0+0
CQUAD4*              103               1              83              81*
*                    124              72-1.78325029895+2           0.0+0
CQUAD4*              104               1              72             124*
*                     54              88-1.78325029895+2           0.0+0
CQUAD4*              105               1              88              54*
*                    130               7-1.78325029895+2           0.0+0
CQUAD4*              106               1               7             130*
*                    122              78-1.78325029895+2           0.0+0
CQUAD4*              107               1              78             122*
*                      5              59-1.78325029895+2           0.0+0
CQUAD4*              108               1              73              71*
*                    144             151-1.79587482687+2           0.0+0
CQUAD4*              109               1             151             144*
*                     57              63-1.79587482687+2           0.0+0
CQUAD4*              110               1              63              57*
*                     99             104-1.79587482687+2           0.0+0
CQUAD4*              111               1             104              99*
*                    110              15-1.79587482687+2           0.0+0
CQUAD4*              112               1              15             110*
*                    125             133-1.79587482687+2           0.0+0
CQUAD4*              113               1             133             125*
*                    127             153-1.79587482687+2           0.0+0
CQUAD4*              114               1             153             127*
*                     84              98-1.79587482687+2           0.0+0
CQUAD4*              115               1              98              84*
*                     74              95-1.79587482687+2           0.0+0
CQUAD4*              116               1              95              74*
*                     92              56-1.79587482687+2           0.0+0
CQUAD4*              117               1              56              92*
*                     44             100-1.79587482687+2           0.0+0
CQUAD4*              118               1             100              44*
*                     48              61-1.79587482687+2           0.0+0
CQUAD4*              119               1              61              48*
*                    119              91-1.79587482687+2           0.0+0
CQUAD4*              120               1              91             119*
*                     66              86-1.79587482687+2           0.0+0
CQUAD4*              121               1              86              66*
*                    117              35-1.79587482687+2           0.0+0
CQUAD4*              122               1              35             117*
*                     82             141-1.79587482687+2           0.0+0
CQUAD4*              123               1              59               5*
*                     76              93-1.78325029895+2           0.0+0
CQUAD4*              124               1             141              82*
*                    116              87-1.79587482687+2           0.0+0
CQUAD4*              125               1              93              76*
*                     25               2-1.78325029895+2           0.0+0
CQUAD4*              126               1               2              25*
*                    114              37-1.78325029895+2           0.0+0
CQUAD4*              127               1              37             114*
*                    147              39-1.78325029895+2           0.0+0
CQUAD4*              128               1              71              69*
*                     70             144-1.79862052447+2           0.0+0
$--1---><--2---><--3---><--4---><--5---><--6---><--7---><--8---><--9---><--10-->
$$$$$$$$$$$$$$$$$$$$$$$$$$$$$$$$$ temperature $$$$$$$$$$$$$$$$$$$$$$$$$$$$$$$$$$
TEMP           4     103   1.0+1
TEMP           4      72   1.0+1
TEMP           4      88   1.0+1
TEMP           4     108   1.0+1
TEMP           4      96   1.0+1
TEMP           4      59   1.0+1
TEMP           4      93   1.0+1
TEMP           4     102   1.0+1
TEMP           4      84   1.0+1
TEMP           4      52   1.0+1
TEMP           4     112   1.0+1
TEMP           4      74   1.0+1
TEMP           4      51   1.0+1
TEMP           4     145   1.0+1
TEMP           4      29   1.0+1
TEMP           4      53   1.0+1
TEMP           4      79   1.0+1
TEMP           4      77   1.0+1
TEMP           4       6   1.0+1
TEMP           4      11   1.0+1
TEMP           4       8   1.0+1
TEMP           4     120   1.0+1
TEMP           4      10   1.0+1
TEMP           4      94   1.0+1
TEMP           4      12   1.0+1
TEMP           4      97   1.0+1
TEMP           4      14   1.0+1
TEMP           4      33   1.0+1
TEMP           4      16   1.0+1
TEMP           4      31   1.0+1
TEMP           4      18   1.0+1
TEMP           4     140   1.0+1
TEMP           4      20   1.0+1
TEMP           4     139   1.0+1
TEMP           4      22   1.0+1
TEMP           4     138   1.0+1
TEMP           4      24   1.0+1
TEMP           4     137   1.0+1
TEMP           4      26   1.0+1
TEMP           4     135   1.0+1
TEMP           4      28   1.0+1
TEMP           4     121   1.0+1
TEMP           4      30   1.0+1
TEMP           4      58   1.0+1
TEMP           4      32   1.0+1
TEMP           4      60   1.0+1
TEMP           4      34   1.0+1
TEMP           4      62   1.0+1
TEMP           4       9   1.0+1
TEMP           4      92   1.0+1
TEMP           4      36   1.0+1
TEMP           4      64   1.0+1
TEMP           4       2   1.0+1
TEMP           4     118   1.0+1
TEMP           4     149   1.0+1
TEMP           4      44   1.0+1
TEMP           4      37   1.0+1
TEMP           4     131   1.0+1
TEMP           4     122   1.0+1
TEMP           4       5   1.0+1
TEMP           4      25   1.0+1
TEMP           4     114   1.0+1
TEMP           4     147   1.0+1
TEMP           4       7   1.0+1
TEMP           4     142   1.0+1
TEMP           4      78   1.0+1
TEMP           4     101   1.0+1
TEMP           4      39   1.0+1
TEMP           4     123   1.0+1
TEMP           4     126   1.0+1
TEMP           4      41   1.0+1
TEMP           4      43   1.0+1
TEMP           4     132   1.0+1
TEMP           4      45   1.0+1
TEMP           4     109   1.0+1
TEMP           4      47   1.0+1
TEMP           4      27   1.0+1
TEMP           4      49   1.0+1
TEMP           4     111   1.0+1
TEMP           4      50   1.0+1
TEMP           4      65   1.0+1
TEMP           4      46   1.0+1
TEMP           4      89   1.0+1
TEMP           4      42   1.0+1
TEMP           4      55   1.0+1
TEMP           4      48   1.0+1
TEMP           4       1   1.0+1
TEMP           4      17   1.0+1
TEMP           4     119   1.0+1
TEMP           4     107   1.0+1
TEMP           4      75   1.0+1
TEMP           4     136   1.0+1
TEMP           4     143   1.0+1
TEMP           4     105   1.0+1
TEMP           4     106   1.0+1
TEMP           4     146   1.0+1
TEMP           4       4   1.0+1
TEMP           4      13   1.0+1
TEMP           4      19   1.0+1
TEMP           4      40   1.0+1
TEMP           4     115   1.0+1
TEMP           4      21   1.0+1
TEMP           4      80   1.0+1
TEMP           4     134   1.0+1
TEMP           4     148   1.0+1
TEMP           4     150   1.0+1
TEMP           4     128   1.0+1
TEMP           4      66   1.0+1
TEMP           4     152   1.0+1
TEMP           4     113   1.0+1
TEMP           4     117   1.0+1
TEMP           4     124   1.0+1
TEMP           4      54   1.0+1
TEMP           4      82   1.0+1
TEMP           4      90   1.0+1
TEMP           4     129   1.0+1
TEMP           4     116   1.0+1
TEMP           4     130   1.0+1
TEMP           4      81   1.0+1
TEMP           4     144   1.0+1
TEMP           4      70   1.0+1
TEMP           4      23   1.0+1
TEMP           4      57   1.0+1
TEMP           4      38   1.0+1
TEMP           4      99   1.0+1
TEMP           4       3   1.0+1
TEMP           4     110   1.0+1
TEMP           4      68   1.0+1
TEMP           4     125   1.0+1
TEMP           4      67   1.0+1
TEMP           4     127   1.0+1
TEMP           4      85   1.0+1
TEMP           4      83   1.0+1
TEMP           4      76   1.0+1
TEMP           4      73   1.0+1
TEMP           4     151   1.0+1
TEMP           4      63   1.0+1
TEMP           4     104   1.0+1
TEMP           4      15   1.0+1
TEMP           4     133   1.0+1
TEMP           4     153   1.0+1
TEMP           4      98   1.0+1
TEMP           4      95   1.0+1
TEMP           4      56   1.0+1
TEMP           4     100   1.0+1
TEMP           4      61   1.0+1
TEMP           4      91   1.0+1
TEMP           4      86   1.0+1
TEMP           4      35   1.0+1
TEMP           4     141   1.0+1
TEMP           4      87   1.0+1
TEMP           4      71   1.0+1
TEMP           4      69   1.0+1
$--1---><--2---><--3---><--4---><--5---><--6---><--7---><--8---><--9---><--10-->
TEMPD          4   0.0+0
$--1---><--2---><--3---><--4---><--5---><--6---><--7---><--8---><--9---><--10-->
ENDDATA 
