$ Generated by Mecway 34
$-----------------------EXECUTIVE CONTROL SECTION-----------------------
SOL 101
CEND
$-------------------------CASE CONTROL SECTION--------------------------
DISPLACEMENT = ALL
SPCFORCES = ALL
MPCFORCES = ALL
STRESS(CORNER) = ALL
STRAIN(FIBER, CORNER) = ALL
FORCE(CORNER) = ALL
SPC = 1
TEMPERATURE(LOAD) = 4
BEGIN BULK
$---------------------------BULK DATA SECTION---------------------------
PARAM, POST,-1
GRID*                  1               0 -1.1480502971+0-2.77163859753+0*
*                  1.0+0               0
GRID           2       0   3.0+0   0.0+0   0.0+0       0
GRID*                  3               0-2.12132034356+0-2.12132034356+0*
*                  1.0+0               0
GRID*                  4               0 2.50058280778+0-1.65743344405+0*
*        2.0297035266-16               0
GRID*                  5               0 2.94016148795+0-5.96196632645-1*
*        7.3010618446-17               0
GRID*                  6               0           3.0+0 1.8369095307-16*
*                  1.0+0               0
GRID*                  7               0 2.12132034356+0-2.12132034356+0*
*        2.5977823712-16               0
GRID*                  8               0 2.77163859753+0 -1.1480502971+0*
*        1.4059096883-16               0
GRID*                  9               0           0.0+0          -3.0+0*
*        3.6738190615-16               0
GRID          10       0   0.0+0  -3.0+0   1.0+0       0
GRID*                 11               0 2.94016148795+0-5.96196632645-1*
*                  1.0+0               0
GRID*                 12               0 2.77163859753+0 -1.1480502971+0*
*                  1.0+0               0
GRID*                 13               0-5.96196632645-1-2.94016148795+0*
*                  1.0+0               0
GRID*                 14               0-2.12132034356+0-2.12132034356+0*
*        2.5977823712-16               0
GRID*                 15               0 -1.1480502971+0-2.77163859753+0*
*         3.394166237-16               0
GRID*                 16               0-1.65743344405+0-2.50058280778+0*
*        3.0622295947-16               0
GRID*                 17               0  1.1480502971+0-2.77163859753+0*
*                  1.0+0               0
GRID*                 18               0          -3.0+0 1.8369095307-16*
*                  1.0+0               0
GRID*                 19               0-5.96196632645-1-2.94016148795+0*
*        3.6005404394-16               0
GRID*                 20               0-1.65743344405+0-2.50058280778+0*
*                  1.0+0               0
GRID*                 21               0  1.1480502971+0-2.77163859753+0*
*         3.394166237-16               0
GRID*                 22               0 1.65743344405+0-2.50058280778+0*
*                  1.0+0               0
GRID*                 23               0 2.50058280778+0-1.65743344405+0*
*                  1.0+0               0
GRID*                 24               0-2.94016148795+0-5.96196632645-1*
*                  1.0+0               0
GRID*                 25               0-2.50058280778+0-1.65743344405+0*
*                  1.0+0               0
GRID*                 26               0-2.77163859753+0 -1.1480502971+0*
*                  1.0+0               0
GRID*                 27               0-2.50058280778+0-1.65743344405+0*
*        2.0297035266-16               0
GRID*                 28               0 5.96196632645-1-2.94016148795+0*
*        3.6005404394-16               0
GRID*                 29               0 5.96196632645-1-2.94016148795+0*
*                  1.0+0               0
GRID*                 30               0 1.65743344405+0-2.50058280778+0*
*        3.0622295947-16               0
GRID*                 31               0 2.12132034356+0-2.12132034356+0*
*                  1.0+0               0
GRID*                 32               0-2.94016148795+0-5.96196632645-1*
*        7.3010618446-17               0
GRID*                 33               0-2.77163859753+0 -1.1480502971+0*
*        1.4059096883-16               0
GRID          34       0  -3.0+0   0.0+0   0.0+0       0
GRID*                 35               0 2.94016148795+0-5.96196632645-1*
*                  5.0-1               0
GRID*                 36               0 2.86919861126+0-8.76184529152-1*
*                  1.0+0               0
GRID*                 37               0 2.77163859753+0 -1.1480502971+0*
*                  5.0-1               0
GRID*                 38               0 2.86919861126+0-8.76184529152-1*
*        1.0680079364-16               0
GRID*                 39               0 2.86919861126+0-8.76184529152-1*
*                  5.0-1               0
GRID*                 40               0-2.98500288642+0 -2.9959600811-1*
*        3.6505309223-17               0
GRID*                 41               0-2.94016148795+0-5.96196632645-1*
*                  5.0-1               0
GRID*                 42               0-2.98500288642+0 -2.9959600811-1*
*                  1.0+0               0
GRID*                 43               0          -3.0+0 9.1845476537-17*
*                  5.0-1               0
GRID*                 44               0-2.98500288642+0 -2.9959600811-1*
*                  5.0-1               0
GRID*                 45               0  1.1480502971+0-2.77163859753+0*
*                  5.0-1               0
GRID*                 46               0 8.76184529152-1-2.86919861126+0*
*                  1.0+0               0
GRID*                 47               0 5.96196632645-1-2.94016148795+0*
*                  5.0-1               0
GRID*                 48               0 8.76184529152-1-2.86919861126+0*
*        3.4973533382-16               0
GRID*                 49               0 8.76184529152-1-2.86919861126+0*
*                  5.0-1               0
GRID*                 50               0-2.64838581673+0-1.40927377246+0*
*        1.7178066075-16               0
GRID*                 51               0-2.50058280778+0-1.65743344405+0*
*                  5.0-1               0
GRID*                 52               0-2.64838581673+0-1.40927377246+0*
*                  1.0+0               0
GRID*                 53               0-2.77163859753+0 -1.1480502971+0*
*                  5.0-1               0
GRID*                 54               0-2.64838581673+0-1.40927377246+0*
*                  5.0-1               0
GRID*                 55               0 -1.8988694139+0 -2.3225621518+0*
*        2.8300059829-16               0
GRID*                 56               0-1.65743344405+0-2.50058280778+0*
*                  5.0-1               0
GRID*                 57               0 -1.8988694139+0 -2.3225621518+0*
*                  1.0+0               0
GRID*                 58               0-2.12132034356+0-2.12132034356+0*
*                  5.0-1               0
GRID*                 59               0 -1.8988694139+0 -2.3225621518+0*
*                  5.0-1               0
GRID*                 60               0-1.40927377246+0-2.64838581673+0*
*        3.2281979159-16               0
GRID*                 61               0 -1.1480502971+0-2.77163859753+0*
*                  5.0-1               0
GRID*                 62               0-1.40927377246+0-2.64838581673+0*
*                  1.0+0               0
GRID*                 63               0-1.40927377246+0-2.64838581673+0*
*                  5.0-1               0
GRID*                 64               0-2.86919861126+0-8.76184529152-1*
*        1.0680079364-16               0
GRID*                 65               0-2.86919861126+0-8.76184529152-1*
*                  1.0+0               0
GRID*                 66               0-2.86919861126+0-8.76184529152-1*
*                  5.0-1               0
GRID*                 67               0  2.9959600811-1-2.98500288642+0*
*                  1.0+0               0
GRID          68       0   0.0+0  -3.0+0   5.0-1       0
GRID*                 69               0  2.9959600811-1-2.98500288642+0*
*        3.6371797504-16               0
GRID*                 70               0  2.9959600811-1-2.98500288642+0*
*                  5.0-1               0
GRID*                 71               0-8.76184529152-1-2.86919861126+0*
*        3.4973533382-16               0
GRID*                 72               0-5.96196632645-1-2.94016148795+0*
*                  5.0-1               0
GRID*                 73               0-8.76184529152-1-2.86919861126+0*
*                  1.0+0               0
GRID*                 74               0-8.76184529152-1-2.86919861126+0*
*                  5.0-1               0
GRID*                 75               0 -2.9959600811-1-2.98500288642+0*
*        3.6371797504-16               0
GRID*                 76               0 -2.9959600811-1-2.98500288642+0*
*                  1.0+0               0
GRID*                 77               0 -2.9959600811-1-2.98500288642+0*
*                  5.0-1               0
GRID*                 78               0 -2.3225621518+0 -1.8988694139+0*
*        2.3137429489-16               0
GRID*                 79               0 -2.3225621518+0 -1.8988694139+0*
*                  1.0+0               0
GRID*                 80               0 -2.3225621518+0 -1.8988694139+0*
*                  5.0-1               0
GRID*                 81               0           3.0+0 9.1845476537-17*
*                  5.0-1               0
GRID*                 82               0 2.98500288642+0 -2.9959600811-1*
*                  1.0+0               0
GRID*                 83               0 2.98500288642+0 -2.9959600811-1*
*        3.6505309223-17               0
GRID*                 84               0 2.98500288642+0 -2.9959600811-1*
*                  5.0-1               0
GRID*                 85               0 2.64838581673+0-1.40927377246+0*
*                  1.0+0               0
GRID*                 86               0 2.50058280778+0-1.65743344405+0*
*                  5.0-1               0
GRID*                 87               0 2.64838581673+0-1.40927377246+0*
*        1.7178066075-16               0
GRID*                 88               0 2.64838581673+0-1.40927377246+0*
*                  5.0-1               0
GRID*                 89               0 2.12132034356+0-2.12132034356+0*
*                  5.0-1               0
GRID*                 90               0  1.8988694139+0 -2.3225621518+0*
*                  1.0+0               0
GRID*                 91               0 1.65743344405+0-2.50058280778+0*
*                  5.0-1               0
GRID*                 92               0  1.8988694139+0 -2.3225621518+0*
*        2.8300059829-16               0
GRID*                 93               0  1.8988694139+0 -2.3225621518+0*
*                  5.0-1               0
GRID*                 94               0  2.3225621518+0 -1.8988694139+0*
*                  1.0+0               0
GRID*                 95               0  2.3225621518+0 -1.8988694139+0*
*        2.3137429489-16               0
GRID*                 96               0  2.3225621518+0 -1.8988694139+0*
*                  5.0-1               0
GRID*                 97               0 1.40927377246+0-2.64838581673+0*
*                  1.0+0               0
GRID*                 98               0 1.40927377246+0-2.64838581673+0*
*        3.2281979159-16               0
GRID*                 99               0 1.40927377246+0-2.64838581673+0*
*                  5.0-1               0
SNORM*                 1               0-3.82683432365-1-9.23879532511-1*
*                  0.0+0
SNORM          2       0   1.0+0   0.0+0   0.0+0
SNORM*                 3               0-7.07106781187-1-7.07106781187-1*
*                  0.0+0
SNORM*                 4               0 8.33527602592-1-5.52477814683-1*
*                  0.0+0
SNORM*                 5               0 9.80053829317-1-1.98732210882-1*
*                  0.0+0
SNORM*                 6               0           1.0+0 6.1230317691-17*
*                  0.0+0
SNORM*                 7               0 7.07106781187-1-7.07106781187-1*
*                  0.0+0
SNORM*                 8               0 9.23879532511-1-3.82683432365-1*
*                  0.0+0
SNORM          9       0   0.0+0  -1.0+0   0.0+0
SNORM         10       0   0.0+0  -1.0+0   0.0+0
SNORM*                11               0 9.80053829317-1-1.98732210882-1*
*                  0.0+0
SNORM*                12               0 9.23879532511-1-3.82683432365-1*
*                  0.0+0
SNORM*                13               0-1.98732210882-1-9.80053829317-1*
*                  0.0+0
SNORM*                14               0-7.07106781187-1-7.07106781187-1*
*                  0.0+0
SNORM*                15               0-3.82683432365-1-9.23879532511-1*
*                  0.0+0
SNORM*                16               0-5.52477814683-1-8.33527602592-1*
*                  0.0+0
SNORM*                17               0 3.82683432365-1-9.23879532511-1*
*                  0.0+0
SNORM*                18               0          -1.0+0 6.1230317691-17*
*                  0.0+0
SNORM*                19               0-1.98732210882-1-9.80053829317-1*
*                  0.0+0
SNORM*                20               0-5.52477814683-1-8.33527602592-1*
*                  0.0+0
SNORM*                21               0 3.82683432365-1-9.23879532511-1*
*                  0.0+0
SNORM*                22               0 5.52477814683-1-8.33527602592-1*
*                  0.0+0
SNORM*                23               0 8.33527602592-1-5.52477814683-1*
*                  0.0+0
SNORM*                24               0-9.80053829317-1-1.98732210882-1*
*                  0.0+0
SNORM*                25               0-8.33527602592-1-5.52477814683-1*
*                  0.0+0
SNORM*                26               0-9.23879532511-1-3.82683432365-1*
*                  0.0+0
SNORM*                27               0-8.33527602592-1-5.52477814683-1*
*                  0.0+0
SNORM*                28               0 1.98732210882-1-9.80053829317-1*
*                  0.0+0
SNORM*                29               0 1.98732210882-1-9.80053829317-1*
*                  0.0+0
SNORM*                30               0 5.52477814683-1-8.33527602592-1*
*                  0.0+0
SNORM*                31               0 7.07106781187-1-7.07106781187-1*
*                  0.0+0
SNORM*                32               0-9.80053829317-1-1.98732210882-1*
*                  0.0+0
SNORM*                33               0-9.23879532511-1-3.82683432365-1*
*                  0.0+0
SNORM         34       0  -1.0+0   0.0+0   0.0+0
SNORM*                35               0 9.80053829317-1-1.98732210882-1*
*                  0.0+0
SNORM*                36               0 9.56399537088-1-2.92061509717-1*
*                  0.0+0
SNORM*                37               0 9.23879532511-1-3.82683432365-1*
*                  0.0+0
SNORM*                38               0 9.56399537088-1-2.92061509717-1*
*                  0.0+0
SNORM*                39               0 9.56399537088-1-2.92061509717-1*
*                  0.0+0
SNORM*                40               0-9.95000962139-1-9.98653360366-2*
*                  0.0+0
SNORM*                41               0-9.80053829317-1-1.98732210882-1*
*                  0.0+0
SNORM*                42               0-9.95000962139-1-9.98653360366-2*
*                  0.0+0
SNORM*                43               0          -1.0+0 3.0615158846-17*
*                  0.0+0
SNORM*                44               0-9.95000962139-1-9.98653360366-2*
*                  0.0+0
SNORM*                45               0 3.82683432365-1-9.23879532511-1*
*                  0.0+0
SNORM*                46               0 2.92061509717-1-9.56399537088-1*
*                  0.0+0
SNORM*                47               0 1.98732210882-1-9.80053829317-1*
*                  0.0+0
SNORM*                48               0 2.92061509717-1-9.56399537088-1*
*                  0.0+0
SNORM*                49               0 2.92061509717-1-9.56399537088-1*
*                  0.0+0
SNORM*                50               0-8.82795272243-1-4.69757924154-1*
*                  0.0+0
SNORM*                51               0-8.33527602592-1-5.52477814683-1*
*                  0.0+0
SNORM*                52               0-8.82795272243-1-4.69757924154-1*
*                  0.0+0
SNORM*                53               0-9.23879532511-1-3.82683432365-1*
*                  0.0+0
SNORM*                54               0-8.82795272243-1-4.69757924154-1*
*                  0.0+0
SNORM*                55               0-6.32956471299-1-7.74187383933-1*
*                  0.0+0
SNORM*                56               0-5.52477814683-1-8.33527602592-1*
*                  0.0+0
SNORM*                57               0-6.32956471299-1-7.74187383933-1*
*                  0.0+0
SNORM*                58               0-7.07106781187-1-7.07106781187-1*
*                  0.0+0
SNORM*                59               0-6.32956471299-1-7.74187383933-1*
*                  0.0+0
SNORM*                60               0-4.69757924154-1-8.82795272243-1*
*                  0.0+0
SNORM*                61               0-3.82683432365-1-9.23879532511-1*
*                  0.0+0
SNORM*                62               0-4.69757924154-1-8.82795272243-1*
*                  0.0+0
SNORM*                63               0-4.69757924154-1-8.82795272243-1*
*                  0.0+0
SNORM*                64               0-9.56399537088-1-2.92061509717-1*
*                  0.0+0
SNORM*                65               0-9.56399537088-1-2.92061509717-1*
*                  0.0+0
SNORM*                66               0-9.56399537088-1-2.92061509717-1*
*                  0.0+0
SNORM*                67               0 9.98653360366-2-9.95000962139-1*
*                  0.0+0
SNORM         68       0   0.0+0  -1.0+0   0.0+0
SNORM*                69               0 9.98653360366-2-9.95000962139-1*
*                  0.0+0
SNORM*                70               0 9.98653360366-2-9.95000962139-1*
*                  0.0+0
SNORM*                71               0-2.92061509717-1-9.56399537088-1*
*                  0.0+0
SNORM*                72               0-1.98732210882-1-9.80053829317-1*
*                  0.0+0
SNORM*                73               0-2.92061509717-1-9.56399537088-1*
*                  0.0+0
SNORM*                74               0-2.92061509717-1-9.56399537088-1*
*                  0.0+0
SNORM*                75               0-9.98653360366-2-9.95000962139-1*
*                  0.0+0
SNORM*                76               0-9.98653360366-2-9.95000962139-1*
*                  0.0+0
SNORM*                77               0-9.98653360366-2-9.95000962139-1*
*                  0.0+0
SNORM*                78               0-7.74187383933-1-6.32956471299-1*
*                  0.0+0
SNORM*                79               0-7.74187383933-1-6.32956471299-1*
*                  0.0+0
SNORM*                80               0-7.74187383933-1-6.32956471299-1*
*                  0.0+0
SNORM*                81               0           1.0+0 3.0615158846-17*
*                  0.0+0
SNORM*                82               0 9.95000962139-1-9.98653360366-2*
*                  0.0+0
SNORM*                83               0 9.95000962139-1-9.98653360366-2*
*                  0.0+0
SNORM*                84               0 9.95000962139-1-9.98653360366-2*
*                  0.0+0
SNORM*                85               0 8.82795272243-1-4.69757924154-1*
*                  0.0+0
SNORM*                86               0 8.33527602592-1-5.52477814683-1*
*                  0.0+0
SNORM*                87               0 8.82795272243-1-4.69757924154-1*
*                  0.0+0
SNORM*                88               0 8.82795272243-1-4.69757924154-1*
*                  0.0+0
SNORM*                89               0 7.07106781187-1-7.07106781187-1*
*                  0.0+0
SNORM*                90               0 6.32956471299-1-7.74187383933-1*
*                  0.0+0
SNORM*                91               0 5.52477814683-1-8.33527602592-1*
*                  0.0+0
SNORM*                92               0 6.32956471299-1-7.74187383933-1*
*                  0.0+0
SNORM*                93               0 6.32956471299-1-7.74187383933-1*
*                  0.0+0
SNORM*                94               0 7.74187383933-1-6.32956471299-1*
*                  0.0+0
SNORM*                95               0 7.74187383933-1-6.32956471299-1*
*                  0.0+0
SNORM*                96               0 7.74187383933-1-6.32956471299-1*
*                  0.0+0
SNORM*                97               0 4.69757924154-1-8.82795272243-1*
*                  0.0+0
SNORM*                98               0 4.69757924154-1-8.82795272243-1*
*                  0.0+0
SNORM*                99               0 4.69757924154-1-8.82795272243-1*
*                  0.0+0
$--1---><--2---><--3---><--4---><--5---><--6---><--7---><--8---><--9---><--10-->
$$$$$$$$$$$$$$$$$$$$$$$$$$$$$$$$$$$ Material $$$$$$$$$$$$$$$$$$$$$$$$$$$$$$$$$$$
MAT8           1  2.0+11  2.0+11   0.0+0  1.0+11  1.0+11  1.0+11   0.0+0+
+          1.0-4   5.0-4   0.0+0
$--1---><--2---><--3---><--4---><--5---><--6---><--7---><--8---><--9---><--10-->
SPC            1       2       2   0.0+0
SPC            1      18       1   0.0+0
SPC            1      18       2   0.0+0
SPC            1      34       1   0.0+0
SPC            1      34       2   0.0+0
SPC            1      34       3   0.0+0
$--1---><--2---><--3---><--4---><--5---><--6---><--7---><--8---><--9---><--10-->
$$$$$$$$$$$$$$$$$$$$$$$$$$$$$$$$$$ Component $$$$$$$$$$$$$$$$$$$$$$$$$$$$$$$$$$$
PSHELL         1       1   1.0-2       1               1           0.0+0
CQUAD4         1       1       8      37      88      87  -4.5+1   0.0+0
CQUAD4         2       1      37      12      85      88  -4.5+1   0.0+0
CQUAD4         3       1      88      85      23      86  -4.5+1   0.0+0
CQUAD4         4       1      87      88      86       4  -4.5+1   0.0+0
CQUAD4         5       1       7      89      93      92  -4.5+1   0.0+0
CQUAD4         6       1      89      31      90      93  -4.5+1   0.0+0
CQUAD4         7       1      93      90      22      91  -4.5+1   0.0+0
CQUAD4         8       1      92      93      91      30  -4.5+1   0.0+0
CQUAD4         9       1       4      86      96      95  -4.5+1   0.0+0
CQUAD4        10       1      86      23      94      96  -4.5+1   0.0+0
CQUAD4        11       1      96      94      31      89  -4.5+1   0.0+0
CQUAD4        12       1      95      96      89       7  -4.5+1   0.0+0
CQUAD4        13       1      30      91      99      98  -4.5+1   0.0+0
CQUAD4        14       1      91      22      97      99  -4.5+1   0.0+0
CQUAD4        15       1      99      97      17      45  -4.5+1   0.0+0
CQUAD4        16       1      98      99      45      21  -4.5+1   0.0+0
CQUAD4        17       1       5      35      39      38  -4.5+1   0.0+0
CQUAD4        18       1      35      11      36      39  -4.5+1   0.0+0
CQUAD4        19       1      39      36      12      37  -4.5+1   0.0+0
CQUAD4        20       1      38      39      37       8  -4.5+1   0.0+0
CQUAD4        21       1      34      40      44      43   4.5+1   0.0+0
CQUAD4        22       1      40      32      41      44   4.5+1   0.0+0
CQUAD4        23       1      44      41      24      42   4.5+1   0.0+0
CQUAD4        24       1      43      44      42      18   4.5+1   0.0+0
CQUAD4        25       1      21      45      49      48  -4.5+1   0.0+0
CQUAD4        26       1      45      17      46      49  -4.5+1   0.0+0
CQUAD4        27       1      49      46      29      47  -4.5+1   0.0+0
CQUAD4        28       1      48      49      47      28  -4.5+1   0.0+0
CQUAD4        29       1      33      50      54      53   4.5+1   0.0+0
CQUAD4        30       1      50      27      51      54   4.5+1   0.0+0
CQUAD4        31       1      54      51      25      52   4.5+1   0.0+0
CQUAD4        32       1      53      54      52      26   4.5+1   0.0+0
CQUAD4        33       1      14      55      59      58   4.5+1   0.0+0
CQUAD4        34       1      55      16      56      59   4.5+1   0.0+0
CQUAD4        35       1      59      56      20      57   4.5+1   0.0+0
CQUAD4        36       1      58      59      57       3   4.5+1   0.0+0
CQUAD4        37       1      16      60      63      56   4.5+1   0.0+0
CQUAD4        38       1      60      15      61      63   4.5+1   0.0+0
CQUAD4        39       1      63      61       1      62   4.5+1   0.0+0
CQUAD4        40       1      56      63      62      20   4.5+1   0.0+0
CQUAD4        41       1      32      64      66      41   4.5+1   0.0+0
CQUAD4        42       1      64      33      53      66   4.5+1   0.0+0
CQUAD4        43       1      66      53      26      65   4.5+1   0.0+0
CQUAD4        44       1      41      66      65      24   4.5+1   0.0+0
CQUAD4        45       1      28      47      70      69  -4.5+1   0.0+0
CQUAD4        46       1      47      29      67      70  -4.5+1   0.0+0
CQUAD4        47       1      70      67      10      68  -4.5+1   0.0+0
CQUAD4        48       1      69      70      68       9  -4.5+1   0.0+0
CQUAD4        49       1      15      71      74      61   4.5+1   0.0+0
CQUAD4        50       1      71      19      72      74   4.5+1   0.0+0
CQUAD4        51       1      74      72      13      73   4.5+1   0.0+0
CQUAD4        52       1      61      74      73       1   4.5+1   0.0+0
CQUAD4        53       1      19      75      77      72   4.5+1   0.0+0
CQUAD4        54       1      75       9      68      77   4.5+1   0.0+0
CQUAD4        55       1      77      68      10      76   4.5+1   0.0+0
CQUAD4        56       1      72      77      76      13   4.5+1   0.0+0
CQUAD4        57       1      27      78      80      51   4.5+1   0.0+0
CQUAD4        58       1      78      14      58      80   4.5+1   0.0+0
CQUAD4        59       1      80      58       3      79   4.5+1   0.0+0
CQUAD4        60       1      51      80      79      25   4.5+1   0.0+0
CQUAD4        61       1       2      81      84      83  -4.5+1   0.0+0
CQUAD4        62       1      81       6      82      84  -4.5+1   0.0+0
CQUAD4        63       1      84      82      11      35  -4.5+1   0.0+0
CQUAD4        64       1      83      84      35       5  -4.5+1   0.0+0
$--1---><--2---><--3---><--4---><--5---><--6---><--7---><--8---><--9---><--10-->
$$$$$$$$$$$$$$$$$$$$$$$$$$$$$$$$$ temperature $$$$$$$$$$$$$$$$$$$$$$$$$$$$$$$$$$
TEMP           4       5   1.0+1
TEMP           4      35   1.0+1
TEMP           4      39   1.0+1
TEMP           4      38   1.0+1
TEMP           4      11   1.0+1
TEMP           4      36   1.0+1
TEMP           4      12   1.0+1
TEMP           4      37   1.0+1
TEMP           4       8   1.0+1
TEMP           4      34   1.0+1
TEMP           4      40   1.0+1
TEMP           4      44   1.0+1
TEMP           4      43   1.0+1
TEMP           4      32   1.0+1
TEMP           4      41   1.0+1
TEMP           4      24   1.0+1
TEMP           4      42   1.0+1
TEMP           4      18   1.0+1
TEMP           4      21   1.0+1
TEMP           4      45   1.0+1
TEMP           4      49   1.0+1
TEMP           4      48   1.0+1
TEMP           4      17   1.0+1
TEMP           4      46   1.0+1
TEMP           4      29   1.0+1
TEMP           4      47   1.0+1
TEMP           4      28   1.0+1
TEMP           4      33   1.0+1
TEMP           4      50   1.0+1
TEMP           4      54   1.0+1
TEMP           4      53   1.0+1
TEMP           4      27   1.0+1
TEMP           4      51   1.0+1
TEMP           4      25   1.0+1
TEMP           4      52   1.0+1
TEMP           4      26   1.0+1
TEMP           4      14   1.0+1
TEMP           4      55   1.0+1
TEMP           4      59   1.0+1
TEMP           4      58   1.0+1
TEMP           4      16   1.0+1
TEMP           4      56   1.0+1
TEMP           4      20   1.0+1
TEMP           4      57   1.0+1
TEMP           4       3   1.0+1
TEMP           4      60   1.0+1
TEMP           4      63   1.0+1
TEMP           4      15   1.0+1
TEMP           4      61   1.0+1
TEMP           4       1   1.0+1
TEMP           4      62   1.0+1
TEMP           4      64   1.0+1
TEMP           4      66   1.0+1
TEMP           4      65   1.0+1
TEMP           4      70   1.0+1
TEMP           4      69   1.0+1
TEMP           4      67   1.0+1
TEMP           4      10   1.0+1
TEMP           4      68   1.0+1
TEMP           4       9   1.0+1
TEMP           4      71   1.0+1
TEMP           4      74   1.0+1
TEMP           4      19   1.0+1
TEMP           4      72   1.0+1
TEMP           4      13   1.0+1
TEMP           4      73   1.0+1
TEMP           4      75   1.0+1
TEMP           4      77   1.0+1
TEMP           4      76   1.0+1
TEMP           4      78   1.0+1
TEMP           4      80   1.0+1
TEMP           4      79   1.0+1
TEMP           4       2   1.0+1
TEMP           4      81   1.0+1
TEMP           4      84   1.0+1
TEMP           4      83   1.0+1
TEMP           4       6   1.0+1
TEMP           4      82   1.0+1
TEMP           4      88   1.0+1
TEMP           4      87   1.0+1
TEMP           4      85   1.0+1
TEMP           4      23   1.0+1
TEMP           4      86   1.0+1
TEMP           4       4   1.0+1
TEMP           4       7   1.0+1
TEMP           4      89   1.0+1
TEMP           4      93   1.0+1
TEMP           4      92   1.0+1
TEMP           4      31   1.0+1
TEMP           4      90   1.0+1
TEMP           4      22   1.0+1
TEMP           4      91   1.0+1
TEMP           4      30   1.0+1
TEMP           4      96   1.0+1
TEMP           4      95   1.0+1
TEMP           4      94   1.0+1
TEMP           4      99   1.0+1
TEMP           4      98   1.0+1
TEMP           4      97   1.0+1
$--1---><--2---><--3---><--4---><--5---><--6---><--7---><--8---><--9---><--10-->
TEMPD          4   0.0+0
$--1---><--2---><--3---><--4---><--5---><--6---><--7---><--8---><--9---><--10-->
ENDDATA 
