$ Generated by Mecway 34
$-----------------------EXECUTIVE CONTROL SECTION-----------------------
SOL 101
CEND
$-------------------------CASE CONTROL SECTION--------------------------
DISPLACEMENT = ALL
SPCFORCES = ALL
MPCFORCES = ALL
STRESS(CORNER) = ALL
STRAIN(FIBER, CORNER) = ALL
FORCE(CORNER) = ALL
SPC = 1
TEMPERATURE(LOAD) = 4
BEGIN BULK
$---------------------------BULK DATA SECTION---------------------------
PARAM, POST,-1
GRID*                  1               0 -1.1480502971+0-2.77163859753+0*
*                  1.0+0               0
GRID           2       0   3.0+0   0.0+0   0.0+0       0
GRID*                  3               0-2.12132034356+0-2.12132034356+0*
*                  1.0+0               0
GRID*                  4               0 2.50058280778+0-1.65743344405+0*
*        2.0297035266-16               0
GRID*                  5               0 2.94016148795+0-5.96196632645-1*
*        7.3010618446-17               0
GRID*                  6               0           3.0+0 1.8369095307-16*
*                  1.0+0               0
GRID*                  7               0 2.12132034356+0-2.12132034356+0*
*        2.5977823712-16               0
GRID*                  8               0 2.77163859753+0 -1.1480502971+0*
*        1.4059096883-16               0
GRID*                  9               0           0.0+0          -3.0+0*
*        3.6738190615-16               0
GRID          10       0   0.0+0  -3.0+0   1.0+0       0
GRID*                 11               0 2.94016148795+0-5.96196632645-1*
*                  1.0+0               0
GRID*                 12               0 2.77163859753+0 -1.1480502971+0*
*                  1.0+0               0
GRID*                 13               0-5.96196632645-1-2.94016148795+0*
*                  1.0+0               0
GRID*                 14               0-2.12132034356+0-2.12132034356+0*
*        2.5977823712-16               0
GRID*                 15               0 -1.1480502971+0-2.77163859753+0*
*         3.394166237-16               0
GRID*                 16               0-1.65743344405+0-2.50058280778+0*
*        3.0622295947-16               0
GRID*                 17               0  1.1480502971+0-2.77163859753+0*
*                  1.0+0               0
GRID*                 18               0          -3.0+0 1.8369095307-16*
*                  1.0+0               0
GRID*                 19               0-5.96196632645-1-2.94016148795+0*
*        3.6005404394-16               0
GRID*                 20               0-1.65743344405+0-2.50058280778+0*
*                  1.0+0               0
GRID*                 21               0  1.1480502971+0-2.77163859753+0*
*         3.394166237-16               0
GRID*                 22               0 1.65743344405+0-2.50058280778+0*
*                  1.0+0               0
GRID*                 23               0 2.50058280778+0-1.65743344405+0*
*                  1.0+0               0
GRID*                 24               0-2.94016148795+0-5.96196632645-1*
*                  1.0+0               0
GRID*                 25               0-2.50058280778+0-1.65743344405+0*
*                  1.0+0               0
GRID*                 26               0-2.77163859753+0 -1.1480502971+0*
*                  1.0+0               0
GRID*                 27               0-2.50058280778+0-1.65743344405+0*
*        2.0297035266-16               0
GRID*                 28               0 5.96196632645-1-2.94016148795+0*
*        3.6005404394-16               0
GRID*                 29               0 5.96196632645-1-2.94016148795+0*
*                  1.0+0               0
GRID*                 30               0 1.65743344405+0-2.50058280778+0*
*        3.0622295947-16               0
GRID*                 31               0 2.12132034356+0-2.12132034356+0*
*                  1.0+0               0
GRID*                 32               0-2.94016148795+0-5.96196632645-1*
*        7.3010618446-17               0
GRID*                 33               0-2.77163859753+0 -1.1480502971+0*
*        1.4059096883-16               0
GRID          34       0  -3.0+0   0.0+0   0.0+0       0
SNORM*                 1               0-3.82683432365-1-9.23879532511-1*
*                  0.0+0
SNORM          2       0   1.0+0   0.0+0   0.0+0
SNORM*                 3               0-7.07106781187-1-7.07106781187-1*
*                  0.0+0
SNORM*                 4               0 8.33527602592-1-5.52477814683-1*
*                  0.0+0
SNORM*                 5               0 9.80053829317-1-1.98732210882-1*
*                  0.0+0
SNORM*                 6               0           1.0+0 6.1230317691-17*
*                  0.0+0
SNORM*                 7               0 7.07106781187-1-7.07106781187-1*
*                  0.0+0
SNORM*                 8               0 9.23879532511-1-3.82683432365-1*
*                  0.0+0
SNORM          9       0   0.0+0  -1.0+0   0.0+0
SNORM         10       0   0.0+0  -1.0+0   0.0+0
SNORM*                11               0 9.80053829317-1-1.98732210882-1*
*                  0.0+0
SNORM*                12               0 9.23879532511-1-3.82683432365-1*
*                  0.0+0
SNORM*                13               0-1.98732210882-1-9.80053829317-1*
*                  0.0+0
SNORM*                14               0-7.07106781187-1-7.07106781187-1*
*                  0.0+0
SNORM*                15               0-3.82683432365-1-9.23879532511-1*
*                  0.0+0
SNORM*                16               0-5.52477814683-1-8.33527602592-1*
*                  0.0+0
SNORM*                17               0 3.82683432365-1-9.23879532511-1*
*                  0.0+0
SNORM*                18               0          -1.0+0 6.1230317691-17*
*                  0.0+0
SNORM*                19               0-1.98732210882-1-9.80053829317-1*
*                  0.0+0
SNORM*                20               0-5.52477814683-1-8.33527602592-1*
*                  0.0+0
SNORM*                21               0 3.82683432365-1-9.23879532511-1*
*                  0.0+0
SNORM*                22               0 5.52477814683-1-8.33527602592-1*
*                  0.0+0
SNORM*                23               0 8.33527602592-1-5.52477814683-1*
*                  0.0+0
SNORM*                24               0-9.80053829317-1-1.98732210882-1*
*                  0.0+0
SNORM*                25               0-8.33527602592-1-5.52477814683-1*
*                  0.0+0
SNORM*                26               0-9.23879532511-1-3.82683432365-1*
*                  0.0+0
SNORM*                27               0-8.33527602592-1-5.52477814683-1*
*                  0.0+0
SNORM*                28               0 1.98732210882-1-9.80053829317-1*
*                  0.0+0
SNORM*                29               0 1.98732210882-1-9.80053829317-1*
*                  0.0+0
SNORM*                30               0 5.52477814683-1-8.33527602592-1*
*                  0.0+0
SNORM*                31               0 7.07106781187-1-7.07106781187-1*
*                  0.0+0
SNORM*                32               0-9.80053829317-1-1.98732210882-1*
*                  0.0+0
SNORM*                33               0-9.23879532511-1-3.82683432365-1*
*                  0.0+0
SNORM         34       0  -1.0+0   0.0+0   0.0+0
$--1---><--2---><--3---><--4---><--5---><--6---><--7---><--8---><--9---><--10-->
$$$$$$$$$$$$$$$$$$$$$$$$$$$$$$$$$$$ Material $$$$$$$$$$$$$$$$$$$$$$$$$$$$$$$$$$$
MAT8           1  2.0+11  2.0+11   0.0+0  1.0+11  1.0+11  1.0+11   0.0+0+
+          1.0-4   5.0-4   0.0+0
$--1---><--2---><--3---><--4---><--5---><--6---><--7---><--8---><--9---><--10-->
SPC            1       2       2   0.0+0
SPC            1      18       1   0.0+0
SPC            1      18       2   0.0+0
SPC            1      34       1   0.0+0
SPC            1      34       2   0.0+0
SPC            1      34       3   0.0+0
$--1---><--2---><--3---><--4---><--5---><--6---><--7---><--8---><--9---><--10-->
$$$$$$$$$$$$$$$$$$$$$$$$$$$$$$$$$$ Component $$$$$$$$$$$$$$$$$$$$$$$$$$$$$$$$$$$
PSHELL         1       1   1.0-2       1               1           0.0+0
CQUAD4         1       1       5      11      12       8  -9.0+1   0.0+0
CQUAD4*                2               1              34              32*
*                     24              18-6.9814019269-15           0.0+0
CQUAD4         3       1      21      17      29      28  -9.0+1   0.0+0
CQUAD4*                4               1              33              27*
*                     25              26-6.1941132212-15           0.0+0
CQUAD4*                5               1              14              16*
*                     20               3-4.4411248798-15           0.0+0
CQUAD4*                6               1              16              15*
*                      1              20-3.2960459353-15           0.0+0
CQUAD4*                7               1              32              33*
*                     26              24-6.7105558941-15           0.0+0
CQUAD4         8       1      28      29      10       9  -9.0+1   0.0+0
CQUAD4*                9               1              15              19*
*                     13               1-2.0492430302-15           0.0+0
CQUAD4*               10               1              19               9*
*                     10              13-7.0070288971-16           0.0+0
CQUAD4*               11               1              27              14*
*                      3              25-5.4320684096-15           0.0+0
CQUAD4        12       1       2       6      11       5  -9.0+1   0.0+0
CQUAD4        13       1       8      12      23       4  -9.0+1   0.0+0
CQUAD4        14       1       7      31      22      30  -9.0+1   0.0+0
CQUAD4        15       1       4      23      31       7  -9.0+1   0.0+0
CQUAD4        16       1      30      22      17      21  -9.0+1   0.0+0
$--1---><--2---><--3---><--4---><--5---><--6---><--7---><--8---><--9---><--10-->
$$$$$$$$$$$$$$$$$$$$$$$$$$$$$$$$$ temperature $$$$$$$$$$$$$$$$$$$$$$$$$$$$$$$$$$
TEMP           4       5   1.0+1
TEMP           4      11   1.0+1
TEMP           4      12   1.0+1
TEMP           4       8   1.0+1
TEMP           4       4   1.0+1
TEMP           4      23   1.0+1
TEMP           4      31   1.0+1
TEMP           4       7   1.0+1
TEMP           4       2   1.0+1
TEMP           4       6   1.0+1
TEMP           4      28   1.0+1
TEMP           4      29   1.0+1
TEMP           4      10   1.0+1
TEMP           4       9   1.0+1
TEMP           4      21   1.0+1
TEMP           4      17   1.0+1
TEMP           4      30   1.0+1
TEMP           4      22   1.0+1
TEMP           4      34   1.0+1
TEMP           4      32   1.0+1
TEMP           4      24   1.0+1
TEMP           4      18   1.0+1
TEMP           4      33   1.0+1
TEMP           4      26   1.0+1
TEMP           4      27   1.0+1
TEMP           4      25   1.0+1
TEMP           4      14   1.0+1
TEMP           4       3   1.0+1
TEMP           4      16   1.0+1
TEMP           4      20   1.0+1
TEMP           4      15   1.0+1
TEMP           4       1   1.0+1
TEMP           4      19   1.0+1
TEMP           4      13   1.0+1
$--1---><--2---><--3---><--4---><--5---><--6---><--7---><--8---><--9---><--10-->
TEMPD          4   0.0+0
$--1---><--2---><--3---><--4---><--5---><--6---><--7---><--8---><--9---><--10-->
ENDDATA 
