$ Generated by Mecway 33
$-----------------------EXECUTIVE CONTROL SECTION-----------------------
SOL 101
CEND
$-------------------------CASE CONTROL SECTION--------------------------
DISPLACEMENT = ALL
SPC = 1
BEGIN BULK
$---------------------------BULK DATA SECTION---------------------------
GRID           1       0   0.0+0   0.0+0   0.0+0       0
GRID           2       0   1.0-3   0.0+0   0.0+0       0
GRID           3       0   1.0-3   1.0-3   0.0+0       0
GRID           4       0   0.0+0   1.0-3   0.0+0       0
GRID           5       0   0.0+0   0.0+0   1.0-3       0
GRID           6       0   1.0-3   0.0+0   1.0-3       0
GRID           7       0   1.0-3   1.0-3   1.0-3       0
GRID           8       0   0.0+0   1.0-3   1.0-3       0
GRID           9       0   5.0-4   0.0+0   0.0+0       0
GRID          10       0   1.0-3   5.0-4   0.0+0       0
GRID          11       0   5.0-4   1.0-3   0.0+0       0
GRID          12       0   0.0+0   5.0-4   0.0+0       0
GRID          13       0   5.0-4   0.0+0   1.0-3       0
GRID          14       0   1.0-3   5.0-4   1.0-3       0
GRID          15       0   5.0-4   1.0-3   1.0-3       0
GRID          16       0   0.0+0   5.0-4   1.0-3       0
GRID          17       0   0.0+0   0.0+0   5.0-4       0
GRID          18       0   1.0-3   0.0+0   5.0-4       0
GRID          19       0   1.0-3   1.0-3   5.0-4       0
GRID          20       0   0.0+0   1.0-3   5.0-4       0
GRID          21       0   5.0-4   0.0+0   5.0-4       0
GRID          22       0   1.0-3   5.0-4   5.0-4       0
GRID          23       0   5.0-4   1.0-3   5.0-4       0
GRID          24       0   0.0+0   5.0-4   5.0-4       0
GRID          25       0   5.0-4   5.0-4   0.0+0       0
GRID          26       0   5.0-4   5.0-4   1.0-3       0
GRID          27       0   5.0-4   5.0-4   5.0-4       0
PARAM    STR_CID      -2
$--1---><--2---><--3---><--4---><--5---><--6---><--7---><--8---><--9---><--10-->
$$$$$$$$$$$$$$$$$$$$$$$$$$$$$$$$$$$ Material $$$$$$$$$$$$$$$$$$$$$$$$$$$$$$$$$$$
MAT1           1  2.0+11  1.0+11   0.0+0   0.0+0   0.0+0   0.0+0
$--1---><--2---><--3---><--4---><--5---><--6---><--7---><--8---><--9---><--10-->
SPC            1       1       1   0.0+0
SPC            1       1       2   0.0+0
SPC            1       1       3   0.0+0
SPC            1       2       1   0.0+0
SPC            1       2       2   0.0+0
SPC            1       2       3   0.0+0
SPC            1       3       1   0.0+0
SPC            1       3       2   0.0+0
SPC            1       3       3   0.0+0
SPC            1       4       1   0.0+0
SPC            1       4       2   0.0+0
SPC            1       4       3   0.0+0
SPC            1       5       3  -1.0-4
SPC            1       6       3  -1.0-4
SPC            1       7       3  -1.0-4
SPC            1       8       3  -1.0-4
SPC            1       9       1   0.0+0
SPC            1       9       2   0.0+0
SPC            1       9       3   0.0+0
SPC            1      10       1   0.0+0
SPC            1      10       2   0.0+0
SPC            1      10       3   0.0+0
SPC            1      11       1   0.0+0
SPC            1      11       2   0.0+0
SPC            1      11       3   0.0+0
SPC            1      12       1   0.0+0
SPC            1      12       2   0.0+0
SPC            1      12       3   0.0+0
SPC            1      13       3  -1.0-4
SPC            1      14       3  -1.0-4
SPC            1      15       3  -1.0-4
SPC            1      16       3  -1.0-4
SPC            1      25       1   0.0+0
SPC            1      25       2   0.0+0
SPC            1      25       3   0.0+0
SPC            1      26       3  -1.0-4
$--1---><--2---><--3---><--4---><--5---><--6---><--7---><--8---><--9---><--10-->
$$$$$$$$$$$$$$$$$$$$$$$$$$$$$$$$$$$ Default $$$$$$$$$$$$$$$$$$$$$$$$$$$$$$$$$$$$
PSOLID         1       1       0       2               1
CHEXA          1       1      24      27      23      20      16      26+
+             15       8
CHEXA          2       1       1       9      25      12      17      21+
+             27      24
CHEXA          3       1       9       2      10      25      21      18+
+             22      27
CHEXA          4       1      25      10       3      11      27      22+
+             19      23
CHEXA          5       1      12      25      11       4      24      27+
+             23      20
CHEXA          6       1      17      21      27      24       5      13+
+             26      16
CHEXA          7       1      21      18      22      27      13       6+
+             14      26
CHEXA          8       1      27      22      19      23      26      14+
+              7      15
$--1---><--2---><--3---><--4---><--5---><--6---><--7---><--8---><--9---><--10-->
ENDDATA 
