$ Generated by Mecway 33
$-----------------------EXECUTIVE CONTROL SECTION-----------------------
SOL 101
CEND
$-------------------------CASE CONTROL SECTION--------------------------
DISPLACEMENT = ALL
SPC = 1
LOAD = 1
BEGIN BULK
$---------------------------BULK DATA SECTION---------------------------
GRID           1       0   0.0+0   0.0+0   0.0+0       0
GRID*                  2               0 7.07106781187-2 7.07106781187-2*
*                  0.0+0               0
GRID*                  3               0 8.6592745707-18 1.41421356237-1*
*                  0.0+0               0
GRID*                  4               0-7.07106781187-2 7.07106781187-2*
*                  0.0+0               0
GRID*                  5               0 3.53553390593-2 3.53553390593-2*
*                  0.0+0               0
GRID*                  6               0 3.53553390593-2 1.06066017178-1*
*                  0.0+0               0
GRID*                  7               0-3.53553390593-2 1.06066017178-1*
*                  0.0+0               0
GRID*                  8               0-3.53553390593-2 3.53553390593-2*
*                  0.0+0               0
GRID*                  9               0  3.469446952-18 7.07106781187-2*
*                  0.0+0               0
GRID*                 10               0-1.76776695297-2  5.3033008589-2*
*                  0.0+0               0
GRID*                 11               0-1.76776695297-2 8.83883476483-2*
*                  0.0+0               0
GRID*                 12               0 -5.3033008589-2 8.83883476483-2*
*                  0.0+0               0
GRID*                 13               0 -5.3033008589-2  5.3033008589-2*
*                  0.0+0               0
GRID*                 14               0-3.53553390593-2 7.07106781187-2*
*                  0.0+0               0
GRID*                 15               0 1.76776695297-2 1.76776695297-2*
*                  0.0+0               0
GRID*                 16               0 1.76776695297-2  5.3033008589-2*
*                  0.0+0               0
GRID*                 17               0-1.76776695297-2 1.76776695297-2*
*                  0.0+0               0
GRID*                 18               0           0.0+0 3.53553390593-2*
*                  0.0+0               0
GRID*                 19               0 3.53553390593-2 7.07106781187-2*
*                  0.0+0               0
GRID*                 20               0 1.76776695297-2 8.83883476483-2*
*                  0.0+0               0
GRID*                 21               0 6.0643607613-18 1.06066017178-1*
*                  0.0+0               0
GRID*                 22               0-1.76776695297-2 1.23743686708-1*
*                  0.0+0               0
GRID*                 23               0 1.76776695297-2 1.23743686708-1*
*                  0.0+0               0
GRID*                 24               0  5.3033008589-2  5.3033008589-2*
*                  0.0+0               0
GRID*                 25               0  5.3033008589-2 8.83883476483-2*
*                  0.0+0               0
GRID*                 26               0-1.76776695297-2-1.76776695297-2*
*                  0.0+0               0
GRID*                 27               0-8.83883476483-2  5.3033008589-2*
*                  0.0+0               0
GRID*                 28               0 -5.3033008589-2 1.76776695297-2*
*                  0.0+0               0
GRID*                 29               0-3.53553390593-2-3.53553390593-2*
*                  0.0+0               0
GRID*                 30               0-1.06066017178-1 3.53553390593-2*
*                  0.0+0               0
GRID*                 31               0-7.07106781187-2 3.53553390593-2*
*                  0.0+0               0
GRID*                 32               0-7.07106781187-2           0.0+0*
*                  0.0+0               0
GRID*                 33               0-8.83883476483-2 1.76776695297-2*
*                  0.0+0               0
GRID*                 34               0-3.53553390593-2           0.0+0*
*                  0.0+0               0
GRID*                 35               0 -5.3033008589-2-1.76776695297-2*
*                  0.0+0               0
PARAM    STR_CID      -2
$--1---><--2---><--3---><--4---><--5---><--6---><--7---><--8---><--9---><--10-->
$$$$$$$$$$$$$$$$$$$$$$$$$$$$$$$$$$$ Material $$$$$$$$$$$$$$$$$$$$$$$$$$$$$$$$$$$
MAT1           1  1.0+11  5.0+10   0.0+0   7.0+3   0.0+0   0.0+0
$--1---><--2---><--3---><--4---><--5---><--6---><--7---><--8---><--9---><--10-->
$$$$$$$$$$$$$$$$$$$$$$$$$$$$$$$$$ Material(2) $$$$$$$$$$$$$$$$$$$$$$$$$$$$$$$$$$
MAT1           2  1.0+11  5.0+10   0.0+0   7.0+3   0.0+0   0.0+0
$--1---><--2---><--3---><--4---><--5---><--6---><--7---><--8---><--9---><--10-->
SPC            1       3       1   0.0+0
SPC            1       3       2   0.0+0
SPC            1       3       3   0.0+0
SPC            1       3       4   0.0+0
SPC            1       3       5   0.0+0
SPC            1       3       6   0.0+0
SPC            1       4       1   0.0+0
SPC            1       4       2   0.0+0
SPC            1       4       3   0.0+0
SPC            1       4       4   0.0+0
SPC            1       4       5   0.0+0
SPC            1       4       6   0.0+0
SPC            1       7       1   0.0+0
SPC            1       7       2   0.0+0
SPC            1       7       3   0.0+0
SPC            1       7       4   0.0+0
SPC            1       7       5   0.0+0
SPC            1       7       6   0.0+0
SPC            1      12       1   0.0+0
SPC            1      12       2   0.0+0
SPC            1      12       3   0.0+0
SPC            1      12       4   0.0+0
SPC            1      12       5   0.0+0
SPC            1      12       6   0.0+0
SPC            1      22       1   0.0+0
SPC            1      22       2   0.0+0
SPC            1      22       3   0.0+0
SPC            1      22       4   0.0+0
SPC            1      22       5   0.0+0
SPC            1      22       6   0.0+0
SPC            1      27       1   0.0+0
SPC            1      27       2   0.0+0
SPC            1      27       3   0.0+0
SPC            1      27       4   0.0+0
SPC            1      27       5   0.0+0
SPC            1      27       6   0.0+0
SPC            1      30       1   0.0+0
SPC            1      30       2   0.0+0
SPC            1      30       3   0.0+0
SPC            1      30       4   0.0+0
SPC            1      30       5   0.0+0
SPC            1      30       6   0.0+0
$--1---><--2---><--3---><--4---><--5---><--6---><--7---><--8---><--9---><--10-->
$$$$$$$$$$$$$$$$$$$$$$$$$$$$$$$$$$$ Default $$$$$$$$$$$$$$$$$$$$$$$$$$$$$$$$$$$$
PSHELL         1       1   1.5-2       1               1           0.0+0
CTRIA3         1       1      21      23       3       2   0.0+0
CORD2R*                2               0           0.0+0           0.0+0*
*                  0.0+0-7.07106781187-1 7.07106781187-1           0.0+0*
*        7.07106781187-1 7.07106781187-1           0.0+0                *
*
CTRIA3         2       1      21      20      23       3   0.0+0
CORD2R*                3               0           0.0+0           0.0+0*
*                  0.0+0 7.07106781187-1 7.07106781187-1           0.0+0*
*        7.07106781187-1-7.07106781187-1           0.0+0                *
*
CTRIA3         3       1       5      24      19       4   0.0+0
CORD2R*                4               0           0.0+0           0.0+0*
*                  0.0+0-7.07106781187-1 7.07106781187-1           0.0+0*
*        7.07106781187-1 7.07106781187-1           0.0+0                *
*
CTRIA3         4       1      24       2      25       5   0.0+0
CORD2R*                5               0           0.0+0           0.0+0*
*                  0.0+0-7.07106781187-1 7.07106781187-1           0.0+0*
*        7.07106781187-1 7.07106781187-1           0.0+0                *
*
CTRIA3         5       1      19      25       6       6   0.0+0
CORD2R*                6               0           0.0+0           0.0+0*
*                  0.0+0-7.07106781187-1 7.07106781187-1           0.0+0*
*        7.07106781187-1 7.07106781187-1           0.0+0                *
*
CTRIA3         6       1      19      24      25       7   0.0+0
CORD2R*                7               0           0.0+0           0.0+0*
*                  0.0+0 7.07106781187-1 7.07106781187-1           0.0+0*
*        7.07106781187-1-7.07106781187-1           0.0+0                *
*
CTRIA3        15       1       5      19      16       8   0.0+0
CORD2R         8       0   0.0+0   0.0+0   0.0+0  -1.0+0   0.0+0   0.0+0+
+          0.0+0   1.0+0   0.0+0
CTRIA3        16       1      19       6      20       9   0.0+0
CORD2R         9       0   0.0+0   0.0+0   0.0+0  -1.0+0   0.0+0   0.0+0+
+          0.0+0   1.0+0   0.0+0
CTRIA3        17       1      16      20       9      10   0.0+0
CORD2R        10       0   0.0+0   0.0+0   0.0+0  -1.0+0   0.0+0   0.0+0+
+          0.0+0   1.0+0   0.0+0
CTRIA3        18       1      16      19      20      11   0.0+0
CORD2R*               11               0           0.0+0           0.0+0*
*                  0.0+0-7.07106781187-1 7.07106781187-1           0.0+0*
*        7.07106781187-1 7.07106781187-1           0.0+0                *
*
CTRIA3        19       1       9      21      11      12   0.0+0
CORD2R*               12               0           0.0+0           0.0+0*
*                  0.0+0          -1.0+0 7.3395246048-17           0.0+0*
*        7.3395246048-17           1.0+0           0.0+0                *
*
CTRIA3        20       1      21       3      22      13   0.0+0
CORD2R*               13               0           0.0+0           0.0+0*
*                  0.0+0          -1.0+0 7.3395246048-17           0.0+0*
*        7.3395246048-17           1.0+0           0.0+0                *
*
CTRIA3        21       1      11      22       7      14   0.0+0
CORD2R        14       0   0.0+0   0.0+0   0.0+0  -1.0+0   0.0+0   0.0+0+
+          0.0+0   1.0+0   0.0+0
CTRIA3        22       1      11      21      22      15   0.0+0
CORD2R*               15               0           0.0+0           0.0+0*
*                  0.0+0-7.07106781187-1 7.07106781187-1           0.0+0*
*        7.07106781187-1 7.07106781187-1           0.0+0                *
*
CTRIA3        23       1       9      20      21      16   0.0+0
CORD2R*               16               0           0.0+0           0.0+0*
*                  0.0+0-7.07106781187-1 7.07106781187-1           0.0+0*
*        7.07106781187-1 7.07106781187-1           0.0+0                *
*
CTRIA3        24       1      20       6      23      17   0.0+0
CORD2R*               17               0           0.0+0           0.0+0*
*                  0.0+0-7.07106781187-1 7.07106781187-1           0.0+0*
*        7.07106781187-1 7.07106781187-1           0.0+0                *
*
PSHELL        18       1   1.5-2       1               1           0.0+0
CQUAD4         7      18       8      10      14      13      19   0.0+0
CORD2R*               19               0           0.0+0           0.0+0*
*                  0.0+0-7.07106781187-1 7.07106781187-1           0.0+0*
*        7.07106781187-1 7.07106781187-1           0.0+0                *
*
CQUAD4         8      18      10       9      11      14      20   0.0+0
CORD2R*               20               0           0.0+0           0.0+0*
*                  0.0+0-7.07106781187-1 7.07106781187-1           0.0+0*
*        7.07106781187-1 7.07106781187-1           0.0+0                *
*
CQUAD4         9      18      14      11       7      12      21   0.0+0
CORD2R*               21               0           0.0+0           0.0+0*
*                  0.0+0-7.07106781187-1 7.07106781187-1           0.0+0*
*        7.07106781187-1 7.07106781187-1           0.0+0                *
*
CQUAD4        10      18      13      14      12       4      22   0.0+0
CORD2R*               22               0           0.0+0           0.0+0*
*                  0.0+0-7.07106781187-1 7.07106781187-1           0.0+0*
*        7.07106781187-1 7.07106781187-1           0.0+0                *
*
CQUAD4        11      18       1      15      18      17      23   0.0+0
CORD2R*               23               0           0.0+0           0.0+0*
*                  0.0+0-7.07106781187-1 7.07106781187-1           0.0+0*
*        7.07106781187-1 7.07106781187-1           0.0+0                *
*
CQUAD4        12      18      15       5      16      18      24   0.0+0
CORD2R*               24               0           0.0+0           0.0+0*
*                  0.0+0-7.07106781187-1 7.07106781187-1           0.0+0*
*        7.07106781187-1 7.07106781187-1           0.0+0                *
*
CQUAD4        13      18      18      16       9      10      25   0.0+0
CORD2R*               25               0           0.0+0           0.0+0*
*                  0.0+0-7.07106781187-1 7.07106781187-1           0.0+0*
*        7.07106781187-1 7.07106781187-1           0.0+0                *
*
CQUAD4        14      18      17      18      10       8      26   0.0+0
CORD2R*               26               0           0.0+0           0.0+0*
*                  0.0+0-7.07106781187-1 7.07106781187-1           0.0+0*
*        7.07106781187-1 7.07106781187-1           0.0+0                *
*
$--1---><--2---><--3---><--4---><--5---><--6---><--7---><--8---><--9---><--10-->
$$$$$$$$$$$$$$$$$$$$$$$$$$$$$$$$$$ Component $$$$$$$$$$$$$$$$$$$$$$$$$$$$$$$$$$$
PSHELL        27       2   9.0-3       2               2           0.0+0
CQUAD4        25      27      28       8      13      31      28   0.0+0
CORD2R*               28               0           0.0+0           0.0+0*
*                  0.0+0-7.07106781187-1 7.07106781187-1           0.0+0*
*        7.07106781187-1 7.07106781187-1           0.0+0                *
*
CQUAD4        26      27      31      13       4      27      29   0.0+0
CORD2R*               29               0           0.0+0           0.0+0*
*                  0.0+0-7.07106781187-1 7.07106781187-1           0.0+0*
*        7.07106781187-1 7.07106781187-1           0.0+0                *
*
CQUAD4        27      27      26       1      17      34      30   0.0+0
CORD2R*               30               0           0.0+0           0.0+0*
*                  0.0+0-7.07106781187-1 7.07106781187-1           0.0+0*
*        7.07106781187-1 7.07106781187-1           0.0+0                *
*
CQUAD4        28      27      34      17       8      28      31   0.0+0
CORD2R*               31               0           0.0+0           0.0+0*
*                  0.0+0-7.07106781187-1 7.07106781187-1           0.0+0*
*        7.07106781187-1 7.07106781187-1           0.0+0                *
*
CQUAD4        29      27      32      28      31      33      32   0.0+0
CORD2R*               32               0           0.0+0           0.0+0*
*                  0.0+0-7.07106781187-1 7.07106781187-1           0.0+0*
*        7.07106781187-1 7.07106781187-1           0.0+0                *
*
CQUAD4        30      27      33      31      27      30      33   0.0+0
CORD2R*               33               0           0.0+0           0.0+0*
*                  0.0+0-7.07106781187-1 7.07106781187-1           0.0+0*
*        7.07106781187-1 7.07106781187-1           0.0+0                *
*
CQUAD4        31      27      29      26      34      35      34   0.0+0
CORD2R*               34               0           0.0+0           0.0+0*
*                  0.0+0-7.07106781187-1 7.07106781187-1           0.0+0*
*        7.07106781187-1 7.07106781187-1           0.0+0                *
*
CQUAD4        32      27      35      34      28      32      35   0.0+0
CORD2R*               35               0           0.0+0           0.0+0*
*                  0.0+0-7.07106781187-1 7.07106781187-1           0.0+0*
*        7.07106781187-1 7.07106781187-1           0.0+0                *
*
$--1---><--2---><--3---><--4---><--5---><--6---><--7---><--8---><--9---><--10-->
$$$$$$$$$$$$$$$$$$$$$$$$$$$$$$$$$$$ gravity $$$$$$$$$$$$$$$$$$$$$$$$$$$$$$$$$$$$
GRAV           3       0   1.0+0   9.0+0  -9.0+0   0.0+0
$--1---><--2---><--3---><--4---><--5---><--6---><--7---><--8---><--9---><--10-->
LOAD           1   1.0+0   1.0+0       3
ENDDATA 
