$ Generated by Mecway 33
$-----------------------EXECUTIVE CONTROL SECTION-----------------------
SOL 101
CEND
$-------------------------CASE CONTROL SECTION--------------------------
DISPLACEMENT = ALL
STRESS(CORNER) = ALL
STRAIN(CORNER) = ALL
SPC = 1
LOAD = 1
BEGIN BULK
$---------------------------BULK DATA SECTION---------------------------
GRID           1       0   0.0+0   0.0+0   0.0+0       0
GRID           2       0   1.0+0   0.0+0   0.0+0       0
GRID           3       0   1.0+0   1.0+0   0.0+0       0
GRID           4       0   0.0+0   1.0+0   0.0+0       0
GRID           5       0   0.0+0   0.0+0   1.0+0       0
GRID           6       0   1.0+0   0.0+0   1.0+0       0
GRID           7       0   1.0+0   1.0+0   1.0+0       0
GRID           8       0   0.0+0   1.0+0   1.0+0       0
GRID           9       0   2.0+0   0.0+0   0.0+0       0
GRID          10       0   3.0+0   0.0+0   0.0+0       0
GRID          11       0   3.0+0   1.0+0   0.0+0       0
GRID          12       0   2.0+0   1.0+0   0.0+0       0
GRID          13       0   2.0+0   0.0+0   1.0+0       0
GRID          14       0   3.0+0   0.0+0   1.0+0       0
GRID          15       0   3.0+0   1.0+0   1.0+0       0
GRID          16       0   2.0+0   1.0+0   1.0+0       0
GRID          17       0   4.0+0   0.0+0   0.0+0       0
GRID          18       0   5.0+0   0.0+0   0.0+0       0
GRID          19       0   5.0+0   1.0+0   0.0+0       0
GRID          20       0   4.0+0   1.0+0   0.0+0       0
GRID          21       0   4.0+0   0.0+0   1.0+0       0
GRID          22       0   5.0+0   0.0+0   1.0+0       0
GRID          23       0   5.0+0   1.0+0   1.0+0       0
GRID          24       0   4.0+0   1.0+0   1.0+0       0
GRID          25       0   6.0+0   0.0+0   0.0+0       0
GRID          26       0   7.0+0   0.0+0   0.0+0       0
GRID          27       0   7.0+0   1.0+0   0.0+0       0
GRID          28       0   6.0+0   1.0+0   0.0+0       0
GRID          29       0   6.0+0   0.0+0   1.0+0       0
GRID          30       0   7.0+0   0.0+0   1.0+0       0
GRID          31       0   7.0+0   1.0+0   1.0+0       0
GRID          32       0   6.0+0   1.0+0   1.0+0       0
GRID          33       0   5.0-1   0.0+0   0.0+0       0
GRID          34       0   1.0+0   5.0-1   0.0+0       0
GRID          35       0   5.0-1   1.0+0   0.0+0       0
GRID          36       0   0.0+0   5.0-1   0.0+0       0
GRID          37       0   0.0+0   0.0+0   5.0-1       0
GRID          38       0   1.0+0   0.0+0   5.0-1       0
GRID          39       0   1.0+0   1.0+0   5.0-1       0
GRID          40       0   0.0+0   1.0+0   5.0-1       0
GRID          41       0   5.0-1   0.0+0   1.0+0       0
GRID          42       0   1.0+0   5.0-1   1.0+0       0
GRID          43       0   5.0-1   1.0+0   1.0+0       0
GRID          44       0   0.0+0   5.0-1   1.0+0       0
GRID          45       0   2.5+0   0.0+0   0.0+0       0
GRID          46       0   3.0+0   5.0-1   0.0+0       0
GRID          47       0   2.5+0   1.0+0   0.0+0       0
GRID          48       0   2.0+0   5.0-1   0.0+0       0
GRID          49       0   2.0+0   0.0+0   5.0-1       0
GRID          50       0   3.0+0   0.0+0   5.0-1       0
GRID          51       0   3.0+0   1.0+0   5.0-1       0
GRID          52       0   2.0+0   1.0+0   5.0-1       0
GRID          53       0   2.5+0   0.0+0   1.0+0       0
GRID          54       0   3.0+0   5.0-1   1.0+0       0
GRID          55       0   2.5+0   1.0+0   1.0+0       0
GRID          56       0   2.0+0   5.0-1   1.0+0       0
GRID          57       0   4.5+0   0.0+0   0.0+0       0
GRID          58       0   5.0+0   5.0-1   0.0+0       0
GRID          59       0   4.5+0   1.0+0   0.0+0       0
GRID          60       0   4.0+0   5.0-1   0.0+0       0
GRID          61       0   4.0+0   0.0+0   5.0-1       0
GRID          62       0   5.0+0   0.0+0   5.0-1       0
GRID          63       0   5.0+0   1.0+0   5.0-1       0
GRID          64       0   4.0+0   1.0+0   5.0-1       0
GRID          65       0   4.5+0   0.0+0   1.0+0       0
GRID          66       0   5.0+0   5.0-1   1.0+0       0
GRID          67       0   4.5+0   1.0+0   1.0+0       0
GRID          68       0   4.0+0   5.0-1   1.0+0       0
GRID          69       0   6.5+0   0.0+0   0.0+0       0
GRID          70       0   7.0+0   5.0-1   0.0+0       0
GRID          71       0   6.5+0   1.0+0   0.0+0       0
GRID          72       0   6.0+0   5.0-1   0.0+0       0
GRID          73       0   6.0+0   0.0+0   5.0-1       0
GRID          74       0   7.0+0   0.0+0   5.0-1       0
GRID          75       0   7.0+0   1.0+0   5.0-1       0
GRID          76       0   6.0+0   1.0+0   5.0-1       0
GRID          77       0   6.5+0   0.0+0   1.0+0       0
GRID          78       0   7.0+0   5.0-1   1.0+0       0
GRID          79       0   6.5+0   1.0+0   1.0+0       0
GRID          80       0   6.0+0   5.0-1   1.0+0       0
PARAM    STR_CID      -2
$--1---><--2---><--3---><--4---><--5---><--6---><--7---><--8---><--9---><--10-->
$$$$$$$$$$$$$$$$$$$$$$$$$$$$$$$$$$$ Material $$$$$$$$$$$$$$$$$$$$$$$$$$$$$$$$$$$
MAT1           1   1.0+2   5.0+1   0.0+0   0.0+0   0.0+0   0.0+0
$--1---><--2---><--3---><--4---><--5---><--6---><--7---><--8---><--9---><--10-->
SPC            1       1       1   0.0+0
SPC            1       1       2   0.0+0
SPC            1       1       3   0.0+0
SPC            1       2       3   0.0+0
SPC            1       2       2   0.0+0
SPC            1       3       3   0.0+0
SPC            1       4       1   0.0+0
SPC            1       4       3   0.0+0
SPC            1       5       1   0.0+0
SPC            1       5       2   0.0+0
SPC            1       6       2   0.0+0
SPC            1       8       1   0.0+0
SPC            1       9       1   0.0+0
SPC            1       9       2   0.0+0
SPC            1       9       3   0.0+0
SPC            1      10       1  -1.0-2
SPC            1      10       2   0.0+0
SPC            1      10       3   0.0+0
SPC            1      11       1   1.0-2
SPC            1      11       2   0.0+0
SPC            1      11       3   0.0+0
SPC            1      12       1   0.0+0
SPC            1      12       2   0.0+0
SPC            1      12       3   0.0+0
SPC            1      13       1   0.0+0
SPC            1      13       2   0.0+0
SPC            1      14       2   0.0+0
SPC            1      14       1  -1.0-2
SPC            1      15       2   0.0+0
SPC            1      15       1   1.0-2
SPC            1      16       1   0.0+0
SPC            1      16       2   0.0+0
SPC            1      17       1   0.0+0
SPC            1      17       2   0.0+0
SPC            1      17       3   0.0+0
SPC            1      18       3   0.0+0
SPC            1      18       2   0.0+0
SPC            1      19       3   0.0+0
SPC            1      19       2  -1.0-2
SPC*                   1              20               1 1.8735013541-18*
*       
SPC            1      20       2  -1.0-2
SPC            1      20       3   0.0+0
SPC            1      21       1   0.0+0
SPC            1      21       2   0.0+0
SPC            1      21       3   0.0+0
SPC            1      22       3   0.0+0
SPC            1      22       2   0.0+0
SPC            1      23       3   0.0+0
SPC            1      23       2   1.0-2
SPC*                   1              24               1 1.8735013541-18*
*       
SPC            1      24       2   1.0-2
SPC            1      24       3   0.0+0
SPC            1      25       1   0.0+0
SPC            1      25       2   0.0+0
SPC            1      25       3   0.0+0
SPC            1      26       1   0.0+0
SPC            1      26       2   0.0+0
SPC            1      26       3   0.0+0
SPC            1      27       1   0.0+0
SPC            1      27       3   0.0+0
SPC            1      28       1   0.0+0
SPC            1      28       3   0.0+0
SPC*                   1              29               1 1.8735013541-18*
*       
SPC            1      29       2   0.0+0
SPC            1      29       3  -1.0-2
SPC*                   1              30               1 1.8735013541-18*
*       
SPC            1      30       2   0.0+0
SPC            1      30       3   1.0-2
SPC*                   1              31               1-4.8572257327-19*
*       
SPC            1      31       3   1.0-2
SPC*                   1              32               1-4.8572257327-19*
*       
SPC            1      32       3  -1.0-2
SPC            1      33       3   0.0+0
SPC            1      33       2   0.0+0
SPC            1      34       3   0.0+0
SPC            1      35       3   0.0+0
SPC            1      36       1   0.0+0
SPC            1      36       3   0.0+0
SPC            1      37       1   0.0+0
SPC            1      37       2   0.0+0
SPC            1      38       2   0.0+0
SPC            1      40       1   0.0+0
SPC            1      41       2   0.0+0
SPC            1      44       1   0.0+0
SPC            1      45       3   0.0+0
SPC            1      45       2   0.0+0
SPC            1      46       3   0.0+0
SPC            1      47       3   0.0+0
SPC            1      47       2   0.0+0
SPC            1      48       1   0.0+0
SPC            1      48       3   0.0+0
SPC            1      49       1   0.0+0
SPC            1      49       2   0.0+0
SPC            1      50       2   0.0+0
SPC            1      50       1  -1.0-2
SPC            1      51       2   0.0+0
SPC            1      51       1   1.0-2
SPC            1      52       1   0.0+0
SPC            1      52       2   0.0+0
SPC            1      53       2   0.0+0
SPC            1      55       2   0.0+0
SPC            1      56       1   0.0+0
SPC            1      57       3   0.0+0
SPC            1      57       2   0.0+0
SPC            1      58       3   0.0+0
SPC            1      59       3   0.0+0
SPC            1      59       2  -1.0-2
SPC            1      60       1   0.0+0
SPC            1      60       3   0.0+0
SPC            1      61       1   0.0+0
SPC            1      61       2   0.0+0
SPC            1      62       2   0.0+0
SPC            1      64       1   0.0+0
SPC            1      65       3   0.0+0
SPC            1      65       2   0.0+0
SPC            1      66       3   0.0+0
SPC            1      67       3   0.0+0
SPC            1      67       2   1.0-2
SPC            1      68       1   0.0+0
SPC            1      68       3   0.0+0
SPC            1      69       3   0.0+0
SPC            1      69       2   0.0+0
SPC            1      70       1   0.0+0
SPC            1      70       3   0.0+0
SPC            1      71       3   0.0+0
SPC            1      72       1   0.0+0
SPC            1      72       3   0.0+0
SPC            1      73       1   0.0+0
SPC            1      73       2   0.0+0
SPC            1      74       1   0.0+0
SPC            1      74       2   0.0+0
SPC            1      75       1   0.0+0
SPC            1      76       1   0.0+0
SPC            1      77       2   0.0+0
SPC*                   1              78               1-4.8572257327-19*
*       
SPC            1      78       3   1.0-2
SPC*                   1              80               1-4.8572257327-19*
*       
SPC            1      80       3  -1.0-2
$--1---><--2---><--3---><--4---><--5---><--6---><--7---><--8---><--9---><--10-->
$$$$$$$$$$$$$$$$$$$$$$$$$$$$$$$$$$$ Default $$$$$$$$$$$$$$$$$$$$$$$$$$$$$$$$$$$$
PSOLID         1       1       0       3               1
CHEXA          1       1       1       2       3       4       5       6+
+              7       8      33      34      35      36      37      38+
+             39      40      41      42      43      44
CHEXA          2       1       9      10      11      12      13      14+
+             15      16      45      46      47      48      49      50+
+             51      52      53      54      55      56
CHEXA          3       1      17      18      19      20      21      22+
+             23      24      57      58      59      60      61      62+
+             63      64      65      66      67      68
CHEXA          4       1      25      26      27      28      29      30+
+             31      32      69      70      71      72      73      74+
+             75      76      77      78      79      80
$--1---><--2---><--3---><--4---><--5---><--6---><--7---><--8---><--9---><--10-->
$$$$$$$$$$$$$$$$$$$$$$$$$$$$$$$$$$$$ force $$$$$$$$$$$$$$$$$$$$$$$$$$$$$$$$$$$$$
FORCE*                 2               2               0           1.0+0*
*       -8.33333333333-2           0.0+0           0.0+0
FORCE*                 2               3               0           1.0+0*
*       -8.33333333333-2           0.0+0           0.0+0
FORCE*                 2               6               0           1.0+0*
*       -8.33333333333-2           0.0+0           0.0+0
FORCE*                 2               7               0           1.0+0*
*       -8.33333333333-2           0.0+0           0.0+0
FORCE*                 2              34               0           1.0+0*
*        3.33333333333-1           0.0+0           0.0+0
FORCE*                 2              38               0           1.0+0*
*        3.33333333333-1           0.0+0           0.0+0
FORCE*                 2              39               0           1.0+0*
*        3.33333333333-1           0.0+0           0.0+0
FORCE*                 2              42               0           1.0+0*
*        3.33333333333-1           0.0+0           0.0+0
$--1---><--2---><--3---><--4---><--5---><--6---><--7---><--8---><--9---><--10-->
$$$$$$$$$$$$$$$$$$$$$$$$$$$$$$$$$$$$ force $$$$$$$$$$$$$$$$$$$$$$$$$$$$$$$$$$$$$
FORCE*                 2               3               0           1.0+0*
*                  0.0+0-1.66666666667-1           0.0+0
FORCE*                 2               4               0           1.0+0*
*                  0.0+0-1.66666666667-1           0.0+0
FORCE*                 2               7               0           1.0+0*
*                  0.0+0-1.66666666667-1           0.0+0
FORCE*                 2               8               0           1.0+0*
*                  0.0+0-1.66666666667-1           0.0+0
FORCE*                 2              35               0           1.0+0*
*                  0.0+0 6.66666666667-1           0.0+0
FORCE*                 2              39               0           1.0+0*
*                  0.0+0 6.66666666667-1           0.0+0
FORCE*                 2              40               0           1.0+0*
*                  0.0+0 6.66666666667-1           0.0+0
FORCE*                 2              43               0           1.0+0*
*                  0.0+0 6.66666666667-1           0.0+0
$--1---><--2---><--3---><--4---><--5---><--6---><--7---><--8---><--9---><--10-->
$$$$$$$$$$$$$$$$$$$$$$$$$$$$$$$$$$$$ force $$$$$$$$$$$$$$$$$$$$$$$$$$$$$$$$$$$$$
FORCE          2       5       0   1.0+0   0.0+0   0.0+0  -2.5-1
FORCE          2       6       0   1.0+0   0.0+0   0.0+0  -2.5-1
FORCE          2       7       0   1.0+0   0.0+0   0.0+0  -2.5-1
FORCE          2       8       0   1.0+0   0.0+0   0.0+0  -2.5-1
FORCE          2      41       0   1.0+0   0.0+0   0.0+0   1.0+0
FORCE          2      42       0   1.0+0   0.0+0   0.0+0   1.0+0
FORCE          2      43       0   1.0+0   0.0+0   0.0+0   1.0+0
FORCE          2      44       0   1.0+0   0.0+0   0.0+0   1.0+0
$--1---><--2---><--3---><--4---><--5---><--6---><--7---><--8---><--9---><--10-->
LOAD           1   1.0+0   1.0+0       2
ENDDATA 
