$ Generated by Mecway 33
$-----------------------EXECUTIVE CONTROL SECTION-----------------------
SOL 101
CEND
$-------------------------CASE CONTROL SECTION--------------------------
DISPLACEMENT = ALL
SPC = 1
LOAD = 1
BEGIN BULK
$---------------------------BULK DATA SECTION---------------------------
GRID           1       0   0.0+0   0.0+0   0.0+0       0
GRID           2       0   1.1+0   0.0+0   0.0+0       0
GRID*                  3               0           1.1+0 6.53566842018-1*
*        1.00640468153+0               0
GRID*                  4               0           0.0+0 6.53566842018-1*
*        1.00640468153+0               0
GRID*                  5               0           1.1+0 3.26783421009-1*
*        5.03202340767-1               0
GRID*                  6               0           5.5-1 6.53566842018-1*
*        1.00640468153+0               0
GRID*                  7               0           0.0+0 3.26783421009-1*
*        5.03202340767-1               0
GRID           8       0   5.5-1   0.0+0   0.0+0       0
GRID*                  9               0           5.5-1 3.26783421009-1*
*        5.03202340767-1               0
GRID*                 10               0           5.5-1 1.63391710505-1*
*        2.51601170384-1               0
GRID*                 11               0          2.75-1 3.26783421009-1*
*        5.03202340767-1               0
GRID*                 12               0           0.0+0 1.63391710505-1*
*        2.51601170384-1               0
GRID          13       0  2.75-1   0.0+0   0.0+0       0
GRID*                 14               0          2.75-1 1.63391710505-1*
*        2.51601170384-1               0
GRID*                 15               0           1.1+0 1.63391710505-1*
*        2.51601170384-1               0
GRID*                 16               0          8.25-1 3.26783421009-1*
*        5.03202340767-1               0
GRID          17       0  8.25-1   0.0+0   0.0+0       0
GRID*                 18               0          8.25-1 1.63391710505-1*
*        2.51601170384-1               0
GRID*                 19               0           1.1+0 4.90175131514-1*
*        7.54803511151-1               0
GRID*                 20               0          8.25-1 6.53566842018-1*
*        1.00640468153+0               0
GRID*                 21               0           5.5-1 4.90175131514-1*
*        7.54803511151-1               0
GRID*                 22               0          8.25-1 4.90175131514-1*
*        7.54803511151-1               0
GRID*                 23               0          2.75-1 6.53566842018-1*
*        1.00640468153+0               0
GRID*                 24               0           0.0+0 4.90175131514-1*
*        7.54803511151-1               0
GRID*                 25               0          2.75-1 4.90175131514-1*
*        7.54803511151-1               0
GRID*                 26               0           5.5-1 4.08479276261-1*
*        6.29002925959-1               0
GRID*                 27               0         4.125-1 4.90175131514-1*
*        7.54803511151-1               0
GRID*                 28               0          2.75-1 4.08479276261-1*
*        6.29002925959-1               0
GRID*                 29               0         4.125-1 3.26783421009-1*
*        5.03202340767-1               0
GRID*                 30               0         4.125-1 4.08479276261-1*
*        6.29002925959-1               0
GRID*                 31               0           5.5-1 5.71870986766-1*
*        8.80604096343-1               0
GRID*                 32               0         4.125-1 6.53566842018-1*
*        1.00640468153+0               0
GRID*                 33               0          2.75-1 5.71870986766-1*
*        8.80604096343-1               0
GRID*                 34               0         4.125-1 5.71870986766-1*
*        8.80604096343-1               0
GRID*                 35               0         1.375-1 6.53566842018-1*
*        1.00640468153+0               0
GRID*                 36               0           0.0+0 5.71870986766-1*
*        8.80604096343-1               0
GRID*                 37               0         1.375-1 4.90175131514-1*
*        7.54803511151-1               0
GRID*                 38               0         1.375-1 5.71870986766-1*
*        8.80604096343-1               0
GRID*                 39               0           0.0+0 4.08479276261-1*
*        6.29002925959-1               0
GRID*                 40               0         1.375-1 3.26783421009-1*
*        5.03202340767-1               0
GRID*                 41               0         1.375-1 4.08479276261-1*
*        6.29002925959-1               0
GRID*                 42               0           5.5-1 8.16958552523-2*
*        1.25800585192-1               0
GRID*                 43               0         4.125-1 1.63391710505-1*
*        2.51601170384-1               0
GRID*                 44               0          2.75-1 8.16958552523-2*
*        1.25800585192-1               0
GRID          45       0 4.125-1   0.0+0   0.0+0       0
GRID*                 46               0         4.125-1 8.16958552523-2*
*        1.25800585192-1               0
GRID*                 47               0           5.5-1 2.45087565757-1*
*        3.77401755575-1               0
GRID*                 48               0          2.75-1 2.45087565757-1*
*        3.77401755575-1               0
GRID*                 49               0         4.125-1 2.45087565757-1*
*        3.77401755575-1               0
GRID*                 50               0           0.0+0 2.45087565757-1*
*        3.77401755575-1               0
GRID*                 51               0         1.375-1 1.63391710505-1*
*        2.51601170384-1               0
GRID*                 52               0         1.375-1 2.45087565757-1*
*        3.77401755575-1               0
GRID*                 53               0           0.0+0 8.16958552523-2*
*        1.25800585192-1               0
GRID          54       0 1.375-1   0.0+0   0.0+0       0
GRID*                 55               0         1.375-1 8.16958552523-2*
*        1.25800585192-1               0
GRID*                 56               0           1.1+0 8.16958552523-2*
*        1.25800585192-1               0
GRID*                 57               0         9.625-1 1.63391710505-1*
*        2.51601170384-1               0
GRID*                 58               0          8.25-1 8.16958552523-2*
*        1.25800585192-1               0
GRID          59       0 9.625-1   0.0+0   0.0+0       0
GRID*                 60               0         9.625-1 8.16958552523-2*
*        1.25800585192-1               0
GRID*                 61               0           1.1+0 2.45087565757-1*
*        3.77401755575-1               0
GRID*                 62               0         9.625-1 3.26783421009-1*
*        5.03202340767-1               0
GRID*                 63               0          8.25-1 2.45087565757-1*
*        3.77401755575-1               0
GRID*                 64               0         9.625-1 2.45087565757-1*
*        3.77401755575-1               0
GRID*                 65               0         6.875-1 3.26783421009-1*
*        5.03202340767-1               0
GRID*                 66               0         6.875-1 1.63391710505-1*
*        2.51601170384-1               0
GRID*                 67               0         6.875-1 2.45087565757-1*
*        3.77401755575-1               0
GRID          68       0 6.875-1   0.0+0   0.0+0       0
GRID*                 69               0         6.875-1 8.16958552523-2*
*        1.25800585192-1               0
GRID*                 70               0           1.1+0 4.08479276261-1*
*        6.29002925959-1               0
GRID*                 71               0         9.625-1 4.90175131514-1*
*        7.54803511151-1               0
GRID*                 72               0          8.25-1 4.08479276261-1*
*        6.29002925959-1               0
GRID*                 73               0         9.625-1 4.08479276261-1*
*        6.29002925959-1               0
GRID*                 74               0           1.1+0 5.71870986766-1*
*        8.80604096343-1               0
GRID*                 75               0         9.625-1 6.53566842018-1*
*        1.00640468153+0               0
GRID*                 76               0          8.25-1 5.71870986766-1*
*        8.80604096343-1               0
GRID*                 77               0         9.625-1 5.71870986766-1*
*        8.80604096343-1               0
GRID*                 78               0         6.875-1 6.53566842018-1*
*        1.00640468153+0               0
GRID*                 79               0         6.875-1 4.90175131514-1*
*        7.54803511151-1               0
GRID*                 80               0         6.875-1 5.71870986766-1*
*        8.80604096343-1               0
GRID*                 81               0         6.875-1 4.08479276261-1*
*        6.29002925959-1               0
PARAM    STR_CID      -2
$--1---><--2---><--3---><--4---><--5---><--6---><--7---><--8---><--9---><--10-->
$$$$$$$$$$$$$$$$$$$$$$$$$$$$$$$$$$$ Material $$$$$$$$$$$$$$$$$$$$$$$$$$$$$$$$$$$
MAT8           1   1.0+0   3.0+0   4.0-1   2.0-1   3.3-1   6.0-1   0.0+0+
+          0.0+0   0.0+0   0.0+0
$--1---><--2---><--3---><--4---><--5---><--6---><--7---><--8---><--9---><--10-->
SPC            1       1       1   0.0+0
SPC            1       1       2   0.0+0
SPC            1       1       3   0.0+0
SPC            1       1       4   0.0+0
SPC            1       1       5   0.0+0
SPC            1       1       6   0.0+0
SPC            1       2       1   0.0+0
SPC            1       2       2   0.0+0
SPC            1       2       3   0.0+0
SPC            1       2       4   0.0+0
SPC            1       2       5   0.0+0
SPC            1       2       6   0.0+0
SPC            1       8       1   0.0+0
SPC            1       8       2   0.0+0
SPC            1       8       3   0.0+0
SPC            1       8       4   0.0+0
SPC            1       8       5   0.0+0
SPC            1       8       6   0.0+0
SPC            1      13       1   0.0+0
SPC            1      13       2   0.0+0
SPC            1      13       3   0.0+0
SPC            1      13       4   0.0+0
SPC            1      13       5   0.0+0
SPC            1      13       6   0.0+0
SPC            1      17       1   0.0+0
SPC            1      17       2   0.0+0
SPC            1      17       3   0.0+0
SPC            1      17       4   0.0+0
SPC            1      17       5   0.0+0
SPC            1      17       6   0.0+0
SPC            1      45       1   0.0+0
SPC            1      45       2   0.0+0
SPC            1      45       3   0.0+0
SPC            1      45       4   0.0+0
SPC            1      45       5   0.0+0
SPC            1      45       6   0.0+0
SPC            1      54       1   0.0+0
SPC            1      54       2   0.0+0
SPC            1      54       3   0.0+0
SPC            1      54       4   0.0+0
SPC            1      54       5   0.0+0
SPC            1      54       6   0.0+0
SPC            1      59       1   0.0+0
SPC            1      59       2   0.0+0
SPC            1      59       3   0.0+0
SPC            1      59       4   0.0+0
SPC            1      59       5   0.0+0
SPC            1      59       6   0.0+0
SPC            1      68       1   0.0+0
SPC            1      68       2   0.0+0
SPC            1      68       3   0.0+0
SPC            1      68       4   0.0+0
SPC            1      68       5   0.0+0
SPC            1      68       6   0.0+0
$--1---><--2---><--3---><--4---><--5---><--6---><--7---><--8---><--9---><--10-->
$$$$$$$$$$$$$$$$$$$$$$$$$$$$$$$$$$$ Default $$$$$$$$$$$$$$$$$$$$$$$$$$$$$$$$$$$$
PSHELL         1       1   2.0-1       1               1           0.0+0
CQUAD4*                1               1               2              56*
*                     60              59-7.47666287856+1           0.0+0
CQUAD4*                2               1              56              15*
*                     57              60-7.47666287856+1           0.0+0
CQUAD4*                3               1              60              57*
*                     18              58-7.47666287856+1           0.0+0
CQUAD4*                4               1              60              58*
*                     17              59-1.64766628786+2           0.0+0
CQUAD4*                5               1              15              61*
*                     64              57-7.47666287856+1           0.0+0
CQUAD4*                6               1              57              64*
*                     63              18-7.47666287856+1           0.0+0
CQUAD4*                7               1              18              63*
*                     67              66-7.47666287856+1           0.0+0
CQUAD4*                8               1              18              66*
*                     69              58-1.64766628786+2           0.0+0
CQUAD4*                9               1              58              69*
*                     68              17-1.64766628786+2           0.0+0
CQUAD4*               10               1              61               5*
*                     62              64-7.47666287856+1           0.0+0
CQUAD4*               11               1              64              62*
*                     16              63-7.47666287856+1           0.0+0
CQUAD4*               12               1              63              16*
*                     65              67-7.47666287856+1           0.0+0
CQUAD4*               13               1              67              65*
*                      9              47-7.47666287856+1           0.0+0
CQUAD4*               14               1              67              47*
*                     10              66-1.64766628786+2           0.0+0
CQUAD4*               15               1              66              10*
*                     42              69-1.64766628786+2           0.0+0
CQUAD4*               16               1              69              42*
*                      8              68-1.64766628786+2           0.0+0
CQUAD4*               17               1               5              70*
*                     73              62-7.47666287856+1           0.0+0
CQUAD4*               18               1              62              73*
*                     72              16-7.47666287856+1           0.0+0
CQUAD4*               19               1              16              72*
*                     81              65-7.47666287856+1           0.0+0
CQUAD4*               20               1              65              81*
*                     26               9-7.47666287856+1           0.0+0
CQUAD4*               21               1               9              26*
*                     30              29-7.47666287856+1           0.0+0
CQUAD4*               22               1               9              29*
*                     49              47-1.64766628786+2           0.0+0
CQUAD4*               23               1              47              49*
*                     43              10-1.64766628786+2           0.0+0
CQUAD4*               24               1              10              43*
*                     46              42-1.64766628786+2           0.0+0
CQUAD4*               25               1              42              46*
*                     45               8-1.64766628786+2           0.0+0
CQUAD4*               26               1              70              19*
*                     71              73-7.47666287856+1           0.0+0
CQUAD4*               27               1              73              71*
*                     22              72-7.47666287856+1           0.0+0
CQUAD4*               28               1              72              22*
*                     79              81-7.47666287856+1           0.0+0
CQUAD4*               29               1              81              79*
*                     21              26-7.47666287856+1           0.0+0
CQUAD4*               30               1              26              21*
*                     27              30-7.47666287856+1           0.0+0
CQUAD4*               31               1              30              27*
*                     25              28-7.47666287856+1           0.0+0
CQUAD4*               32               1              30              28*
*                     11              29-1.64766628786+2           0.0+0
CQUAD4*               33               1              29              11*
*                     48              49-1.64766628786+2           0.0+0
CQUAD4*               34               1              49              48*
*                     14              43-1.64766628786+2           0.0+0
CQUAD4*               35               1              43              14*
*                     44              46-1.64766628786+2           0.0+0
CQUAD4*               36               1              46              44*
*                     13              45-1.64766628786+2           0.0+0
CQUAD4*               37               1              19              74*
*                     77              71-7.47666287856+1           0.0+0
CQUAD4*               38               1              71              77*
*                     76              22-7.47666287856+1           0.0+0
CQUAD4*               39               1              22              76*
*                     80              79-7.47666287856+1           0.0+0
CQUAD4*               40               1              79              80*
*                     31              21-7.47666287856+1           0.0+0
CQUAD4*               41               1              21              31*
*                     34              27-7.47666287856+1           0.0+0
CQUAD4*               42               1              27              34*
*                     33              25-7.47666287856+1           0.0+0
CQUAD4*               43               1              25              33*
*                     38              37-7.47666287856+1           0.0+0
CQUAD4*               44               1              25              37*
*                     41              28-1.64766628786+2           0.0+0
CQUAD4*               45               1              28              41*
*                     40              11-1.64766628786+2           0.0+0
CQUAD4*               46               1              11              40*
*                     52              48-1.64766628786+2           0.0+0
CQUAD4*               47               1              48              52*
*                     51              14-1.64766628786+2           0.0+0
CQUAD4*               48               1              14              51*
*                     55              44-1.64766628786+2           0.0+0
CQUAD4*               49               1              44              55*
*                     54              13-1.64766628786+2           0.0+0
CQUAD4*               50               1              74               3*
*                     75              77-7.47666287856+1           0.0+0
CQUAD4*               51               1              77              75*
*                     20              76-7.47666287856+1           0.0+0
CQUAD4*               52               1              76              20*
*                     78              80-7.47666287856+1           0.0+0
CQUAD4*               53               1              80              78*
*                      6              31-7.47666287856+1           0.0+0
CQUAD4*               54               1              31               6*
*                     32              34-7.47666287856+1           0.0+0
CQUAD4*               55               1              34              32*
*                     23              33-7.47666287856+1           0.0+0
CQUAD4*               56               1              33              23*
*                     35              38-7.47666287856+1           0.0+0
CQUAD4*               57               1              38              35*
*                      4              36-7.47666287856+1           0.0+0
CQUAD4*               58               1              38              36*
*                     24              37-1.64766628786+2           0.0+0
CQUAD4*               59               1              37              24*
*                     39              41-1.64766628786+2           0.0+0
CQUAD4*               60               1              41              39*
*                      7              40-1.64766628786+2           0.0+0
CQUAD4*               61               1              40               7*
*                     50              52-1.64766628786+2           0.0+0
CQUAD4*               62               1              52              50*
*                     12              51-1.64766628786+2           0.0+0
CQUAD4*               63               1              51              12*
*                     53              55-1.64766628786+2           0.0+0
CQUAD4*               64               1              55              53*
*                      1              54-1.64766628786+2           0.0+0
$--1---><--2---><--3---><--4---><--5---><--6---><--7---><--8---><--9---><--10-->
$$$$$$$$$$$$$$$$$$$$$$$$$$$$$$$$$$$$ force $$$$$$$$$$$$$$$$$$$$$$$$$$$$$$$$$$$$$
FORCE*                 2              32               0           1.0+0*
*                  0.0+0 8.16958552523-4 1.25800585192-3
FORCE*                 2              23               0           1.0+0*
*                  0.0+0 8.16958552523-4 1.25800585192-3
FORCE*                 2               6               0           1.0+0*
*                  0.0+0 8.16958552523-4 1.25800585192-3
FORCE*                 2              35               0           1.0+0*
*                  0.0+0 8.16958552523-4 1.25800585192-3
FORCE*                 2               4               0           1.0+0*
*                  0.0+0 4.08479276261-4 6.29002925959-4
FORCE*                 2              75               0           1.0+0*
*                  0.0+0 8.16958552523-4 1.25800585192-3
FORCE*                 2              20               0           1.0+0*
*                  0.0+0 8.16958552523-4 1.25800585192-3
FORCE*                 2              78               0           1.0+0*
*                  0.0+0 8.16958552523-4 1.25800585192-3
FORCE*                 2               3               0           1.0+0*
*                  0.0+0 4.08479276261-4 6.29002925959-4
$--1---><--2---><--3---><--4---><--5---><--6---><--7---><--8---><--9---><--10-->
LOAD           1   1.0+0   1.0+0       2
ENDDATA 
