$ Generated by Mecway 33
$-----------------------EXECUTIVE CONTROL SECTION-----------------------
SOL 101
CEND
$-------------------------CASE CONTROL SECTION--------------------------
DISPLACEMENT = ALL
SPC = 1
LOAD = 1
BEGIN BULK
$---------------------------BULK DATA SECTION---------------------------
GRID           1       0   0.0+0   0.0+0   0.0+0       0
GRID           2       0   1.0+0   0.0+0   0.0+0       0
GRID           3       0   1.0+0   1.0+0   0.0+0       0
GRID           4       0   0.0+0   1.0+0   0.0+0       0
GRID           5       0   0.0+0   0.0+0   1.0+0       0
GRID           6       0   1.0+0   0.0+0   1.0+0       0
GRID           7       0   1.0+0   1.0+0   1.0+0       0
GRID           8       0   0.0+0   1.0+0   1.0+0       0
GRID           9       0   2.0+0   0.0+0   0.0+0       0
GRID          10       0   3.0+0   0.0+0   0.0+0       0
GRID          11       0   3.0+0   1.0+0   0.0+0       0
GRID          12       0   2.0+0   1.0+0   0.0+0       0
GRID          13       0   2.0+0   0.0+0   1.0+0       0
GRID          14       0   3.0+0   0.0+0   1.0+0       0
GRID          15       0   3.0+0   1.0+0   1.0+0       0
GRID          16       0   2.0+0   1.0+0   1.0+0       0
GRID          17       0   4.0+0   0.0+0   0.0+0       0
GRID          18       0   5.0+0   0.0+0   0.0+0       0
GRID          19       0   5.0+0   1.0+0   0.0+0       0
GRID          20       0   4.0+0   1.0+0   0.0+0       0
GRID          21       0   4.0+0   0.0+0   1.0+0       0
GRID          22       0   5.0+0   0.0+0   1.0+0       0
GRID          23       0   5.0+0   1.0+0   1.0+0       0
GRID          24       0   4.0+0   1.0+0   1.0+0       0
GRID          25       0   0.0+0   2.0+0   0.0+0       0
GRID          26       0   1.0+0   2.0+0   0.0+0       0
GRID          27       0   1.0+0   3.0+0   0.0+0       0
GRID          28       0   0.0+0   3.0+0   0.0+0       0
GRID          29       0   0.0+0   2.0+0   1.0+0       0
GRID          30       0   1.0+0   2.0+0   1.0+0       0
GRID          31       0   1.0+0   3.0+0   1.0+0       0
GRID          32       0   0.0+0   3.0+0   1.0+0       0
GRID          33       0   2.0+0   2.0+0   0.0+0       0
GRID          34       0   3.0+0   2.0+0   0.0+0       0
GRID          35       0   3.0+0   3.0+0   0.0+0       0
GRID          36       0   2.0+0   3.0+0   0.0+0       0
GRID          37       0   2.0+0   2.0+0   1.0+0       0
GRID          38       0   3.0+0   2.0+0   1.0+0       0
GRID          39       0   3.0+0   3.0+0   1.0+0       0
GRID          40       0   2.0+0   3.0+0   1.0+0       0
GRID          41       0   4.0+0   2.0+0   0.0+0       0
GRID          42       0   5.0+0   2.0+0   0.0+0       0
GRID          43       0   5.0+0   3.0+0   0.0+0       0
GRID          44       0   4.0+0   3.0+0   0.0+0       0
GRID          45       0   4.0+0   2.0+0   1.0+0       0
GRID          46       0   5.0+0   2.0+0   1.0+0       0
GRID          47       0   5.0+0   3.0+0   1.0+0       0
GRID          48       0   4.0+0   3.0+0   1.0+0       0
GRID          49       0   0.0+0   4.0+0   0.0+0       0
GRID          50       0   1.0+0   4.0+0   0.0+0       0
GRID          51       0   1.0+0   5.0+0   0.0+0       0
GRID          52       0   0.0+0   5.0+0   0.0+0       0
GRID          53       0   0.0+0   4.0+0   1.0+0       0
GRID          54       0   1.0+0   4.0+0   1.0+0       0
GRID          55       0   1.0+0   5.0+0   1.0+0       0
GRID          56       0   0.0+0   5.0+0   1.0+0       0
GRID          57       0   2.0+0   4.0+0   0.0+0       0
GRID          58       0   3.0+0   4.0+0   0.0+0       0
GRID          59       0   3.0+0   5.0+0   0.0+0       0
GRID          60       0   2.0+0   5.0+0   0.0+0       0
GRID          61       0   2.0+0   4.0+0   1.0+0       0
GRID          62       0   3.0+0   4.0+0   1.0+0       0
GRID          63       0   3.0+0   5.0+0   1.0+0       0
GRID          64       0   2.0+0   5.0+0   1.0+0       0
GRID          65       0   4.0+0   4.0+0   0.0+0       0
GRID          66       0   5.0+0   4.0+0   0.0+0       0
GRID          67       0   5.0+0   5.0+0   0.0+0       0
GRID          68       0   4.0+0   5.0+0   0.0+0       0
GRID          69       0   4.0+0   4.0+0   1.0+0       0
GRID          70       0   5.0+0   4.0+0   1.0+0       0
GRID          71       0   5.0+0   5.0+0   1.0+0       0
GRID          72       0   4.0+0   5.0+0   1.0+0       0
GRID          73       0   0.0+0   6.0+0   0.0+0       0
GRID          74       0   1.0+0   6.0+0   0.0+0       0
GRID          75       0   1.0+0   7.0+0   0.0+0       0
GRID          76       0   0.0+0   7.0+0   0.0+0       0
GRID          77       0   0.0+0   6.0+0   1.0+0       0
GRID          78       0   1.0+0   6.0+0   1.0+0       0
GRID          79       0   1.0+0   7.0+0   1.0+0       0
GRID          80       0   0.0+0   7.0+0   1.0+0       0
GRID          81       0   2.0+0   6.0+0   0.0+0       0
GRID          82       0   3.0+0   6.0+0   0.0+0       0
GRID          83       0   3.0+0   7.0+0   0.0+0       0
GRID          84       0   2.0+0   7.0+0   0.0+0       0
GRID          85       0   2.0+0   6.0+0   1.0+0       0
GRID          86       0   3.0+0   6.0+0   1.0+0       0
GRID          87       0   3.0+0   7.0+0   1.0+0       0
GRID          88       0   2.0+0   7.0+0   1.0+0       0
GRID          89       0   4.0+0   6.0+0   0.0+0       0
GRID          90       0   5.0+0   6.0+0   0.0+0       0
GRID          91       0   5.0+0   7.0+0   0.0+0       0
GRID          92       0   4.0+0   7.0+0   0.0+0       0
GRID          93       0   4.0+0   6.0+0   1.0+0       0
GRID          94       0   5.0+0   6.0+0   1.0+0       0
GRID          95       0   5.0+0   7.0+0   1.0+0       0
GRID          96       0   4.0+0   7.0+0   1.0+0       0
GRID          97       0   0.0+0   8.0+0   0.0+0       0
GRID          98       0   1.0+0   8.0+0   0.0+0       0
GRID          99       0   1.0+0   9.0+0   0.0+0       0
GRID         100       0   0.0+0   9.0+0   0.0+0       0
GRID         101       0   0.0+0   8.0+0   1.0+0       0
GRID         102       0   1.0+0   8.0+0   1.0+0       0
GRID         103       0   1.0+0   9.0+0   1.0+0       0
GRID         104       0   0.0+0   9.0+0   1.0+0       0
GRID         105       0   2.0+0   8.0+0   0.0+0       0
GRID         106       0   3.0+0   8.0+0   0.0+0       0
GRID         107       0   3.0+0   9.0+0   0.0+0       0
GRID         108       0   2.0+0   9.0+0   0.0+0       0
GRID         109       0   2.0+0   8.0+0   1.0+0       0
GRID         110       0   3.0+0   8.0+0   1.0+0       0
GRID         111       0   3.0+0   9.0+0   1.0+0       0
GRID         112       0   2.0+0   9.0+0   1.0+0       0
GRID         113       0   4.0+0   8.0+0   0.0+0       0
GRID         114       0   5.0+0   8.0+0   0.0+0       0
GRID         115       0   5.0+0   9.0+0   0.0+0       0
GRID         116       0   4.0+0   9.0+0   0.0+0       0
GRID         117       0   4.0+0   8.0+0   1.0+0       0
GRID         118       0   5.0+0   8.0+0   1.0+0       0
GRID         119       0   5.0+0   9.0+0   1.0+0       0
GRID         120       0   4.0+0   9.0+0   1.0+0       0
GRID         121       0   0.0+0   1.0+1   0.0+0       0
GRID         122       0   1.0+0   1.0+1   0.0+0       0
GRID         123       0   1.0+0   1.1+1   0.0+0       0
GRID         124       0   0.0+0   1.1+1   0.0+0       0
GRID         125       0   0.0+0   1.0+1   1.0+0       0
GRID         126       0   1.0+0   1.0+1   1.0+0       0
GRID         127       0   1.0+0   1.1+1   1.0+0       0
GRID         128       0   0.0+0   1.1+1   1.0+0       0
GRID         129       0   2.0+0   1.0+1   0.0+0       0
GRID         130       0   3.0+0   1.0+1   0.0+0       0
GRID         131       0   3.0+0   1.1+1   0.0+0       0
GRID         132       0   2.0+0   1.1+1   0.0+0       0
GRID         133       0   2.0+0   1.0+1   1.0+0       0
GRID         134       0   3.0+0   1.0+1   1.0+0       0
GRID         135       0   3.0+0   1.1+1   1.0+0       0
GRID         136       0   2.0+0   1.1+1   1.0+0       0
GRID         137       0   4.0+0   1.0+1   0.0+0       0
GRID         138       0   5.0+0   1.0+1   0.0+0       0
GRID         139       0   5.0+0   1.1+1   0.0+0       0
GRID         140       0   4.0+0   1.1+1   0.0+0       0
GRID         141       0   4.0+0   1.0+1   1.0+0       0
GRID         142       0   5.0+0   1.0+1   1.0+0       0
GRID         143       0   5.0+0   1.1+1   1.0+0       0
GRID         144       0   4.0+0   1.1+1   1.0+0       0
GRID         145       0   5.0-1   2.0+0   0.0+0       0
GRID         146       0   1.0+0   2.5+0   0.0+0       0
GRID         147       0   5.0-1   3.0+0   0.0+0       0
GRID         148       0   0.0+0   2.5+0   0.0+0       0
GRID         149       0   0.0+0   2.0+0   5.0-1       0
GRID         150       0   1.0+0   2.0+0   5.0-1       0
GRID         151       0   1.0+0   3.0+0   5.0-1       0
GRID         152       0   0.0+0   3.0+0   5.0-1       0
GRID         153       0   5.0-1   2.0+0   1.0+0       0
GRID         154       0   1.0+0   2.5+0   1.0+0       0
GRID         155       0   5.0-1   3.0+0   1.0+0       0
GRID         156       0   0.0+0   2.5+0   1.0+0       0
GRID         157       0   2.5+0   2.0+0   0.0+0       0
GRID         158       0   3.0+0   2.5+0   0.0+0       0
GRID         159       0   2.5+0   3.0+0   0.0+0       0
GRID         160       0   2.0+0   2.5+0   0.0+0       0
GRID         161       0   2.0+0   2.0+0   5.0-1       0
GRID         162       0   3.0+0   2.0+0   5.0-1       0
GRID         163       0   3.0+0   3.0+0   5.0-1       0
GRID         164       0   2.0+0   3.0+0   5.0-1       0
GRID         165       0   2.5+0   2.0+0   1.0+0       0
GRID         166       0   3.0+0   2.5+0   1.0+0       0
GRID         167       0   2.5+0   3.0+0   1.0+0       0
GRID         168       0   2.0+0   2.5+0   1.0+0       0
GRID         169       0   4.5+0   2.0+0   0.0+0       0
GRID         170       0   5.0+0   2.5+0   0.0+0       0
GRID         171       0   4.5+0   3.0+0   0.0+0       0
GRID         172       0   4.0+0   2.5+0   0.0+0       0
GRID         173       0   4.0+0   2.0+0   5.0-1       0
GRID         174       0   5.0+0   2.0+0   5.0-1       0
GRID         175       0   5.0+0   3.0+0   5.0-1       0
GRID         176       0   4.0+0   3.0+0   5.0-1       0
GRID         177       0   4.5+0   2.0+0   1.0+0       0
GRID         178       0   5.0+0   2.5+0   1.0+0       0
GRID         179       0   4.5+0   3.0+0   1.0+0       0
GRID         180       0   4.0+0   2.5+0   1.0+0       0
GRID         181       0   1.0+0   6.5+0   1.0+0       0
GRID         182       0   1.0+0   7.0+0   5.0-1       0
GRID         183       0   1.0+0   6.5+0   5.0-1       0
GRID         184       0   5.0-1   6.5+0   1.0+0       0
GRID         185       0   5.0-1   7.0+0   1.0+0       0
GRID         186       0   5.0-1   7.0+0   5.0-1       0
GRID         187       0   3.0+0   6.5+0   1.0+0       0
GRID         188       0   3.0+0   7.0+0   5.0-1       0
GRID         189       0   3.0+0   6.5+0   5.0-1       0
GRID         190       0   2.5+0   6.5+0   1.0+0       0
GRID         191       0   2.5+0   7.0+0   1.0+0       0
GRID         192       0   2.5+0   7.0+0   5.0-1       0
GRID         193       0   5.0+0   6.5+0   1.0+0       0
GRID         194       0   5.0+0   7.0+0   5.0-1       0
GRID         195       0   5.0+0   6.5+0   5.0-1       0
GRID         196       0   4.5+0   6.5+0   1.0+0       0
GRID         197       0   4.5+0   7.0+0   1.0+0       0
GRID         198       0   4.5+0   7.0+0   5.0-1       0
GRID         199       0   5.0-1   6.0+0   5.0-1       0
GRID         200       0   0.0+0   6.5+0   5.0-1       0
GRID         201       0   0.0+0   6.0+0   5.0-1       0
GRID         202       0   5.0-1   6.0+0   1.0+0       0
GRID         203       0   0.0+0   6.5+0   1.0+0       0
GRID         204       0   5.0-1   6.5+0   0.0+0       0
GRID         205       0   5.0-1   7.0+0   0.0+0       0
GRID         206       0   0.0+0   6.5+0   0.0+0       0
GRID         207       0   0.0+0   7.0+0   5.0-1       0
GRID         208       0   5.0-1   6.0+0   0.0+0       0
GRID         209       0   1.0+0   6.5+0   0.0+0       0
GRID         210       0   1.0+0   6.0+0   5.0-1       0
GRID         211       0   2.5+0   6.0+0   5.0-1       0
GRID         212       0   2.0+0   6.5+0   5.0-1       0
GRID         213       0   2.0+0   6.0+0   5.0-1       0
GRID         214       0   2.5+0   6.0+0   1.0+0       0
GRID         215       0   2.0+0   6.5+0   1.0+0       0
GRID         216       0   2.5+0   6.5+0   0.0+0       0
GRID         217       0   2.5+0   7.0+0   0.0+0       0
GRID         218       0   2.0+0   6.5+0   0.0+0       0
GRID         219       0   2.0+0   7.0+0   5.0-1       0
GRID         220       0   2.5+0   6.0+0   0.0+0       0
GRID         221       0   3.0+0   6.5+0   0.0+0       0
GRID         222       0   3.0+0   6.0+0   5.0-1       0
GRID         223       0   4.5+0   6.0+0   5.0-1       0
GRID         224       0   4.0+0   6.5+0   5.0-1       0
GRID         225       0   4.0+0   6.0+0   5.0-1       0
GRID         226       0   4.5+0   6.0+0   1.0+0       0
GRID         227       0   4.0+0   6.5+0   1.0+0       0
GRID         228       0   4.5+0   6.5+0   0.0+0       0
GRID         229       0   4.5+0   7.0+0   0.0+0       0
GRID         230       0   4.0+0   6.5+0   0.0+0       0
GRID         231       0   4.0+0   7.0+0   5.0-1       0
GRID         232       0   4.5+0   6.0+0   0.0+0       0
GRID         233       0   5.0+0   6.5+0   0.0+0       0
GRID         234       0   5.0+0   6.0+0   5.0-1       0
GRID         235       0   5.0-1   1.1+1   0.0+0       0
GRID         236       0   0.0+0  1.05+1   0.0+0       0
GRID         237       0   5.0-1  1.05+1   0.0+0       0
GRID         238       0   1.0+0   1.1+1   5.0-1       0
GRID         239       0   0.0+0   1.1+1   5.0-1       0
GRID         240       0   0.0+0   1.0+1   5.0-1       0
GRID         241       0   5.0-1   1.1+1   1.0+0       0
GRID         242       0   0.0+0  1.05+1   1.0+0       0
GRID         243       0   5.0-1  1.05+1   1.0+0       0
GRID         244       0   2.5+0   1.1+1   0.0+0       0
GRID         245       0   2.0+0  1.05+1   0.0+0       0
GRID         246       0   2.5+0  1.05+1   0.0+0       0
GRID         247       0   3.0+0   1.1+1   5.0-1       0
GRID         248       0   2.0+0   1.1+1   5.0-1       0
GRID         249       0   2.0+0   1.0+1   5.0-1       0
GRID         250       0   2.5+0   1.1+1   1.0+0       0
GRID         251       0   2.0+0  1.05+1   1.0+0       0
GRID         252       0   2.5+0  1.05+1   1.0+0       0
GRID         253       0   4.5+0   1.1+1   0.0+0       0
GRID         254       0   4.0+0  1.05+1   0.0+0       0
GRID         255       0   4.5+0  1.05+1   0.0+0       0
GRID         256       0   5.0+0   1.1+1   5.0-1       0
GRID         257       0   4.0+0   1.1+1   5.0-1       0
GRID         258       0   4.0+0   1.0+1   5.0-1       0
GRID         259       0   4.5+0   1.1+1   1.0+0       0
GRID         260       0   4.0+0  1.05+1   1.0+0       0
GRID         261       0   4.5+0  1.05+1   1.0+0       0
GRID         262       0   5.0-1   1.0+1   0.0+0       0
GRID         263       0   1.0+0  1.05+1   0.0+0       0
GRID         264       0   1.0+0   1.0+1   5.0-1       0
GRID         265       0   5.0-1   1.0+1   1.0+0       0
GRID         266       0   1.0+0  1.05+1   1.0+0       0
GRID         267       0   2.5+0   1.0+1   0.0+0       0
GRID         268       0   3.0+0  1.05+1   0.0+0       0
GRID         269       0   3.0+0   1.0+1   5.0-1       0
GRID         270       0   2.5+0   1.0+1   1.0+0       0
GRID         271       0   3.0+0  1.05+1   1.0+0       0
GRID         272       0   4.5+0   1.0+1   0.0+0       0
GRID         273       0   5.0+0  1.05+1   0.0+0       0
GRID         274       0   5.0+0   1.0+1   5.0-1       0
GRID         275       0   4.5+0   1.0+1   1.0+0       0
GRID         276       0   5.0+0  1.05+1   1.0+0       0
PARAM    STR_CID      -2
$--1---><--2---><--3---><--4---><--5---><--6---><--7---><--8---><--9---><--10-->
$$$$$$$$$$$$$$$$$$$$$$$$$$$$$$$$$$$ Material $$$$$$$$$$$$$$$$$$$$$$$$$$$$$$$$$$$
MAT9*                  1 2.6642501133+11 6.2528318985+10 1.1282283643+11*
*                  0.0+0           0.0+0           0.0+0 3.2079746262+11*
*        5.7091073856+10           0.0+0           0.0+0           0.0+0*
*        2.0083824196+11           0.0+0           0.0+0           0.0+0*
*                 9.0+10           0.0+0           0.0+0          1.5+11*
*                  0.0+0          7.0+10           0.0+0           0.0+0*
*                  0.0+0           0.0+0           0.0+0           0.0+0*
*                  0.0+0           0.0+0           0.0+0
$--1---><--2---><--3---><--4---><--5---><--6---><--7---><--8---><--9---><--10-->
SPC            1       1       1   0.0+0
SPC            1       1       2   0.0+0
SPC            1       1       3   0.0+0
SPC            1       2       2   0.0+0
SPC            1       2       3   0.0+0
SPC            1       3       3   0.0+0
SPC            1       4       1   0.0+0
SPC            1       4       3   0.0+0
SPC            1       5       1   0.0+0
SPC            1       5       2   0.0+0
SPC            1       6       2   0.0+0
SPC            1       8       1   0.0+0
SPC            1       9       1   0.0+0
SPC            1       9       2   0.0+0
SPC            1       9       3   0.0+0
SPC            1      10       2   0.0+0
SPC            1      10       3   0.0+0
SPC            1      11       3   0.0+0
SPC            1      12       1   0.0+0
SPC            1      12       3   0.0+0
SPC            1      13       1   0.0+0
SPC            1      13       2   0.0+0
SPC            1      14       2   0.0+0
SPC            1      16       1   0.0+0
SPC            1      17       1   0.0+0
SPC            1      17       2   0.0+0
SPC            1      17       3   0.0+0
SPC            1      18       2   0.0+0
SPC            1      18       3   0.0+0
SPC            1      19       3   0.0+0
SPC            1      20       1   0.0+0
SPC            1      20       3   0.0+0
SPC            1      21       1   0.0+0
SPC            1      21       2   0.0+0
SPC            1      22       2   0.0+0
SPC            1      24       1   0.0+0
SPC            1      25       1   0.0+0
SPC            1      25       2   0.0+0
SPC            1      25       3   0.0+0
SPC            1      26       2   0.0+0
SPC            1      26       3   0.0+0
SPC            1      27       3   0.0+0
SPC            1      28       1   0.0+0
SPC            1      28       3   0.0+0
SPC            1      29       1   0.0+0
SPC            1      29       2   0.0+0
SPC            1      30       2   0.0+0
SPC            1      32       1   0.0+0
SPC            1      33       1   0.0+0
SPC            1      33       2   0.0+0
SPC            1      33       3   0.0+0
SPC            1      34       2   0.0+0
SPC            1      34       3   0.0+0
SPC            1      35       3   0.0+0
SPC            1      36       1   0.0+0
SPC            1      36       3   0.0+0
SPC            1      37       1   0.0+0
SPC            1      37       2   0.0+0
SPC            1      38       2   0.0+0
SPC            1      40       1   0.0+0
SPC            1      41       1   0.0+0
SPC            1      41       2   0.0+0
SPC            1      41       3   0.0+0
SPC            1      42       2   0.0+0
SPC            1      42       3   0.0+0
SPC            1      43       3   0.0+0
SPC            1      44       1   0.0+0
SPC            1      44       3   0.0+0
SPC            1      45       1   0.0+0
SPC            1      45       2   0.0+0
SPC            1      46       2   0.0+0
SPC            1      48       1   0.0+0
SPC            1      49       1   0.0+0
SPC            1      49       2   0.0+0
SPC            1      49       3   0.0+0
SPC            1      50       2   0.0+0
SPC            1      50       3   0.0+0
SPC            1      51       3   0.0+0
SPC            1      52       1   0.0+0
SPC            1      52       3   0.0+0
SPC            1      53       1   0.0+0
SPC            1      53       2   0.0+0
SPC            1      54       2   0.0+0
SPC            1      56       1   0.0+0
SPC            1      57       1   0.0+0
SPC            1      57       2   0.0+0
SPC            1      57       3   0.0+0
SPC            1      58       2   0.0+0
SPC            1      58       3   0.0+0
SPC            1      59       3   0.0+0
SPC            1      60       1   0.0+0
SPC            1      60       3   0.0+0
SPC            1      61       1   0.0+0
SPC            1      61       2   0.0+0
SPC            1      62       2   0.0+0
SPC            1      64       1   0.0+0
SPC            1      65       1   0.0+0
SPC            1      65       2   0.0+0
SPC            1      65       3   0.0+0
SPC            1      66       2   0.0+0
SPC            1      66       3   0.0+0
SPC            1      67       3   0.0+0
SPC            1      68       1   0.0+0
SPC            1      68       3   0.0+0
SPC            1      69       1   0.0+0
SPC            1      69       2   0.0+0
SPC            1      70       2   0.0+0
SPC            1      72       1   0.0+0
SPC            1      73       1   0.0+0
SPC            1      73       2   0.0+0
SPC            1      73       3   0.0+0
SPC            1      74       2   0.0+0
SPC            1      74       3   0.0+0
SPC            1      75       3   0.0+0
SPC            1      76       1   0.0+0
SPC            1      76       3   0.0+0
SPC            1      77       1   0.0+0
SPC            1      77       2   0.0+0
SPC            1      78       2   0.0+0
SPC            1      80       1   0.0+0
SPC            1      81       1   0.0+0
SPC            1      81       2   0.0+0
SPC            1      81       3   0.0+0
SPC            1      82       2   0.0+0
SPC            1      82       3   0.0+0
SPC            1      83       3   0.0+0
SPC            1      84       1   0.0+0
SPC            1      84       3   0.0+0
SPC            1      85       1   0.0+0
SPC            1      85       2   0.0+0
SPC            1      86       2   0.0+0
SPC            1      88       1   0.0+0
SPC            1      89       1   0.0+0
SPC            1      89       2   0.0+0
SPC            1      89       3   0.0+0
SPC            1      90       2   0.0+0
SPC            1      90       3   0.0+0
SPC            1      91       3   0.0+0
SPC            1      92       1   0.0+0
SPC            1      92       3   0.0+0
SPC            1      93       1   0.0+0
SPC            1      93       2   0.0+0
SPC            1      94       2   0.0+0
SPC            1      96       1   0.0+0
SPC            1      97       1   0.0+0
SPC            1      97       2   0.0+0
SPC            1      97       3   0.0+0
SPC            1      98       2   0.0+0
SPC            1      98       3   0.0+0
SPC            1      99       3   0.0+0
SPC            1     100       1   0.0+0
SPC            1     100       3   0.0+0
SPC            1     101       1   0.0+0
SPC            1     101       2   0.0+0
SPC            1     102       2   0.0+0
SPC            1     104       1   0.0+0
SPC            1     105       1   0.0+0
SPC            1     105       2   0.0+0
SPC            1     105       3   0.0+0
SPC            1     106       2   0.0+0
SPC            1     106       3   0.0+0
SPC            1     107       3   0.0+0
SPC            1     108       1   0.0+0
SPC            1     108       3   0.0+0
SPC            1     109       1   0.0+0
SPC            1     109       2   0.0+0
SPC            1     110       2   0.0+0
SPC            1     112       1   0.0+0
SPC            1     113       1   0.0+0
SPC            1     113       2   0.0+0
SPC            1     113       3   0.0+0
SPC            1     114       2   0.0+0
SPC            1     114       3   0.0+0
SPC            1     115       3   0.0+0
SPC            1     116       1   0.0+0
SPC            1     116       3   0.0+0
SPC            1     117       1   0.0+0
SPC            1     117       2   0.0+0
SPC            1     118       2   0.0+0
SPC            1     120       1   0.0+0
SPC            1     121       1   0.0+0
SPC            1     121       2   0.0+0
SPC            1     121       3   0.0+0
SPC            1     122       2   0.0+0
SPC            1     122       3   0.0+0
SPC            1     123       3   0.0+0
SPC            1     124       1   0.0+0
SPC            1     124       3   0.0+0
SPC            1     125       1   0.0+0
SPC            1     125       2   0.0+0
SPC            1     126       2   0.0+0
SPC            1     128       1   0.0+0
SPC            1     129       1   0.0+0
SPC            1     129       2   0.0+0
SPC            1     129       3   0.0+0
SPC            1     130       2   0.0+0
SPC            1     130       3   0.0+0
SPC            1     131       3   0.0+0
SPC            1     132       1   0.0+0
SPC            1     132       3   0.0+0
SPC            1     133       1   0.0+0
SPC            1     133       2   0.0+0
SPC            1     134       2   0.0+0
SPC            1     136       1   0.0+0
SPC            1     137       1   0.0+0
SPC            1     137       2   0.0+0
SPC            1     137       3   0.0+0
SPC            1     138       2   0.0+0
SPC            1     138       3   0.0+0
SPC            1     139       3   0.0+0
SPC            1     140       1   0.0+0
SPC            1     140       3   0.0+0
SPC            1     141       1   0.0+0
SPC            1     141       2   0.0+0
SPC            1     142       2   0.0+0
SPC            1     144       1   0.0+0
SPC            1     145       2   0.0+0
SPC            1     145       3   0.0+0
SPC            1     146       3   0.0+0
SPC            1     147       3   0.0+0
SPC            1     148       1   0.0+0
SPC            1     148       3   0.0+0
SPC            1     149       1   0.0+0
SPC            1     149       2   0.0+0
SPC            1     150       2   0.0+0
SPC            1     152       1   0.0+0
SPC            1     153       2   0.0+0
SPC            1     156       1   0.0+0
SPC            1     157       2   0.0+0
SPC            1     157       3   0.0+0
SPC            1     158       3   0.0+0
SPC            1     159       3   0.0+0
SPC            1     160       1   0.0+0
SPC            1     160       3   0.0+0
SPC            1     161       1   0.0+0
SPC            1     161       2   0.0+0
SPC            1     162       2   0.0+0
SPC            1     164       1   0.0+0
SPC            1     165       2   0.0+0
SPC            1     168       1   0.0+0
SPC            1     169       2   0.0+0
SPC            1     169       3   0.0+0
SPC            1     170       3   0.0+0
SPC            1     171       3   0.0+0
SPC            1     172       1   0.0+0
SPC            1     172       3   0.0+0
SPC            1     173       1   0.0+0
SPC            1     173       2   0.0+0
SPC            1     174       2   0.0+0
SPC            1     176       1   0.0+0
SPC            1     177       2   0.0+0
SPC            1     180       1   0.0+0
SPC            1     199       2   0.0+0
SPC            1     200       1   0.0+0
SPC            1     201       1   0.0+0
SPC            1     201       2   0.0+0
SPC            1     202       2   0.0+0
SPC            1     203       1   0.0+0
SPC            1     204       3   0.0+0
SPC            1     205       3   0.0+0
SPC            1     206       1   0.0+0
SPC            1     206       3   0.0+0
SPC            1     207       1   0.0+0
SPC            1     208       2   0.0+0
SPC            1     208       3   0.0+0
SPC            1     209       3   0.0+0
SPC            1     210       2   0.0+0
SPC            1     211       2   0.0+0
SPC            1     212       1   0.0+0
SPC            1     213       1   0.0+0
SPC            1     213       2   0.0+0
SPC            1     214       2   0.0+0
SPC            1     215       1   0.0+0
SPC            1     216       3   0.0+0
SPC            1     217       3   0.0+0
SPC            1     218       1   0.0+0
SPC            1     218       3   0.0+0
SPC            1     219       1   0.0+0
SPC            1     220       2   0.0+0
SPC            1     220       3   0.0+0
SPC            1     221       3   0.0+0
SPC            1     222       2   0.0+0
SPC            1     223       2   0.0+0
SPC            1     224       1   0.0+0
SPC            1     225       1   0.0+0
SPC            1     225       2   0.0+0
SPC            1     226       2   0.0+0
SPC            1     227       1   0.0+0
SPC            1     228       3   0.0+0
SPC            1     229       3   0.0+0
SPC            1     230       1   0.0+0
SPC            1     230       3   0.0+0
SPC            1     231       1   0.0+0
SPC            1     232       2   0.0+0
SPC            1     232       3   0.0+0
SPC            1     233       3   0.0+0
SPC            1     234       2   0.0+0
SPC            1     235       3   0.0+0
SPC            1     236       1   0.0+0
SPC            1     236       3   0.0+0
SPC            1     237       3   0.0+0
SPC            1     239       1   0.0+0
SPC            1     240       1   0.0+0
SPC            1     240       2   0.0+0
SPC            1     242       1   0.0+0
SPC            1     244       3   0.0+0
SPC            1     245       1   0.0+0
SPC            1     245       3   0.0+0
SPC            1     246       3   0.0+0
SPC            1     248       1   0.0+0
SPC            1     249       1   0.0+0
SPC            1     249       2   0.0+0
SPC            1     251       1   0.0+0
SPC            1     253       3   0.0+0
SPC            1     254       1   0.0+0
SPC            1     254       3   0.0+0
SPC            1     255       3   0.0+0
SPC            1     257       1   0.0+0
SPC            1     258       1   0.0+0
SPC            1     258       2   0.0+0
SPC            1     260       1   0.0+0
SPC            1     262       2   0.0+0
SPC            1     262       3   0.0+0
SPC            1     263       3   0.0+0
SPC            1     264       2   0.0+0
SPC            1     265       2   0.0+0
SPC            1     267       2   0.0+0
SPC            1     267       3   0.0+0
SPC            1     268       3   0.0+0
SPC            1     269       2   0.0+0
SPC            1     270       2   0.0+0
SPC            1     272       2   0.0+0
SPC            1     272       3   0.0+0
SPC            1     273       3   0.0+0
SPC            1     274       2   0.0+0
SPC            1     275       2   0.0+0
$--1---><--2---><--3---><--4---><--5---><--6---><--7---><--8---><--9---><--10-->
$$$$$$$$$$$$$$$$$$$$$$$$$$$$$$$$$$$ Default $$$$$$$$$$$$$$$$$$$$$$$$$$$$$$$$$$$$
PSOLID         1       1       0       2               1
CHEXA          1       1       1       2       3       4       5       6+
+              7       8
CHEXA          2       1       9      10      11      12      13      14+
+             15      16
CHEXA          3       1      17      18      19      20      21      22+
+             23      24
PSOLID         2       1       0       3               1
CHEXA          4       2      25      26      27      28      29      30+
+             31      32     145     146     147     148     149     150+
+            151     152     153     154     155     156
CHEXA          5       2      33      34      35      36      37      38+
+             39      40     157     158     159     160     161     162+
+            163     164     165     166     167     168
CHEXA          6       2      41      42      43      44      45      46+
+             47      48     169     170     171     172     173     174+
+            175     176     177     178     179     180
PSOLID         3       1       0                        
CTETRA         7       3      54      55      51      56
CTETRA         8       3      62      63      59      64
CTETRA         9       3      70      71      67      72
CTETRA        19       3      49      54      56      53
CTETRA        20       3      49      51      52      56
CTETRA        21       3      49      54      51      56
CTETRA        22       3      49      50      51      54
CTETRA        23       3      57      62      64      61
CTETRA        24       3      57      59      60      64
CTETRA        25       3      57      62      59      64
CTETRA        26       3      57      58      59      62
CTETRA        27       3      65      70      72      69
CTETRA        28       3      65      67      68      72
CTETRA        29       3      65      70      67      72
CTETRA        30       3      65      66      67      70
PSOLID         4       1       0                        
CTETRA        10       4      78      79      75      80     181     182+
+            183     184     185     186
CTETRA        11       4      86      87      83      88     187     188+
+            189     190     191     192
CTETRA        12       4      94      95      91      96     193     194+
+            195     196     197     198
CTETRA        31       4      73      78      80      77     199     184+
+            200     201     202     203
CTETRA        32       4      73      75      76      80     204     205+
+            206     200     186     207
CTETRA        33       4      73      78      75      80     199     183+
+            204     200     184     186
CTETRA        34       4      73      74      75      78     208     209+
+            204     199     210     183
CTETRA        35       4      81      86      88      85     211     190+
+            212     213     214     215
CTETRA        36       4      81      83      84      88     216     217+
+            218     212     192     219
CTETRA        37       4      81      86      83      88     211     189+
+            216     212     190     192
CTETRA        38       4      81      82      83      86     220     221+
+            216     211     222     189
CTETRA        39       4      89      94      96      93     223     196+
+            224     225     226     227
CTETRA        40       4      89      91      92      96     228     229+
+            230     224     198     231
CTETRA        41       4      89      94      91      96     223     195+
+            228     224     196     198
CTETRA        42       4      89      90      91      94     232     233+
+            228     223     234     195
PSOLID         5       1       0       2               1
CPENTA        13       5      99     100      97     103     104     101
CPENTA        14       5     107     108     105     111     112     109
CPENTA        15       5     115     116     113     119     120     117
CPENTA        43       5      97      98      99     101     102     103
CPENTA        44       5     105     106     107     109     110     111
CPENTA        45       5     113     114     115     117     118     119
PSOLID         6       1       0       3               1
CPENTA        16       6     123     124     121     127     128     125+
+            235     236     237     238     239     240     241     242+
+            243
CPENTA        17       6     131     132     129     135     136     133+
+            244     245     246     247     248     249     250     251+
+            252
CPENTA        18       6     139     140     137     143     144     141+
+            253     254     255     256     257     258     259     260+
+            261
CPENTA        46       6     121     122     123     125     126     127+
+            262     263     237     240     264     238     265     266+
+            243
CPENTA        47       6     129     130     131     133     134     135+
+            267     268     246     249     269     247     270     271+
+            252
CPENTA        48       6     137     138     139     141     142     143+
+            272     273     255     258     274     256     275     276+
+            261
$--1---><--2---><--3---><--4---><--5---><--6---><--7---><--8---><--9---><--10-->
$$$$$$$$$$$$$$$$$$$$$$$$$$$$$$$$$$$$ force $$$$$$$$$$$$$$$$$$$$$$$$$$$$$$$$$$$$$
FORCE*                 2               2               0           1.0+0*
*        4.16666666653+4           0.0+0           0.0+0
FORCE*                 2               3               0           1.0+0*
*        4.16666666653+4           0.0+0           0.0+0
FORCE*                 2               6               0           1.0+0*
*        4.16666666653+4           0.0+0           0.0+0
FORCE*                 2               7               0           1.0+0*
*        4.16666666653+4           0.0+0           0.0+0
FORCE*                 2              50               0           1.0+0*
*        2.77777777769+4           0.0+0           0.0+0
FORCE*                 2              51               0           1.0+0*
*        5.55555555537+4           0.0+0           0.0+0
FORCE*                 2              54               0           1.0+0*
*        5.55555555537+4           0.0+0           0.0+0
FORCE*                 2              98               0           1.0+0*
*        4.16666666653+4           0.0+0           0.0+0
FORCE*                 2              99               0           1.0+0*
*        4.16666666653+4           0.0+0           0.0+0
FORCE*                 2             102               0           1.0+0*
*        4.16666666653+4           0.0+0           0.0+0
FORCE*                 2             103               0           1.0+0*
*        4.16666666653+4           0.0+0           0.0+0
FORCE*                 2              78               0           1.0+0*
*       -2.60373508354-6           0.0+0           0.0+0
FORCE*                 2              79               0           1.0+0*
*        -6.5493341026-6           0.0+0           0.0+0
FORCE*                 2              75               0           1.0+0*
*       -2.60371564309-6           0.0+0           0.0+0
FORCE*                 2             181               0           1.0+0*
*        2.77777777995+4           0.0+0           0.0+0
FORCE*                 2             182               0           1.0+0*
*        2.77777777575+4           0.0+0           0.0+0
FORCE*                 2             183               0           1.0+0*
*        5.55555555989+4           0.0+0           0.0+0
FORCE*                 2             122               0           1.0+0*
*       -1.38888888884+4           0.0+0           0.0+0
FORCE*                 2             123               0           1.0+0*
*       -1.38888888884+4           0.0+0           0.0+0
FORCE*                 2             126               0           1.0+0*
*       -1.38888888884+4           0.0+0           0.0+0
FORCE*                 2             127               0           1.0+0*
*       -1.38888888884+4           0.0+0           0.0+0
FORCE*                 2             263               0           1.0+0*
*        5.55555555537+4           0.0+0           0.0+0
FORCE*                 2             264               0           1.0+0*
*        5.55555555537+4           0.0+0           0.0+0
FORCE*                 2             238               0           1.0+0*
*        5.55555555537+4           0.0+0           0.0+0
FORCE*                 2             266               0           1.0+0*
*        5.55555555537+4           0.0+0           0.0+0
FORCE*                 2              26               0           1.0+0*
*       -1.38888888884+4           0.0+0           0.0+0
FORCE*                 2              27               0           1.0+0*
*       -1.38888888884+4           0.0+0           0.0+0
FORCE*                 2              30               0           1.0+0*
*       -1.38888888884+4           0.0+0           0.0+0
FORCE*                 2              31               0           1.0+0*
*       -1.38888888884+4           0.0+0           0.0+0
FORCE*                 2             146               0           1.0+0*
*        5.55555555537+4           0.0+0           0.0+0
FORCE*                 2             150               0           1.0+0*
*        5.55555555537+4           0.0+0           0.0+0
FORCE*                 2             151               0           1.0+0*
*        5.55555555537+4           0.0+0           0.0+0
FORCE*                 2             154               0           1.0+0*
*        5.55555555537+4           0.0+0           0.0+0
FORCE*                 2              55               0           1.0+0*
*        2.77777777769+4           0.0+0           0.0+0
FORCE*                 2              74               0           1.0+0*
*       -6.54933046462-6           0.0+0           0.0+0
FORCE*                 2             209               0           1.0+0*
*        2.77777777995+4           0.0+0           0.0+0
FORCE*                 2             210               0           1.0+0*
*        2.77777777575+4           0.0+0           0.0+0
$--1---><--2---><--3---><--4---><--5---><--6---><--7---><--8---><--9---><--10-->
$$$$$$$$$$$$$$$$$$$$$$$$$$$$$$$$$$$$ force $$$$$$$$$$$$$$$$$$$$$$$$$$$$$$$$$$$$$
FORCE*                 2              11               0           1.0+0*
*                  0.0+0 4.16666666653+4           0.0+0
FORCE*                 2              12               0           1.0+0*
*                  0.0+0 4.16666666653+4           0.0+0
FORCE*                 2              15               0           1.0+0*
*                  0.0+0 4.16666666653+4           0.0+0
FORCE*                 2              16               0           1.0+0*
*                  0.0+0 4.16666666653+4           0.0+0
FORCE*                 2              59               0           1.0+0*
*                  0.0+0 5.55555555537+4           0.0+0
FORCE*                 2              60               0           1.0+0*
*                  0.0+0 2.77777777769+4           0.0+0
FORCE*                 2              64               0           1.0+0*
*                  0.0+0 5.55555555537+4           0.0+0
FORCE*                 2             107               0           1.0+0*
*                  0.0+0 4.16666666653+4           0.0+0
FORCE*                 2             108               0           1.0+0*
*                  0.0+0 4.16666666653+4           0.0+0
FORCE*                 2             111               0           1.0+0*
*                  0.0+0 4.16666666653+4           0.0+0
FORCE*                 2             112               0           1.0+0*
*                  0.0+0 4.16666666653+4           0.0+0
FORCE*                 2              87               0           1.0+0*
*                  0.0+0-6.54933228361-6           0.0+0
FORCE*                 2              83               0           1.0+0*
*                  0.0+0-2.60373360561-6           0.0+0
FORCE*                 2              88               0           1.0+0*
*                  0.0+0 -1.3098674799-5           0.0+0
FORCE*                 2             188               0           1.0+0*
*                  0.0+0 2.77777777995+4           0.0+0
FORCE*                 2             191               0           1.0+0*
*                  0.0+0 2.77777777575+4           0.0+0
FORCE*                 2             192               0           1.0+0*
*                  0.0+0 5.55555555569+4           0.0+0
FORCE*                 2             131               0           1.0+0*
*                  0.0+0-1.38888888884+4           0.0+0
FORCE*                 2             132               0           1.0+0*
*                  0.0+0-1.38888888884+4           0.0+0
FORCE*                 2             135               0           1.0+0*
*                  0.0+0-1.38888888884+4           0.0+0
FORCE*                 2             136               0           1.0+0*
*                  0.0+0-1.38888888884+4           0.0+0
FORCE*                 2             244               0           1.0+0*
*                  0.0+0 5.55555555537+4           0.0+0
FORCE*                 2             247               0           1.0+0*
*                  0.0+0 5.55555555537+4           0.0+0
FORCE*                 2             248               0           1.0+0*
*                  0.0+0 5.55555555537+4           0.0+0
FORCE*                 2             250               0           1.0+0*
*                  0.0+0 5.55555555537+4           0.0+0
FORCE*                 2              35               0           1.0+0*
*                  0.0+0-1.38888888884+4           0.0+0
FORCE*                 2              36               0           1.0+0*
*                  0.0+0-1.38888888884+4           0.0+0
FORCE*                 2              39               0           1.0+0*
*                  0.0+0-1.38888888884+4           0.0+0
FORCE*                 2              40               0           1.0+0*
*                  0.0+0-1.38888888884+4           0.0+0
FORCE*                 2             159               0           1.0+0*
*                  0.0+0 5.55555555537+4           0.0+0
FORCE*                 2             163               0           1.0+0*
*                  0.0+0 5.55555555537+4           0.0+0
FORCE*                 2             164               0           1.0+0*
*                  0.0+0 5.55555555537+4           0.0+0
FORCE*                 2             167               0           1.0+0*
*                  0.0+0 5.55555555537+4           0.0+0
FORCE*                 2              63               0           1.0+0*
*                  0.0+0 2.77777777769+4           0.0+0
FORCE*                 2              84               0           1.0+0*
*                  0.0+0  3.9456073182-6           0.0+0
FORCE*                 2             217               0           1.0+0*
*                  0.0+0 2.77777777995+4           0.0+0
FORCE*                 2             219               0           1.0+0*
*                  0.0+0 2.77777777995+4           0.0+0
$--1---><--2---><--3---><--4---><--5---><--6---><--7---><--8---><--9---><--10-->
$$$$$$$$$$$$$$$$$$$$$$$$$$$$$$$$$$$$ force $$$$$$$$$$$$$$$$$$$$$$$$$$$$$$$$$$$$$
FORCE*                 2              21               0           1.0+0*
*                  0.0+0           0.0+0 4.16666666639+4
FORCE*                 2              22               0           1.0+0*
*                  0.0+0           0.0+0 4.16666666639+4
FORCE*                 2              23               0           1.0+0*
*                  0.0+0           0.0+0 4.16666666639+4
FORCE*                 2              24               0           1.0+0*
*                  0.0+0           0.0+0 4.16666666639+4
FORCE*                 2              70               0           1.0+0*
*                  0.0+0           0.0+0 5.55555555519+4
FORCE*                 2              72               0           1.0+0*
*                  0.0+0           0.0+0 5.55555555519+4
FORCE*                 2              69               0           1.0+0*
*                  0.0+0           0.0+0 2.77777777759+4
FORCE*                 2             117               0           1.0+0*
*                  0.0+0           0.0+0 5.55555555519+4
FORCE*                 2             118               0           1.0+0*
*                  0.0+0           0.0+0 2.77777777759+4
FORCE*                 2             119               0           1.0+0*
*                  0.0+0           0.0+0 5.55555555519+4
FORCE*                 2              94               0           1.0+0*
*                  0.0+0           0.0+0-2.60372723915-6
FORCE*                 2              95               0           1.0+0*
*                  0.0+0           0.0+0-6.54931204735-6
FORCE*                 2              96               0           1.0+0*
*                  0.0+0           0.0+0-2.60371291461-6
FORCE*                 2             193               0           1.0+0*
*                  0.0+0           0.0+0 2.77777777985+4
FORCE*                 2             196               0           1.0+0*
*                  0.0+0           0.0+0 5.55555555971+4
FORCE*                 2             197               0           1.0+0*
*                  0.0+0           0.0+0 2.77777777565+4
FORCE*                 2             143               0           1.0+0*
*                  0.0+0           0.0+0-2.60369517946-6
FORCE*                 2             144               0           1.0+0*
*                  0.0+0           0.0+0 -6.5492918111-6
FORCE*                 2             141               0           1.0+0*
*                  0.0+0           0.0+0-2.60379658812-6
FORCE*                 2             259               0           1.0+0*
*                  0.0+0           0.0+0 2.77777777985+4
FORCE*                 2             260               0           1.0+0*
*                  0.0+0           0.0+0 2.77777777565+4
FORCE*                 2             261               0           1.0+0*
*                  0.0+0           0.0+0 5.55555555971+4
FORCE*                 2              45               0           1.0+0*
*                  0.0+0           0.0+0 -1.3888888888+4
FORCE*                 2              46               0           1.0+0*
*                  0.0+0           0.0+0 -1.3888888888+4
FORCE*                 2              47               0           1.0+0*
*                  0.0+0           0.0+0 -1.3888888888+4
FORCE*                 2              48               0           1.0+0*
*                  0.0+0           0.0+0 -1.3888888888+4
FORCE*                 2             177               0           1.0+0*
*                  0.0+0           0.0+0 5.55555555519+4
FORCE*                 2             178               0           1.0+0*
*                  0.0+0           0.0+0 5.55555555519+4
FORCE*                 2             179               0           1.0+0*
*                  0.0+0           0.0+0 5.55555555519+4
FORCE*                 2             180               0           1.0+0*
*                  0.0+0           0.0+0 5.55555555519+4
FORCE*                 2              71               0           1.0+0*
*                  0.0+0           0.0+0 2.77777777759+4
FORCE*                 2              93               0           1.0+0*
*                  0.0+0           0.0+0-6.54935536204-6
FORCE*                 2             226               0           1.0+0*
*                  0.0+0           0.0+0 2.77777777565+4
FORCE*                 2             227               0           1.0+0*
*                  0.0+0           0.0+0 2.77777777985+4
FORCE*                 2             120               0           1.0+0*
*                  0.0+0           0.0+0 2.77777777759+4
FORCE*                 2             142               0           1.0+0*
*                  0.0+0           0.0+0 -6.5493453576-6
FORCE*                 2             275               0           1.0+0*
*                  0.0+0           0.0+0 2.77777777985+4
FORCE*                 2             276               0           1.0+0*
*                  0.0+0           0.0+0 2.77777777565+4
$--1---><--2---><--3---><--4---><--5---><--6---><--7---><--8---><--9---><--10-->
LOAD           1   1.0+0   1.0+0       2
ENDDATA 
