$ Generated by Mecway 33
$-----------------------EXECUTIVE CONTROL SECTION-----------------------
SOL 101
CEND
$-------------------------CASE CONTROL SECTION--------------------------
DISPLACEMENT = ALL
SPC = 1
LOAD = 1
BEGIN BULK
$---------------------------BULK DATA SECTION---------------------------
GRID           1       0   0.0+0   0.0+0   2.5+0       0
GRID           2       0   0.0+0   0.0+0   0.0+0       0
GRID           3       0   1.8+1   0.0+0   2.5+0       0
GRID           4       0   1.8+1   0.0+0   0.0+0       0
GRID           5       0   3.0+0   0.0+0   2.5+0       0
GRID           6       0   3.0+0   0.0+0   0.0+0       0
GRID           7       0   1.5+1   0.0+0   2.5+0       0
GRID           8       0   1.5+1   0.0+0   0.0+0       0
GRID           9       0   6.0+0   0.0+0   2.5+0       0
GRID          10       0   6.0+0   0.0+0   0.0+0       0
GRID          11       0   2.4+1   0.0+0   0.0+0       0
GRID          12       0   2.1+1   0.0+0   2.5+0       0
GRID          13       0   9.0+0   0.0+0   2.5+0       0
GRID          14       0   9.0+0   0.0+0   0.0+0       0
GRID          15       0   2.4+1   0.0+0   2.5+0       0
GRID          16       0   2.1+1   0.0+0   0.0+0       0
GRID          17       0   1.2+1   0.0+0   2.5+0       0
GRID          18       0   1.2+1   0.0+0   0.0+0       0
PARAM    STR_CID      -2
$--1---><--2---><--3---><--4---><--5---><--6---><--7---><--8---><--9---><--10-->
$$$$$$$$$$$$$$$$$$$$$$$$$$$$$$$$$$$ Material $$$$$$$$$$$$$$$$$$$$$$$$$$$$$$$$$$$
MAT1           1  2.0+11  1.0+11   0.0+0   0.0+0   0.0+0   0.0+0
$--1---><--2---><--3---><--4---><--5---><--6---><--7---><--8---><--9---><--10-->
$$$$$$$$$$$$$$$$$$$$$$$$$$$$$$$$$ Material(2) $$$$$$$$$$$$$$$$$$$$$$$$$$$$$$$$$$
MAT1           2  2.0+11  1.0+11   0.0+0   0.0+0   0.0+0   0.0+0
$--1---><--2---><--3---><--4---><--5---><--6---><--7---><--8---><--9---><--10-->
$$$$$$$$$$$$$$$$$$$$$$$$$$$$$$$$$ Material(3) $$$$$$$$$$$$$$$$$$$$$$$$$$$$$$$$$$
MAT1           3  2.0+11  1.0+11   0.0+0   0.0+0   0.0+0   0.0+0
$--1---><--2---><--3---><--4---><--5---><--6---><--7---><--8---><--9---><--10-->
$$$$$$$$$$$$$$$$$$$$$$$$$$$$$$$$$ Material(4) $$$$$$$$$$$$$$$$$$$$$$$$$$$$$$$$$$
MAT1           4  2.0+11  1.0+11   0.0+0   0.0+0   0.0+0   0.0+0
$--1---><--2---><--3---><--4---><--5---><--6---><--7---><--8---><--9---><--10-->
$$$$$$$$$$$$$$$$$$$$$$$$$$$$$$$$$ Material(5) $$$$$$$$$$$$$$$$$$$$$$$$$$$$$$$$$$
MAT1           5  2.0+11  1.0+11   0.0+0   0.0+0   0.0+0   0.0+0
$--1---><--2---><--3---><--4---><--5---><--6---><--7---><--8---><--9---><--10-->
$$$$$$$$$$$$$$$$$$$$$$$$$$$$$$$$$ Material(6) $$$$$$$$$$$$$$$$$$$$$$$$$$$$$$$$$$
MAT1           6  2.0+11  1.0+11   0.0+0   0.0+0   0.0+0   0.0+0
$--1---><--2---><--3---><--4---><--5---><--6---><--7---><--8---><--9---><--10-->
$$$$$$$$$$$$$$$$$$$$$$$$$$$$$$$$$ Material(7) $$$$$$$$$$$$$$$$$$$$$$$$$$$$$$$$$$
MAT1           7  2.0+11  1.0+11   0.0+0   0.0+0   0.0+0   0.0+0
$--1---><--2---><--3---><--4---><--5---><--6---><--7---><--8---><--9---><--10-->
$$$$$$$$$$$$$$$$$$$$$$$$$$$$$$$$$ Material(8) $$$$$$$$$$$$$$$$$$$$$$$$$$$$$$$$$$
MAT1           8  2.0+11  1.0+11   0.0+0   0.0+0   0.0+0   0.0+0
$--1---><--2---><--3---><--4---><--5---><--6---><--7---><--8---><--9---><--10-->
$$$$$$$$$$$$$$$$$$$$$$$$$$$$$$$$$ Material(9) $$$$$$$$$$$$$$$$$$$$$$$$$$$$$$$$$$
MAT1           9  2.0+11  1.0+11   0.0+0   0.0+0   0.0+0   0.0+0
$--1---><--2---><--3---><--4---><--5---><--6---><--7---><--8---><--9---><--10-->
SPC            1       1       1   0.0+0
SPC            1       1       2   0.0+0
SPC            1       1       3   0.0+0
SPC            1       1       4   0.0+0
SPC            1       1       5   0.0+0
SPC            1       1       6   0.0+0
SPC            1       3       1   0.0+0
SPC            1       3       2   0.0+0
SPC            1       3       3   0.0+0
SPC            1       3       4   0.0+0
SPC            1       3       5   0.0+0
SPC            1       3       6   0.0+0
SPC            1       5       1   0.0+0
SPC            1       5       2   0.0+0
SPC            1       5       3   0.0+0
SPC            1       5       4   0.0+0
SPC            1       5       5   0.0+0
SPC            1       5       6   0.0+0
SPC            1       7       1   0.0+0
SPC            1       7       2   0.0+0
SPC            1       7       3   0.0+0
SPC            1       7       4   0.0+0
SPC            1       7       5   0.0+0
SPC            1       7       6   0.0+0
SPC            1       9       1   0.0+0
SPC            1       9       2   0.0+0
SPC            1       9       3   0.0+0
SPC            1       9       4   0.0+0
SPC            1       9       5   0.0+0
SPC            1       9       6   0.0+0
SPC            1      12       1   0.0+0
SPC            1      12       2   0.0+0
SPC            1      12       3   0.0+0
SPC            1      12       4   0.0+0
SPC            1      12       5   0.0+0
SPC            1      12       6   0.0+0
SPC            1      13       1   0.0+0
SPC            1      13       2   0.0+0
SPC            1      13       3   0.0+0
SPC            1      13       4   0.0+0
SPC            1      13       5   0.0+0
SPC            1      13       6   0.0+0
SPC            1      15       1   0.0+0
SPC            1      15       2   0.0+0
SPC            1      15       3   0.0+0
SPC            1      15       4   0.0+0
SPC            1      15       5   0.0+0
SPC            1      15       6   0.0+0
SPC            1      17       1   0.0+0
SPC            1      17       2   0.0+0
SPC            1      17       3   0.0+0
SPC            1      17       4   0.0+0
SPC            1      17       5   0.0+0
SPC            1      17       6   0.0+0
$--1---><--2---><--3---><--4---><--5---><--6---><--7---><--8---><--9---><--10-->
$$$$$$$$$$$$$$$$$$$$$$$$$$$$$$$$$$ Component $$$$$$$$$$$$$$$$$$$$$$$$$$$$$$$$$$$
PBARL          1       1            CHAN                                +
+          1.0-1   1.0-1   1.0-2   1.0-2
CBAR           3       1       2       1   0.0+0   1.0+0   0.0+0        
$--1---><--2---><--3---><--4---><--5---><--6---><--7---><--8---><--9---><--10-->
$$$$$$$$$$$$$$$$$$$$$$$$$$$$$$$$$ Component(1) $$$$$$$$$$$$$$$$$$$$$$$$$$$$$$$$$
PBARL          2       2               T                                +
+          1.0-1   1.1-1   1.0-2   1.0-2
CBAR           6       2       6       5   0.0+0   1.0+0   0.0+0        
$--1---><--2---><--3---><--4---><--5---><--6---><--7---><--8---><--9---><--10-->
$$$$$$$$$$$$$$$$$$$$$$$$$$$$$$$$$ Component(2) $$$$$$$$$$$$$$$$$$$$$$$$$$$$$$$$$
PBAR*                  3               3           2.9-3 1.30735254169-5*
*        1.37825619231-6 9.48354730769-8           0.0+0
CBAR           9       3      10       9   0.0+0   1.0+0   0.0+0        
$--1---><--2---><--3---><--4---><--5---><--6---><--7---><--8---><--9---><--10-->
$$$$$$$$$$$$$$$$$$$$$$$$$$$$$$$$$ Component(3) $$$$$$$$$$$$$$$$$$$$$$$$$$$$$$$$$
PBARL          4       4              I1                                +
+          9.0-2   1.0-2   1.8-1   2.0-1
CBAR           5       4      14      13   0.0+0   1.0+0   0.0+0        
$--1---><--2---><--3---><--4---><--5---><--6---><--7---><--8---><--9---><--10-->
$$$$$$$$$$$$$$$$$$$$$$$$$$$$$$$$$ Component(4) $$$$$$$$$$$$$$$$$$$$$$$$$$$$$$$$$
PBARL          5       5             BAR                                +
+          2.0-1   1.5-1   0.0+0   0.0+0
CBAR           8       5      18      17   0.0+0   1.0+0   0.0+0        
$--1---><--2---><--3---><--4---><--5---><--6---><--7---><--8---><--9---><--10-->
$$$$$$$$$$$$$$$$$$$$$$$$$$$$$$$$$ Component(5) $$$$$$$$$$$$$$$$$$$$$$$$$$$$$$$$$
PBARL          6       6             BOX                                +
+          2.0-1   3.0-1   1.0-2   1.0-2
CBAR           4       6       8       7   0.0+0   1.0+0   0.0+0        
$--1---><--2---><--3---><--4---><--5---><--6---><--7---><--8---><--9---><--10-->
$$$$$$$$$$$$$$$$$$$$$$$$$$$$$$$$$ Component(6) $$$$$$$$$$$$$$$$$$$$$$$$$$$$$$$$$
PBARL          7       7             ROD                                +
+          1.0-1   0.0+0   0.0+0   0.0+0
CBAR           7       7       4       3   0.0+0   1.0+0   0.0+0        
$--1---><--2---><--3---><--4---><--5---><--6---><--7---><--8---><--9---><--10-->
$$$$$$$$$$$$$$$$$$$$$$$$$$$$$$$$$ Component(7) $$$$$$$$$$$$$$$$$$$$$$$$$$$$$$$$$
PBARL          8       8            TUBE                                +
+          4.0-2   1.0-2   0.0+0   0.0+0
CBAR           1       8      16      12   0.0+0   1.0+0   0.0+0        
$--1---><--2---><--3---><--4---><--5---><--6---><--7---><--8---><--9---><--10-->
$$$$$$$$$$$$$$$$$$$$$$$$$$$$$$$$$ Component(8) $$$$$$$$$$$$$$$$$$$$$$$$$$$$$$$$$
PBAR*                  9               9           3.0-2           1.0-4*
*                5.625-5 1.21490661621-4           0.0+0
CBAR           2       9      11      15   0.0+0   1.0+0   0.0+0        
$--1---><--2---><--3---><--4---><--5---><--6---><--7---><--8---><--9---><--10-->
$$$$$$$$$$$$$$$$$$$$$$$$$$$$$$$$$$$$ force $$$$$$$$$$$$$$$$$$$$$$$$$$$$$$$$$$$$$
FORCE*                 2               2               0           1.0+0*
*                  0.0+0           0.0+0 6.22222222222+0
FORCE*                 2               6               0           1.0+0*
*                  0.0+0           0.0+0 6.22222222222+0
FORCE*                 2              10               0           1.0+0*
*                  0.0+0           0.0+0 6.22222222222+0
FORCE*                 2              14               0           1.0+0*
*                  0.0+0           0.0+0 6.22222222222+0
FORCE*                 2              18               0           1.0+0*
*                  0.0+0           0.0+0 6.22222222222+0
FORCE*                 2               8               0           1.0+0*
*                  0.0+0           0.0+0 6.22222222222+0
FORCE*                 2               4               0           1.0+0*
*                  0.0+0           0.0+0 6.22222222222+0
FORCE*                 2              16               0           1.0+0*
*                  0.0+0           0.0+0 6.22222222222+0
FORCE*                 2              11               0           1.0+0*
*                  0.0+0           0.0+0 6.22222222222+0
$--1---><--2---><--3---><--4---><--5---><--6---><--7---><--8---><--9---><--10-->
$$$$$$$$$$$$$$$$$$$$$$$$$$$$$$$$$$$$ moment $$$$$$$$$$$$$$$$$$$$$$$$$$$$$$$$$$$$
MOMENT         2       2       0   1.0+0   2.0+0   3.0+0   1.0+0
$--1---><--2---><--3---><--4---><--5---><--6---><--7---><--8---><--9---><--10-->
$$$$$$$$$$$$$$$$$$$$$$$$$$$$$$$$$$$$ moment $$$$$$$$$$$$$$$$$$$$$$$$$$$$$$$$$$$$
MOMENT         2       6       0   1.0+0   2.0+0   3.0+0   1.0+0
$--1---><--2---><--3---><--4---><--5---><--6---><--7---><--8---><--9---><--10-->
$$$$$$$$$$$$$$$$$$$$$$$$$$$$$$$$$$$$ moment $$$$$$$$$$$$$$$$$$$$$$$$$$$$$$$$$$$$
MOMENT         2      10       0   1.0+0   2.0+0   3.0+0   1.0+0
$--1---><--2---><--3---><--4---><--5---><--6---><--7---><--8---><--9---><--10-->
$$$$$$$$$$$$$$$$$$$$$$$$$$$$$$$$$$$$ moment $$$$$$$$$$$$$$$$$$$$$$$$$$$$$$$$$$$$
MOMENT         2      14       0   1.0+0   2.0+0   3.0+0   1.0+0
$--1---><--2---><--3---><--4---><--5---><--6---><--7---><--8---><--9---><--10-->
$$$$$$$$$$$$$$$$$$$$$$$$$$$$$$$$$$$$ moment $$$$$$$$$$$$$$$$$$$$$$$$$$$$$$$$$$$$
MOMENT         2      18       0   1.0+0   2.0+0   3.0+0   1.0+0
$--1---><--2---><--3---><--4---><--5---><--6---><--7---><--8---><--9---><--10-->
$$$$$$$$$$$$$$$$$$$$$$$$$$$$$$$$$$$$ moment $$$$$$$$$$$$$$$$$$$$$$$$$$$$$$$$$$$$
MOMENT         2       8       0   1.0+0   2.0+0   3.0+0   1.0+0
$--1---><--2---><--3---><--4---><--5---><--6---><--7---><--8---><--9---><--10-->
$$$$$$$$$$$$$$$$$$$$$$$$$$$$$$$$$$$$ moment $$$$$$$$$$$$$$$$$$$$$$$$$$$$$$$$$$$$
MOMENT         2       4       0   1.0+0   2.0+0   3.0+0   1.0+0
$--1---><--2---><--3---><--4---><--5---><--6---><--7---><--8---><--9---><--10-->
$$$$$$$$$$$$$$$$$$$$$$$$$$$$$$$$$$$$ moment $$$$$$$$$$$$$$$$$$$$$$$$$$$$$$$$$$$$
MOMENT         2      16       0   1.0+0   2.0+0   3.0+0   1.0+0
$--1---><--2---><--3---><--4---><--5---><--6---><--7---><--8---><--9---><--10-->
$$$$$$$$$$$$$$$$$$$$$$$$$$$$$$$$$$$$ moment $$$$$$$$$$$$$$$$$$$$$$$$$$$$$$$$$$$$
MOMENT         2      11       0   1.0+0   2.0+0   3.0+0   1.0+0
$--1---><--2---><--3---><--4---><--5---><--6---><--7---><--8---><--9---><--10-->
LOAD           1   1.0+0   1.0+0       2
ENDDATA 
