$ Generated by Mecway 33
$-----------------------EXECUTIVE CONTROL SECTION-----------------------
SOL 101
CEND
$-------------------------CASE CONTROL SECTION--------------------------
DISPLACEMENT = ALL
SPC = 1
LOAD = 1
BEGIN BULK
$---------------------------BULK DATA SECTION---------------------------
GRID           1       0   0.0+0   0.0+0   0.0+0       0
GRID           2       0   1.0+0   0.0+0   0.0+0       0
GRID*                  3               0           1.0+0 1.2246063538-16*
*                 -1.0+0               0
GRID*                  4               0 6.1230317691-17 1.2246063538-16*
*                 -1.0+0               0
GRID           5       0   2.0+0   0.0+0   2.0+0       0
GRID           6       0   3.0+0   0.0+0   2.0+0       0
GRID*                  7               0           3.0+0 1.2246063538-16*
*                  1.0+0               0
GRID*                  8               0           2.0+0 1.2246063538-16*
*                  1.0+0               0
GRID*                  9               0           1.0+0 6.1230317691-17*
*                 -5.0-1               0
GRID*                 10               0           5.0-1 1.2246063538-16*
*                 -1.0+0               0
GRID*                 11               0 3.0615158846-17 6.1230317691-17*
*                 -5.0-1               0
GRID          12       0   5.0-1   0.0+0   0.0+0       0
GRID*                 13               0           5.0-1 6.1230317691-17*
*                 -5.0-1               0
GRID*                 14               0-1.1102230246-16           0.0+0*
*                  1.0+0               0
GRID          15       0   0.0+0   0.0+0   2.0+0       0
GRID*                 16               0           1.0+0 1.2246063538-16*
*                  2.0+0               0
GRID*                 17               0           1.0+0 1.2246063538-16*
*                  1.0+0               0
GRID          18       0   2.0+0   0.0+0  -1.0+0       0
GRID          19       0   2.0+0   0.0+0   0.0+0       0
GRID*                 20               0           3.0+0 1.2246063538-16*
*        2.2204460493-16               0
GRID*                 21               0           3.0+0 1.2246063538-16*
*                 -1.0+0               0
GRID*                 22               0           5.0-1 6.1230317691-17*
*                  2.0+0               0
GRID*                 23               0           1.0+0 1.2246063538-16*
*                  1.5+0               0
GRID*                 24               0           5.0-1 6.1230317691-17*
*                  1.0+0               0
GRID*                 25               0-1.1102230246-16           0.0+0*
*                  1.5+0               0
GRID*                 26               0           5.0-1 6.1230317691-17*
*                  1.5+0               0
PARAM    STR_CID      -2
$--1---><--2---><--3---><--4---><--5---><--6---><--7---><--8---><--9---><--10-->
$$$$$$$$$$$$$$$$$$$$$$$$$$$$$$$$$$$ Material $$$$$$$$$$$$$$$$$$$$$$$$$$$$$$$$$$$
MAT8           1   2.0+9   3.0+9   0.0+0   1.0+5   7.0+2   5.0+2   0.0+0+
+          0.0+0   0.0+0   0.0+0
$--1---><--2---><--3---><--4---><--5---><--6---><--7---><--8---><--9---><--10-->
SPC            1       1       3   0.0+0
SPC            1       1       1   0.0+0
SPC            1       1       2   0.0+0
SPC            1       1       6   0.0+0
SPC            1       4       1   0.0+0
SPC            1       4       2   0.0+0
SPC            1       4       6   0.0+0
SPC            1       5       3   0.0+0
SPC            1       5       1   0.0+0
SPC            1       5       2   0.0+0
SPC            1       5       6   0.0+0
SPC            1       8       1   0.0+0
SPC            1       8       2   0.0+0
SPC            1       8       6   0.0+0
SPC            1      11       1   0.0+0
SPC            1      11       6   0.0+0
SPC            1      14       1   0.0+0
SPC            1      14       2   0.0+0
SPC            1      14       6   0.0+0
SPC            1      15       3   0.0+0
SPC            1      15       1   0.0+0
SPC            1      15       2   0.0+0
SPC            1      15       6   0.0+0
SPC            1      18       1   0.0+0
SPC            1      18       2   0.0+0
SPC            1      18       6   0.0+0
SPC            1      19       1   0.0+0
SPC            1      19       2   0.0+0
SPC            1      19       3   0.0+0
SPC            1      19       6   0.0+0
SPC            1      25       1   0.0+0
SPC            1      25       6   0.0+0
$--1---><--2---><--3---><--4---><--5---><--6---><--7---><--8---><--9---><--10-->
$$$$$$$$$$$$$$$$$$$$$$$$$$$$$$$$$$$ Default $$$$$$$$$$$$$$$$$$$$$$$$$$$$$$$$$$$$
PCOMP          1                                   0.0+0             SYM+
+              1   5.0-1   0.0+0        
CQUAD4         1       1      12      13      11       1       2   0.0+0
CORD2R*                2               0           0.0+0           0.0+0*
*                  0.0+0          -1.0+0           0.0+0           0.0+0*
*                  0.0+0 1.2246063538-16          -1.0+0                *
*
CQUAD4         4       1       2       9      13      12       3   0.0+0
CORD2R*                3               0           0.0+0           0.0+0*
*                  0.0+0          -1.0+0           0.0+0           0.0+0*
*                  0.0+0 1.2246063538-16          -1.0+0                *
*
CQUAD4         5       1       9       3      10      13       4   0.0+0
CORD2R*                4               0           0.0+0           0.0+0*
*                  0.0+0          -1.0+0           0.0+0           0.0+0*
*                  0.0+0 1.2246063538-16          -1.0+0                *
*
CQUAD4         6       1      13      10       4      11       5   0.0+0
CORD2R*                5               0           0.0+0           0.0+0*
*                  0.0+0          -1.0+0           0.0+0           0.0+0*
*                  0.0+0 1.2246063538-16          -1.0+0                *
*
CQUAD4         7       1      25      26      24      14       6   0.0+0
CORD2R*                6               0           0.0+0           0.0+0*
*                  0.0+0-1.2246063538-16           1.0+0           0.0+0*
*                  1.0+0 1.2246063538-16           0.0+0                *
*
CQUAD4        10       1      15      22      26      25       7   0.0+0
CORD2R*                7               0           0.0+0           0.0+0*
*                  0.0+0-1.2246063538-16           1.0+0           0.0+0*
*                  1.0+0 1.2246063538-16           0.0+0                *
*
CQUAD4        11       1      22      16      23      26       8   0.0+0
CORD2R*                8               0           0.0+0           0.0+0*
*                  0.0+0-1.2246063538-16           1.0+0           0.0+0*
*                  1.0+0 1.2246063538-16           0.0+0                *
*
CQUAD4        12       1      26      23      17      24       9   0.0+0
CORD2R*                9               0           0.0+0           0.0+0*
*                  0.0+0-1.2246063538-16           1.0+0           0.0+0*
*                  1.0+0 1.2246063538-16           0.0+0                *
*
PCOMP         10                                   0.0+0             SYM+
+              1   5.0-1   0.0+0        
CTRIA3         2      10       7       8       5      11   0.0+0
CORD2R        11       0   0.0+0   0.0+0   0.0+0   0.0+0  -1.0+0   0.0+0+
+         -1.0+0   0.0+0   0.0+0
CTRIA3         3      10       5       6       7      12   0.0+0
CORD2R        12       0   0.0+0   0.0+0   0.0+0   0.0+0   1.0+0   0.0+0+
+          1.0+0   0.0+0   0.0+0
CTRIA3         8      10      20      21      18      13   0.0+0
CORD2R        13       0   0.0+0   0.0+0   0.0+0  -1.0+0   0.0+0   0.0+0+
+          0.0+0   0.0+0  -1.0+0
CTRIA3         9      10      18      19      20      14   0.0+0
CORD2R        14       0   0.0+0   0.0+0   0.0+0   1.0+0   0.0+0   0.0+0+
+          0.0+0   0.0+0   1.0+0
$--1---><--2---><--3---><--4---><--5---><--6---><--7---><--8---><--9---><--10-->
$$$$$$$$$$$$$$$$$$$$$$$$$$$$$$$$$$$$ force $$$$$$$$$$$$$$$$$$$$$$$$$$$$$$$$$$$$$
FORCE          2      16       0   1.0+0   0.0+0  1.75+2   0.0+0
FORCE          2      23       0   1.0+0   0.0+0   3.5+2   0.0+0
FORCE          2       6       0   1.0+0   0.0+0   3.5+2   0.0+0
FORCE          2       7       0   1.0+0   0.0+0   3.5+2   0.0+0
FORCE          2      17       0   1.0+0   0.0+0  1.75+2   0.0+0
FORCE          2      20       0   1.0+0   0.0+0   3.5+2   0.0+0
FORCE          2      21       0   1.0+0   0.0+0   3.5+2   0.0+0
FORCE          2       2       0   1.0+0   0.0+0  1.75+2   0.0+0
FORCE          2       9       0   1.0+0   0.0+0   3.5+2   0.0+0
FORCE          2       3       0   1.0+0   0.0+0  1.75+2   0.0+0
$--1---><--2---><--3---><--4---><--5---><--6---><--7---><--8---><--9---><--10-->
$$$$$$$$$$$$$$$$$$$$$$$$$$$$$$$$$$$$ force $$$$$$$$$$$$$$$$$$$$$$$$$$$$$$$$$$$$$
FORCE          2      18       0   1.0+0   0.0+0  -3.5+2   0.0+0
FORCE          2      19       0   1.0+0   0.0+0  -3.5+2   0.0+0
FORCE          2       8       0   1.0+0   0.0+0  -3.5+2   0.0+0
FORCE          2       5       0   1.0+0   0.0+0  -3.5+2   0.0+0
FORCE          2      11       0   1.0+0   0.0+0  -3.5+2   0.0+0
FORCE          2       1       0   1.0+0   0.0+0 -1.75+2   0.0+0
FORCE          2       4       0   1.0+0   0.0+0 -1.75+2   0.0+0
FORCE          2      25       0   1.0+0   0.0+0  -3.5+2   0.0+0
FORCE          2      14       0   1.0+0   0.0+0 -1.75+2   0.0+0
FORCE          2      15       0   1.0+0   0.0+0 -1.75+2   0.0+0
$--1---><--2---><--3---><--4---><--5---><--6---><--7---><--8---><--9---><--10-->
LOAD           1   1.0+0   1.0+0       2
ENDDATA 
