$ Generated by Mecway 33
$-----------------------EXECUTIVE CONTROL SECTION-----------------------
SOL 101
CEND
$-------------------------CASE CONTROL SECTION--------------------------
DISPLACEMENT = ALL
SPCFORCES = ALL
MPCFORCES = ALL
SPC = 1
LOAD = 1
BEGIN BULK
$---------------------------BULK DATA SECTION---------------------------
GRID*                  1               0-1.41421356237+0           0.0+0*
*        1.41421356237+0               1
GRID*                  2               0-7.07106781187-1           0.0+0*
*        7.07106781187-1               2
GRID*                  3               0-7.07106781187-1           1.0+0*
*        7.07106781187-1               2
GRID*                  4               0-1.41421356237+0           1.0+0*
*        1.41421356237+0               0
GRID*                  5               0-7.07106781187-1           0.0+0*
*        2.12132034356+0               1
GRID*                  6               0           0.0+0           0.0+0*
*        1.41421356237+0               0
GRID*                  7               0           0.0+0           1.0+0*
*        1.41421356237+0               0
GRID*                  8               0-7.07106781187-1           1.0+0*
*        2.12132034356+0               1
GRID*                  9               0 3.88908729653+0           0.0+0*
*       -2.47487373415+0               0
GRID*                 10               0 4.24264068712+0           5.0-1*
*       -2.82842712475+0               0
GRID*                 11               0 3.88908729653+0           1.0+0*
*       -2.47487373415+0               0
GRID*                 12               0 3.53553390593+0           5.0-1*
*       -2.12132034356+0               1
GRID*                 13               0 4.24264068712+0           1.0+0*
*       -4.24264068712+0               0
GRID*                 14               0 4.94974746831+0           1.0+0*
*       -4.94974746831+0               3
GRID*                 15               0 5.65685424949+0           1.0+0*
*       -4.24264068712+0               0
GRID*                 16               0 4.94974746831+0           1.0+0*
*       -3.53553390593+0               1
GRID*                 17               0 4.24264068712+0           0.0+0*
*       -4.24264068712+0               4
GRID*                 18               0 4.94974746831+0           0.0+0*
*       -4.94974746831+0               3
GRID*                 19               0 5.65685424949+0           0.0+0*
*       -4.24264068712+0               0
GRID*                 20               0 4.94974746831+0           0.0+0*
*       -3.53553390593+0               1
GRID          21       0   0.0+0   1.0+0   0.0+0       0
GRID*                 22               0 7.07106781187-1           1.0+0*
*       -7.07106781187-1               4
GRID*                 23               0 1.41421356237+0           1.0+0*
*        8.6592745707-17               0
GRID*                 24               0 7.07106781187-1           1.0+0*
*        7.07106781187-1               4
GRID*                 25               0 8.6592745707-17           0.0+0*
*        8.6592745707-17               4
GRID*                 26               0 7.07106781187-1           0.0+0*
*       -7.07106781187-1               4
GRID*                 27               0 1.41421356237+0           0.0+0*
*        8.6592745707-17               0
GRID*                 28               0 7.07106781187-1           0.0+0*
*        7.07106781187-1               4
GRID*                 29               0 2.82842712475+0           0.0+0*
*       -2.82842712475+0               1
GRID*                 30               0 3.53553390593+0           0.0+0*
*       -3.53553390593+0               1
GRID*                 31               0 3.53553390593+0           1.0+0*
*       -3.53553390593+0               1
GRID*                 32               0 2.82842712475+0           1.0+0*
*       -2.82842712475+0               0
GRID*                 33               0 3.53553390593+0           0.0+0*
*       -2.12132034356+0               1
GRID*                 34               0 4.24264068712+0           0.0+0*
*       -2.82842712475+0               0
GRID*                 35               0 4.24264068712+0           1.0+0*
*       -2.82842712475+0               0
GRID*                 36               0 3.53553390593+0           1.0+0*
*       -2.12132034356+0               1
GRID*                 37               0 3.18198051534+0           0.0+0*
*       -3.18198051534+0               1
GRID*                 38               0 3.53553390593+0           5.0-1*
*       -3.53553390593+0               1
GRID*                 39               0 3.18198051534+0           1.0+0*
*       -3.18198051534+0               1
GRID*                 40               0 2.82842712475+0           5.0-1*
*       -2.82842712475+0               4
GRID*                 41               0 3.18198051534+0           0.0+0*
*       -2.47487373415+0               1
GRID*                 42               0 3.88908729653+0           0.0+0*
*       -3.18198051534+0               0
GRID*                 43               0 3.88908729653+0           1.0+0*
*       -3.18198051534+0               0
GRID*                 44               0 3.18198051534+0           1.0+0*
*       -2.47487373415+0               1
GRID*                 45               0  5.3033008589+0           1.0+0*
*       -3.88908729653+0               0
GRID*                 46               0 4.59619407771+0           1.0+0*
*       -3.88908729653+0               4
GRID*                 47               0 4.94974746831+0           1.0+0*
*       -4.24264068712+0               0
GRID*                 48               0 5.65685424949+0           5.0-1*
*       -4.24264068712+0               0
GRID*                 49               0 4.94974746831+0           5.0-1*
*       -3.53553390593+0               1
GRID*                 50               0 4.24264068712+0           5.0-1*
*       -4.24264068712+0               4
GRID*                 51               0  5.3033008589+0           0.0+0*
*       -3.88908729653+0               0
GRID*                 52               0 4.59619407771+0           0.0+0*
*       -3.88908729653+0               4
GRID*                 53               0 4.94974746831+0           0.0+0*
*       -4.24264068712+0               0
GRID*                 54               0 4.59619407771+0           1.0+0*
*       -4.59619407771+0               2
GRID*                 55               0  5.3033008589+0           1.0+0*
*       -4.59619407771+0               0
GRID*                 56               0 4.94974746831+0           5.0-1*
*       -4.94974746831+0               3
GRID*                 57               0 4.59619407771+0           0.0+0*
*       -4.59619407771+0               2
GRID*                 58               0  5.3033008589+0           0.0+0*
*       -4.59619407771+0               0
GRID*                 59               0 1.41421356237+0           0.0+0*
*       -1.41421356237+0               1
GRID*                 60               0 2.12132034356+0           0.0+0*
*       -2.12132034356+0               3
GRID*                 61               0 2.12132034356+0           1.0+0*
*       -2.12132034356+0               3
GRID*                 62               0 1.41421356237+0           1.0+0*
*       -1.41421356237+0               0
GRID*                 63               0 2.12132034356+0           0.0+0*
*       -7.07106781187-1               3
GRID*                 64               0 2.82842712475+0           0.0+0*
*       -1.41421356237+0               0
GRID*                 65               0 2.82842712475+0           1.0+0*
*       -1.41421356237+0               0
GRID*                 66               0 2.12132034356+0           1.0+0*
*       -7.07106781187-1               3
GRID*                 67               0-2.82842712475+0           0.0+0*
*        2.82842712475+0               1
GRID*                 68               0-2.12132034356+0           0.0+0*
*        2.12132034356+0               1
GRID*                 69               0-2.12132034356+0           1.0+0*
*        2.12132034356+0               1
GRID*                 70               0-2.82842712475+0           1.0+0*
*        2.82842712475+0               0
GRID*                 71               0-2.12132034356+0           0.0+0*
*        3.53553390593+0               4
GRID*                 72               0-1.41421356237+0           0.0+0*
*        2.82842712475+0               0
GRID*                 73               0-1.41421356237+0           1.0+0*
*        2.82842712475+0               0
GRID*                 74               0-2.12132034356+0           1.0+0*
*        3.53553390593+0               4
GRID*                 75               0 2.82842712475+0           5.0-1*
*       -1.41421356237+0               0
GRID*                 76               0 2.47487373415+0           1.0+0*
*       -1.76776695297+0               0
GRID*                 77               0 2.47487373415+0           5.0-1*
*       -1.76776695297+0               0
GRID*                 78               0 2.47487373415+0           5.0-1*
*       -1.06066017178+0               0
GRID*                 79               0 2.47487373415+0           1.0+0*
*       -1.06066017178+0               0
GRID*                 80               0 2.12132034356+0           1.0+0*
*       -1.41421356237+0               0
GRID*                 81               0 2.12132034356+0           0.0+0*
*       -1.41421356237+0               0
GRID*                 82               0 1.76776695297+0           5.0-1*
*       -1.06066017178+0               4
GRID*                 83               0 1.76776695297+0           0.0+0*
*       -1.06066017178+0               4
GRID*                 84               0 2.47487373415+0           0.0+0*
*       -1.06066017178+0               0
GRID*                 85               0 2.12132034356+0           5.0-1*
*       -7.07106781187-1               3
GRID*                 86               0 1.76776695297+0           5.0-1*
*       -1.76776695297+0               2
GRID*                 87               0 1.76776695297+0           1.0+0*
*       -1.76776695297+0               2
GRID*                 88               0 1.41421356237+0           5.0-1*
*       -1.41421356237+0               1
GRID*                 89               0 1.76776695297+0           1.0+0*
*       -1.06066017178+0               4
GRID*                 90               0 1.76776695297+0           0.0+0*
*       -1.76776695297+0               2
GRID*                 91               0 2.12132034356+0           5.0-1*
*       -2.12132034356+0               3
GRID*                 92               0 2.47487373415+0           0.0+0*
*       -1.76776695297+0               0
PARAM    STR_CID      -2
$--1---><--2---><--3---><--4---><--5---><--6---><--7---><--8---><--9---><--10-->
$$$$$$$$$$$$$$$$$$$$$$$$$$$$$$$$$$$ Material $$$$$$$$$$$$$$$$$$$$$$$$$$$$$$$$$$$
MAT1*                  1      2.10123+11     1.050615+11           0.0+0*
*                  7.8+3           0.0+0           0.0+0
$--1---><--2---><--3---><--4---><--5---><--6---><--7---><--8---><--9---><--10-->
CORD2R*                1               0           0.0+0           0.0+0*
*                  0.0+0-7.07106781187-1           0.0+0 7.07106781187-1*
*        7.07106781187-1           0.0+0 7.07106781187-1                *
*
CORD2R*                2               0           0.0+0           0.0+0*
*                  0.0+0-7.07106781187-1           0.0+0 7.07106781187-1*
*        7.07106781187-1           0.0+0 7.07106781187-1                *
*
CORD2R*                3               0           0.0+0           0.0+0*
*                  0.0+0 7.07106781187-1           0.0+0 7.07106781187-1*
*        7.07106781187-1           0.0+0-7.07106781187-1                *
*
CORD2R*                4               0           0.0+0           0.0+0*
*                  0.0+0 7.07106781187-1           0.0+0 7.07106781187-1*
*        7.07106781187-1           0.0+0-7.07106781187-1                *
*
SPC            1       1       3   0.0+0
SPC            1       1       1   0.0+0
SPC            1       2       1   0.0+0
SPC            1       3       2   0.0+0
SPC            1       3       1   0.0+0
SPC            1       4       1   0.0+0
SPC            1       4       2   0.0+0
SPC            1       4       3   0.0+0
SPC            1       5       3   0.0+0
SPC            1       7       2   0.0+0
SPC            1       8       2   0.0+0
SPC            1       8       3   0.0+0
SPC            1      11       2   0.0+0
SPC            1      12       3   0.0+0
SPC            1      13       1   0.0+0
SPC            1      13       2   0.0+0
SPC            1      13       3   0.0+0
SPC            1      14       2   0.0+0
SPC            1      14       3   0.0+0
SPC            1      15       2   0.0+0
SPC            1      16       3   0.0+0
SPC            1      16       2   0.0+0
SPC            1      17       1   0.0+0
SPC            1      17       3   0.0+0
SPC            1      18       3   0.0+0
SPC            1      20       3   0.0+0
SPC            1      21       1   0.0+0
SPC            1      21       2   0.0+0
SPC            1      21       3   0.0+0
SPC            1      22       2   0.0+0
SPC            1      22       3   0.0+0
SPC            1      23       2   0.0+0
SPC            1      24       2   0.0+0
SPC            1      24       1   0.0+0
SPC            1      25       1   0.0+0
SPC            1      25       3   0.0+0
SPC            1      26       3   0.0+0
SPC            1      28       1   0.0+0
SPC            1      29       1   0.0+0
SPC            1      29       3   0.0+0
SPC            1      30       1   0.0+0
SPC            1      31       1   0.0+0
SPC            1      31       2   0.0+0
SPC            1      32       1   0.0+0
SPC            1      32       2   0.0+0
SPC            1      32       3   0.0+0
SPC            1      33       3   0.0+0
SPC            1      35       2   0.0+0
SPC            1      36       2   0.0+0
SPC            1      36       3   0.0+0
SPC            1      37       1   0.0+0
SPC            1      38       1   0.0+0
SPC            1      39       1   0.0+0
SPC            1      39       2   0.0+0
SPC            1      40       1   0.0+0
SPC            1      40       3   0.0+0
SPC            1      41       3   0.0+0
SPC            1      43       2   0.0+0
SPC            1      44       2   0.0+0
SPC            1      44       3   0.0+0
SPC            1      45       2   0.0+0
SPC            1      46       2   0.0+0
SPC            1      46       1   0.0+0
SPC            1      47       2   0.0+0
SPC            1      49       3   0.0+0
SPC            1      50       1   0.0+0
SPC            1      50       3   0.0+0
SPC            1      52       1   0.0+0
SPC            1      54       1   0.0+0
SPC            1      54       2   0.0+0
SPC            1      55       2   0.0+0
SPC            1      56       3   0.0+0
SPC            1      57       1   0.0+0
SPC            1      59       3   0.0+0
SPC            1      59       1   0.0+0
SPC            1      60       3   0.0+0
SPC            1      61       3   0.0+0
SPC            1      61       2   0.0+0
SPC            1      62       1   0.0+0
SPC            1      62       2   0.0+0
SPC            1      62       3   0.0+0
SPC            1      63       1   0.0+0
SPC            1      65       2   0.0+0
SPC            1      66       2   0.0+0
SPC            1      66       1   0.0+0
SPC            1      67       1   0.0+0
SPC            1      67       3   0.0+0
SPC            1      68       1   0.0+0
SPC            1      69       1   0.0+0
SPC            1      69       2   0.0+0
SPC            1      70       1   0.0+0
SPC            1      70       2   0.0+0
SPC            1      70       3   0.0+0
SPC            1      71       1   0.0+0
SPC            1      73       2   0.0+0
SPC            1      74       2   0.0+0
SPC            1      74       1   0.0+0
SPC            1      76       2   0.0+0
SPC            1      79       2   0.0+0
SPC            1      80       2   0.0+0
SPC            1      82       1   0.0+0
SPC            1      83       1   0.0+0
SPC            1      85       1   0.0+0
SPC            1      86       1   0.0+0
SPC            1      87       1   0.0+0
SPC            1      87       2   0.0+0
SPC            1      88       3   0.0+0
SPC            1      88       1   0.0+0
SPC            1      89       1   0.0+0
SPC            1      89       2   0.0+0
SPC            1      90       1   0.0+0
SPC            1      91       3   0.0+0
$--1---><--2---><--3---><--4---><--5---><--6---><--7---><--8---><--9---><--10-->
$$$$$$$$$$$$$$$$$$$$$$$$$$$$$$$$$$$ Default $$$$$$$$$$$$$$$$$$$$$$$$$$$$$$$$$$$$
PSOLID         5       1       0       2               1
CHEXA          1       5       1       2       3       4       5       6+
+              7       8
PSOLID         6       1       0       2               1
CPENTA         2       6      23      24      21      27      28      25
CPENTA         3       6      21      22      23      25      26      27
PSOLID         7       1       0       3               1
CHEXA          4       7      29      30      31      32      33      34+
+             35      36      37      38      39      40      41      42+
+             43      44       9      10      11      12
PSOLID         8       1       0       3               1
CPENTA         5       8      15      16      13      19      20      17+
+             45      46      47      48      49      50      51      52+
+             53
CPENTA         6       8      13      14      15      17      18      19+
+             54      55      47      50      56      48      57      58+
+             53
PSOLID         9       1       0                        
CTETRA         7       9      64      65      61      66      75      76+
+             77      78      79      80
CTETRA         9       9      59      64      66      63      81      78+
+             82      83      84      85
CTETRA        10       9      59      61      62      66      86      87+
+             88      82      80      89
CTETRA        11       9      59      64      61      66      81      77+
+             86      82      78      80
CTETRA        12       9      59      60      61      64      90      91+
+             86      81      92      77
PSOLID        10       1       0                        
CTETRA         8      10      72      73      69      74
CTETRA        13      10      67      72      74      71
CTETRA        14      10      67      69      70      74
CTETRA        15      10      67      72      69      74
CTETRA        16      10      67      68      69      72
$--1---><--2---><--3---><--4---><--5---><--6---><--7---><--8---><--9---><--10-->
$$$$$$$$$$$$$$$$$$$$$$$$$$$$$$$$$$$ gravity $$$$$$$$$$$$$$$$$$$$$$$$$$$$$$$$$$$$
GRAV           3       0   1.0+0   1.0+1  -5.0+0  -1.0+1
$--1---><--2---><--3---><--4---><--5---><--6---><--7---><--8---><--9---><--10-->
LOAD           1   1.0+0   1.0+0       3
ENDDATA 
