$ Generated by Mecway 33
$-----------------------EXECUTIVE CONTROL SECTION-----------------------
SOL 101
CEND
$-------------------------CASE CONTROL SECTION--------------------------
DISPLACEMENT = ALL
SPC = 1
LOAD = 1
BEGIN BULK
$---------------------------BULK DATA SECTION---------------------------
GRID           1       0   0.0+0   0.0+0   0.0+0       0
GRID*                  2               0 7.07106781187-2 7.07106781187-2*
*                  0.0+0               0
GRID*                  3               0 8.6592745707-18 1.41421356237-1*
*                  0.0+0               0
GRID*                  4               0-7.07106781187-2 7.07106781187-2*
*                  0.0+0               0
GRID*                  5               0 3.53553390593-2 3.53553390593-2*
*                  0.0+0               0
GRID*                  6               0 3.53553390593-2 1.06066017178-1*
*                  0.0+0               0
GRID*                  7               0-3.53553390593-2 1.06066017178-1*
*                  0.0+0               0
GRID*                  8               0-3.53553390593-2 3.53553390593-2*
*                  0.0+0               0
GRID*                  9               0  3.469446952-18 7.07106781187-2*
*                  0.0+0               0
GRID*                 10               0-1.76776695297-2  5.3033008589-2*
*                  0.0+0               0
GRID*                 11               0-1.76776695297-2 8.83883476483-2*
*                  0.0+0               0
GRID*                 12               0 -5.3033008589-2 8.83883476483-2*
*                  0.0+0               0
GRID*                 13               0 -5.3033008589-2  5.3033008589-2*
*                  0.0+0               0
GRID*                 14               0-3.53553390593-2 7.07106781187-2*
*                  0.0+0               0
GRID*                 15               0 1.76776695297-2 1.76776695297-2*
*                  0.0+0               0
GRID*                 16               0 1.76776695297-2  5.3033008589-2*
*                  0.0+0               0
GRID*                 17               0-1.76776695297-2 1.76776695297-2*
*                  0.0+0               0
GRID*                 18               0           0.0+0 3.53553390593-2*
*                  0.0+0               0
GRID*                 19               0 3.53553390593-2 7.07106781187-2*
*                  0.0+0               0
GRID*                 20               0 1.76776695297-2 8.83883476483-2*
*                  0.0+0               0
GRID*                 21               0 6.0643607613-18 1.06066017178-1*
*                  0.0+0               0
GRID*                 22               0-1.76776695297-2 1.23743686708-1*
*                  0.0+0               0
GRID*                 23               0 1.76776695297-2 1.23743686708-1*
*                  0.0+0               0
GRID*                 24               0  5.3033008589-2  5.3033008589-2*
*                  0.0+0               0
GRID*                 25               0  5.3033008589-2 8.83883476483-2*
*                  0.0+0               0
GRID*                 26               0-1.76776695297-2-1.76776695297-2*
*                  0.0+0               0
GRID*                 27               0-8.83883476483-2  5.3033008589-2*
*                  0.0+0               0
GRID*                 28               0 -5.3033008589-2 1.76776695297-2*
*                  0.0+0               0
GRID*                 29               0-3.53553390593-2-3.53553390593-2*
*                  0.0+0               0
GRID*                 30               0-1.06066017178-1 3.53553390593-2*
*                  0.0+0               0
GRID*                 31               0-7.07106781187-2 3.53553390593-2*
*                  0.0+0               0
GRID*                 32               0-7.07106781187-2           0.0+0*
*                  0.0+0               0
GRID*                 33               0-8.83883476483-2 1.76776695297-2*
*                  0.0+0               0
GRID*                 34               0-3.53553390593-2           0.0+0*
*                  0.0+0               0
GRID*                 35               0 -5.3033008589-2-1.76776695297-2*
*                  0.0+0               0
PARAM    STR_CID      -2
$--1---><--2---><--3---><--4---><--5---><--6---><--7---><--8---><--9---><--10-->
$$$$$$$$$$$$$$$$$$$$$$$$$$$$$$$$$$$ Material $$$$$$$$$$$$$$$$$$$$$$$$$$$$$$$$$$$
MAT1           1  1.0+11  5.0+10   0.0+0   0.0+0   0.0+0   0.0+0
$--1---><--2---><--3---><--4---><--5---><--6---><--7---><--8---><--9---><--10-->
$$$$$$$$$$$$$$$$$$$$$$$$$$$$$$$$$ Material(2) $$$$$$$$$$$$$$$$$$$$$$$$$$$$$$$$$$
MAT1           2  1.0+11  5.0+10   0.0+0   0.0+0   0.0+0   0.0+0
$--1---><--2---><--3---><--4---><--5---><--6---><--7---><--8---><--9---><--10-->
SPC            1       3       1   0.0+0
SPC            1       3       2   0.0+0
SPC            1       3       3   0.0+0
SPC            1       3       4   0.0+0
SPC            1       3       5   0.0+0
SPC            1       3       6   0.0+0
SPC            1       4       1   0.0+0
SPC            1       4       2   0.0+0
SPC            1       4       3   0.0+0
SPC            1       4       4   0.0+0
SPC            1       4       5   0.0+0
SPC            1       4       6   0.0+0
SPC            1       7       1   0.0+0
SPC            1       7       2   0.0+0
SPC            1       7       3   0.0+0
SPC            1       7       4   0.0+0
SPC            1       7       5   0.0+0
SPC            1       7       6   0.0+0
SPC            1      12       1   0.0+0
SPC            1      12       2   0.0+0
SPC            1      12       3   0.0+0
SPC            1      12       4   0.0+0
SPC            1      12       5   0.0+0
SPC            1      12       6   0.0+0
SPC            1      22       1   0.0+0
SPC            1      22       2   0.0+0
SPC            1      22       3   0.0+0
SPC            1      22       4   0.0+0
SPC            1      22       5   0.0+0
SPC            1      22       6   0.0+0
SPC            1      27       1   0.0+0
SPC            1      27       2   0.0+0
SPC            1      27       3   0.0+0
SPC            1      27       4   0.0+0
SPC            1      27       5   0.0+0
SPC            1      27       6   0.0+0
SPC            1      30       1   0.0+0
SPC            1      30       2   0.0+0
SPC            1      30       3   0.0+0
SPC            1      30       4   0.0+0
SPC            1      30       5   0.0+0
SPC            1      30       6   0.0+0
$--1---><--2---><--3---><--4---><--5---><--6---><--7---><--8---><--9---><--10-->
$$$$$$$$$$$$$$$$$$$$$$$$$$$$$$$$$$$ Default $$$$$$$$$$$$$$$$$$$$$$$$$$$$$$$$$$$$
PSHELL         1       1   1.5-2       1               1           0.0+0
CTRIA3         1       1      21      23       3   0.0+0   0.0+0
CTRIA3         2       1      21      20      23   0.0+0   0.0+0
CTRIA3         3       1       5      24      19   0.0+0   0.0+0
CTRIA3         4       1      24       2      25   0.0+0   0.0+0
CTRIA3         5       1      19      25       6   0.0+0   0.0+0
CTRIA3         6       1      19      24      25   0.0+0   0.0+0
CTRIA3        15       1       5      19      16   0.0+0   0.0+0
CTRIA3        16       1      19       6      20   0.0+0   0.0+0
CTRIA3        17       1      16      20       9   0.0+0   0.0+0
CTRIA3        18       1      16      19      20   0.0+0   0.0+0
CTRIA3        19       1       9      21      11   0.0+0   0.0+0
CTRIA3        20       1      21       3      22   0.0+0   0.0+0
CTRIA3        21       1      11      22       7   0.0+0   0.0+0
CTRIA3        22       1      11      21      22   0.0+0   0.0+0
CTRIA3        23       1       9      20      21   0.0+0   0.0+0
CTRIA3        24       1      20       6      23   0.0+0   0.0+0
PSHELL         2       1   1.5-2       1               1           0.0+0
CQUAD4         7       2       8      10      14      13   0.0+0   0.0+0
CQUAD4         8       2      10       9      11      14   0.0+0   0.0+0
CQUAD4         9       2      14      11       7      12   0.0+0   0.0+0
CQUAD4        10       2      13      14      12       4   0.0+0   0.0+0
CQUAD4        11       2       1      15      18      17   0.0+0   0.0+0
CQUAD4        12       2      15       5      16      18   0.0+0   0.0+0
CQUAD4        13       2      18      16       9      10   0.0+0   0.0+0
CQUAD4        14       2      17      18      10       8   0.0+0   0.0+0
$--1---><--2---><--3---><--4---><--5---><--6---><--7---><--8---><--9---><--10-->
$$$$$$$$$$$$$$$$$$$$$$$$$$$$$$$$$$ Component $$$$$$$$$$$$$$$$$$$$$$$$$$$$$$$$$$$
PSHELL         3       2   9.0-3       2               2           0.0+0
CQUAD4        25       3      28       8      13      31   0.0+0   0.0+0
CQUAD4        26       3      31      13       4      27   0.0+0   0.0+0
CQUAD4        27       3      26       1      17      34   0.0+0   0.0+0
CQUAD4        28       3      34      17       8      28   0.0+0   0.0+0
CQUAD4        29       3      32      28      31      33   0.0+0   0.0+0
CQUAD4        30       3      33      31      27      30   0.0+0   0.0+0
CQUAD4        31       3      29      26      34      35   0.0+0   0.0+0
CQUAD4        32       3      35      34      28      32   0.0+0   0.0+0
$--1---><--2---><--3---><--4---><--5---><--6---><--7---><--8---><--9---><--10-->
$$$$$$$$$$$$$$$$$$$$$$$$$$$$$$$$$$$$ force $$$$$$$$$$$$$$$$$$$$$$$$$$$$$$$$$$$$$
FORCE*                 2              33               0           1.0+0*
*             1.771875-1     -1.771875-1           0.0+0
FORCE*                 2              31               0           1.0+0*
*              3.54375-1      -3.54375-1           0.0+0
FORCE*                 2              27               0           1.0+0*
*             1.771875-1     -1.771875-1           0.0+0
FORCE*                 2              30               0           1.0+0*
*             8.859375-2     -8.859375-2           0.0+0
FORCE*                 2              32               0           1.0+0*
*             1.771875-1     -1.771875-1           0.0+0
FORCE*                 2              28               0           1.0+0*
*              3.54375-1      -3.54375-1           0.0+0
FORCE*                 2              35               0           1.0+0*
*             1.771875-1     -1.771875-1           0.0+0
FORCE*                 2              34               0           1.0+0*
*              3.54375-1      -3.54375-1           0.0+0
FORCE*                 2              29               0           1.0+0*
*             8.859375-2     -8.859375-2           0.0+0
FORCE*                 2              26               0           1.0+0*
*             1.771875-1     -1.771875-1           0.0+0
FORCE*                 2               1               0           1.0+0*
*             8.859375-2     -8.859375-2           0.0+0
FORCE*                 2              17               0           1.0+0*
*             1.771875-1     -1.771875-1           0.0+0
FORCE*                 2               8               0           1.0+0*
*             1.771875-1     -1.771875-1           0.0+0
FORCE*                 2              13               0           1.0+0*
*             1.771875-1     -1.771875-1           0.0+0
FORCE*                 2               4               0           1.0+0*
*             8.859375-2     -8.859375-2           0.0+0
$--1---><--2---><--3---><--4---><--5---><--6---><--7---><--8---><--9---><--10-->
$$$$$$$$$$$$$$$$$$$$$$$$$$$$$$$$$$$$ force $$$$$$$$$$$$$$$$$$$$$$$$$$$$$$$$$$$$$
FORCE*                 2              14               0           1.0+0*
*              5.90625-1      -5.90625-1           0.0+0
FORCE*                 2              11               0           1.0+0*
*              5.90625-1      -5.90625-1           0.0+0
FORCE*                 2               7               0           1.0+0*
*            2.4609375-1    -2.4609375-1           0.0+0
FORCE*                 2              12               0           1.0+0*
*             2.953125-1     -2.953125-1           0.0+0
FORCE*                 2              10               0           1.0+0*
*              5.90625-1      -5.90625-1           0.0+0
FORCE*                 2               9               0           1.0+0*
*              5.90625-1      -5.90625-1           0.0+0
FORCE*                 2               8               0           1.0+0*
*             2.953125-1     -2.953125-1           0.0+0
FORCE*                 2              13               0           1.0+0*
*             2.953125-1     -2.953125-1           0.0+0
FORCE*                 2              17               0           1.0+0*
*             2.953125-1     -2.953125-1           0.0+0
FORCE*                 2              18               0           1.0+0*
*              5.90625-1      -5.90625-1           0.0+0
FORCE*                 2               1               0           1.0+0*
*            1.4765625-1    -1.4765625-1           0.0+0
FORCE*                 2              15               0           1.0+0*
*             2.953125-1     -2.953125-1           0.0+0
FORCE*                 2               5               0           1.0+0*
*            3.4453125-1    -3.4453125-1           0.0+0
FORCE*                 2              16               0           1.0+0*
*              5.90625-1      -5.90625-1           0.0+0
FORCE*                 2              19               0           1.0+0*
*              5.90625-1      -5.90625-1           0.0+0
FORCE*                 2              20               0           1.0+0*
*              5.90625-1      -5.90625-1           0.0+0
FORCE*                 2              25               0           1.0+0*
*             2.953125-1     -2.953125-1           0.0+0
FORCE*                 2               6               0           1.0+0*
*             2.953125-1     -2.953125-1           0.0+0
FORCE*                 2              24               0           1.0+0*
*             2.953125-1     -2.953125-1           0.0+0
FORCE*                 2               2               0           1.0+0*
*              9.84375-2      -9.84375-2           0.0+0
FORCE*                 2              23               0           1.0+0*
*             2.953125-1     -2.953125-1           0.0+0
FORCE*                 2              21               0           1.0+0*
*              5.90625-1      -5.90625-1           0.0+0
FORCE*                 2              22               0           1.0+0*
*             2.953125-1     -2.953125-1           0.0+0
FORCE*                 2               3               0           1.0+0*
*              1.96875-1      -1.96875-1           0.0+0
FORCE*                 2               4               0           1.0+0*
*            1.4765625-1    -1.4765625-1           0.0+0
$--1---><--2---><--3---><--4---><--5---><--6---><--7---><--8---><--9---><--10-->
$$$$$$$$$$$$$$$$$$$$$$$$$$$$$$$$$$$ gravity $$$$$$$$$$$$$$$$$$$$$$$$$$$$$$$$$$$$
GRAV           3       0   1.0+0   9.0+0  -9.0+0   0.0+0
$--1---><--2---><--3---><--4---><--5---><--6---><--7---><--8---><--9---><--10-->
LOAD           1   1.0+0   1.0+0       2   1.0+0       3
ENDDATA 
