$ Generated by Mecway 33
$-----------------------EXECUTIVE CONTROL SECTION-----------------------
SOL 101
CEND
$-------------------------CASE CONTROL SECTION--------------------------
DISPLACEMENT = ALL
SPC = 1
TEMPERATURE = 1
BEGIN BULK
$---------------------------BULK DATA SECTION---------------------------
GRID*                  1               0 2.4492127076-16           0.0+0*
*                 -2.0+0               0
GRID*                  2               0 3.6738190615-16           0.0+0*
*                 -3.0+0               0
GRID*                  3               0 3.6738190615-16           1.0+0*
*                 -3.0+0               1
GRID*                  4               0 2.4492127076-16           1.0+0*
*                 -2.0+0               0
GRID*                  5               0 3.0615158846-16           0.0+0*
*                 -2.5+0               0
GRID*                  6               0 3.6738190615-16 4.36314374208-1*
*                 -3.0+0               0
GRID*                  7               0 2.9835260991-16           1.0+0*
*       -2.43631440401+0               0
GRID*                  8               0 2.4492127076-16 4.45412307978-1*
*                 -2.0+0               0
GRID*                  9               0 2.9111070438-16 5.72783470154-1*
*       -2.37717780471+0               0
GRID*                 10               0 2.6608172459-16 4.83825802803-1*
*       -2.17279392481+0               0
GRID*                 11               0 2.9473165714-16 7.86391735077-1*
*       -2.40674610436+0               0
GRID*                 12               0 2.7163694034-16           1.0+0*
*       -2.21815720201+0               0
GRID*                 13               0 2.4492127076-16 7.22706153989-1*
*                 -2.0+0               0
GRID*                 14               0 2.6982646395-16 7.54548944533-1*
*       -2.20337305218+0               0
GRID*                 15               0 2.7553642961-16           0.0+0*
*                -2.25+0               0
GRID*                 16               0 2.9863114642-16 2.86391735077-1*
*       -2.43858890235+0               0
GRID*                 17               0 2.4492127076-16 2.22706153989-1*
*                 -2.0+0               0
GRID*                 18               0  2.667471126-16 2.35594883561-1*
*       -2.17822740972+0               0
GRID*                 19               0  3.367667473-16 2.18157187104-1*
*                -2.75+0               0
GRID*                 20               0 3.2653833197-16  5.8036506176-1*
*       -2.66647589207+0               0
GRID*                 21               0 3.6738190615-16 7.18157187104-1*
*                 -3.0+0               0
GRID*                 22               0 3.3286725803-16           1.0+0*
*       -2.71815720201+0               0
GRID*                 23               0 3.3105678165-16 7.52274461091-1*
*       -2.70337305218+0               0
GRID*                 24               0  3.367667473-16           0.0+0*
*                -2.75+0               0
GRID*                 25               0 3.6738190615-16 2.18157187104-1*
*                 -3.0+0               0
GRID          26       0   0.0+0   0.0+0   0.0+0       0
GRID*                 27               0 1.2246063538-16           0.0+0*
*                 -1.0+0               0
GRID*                 28               0 1.2246063538-16           1.0+0*
*                 -1.0+0               1
GRID          29       0   0.0+0   1.0+0   0.0+0       0
GRID*                 30               0 6.1230317691-17           0.0+0*
*                 -5.0-1               0
GRID*                 31               0 1.2246063538-16 4.36314374208-1*
*                 -1.0+0               0
GRID*                 32               0 5.3431339142-17           1.0+0*
*       -4.36314404011-1               0
GRID*                 33               0           0.0+0 4.45412307978-1*
*                  0.0+0               0
GRID*                 34               0 4.6189433617-17 5.72783470154-1*
*       -3.77177804708-1               0
GRID*                 35               0 2.1160453822-17 4.83825802803-1*
*       -1.72793924809-1               0
GRID*                 36               0 4.9810386379-17 7.86391735077-1*
*        -4.0674610436-1               0
GRID*                 37               0 2.6715669571-17           1.0+0*
*       -2.18157202005-1               0
GRID*                 38               0           0.0+0 7.22706153989-1*
*                  0.0+0               0
GRID*                 39               0  2.490519319-17 7.54548944533-1*
*        -2.0337305218-1               0
GRID*                 40               0 3.0615158846-17           0.0+0*
*                 -2.5-1               0
GRID*                 41               0 5.3709875654-17 2.86391735077-1*
*       -4.38588902354-1               0
GRID*                 42               0           0.0+0 2.22706153989-1*
*                  0.0+0               0
GRID*                 43               0 2.1825841837-17 2.35594883561-1*
*        -1.7822740972-1               0
GRID*                 44               0 9.1845476537-17 2.18157187104-1*
*                 -7.5-1               0
GRID*                 45               0 8.1617061209-17  5.8036506176-1*
*       -6.66475892067-1               0
GRID*                 46               0 1.2246063538-16 7.18157187104-1*
*                 -1.0+0               0
GRID*                 47               0 8.7945987262-17           1.0+0*
*       -7.18157202005-1               0
GRID*                 48               0 8.6135510881-17 7.52274461091-1*
*        -7.0337305218-1               0
GRID*                 49               0 9.1845476537-17           0.0+0*
*                 -7.5-1               0
GRID*                 50               0 1.2246063538-16 2.18157187104-1*
*                 -1.0+0               0
PARAM    STR_CID      -2
$--1---><--2---><--3---><--4---><--5---><--6---><--7---><--8---><--9---><--10-->
$$$$$$$$$$$$$$$$$$$$$$$$$$$$$$$$$$$$ ortho $$$$$$$$$$$$$$$$$$$$$$$$$$$$$$$$$$$$$
MAT8*                  1          2.0+11          2.0+11           0.0+0*
*                 1.0+11          1.0+11          1.0+11           0.0+0*
*                  1.1+0           2.5+0        2.7315+2                *
*
$--1---><--2---><--3---><--4---><--5---><--6---><--7---><--8---><--9---><--10-->
CORD2R*                1               0           0.0+0           0.0+0*
*                  0.0+0           0.0+0-7.07106781187-1 7.07106781187-1*
*                  1.0+0           0.0+0           0.0+0                *
*
SPC            1       1       1   0.0+0
SPC            1       1       2   0.0+0
SPC            1       1       3   0.0+0
SPC            1       3       2   0.0+0
SPC            1       3       1   0.0+0
SPC            1       4       1   0.0+0
SPC            1      26       1   0.0+0
SPC            1      26       2   0.0+0
SPC            1      26       3   0.0+0
SPC            1      28       2   0.0+0
SPC            1      28       1   0.0+0
SPC            1      29       1   0.0+0
$--1---><--2---><--3---><--4---><--5---><--6---><--7---><--8---><--9---><--10-->
$$$$$$$$$$$$$$$$$$$$$$$$$$$$$$$$$$$ Default $$$$$$$$$$$$$$$$$$$$$$$$$$$$$$$$$$$$
PSHELL         2       1   3.0-1       1               1           0.0+0
CQUAD4*                1               2              13              14*
*                     12               4-5.38987406964+1           0.0+0
CQUAD4         2       2       1      15      18      17  -4.5+1   0.0+0
CQUAD4         3       2      15       5      16      18  -4.5+1   0.0+0
CQUAD4*                4               2              10              18*
*                     16               9 4.37460625395+1           0.0+0
CQUAD4*                5               2              17              18*
*                     10               8-4.91362129677+1           0.0+0
CQUAD4*               10               2               9              20*
*                     23              11-4.65011982935+1           0.0+0
CQUAD4*               11               2              20               6*
*                     21              23-2.16402488509+1           0.0+0
CQUAD4*               12               2              23              21*
*                      3              22-3.84388170598+1           0.0+0
CQUAD4*               17               2              16               5*
*                     24              19  3.2897316585+1           0.0+0
CQUAD4        18       2      24       2      25      19  -4.5+1   0.0+0
CQUAD4        19       2      25       6      20      19 -1.35+2   0.0+0
CQUAD4*               20               2              20               9*
*                     16              19 1.33498801707+2           0.0+0
CQUAD4*               41               2              11              23*
*                     22               7-3.84388170598+1           0.0+0
CQUAD4*               46               2               8              10*
*                     14              13-5.75334983123+1           0.0+0
CQUAD4*               47               2              14              10*
*                      9              11 5.14444445317+1           0.0+0
CQUAD4*               48               2              14              11*
*                      7              12-5.38987406964+1           0.0+0
PSHELL         3       1   3.0-1       1               1           0.0+0
CTRIA3*                6               3              42              43*
*                     35-4.91362129677+1           0.0+0
CTRIA3*                7               3              34              45*
*                     48-4.65011982935+1           0.0+0
CTRIA3*                8               3              45              31*
*                     46-2.16402488509+1           0.0+0
CTRIA3*                9               3              48              46*
*                     28-3.84388170598+1           0.0+0
CTRIA3*               13               3              36              48*
*                     47-3.84388170598+1           0.0+0
CTRIA3*               14               3              33              35*
*                     39-5.75334983123+1           0.0+0
CTRIA3*               15               3              39              35*
*                     34 5.14444445317+1           0.0+0
CTRIA3*               16               3              39              36*
*                     32-5.38987406964+1           0.0+0
CTRIA3*               21               3              36              47*
*                     32-7.94476517142+1           0.0+0
CTRIA3*               22               3              44              30*
*                     49 9.38911141097+1           0.0+0
CTRIA3        23       3      49      27      50  -4.5+1   0.0+0
CTRIA3        24       3      44      50      31  -4.5+1   0.0+0
CTRIA3        25       3      44      49      50   4.5+1   0.0+0
CTRIA3*               26               3              33              39*
*                     38-1.01660109397+2           0.0+0
CTRIA3*               27               3              39              34*
*                     36 1.28255838934+0           0.0+0
CTRIA3*               28               3              39              32*
*                     37-9.14979123974+1           0.0+0
CTRIA3*               29               3              38              37*
*                     29-9.68065771043+1           0.0+0
CTRIA3*               30               3              26              43*
*                     42-9.78925131277+1           0.0+0
CTRIA3*               31               3              40              41*
*                     43-1.01635103838+2           0.0+0
CTRIA3*               32               3              35              41*
*                     34-8.39481854437+0           0.0+0
CTRIA3*               33               3              42              35*
*                     33-1.01505706925+2           0.0+0
CTRIA3*               34               3              30              44*
*                     41-8.61088858903+1           0.0+0
CTRIA3*               35               3              44              31*
*                     45-8.61088858903+1           0.0+0
CTRIA3*               36               3              41              45*
*                     34-9.72172951616+1           0.0+0
CTRIA3*               37               3              41              44*
*                     45-3.26410080373+1           0.0+0
CTRIA3*               38               3              34              48*
*                     36-7.38220670574+1           0.0+0
CTRIA3*               39               3              45              46*
*                     48 -6.7447473893+1           0.0+0
CTRIA3*               40               3              48              28*
*                     47-8.48666652885+1           0.0+0
CTRIA3*               42               3              38              39*
*                     37-5.38987406964+1           0.0+0
CTRIA3        43       3      26      40      43  -4.5+1   0.0+0
CTRIA3        44       3      40      30      41  -4.5+1   0.0+0
CTRIA3*               45               3              35              43*
*                     41 4.37460625395+1           0.0+0
$--1---><--2---><--3---><--4---><--5---><--6---><--7---><--8---><--9---><--10-->
$$$$$$$$$$$$$$$$$$$$$$$$$$$$$$$$$ temperature $$$$$$$$$$$$$$$$$$$$$$$$$$$$$$$$$$
TEMP*                  1              13        2.7415+2                *
*
TEMP*                  1              14        2.7415+2                *
*
TEMP*                  1              12        2.7415+2                *
*
TEMP*                  1               4        2.7415+2                *
*
TEMP*                  1               1        2.7415+2                *
*
TEMP*                  1              15        2.7415+2                *
*
TEMP*                  1              18        2.7415+2                *
*
TEMP*                  1              17        2.7415+2                *
*
TEMP*                  1               5        2.7415+2                *
*
TEMP*                  1              16        2.7415+2                *
*
TEMP*                  1              10        2.7415+2                *
*
TEMP*                  1               9        2.7415+2                *
*
TEMP*                  1               8        2.7415+2                *
*
TEMP*                  1              42        2.7415+2                *
*
TEMP*                  1              43        2.7415+2                *
*
TEMP*                  1              35        2.7415+2                *
*
TEMP*                  1              34        2.7415+2                *
*
TEMP*                  1              45        2.7415+2                *
*
TEMP*                  1              48        2.7415+2                *
*
TEMP*                  1              31        2.7415+2                *
*
TEMP*                  1              46        2.7415+2                *
*
TEMP*                  1              28        2.7415+2                *
*
TEMP*                  1              20        2.7415+2                *
*
TEMP*                  1              23        2.7415+2                *
*
TEMP*                  1              11        2.7415+2                *
*
TEMP*                  1               6        2.7415+2                *
*
TEMP*                  1              21        2.7415+2                *
*
TEMP*                  1               3        2.7415+2                *
*
TEMP*                  1              22        2.7415+2                *
*
TEMP*                  1              36        2.7415+2                *
*
TEMP*                  1              47        2.7415+2                *
*
TEMP*                  1              33        2.7415+2                *
*
TEMP*                  1              39        2.7415+2                *
*
TEMP*                  1              32        2.7415+2                *
*
TEMP*                  1              24        2.7415+2                *
*
TEMP*                  1              19        2.7415+2                *
*
TEMP*                  1               2        2.7415+2                *
*
TEMP*                  1              25        2.7415+2                *
*
TEMP*                  1              44        2.7415+2                *
*
TEMP*                  1              30        2.7415+2                *
*
TEMP*                  1              49        2.7415+2                *
*
TEMP*                  1              27        2.7415+2                *
*
TEMP*                  1              50        2.7415+2                *
*
TEMP*                  1              38        2.7415+2                *
*
TEMP*                  1              37        2.7415+2                *
*
TEMP*                  1              29        2.7415+2                *
*
TEMP*                  1              26        2.7415+2                *
*
TEMP*                  1              40        2.7415+2                *
*
TEMP*                  1              41        2.7415+2                *
*
TEMP*                  1               7        2.7415+2                *
*
$--1---><--2---><--3---><--4---><--5---><--6---><--7---><--8---><--9---><--10-->
TEMPD*                 1        2.7315+2                                *
*
$--1---><--2---><--3---><--4---><--5---><--6---><--7---><--8---><--9---><--10-->
ENDDATA 
