$ Generated by Mecway 33
$-----------------------EXECUTIVE CONTROL SECTION-----------------------
SOL 101
CEND
$-------------------------CASE CONTROL SECTION--------------------------
DISPLACEMENT = ALL
SPC = 1
LOAD = 1
BEGIN BULK
$---------------------------BULK DATA SECTION---------------------------
GRID*                  1               0           5.0+0 4.3296372854-17*
*       -7.07106781187-1               0
GRID*                  2               0           6.0+0 4.3296372854-17*
*       -7.07106781187-1               0
GRID*                  3               0           6.0+0 7.07106781187-1*
*                  0.0+0               0
GRID*                  4               0           5.0+0 7.07106781187-1*
*                  0.0+0               0
GRID*                  5               0           5.0+0-7.07106781187-1*
*        8.6592745707-17               0
GRID*                  6               0           6.0+0-7.07106781187-1*
*        8.6592745707-17               0
GRID*                  7               0           6.0+0 4.3296372854-17*
*        7.07106781187-1               0
GRID*                  8               0           5.0+0 4.3296372854-17*
*        7.07106781187-1               0
GRID*                  9               0 3.53553390593+0-7.07106781187-1*
*       -3.53553390593+0               0
GRID*                 10               0 4.24264068712+0-7.07106781187-1*
*       -4.24264068712+0               0
GRID*                 11               0 3.74264068712+0 -1.483499713-15*
*       -4.74264068712+0               0
GRID*                 12               0 3.03553390593+0 4.1688331383-15*
*       -4.03553390593+0               0
GRID*                 13               0 4.03553390593+0 1.0990647211-15*
*       -3.03553390593+0               0
GRID*                 14               0 4.74264068712+0 6.2803698347-16*
*       -3.74264068712+0               0
GRID*                 15               0 4.24264068712+0 7.07106781187-1*
*       -4.24264068712+0               0
GRID*                 16               0 3.53553390593+0 7.07106781187-1*
*       -3.53553390593+0               0
GRID*                 17               0-3.03553390593+0 4.03553390593+0*
*        1.0990647211-15               0
GRID*                 18               0-3.74264068712+0 4.74264068712+0*
*        6.2803698347-16               0
GRID*                 19               0-4.24264068712+0 4.24264068712+0*
*       -7.07106781187-1               0
GRID*                 20               0-3.53553390593+0 3.53553390593+0*
*       -7.07106781187-1               0
GRID*                 21               0-3.53553390593+0 3.53553390593+0*
*        7.07106781187-1               0
GRID*                 22               0-4.24264068712+0 4.24264068712+0*
*        7.07106781187-1               0
GRID*                 23               0-4.74264068712+0 3.74264068712+0*
*        -1.483499713-15               0
GRID*                 24               0-4.03553390593+0 3.03553390593+0*
*        4.1688331383-15               0
GRID*                 25               0-4.03553390593+0-3.2267776631-15*
*       -3.03553390593+0               0
GRID*                 26               0-4.74264068712+0 5.4144423777-16*
*       -3.74264068712+0               0
GRID*                 27               0-4.24264068712+0 7.07106781187-1*
*       -4.24264068712+0               0
GRID*                 28               0-3.53553390593+0 7.07106781187-1*
*       -3.53553390593+0               0
GRID*                 29               0-3.53553390593+0-7.07106781187-1*
*       -3.53553390593+0               0
GRID*                 30               0-4.24264068712+0-7.07106781187-1*
*       -4.24264068712+0               0
GRID*                 31               0-3.74264068712+0-1.4130832128-15*
*       -4.74264068712+0               0
GRID*                 32               0-3.03553390593+0-1.8841109504-15*
*       -4.03553390593+0               0
GRID*                 33               0          -5.0+0-7.07106781187-1*
*       -2.1115366965-15               0
GRID*                 34               0          -6.0+0-7.07106781187-1*
*        -1.483499713-15               0
GRID*                 35               0          -6.0+0 1.4563795857-15*
*        7.07106781187-1               0
GRID*                 36               0          -5.0+0  2.241425815-15*
*        7.07106781187-1               0
GRID*                 37               0          -5.0+0 6.7133335633-16*
*       -7.07106781187-1               0
GRID*                 38               0          -6.0+0 4.3296372854-17*
*       -7.07106781187-1               0
GRID*                 39               0          -6.0+0 7.07106781187-1*
*                  0.0+0               0
GRID*                 40               0          -5.0+0 7.07106781187-1*
*       -7.0654160641-16               0
GRID*                 41               0-3.03553390593+0-4.0037357696-15*
*        4.03553390593+0               0
GRID*                 42               0-3.74264068712+0 1.0205600981-15*
*        4.74264068712+0               0
GRID*                 43               0-4.24264068712+0 7.07106781187-1*
*        4.24264068712+0               0
GRID*                 44               0-3.53553390593+0 7.07106781187-1*
*        3.53553390593+0               0
GRID*                 45               0-3.53553390593+0-7.07106781187-1*
*        3.53553390593+0               0
GRID*                 46               0-4.24264068712+0-7.07106781187-1*
*        4.24264068712+0               0
GRID*                 47               0-4.74264068712+0 -8.554627295-16*
*        3.74264068712+0               0
GRID*                 48               0-4.03553390593+0 -1.483499713-15*
*        3.03553390593+0               0
GRID*                 49               0 7.1462972918-16           5.0+0*
*       -7.07106781187-1               0
GRID*                 50               0 8.6592745707-17           6.0+0*
*       -7.07106781187-1               0
GRID*                 51               0-7.07106781187-1           6.0+0*
*        4.3296372854-17               0
GRID*                 52               0-7.07106781187-1           5.0+0*
*        4.3296372854-17               0
GRID*                 53               0 7.07106781187-1           5.0+0*
*       -5.8474061062-16               0
GRID*                 54               0 7.07106781187-1           6.0+0*
*        4.3296372854-17               0
GRID*                 55               0           0.0+0           6.0+0*
*        7.07106781187-1               0
GRID*                 56               0           0.0+0           5.0+0*
*        7.07106781187-1               0
GRID*                 57               0 3.53553390593+0-7.07106781187-1*
*        3.53553390593+0               0
GRID*                 58               0 4.24264068712+0-7.07106781187-1*
*        4.24264068712+0               0
GRID*                 59               0 4.74264068712+0 3.8467265238-15*
*        3.74264068712+0               0
GRID*                 60               0 4.03553390593+0  3.611212655-15*
*        3.03553390593+0               0
GRID*                 61               0 3.03553390593+0 1.1694812212-15*
*        4.03553390593+0               0
GRID*                 62               0 3.74264068712+0  8.554627295-16*
*        4.74264068712+0               0
GRID*                 63               0 4.24264068712+0 7.07106781187-1*
*        4.24264068712+0               0
GRID*                 64               0 3.53553390593+0 7.07106781187-1*
*        3.53553390593+0               0
GRID*                 65               0 4.03553390593+0 3.03553390593+0*
*        1.1694812212-15               0
GRID*                 66               0 4.74264068712+0 3.74264068712+0*
*         8.554627295-16               0
GRID*                 67               0 4.24264068712+0 4.24264068712+0*
*       -7.07106781187-1               0
GRID*                 68               0 3.53553390593+0 3.53553390593+0*
*       -7.07106781187-1               0
GRID*                 69               0 3.53553390593+0 3.53553390593+0*
*        7.07106781187-1               0
GRID*                 70               0 4.24264068712+0 4.24264068712+0*
*        7.07106781187-1               0
GRID*                 71               0 3.74264068712+0 4.74264068712+0*
*       -1.0205600981-15               0
GRID*                 72               0 3.03553390593+0 4.03553390593+0*
*       -1.4915878357-15               0
GRID          73       0   5.0+0   9.5+0  -5.0-1       0
GRID          74       0   6.0+0   9.5+0  -5.0-1       0
GRID          75       0   6.0+0  1.05+1  -5.0-1       0
GRID          76       0   5.0+0  1.05+1  -5.0-1       0
GRID          77       0   5.0+0   9.5+0   5.0-1       0
GRID          78       0   6.0+0   9.5+0   5.0-1       0
GRID          79       0   6.0+0  1.05+1   5.0-1       0
GRID          80       0   5.0+0  1.05+1   5.0-1       0
GRID*                 81               0 3.18198051534+0           9.5+0*
*       -3.88908729653+0               0
GRID*                 82               0 3.88908729653+0           9.5+0*
*       -4.59619407771+0               0
GRID*                 83               0 3.88908729653+0          1.05+1*
*       -4.59619407771+0               0
GRID*                 84               0 3.18198051534+0          1.05+1*
*       -3.88908729653+0               0
GRID*                 85               0 3.88908729653+0           9.5+0*
*       -3.18198051534+0               0
GRID*                 86               0 4.59619407771+0           9.5+0*
*       -3.88908729653+0               0
GRID*                 87               0 4.59619407771+0          1.05+1*
*       -3.88908729653+0               0
GRID*                 88               0 3.88908729653+0          1.05+1*
*       -3.18198051534+0               0
GRID*                 89               0-3.18198051534+0 1.38890872965+1*
*                 -5.0-1               0
GRID*                 90               0-3.88908729653+0 1.45961940777+1*
*                 -5.0-1               0
GRID*                 91               0-4.59619407771+0 1.38890872965+1*
*                 -5.0-1               0
GRID*                 92               0-3.88908729653+0 1.31819805153+1*
*                 -5.0-1               0
GRID*                 93               0-3.18198051534+0 1.38890872965+1*
*                  5.0-1               0
GRID*                 94               0-3.88908729653+0 1.45961940777+1*
*                  5.0-1               0
GRID*                 95               0-4.59619407771+0 1.38890872965+1*
*                  5.0-1               0
GRID*                 96               0-3.88908729653+0 1.31819805153+1*
*                  5.0-1               0
GRID*                 97               0-3.88908729653+0           9.5+0*
*       -3.18198051534+0               0
GRID*                 98               0-4.59619407771+0           9.5+0*
*       -3.88908729653+0               0
GRID*                 99               0-4.59619407771+0          1.05+1*
*       -3.88908729653+0               0
GRID*                100               0-3.88908729653+0          1.05+1*
*       -3.18198051534+0               0
GRID*                101               0-3.18198051534+0           9.5+0*
*       -3.88908729653+0               0
GRID*                102               0-3.88908729653+0           9.5+0*
*       -4.59619407771+0               0
GRID*                103               0-3.88908729653+0          1.05+1*
*       -4.59619407771+0               0
GRID*                104               0-3.18198051534+0          1.05+1*
*       -3.88908729653+0               0
GRID         105       0  -5.0+0   9.5+0   5.0-1       0
GRID         106       0  -6.0+0   9.5+0   5.0-1       0
GRID         107       0  -6.0+0  1.05+1   5.0-1       0
GRID         108       0  -5.0+0  1.05+1   5.0-1       0
GRID         109       0  -5.0+0   9.5+0  -5.0-1       0
GRID         110       0  -6.0+0   9.5+0  -5.0-1       0
GRID         111       0  -6.0+0  1.05+1  -5.0-1       0
GRID         112       0  -5.0+0  1.05+1  -5.0-1       0
GRID*                113               0-3.18198051534+0           9.5+0*
*        3.88908729653+0               0
GRID*                114               0-3.88908729653+0           9.5+0*
*        4.59619407771+0               0
GRID*                115               0-3.88908729653+0          1.05+1*
*        4.59619407771+0               0
GRID*                116               0-3.18198051534+0          1.05+1*
*        3.88908729653+0               0
GRID*                117               0-3.88908729653+0           9.5+0*
*        3.18198051534+0               0
GRID*                118               0-4.59619407771+0           9.5+0*
*        3.88908729653+0               0
GRID*                119               0-4.59619407771+0          1.05+1*
*        3.88908729653+0               0
GRID*                120               0-3.88908729653+0          1.05+1*
*        3.18198051534+0               0
GRID         121       0   5.0-1   1.5+1  -5.0-1       0
GRID         122       0   5.0-1   1.6+1  -5.0-1       0
GRID         123       0  -5.0-1   1.6+1  -5.0-1       0
GRID         124       0  -5.0-1   1.5+1  -5.0-1       0
GRID         125       0   5.0-1   1.5+1   5.0-1       0
GRID         126       0   5.0-1   1.6+1   5.0-1       0
GRID         127       0  -5.0-1   1.6+1   5.0-1       0
GRID         128       0  -5.0-1   1.5+1   5.0-1       0
GRID*                129               0 3.88908729653+0           9.5+0*
*        3.18198051534+0               0
GRID*                130               0 4.59619407771+0           9.5+0*
*        3.88908729653+0               0
GRID*                131               0 4.59619407771+0          1.05+1*
*        3.88908729653+0               0
GRID*                132               0 3.88908729653+0          1.05+1*
*        3.18198051534+0               0
GRID*                133               0 3.18198051534+0           9.5+0*
*        3.88908729653+0               0
GRID*                134               0 3.88908729653+0           9.5+0*
*        4.59619407771+0               0
GRID*                135               0 3.88908729653+0          1.05+1*
*        4.59619407771+0               0
GRID*                136               0 3.18198051534+0          1.05+1*
*        3.88908729653+0               0
GRID*                137               0 3.88908729653+0 1.31819805153+1*
*                 -5.0-1               0
GRID*                138               0 4.59619407771+0 1.38890872965+1*
*                 -5.0-1               0
GRID*                139               0 3.88908729653+0 1.45961940777+1*
*                 -5.0-1               0
GRID*                140               0 3.18198051534+0 1.38890872965+1*
*                 -5.0-1               0
GRID*                141               0 3.88908729653+0 1.31819805153+1*
*                  5.0-1               0
GRID*                142               0 4.59619407771+0 1.38890872965+1*
*                  5.0-1               0
GRID*                143               0 3.88908729653+0 1.45961940777+1*
*                  5.0-1               0
GRID*                144               0 3.18198051534+0 1.38890872965+1*
*                  5.0-1               0
PARAM    STR_CID      -2
$--1---><--2---><--3---><--4---><--5---><--6---><--7---><--8---><--9---><--10-->
$$$$$$$$$$$$$$$$$$$$$$$$$$$$$$$$$$$ Material $$$$$$$$$$$$$$$$$$$$$$$$$$$$$$$$$$$
MAT9           1  2.0+11   0.0+0   0.0+0   0.0+0   0.0+0   0.0+0  1.5+11+
+          0.0+0   0.0+0   0.0+0   0.0+0  1.0+11   0.0+0   0.0+0   0.0+0+
+         8.0+10   0.0+0   0.0+0  8.0+10   0.0+0  8.0+10   0.0+0   0.0+0+
+          0.0+0   0.0+0   0.0+0   0.0+0   0.0+0   0.0+0   0.0+0
$--1---><--2---><--3---><--4---><--5---><--6---><--7---><--8---><--9---><--10-->
SPC            1       1       1   0.0+0
SPC            1       1       2   0.0+0
SPC            1       1       3   0.0+0
SPC            1       4       1   0.0+0
SPC            1       4       2   0.0+0
SPC            1       4       3   0.0+0
SPC            1       5       1   0.0+0
SPC            1       5       2   0.0+0
SPC            1       5       3   0.0+0
SPC            1       8       1   0.0+0
SPC            1       8       2   0.0+0
SPC            1       8       3   0.0+0
SPC            1       9       1   0.0+0
SPC            1       9       2   0.0+0
SPC            1       9       3   0.0+0
SPC            1      12       1   0.0+0
SPC            1      12       2   0.0+0
SPC            1      12       3   0.0+0
SPC            1      13       1   0.0+0
SPC            1      13       2   0.0+0
SPC            1      13       3   0.0+0
SPC            1      16       1   0.0+0
SPC            1      16       2   0.0+0
SPC            1      16       3   0.0+0
SPC            1      17       1   0.0+0
SPC            1      17       2   0.0+0
SPC            1      17       3   0.0+0
SPC            1      20       1   0.0+0
SPC            1      20       2   0.0+0
SPC            1      20       3   0.0+0
SPC            1      21       1   0.0+0
SPC            1      21       2   0.0+0
SPC            1      21       3   0.0+0
SPC            1      24       1   0.0+0
SPC            1      24       2   0.0+0
SPC            1      24       3   0.0+0
SPC            1      25       1   0.0+0
SPC            1      25       2   0.0+0
SPC            1      25       3   0.0+0
SPC            1      28       1   0.0+0
SPC            1      28       2   0.0+0
SPC            1      28       3   0.0+0
SPC            1      29       1   0.0+0
SPC            1      29       2   0.0+0
SPC            1      29       3   0.0+0
SPC            1      32       1   0.0+0
SPC            1      32       2   0.0+0
SPC            1      32       3   0.0+0
SPC            1      33       1   0.0+0
SPC            1      33       2   0.0+0
SPC            1      33       3   0.0+0
SPC            1      36       1   0.0+0
SPC            1      36       2   0.0+0
SPC            1      36       3   0.0+0
SPC            1      37       1   0.0+0
SPC            1      37       2   0.0+0
SPC            1      37       3   0.0+0
SPC            1      40       1   0.0+0
SPC            1      40       2   0.0+0
SPC            1      40       3   0.0+0
SPC            1      41       1   0.0+0
SPC            1      41       2   0.0+0
SPC            1      41       3   0.0+0
SPC            1      44       1   0.0+0
SPC            1      44       2   0.0+0
SPC            1      44       3   0.0+0
SPC            1      45       1   0.0+0
SPC            1      45       2   0.0+0
SPC            1      45       3   0.0+0
SPC            1      48       1   0.0+0
SPC            1      48       2   0.0+0
SPC            1      48       3   0.0+0
SPC            1      49       1   0.0+0
SPC            1      49       2   0.0+0
SPC            1      49       3   0.0+0
SPC            1      52       1   0.0+0
SPC            1      52       2   0.0+0
SPC            1      52       3   0.0+0
SPC            1      53       1   0.0+0
SPC            1      53       2   0.0+0
SPC            1      53       3   0.0+0
SPC            1      56       1   0.0+0
SPC            1      56       2   0.0+0
SPC            1      56       3   0.0+0
SPC            1      57       1   0.0+0
SPC            1      57       2   0.0+0
SPC            1      57       3   0.0+0
SPC            1      60       1   0.0+0
SPC            1      60       2   0.0+0
SPC            1      60       3   0.0+0
SPC            1      61       1   0.0+0
SPC            1      61       2   0.0+0
SPC            1      61       3   0.0+0
SPC            1      64       1   0.0+0
SPC            1      64       2   0.0+0
SPC            1      64       3   0.0+0
SPC            1      65       1   0.0+0
SPC            1      65       2   0.0+0
SPC            1      65       3   0.0+0
SPC            1      68       1   0.0+0
SPC            1      68       2   0.0+0
SPC            1      68       3   0.0+0
SPC            1      69       1   0.0+0
SPC            1      69       2   0.0+0
SPC            1      69       3   0.0+0
SPC            1      72       1   0.0+0
SPC            1      72       2   0.0+0
SPC            1      72       3   0.0+0
SPC            1      73       1   0.0+0
SPC            1      73       2   0.0+0
SPC            1      73       3   0.0+0
SPC            1      76       1   0.0+0
SPC            1      76       2   0.0+0
SPC            1      76       3   0.0+0
SPC            1      77       1   0.0+0
SPC            1      77       2   0.0+0
SPC            1      77       3   0.0+0
SPC            1      80       1   0.0+0
SPC            1      80       2   0.0+0
SPC            1      80       3   0.0+0
SPC            1      81       1   0.0+0
SPC            1      81       2   0.0+0
SPC            1      81       3   0.0+0
SPC            1      84       1   0.0+0
SPC            1      84       2   0.0+0
SPC            1      84       3   0.0+0
SPC            1      85       1   0.0+0
SPC            1      85       2   0.0+0
SPC            1      85       3   0.0+0
SPC            1      88       1   0.0+0
SPC            1      88       2   0.0+0
SPC            1      88       3   0.0+0
SPC            1      89       1   0.0+0
SPC            1      89       2   0.0+0
SPC            1      89       3   0.0+0
SPC            1      92       1   0.0+0
SPC            1      92       2   0.0+0
SPC            1      92       3   0.0+0
SPC            1      93       1   0.0+0
SPC            1      93       2   0.0+0
SPC            1      93       3   0.0+0
SPC            1      96       1   0.0+0
SPC            1      96       2   0.0+0
SPC            1      96       3   0.0+0
SPC            1      97       1   0.0+0
SPC            1      97       2   0.0+0
SPC            1      97       3   0.0+0
SPC            1     100       1   0.0+0
SPC            1     100       2   0.0+0
SPC            1     100       3   0.0+0
SPC            1     101       1   0.0+0
SPC            1     101       2   0.0+0
SPC            1     101       3   0.0+0
SPC            1     104       1   0.0+0
SPC            1     104       2   0.0+0
SPC            1     104       3   0.0+0
SPC            1     105       1   0.0+0
SPC            1     105       2   0.0+0
SPC            1     105       3   0.0+0
SPC            1     108       1   0.0+0
SPC            1     108       2   0.0+0
SPC            1     108       3   0.0+0
SPC            1     109       1   0.0+0
SPC            1     109       2   0.0+0
SPC            1     109       3   0.0+0
SPC            1     112       1   0.0+0
SPC            1     112       2   0.0+0
SPC            1     112       3   0.0+0
SPC            1     113       1   0.0+0
SPC            1     113       2   0.0+0
SPC            1     113       3   0.0+0
SPC            1     116       1   0.0+0
SPC            1     116       2   0.0+0
SPC            1     116       3   0.0+0
SPC            1     117       1   0.0+0
SPC            1     117       2   0.0+0
SPC            1     117       3   0.0+0
SPC            1     120       1   0.0+0
SPC            1     120       2   0.0+0
SPC            1     120       3   0.0+0
SPC            1     121       1   0.0+0
SPC            1     121       2   0.0+0
SPC            1     121       3   0.0+0
SPC            1     124       1   0.0+0
SPC            1     124       2   0.0+0
SPC            1     124       3   0.0+0
SPC            1     125       1   0.0+0
SPC            1     125       2   0.0+0
SPC            1     125       3   0.0+0
SPC            1     128       1   0.0+0
SPC            1     128       2   0.0+0
SPC            1     128       3   0.0+0
SPC            1     129       1   0.0+0
SPC            1     129       2   0.0+0
SPC            1     129       3   0.0+0
SPC            1     132       1   0.0+0
SPC            1     132       2   0.0+0
SPC            1     132       3   0.0+0
SPC            1     133       1   0.0+0
SPC            1     133       2   0.0+0
SPC            1     133       3   0.0+0
SPC            1     136       1   0.0+0
SPC            1     136       2   0.0+0
SPC            1     136       3   0.0+0
SPC            1     137       1   0.0+0
SPC            1     137       2   0.0+0
SPC            1     137       3   0.0+0
SPC            1     140       1   0.0+0
SPC            1     140       2   0.0+0
SPC            1     140       3   0.0+0
SPC            1     141       1   0.0+0
SPC            1     141       2   0.0+0
SPC            1     141       3   0.0+0
SPC            1     144       1   0.0+0
SPC            1     144       2   0.0+0
SPC            1     144       3   0.0+0
$--1---><--2---><--3---><--4---><--5---><--6---><--7---><--8---><--9---><--10-->
$$$$$$$$$$$$$$$$$$$$$$$$$$$$$$$$$$$ Default $$$$$$$$$$$$$$$$$$$$$$$$$$$$$$$$$$$$
CORD2R         1       0   0.0+0   0.0+0   0.0+0   0.0+0  -1.0+0   0.0+0+
+          1.0+0   0.0+0   0.0+0
PSOLID         2       1       1       2               1
CHEXA          1       2       1       2       3       4       5       6+
+              7       8
CORD2R*                3               0           0.0+0           0.0+0*
*                  0.0+0           0.0+0          -1.0+0         -1.0-12*
*        7.07106781186-1           0.0+0-7.07106781187-1                *
*
PSOLID         4       1       3       2               1
CHEXA          2       4       9      10      11      12      13      14+
+             15      16
CORD2R*                5               0           0.0+0           0.0+0*
*                  0.0+0 7.07106781186-1 7.07106781186-1           0.0+0*
*       -7.07106781187-1 7.07106781186-1           0.0+0                *
*
PSOLID         6       1       5       2               1
CHEXA          3       6      17      18      19      20      21      22+
+             23      24
CORD2R*                7               0           0.0+0           0.0+0*
*                  0.0+0         -1.0-12           1.0+0           0.0+0*
*       -7.07106781187-1         -1.0-12-7.07106781187-1                *
*
PSOLID         8       1       7       2               1
CHEXA          4       8      25      26      27      28      29      30+
+             31      32
CORD2R         9       0   0.0+0   0.0+0   0.0+0   0.0+0   1.0+0   0.0+0+
+         -1.0+0   0.0+0 -1.0-12
PSOLID        10       1       9       2               1
CHEXA          5      10      33      34      35      36      37      38+
+             39      40
CORD2R*               11               0           0.0+0           0.0+0*
*                  0.0+0         -1.0-12           1.0+0           0.0+0*
*       -7.07106781187-1         -1.0-12 7.07106781186-1                *
*
PSOLID        12       1      11       2               1
CHEXA          6      12      41      42      43      44      45      46+
+             47      48
CORD2R        13       0   0.0+0   0.0+0   0.0+0   1.0+0 -1.0-12   0.0+0+
+          0.0+0   1.0+0 -1.0-12
PSOLID        14       1      13       2               1
CHEXA          7      14      49      50      51      52      53      54+
+             55      56
CORD2R*               15               0           0.0+0           0.0+0*
*                  0.0+0           0.0+0          -1.0+0           0.0+0*
*        7.07106781186-1           0.0+0 7.07106781186-1                *
*
PSOLID        16       1      15       2               1
CHEXA          8      16      57      58      59      60      61      62+
+             63      64
CORD2R*               17               0           0.0+0           0.0+0*
*                  0.0+0 7.07106781186-1-7.07106781187-1           0.0+0*
*        7.07106781186-1 7.07106781186-1         -1.0-12                *
*
PSOLID        18       1      17       2               1
CHEXA          9      18      65      66      67      68      69      70+
+             71      72
CORD2R        19       0   0.0+0   0.0+0   0.0+0   1.0+0   0.0+0   0.0+0+
+          0.0+0   1.0+0   0.0+0
PSOLID        20       1      19       2               1
CHEXA         10      20      73      74      75      76      77      78+
+             79      80
CORD2R*               21               0           0.0+0           0.0+0*
*                  0.0+0-7.07106781187-1           0.0+0 7.07106781186-1*
*        7.07106781186-1           0.0+0 7.07106781186-1                *
*
PSOLID        22       1      21       2               1
CHEXA         11      22      81      82      83      84      85      86+
+             87      88
CORD2R*               23               0           0.0+0           0.0+0*
*                  0.0+0-7.07106781187-1 7.07106781186-1           0.0+0*
*       -7.07106781187-1-7.07106781187-1           0.0+0                *
*
PSOLID        24       1      23       2               1
CHEXA         12      24      89      90      91      92      93      94+
+             95      96
CORD2R*               25               0           0.0+0           0.0+0*
*                  0.0+0 7.07106781186-1           0.0+0 7.07106781186-1*
*        7.07106781186-1           0.0+0-7.07106781187-1                *
*
PSOLID        26       1      25       2               1
CHEXA         13      26      97      98      99     100     101     102+
+            103     104
CORD2R        27       0   0.0+0   0.0+0   0.0+0  -1.0+0   0.0+0   0.0+0+
+          0.0+0  -1.0+0   0.0+0
PSOLID        28       1      27       2               1
CHEXA         14      28     105     106     107     108     109     110+
+            111     112
CORD2R*               29               0           0.0+0           0.0+0*
*                  0.0+0 7.07106781186-1           0.0+0-7.07106781187-1*
*       -7.07106781187-1           0.0+0-7.07106781187-1                *
*
PSOLID        30       1      29       2               1
CHEXA         15      30     113     114     115     116     117     118+
+            119     120
CORD2R        31       0   0.0+0   0.0+0   0.0+0   0.0+0   1.0+0   0.0+0+
+         -1.0+0   0.0+0   0.0+0
PSOLID        32       1      31       2               1
CHEXA         16      32     121     122     123     124     125     126+
+            127     128
CORD2R*               33               0           0.0+0           0.0+0*
*                  0.0+0-7.07106781187-1           0.0+0-7.07106781187-1*
*       -7.07106781187-1           0.0+0 7.07106781186-1                *
*
PSOLID        34       1      33       2               1
CHEXA         17      34     129     130     131     132     133     134+
+            135     136
CORD2R*               35               0           0.0+0           0.0+0*
*                  0.0+0 7.07106781186-1 7.07106781186-1           0.0+0*
*       -7.07106781187-1 7.07106781186-1           0.0+0                *
*
PSOLID        36       1      35       2               1
CHEXA         18      36     137     138     139     140     141     142+
+            143     144
$--1---><--2---><--3---><--4---><--5---><--6---><--7---><--8---><--9---><--10-->
$$$$$$$$$$$$$$$$$$$$$$$$$$$$$$$$$$$$ force $$$$$$$$$$$$$$$$$$$$$$$$$$$$$$$$$$$$$
FORCE          2       2       0   1.0+0  1.25+6   0.0+0   0.0+0
FORCE          2       3       0   1.0+0  1.25+6   0.0+0   0.0+0
FORCE          2       6       0   1.0+0  1.25+6   0.0+0   0.0+0
FORCE          2       7       0   1.0+0  1.25+6   0.0+0   0.0+0
FORCE          2      74       0   1.0+0  1.25+6   0.0+0   0.0+0
FORCE          2      75       0   1.0+0  1.25+6   0.0+0   0.0+0
FORCE          2      78       0   1.0+0  1.25+6   0.0+0   0.0+0
FORCE          2      79       0   1.0+0  1.25+6   0.0+0   0.0+0
$--1---><--2---><--3---><--4---><--5---><--6---><--7---><--8---><--9---><--10-->
$$$$$$$$$$$$$$$$$$$$$$$$$$$$$$$$$$$$ force $$$$$$$$$$$$$$$$$$$$$$$$$$$$$$$$$$$$$
FORCE*                 2              66               0           1.0+0*
*        8.83883476483+5 8.83883476483+5           0.0+0
FORCE*                 2              67               0           1.0+0*
*        8.83883476483+5 8.83883476483+5           0.0+0
FORCE*                 2              70               0           1.0+0*
*        8.83883476483+5 8.83883476483+5           0.0+0
FORCE*                 2              71               0           1.0+0*
*        8.83883476483+5 8.83883476483+5           0.0+0
FORCE*                 2             138               0           1.0+0*
*        8.83883476483+5 8.83883476483+5           0.0+0
FORCE*                 2             139               0           1.0+0*
*        8.83883476483+5 8.83883476483+5           0.0+0
FORCE*                 2             142               0           1.0+0*
*        8.83883476483+5 8.83883476483+5           0.0+0
FORCE*                 2             143               0           1.0+0*
*        8.83883476483+5 8.83883476483+5           0.0+0
$--1---><--2---><--3---><--4---><--5---><--6---><--7---><--8---><--9---><--10-->
$$$$$$$$$$$$$$$$$$$$$$$$$$$$$$$$$$$$ force $$$$$$$$$$$$$$$$$$$$$$$$$$$$$$$$$$$$$
FORCE          2      50       0   1.0+0   0.0+0  1.25+6   0.0+0
FORCE          2      51       0   1.0+0   0.0+0  1.25+6   0.0+0
FORCE          2      54       0   1.0+0   0.0+0  1.25+6   0.0+0
FORCE          2      55       0   1.0+0   0.0+0  1.25+6   0.0+0
FORCE          2     122       0   1.0+0   0.0+0  1.25+6   0.0+0
FORCE          2     123       0   1.0+0   0.0+0  1.25+6   0.0+0
FORCE          2     126       0   1.0+0   0.0+0  1.25+6   0.0+0
FORCE          2     127       0   1.0+0   0.0+0  1.25+6   0.0+0
$--1---><--2---><--3---><--4---><--5---><--6---><--7---><--8---><--9---><--10-->
$$$$$$$$$$$$$$$$$$$$$$$$$$$$$$$$$$$$ force $$$$$$$$$$$$$$$$$$$$$$$$$$$$$$$$$$$$$
FORCE*                 2              18               0           1.0+0*
*       -8.83883476483+5 8.83883476483+5           0.0+0
FORCE*                 2              19               0           1.0+0*
*       -8.83883476483+5 8.83883476483+5           0.0+0
FORCE*                 2              22               0           1.0+0*
*       -8.83883476483+5 8.83883476483+5           0.0+0
FORCE*                 2              23               0           1.0+0*
*       -8.83883476483+5 8.83883476483+5           0.0+0
FORCE*                 2              90               0           1.0+0*
*       -8.83883476483+5 8.83883476483+5           0.0+0
FORCE*                 2              91               0           1.0+0*
*       -8.83883476483+5 8.83883476483+5           0.0+0
FORCE*                 2              94               0           1.0+0*
*       -8.83883476483+5 8.83883476483+5           0.0+0
FORCE*                 2              95               0           1.0+0*
*       -8.83883476483+5 8.83883476483+5           0.0+0
$--1---><--2---><--3---><--4---><--5---><--6---><--7---><--8---><--9---><--10-->
$$$$$$$$$$$$$$$$$$$$$$$$$$$$$$$$$$$$ force $$$$$$$$$$$$$$$$$$$$$$$$$$$$$$$$$$$$$
FORCE          2      34       0   1.0+0 -1.25+6   0.0+0   0.0+0
FORCE          2      35       0   1.0+0 -1.25+6   0.0+0   0.0+0
FORCE          2      38       0   1.0+0 -1.25+6   0.0+0   0.0+0
FORCE          2      39       0   1.0+0 -1.25+6   0.0+0   0.0+0
FORCE          2     106       0   1.0+0 -1.25+6   0.0+0   0.0+0
FORCE          2     107       0   1.0+0 -1.25+6   0.0+0   0.0+0
FORCE          2     110       0   1.0+0 -1.25+6   0.0+0   0.0+0
FORCE          2     111       0   1.0+0 -1.25+6   0.0+0   0.0+0
$--1---><--2---><--3---><--4---><--5---><--6---><--7---><--8---><--9---><--10-->
$$$$$$$$$$$$$$$$$$$$$$$$$$$$$$$$$$$$ force $$$$$$$$$$$$$$$$$$$$$$$$$$$$$$$$$$$$$
FORCE*                 2              10               0           1.0+0*
*        8.83883476483+5           0.0+0-8.83883476483+5
FORCE*                 2              11               0           1.0+0*
*        8.83883476483+5           0.0+0-8.83883476483+5
FORCE*                 2              14               0           1.0+0*
*        8.83883476483+5           0.0+0-8.83883476483+5
FORCE*                 2              15               0           1.0+0*
*        8.83883476483+5           0.0+0-8.83883476483+5
FORCE*                 2              82               0           1.0+0*
*        8.83883476483+5           0.0+0-8.83883476483+5
FORCE*                 2              83               0           1.0+0*
*        8.83883476483+5           0.0+0-8.83883476483+5
FORCE*                 2              86               0           1.0+0*
*        8.83883476483+5           0.0+0-8.83883476483+5
FORCE*                 2              87               0           1.0+0*
*        8.83883476483+5           0.0+0-8.83883476483+5
$--1---><--2---><--3---><--4---><--5---><--6---><--7---><--8---><--9---><--10-->
$$$$$$$$$$$$$$$$$$$$$$$$$$$$$$$$$$$$ force $$$$$$$$$$$$$$$$$$$$$$$$$$$$$$$$$$$$$
FORCE*                 2              26               0           1.0+0*
*       -8.83883476483+5           0.0+0-8.83883476483+5
FORCE*                 2              27               0           1.0+0*
*       -8.83883476483+5           0.0+0-8.83883476483+5
FORCE*                 2              30               0           1.0+0*
*       -8.83883476483+5           0.0+0-8.83883476483+5
FORCE*                 2              31               0           1.0+0*
*       -8.83883476483+5           0.0+0-8.83883476483+5
FORCE*                 2              98               0           1.0+0*
*       -8.83883476483+5           0.0+0-8.83883476483+5
FORCE*                 2              99               0           1.0+0*
*       -8.83883476483+5           0.0+0-8.83883476483+5
FORCE*                 2             102               0           1.0+0*
*       -8.83883476483+5           0.0+0-8.83883476483+5
FORCE*                 2             103               0           1.0+0*
*       -8.83883476483+5           0.0+0-8.83883476483+5
$--1---><--2---><--3---><--4---><--5---><--6---><--7---><--8---><--9---><--10-->
$$$$$$$$$$$$$$$$$$$$$$$$$$$$$$$$$$$$ force $$$$$$$$$$$$$$$$$$$$$$$$$$$$$$$$$$$$$
FORCE*                 2              42               0           1.0+0*
*       -8.83883476483+5           0.0+0 8.83883476483+5
FORCE*                 2              43               0           1.0+0*
*       -8.83883476483+5           0.0+0 8.83883476483+5
FORCE*                 2              46               0           1.0+0*
*       -8.83883476483+5           0.0+0 8.83883476483+5
FORCE*                 2              47               0           1.0+0*
*       -8.83883476483+5           0.0+0 8.83883476483+5
FORCE*                 2             114               0           1.0+0*
*       -8.83883476483+5           0.0+0 8.83883476483+5
FORCE*                 2             115               0           1.0+0*
*       -8.83883476483+5           0.0+0 8.83883476483+5
FORCE*                 2             118               0           1.0+0*
*       -8.83883476483+5           0.0+0 8.83883476483+5
FORCE*                 2             119               0           1.0+0*
*       -8.83883476483+5           0.0+0 8.83883476483+5
$--1---><--2---><--3---><--4---><--5---><--6---><--7---><--8---><--9---><--10-->
$$$$$$$$$$$$$$$$$$$$$$$$$$$$$$$$$$$$ force $$$$$$$$$$$$$$$$$$$$$$$$$$$$$$$$$$$$$
FORCE*                 2              58               0           1.0+0*
*        8.83883476483+5           0.0+0 8.83883476483+5
FORCE*                 2              59               0           1.0+0*
*        8.83883476483+5           0.0+0 8.83883476483+5
FORCE*                 2              62               0           1.0+0*
*        8.83883476483+5           0.0+0 8.83883476483+5
FORCE*                 2              63               0           1.0+0*
*        8.83883476483+5           0.0+0 8.83883476483+5
FORCE*                 2             130               0           1.0+0*
*        8.83883476483+5           0.0+0 8.83883476483+5
FORCE*                 2             131               0           1.0+0*
*        8.83883476483+5           0.0+0 8.83883476483+5
FORCE*                 2             134               0           1.0+0*
*        8.83883476483+5           0.0+0 8.83883476483+5
FORCE*                 2             135               0           1.0+0*
*        8.83883476483+5           0.0+0 8.83883476483+5
$--1---><--2---><--3---><--4---><--5---><--6---><--7---><--8---><--9---><--10-->
LOAD           1   1.0+0   1.0+0       2
ENDDATA 
