$ Generated by Mecway 33
$-----------------------EXECUTIVE CONTROL SECTION-----------------------
SOL 101
CEND
$-------------------------CASE CONTROL SECTION--------------------------
DISPLACEMENT = ALL
SPC = 1
LOAD = 1
BEGIN BULK
$---------------------------BULK DATA SECTION---------------------------
GRID           1       0   0.0+0   0.0+0   0.0+0       0
GRID           2       0   8.0-1   0.0+0   0.0+0       0
GRID           3       0   8.0-1   2.0+0   0.0+0       0
GRID*                  4               0 6.1230317691-17           2.0+0*
*                  0.0+0               0
GRID           5       0   2.0+0   0.0+0   0.0+0       0
GRID           6       0   2.8+0   0.0+0   0.0+0       0
GRID           7       0   2.8+0   2.0+0   0.0+0       0
GRID           8       0   2.0+0   2.0+0   0.0+0       0
GRID           9       0   0.0+0   4.0+0   0.0+0       0
GRID          10       0   8.0-1   4.0+0   0.0+0       0
GRID          11       0   8.0-1   6.0+0   0.0+0       0
GRID*                 12               0 6.1230317691-17           6.0+0*
*                  0.0+0               0
GRID          13       0   2.0+0   4.0+0   0.0+0       0
GRID          14       0   2.8+0   4.0+0   0.0+0       0
GRID          15       0   2.8+0   6.0+0   0.0+0       0
GRID          16       0   2.0+0   6.0+0   0.0+0       0
GRID          17       0   0.0+0  -4.0+0   0.0+0       0
GRID          18       0   8.0-1  -4.0+0   0.0+0       0
GRID          19       0   8.0-1  -2.0+0   0.0+0       0
GRID*                 20               0 6.1230317691-17          -2.0+0*
*                  0.0+0               0
GRID          21       0   2.0+0  -4.0+0   0.0+0       0
GRID          22       0   2.8+0  -4.0+0   0.0+0       0
GRID          23       0   2.8+0  -2.0+0   0.0+0       0
GRID          24       0   2.0+0  -2.0+0   0.0+0       0
PARAM    STR_CID      -2
$--1---><--2---><--3---><--4---><--5---><--6---><--7---><--8---><--9---><--10-->
$$$$$$$$$$$$$$$$$$$$$$$$$$$$$$$$$$$ laminate $$$$$$$$$$$$$$$$$$$$$$$$$$$$$$$$$$$
MAT8           1   1.8+0   3.1+0   3.8-1   5.0-1   2.0-1   1.0-1   0.0+0+
+          0.0+0   0.0+0   0.0+0
$--1---><--2---><--3---><--4---><--5---><--6---><--7---><--8---><--9---><--10-->
$$$$$$$$$$$$$$$$$$$$$$$$$$$$$$$$$ orthotropic $$$$$$$$$$$$$$$$$$$$$$$$$$$$$$$$$$
MAT8           4   1.8+0   3.1+0   3.8-1   5.0-1   2.0-1   1.0-1   0.0+0+
+          0.0+0   0.0+0   0.0+0
$--1---><--2---><--3---><--4---><--5---><--6---><--7---><--8---><--9---><--10-->
$$$$$$$$$$$$$$$$$$$$$$$$$$$$$$$$$ laminate(2) $$$$$$$$$$$$$$$$$$$$$$$$$$$$$$$$$$
MAT8           2   1.8+0   3.1+0   3.8-1   5.0-1   2.0-1   1.0-1   0.0+0+
+          0.0+0   0.0+0   0.0+0
MAT8           3   1.8+0   3.1+0   3.8-1   5.0-1   2.0-1   1.0-1   0.0+0+
+          0.0+0   0.0+0   0.0+0
$--1---><--2---><--3---><--4---><--5---><--6---><--7---><--8---><--9---><--10-->
SPC            1       1       1   0.0+0
SPC            1       1       2   0.0+0
SPC            1       1       3   0.0+0
SPC            1       1       4   0.0+0
SPC            1       1       5   0.0+0
SPC            1       1       6   0.0+0
SPC            1       2       2   0.0+0
SPC            1       2       4   0.0+0
SPC            1       2       6   0.0+0
SPC            1       4       1   0.0+0
SPC            1       4       5   0.0+0
SPC            1       4       6   0.0+0
SPC            1       5       1   0.0+0
SPC            1       5       2   0.0+0
SPC            1       5       3   0.0+0
SPC            1       5       4   0.0+0
SPC            1       5       5   0.0+0
SPC            1       5       6   0.0+0
SPC            1       6       2   0.0+0
SPC            1       6       4   0.0+0
SPC            1       6       6   0.0+0
SPC            1       8       1   0.0+0
SPC            1       8       5   0.0+0
SPC            1       8       6   0.0+0
SPC            1       9       1   0.0+0
SPC            1       9       2   0.0+0
SPC            1       9       3   0.0+0
SPC            1       9       4   0.0+0
SPC            1       9       5   0.0+0
SPC            1       9       6   0.0+0
SPC            1      10       2   0.0+0
SPC            1      10       4   0.0+0
SPC            1      10       6   0.0+0
SPC            1      12       1   0.0+0
SPC            1      12       5   0.0+0
SPC            1      12       6   0.0+0
SPC            1      13       1   0.0+0
SPC            1      13       2   0.0+0
SPC            1      13       3   0.0+0
SPC            1      13       4   0.0+0
SPC            1      13       5   0.0+0
SPC            1      13       6   0.0+0
SPC            1      14       2   0.0+0
SPC            1      14       4   0.0+0
SPC            1      14       6   0.0+0
SPC            1      16       1   0.0+0
SPC            1      16       5   0.0+0
SPC            1      16       6   0.0+0
SPC            1      17       1   0.0+0
SPC            1      17       2   0.0+0
SPC            1      17       3   0.0+0
SPC            1      17       4   0.0+0
SPC            1      17       5   0.0+0
SPC            1      17       6   0.0+0
SPC            1      18       2   0.0+0
SPC            1      18       4   0.0+0
SPC            1      18       6   0.0+0
SPC            1      20       1   0.0+0
SPC            1      20       5   0.0+0
SPC            1      20       6   0.0+0
SPC            1      21       1   0.0+0
SPC            1      21       2   0.0+0
SPC            1      21       3   0.0+0
SPC            1      21       4   0.0+0
SPC            1      21       5   0.0+0
SPC            1      21       6   0.0+0
SPC            1      22       2   0.0+0
SPC            1      22       4   0.0+0
SPC            1      22       6   0.0+0
SPC            1      24       1   0.0+0
SPC            1      24       5   0.0+0
SPC            1      24       6   0.0+0
$--1---><--2---><--3---><--4---><--5---><--6---><--7---><--8---><--9---><--10-->
$$$$$$$$$$$$$$$$$$$$$$$$$$$$$$$$$$$ Default $$$$$$$$$$$$$$$$$$$$$$$$$$$$$$$$$$$$
PCOMP          1                                   0.0+0             SYM+
+              1   1.5-1   3.0+1        
CQUAD4         1       1       1       2       3       4   0.0+0   0.0+0
PCOMP          2                                   0.0+0             SYM+
+              1   1.5-1   3.0+1        
CTRIA3         2       2       7       8       5   0.0+0   0.0+0
CTRIA3         3       2       5       6       7   0.0+0   0.0+0
$--1---><--2---><--3---><--4---><--5---><--6---><--7---><--8---><--9---><--10-->
$$$$$$$$$$$$$$$$$$$$$$$$$$$$$$$$$$ Component $$$$$$$$$$$$$$$$$$$$$$$$$$$$$$$$$$$
PSHELL         3       4   3.0-1       4               4           0.0+0
CQUAD4         4       3       9      10      11      12   3.0+1   0.0+0
PSHELL         4       4   3.0-1       4               4           0.0+0
CTRIA3         5       4      15      16      13  -1.5+2   0.0+0
CTRIA3         6       4      13      14      15   3.0+1   0.0+0
$--1---><--2---><--3---><--4---><--5---><--6---><--7---><--8---><--9---><--10-->
$$$$$$$$$$$$$$$$$$$$$$$$$$$$$$$$$ Component(2) $$$$$$$$$$$$$$$$$$$$$$$$$$$$$$$$$
PCOMP          5                                   0.0+0                +
+              2   2.0-1   3.0+1               3   1.0-1   3.0+1        
CQUAD4         7       5      17      18      19      20   0.0+0   0.0+0
PCOMP          6                                   0.0+0                +
+              2   2.0-1   3.0+1               3   1.0-1   3.0+1        
CTRIA3         8       6      23      24      21   0.0+0   0.0+0
CTRIA3         9       6      21      22      23   0.0+0   0.0+0
$--1---><--2---><--3---><--4---><--5---><--6---><--7---><--8---><--9---><--10-->
$$$$$$$$$$$$$$$$$$$$$$$$$$$$$$$$$$$$ force $$$$$$$$$$$$$$$$$$$$$$$$$$$$$$$$$$$$$
FORCE*                 2               2               0           1.0+0*
*        8.33333333333-2           0.0+0           0.0+0
FORCE*                 2               3               0           1.0+0*
*        8.33333333333-2           0.0+0           0.0+0
FORCE*                 2               6               0           1.0+0*
*        8.33333333333-2           0.0+0           0.0+0
FORCE*                 2               7               0           1.0+0*
*        8.33333333333-2           0.0+0           0.0+0
FORCE*                 2              10               0           1.0+0*
*        8.33333333333-2           0.0+0           0.0+0
FORCE*                 2              11               0           1.0+0*
*        8.33333333333-2           0.0+0           0.0+0
FORCE*                 2              14               0           1.0+0*
*        8.33333333333-2           0.0+0           0.0+0
FORCE*                 2              15               0           1.0+0*
*        8.33333333333-2           0.0+0           0.0+0
FORCE*                 2              18               0           1.0+0*
*        8.33333333333-2           0.0+0           0.0+0
FORCE*                 2              19               0           1.0+0*
*        8.33333333333-2           0.0+0           0.0+0
FORCE*                 2              22               0           1.0+0*
*        8.33333333333-2           0.0+0           0.0+0
FORCE*                 2              23               0           1.0+0*
*        8.33333333333-2           0.0+0           0.0+0
$--1---><--2---><--3---><--4---><--5---><--6---><--7---><--8---><--9---><--10-->
$$$$$$$$$$$$$$$$$$$$$$$$$$$$$$$$$$$$ force $$$$$$$$$$$$$$$$$$$$$$$$$$$$$$$$$$$$$
FORCE*                 2               3               0           1.0+0*
*                  0.0+0 8.33333333333-2           0.0+0
FORCE*                 2               4               0           1.0+0*
*                  0.0+0 8.33333333333-2           0.0+0
FORCE*                 2               7               0           1.0+0*
*                  0.0+0 8.33333333333-2           0.0+0
FORCE*                 2               8               0           1.0+0*
*                  0.0+0 8.33333333333-2           0.0+0
FORCE*                 2              11               0           1.0+0*
*                  0.0+0 8.33333333333-2           0.0+0
FORCE*                 2              12               0           1.0+0*
*                  0.0+0 8.33333333333-2           0.0+0
FORCE*                 2              15               0           1.0+0*
*                  0.0+0 8.33333333333-2           0.0+0
FORCE*                 2              16               0           1.0+0*
*                  0.0+0 8.33333333333-2           0.0+0
FORCE*                 2              19               0           1.0+0*
*                  0.0+0 8.33333333333-2           0.0+0
FORCE*                 2              20               0           1.0+0*
*                  0.0+0 8.33333333333-2           0.0+0
FORCE*                 2              23               0           1.0+0*
*                  0.0+0 8.33333333333-2           0.0+0
FORCE*                 2              24               0           1.0+0*
*                  0.0+0 8.33333333333-2           0.0+0
$--1---><--2---><--3---><--4---><--5---><--6---><--7---><--8---><--9---><--10-->
LOAD           1   1.0+0   1.0+0       2
ENDDATA 
