$ Generated by Mecway 33
$-----------------------EXECUTIVE CONTROL SECTION-----------------------
SOL 101
CEND
$-------------------------CASE CONTROL SECTION--------------------------
DISPLACEMENT = ALL
SPC = 1
TEMPERATURE = 1
BEGIN BULK
$---------------------------BULK DATA SECTION---------------------------
GRID*                  1               0 7.07106781187-1 7.07106781187-1*
*                  0.0+0               1
GRID*                  2               0-9.23879532511-1-3.82683432365-1*
*                  0.0+0               2
GRID*                  3               0 7.07106781187-1 7.07106781187-1*
*                  5.0-1               1
GRID*                  4               0-7.07106781187-1-7.07106781187-1*
*                  0.0+0               1
GRID*                  5               0-7.07106781187-1 7.07106781187-1*
*                  0.0+0               3
GRID*                  6               0-9.23879532511-1-3.82683432365-1*
*                  5.0-1               4
GRID*                  7               0-3.82683432365-1 9.23879532511-1*
*                  5.0-1               5
GRID*                  8               0-3.82683432365-1 9.23879532511-1*
*                  0.0+0               5
GRID*                  9               0-7.07106781187-1 7.07106781187-1*
*                  5.0-1               6
GRID*                 10               0 3.82683432365-1 9.23879532511-1*
*                  0.0+0               7
GRID          11       0   0.0+0   1.0+0   5.0-1       0
GRID          12       0  -1.0+0   0.0+0   0.0+0       8
GRID*                 13               0-9.23879532511-1 3.82683432365-1*
*                  5.0-1               9
GRID*                 14               0-9.23879532511-1 3.82683432365-1*
*                  0.0+0              10
GRID*                 15               0 3.82683432365-1 9.23879532511-1*
*                  5.0-1               7
GRID*                 16               0-7.07106781187-1-7.07106781187-1*
*                  5.0-1               1
GRID          17       0  -1.0+0   0.0+0   5.0-1      11
GRID          18       0   0.0+0   1.0+0   0.0+0       0
PARAM    STR_CID      -2
$--1---><--2---><--3---><--4---><--5---><--6---><--7---><--8---><--9---><--10-->
$$$$$$$$$$$$$$$$$$$$$$$$$$$$$$$$$$$ Material $$$$$$$$$$$$$$$$$$$$$$$$$$$$$$$$$$$
MAT1*                  1          2.0+11 7.4074074074+10           3.5-1*
*                  0.0+0           1.7-4        3.7315+2
$--1---><--2---><--3---><--4---><--5---><--6---><--7---><--8---><--9---><--10-->
CORD2R*                1               0           0.0+0           0.0+0*
*                  0.0+0           0.0+0           0.0+0           1.0+0*
*        7.07106781187-1-7.07106781187-1           0.0+0                *
*
CORD2R*                2               0           0.0+0           0.0+0*
*                  0.0+0           0.0+0           0.0+0           1.0+0*
*        9.47173305895-1 3.20722198483-1           0.0+0                *
*
CORD2R*                3               0           0.0+0           0.0+0*
*                  0.0+0           0.0+0           0.0+0           1.0+0*
*        7.07106781187-1 7.07106781187-1           0.0+0                *
*
CORD2R*                4               0           0.0+0           0.0+0*
*                  0.0+0           0.0+0           0.0+0           1.0+0*
*        8.96537508982-1 4.42967826133-1           0.0+0                *
*
CORD2R*                5               0           0.0+0           0.0+0*
*                  0.0+0           0.0+0           0.0+0           1.0+0*
*        9.23879532511-1 3.82683432365-1           0.0+0                *
*
CORD2R*                6               0           0.0+0           0.0+0*
*                  0.0+0           0.0+0           0.0+0           1.0+0*
*        7.52338959307-1-6.58776206545-1           0.0+0                *
*
CORD2R*                7               0           0.0+0           0.0+0*
*                  0.0+0           0.0+0           0.0+0           1.0+0*
*        9.23879532511-1-3.82683432365-1           0.0+0                *
*
CORD2R*                8               0           0.0+0           0.0+0*
*                  0.0+0           0.0+0           0.0+0           1.0+0*
*        9.97809102809-1-6.61588569442-2           0.0+0                *
*
CORD2R*                9               0           0.0+0           0.0+0*
*                  0.0+0           0.0+0           0.0+0           1.0+0*
*        9.47173305895-1-3.20722198483-1           0.0+0                *
*
CORD2R*               10               0           0.0+0           0.0+0*
*                  0.0+0           0.0+0           0.0+0           1.0+0*
*        8.96537508982-1-4.42967826133-1           0.0+0                *
*
CORD2R*               11               0           0.0+0           0.0+0*
*                  0.0+0           0.0+0           0.0+0           1.0+0*
*        9.97809102809-1 6.61588569442-2           0.0+0                *
*
SPC            1       1       1   0.0+0
SPC            1       1       3   0.0+0
SPC            1       1       4   0.0+0
SPC            1       1       6   0.0+0
SPC            1       1       5   0.0+0
SPC            1       2       3   0.0+0
SPC            1       2       5   0.0+0
SPC            1       2       4   0.0+0
SPC            1       3       1   0.0+0
SPC            1       3       3   0.0+0
SPC            1       3       4   0.0+0
SPC            1       3       6   0.0+0
SPC            1       3       5   0.0+0
SPC            1       4       1   0.0+0
SPC            1       4       3   0.0+0
SPC            1       4       4   0.0+0
SPC            1       4       6   0.0+0
SPC            1       4       5   0.0+0
SPC            1       5       1   0.0+0
SPC            1       5       3   0.0+0
SPC            1       5       4   0.0+0
SPC            1       5       5   0.0+0
SPC            1       6       3   0.0+0
SPC            1       6       5   0.0+0
SPC            1       6       4   0.0+0
SPC            1       7       3   0.0+0
SPC            1       7       4   0.0+0
SPC            1       7       5   0.0+0
SPC            1       8       3   0.0+0
SPC            1       8       4   0.0+0
SPC            1       8       5   0.0+0
SPC            1       9       3   0.0+0
SPC            1       9       5   0.0+0
SPC            1       9       4   0.0+0
SPC            1      10       3   0.0+0
SPC            1      10       4   0.0+0
SPC            1      10       5   0.0+0
SPC            1      11       3   0.0+0
SPC            1      11       4   0.0+0
SPC            1      11       5   0.0+0
SPC            1      12       3   0.0+0
SPC            1      12       5   0.0+0
SPC            1      12       4   0.0+0
SPC            1      13       3   0.0+0
SPC            1      13       5   0.0+0
SPC            1      13       4   0.0+0
SPC            1      14       3   0.0+0
SPC            1      14       5   0.0+0
SPC            1      14       4   0.0+0
SPC            1      15       3   0.0+0
SPC            1      15       4   0.0+0
SPC            1      15       5   0.0+0
SPC            1      16       1   0.0+0
SPC            1      16       3   0.0+0
SPC            1      16       4   0.0+0
SPC            1      16       6   0.0+0
SPC            1      16       5   0.0+0
SPC            1      17       3   0.0+0
SPC            1      17       5   0.0+0
SPC            1      17       4   0.0+0
SPC            1      18       3   0.0+0
SPC            1      18       4   0.0+0
SPC            1      18       5   0.0+0
$--1---><--2---><--3---><--4---><--5---><--6---><--7---><--8---><--9---><--10-->
$$$$$$$$$$$$$$$$$$$$$$$$$$$$$$$$$$$ Default $$$$$$$$$$$$$$$$$$$$$$$$$$$$$$$$$$$$
PSHELL        12       1   3.0-1       1               1           0.0+0
CQUAD4         1      12       5       8       7       9   0.0+0   0.0+0
CQUAD4         2      12       8      18      11       7   0.0+0   0.0+0
CQUAD4         4      12      18      10      15      11   0.0+0   0.0+0
CQUAD4         6      12      10       1       3      15   0.0+0   0.0+0
PSHELL        13       1   3.0-1       1               1           0.0+0
CTRIA3*                3              13              14               9*
*                     13 4.4115560734-15           0.0+0
CTRIA3*                5              13              12              13*
*                     17-3.2745650743-15           0.0+0
CTRIA3*                7              13               2              17*
*                      6-3.2745650743-15           0.0+0
CTRIA3*                8              13               4               6*
*                     16 4.4115560734-15           0.0+0
CTRIA3         9      13       4       2       6   0.0+0   0.0+0
CTRIA3        10      13       2      12      17   0.0+0   0.0+0
CTRIA3        11      13      12      14      13   0.0+0   0.0+0
CTRIA3        12      13      14       5       9   0.0+0   0.0+0
$--1---><--2---><--3---><--4---><--5---><--6---><--7---><--8---><--9---><--10-->
$$$$$$$$$$$$$$$$$$$$$$$$$$$$$$$$$ temperature $$$$$$$$$$$$$$$$$$$$$$$$$$$$$$$$$$
TEMP*                  1               8        2.7315+2                *
*
TEMP*                  1              18        2.7315+2                *
*
TEMP*                  1              11        2.7315+2                *
*
TEMP*                  1               7        2.7315+2                *
*
TEMP*                  1              10        2.7315+2                *
*
TEMP*                  1              15        2.7315+2                *
*
TEMP*                  1              14        2.7315+2                *
*
TEMP*                  1               5        2.7315+2                *
*
TEMP*                  1               9        2.7315+2                *
*
TEMP*                  1               1        2.7315+2                *
*
TEMP*                  1               3        2.7315+2                *
*
TEMP*                  1              12        2.7315+2                *
*
TEMP*                  1              13        2.7315+2                *
*
TEMP*                  1               2        2.7315+2                *
*
TEMP*                  1              17        2.7315+2                *
*
TEMP*                  1               4        2.7315+2                *
*
TEMP*                  1               6        2.7315+2                *
*
TEMP*                  1              16        2.7315+2                *
*
$--1---><--2---><--3---><--4---><--5---><--6---><--7---><--8---><--9---><--10-->
TEMPD*                 1        3.7315+2                                *
*
$--1---><--2---><--3---><--4---><--5---><--6---><--7---><--8---><--9---><--10-->
ENDDATA 
