$ Generated by Mecway 29
$-------------EXECUTIVE CONTROL SECTION-------------
SOL 105
CEND
$---------------CASE CONTROL SECTION----------------
DISPLACEMENT = ALL
$
  ACCELERATION(PRINT,PLOT) = ALL
  DISPLACEMENT(PRINT, PLOT) = ALL
  GPFORCE(PRINT, PLOT) = ALL
  MPCFORCES(PRINT, PLOT) = ALL
  OLOAD(PRINT, PLOT)= ALL
  SPCFORCES(PRINT, PLOT) = ALL
  FORCE(PRINT, PLOT) = ALL
  STRESS(PRINT, PLOT, CORNER)= ALL
  STRAIN(PRINT, PLOT, CORNER)= ALL
$
SPC = 1
SUBCASE 1
LOAD = 1
SUBCASE 2
METHOD = 1
BEGIN BULK
$-----------------BULK DATA SECTION-----------------
$
  PARAM, POST,-1
$
GRID*                  1               0          0.0+00          0.0+00*       
*                 0.0+00               0
GRID*                  2               0          0.0+00         6.25-01*       
*                 0.0+00               0
GRID*                  3               0          5.0-02         6.25-01*       
*                 0.0+00               0
GRID*                  4               0          0.0+00          1.0+00*       
*                 0.0+00               0
GRID*                  5               0          5.0-02          0.0+00*       
*                 0.0+00               0
GRID*                  6               0          0.0+00         3.75-01*       
*                 0.0+00               0
GRID*                  7               0          5.0-02          2.5-01*       
*                 0.0+00               0
GRID*                  8               0          0.0+00          5.0-01*       
*                 0.0+00               0
GRID*                  9               0          0.0+00         1.25-01*       
*                 0.0+00               0
GRID*                 10               0          5.0-02         1.25-01*       
*                 0.0+00               0
GRID*                 11               0          5.0-02         3.75-01*       
*                 0.0+00               0
GRID*                 12               0          5.0-02          1.0+00*       
*                 0.0+00               0
GRID*                 13               0          0.0+00          7.5-01*       
*                 0.0+00               0
GRID*                 14               0          0.0+00         8.75-01*       
*                 0.0+00               0
GRID*                 15               0          5.0-02          5.0-01*       
*                 0.0+00               0
GRID*                 16               0          5.0-02         8.75-01*       
*                 0.0+00               0
GRID*                 17               0          0.0+00          2.5-01*       
*                 0.0+00               0
GRID*                 18               0          5.0-02          7.5-01*       
*                 0.0+00               0
$--1---><------2-------><------3-------><------4-------><------5-------><--6--->
$$$$$$$$$$$$$$$$$$$$$$$$$$$$$$$$$$$ Material $$$$$$$$$$$$$$$$$$$$$$$$$$$$$$$$$$$
MAT8*                  1          5.0+10          5.0+10          0.0+00*       
*                 2.5+10          2.5+10          2.5+10          0.0+00*       
*                 0.0+00          0.0+00          0.0+00                *       
*                                                                       
MAT8*                  2          2.0+11          2.0+11          0.0+00*       
*                 1.0+11          1.0+11          1.0+11          0.0+00*       
*                 0.0+00          0.0+00          0.0+00                *       
*                                                                       
MAT8*                  3          5.0+10          5.0+10          0.0+00*       
*                 2.5+10          2.5+10          2.5+10          0.0+00*       
*                 0.0+00          0.0+00          0.0+00                *       
*                                                                       
$--1---><------2-------><------3-------><------4-------><------5-------><--6--->
SPC*                   1               1               1          0.0+00*       
*                                                                       
SPC*                   1               1               3          0.0+00*       
*                                                                       
SPC*                   1               1               2          0.0+00*       
*                                                                       
SPC*                   1               1               4          0.0+00*       
*                                                                       
SPC*                   1               1               6          0.0+00*       
*                                                                       
SPC*                   1               5               2          0.0+00*       
*                                                                       
SPC*                   1               5               3          0.0+00*       
*                                                                       
SPC*                   1               5               4          0.0+00*       
*                                                                       
SPC*                   1               5               6          0.0+00*       
*                                                                       
$--1---><------2-------><------3-------><------4-------><------5-------><--6--->
$$$$$$$$$$$$$$$$$$$$$$$$$$$$$$$$$$$ Default $$$$$$$$$$$$$$$$$$$$$$$$$$$$$$$$$$$$
PCOMP*                 1                                                *       
*                                 0.0+00                             SYM*       
*                      1          5.0-03          0.0+00                *       
*                      2          5.0-03          0.0+00                
CQUAD4*                1               1               1               5*       
*                     10               9          0.0+00          0.0+00
CQUAD4*                2               1              10               7*       
*                     17               9         -9.0+01          0.0+00
CQUAD4*                3               1               7              11*       
*                      6              17         -9.0+01          0.0+00
CQUAD4*                4               1              11              15*       
*                      8               6         -9.0+01          0.0+00
CQUAD4*                5               1              15               3*       
*                      2               8         -9.0+01          0.0+00
CQUAD4*                6               1               3              18*       
*                     13               2         -9.0+01          0.0+00
CQUAD4*                7               1              18              16*       
*                     14              13         -9.0+01          0.0+00
CQUAD4*                8               1              16              12*       
*                      4              14         -9.0+01          0.0+00
$--1---><------2-------><------3-------><------4-------><------5-------><--6--->
$$$$$$$$$$$$$$$$$$$$$$$$$$$$$$$$$$$$ force $$$$$$$$$$$$$$$$$$$$$$$$$$$$$$$$$$$$$
FORCE*                 1              12               0          1.0+00*       
*                 0.0+00         -5.0-01          0.0+00
FORCE*                 1               4               0          1.0+00*       
*                 0.0+00         -5.0-01          0.0+00
$--1---><------2-------><------3-------><------4-------><------5-------><--6--->
EIGRL*                 1                                               3*       
*                      0                          1.0+03            MASS
PARAM*            IORQ2T               2                                *       
*                                                                       
ENDDATA
