$ Generated by Mecway 29
$-------------EXECUTIVE CONTROL SECTION-------------
SOL 105
CEND
$---------------CASE CONTROL SECTION----------------
DISPLACEMENT = ALL
$
  ACCELERATION(PRINT,PLOT) = ALL
  DISPLACEMENT(PRINT, PLOT) = ALL
  GPFORCE(PRINT, PLOT) = ALL
  MPCFORCES(PRINT, PLOT) = ALL
  OLOAD(PRINT, PLOT)= ALL
  SPCFORCES(PRINT, PLOT) = ALL
  FORCE(PRINT, PLOT) = ALL
  STRESS(PRINT, PLOT, CORNER)= ALL
  STRAIN(PRINT, PLOT, CORNER)= ALL
$
SPC = 1
SUBCASE 1
LOAD = 1
SUBCASE 2
METHOD = 1
BEGIN BULK
$-----------------BULK DATA SECTION-----------------
$
  PARAM, POST,-1
$
GRID*                  1               0-4.5315389352-02-2.1130913087-02*       
*                 0.0+00               0
GRID*                  2               0-1.5138140653-01 8.4935104091-02*       
*                 0.0+00               0
GRID*                  3               0  -1.33703737-01 6.7257434561-02*       
*                 0.0+00               0
GRID*                  4               0-1.4431033872-01 9.2006171903-02*       
*                 0.0+00               0
GRID*                  5               0-8.0670728411-02 1.4224425972-02*       
*                 0.0+00               0
GRID*                  6               0-9.8348397941-02 3.1902095502-02*       
*                 0.0+00               0
GRID*                  7               0 -3.824432154-02-1.4059845275-02*       
*                 0.0+00               0
GRID*                  8               0-1.7966567778-01 1.2736151096-01*       
*                 0.0+00               0
GRID*                  9               0-9.1277330129-02 3.8973163314-02*       
*                 0.0+00               0
GRID*                 10               0-1.6905907606-01 1.0261277362-01*       
*                 0.0+00               0
GRID*                 11               0-1.6198800825-01 1.0968384143-01*       
*                 0.0+00               0
GRID*                 12               0-1.1602606747-01 4.9579765032-02*       
*                 0.0+00               0
GRID*                 13               0-7.3599660599-02 2.1295493784-02*       
*                 0.0+00               0
GRID*                 14               0 -5.592199107-02 3.6178242545-03*       
*                 0.0+00               0
GRID*                 15               0-1.0895499966-01 5.6650832843-02*       
*                 0.0+00               0
GRID*                 16               0-6.2993058881-02-3.4532435574-03*       
*                 0.0+00               0
GRID*                 17               0-1.8673674559-01 1.2029044315-01*       
*                 0.0+00               0
GRID*                 18               0-1.2663266919-01 7.4328502373-02*       
*                 0.0+00               0
GRID*                 19               0 4.6984631039-02-1.7101007166-02*       
*                 0.0+00               0
GRID*                 20               0 4.6984631039-02 5.7898992834-02*       
*                 0.0+00               0
GRID*                 21               0 4.6984631039-02 8.2898992834-02*       
*                 0.0+00               0
GRID*                 22               0 4.6984631039-02 1.8289899283-01*       
*                 0.0+00               0
GRID*                 23               0 5.6984631039-02 5.7898992834-02*       
*                 0.0+00               0
GRID*                 24               0 4.6984631039-02 7.8989928337-03*       
*                 0.0+00               0
GRID*                 25               0 4.6984631039-02 1.3289899283-01*       
*                 0.0+00               0
GRID*                 26               0 4.6984631039-02 1.0789899283-01*       
*                 0.0+00               0
GRID*                 27               0 4.6984631039-02 3.2898992834-02*       
*                 0.0+00               0
GRID*                 28               0 5.6984631039-02 1.0789899283-01*       
*                 0.0+00               0
GRID*                 29               0 5.6984631039-02 1.3289899283-01*       
*                 0.0+00               0
GRID*                 30               0 5.6984631039-02-1.7101007166-02*       
*                 0.0+00               0
GRID*                 31               0 5.6984631039-02 1.8289899283-01*       
*                 0.0+00               0
GRID*                 32               0 4.6984631039-02 1.5789899283-01*       
*                 0.0+00               0
GRID*                 33               0 5.6984631039-02 1.5789899283-01*       
*                 0.0+00               0
GRID*                 34               0 5.6984631039-02 3.2898992834-02*       
*                 0.0+00               0
GRID*                 35               0 5.6984631039-02 7.8989928337-03*       
*                 0.0+00               0
GRID*                 36               0 5.6984631039-02 8.2898992834-02*       
*                 0.0+00               0
PARAM*          QUAD4TYP           MIN4T                                *       
*                                                                       
$--1---><------2-------><------3-------><------4-------><------5-------><--6--->
$$$$$$$$$$$$$$$$$$$$$$$$$$$$$$$$$$$ Material $$$$$$$$$$$$$$$$$$$$$$$$$$$$$$$$$$$
MAT1*                  1          5.0+10          2.5+10          0.0+00*       
*                 0.0+00          6.0-04          0.0+00
$--1---><------2-------><------3-------><------4-------><------5-------><--6--->
SPC*                   1               1               1          0.0+00*       
*                                                                       
SPC*                   1               1               2          0.0+00*       
*                                                                       
SPC*                   1               1               3          0.0+00*       
*                                                                       
SPC*                   1               1               4          0.0+00*       
*                                                                       
SPC*                   1               1               5          0.0+00*       
*                                                                       
SPC*                   1               1               6          0.0+00*       
*                                                                       
SPC*                   1               7               1          0.0+00*       
*                                                                       
SPC*                   1               7               2          0.0+00*       
*                                                                       
SPC*                   1               7               3          0.0+00*       
*                                                                       
SPC*                   1               7               4          0.0+00*       
*                                                                       
SPC*                   1               7               5          0.0+00*       
*                                                                       
SPC*                   1               7               6          0.0+00*       
*                                                                       
SPC*                   1              19               1          0.0+00*       
*                                                                       
SPC*                   1              19               2          0.0+00*       
*                                                                       
SPC*                   1              19               3          0.0+00*       
*                                                                       
SPC*                   1              19               4          0.0+00*       
*                                                                       
SPC*                   1              19               5          0.0+00*       
*                                                                       
SPC*                   1              19               6          0.0+00*       
*                                                                       
SPC*                   1              30               1          0.0+00*       
*                                                                       
SPC*                   1              30               2          0.0+00*       
*                                                                       
SPC*                   1              30               3          0.0+00*       
*                                                                       
SPC*                   1              30               4          0.0+00*       
*                                                                       
SPC*                   1              30               5          0.0+00*       
*                                                                       
SPC*                   1              30               6          0.0+00*       
*                                                                       
$--1---><------2-------><------3-------><------4-------><------5-------><--6--->
$$$$$$$$$$$$$$$$$$$$$$$$$$$$$$$$$$$ Default $$$$$$$$$$$$$$$$$$$$$$$$$$$$$$$$$$$$
PSHELL*                1               1          1.0-05               1*       
*                                      1                          0.0+00
CQUAD4*                1               1              14               7*       
*                      1              16          0.0+00          0.0+00
CQUAD4*                2               1              12              15*       
*                     18               3          0.0+00          0.0+00
CQUAD4*                3               1               2               4*       
*                     11              10          0.0+00          0.0+00
CQUAD4*                4               1               9              13*       
*                      5               6          0.0+00          0.0+00
CQUAD4*                5               1               3              18*       
*                      4               2          0.0+00          0.0+00
CQUAD4*                6               1              15               9*       
*                      6              12          0.0+00          0.0+00
CQUAD4*                7               1              13              14*       
*                     16               5          0.0+00          0.0+00
CQUAD4*                8               1              10              11*       
*                      8              17          0.0+00          0.0+00
CQUAD4*                9               1              30              35*       
*                     24              19          0.0+00          0.0+00
CQUAD4*               10               1              34              23*       
*                     20              27          0.0+00          0.0+00
CQUAD4*               11               1              21              36*       
*                     28              26          0.0+00          0.0+00
CQUAD4*               12               1              35              34*       
*                     27              24          0.0+00          0.0+00
CQUAD4*               13               1              25              29*       
*                     33              32          0.0+00          0.0+00
CQUAD4*               14               1              26              28*       
*                     29              25          0.0+00          0.0+00
CQUAD4*               15               1              23              36*       
*                     21              20          0.0+00          0.0+00
CQUAD4*               16               1              32              33*       
*                     31              22          0.0+00          0.0+00
$--1---><------2-------><------3-------><------4-------><------5-------><--6--->
$$$$$$$$$$$$$$$$$$$$$$$$$$$$$$$$$$$$ force $$$$$$$$$$$$$$$$$$$$$$$$$$$$$$$$$$$$$
FORCE*                 1              31               0          1.0+00*       
*                 0.0+00         -5.0-01          0.0+00
FORCE*                 1              22               0          1.0+00*       
*                 0.0+00         -5.0-01          0.0+00
$--1---><------2-------><------3-------><------4-------><------5-------><--6--->
$$$$$$$$$$$$$$$$$$$$$$$$$$$$$$$$$$$$ force $$$$$$$$$$$$$$$$$$$$$$$$$$$$$$$$$$$$$
FORCE*                 1               8               0          1.0+00*       
*        3.5355339059-01-3.5355339059-01          0.0+00
FORCE*                 1              17               0          1.0+00*       
*        3.5355339059-01-3.5355339059-01          0.0+00
$--1---><------2-------><------3-------><------4-------><------5-------><--6--->
EIGRL*                 1                                               2*       
*                      0                          1.0-06            MASS
ENDDATA
