$ Generated by Mecway 29
$-------------EXECUTIVE CONTROL SECTION-------------
SOL 101
CEND
$---------------CASE CONTROL SECTION----------------
DISPLACEMENT = ALL
$
  ACCELERATION(PRINT,PLOT) = ALL
  DISPLACEMENT(PRINT, PLOT) = ALL
  GPFORCE(PRINT, PLOT) = ALL
  MPCFORCES(PRINT, PLOT) = ALL
  OLOAD(PRINT, PLOT)= ALL
  SPCFORCES(PRINT, PLOT) = ALL
  FORCE(PRINT, PLOT) = ALL
  STRESS(PRINT, PLOT, CORNER)= ALL
  STRAIN(PRINT, PLOT, CORNER)= ALL
$
SPC = 1
LOAD = 1
BEGIN BULK
$-----------------BULK DATA SECTION-----------------
$
  PARAM, POST,-1
$
GRID*                  1               0          0.0+00          0.0+00*       
*                 0.0+00               0
GRID*                  2               0          1.1+00          0.0+00*       
*                 0.0+00               0
GRID*                  3               0          1.1+00 6.5356684202-01*       
*        1.0064046815+00               0
GRID*                  4               0          0.0+00 6.5356684202-01*       
*        1.0064046815+00               0
GRID*                  5               0          1.1+00 3.2678342101-01*       
*        5.0320234077-01               0
GRID*                  6               0          5.5-01 6.5356684202-01*       
*        1.0064046815+00               0
GRID*                  7               0          0.0+00 3.2678342101-01*       
*        5.0320234077-01               0
GRID*                  8               0          5.5-01          0.0+00*       
*                 0.0+00               0
GRID*                  9               0          5.5-01 3.2678342101-01*       
*        5.0320234077-01               0
GRID*                 10               0          5.5-01  1.633917105-01*       
*        2.5160117038-01               0
GRID*                 11               0         2.75-01 3.2678342101-01*       
*        5.0320234077-01               0
GRID*                 12               0          0.0+00  1.633917105-01*       
*        2.5160117038-01               0
GRID*                 13               0         2.75-01          0.0+00*       
*                 0.0+00               0
GRID*                 14               0         2.75-01  1.633917105-01*       
*        2.5160117038-01               0
GRID*                 15               0          1.1+00  1.633917105-01*       
*        2.5160117038-01               0
GRID*                 16               0         8.25-01 3.2678342101-01*       
*        5.0320234077-01               0
GRID*                 17               0         8.25-01          0.0+00*       
*                 0.0+00               0
GRID*                 18               0         8.25-01  1.633917105-01*       
*        2.5160117038-01               0
GRID*                 19               0          1.1+00 4.9017513151-01*       
*        7.5480351115-01               0
GRID*                 20               0         8.25-01 6.5356684202-01*       
*        1.0064046815+00               0
GRID*                 21               0          5.5-01 4.9017513151-01*       
*        7.5480351115-01               0
GRID*                 22               0         8.25-01 4.9017513151-01*       
*        7.5480351115-01               0
GRID*                 23               0         2.75-01 6.5356684202-01*       
*        1.0064046815+00               0
GRID*                 24               0          0.0+00 4.9017513151-01*       
*        7.5480351115-01               0
GRID*                 25               0         2.75-01 4.9017513151-01*       
*        7.5480351115-01               0
GRID*                 26               0          5.5-01 4.0847927626-01*       
*        6.2900292596-01               0
GRID*                 27               0        4.125-01 4.9017513151-01*       
*        7.5480351115-01               0
GRID*                 28               0         2.75-01 4.0847927626-01*       
*        6.2900292596-01               0
GRID*                 29               0        4.125-01 3.2678342101-01*       
*        5.0320234077-01               0
GRID*                 30               0        4.125-01 4.0847927626-01*       
*        6.2900292596-01               0
GRID*                 31               0          5.5-01 5.7187098677-01*       
*        8.8060409634-01               0
GRID*                 32               0        4.125-01 6.5356684202-01*       
*        1.0064046815+00               0
GRID*                 33               0         2.75-01 5.7187098677-01*       
*        8.8060409634-01               0
GRID*                 34               0        4.125-01 5.7187098677-01*       
*        8.8060409634-01               0
GRID*                 35               0        1.375-01 6.5356684202-01*       
*        1.0064046815+00               0
GRID*                 36               0          0.0+00 5.7187098677-01*       
*        8.8060409634-01               0
GRID*                 37               0        1.375-01 4.9017513151-01*       
*        7.5480351115-01               0
GRID*                 38               0        1.375-01 5.7187098677-01*       
*        8.8060409634-01               0
GRID*                 39               0          0.0+00 4.0847927626-01*       
*        6.2900292596-01               0
GRID*                 40               0        1.375-01 3.2678342101-01*       
*        5.0320234077-01               0
GRID*                 41               0        1.375-01 4.0847927626-01*       
*        6.2900292596-01               0
GRID*                 42               0          5.5-01 8.1695855252-02*       
*        1.2580058519-01               0
GRID*                 43               0        4.125-01  1.633917105-01*       
*        2.5160117038-01               0
GRID*                 44               0         2.75-01 8.1695855252-02*       
*        1.2580058519-01               0
GRID*                 45               0        4.125-01          0.0+00*       
*                 0.0+00               0
GRID*                 46               0        4.125-01 8.1695855252-02*       
*        1.2580058519-01               0
GRID*                 47               0          5.5-01 2.4508756576-01*       
*        3.7740175558-01               0
GRID*                 48               0         2.75-01 2.4508756576-01*       
*        3.7740175558-01               0
GRID*                 49               0        4.125-01 2.4508756576-01*       
*        3.7740175558-01               0
GRID*                 50               0          0.0+00 2.4508756576-01*       
*        3.7740175558-01               0
GRID*                 51               0        1.375-01  1.633917105-01*       
*        2.5160117038-01               0
GRID*                 52               0        1.375-01 2.4508756576-01*       
*        3.7740175558-01               0
GRID*                 53               0          0.0+00 8.1695855252-02*       
*        1.2580058519-01               0
GRID*                 54               0        1.375-01          0.0+00*       
*                 0.0+00               0
GRID*                 55               0        1.375-01 8.1695855252-02*       
*        1.2580058519-01               0
GRID*                 56               0          1.1+00 8.1695855252-02*       
*        1.2580058519-01               0
GRID*                 57               0        9.625-01  1.633917105-01*       
*        2.5160117038-01               0
GRID*                 58               0         8.25-01 8.1695855252-02*       
*        1.2580058519-01               0
GRID*                 59               0        9.625-01          0.0+00*       
*                 0.0+00               0
GRID*                 60               0        9.625-01 8.1695855252-02*       
*        1.2580058519-01               0
GRID*                 61               0          1.1+00 2.4508756576-01*       
*        3.7740175558-01               0
GRID*                 62               0        9.625-01 3.2678342101-01*       
*        5.0320234077-01               0
GRID*                 63               0         8.25-01 2.4508756576-01*       
*        3.7740175558-01               0
GRID*                 64               0        9.625-01 2.4508756576-01*       
*        3.7740175558-01               0
GRID*                 65               0        6.875-01 3.2678342101-01*       
*        5.0320234077-01               0
GRID*                 66               0        6.875-01  1.633917105-01*       
*        2.5160117038-01               0
GRID*                 67               0        6.875-01 2.4508756576-01*       
*        3.7740175558-01               0
GRID*                 68               0        6.875-01          0.0+00*       
*                 0.0+00               0
GRID*                 69               0        6.875-01 8.1695855252-02*       
*        1.2580058519-01               0
GRID*                 70               0          1.1+00 4.0847927626-01*       
*        6.2900292596-01               0
GRID*                 71               0        9.625-01 4.9017513151-01*       
*        7.5480351115-01               0
GRID*                 72               0         8.25-01 4.0847927626-01*       
*        6.2900292596-01               0
GRID*                 73               0        9.625-01 4.0847927626-01*       
*        6.2900292596-01               0
GRID*                 74               0          1.1+00 5.7187098677-01*       
*        8.8060409634-01               0
GRID*                 75               0        9.625-01 6.5356684202-01*       
*        1.0064046815+00               0
GRID*                 76               0         8.25-01 5.7187098677-01*       
*        8.8060409634-01               0
GRID*                 77               0        9.625-01 5.7187098677-01*       
*        8.8060409634-01               0
GRID*                 78               0        6.875-01 6.5356684202-01*       
*        1.0064046815+00               0
GRID*                 79               0        6.875-01 4.9017513151-01*       
*        7.5480351115-01               0
GRID*                 80               0        6.875-01 5.7187098677-01*       
*        8.8060409634-01               0
GRID*                 81               0        6.875-01 4.0847927626-01*       
*        6.2900292596-01               0
$--1---><------2-------><------3-------><------4-------><------5-------><--6--->
$$$$$$$$$$$$$$$$$$$$$$$$$$$$$$$$$$$ Material $$$$$$$$$$$$$$$$$$$$$$$$$$$$$$$$$$$
MAT8*                  1          1.0+00          3.0+00          4.0-01*       
*                 2.0-01          3.3-01          6.0-01          0.0+00*       
*                 0.0+00          0.0+00          0.0+00                *       
*                                                                       
$--1---><------2-------><------3-------><------4-------><------5-------><--6--->
SPC*                   1               1               1          0.0+00*       
*                                                                       
SPC*                   1               1               2          0.0+00*       
*                                                                       
SPC*                   1               1               3          0.0+00*       
*                                                                       
SPC*                   1               1               4          0.0+00*       
*                                                                       
SPC*                   1               1               5          0.0+00*       
*                                                                       
SPC*                   1               1               6          0.0+00*       
*                                                                       
SPC*                   1               2               1          0.0+00*       
*                                                                       
SPC*                   1               2               2          0.0+00*       
*                                                                       
SPC*                   1               2               3          0.0+00*       
*                                                                       
SPC*                   1               2               4          0.0+00*       
*                                                                       
SPC*                   1               2               5          0.0+00*       
*                                                                       
SPC*                   1               2               6          0.0+00*       
*                                                                       
SPC*                   1               8               1          0.0+00*       
*                                                                       
SPC*                   1               8               2          0.0+00*       
*                                                                       
SPC*                   1               8               3          0.0+00*       
*                                                                       
SPC*                   1               8               4          0.0+00*       
*                                                                       
SPC*                   1               8               5          0.0+00*       
*                                                                       
SPC*                   1               8               6          0.0+00*       
*                                                                       
SPC*                   1              13               1          0.0+00*       
*                                                                       
SPC*                   1              13               2          0.0+00*       
*                                                                       
SPC*                   1              13               3          0.0+00*       
*                                                                       
SPC*                   1              13               4          0.0+00*       
*                                                                       
SPC*                   1              13               5          0.0+00*       
*                                                                       
SPC*                   1              13               6          0.0+00*       
*                                                                       
SPC*                   1              17               1          0.0+00*       
*                                                                       
SPC*                   1              17               2          0.0+00*       
*                                                                       
SPC*                   1              17               3          0.0+00*       
*                                                                       
SPC*                   1              17               4          0.0+00*       
*                                                                       
SPC*                   1              17               5          0.0+00*       
*                                                                       
SPC*                   1              17               6          0.0+00*       
*                                                                       
SPC*                   1              45               1          0.0+00*       
*                                                                       
SPC*                   1              45               2          0.0+00*       
*                                                                       
SPC*                   1              45               3          0.0+00*       
*                                                                       
SPC*                   1              45               4          0.0+00*       
*                                                                       
SPC*                   1              45               5          0.0+00*       
*                                                                       
SPC*                   1              45               6          0.0+00*       
*                                                                       
SPC*                   1              54               1          0.0+00*       
*                                                                       
SPC*                   1              54               2          0.0+00*       
*                                                                       
SPC*                   1              54               3          0.0+00*       
*                                                                       
SPC*                   1              54               4          0.0+00*       
*                                                                       
SPC*                   1              54               5          0.0+00*       
*                                                                       
SPC*                   1              54               6          0.0+00*       
*                                                                       
SPC*                   1              59               1          0.0+00*       
*                                                                       
SPC*                   1              59               2          0.0+00*       
*                                                                       
SPC*                   1              59               3          0.0+00*       
*                                                                       
SPC*                   1              59               4          0.0+00*       
*                                                                       
SPC*                   1              59               5          0.0+00*       
*                                                                       
SPC*                   1              59               6          0.0+00*       
*                                                                       
SPC*                   1              68               1          0.0+00*       
*                                                                       
SPC*                   1              68               2          0.0+00*       
*                                                                       
SPC*                   1              68               3          0.0+00*       
*                                                                       
SPC*                   1              68               4          0.0+00*       
*                                                                       
SPC*                   1              68               5          0.0+00*       
*                                                                       
SPC*                   1              68               6          0.0+00*       
*                                                                       
$--1---><------2-------><------3-------><------4-------><------5-------><--6--->
$$$$$$$$$$$$$$$$$$$$$$$$$$$$$$$$$$$ Default $$$$$$$$$$$$$$$$$$$$$$$$$$$$$$$$$$$$
PSHELL*                1               1          2.0-01               1*       
*                                      1                          0.0+00
CQUAD4*                1               1               2              56*       
*                     60              59               2          0.0+00
CORD2R*                2               0          0.0+00          0.0+00*       
*                 0.0+00 -4.472135955-01   8.94427191-01          0.0+00*       
*                 2.0+00          1.0+00          0.0+00                *       
*                                                                       
CQUAD4*                2               1              56              15*       
*                     57              60               3          0.0+00
CORD2R*                3               0          0.0+00          0.0+00*       
*                 0.0+00 -4.472135955-01   8.94427191-01          0.0+00*       
*                 2.0+00          1.0+00          0.0+00                *       
*                                                                       
CQUAD4*                3               1              60              57*       
*                     18              58               4          0.0+00
CORD2R*                4               0          0.0+00          0.0+00*       
*                 0.0+00 -4.472135955-01   8.94427191-01          0.0+00*       
*                 2.0+00          1.0+00          0.0+00                *       
*                                                                       
CQUAD4*                4               1              60              58*       
*                     17              59               5          0.0+00
CORD2R*                5               0          0.0+00          0.0+00*       
*                 0.0+00 -4.472135955-01   8.94427191-01          0.0+00*       
*                 2.0+00          1.0+00          0.0+00                *       
*                                                                       
CQUAD4*                5               1              15              61*       
*                     64              57               6          0.0+00
CORD2R*                6               0          0.0+00          0.0+00*       
*                 0.0+00 -4.472135955-01   8.94427191-01          0.0+00*       
*                 2.0+00          1.0+00          0.0+00                *       
*                                                                       
CQUAD4*                6               1              57              64*       
*                     63              18               7          0.0+00
CORD2R*                7               0          0.0+00          0.0+00*       
*                 0.0+00 -4.472135955-01   8.94427191-01          0.0+00*       
*                 2.0+00          1.0+00          0.0+00                *       
*                                                                       
CQUAD4*                7               1              18              63*       
*                     67              66               8          0.0+00
CORD2R*                8               0          0.0+00          0.0+00*       
*                 0.0+00 -4.472135955-01   8.94427191-01          0.0+00*       
*                 2.0+00          1.0+00          0.0+00                *       
*                                                                       
CQUAD4*                8               1              18              66*       
*                     69              58               9          0.0+00
CORD2R*                9               0          0.0+00          0.0+00*       
*                 0.0+00 -4.472135955-01   8.94427191-01          0.0+00*       
*                 2.0+00          1.0+00          0.0+00                *       
*                                                                       
CQUAD4*                9               1              58              69*       
*                     68              17              10          0.0+00
CORD2R*               10               0          0.0+00          0.0+00*       
*                 0.0+00 -4.472135955-01   8.94427191-01          0.0+00*       
*                 2.0+00          1.0+00          0.0+00                *       
*                                                                       
CQUAD4*               10               1              61               5*       
*                     62              64              11          0.0+00
CORD2R*               11               0          0.0+00          0.0+00*       
*                 0.0+00 -4.472135955-01   8.94427191-01          0.0+00*       
*                 2.0+00          1.0+00          0.0+00                *       
*                                                                       
CQUAD4*               11               1              64              62*       
*                     16              63              12          0.0+00
CORD2R*               12               0          0.0+00          0.0+00*       
*                 0.0+00 -4.472135955-01   8.94427191-01          0.0+00*       
*                 2.0+00          1.0+00          0.0+00                *       
*                                                                       
CQUAD4*               12               1              63              16*       
*                     65              67              13          0.0+00
CORD2R*               13               0          0.0+00          0.0+00*       
*                 0.0+00 -4.472135955-01   8.94427191-01          0.0+00*       
*                 2.0+00          1.0+00          0.0+00                *       
*                                                                       
CQUAD4*               13               1              67              65*       
*                      9              47              14          0.0+00
CORD2R*               14               0          0.0+00          0.0+00*       
*                 0.0+00 -4.472135955-01   8.94427191-01          0.0+00*       
*                 2.0+00          1.0+00          0.0+00                *       
*                                                                       
CQUAD4*               14               1              67              47*       
*                     10              66              15          0.0+00
CORD2R*               15               0          0.0+00          0.0+00*       
*                 0.0+00 -4.472135955-01   8.94427191-01          0.0+00*       
*                 2.0+00          1.0+00          0.0+00                *       
*                                                                       
CQUAD4*               15               1              66              10*       
*                     42              69              16          0.0+00
CORD2R*               16               0          0.0+00          0.0+00*       
*                 0.0+00 -4.472135955-01   8.94427191-01          0.0+00*       
*                 2.0+00          1.0+00          0.0+00                *       
*                                                                       
CQUAD4*               16               1              69              42*       
*                      8              68              17          0.0+00
CORD2R*               17               0          0.0+00          0.0+00*       
*                 0.0+00 -4.472135955-01   8.94427191-01          0.0+00*       
*                 2.0+00          1.0+00          0.0+00                *       
*                                                                       
CQUAD4*               17               1               5              70*       
*                     73              62              18          0.0+00
CORD2R*               18               0          0.0+00          0.0+00*       
*                 0.0+00 -4.472135955-01   8.94427191-01          0.0+00*       
*                 2.0+00          1.0+00          0.0+00                *       
*                                                                       
CQUAD4*               18               1              62              73*       
*                     72              16              19          0.0+00
CORD2R*               19               0          0.0+00          0.0+00*       
*                 0.0+00 -4.472135955-01   8.94427191-01          0.0+00*       
*                 2.0+00          1.0+00          0.0+00                *       
*                                                                       
CQUAD4*               19               1              16              72*       
*                     81              65              20          0.0+00
CORD2R*               20               0          0.0+00          0.0+00*       
*                 0.0+00 -4.472135955-01   8.94427191-01          0.0+00*       
*                 2.0+00          1.0+00          0.0+00                *       
*                                                                       
CQUAD4*               20               1              65              81*       
*                     26               9              21          0.0+00
CORD2R*               21               0          0.0+00          0.0+00*       
*                 0.0+00 -4.472135955-01   8.94427191-01          0.0+00*       
*                 2.0+00          1.0+00          0.0+00                *       
*                                                                       
CQUAD4*               21               1               9              26*       
*                     30              29              22          0.0+00
CORD2R*               22               0          0.0+00          0.0+00*       
*                 0.0+00 -4.472135955-01   8.94427191-01          0.0+00*       
*                 2.0+00          1.0+00          0.0+00                *       
*                                                                       
CQUAD4*               22               1               9              29*       
*                     49              47              23          0.0+00
CORD2R*               23               0          0.0+00          0.0+00*       
*                 0.0+00 -4.472135955-01   8.94427191-01          0.0+00*       
*                 2.0+00          1.0+00          0.0+00                *       
*                                                                       
CQUAD4*               23               1              47              49*       
*                     43              10              24          0.0+00
CORD2R*               24               0          0.0+00          0.0+00*       
*                 0.0+00 -4.472135955-01   8.94427191-01          0.0+00*       
*                 2.0+00          1.0+00          0.0+00                *       
*                                                                       
CQUAD4*               24               1              10              43*       
*                     46              42              25          0.0+00
CORD2R*               25               0          0.0+00          0.0+00*       
*                 0.0+00 -4.472135955-01   8.94427191-01          0.0+00*       
*                 2.0+00          1.0+00          0.0+00                *       
*                                                                       
CQUAD4*               25               1              42              46*       
*                     45               8              26          0.0+00
CORD2R*               26               0          0.0+00          0.0+00*       
*                 0.0+00 -4.472135955-01   8.94427191-01          0.0+00*       
*                 2.0+00          1.0+00          0.0+00                *       
*                                                                       
CQUAD4*               26               1              70              19*       
*                     71              73              27          0.0+00
CORD2R*               27               0          0.0+00          0.0+00*       
*                 0.0+00 -4.472135955-01   8.94427191-01          0.0+00*       
*                 2.0+00          1.0+00          0.0+00                *       
*                                                                       
CQUAD4*               27               1              73              71*       
*                     22              72              28          0.0+00
CORD2R*               28               0          0.0+00          0.0+00*       
*                 0.0+00 -4.472135955-01   8.94427191-01          0.0+00*       
*                 2.0+00          1.0+00          0.0+00                *       
*                                                                       
CQUAD4*               28               1              72              22*       
*                     79              81              29          0.0+00
CORD2R*               29               0          0.0+00          0.0+00*       
*                 0.0+00 -4.472135955-01   8.94427191-01          0.0+00*       
*                 2.0+00          1.0+00          0.0+00                *       
*                                                                       
CQUAD4*               29               1              81              79*       
*                     21              26              30          0.0+00
CORD2R*               30               0          0.0+00          0.0+00*       
*                 0.0+00 -4.472135955-01   8.94427191-01          0.0+00*       
*                 2.0+00          1.0+00          0.0+00                *       
*                                                                       
CQUAD4*               30               1              26              21*       
*                     27              30              31          0.0+00
CORD2R*               31               0          0.0+00          0.0+00*       
*                 0.0+00 -4.472135955-01   8.94427191-01          0.0+00*       
*                 2.0+00          1.0+00          0.0+00                *       
*                                                                       
CQUAD4*               31               1              30              27*       
*                     25              28              32          0.0+00
CORD2R*               32               0          0.0+00          0.0+00*       
*                 0.0+00 -4.472135955-01   8.94427191-01          0.0+00*       
*                 2.0+00          1.0+00          0.0+00                *       
*                                                                       
CQUAD4*               32               1              30              28*       
*                     11              29              33          0.0+00
CORD2R*               33               0          0.0+00          0.0+00*       
*                 0.0+00 -4.472135955-01   8.94427191-01          0.0+00*       
*                 2.0+00          1.0+00          0.0+00                *       
*                                                                       
CQUAD4*               33               1              29              11*       
*                     48              49              34          0.0+00
CORD2R*               34               0          0.0+00          0.0+00*       
*                 0.0+00 -4.472135955-01   8.94427191-01          0.0+00*       
*                 2.0+00          1.0+00          0.0+00                *       
*                                                                       
CQUAD4*               34               1              49              48*       
*                     14              43              35          0.0+00
CORD2R*               35               0          0.0+00          0.0+00*       
*                 0.0+00 -4.472135955-01   8.94427191-01          0.0+00*       
*                 2.0+00          1.0+00          0.0+00                *       
*                                                                       
CQUAD4*               35               1              43              14*       
*                     44              46              36          0.0+00
CORD2R*               36               0          0.0+00          0.0+00*       
*                 0.0+00 -4.472135955-01   8.94427191-01          0.0+00*       
*                 2.0+00          1.0+00          0.0+00                *       
*                                                                       
CQUAD4*               36               1              46              44*       
*                     13              45              37          0.0+00
CORD2R*               37               0          0.0+00          0.0+00*       
*                 0.0+00 -4.472135955-01   8.94427191-01          0.0+00*       
*                 2.0+00          1.0+00          0.0+00                *       
*                                                                       
CQUAD4*               37               1              19              74*       
*                     77              71              38          0.0+00
CORD2R*               38               0          0.0+00          0.0+00*       
*                 0.0+00 -4.472135955-01   8.94427191-01          0.0+00*       
*                 2.0+00          1.0+00          0.0+00                *       
*                                                                       
CQUAD4*               38               1              71              77*       
*                     76              22              39          0.0+00
CORD2R*               39               0          0.0+00          0.0+00*       
*                 0.0+00 -4.472135955-01   8.94427191-01          0.0+00*       
*                 2.0+00          1.0+00          0.0+00                *       
*                                                                       
CQUAD4*               39               1              22              76*       
*                     80              79              40          0.0+00
CORD2R*               40               0          0.0+00          0.0+00*       
*                 0.0+00 -4.472135955-01   8.94427191-01          0.0+00*       
*                 2.0+00          1.0+00          0.0+00                *       
*                                                                       
CQUAD4*               40               1              79              80*       
*                     31              21              41          0.0+00
CORD2R*               41               0          0.0+00          0.0+00*       
*                 0.0+00 -4.472135955-01   8.94427191-01          0.0+00*       
*                 2.0+00          1.0+00          0.0+00                *       
*                                                                       
CQUAD4*               41               1              21              31*       
*                     34              27              42          0.0+00
CORD2R*               42               0          0.0+00          0.0+00*       
*                 0.0+00 -4.472135955-01   8.94427191-01          0.0+00*       
*                 2.0+00          1.0+00          0.0+00                *       
*                                                                       
CQUAD4*               42               1              27              34*       
*                     33              25              43          0.0+00
CORD2R*               43               0          0.0+00          0.0+00*       
*                 0.0+00 -4.472135955-01   8.94427191-01          0.0+00*       
*                 2.0+00          1.0+00          0.0+00                *       
*                                                                       
CQUAD4*               43               1              25              33*       
*                     38              37              44          0.0+00
CORD2R*               44               0          0.0+00          0.0+00*       
*                 0.0+00 -4.472135955-01   8.94427191-01          0.0+00*       
*                 2.0+00          1.0+00          0.0+00                *       
*                                                                       
CQUAD4*               44               1              25              37*       
*                     41              28              45          0.0+00
CORD2R*               45               0          0.0+00          0.0+00*       
*                 0.0+00 -4.472135955-01   8.94427191-01          0.0+00*       
*                 2.0+00          1.0+00          0.0+00                *       
*                                                                       
CQUAD4*               45               1              28              41*       
*                     40              11              46          0.0+00
CORD2R*               46               0          0.0+00          0.0+00*       
*                 0.0+00 -4.472135955-01   8.94427191-01          0.0+00*       
*                 2.0+00          1.0+00          0.0+00                *       
*                                                                       
CQUAD4*               46               1              11              40*       
*                     52              48              47          0.0+00
CORD2R*               47               0          0.0+00          0.0+00*       
*                 0.0+00 -4.472135955-01   8.94427191-01          0.0+00*       
*                 2.0+00          1.0+00          0.0+00                *       
*                                                                       
CQUAD4*               47               1              48              52*       
*                     51              14              48          0.0+00
CORD2R*               48               0          0.0+00          0.0+00*       
*                 0.0+00 -4.472135955-01   8.94427191-01          0.0+00*       
*                 2.0+00          1.0+00          0.0+00                *       
*                                                                       
CQUAD4*               48               1              14              51*       
*                     55              44              49          0.0+00
CORD2R*               49               0          0.0+00          0.0+00*       
*                 0.0+00 -4.472135955-01   8.94427191-01          0.0+00*       
*                 2.0+00          1.0+00          0.0+00                *       
*                                                                       
CQUAD4*               49               1              44              55*       
*                     54              13              50          0.0+00
CORD2R*               50               0          0.0+00          0.0+00*       
*                 0.0+00 -4.472135955-01   8.94427191-01          0.0+00*       
*                 2.0+00          1.0+00          0.0+00                *       
*                                                                       
CQUAD4*               50               1              74               3*       
*                     75              77              51          0.0+00
CORD2R*               51               0          0.0+00          0.0+00*       
*                 0.0+00 -4.472135955-01   8.94427191-01          0.0+00*       
*                 2.0+00          1.0+00          0.0+00                *       
*                                                                       
CQUAD4*               51               1              77              75*       
*                     20              76              52          0.0+00
CORD2R*               52               0          0.0+00          0.0+00*       
*                 0.0+00 -4.472135955-01   8.94427191-01          0.0+00*       
*                 2.0+00          1.0+00          0.0+00                *       
*                                                                       
CQUAD4*               52               1              76              20*       
*                     78              80              53          0.0+00
CORD2R*               53               0          0.0+00          0.0+00*       
*                 0.0+00 -4.472135955-01   8.94427191-01          0.0+00*       
*                 2.0+00          1.0+00          0.0+00                *       
*                                                                       
CQUAD4*               53               1              80              78*       
*                      6              31              54          0.0+00
CORD2R*               54               0          0.0+00          0.0+00*       
*                 0.0+00 -4.472135955-01   8.94427191-01          0.0+00*       
*                 2.0+00          1.0+00          0.0+00                *       
*                                                                       
CQUAD4*               54               1              31               6*       
*                     32              34              55          0.0+00
CORD2R*               55               0          0.0+00          0.0+00*       
*                 0.0+00 -4.472135955-01   8.94427191-01          0.0+00*       
*                 2.0+00          1.0+00          0.0+00                *       
*                                                                       
CQUAD4*               55               1              34              32*       
*                     23              33              56          0.0+00
CORD2R*               56               0          0.0+00          0.0+00*       
*                 0.0+00 -4.472135955-01   8.94427191-01          0.0+00*       
*                 2.0+00          1.0+00          0.0+00                *       
*                                                                       
CQUAD4*               56               1              33              23*       
*                     35              38              57          0.0+00
CORD2R*               57               0          0.0+00          0.0+00*       
*                 0.0+00 -4.472135955-01   8.94427191-01          0.0+00*       
*                 2.0+00          1.0+00          0.0+00                *       
*                                                                       
CQUAD4*               57               1              38              35*       
*                      4              36              58          0.0+00
CORD2R*               58               0          0.0+00          0.0+00*       
*                 0.0+00 -4.472135955-01   8.94427191-01          0.0+00*       
*                 2.0+00          1.0+00          0.0+00                *       
*                                                                       
CQUAD4*               58               1              38              36*       
*                     24              37              59          0.0+00
CORD2R*               59               0          0.0+00          0.0+00*       
*                 0.0+00 -4.472135955-01   8.94427191-01          0.0+00*       
*                 2.0+00          1.0+00          0.0+00                *       
*                                                                       
CQUAD4*               59               1              37              24*       
*                     39              41              60          0.0+00
CORD2R*               60               0          0.0+00          0.0+00*       
*                 0.0+00 -4.472135955-01   8.94427191-01          0.0+00*       
*                 2.0+00          1.0+00          0.0+00                *       
*                                                                       
CQUAD4*               60               1              41              39*       
*                      7              40              61          0.0+00
CORD2R*               61               0          0.0+00          0.0+00*       
*                 0.0+00 -4.472135955-01   8.94427191-01          0.0+00*       
*                 2.0+00          1.0+00          0.0+00                *       
*                                                                       
CQUAD4*               61               1              40               7*       
*                     50              52              62          0.0+00
CORD2R*               62               0          0.0+00          0.0+00*       
*                 0.0+00 -4.472135955-01   8.94427191-01          0.0+00*       
*                 2.0+00          1.0+00          0.0+00                *       
*                                                                       
CQUAD4*               62               1              52              50*       
*                     12              51              63          0.0+00
CORD2R*               63               0          0.0+00          0.0+00*       
*                 0.0+00 -4.472135955-01   8.94427191-01          0.0+00*       
*                 2.0+00          1.0+00          0.0+00                *       
*                                                                       
CQUAD4*               63               1              51              12*       
*                     53              55              64          0.0+00
CORD2R*               64               0          0.0+00          0.0+00*       
*                 0.0+00 -4.472135955-01   8.94427191-01          0.0+00*       
*                 2.0+00          1.0+00          0.0+00                *       
*                                                                       
CQUAD4*               64               1              55              53*       
*                      1              54              65          0.0+00
CORD2R*               65               0          0.0+00          0.0+00*       
*                 0.0+00 -4.472135955-01   8.94427191-01          0.0+00*       
*                 2.0+00          1.0+00          0.0+00                *       
*                                                                       
$--1---><------2-------><------3-------><------4-------><------5-------><--6--->
$$$$$$$$$$$$$$$$$$$$$$$$$$$$$$$$$$$$ force $$$$$$$$$$$$$$$$$$$$$$$$$$$$$$$$$$$$$
FORCE*                 1              32               0          1.0+00*       
*                 0.0+00 8.1695855252-04 1.2580058519-03
FORCE*                 1              23               0          1.0+00*       
*                 0.0+00 8.1695855252-04 1.2580058519-03
FORCE*                 1               6               0          1.0+00*       
*                 0.0+00 8.1695855252-04 1.2580058519-03
FORCE*                 1              35               0          1.0+00*       
*                 0.0+00 8.1695855252-04 1.2580058519-03
FORCE*                 1               4               0          1.0+00*       
*                 0.0+00 4.0847927626-04 6.2900292596-04
FORCE*                 1              75               0          1.0+00*       
*                 0.0+00 8.1695855252-04 1.2580058519-03
FORCE*                 1              20               0          1.0+00*       
*                 0.0+00 8.1695855252-04 1.2580058519-03
FORCE*                 1              78               0          1.0+00*       
*                 0.0+00 8.1695855252-04 1.2580058519-03
FORCE*                 1               3               0          1.0+00*       
*                 0.0+00 4.0847927626-04 6.2900292596-04
$--1---><------2-------><------3-------><------4-------><------5-------><--6--->
ENDDATA
