$ Generated by Mecway 29
$-------------EXECUTIVE CONTROL SECTION-------------
SOL 101
CEND
$---------------CASE CONTROL SECTION----------------
DISPLACEMENT = ALL
STRESS(CORNER) = ALL
$
  ACCELERATION(PRINT,PLOT) = ALL
  DISPLACEMENT(PRINT, PLOT) = ALL
  GPFORCE(PRINT, PLOT) = ALL
  MPCFORCES(PRINT, PLOT) = ALL
  OLOAD(PRINT, PLOT)= ALL
  SPCFORCES(PRINT, PLOT) = ALL
  FORCE(PRINT, PLOT) = ALL
  STRESS(PRINT, PLOT, CORNER)= ALL
  STRAIN(PRINT, PLOT, CORNER)= ALL
$
SPC = 1
LOAD = 1
BEGIN BULK
$-----------------BULK DATA SECTION-----------------
$
  PARAM, POST,-1
$
GRID*                  1               0          0.0+00          0.0+00*       
*                 0.0+00               0
GRID*                  2               0          1.0+00          0.0+00*       
*                 0.0+00               0
GRID*                  3               0          1.0+00          1.0+00*       
*                 0.0+00               0
GRID*                  4               0          0.0+00          1.0+00*       
*                 0.0+00               0
GRID*                  5               0          2.0-01          0.0+00*       
*                 1.0+00               0
GRID*                  6               0          1.0+00          0.0+00*       
*                 1.0+00               0
GRID*                  7               0          1.0+00          1.0+00*       
*                 1.0+00               0
GRID*                  8               0          2.0-01          1.0+00*       
*                 1.0+00               0
GRID*                  9               0          2.0+00          0.0+00*       
*                 0.0+00               0
GRID*                 10               0          3.0+00          0.0+00*       
*                 0.0+00               0
GRID*                 11               0          3.0+00          1.0+00*       
*                 0.0+00               0
GRID*                 12               0          2.0+00          1.0+00*       
*                 0.0+00               0
GRID*                 13               0          2.2+00          0.0+00*       
*                 1.0+00               1
GRID*                 14               0          3.0+00          0.0+00*       
*                 1.0+00               0
GRID*                 15               0          3.0+00          1.0+00*       
*                 1.0+00               0
GRID*                 16               0          2.2+00          1.0+00*       
*                 1.0+00               0
GRID*                 17               0          2.5+00          0.0+00*       
*                 0.0+00               2
GRID*                 18               0          3.0+00          5.0-01*       
*                 0.0+00               0
GRID*                 19               0          2.5+00          1.0+00*       
*                 0.0+00               0
GRID*                 20               0          2.0+00          5.0-01*       
*                 0.0+00               0
GRID*                 21               0 2.1718010902+00-4.7683677451-08*       
*                 5.0-01               3
GRID*                 22               0          3.0+00          0.0+00*       
*                 5.0-01               4
GRID*                 23               0          3.0+00          1.0+00*       
*                 5.0-01               0
GRID*                 24               0 2.1718010902+00 9.9999995232-01*       
*                 5.0-01               0
GRID*                 25               0          2.6+00          0.0+00*       
*                 1.0+00               5
GRID*                 26               0          3.0+00          5.0-01*       
*                 1.0+00               0
GRID*                 27               0          2.6+00          1.0+00*       
*                 1.0+00               0
GRID*                 28               0          2.2+00          5.0-01*       
*                 1.0+00               0
$--1---><------2-------><------3-------><------4-------><------5-------><--6--->
$$$$$$$$$$$$$$$$$$$$$$$$$$$$$$$$$$$ Material $$$$$$$$$$$$$$$$$$$$$$$$$$$$$$$$$$$
MAT1*                  1          5.0+10 1.7857142857+10          4.0-01*       
*                 0.0+00          0.0+00          0.0+00
$--1---><------2-------><------3-------><------4-------><------5-------><--6--->
CORD2R*                1               0          0.0+00          0.0+00*       
*                 0.0+00          0.0+00     1.907347-07          1.0+00*       
*                 1.0+00          0.0+00          0.0+00                *       
*                                                                       
CORD2R*                2               0          0.0+00          0.0+00*       
*                 0.0+00          0.0+00     -9.53674-08          1.0+00*       
*                 1.0+00          0.0+00          0.0+00                *       
*                                                                       
CORD2R*                3               0          0.0+00          0.0+00*       
*                 0.0+00   6.62978428-16      -1.1515-08          1.0+00*       
*                 1.0+00      5.75752-08          0.0+00                *       
*                                                                       
CORD2R*                4               0          0.0+00          0.0+00*       
*                 0.0+00          0.0+00          0.0+00          1.0+00*       
*                 1.0+00      5.75752-08          0.0+00                *       
*                                                                       
CORD2R*                5               0          0.0+00          0.0+00*       
*                 0.0+00          0.0+00      9.53674-08          1.0+00*       
*                 1.0+00          0.0+00          0.0+00                *       
*                                                                       
SPC*                   1               1               1          0.0+00*       
*                                                                       
SPC*                   1               1               2          0.0+00*       
*                                                                       
SPC*                   1               1               3          0.0+00*       
*                                                                       
SPC*                   1               2               2          0.0+00*       
*                                                                       
SPC*                   1               2               3          0.0+00*       
*                                                                       
SPC*                   1               5               2          0.0+00*       
*                                                                       
SPC*                   1               6               2          0.0+00*       
*                                                                       
SPC*                   1               9               1          0.0+00*       
*                                                                       
SPC*                   1               9               2          0.0+00*       
*                                                                       
SPC*                   1               9               3          0.0+00*       
*                                                                       
SPC*                   1              10               2          0.0+00*       
*                                                                       
SPC*                   1              10               3          0.0+00*       
*                                                                       
SPC*                   1              13               2          0.0+00*       
*                                                                       
SPC*                   1              14               2          0.0+00*       
*                                                                       
SPC*                   1              17               2          0.0+00*       
*                                                                       
SPC*                   1              21               2          0.0+00*       
*                                                                       
SPC*                   1              22               2          0.0+00*       
*                                                                       
SPC*                   1              25               2          0.0+00*       
*                                                                       
$--1---><------2-------><------3-------><------4-------><------5-------><--6--->
$$$$$$$$$$$$$$$$$$$$$$$$$$$$$$$$$$$ Default $$$$$$$$$$$$$$$$$$$$$$$$$$$$$$$$$$$$
PSOLID*                6               1               0               2*       
*                                   FULL
CHEXA*                 1               6               1               2*       
*                      3               4               5               6*       
*                      7               8                                *       
*                                                                       
PSOLID*                7               1               0               3*       
*                                   FULL
CHEXA*                 2               7               9              10*       
*                     11              12              13              14*       
*                     15              16              17              18*       
*                     19              20              21              22*       
*                     23              24              25              26*       
*                     27              28
$--1---><------2-------><------3-------><------4-------><------5-------><--6--->
$$$$$$$$$$$$$$$$$$$$$$$$$$$$$$$$$$$$ force $$$$$$$$$$$$$$$$$$$$$$$$$$$$$$$$$$$$$
FORCE*                 1               3               0          1.0+00*       
*                 0.0+00 3.9951314039+03          0.0+00
FORCE*                 1               4               0          1.0+00*       
*                 0.0+00 3.9951314039+03          0.0+00
FORCE*                 1               7               0          1.0+00*       
*                 0.0+00  3.709764875+03          0.0+00
FORCE*                 1               8               0          1.0+00*       
*                 0.0+00  3.709764875+03          0.0+00
FORCE*                 1              11               0          1.0+00*       
*                 0.0+00-1.1409700282+03          0.0+00
FORCE*                 1              12               0          1.0+00*       
*                 0.0+00-1.1409700282+03          0.0+00
FORCE*                 1              15               0          1.0+00*       
*                 0.0+00-1.2360922045+03          0.0+00
FORCE*                 1              16               0          1.0+00*       
*                 0.0+00-1.2360922045+03          0.0+00
FORCE*                 1              19               0          1.0+00*       
*                 0.0+00 5.0536468333+03          0.0+00
FORCE*                 1              23               0          1.0+00*       
*                 0.0+00  4.808763473+03          0.0+00
FORCE*                 1              24               0          1.0+00*       
*                 0.0+00  4.808763473+03          0.0+00
FORCE*                 1              27               0          1.0+00*       
*                 0.0+00 4.6731581282+03          0.0+00
$--1---><------2-------><------3-------><------4-------><------5-------><--6--->
ENDDATA
