$ Generated by Mecway 29
$-------------EXECUTIVE CONTROL SECTION-------------
SOL 101
CEND
$---------------CASE CONTROL SECTION----------------
DISPLACEMENT = ALL
STRESS(CORNER) = ALL
STRAIN(CORNER) = ALL
$
  ACCELERATION(PRINT,PLOT) = ALL
  DISPLACEMENT(PRINT, PLOT) = ALL
  GPFORCE(PRINT, PLOT) = ALL
  MPCFORCES(PRINT, PLOT) = ALL
  OLOAD(PRINT, PLOT)= ALL
  SPCFORCES(PRINT, PLOT) = ALL
  FORCE(PRINT, PLOT) = ALL
  STRESS(PRINT, PLOT, CORNER)= ALL
  STRAIN(PRINT, PLOT, CORNER)= ALL
$
SPC = 1
LOAD = 1
BEGIN BULK
$-----------------BULK DATA SECTION-----------------
$
  PARAM, POST,-1
$
GRID*                  1               0          0.0+00          0.0+00*       
*                 0.0+00               0
GRID*                  2               0          0.0+00          0.0+00*       
*                 1.0+00               0
GRID*                  3               0          0.0+00          1.0+00*       
*                 1.0+00               0
GRID*                  4               0          0.0+00          1.0+00*       
*                 0.0+00               0
GRID*                  5               0         -1.0+00          0.0+00*       
*        6.1230317691-17               0
GRID*                  6               0         -1.0+00          0.0+00*       
*                 1.0+00               0
GRID*                  7               0         -1.0+00          1.0+00*       
*                 1.0+00               0
GRID*                  8               0         -1.0+00          1.0+00*       
*        6.1230317691-17               0
GRID*                  9               0          2.0+00          0.0+00*       
*                 0.0+00               0
GRID*                 10               0          2.0+00          0.0+00*       
*                 1.0+00               0
GRID*                 11               0          2.0+00          1.0+00*       
*                 1.0+00               0
GRID*                 12               0          2.0+00          1.0+00*       
*                 0.0+00               0
GRID*                 13               0          1.0+00          0.0+00*       
*        6.1230317691-17               0
GRID*                 14               0          1.0+00          0.0+00*       
*                 1.0+00               0
GRID*                 15               0          1.0+00          1.0+00*       
*                 1.0+00               0
GRID*                 16               0          1.0+00          1.0+00*       
*        6.1230317691-17               0
GRID*                 17               0          4.0+00          0.0+00*       
*                 0.0+00               0
GRID*                 18               0          4.0+00          0.0+00*       
*                 1.0+00               0
GRID*                 19               0          4.0+00          1.0+00*       
*                 1.0+00               0
GRID*                 20               0          4.0+00          1.0+00*       
*                 0.0+00               0
GRID*                 21               0          3.0+00          0.0+00*       
*        6.1230317691-17               0
GRID*                 22               0          3.0+00          0.0+00*       
*                 1.0+00               0
GRID*                 23               0          3.0+00          1.0+00*       
*                 1.0+00               0
GRID*                 24               0          3.0+00          1.0+00*       
*        6.1230317691-17               0
GRID*                 25               0          6.0+00          0.0+00*       
*                 0.0+00               0
GRID*                 26               0          6.0+00          0.0+00*       
*                 1.0+00               0
GRID*                 27               0          6.0+00          1.0+00*       
*                 1.0+00               0
GRID*                 28               0          6.0+00          1.0+00*       
*                 0.0+00               0
GRID*                 29               0          5.0+00          0.0+00*       
*        6.1230317691-17               0
GRID*                 30               0          5.0+00          0.0+00*       
*                 1.0+00               0
GRID*                 31               0          5.0+00          1.0+00*       
*                 1.0+00               0
GRID*                 32               0          5.0+00          1.0+00*       
*        6.1230317691-17               0
GRID*                 33               0          0.0+00          2.0+00*       
*                 0.0+00               0
GRID*                 34               0          0.0+00          2.0+00*       
*                 1.0+00               0
GRID*                 35               0          0.0+00          3.0+00*       
*                 1.0+00               0
GRID*                 36               0          0.0+00          3.0+00*       
*                 0.0+00               0
GRID*                 37               0         -1.0+00          2.0+00*       
*        6.1230317691-17               0
GRID*                 38               0         -1.0+00          2.0+00*       
*                 1.0+00               0
GRID*                 39               0         -1.0+00          3.0+00*       
*                 1.0+00               0
GRID*                 40               0         -1.0+00          3.0+00*       
*        6.1230317691-17               0
GRID*                 41               0          2.0+00          2.0+00*       
*                 0.0+00               0
GRID*                 42               0          2.0+00          2.0+00*       
*                 1.0+00               0
GRID*                 43               0          2.0+00          3.0+00*       
*                 1.0+00               0
GRID*                 44               0          2.0+00          3.0+00*       
*                 0.0+00               0
GRID*                 45               0          1.0+00          2.0+00*       
*        6.1230317691-17               0
GRID*                 46               0          1.0+00          2.0+00*       
*                 1.0+00               0
GRID*                 47               0          1.0+00          3.0+00*       
*                 1.0+00               0
GRID*                 48               0          1.0+00          3.0+00*       
*        6.1230317691-17               0
GRID*                 49               0          4.0+00          2.0+00*       
*                 0.0+00               0
GRID*                 50               0          4.0+00          2.0+00*       
*                 1.0+00               0
GRID*                 51               0          4.0+00          3.0+00*       
*                 1.0+00               0
GRID*                 52               0          4.0+00          3.0+00*       
*                 0.0+00               0
GRID*                 53               0          3.0+00          2.0+00*       
*        6.1230317691-17               0
GRID*                 54               0          3.0+00          2.0+00*       
*                 1.0+00               0
GRID*                 55               0          3.0+00          3.0+00*       
*                 1.0+00               0
GRID*                 56               0          3.0+00          3.0+00*       
*        6.1230317691-17               0
GRID*                 57               0          6.0+00          2.0+00*       
*                 0.0+00               0
GRID*                 58               0          6.0+00          2.0+00*       
*                 1.0+00               0
GRID*                 59               0          6.0+00          3.0+00*       
*                 1.0+00               0
GRID*                 60               0          6.0+00          3.0+00*       
*                 0.0+00               0
GRID*                 61               0          5.0+00          2.0+00*       
*        6.1230317691-17               0
GRID*                 62               0          5.0+00          2.0+00*       
*                 1.0+00               0
GRID*                 63               0          5.0+00          3.0+00*       
*                 1.0+00               0
GRID*                 64               0          5.0+00          3.0+00*       
*        6.1230317691-17               0
GRID*                 65               0         -5.0-01          3.0+00*       
*        3.0615158846-17               0
GRID*                 66               0         -5.0-01          2.5+00*       
*        3.0615158846-17               0
GRID*                 67               0          0.0+00          2.5+00*       
*                 0.0+00               0
GRID*                 68               0          0.0+00          3.0+00*       
*                 5.0-01               0
GRID*                 69               0         -5.0-01          3.0+00*       
*                 5.0-01               0
GRID*                 70               0          0.0+00          2.5+00*       
*                 5.0-01               0
GRID*                 71               0         -5.0-01          2.0+00*       
*                 5.0-01               0
GRID*                 72               0         -5.0-01          2.5+00*       
*                 1.0+00               0
GRID*                 73               0         -1.0+00          2.5+00*       
*                 5.0-01               0
GRID*                 74               0         -5.0-01          2.0+00*       
*                 1.0+00               0
GRID*                 75               0          0.0+00          2.5+00*       
*                 1.0+00               0
GRID*                 76               0          0.0+00          2.0+00*       
*                 5.0-01               0
GRID*                 77               0         -5.0-01          2.0+00*       
*        3.0615158846-17               0
GRID*                 78               0         -1.0+00          2.5+00*       
*        6.1230317691-17               0
GRID*                 79               0         -1.0+00          2.0+00*       
*                 5.0-01               0
GRID*                 80               0          1.5+00          3.0+00*       
*                 1.0+00               0
GRID*                 81               0          1.5+00          2.5+00*       
*                 1.0+00               0
GRID*                 82               0          1.0+00          2.5+00*       
*                 1.0+00               0
GRID*                 83               0          1.0+00          3.0+00*       
*                 5.0-01               0
GRID*                 84               0          1.5+00          3.0+00*       
*                 5.0-01               0
GRID*                 85               0          1.0+00          2.5+00*       
*                 5.0-01               0
GRID*                 86               0          1.5+00          3.0+00*       
*        3.0615158846-17               0
GRID*                 87               0          1.5+00          2.5+00*       
*        3.0615158846-17               0
GRID*                 88               0          2.0+00          2.5+00*       
*                 0.0+00               0
GRID*                 89               0          2.0+00          3.0+00*       
*                 5.0-01               0
GRID*                 90               0          2.0+00          2.5+00*       
*                 5.0-01               0
GRID*                 91               0          1.5+00          2.0+00*       
*                 5.0-01               0
GRID*                 92               0          1.5+00          2.0+00*       
*                 1.0+00               0
GRID*                 93               0          2.0+00          2.5+00*       
*                 1.0+00               0
GRID*                 94               0          2.0+00          2.0+00*       
*                 5.0-01               0
GRID*                 95               0          1.5+00          2.0+00*       
*        3.0615158846-17               0
GRID*                 96               0          1.0+00          2.5+00*       
*        6.1230317691-17               0
GRID*                 97               0          1.0+00          2.0+00*       
*                 5.0-01               0
GRID*                 98               0          3.5+00          3.0+00*       
*                 1.0+00               0
GRID*                 99               0          3.5+00          2.5+00*       
*                 1.0+00               0
GRID*                100               0          3.0+00          2.5+00*       
*                 1.0+00               0
GRID*                101               0          3.0+00          3.0+00*       
*                 5.0-01               0
GRID*                102               0          3.5+00          3.0+00*       
*                 5.0-01               0
GRID*                103               0          3.0+00          2.5+00*       
*                 5.0-01               0
GRID*                104               0          3.5+00          3.0+00*       
*        3.0615158846-17               0
GRID*                105               0          3.5+00          2.5+00*       
*        3.0615158846-17               0
GRID*                106               0          4.0+00          2.5+00*       
*                 0.0+00               0
GRID*                107               0          4.0+00          3.0+00*       
*                 5.0-01               0
GRID*                108               0          4.0+00          2.5+00*       
*                 5.0-01               0
GRID*                109               0          3.5+00          2.0+00*       
*                 5.0-01               0
GRID*                110               0          3.5+00          2.0+00*       
*                 1.0+00               0
GRID*                111               0          4.0+00          2.5+00*       
*                 1.0+00               0
GRID*                112               0          4.0+00          2.0+00*       
*                 5.0-01               0
GRID*                113               0          3.5+00          2.0+00*       
*        3.0615158846-17               0
GRID*                114               0          3.0+00          2.5+00*       
*        6.1230317691-17               0
GRID*                115               0          3.0+00          2.0+00*       
*                 5.0-01               0
GRID*                116               0          5.5+00          3.0+00*       
*                 1.0+00               0
GRID*                117               0          5.5+00          2.5+00*       
*                 1.0+00               0
GRID*                118               0          5.0+00          2.5+00*       
*                 1.0+00               0
GRID*                119               0          5.0+00          3.0+00*       
*                 5.0-01               0
GRID*                120               0          5.5+00          3.0+00*       
*                 5.0-01               0
GRID*                121               0          5.0+00          2.5+00*       
*                 5.0-01               0
GRID*                122               0          5.5+00          3.0+00*       
*        3.0615158846-17               0
GRID*                123               0          5.5+00          2.5+00*       
*        3.0615158846-17               0
GRID*                124               0          6.0+00          2.5+00*       
*                 0.0+00               0
GRID*                125               0          6.0+00          3.0+00*       
*                 5.0-01               0
GRID*                126               0          6.0+00          2.5+00*       
*                 5.0-01               0
GRID*                127               0          5.5+00          2.0+00*       
*                 5.0-01               0
GRID*                128               0          5.5+00          2.0+00*       
*                 1.0+00               0
GRID*                129               0          6.0+00          2.5+00*       
*                 1.0+00               0
GRID*                130               0          6.0+00          2.0+00*       
*                 5.0-01               0
GRID*                131               0          5.5+00          2.0+00*       
*        3.0615158846-17               0
GRID*                132               0          5.0+00          2.5+00*       
*        6.1230317691-17               0
GRID*                133               0          5.0+00          2.0+00*       
*                 5.0-01               0
GRID*                134               0         -5.0-01          3.0+00*       
*                 1.0+00               0
GRID*                135               0         -1.0+00          2.5+00*       
*                 1.0+00               0
GRID*                136               0         -1.0+00          3.0+00*       
*                 5.0-01               0
$--1---><------2-------><------3-------><------4-------><------5-------><--6--->
$$$$$$$$$$$$$$$$$$$$$$$$$$$$$$$$$$$ Material $$$$$$$$$$$$$$$$$$$$$$$$$$$$$$$$$$$
MAT1*                  1          1.0+02          5.0+01          0.0+00*       
*                 0.0+00          0.0+00          0.0+00
$--1---><------2-------><------3-------><------4-------><------5-------><--6--->
SPC*                   1               1               2          0.0+00*       
*                                                                       
SPC*                   1               1               3          0.0+00*       
*                                                                       
SPC*                   1               2               2          0.0+00*       
*                                                                       
SPC*                   1               4               3          0.0+00*       
*                                                                       
SPC*                   1               5               1          0.0+00*       
*                                                                       
SPC*                   1               5               2          0.0+00*       
*                                                                       
SPC*                   1               5               3          0.0+00*       
*                                                                       
SPC*                   1               6               1          0.0+00*       
*                                                                       
SPC*                   1               6               2          0.0+00*       
*                                                                       
SPC*                   1               7               1          0.0+00*       
*                                                                       
SPC*                   1               8               1          0.0+00*       
*                                                                       
SPC*                   1               8               3          0.0+00*       
*                                                                       
SPC*                   1               9               1         -1.0-02*       
*                                                                       
SPC*                   1               9               2          0.0+00*       
*                                                                       
SPC*                   1               9               3 6.1230317691-19*       
*                                                                       
SPC*                   1              10               2          0.0+00*       
*                                                                       
SPC*                   1              10               1         -1.0-02*       
*                                                                       
SPC*                   1              11               2          0.0+00*       
*                                                                       
SPC*                   1              11               1          1.0-02*       
*                                                                       
SPC*                   1              12               1          1.0-02*       
*                                                                       
SPC*                   1              12               2          0.0+00*       
*                                                                       
SPC*                   1              12               3-6.1230317691-19*       
*                                                                       
SPC*                   1              13               1          0.0+00*       
*                                                                       
SPC*                   1              13               2          0.0+00*       
*                                                                       
SPC*                   1              13               3          0.0+00*       
*                                                                       
SPC*                   1              14               1          0.0+00*       
*                                                                       
SPC*                   1              14               2          0.0+00*       
*                                                                       
SPC*                   1              15               1          0.0+00*       
*                                                                       
SPC*                   1              15               2          0.0+00*       
*                                                                       
SPC*                   1              16               1          0.0+00*       
*                                                                       
SPC*                   1              16               2          0.0+00*       
*                                                                       
SPC*                   1              16               3          0.0+00*       
*                                                                       
SPC*                   1              17               2          0.0+00*       
*                                                                       
SPC*                   1              17               3          0.0+00*       
*                                                                       
SPC*                   1              18               2          0.0+00*       
*                                                                       
SPC*                   1              18               3          0.0+00*       
*                                                                       
SPC*                   1              19               3          0.0+00*       
*                                                                       
SPC*                   1              19               2          1.0-02*       
*                                                                       
SPC*                   1              20               3-6.1227256405-19*       
*                                                                       
SPC*                   1              20               2         -1.0-02*       
*                                                                       
SPC*                   1              21               1          0.0+00*       
*                                                                       
SPC*                   1              21               2          0.0+00*       
*                                                                       
SPC*                   1              21               3          0.0+00*       
*                                                                       
SPC*                   1              22               1          0.0+00*       
*                                                                       
SPC*                   1              22               2          0.0+00*       
*                                                                       
SPC*                   1              22               3          0.0+00*       
*                                                                       
SPC*                   1              23               1 1.8735013541-18*       
*                                                                       
SPC*                   1              23               2          1.0-02*       
*                                                                       
SPC*                   1              23               3          0.0+00*       
*                                                                       
SPC*                   1              24               1 1.8735013541-18*       
*                                                                       
SPC*                   1              24               2         -1.0-02*       
*                                                                       
SPC*                   1              24               3-6.1227256405-19*       
*                                                                       
SPC*                   1              25               1          0.0+00*       
*                                                                       
SPC*                   1              25               2          0.0+00*       
*                                                                       
SPC*                   1              25               3          0.0+00*       
*                                                                       
SPC*                   1              26               1 1.8735013541-18*       
*                                                                       
SPC*                   1              26               2          0.0+00*       
*                                                                       
SPC*                   1              26               3          1.0-02*       
*                                                                       
SPC*                   1              27               1-4.8572257327-19*       
*                                                                       
SPC*                   1              27               3          1.0-02*       
*                                                                       
SPC*                   1              28               1          0.0+00*       
*                                                                       
SPC*                   1              28               3          0.0+00*       
*                                                                       
SPC*                   1              29               1          0.0+00*       
*                                                                       
SPC*                   1              29               2          0.0+00*       
*                                                                       
SPC*                   1              29               3          0.0+00*       
*                                                                       
SPC*                   1              30               1 1.8735013541-18*       
*                                                                       
SPC*                   1              30               2          0.0+00*       
*                                                                       
SPC*                   1              30               3         -1.0-02*       
*                                                                       
SPC*                   1              31               1-4.8572257327-19*       
*                                                                       
SPC*                   1              31               3         -1.0-02*       
*                                                                       
SPC*                   1              32               1          0.0+00*       
*                                                                       
SPC*                   1              32               3          0.0+00*       
*                                                                       
SPC*                   1              33               2          0.0+00*       
*                                                                       
SPC*                   1              33               3          0.0+00*       
*                                                                       
SPC*                   1              34               2          0.0+00*       
*                                                                       
SPC*                   1              36               3          0.0+00*       
*                                                                       
SPC*                   1              37               1          0.0+00*       
*                                                                       
SPC*                   1              37               2          0.0+00*       
*                                                                       
SPC*                   1              37               3          0.0+00*       
*                                                                       
SPC*                   1              38               1          0.0+00*       
*                                                                       
SPC*                   1              38               2          0.0+00*       
*                                                                       
SPC*                   1              39               1          0.0+00*       
*                                                                       
SPC*                   1              40               1          0.0+00*       
*                                                                       
SPC*                   1              40               3          0.0+00*       
*                                                                       
SPC*                   1              41               1         -1.0-02*       
*                                                                       
SPC*                   1              41               2          0.0+00*       
*                                                                       
SPC*                   1              41               3 6.1230317691-19*       
*                                                                       
SPC*                   1              42               2          0.0+00*       
*                                                                       
SPC*                   1              42               1         -1.0-02*       
*                                                                       
SPC*                   1              43               2          0.0+00*       
*                                                                       
SPC*                   1              43               1          1.0-02*       
*                                                                       
SPC*                   1              44               1          1.0-02*       
*                                                                       
SPC*                   1              44               2          0.0+00*       
*                                                                       
SPC*                   1              44               3-6.1230317691-19*       
*                                                                       
SPC*                   1              45               1          0.0+00*       
*                                                                       
SPC*                   1              45               2          0.0+00*       
*                                                                       
SPC*                   1              45               3          0.0+00*       
*                                                                       
SPC*                   1              46               1          0.0+00*       
*                                                                       
SPC*                   1              46               2          0.0+00*       
*                                                                       
SPC*                   1              47               1          0.0+00*       
*                                                                       
SPC*                   1              47               2          0.0+00*       
*                                                                       
SPC*                   1              48               1          0.0+00*       
*                                                                       
SPC*                   1              48               2          0.0+00*       
*                                                                       
SPC*                   1              48               3          0.0+00*       
*                                                                       
SPC*                   1              49               2          0.0+00*       
*                                                                       
SPC*                   1              49               3          0.0+00*       
*                                                                       
SPC*                   1              50               2          0.0+00*       
*                                                                       
SPC*                   1              50               3          0.0+00*       
*                                                                       
SPC*                   1              51               3          0.0+00*       
*                                                                       
SPC*                   1              51               2          1.0-02*       
*                                                                       
SPC*                   1              52               3-6.1227256405-19*       
*                                                                       
SPC*                   1              52               2         -1.0-02*       
*                                                                       
SPC*                   1              53               1          0.0+00*       
*                                                                       
SPC*                   1              53               2          0.0+00*       
*                                                                       
SPC*                   1              53               3          0.0+00*       
*                                                                       
SPC*                   1              54               1          0.0+00*       
*                                                                       
SPC*                   1              54               2          0.0+00*       
*                                                                       
SPC*                   1              54               3          0.0+00*       
*                                                                       
SPC*                   1              55               1 1.8735013541-18*       
*                                                                       
SPC*                   1              55               2          1.0-02*       
*                                                                       
SPC*                   1              55               3          0.0+00*       
*                                                                       
SPC*                   1              56               1 1.8735013541-18*       
*                                                                       
SPC*                   1              56               2         -1.0-02*       
*                                                                       
SPC*                   1              56               3-6.1227256405-19*       
*                                                                       
SPC*                   1              57               1          0.0+00*       
*                                                                       
SPC*                   1              57               2          0.0+00*       
*                                                                       
SPC*                   1              57               3          0.0+00*       
*                                                                       
SPC*                   1              58               1 1.8735013541-18*       
*                                                                       
SPC*                   1              58               2          0.0+00*       
*                                                                       
SPC*                   1              58               3          1.0-02*       
*                                                                       
SPC*                   1              59               1-4.8572257327-19*       
*                                                                       
SPC*                   1              59               3          1.0-02*       
*                                                                       
SPC*                   1              60               1          0.0+00*       
*                                                                       
SPC*                   1              60               3          0.0+00*       
*                                                                       
SPC*                   1              61               1          0.0+00*       
*                                                                       
SPC*                   1              61               2          0.0+00*       
*                                                                       
SPC*                   1              61               3          0.0+00*       
*                                                                       
SPC*                   1              62               1 1.8735013541-18*       
*                                                                       
SPC*                   1              62               2          0.0+00*       
*                                                                       
SPC*                   1              62               3         -1.0-02*       
*                                                                       
SPC*                   1              63               1-4.8572257327-19*       
*                                                                       
SPC*                   1              63               3         -1.0-02*       
*                                                                       
SPC*                   1              64               1          0.0+00*       
*                                                                       
SPC*                   1              64               3          0.0+00*       
*                                                                       
SPC*                   1              65               3          0.0+00*       
*                                                                       
SPC*                   1              66               3          0.0+00*       
*                                                                       
SPC*                   1              67               3          0.0+00*       
*                                                                       
SPC*                   1              71               2          0.0+00*       
*                                                                       
SPC*                   1              73               1          0.0+00*       
*                                                                       
SPC*                   1              74               2          0.0+00*       
*                                                                       
SPC*                   1              76               2          0.0+00*       
*                                                                       
SPC*                   1              77               2          0.0+00*       
*                                                                       
SPC*                   1              77               3          0.0+00*       
*                                                                       
SPC*                   1              78               1          0.0+00*       
*                                                                       
SPC*                   1              78               3          0.0+00*       
*                                                                       
SPC*                   1              79               1          0.0+00*       
*                                                                       
SPC*                   1              79               2          0.0+00*       
*                                                                       
SPC*                   1              80               2          0.0+00*       
*                                                                       
SPC*                   1              82               1          0.0+00*       
*                                                                       
SPC*                   1              83               1          0.0+00*       
*                                                                       
SPC*                   1              83               2          0.0+00*       
*                                                                       
SPC*                   1              84               2          0.0+00*       
*                                                                       
SPC*                   1              85               1          0.0+00*       
*                                                                       
SPC*                   1              86               2          0.0+00*       
*                                                                       
SPC*                   1              86               3          0.0+00*       
*                                                                       
SPC*                   1              87               3          0.0+00*       
*                                                                       
SPC*                   1              88               3          0.0+00*       
*                                                                       
SPC*                   1              89               2          0.0+00*       
*                                                                       
SPC*                   1              89               1          1.0-02*       
*                                                                       
SPC*                   1              91               2          0.0+00*       
*                                                                       
SPC*                   1              92               2          0.0+00*       
*                                                                       
SPC*                   1              94               2          0.0+00*       
*                                                                       
SPC*                   1              94               1         -1.0-02*       
*                                                                       
SPC*                   1              95               2          0.0+00*       
*                                                                       
SPC*                   1              95               3          0.0+00*       
*                                                                       
SPC*                   1              96               1          0.0+00*       
*                                                                       
SPC*                   1              96               3          0.0+00*       
*                                                                       
SPC*                   1              97               1          0.0+00*       
*                                                                       
SPC*                   1              97               2          0.0+00*       
*                                                                       
SPC*                   1              98               3          0.0+00*       
*                                                                       
SPC*                   1              98               2          1.0-02*       
*                                                                       
SPC*                   1              99               3          0.0+00*       
*                                                                       
SPC*                   1             100               1          0.0+00*       
*                                                                       
SPC*                   1             100               3          0.0+00*       
*                                                                       
SPC*                   1             101               1          0.0+00*       
*                                                                       
SPC*                   1             103               1          0.0+00*       
*                                                                       
SPC*                   1             104               3-6.1227256405-19*       
*                                                                       
SPC*                   1             104               2         -1.0-02*       
*                                                                       
SPC*                   1             105               3          0.0+00*       
*                                                                       
SPC*                   1             106               3          0.0+00*       
*                                                                       
SPC*                   1             109               2          0.0+00*       
*                                                                       
SPC*                   1             110               2          0.0+00*       
*                                                                       
SPC*                   1             110               3          0.0+00*       
*                                                                       
SPC*                   1             111               3          0.0+00*       
*                                                                       
SPC*                   1             112               2          0.0+00*       
*                                                                       
SPC*                   1             113               2          0.0+00*       
*                                                                       
SPC*                   1             113               3          0.0+00*       
*                                                                       
SPC*                   1             114               1          0.0+00*       
*                                                                       
SPC*                   1             114               3          0.0+00*       
*                                                                       
SPC*                   1             115               1          0.0+00*       
*                                                                       
SPC*                   1             115               2          0.0+00*       
*                                                                       
SPC*                   1             118               1-4.8572257327-19*       
*                                                                       
SPC*                   1             118               3         -1.0-02*       
*                                                                       
SPC*                   1             119               1          0.0+00*       
*                                                                       
SPC*                   1             121               1          0.0+00*       
*                                                                       
SPC*                   1             122               3          0.0+00*       
*                                                                       
SPC*                   1             123               3          0.0+00*       
*                                                                       
SPC*                   1             124               1          0.0+00*       
*                                                                       
SPC*                   1             124               3          0.0+00*       
*                                                                       
SPC*                   1             125               1          0.0+00*       
*                                                                       
SPC*                   1             126               1          0.0+00*       
*                                                                       
SPC*                   1             127               2          0.0+00*       
*                                                                       
SPC*                   1             128               2          0.0+00*       
*                                                                       
SPC*                   1             129               1-4.8572257327-19*       
*                                                                       
SPC*                   1             129               3          1.0-02*       
*                                                                       
SPC*                   1             130               1          0.0+00*       
*                                                                       
SPC*                   1             130               2          0.0+00*       
*                                                                       
SPC*                   1             131               2          0.0+00*       
*                                                                       
SPC*                   1             131               3          0.0+00*       
*                                                                       
SPC*                   1             132               1          0.0+00*       
*                                                                       
SPC*                   1             132               3          0.0+00*       
*                                                                       
SPC*                   1             133               1          0.0+00*       
*                                                                       
SPC*                   1             133               2          0.0+00*       
*                                                                       
SPC*                   1             135               1          0.0+00*       
*                                                                       
SPC*                   1             136               1          0.0+00*       
*                                                                       
$--1---><------2-------><------3-------><------4-------><------5-------><--6--->
$$$$$$$$$$$$$$$$$$$$$$$$$$$$$$$$$$$ Default $$$$$$$$$$$$$$$$$$$$$$$$$$$$$$$$$$$$
PSOLID*                1               1               0                *       
*                                       
CTETRA*                1               1               7               3*       
*                      6               8
CTETRA*                2               1               4               8*       
*                      1               3
CTETRA*                3               1               1               6*       
*                      3               8
CTETRA*                4               1               2               6*       
*                      3               1
CTETRA*                5               1               5               1*       
*                      8               6
CTETRA*                6               1              15              11*       
*                     14              16
CTETRA*                7               1              12              16*       
*                      9              11
CTETRA*                8               1               9              14*       
*                     11              16
CTETRA*                9               1              10              14*       
*                     11               9
CTETRA*               10               1              13               9*       
*                     16              14
CTETRA*               11               1              23              19*       
*                     22              24
CTETRA*               12               1              20              24*       
*                     17              19
CTETRA*               13               1              17              22*       
*                     19              24
CTETRA*               14               1              18              22*       
*                     19              17
CTETRA*               15               1              21              17*       
*                     24              22
CTETRA*               16               1              31              27*       
*                     30              32
CTETRA*               17               1              28              32*       
*                     25              27
CTETRA*               18               1              25              30*       
*                     27              32
CTETRA*               19               1              26              30*       
*                     27              25
CTETRA*               20               1              29              25*       
*                     32              30
PSOLID*                2               1               0                *       
*                                       
CTETRA*               21               2              39              35*       
*                     38              40             134              72*       
*                    135             136              69              73*       
*                                                                       
CTETRA*               22               2              36              40*       
*                     33              35              65              66*       
*                     67              68              69              70*       
*                                                                       
CTETRA*               23               2              33              38*       
*                     35              40              71              72*       
*                     70              66              73              69*       
*                                                                       
CTETRA*               24               2              34              38*       
*                     35              33              74              72*       
*                     75              76              71              70*       
*                                                                       
CTETRA*               25               2              37              33*       
*                     40              38              77              66*       
*                     78              79              71              73*       
*                                                                       
CTETRA*               26               2              47              43*       
*                     46              48              80              81*       
*                     82              83              84              85*       
*                                                                       
CTETRA*               27               2              44              48*       
*                     41              43              86              87*       
*                     88              89              84              90*       
*                                                                       
CTETRA*               28               2              41              46*       
*                     43              48              91              81*       
*                     90              87              85              84*       
*                                                                       
CTETRA*               29               2              42              46*       
*                     43              41              92              81*       
*                     93              94              91              90*       
*                                                                       
CTETRA*               30               2              45              41*       
*                     48              46              95              87*       
*                     96              97              91              85*       
*                                                                       
CTETRA*               31               2              55              51*       
*                     54              56              98              99*       
*                    100             101             102             103*       
*                                                                       
CTETRA*               32               2              52              56*       
*                     49              51             104             105*       
*                    106             107             102             108*       
*                                                                       
CTETRA*               33               2              49              54*       
*                     51              56             109              99*       
*                    108             105             103             102*       
*                                                                       
CTETRA*               34               2              50              54*       
*                     51              49             110              99*       
*                    111             112             109             108*       
*                                                                       
CTETRA*               35               2              53              49*       
*                     56              54             113             105*       
*                    114             115             109             103*       
*                                                                       
CTETRA*               36               2              63              59*       
*                     62              64             116             117*       
*                    118             119             120             121*       
*                                                                       
CTETRA*               37               2              60              64*       
*                     57              59             122             123*       
*                    124             125             120             126*       
*                                                                       
CTETRA*               38               2              57              62*       
*                     59              64             127             117*       
*                    126             123             121             120*       
*                                                                       
CTETRA*               39               2              58              62*       
*                     59              57             128             117*       
*                    129             130             127             126*       
*                                                                       
CTETRA*               40               2              61              57*       
*                     64              62             131             123*       
*                    132             133             127             121*       
*                                                                       
$--1---><------2-------><------3-------><------4-------><------5-------><--6--->
$$$$$$$$$$$$$$$$$$$$$$$$$$$$$$$$$$$$ force $$$$$$$$$$$$$$$$$$$$$$$$$$$$$$$$$$$$$
FORCE*                 1               4               0          1.0+00*       
*        1.6666666665-01          0.0+00          0.0+00
FORCE*                 1               1               0          1.0+00*       
*         3.333333333-01          0.0+00          0.0+00
FORCE*                 1               3               0          1.0+00*       
*         3.333333333-01          0.0+00          0.0+00
FORCE*                 1               2               0          1.0+00*       
*        1.6666666665-01          0.0+00          0.0+00
FORCE*                 1              34               0          1.0+00*       
*        2.3673632499-11          0.0+00          0.0+00
FORCE*                 1              35               0          1.0+00*       
*       -7.8591982748-11          0.0+00          0.0+00
FORCE*                 1              33               0          1.0+00*       
*       -7.8591992289-11          0.0+00          0.0+00
FORCE*                 1              75               0          1.0+00*       
*        1.6666666679-01          0.0+00          0.0+00
FORCE*                 1              76               0          1.0+00*       
*        1.6666666679-01          0.0+00          0.0+00
FORCE*                 1              70               0          1.0+00*       
*        3.3333333307-01          0.0+00          0.0+00
FORCE*                 1              36               0          1.0+00*       
*        2.3673598672-11          0.0+00          0.0+00
FORCE*                 1              67               0          1.0+00*       
*        1.6666666679-01          0.0+00          0.0+00
FORCE*                 1              68               0          1.0+00*       
*        1.6666666679-01          0.0+00          0.0+00
$--1---><------2-------><------3-------><------4-------><------5-------><--6--->
$$$$$$$$$$$$$$$$$$$$$$$$$$$$$$$$$$$$ force $$$$$$$$$$$$$$$$$$$$$$$$$$$$$$$$$$$$$
FORCE*                 1               4               0          1.0+00*       
*                 0.0+00  3.333333333-01          0.0+00
FORCE*                 1               8               0          1.0+00*       
*                 0.0+00  6.666666666-01          0.0+00
FORCE*                 1               3               0          1.0+00*       
*                 0.0+00  6.666666666-01          0.0+00
FORCE*                 1               7               0          1.0+00*       
*                 0.0+00  3.333333333-01          0.0+00
FORCE*                 1              39               0          1.0+00*       
*                 0.0+00 4.7347206017-11          0.0+00
FORCE*                 1              35               0          1.0+00*       
*                 0.0+00-1.5718397764-10          0.0+00
FORCE*                 1              40               0          1.0+00*       
*                 0.0+00-1.5718399152-10          0.0+00
FORCE*                 1             134               0          1.0+00*       
*                 0.0+00 3.3333333357-01          0.0+00
FORCE*                 1             136               0          1.0+00*       
*                 0.0+00 3.3333333357-01          0.0+00
FORCE*                 1              69               0          1.0+00*       
*                 0.0+00 6.6666666613-01          0.0+00
FORCE*                 1              36               0          1.0+00*       
*                 0.0+00 4.7347226834-11          0.0+00
FORCE*                 1              65               0          1.0+00*       
*                 0.0+00 3.3333333357-01          0.0+00
FORCE*                 1              68               0          1.0+00*       
*                 0.0+00 3.3333333357-01          0.0+00
$--1---><------2-------><------3-------><------4-------><------5-------><--6--->
$$$$$$$$$$$$$$$$$$$$$$$$$$$$$$$$$$$$ force $$$$$$$$$$$$$$$$$$$$$$$$$$$$$$$$$$$$$
FORCE*                 1               7               0          1.0+00*       
*                 0.0+00          0.0+00 4.9999999995-01
FORCE*                 1               3               0          1.0+00*       
*                 0.0+00          0.0+00  9.999999999-01
FORCE*                 1               6               0          1.0+00*       
*                 0.0+00          0.0+00  9.999999999-01
FORCE*                 1               2               0          1.0+00*       
*                 0.0+00          0.0+00 4.9999999995-01
FORCE*                 1              39               0          1.0+00*       
*                 0.0+00          0.0+00 7.1020762188-11
FORCE*                 1              35               0          1.0+00*       
*                 0.0+00          0.0+00 -2.357760532-10
FORCE*                 1              38               0          1.0+00*       
*                 0.0+00          0.0+00-2.3577599768-10
FORCE*                 1             134               0          1.0+00*       
*                 0.0+00          0.0+00 5.0000000036-01
FORCE*                 1              72               0          1.0+00*       
*                 0.0+00          0.0+00  9.999999992-01
FORCE*                 1             135               0          1.0+00*       
*                 0.0+00          0.0+00 5.0000000036-01
FORCE*                 1              34               0          1.0+00*       
*                 0.0+00          0.0+00 7.1020899231-11
FORCE*                 1              74               0          1.0+00*       
*                 0.0+00          0.0+00 5.0000000036-01
FORCE*                 1              75               0          1.0+00*       
*                 0.0+00          0.0+00 5.0000000036-01
$--1---><------2-------><------3-------><------4-------><------5-------><--6--->
ENDDATA
