$ Generated by Mecway 29
$-------------EXECUTIVE CONTROL SECTION-------------
SOL 101
CEND
$---------------CASE CONTROL SECTION----------------
DISPLACEMENT = ALL
$
  ACCELERATION(PRINT,PLOT) = ALL
  DISPLACEMENT(PRINT, PLOT) = ALL
  GPFORCE(PRINT, PLOT) = ALL
  MPCFORCES(PRINT, PLOT) = ALL
  OLOAD(PRINT, PLOT)= ALL
  SPCFORCES(PRINT, PLOT) = ALL
  FORCE(PRINT, PLOT) = ALL
  STRESS(PRINT, PLOT, CORNER)= ALL
  STRAIN(PRINT, PLOT, CORNER)= ALL
$
SPC = 1
TEMPERATURE = 1
BEGIN BULK
$-----------------BULK DATA SECTION-----------------
$
  PARAM, POST,-1
$
GRID*                  1               0          0.0+00          0.0+00*       
*                 0.0+00               0
GRID*                  2               0          8.0-01          0.0+00*       
*                 0.0+00               0
GRID*                  3               0          8.0-01          8.0-01*       
*                 0.0+00               0
GRID*                  4               0          0.0+00          8.0-01*       
*                 0.0+00               0
GRID*                  5               0          0.0+00          0.0+00*       
*                 8.0-01               0
GRID*                  6               0          8.0-01          0.0+00*       
*                 8.0-01               0
GRID*                  7               0          8.0-01          8.0-01*       
*                 8.0-01               0
GRID*                  8               0          0.0+00          8.0-01*       
*                 8.0-01               0
GRID*                  9               0          4.0-01          1.6+00*       
*                 0.0+00               0
GRID*                 10               0          8.0-01          2.0+00*       
*                 0.0+00               0
GRID*                 11               0          8.0-01          2.0+00*       
*                 8.0-01               0
GRID*                 12               0          4.0-01          1.6+00*       
*                 4.0-01               0
GRID*                 13               0          8.0-01          1.6+00*       
*                 4.0-01               0
GRID*                 14               0          0.0+00          2.0+00*       
*                 4.0-01               0
GRID*                 15               0          8.0-01          2.4+00*       
*                 4.0-01               0
GRID*                 16               0          0.0+00          1.6+00*       
*                 4.0-01               0
GRID*                 17               0          4.0-01          2.4+00*       
*                 0.0+00               0
GRID*                 18               0          0.0+00          2.0+00*       
*                 0.0+00               0
GRID*                 19               0          0.0+00          2.4+00*       
*                 4.0-01               0
GRID*                 20               0          8.0-01          2.0+00*       
*                 4.0-01               0
GRID*                 21               0          4.0-01          1.6+00*       
*                 8.0-01               0
GRID*                 22               0          0.0+00          2.0+00*       
*                 8.0-01               0
GRID*                 23               0          4.0-01          2.0+00*       
*                 0.0+00               0
GRID*                 24               0          4.0-01          2.0+00*       
*                 8.0-01               0
GRID*                 25               0          4.0-01          2.4+00*       
*                 8.0-01               0
GRID*                 26               0          4.0-01          2.4+00*       
*                 4.0-01               0
GRID*                 27               0          0.0+00          1.6+00*       
*                 0.0+00               0
GRID*                 28               0          8.0-01          1.6+00*       
*                 0.0+00               0
GRID*                 29               0          8.0-01          2.4+00*       
*                 0.0+00               0
GRID*                 30               0          0.0+00          2.4+00*       
*                 0.0+00               0
GRID*                 31               0          0.0+00          1.6+00*       
*                 8.0-01               0
GRID*                 32               0          8.0-01          1.6+00*       
*                 8.0-01               0
GRID*                 33               0          8.0-01          2.4+00*       
*                 8.0-01               0
GRID*                 34               0          0.0+00          2.4+00*       
*                 8.0-01               0
GRID*                 35               0          0.0+00          3.2+00*       
*                 0.0+00               0
GRID*                 36               0          8.0-01          3.2+00*       
*                 0.0+00               0
GRID*                 37               0          8.0-01          4.0+00*       
*                 0.0+00               0
GRID*                 38               0          0.0+00          4.0+00*       
*                 0.0+00               0
GRID*                 39               0          0.0+00          3.2+00*       
*                 8.0-01               0
GRID*                 40               0          8.0-01          3.2+00*       
*                 8.0-01               0
GRID*                 41               0          8.0-01          4.0+00*       
*                 8.0-01               0
GRID*                 42               0          0.0+00          4.0+00*       
*                 8.0-01               0
GRID*                 43               0          0.0+00          4.8+00*       
*                 0.0+00               0
GRID*                 44               0          8.0-01          4.8+00*       
*                 0.0+00               0
GRID*                 45               0          8.0-01          5.6+00*       
*                 0.0+00               0
GRID*                 46               0          0.0+00          5.6+00*       
*                 0.0+00               0
GRID*                 47               0          0.0+00          4.8+00*       
*                 8.0-01               0
GRID*                 48               0          8.0-01          4.8+00*       
*                 8.0-01               0
GRID*                 49               0          8.0-01          5.6+00*       
*                 8.0-01               0
GRID*                 50               0          0.0+00          5.6+00*       
*                 8.0-01               0
GRID*                 51               0          0.0+00          6.4+00*       
*                 8.0-01               0
GRID*                 52               0 9.7968508306-17          6.4+00*       
*                 0.0+00               0
GRID*                 53               0 9.7968508306-17          7.2+00*       
*                 0.0+00               0
GRID*                 54               0          0.0+00          7.2+00*       
*                 8.0-01               0
GRID*                 55               0          8.0-01          6.4+00*       
*                 8.0-01               0
GRID*                 56               0          8.0-01          6.4+00*       
*                 0.0+00               0
GRID*                 57               0          8.0-01          7.2+00*       
*                 0.0+00               0
GRID*                 58               0          8.0-01          7.2+00*       
*                 8.0-01               0
GRID*                 59               0          0.0+00          8.0+00*       
*                 0.0+00               0
GRID*                 60               0          8.0-01          8.0+00*       
*                 0.0+00               0
GRID*                 61               0          8.0-01          8.8+00*       
*                 0.0+00               0
GRID*                 62               0          0.0+00          8.8+00*       
*                 0.0+00               0
GRID*                 63               0          0.0+00          8.0+00*       
*                 8.0-01               0
GRID*                 64               0          8.0-01          8.0+00*       
*                 8.0-01               0
GRID*                 65               0          8.0-01          8.8+00*       
*                 8.0-01               0
GRID*                 66               0          0.0+00          8.8+00*       
*                 8.0-01               0
GRID*                 67               0          4.0-01          5.6+00*       
*                 0.0+00               0
GRID*                 68               0          0.0+00          5.2+00*       
*                 0.0+00               0
GRID*                 69               0          4.0-01          5.2+00*       
*                 0.0+00               0
GRID*                 70               0          8.0-01          5.6+00*       
*                 4.0-01               0
GRID*                 71               0          0.0+00          5.6+00*       
*                 4.0-01               0
GRID*                 72               0          0.0+00          4.8+00*       
*                 4.0-01               0
GRID*                 73               0          4.0-01          5.6+00*       
*                 8.0-01               0
GRID*                 74               0          0.0+00          5.2+00*       
*                 8.0-01               0
GRID*                 75               0          4.0-01          5.2+00*       
*                 8.0-01               0
GRID*                 76               0          0.0+00          8.8+00*       
*                 4.0-01               0
GRID*                 77               0          4.0-01          8.0+00*       
*                 8.0-01               0
GRID*                 78               0          8.0-01          8.4+00*       
*                 8.0-01               0
GRID*                 79               0          4.0-01          8.8+00*       
*                 8.0-01               0
GRID*                 80               0          0.0+00          8.4+00*       
*                 8.0-01               0
GRID*                 81               0          4.0-01          8.0+00*       
*                 0.0+00               0
GRID*                 82               0          8.0-01          8.4+00*       
*                 0.0+00               0
GRID*                 83               0          4.0-01          8.8+00*       
*                 0.0+00               0
GRID*                 84               0          0.0+00          8.4+00*       
*                 0.0+00               0
GRID*                 85               0          0.0+00          8.0+00*       
*                 4.0-01               0
GRID*                 86               0          8.0-01          8.0+00*       
*                 4.0-01               0
GRID*                 87               0          8.0-01          8.8+00*       
*                 4.0-01               0
$--1---><------2-------><------3-------><------4-------><------5-------><--6--->
$$$$$$$$$$$$$$$$$$$$$$$$$$$$$$$$$$$ Material $$$$$$$$$$$$$$$$$$$$$$$$$$$$$$$$$$$
MAT9*                  1          1.0+11          0.0+00          0.0+00*       
*                 0.0+00          0.0+00          0.0+00          1.0+11*       
*                 0.0+00          0.0+00          0.0+00          0.0+00*       
*                 1.0+11          0.0+00          0.0+00          0.0+00*       
*                 5.0+10          0.0+00          0.0+00          5.0+10*       
*                 0.0+00          5.0+10          0.0+00          8.0-04*       
*                 3.0-04          2.0-03          0.0+00          0.0+00*       
*                 0.0+00          0.0+00          0.0+00
$--1---><------2-------><------3-------><------4-------><------5-------><--6--->
SPC*                   1               1               3          0.0+00*       
*                                                                       
SPC*                   1               1               1          0.0+00*       
*                                                                       
SPC*                   1               2               3          0.0+00*       
*                                                                       
SPC*                   1               3               3          0.0+00*       
*                                                                       
SPC*                   1               4               1          0.0+00*       
*                                                                       
SPC*                   1               4               2          0.0+00*       
*                                                                       
SPC*                   1               4               3          0.0+00*       
*                                                                       
SPC*                   1               9               3          0.0+00*       
*                                                                       
SPC*                   1              10               3          0.0+00*       
*                                                                       
SPC*                   1              17               3          0.0+00*       
*                                                                       
SPC*                   1              18               3          0.0+00*       
*                                                                       
SPC*                   1              23               3          0.0+00*       
*                                                                       
SPC*                   1              27               3          0.0+00*       
*                                                                       
SPC*                   1              27               1          0.0+00*       
*                                                                       
SPC*                   1              28               3          0.0+00*       
*                                                                       
SPC*                   1              29               3          0.0+00*       
*                                                                       
SPC*                   1              30               1          0.0+00*       
*                                                                       
SPC*                   1              30               2          0.0+00*       
*                                                                       
SPC*                   1              30               3          0.0+00*       
*                                                                       
SPC*                   1              35               3          0.0+00*       
*                                                                       
SPC*                   1              35               1          0.0+00*       
*                                                                       
SPC*                   1              36               3          0.0+00*       
*                                                                       
SPC*                   1              37               3          0.0+00*       
*                                                                       
SPC*                   1              38               1          0.0+00*       
*                                                                       
SPC*                   1              38               2          0.0+00*       
*                                                                       
SPC*                   1              38               3          0.0+00*       
*                                                                       
SPC*                   1              43               3          0.0+00*       
*                                                                       
SPC*                   1              43               1          0.0+00*       
*                                                                       
SPC*                   1              44               3          0.0+00*       
*                                                                       
SPC*                   1              45               3          0.0+00*       
*                                                                       
SPC*                   1              46               1          0.0+00*       
*                                                                       
SPC*                   1              46               2          0.0+00*       
*                                                                       
SPC*                   1              46               3          0.0+00*       
*                                                                       
SPC*                   1              52               3          0.0+00*       
*                                                                       
SPC*                   1              52               1          0.0+00*       
*                                                                       
SPC*                   1              53               1          0.0+00*       
*                                                                       
SPC*                   1              53               2          0.0+00*       
*                                                                       
SPC*                   1              53               3          0.0+00*       
*                                                                       
SPC*                   1              56               3          0.0+00*       
*                                                                       
SPC*                   1              57               3          0.0+00*       
*                                                                       
SPC*                   1              59               3          0.0+00*       
*                                                                       
SPC*                   1              59               1          0.0+00*       
*                                                                       
SPC*                   1              60               3          0.0+00*       
*                                                                       
SPC*                   1              61               3          0.0+00*       
*                                                                       
SPC*                   1              62               1          0.0+00*       
*                                                                       
SPC*                   1              62               2          0.0+00*       
*                                                                       
SPC*                   1              62               3          0.0+00*       
*                                                                       
SPC*                   1              67               3          0.0+00*       
*                                                                       
SPC*                   1              68               3          0.0+00*       
*                                                                       
SPC*                   1              69               3          0.0+00*       
*                                                                       
SPC*                   1              81               3          0.0+00*       
*                                                                       
SPC*                   1              82               3          0.0+00*       
*                                                                       
SPC*                   1              83               3          0.0+00*       
*                                                                       
SPC*                   1              84               3          0.0+00*       
*                                                                       
$--1---><------2-------><------3-------><------4-------><------5-------><--6--->
$$$$$$$$$$$$$$$$$$$$$$$$$$$$$$$$$$$ Default $$$$$$$$$$$$$$$$$$$$$$$$$$$$$$$$$$$$
PSOLID*                1               1               0                *       
*                                       
CTETRA*                1               1               6               7*       
*                      3               8
CTETRA*                2               1               1               6*       
*                      8               5
CTETRA*                3               1               1               3*       
*                      4               8
CTETRA*                4               1               1               6*       
*                      3               8
CTETRA*                5               1               1               2*       
*                      3               6
PSOLID*                2               1               0                *       
*                                       
CTETRA*                6               2              32              33*       
*                     29              34              11              15*       
*                     20              24              25              26*       
*                                                                       
CTETRA*               11               2              27              32*       
*                     34              31              12              24*       
*                     14              16              21              22*       
*                                                                       
CTETRA*               12               2              27              29*       
*                     30              34              23              17*       
*                     18              14              26              19*       
*                                                                       
CTETRA*               13               2              27              32*       
*                     29              34              12              20*       
*                     23              14              24              26*       
*                                                                       
CTETRA*               14               2              27              28*       
*                     29              32               9              10*       
*                     23              12              13              20*       
*                                                                       
PSOLID*                3               1               0               2*       
*                                   FULL
CPENTA*                7               3              35              37*       
*                     38              39              41              42
CPENTA*               15               3              35              36*       
*                     37              39              40              41
CPENTA*               16               3              45              43*       
*                     44              49              47              48
PSOLID*                4               1               0               3*       
*                                   FULL
CPENTA*                8               4              45              46*       
*                     43              49              50              47*       
*                     67              68              69              70*       
*                     71              72              73              74*       
*                     75                                                *       
*                                                                       
PSOLID*                5               1               0               2*       
*                                   FULL
CHEXA*                 9               5              51              52*       
*                     53              54              55              56*       
*                     57              58                                *       
*                                                                       
PSOLID*                6               1               0               3*       
*                                   FULL
CHEXA*                10               6              59              60*       
*                     61              62              63              64*       
*                     65              66              81              82*       
*                     83              84              85              86*       
*                     87              76              77              78*       
*                     79              80
$--1---><------2-------><------3-------><------4-------><------5-------><--6--->
$$$$$$$$$$$$$$$$$$$$$$$$$$$$$$$$$ temperature $$$$$$$$$$$$$$$$$$$$$$$$$$$$$$$$$$
TEMP*                  1               1          3.0+02                *       
*                                                                       
TEMP*                  1               3          3.0+02                *       
*                                                                       
TEMP*                  1               4          3.0+02                *       
*                                                                       
TEMP*                  1               8          3.0+02                *       
*                                                                       
TEMP*                  1               1          3.0+02                *       
*                                                                       
TEMP*                  1               6          3.0+02                *       
*                                                                       
TEMP*                  1               3          3.0+02                *       
*                                                                       
TEMP*                  1               8          3.0+02                *       
*                                                                       
TEMP*                  1               1          3.0+02                *       
*                                                                       
TEMP*                  1               2          3.0+02                *       
*                                                                       
TEMP*                  1               3          3.0+02                *       
*                                                                       
TEMP*                  1               6          3.0+02                *       
*                                                                       
TEMP*                  1              32          3.0+02                *       
*                                                                       
TEMP*                  1              33          3.0+02                *       
*                                                                       
TEMP*                  1              29          3.0+02                *       
*                                                                       
TEMP*                  1              34          3.0+02                *       
*                                                                       
TEMP*                  1              11          3.0+02                *       
*                                                                       
TEMP*                  1              15          3.0+02                *       
*                                                                       
TEMP*                  1              20          3.0+02                *       
*                                                                       
TEMP*                  1              24          3.0+02                *       
*                                                                       
TEMP*                  1              25          3.0+02                *       
*                                                                       
TEMP*                  1              26          3.0+02                *       
*                                                                       
TEMP*                  1               1          3.0+02                *       
*                                                                       
TEMP*                  1               6          3.0+02                *       
*                                                                       
TEMP*                  1               8          3.0+02                *       
*                                                                       
TEMP*                  1               5          3.0+02                *       
*                                                                       
TEMP*                  1               6          3.0+02                *       
*                                                                       
TEMP*                  1               7          3.0+02                *       
*                                                                       
TEMP*                  1               3          3.0+02                *       
*                                                                       
TEMP*                  1               8          3.0+02                *       
*                                                                       
TEMP*                  1              35          3.0+02                *       
*                                                                       
TEMP*                  1              37          3.0+02                *       
*                                                                       
TEMP*                  1              38          3.0+02                *       
*                                                                       
TEMP*                  1              39          3.0+02                *       
*                                                                       
TEMP*                  1              41          3.0+02                *       
*                                                                       
TEMP*                  1              42          3.0+02                *       
*                                                                       
TEMP*                  1              45          3.0+02                *       
*                                                                       
TEMP*                  1              46          3.0+02                *       
*                                                                       
TEMP*                  1              43          3.0+02                *       
*                                                                       
TEMP*                  1              49          3.0+02                *       
*                                                                       
TEMP*                  1              50          3.0+02                *       
*                                                                       
TEMP*                  1              47          3.0+02                *       
*                                                                       
TEMP*                  1              67          3.0+02                *       
*                                                                       
TEMP*                  1              68          3.0+02                *       
*                                                                       
TEMP*                  1              69          3.0+02                *       
*                                                                       
TEMP*                  1              70          3.0+02                *       
*                                                                       
TEMP*                  1              71          3.0+02                *       
*                                                                       
TEMP*                  1              72          3.0+02                *       
*                                                                       
TEMP*                  1              73          3.0+02                *       
*                                                                       
TEMP*                  1              74          3.0+02                *       
*                                                                       
TEMP*                  1              75          3.0+02                *       
*                                                                       
TEMP*                  1              51          3.0+02                *       
*                                                                       
TEMP*                  1              52          3.0+02                *       
*                                                                       
TEMP*                  1              53          3.0+02                *       
*                                                                       
TEMP*                  1              54          3.0+02                *       
*                                                                       
TEMP*                  1              55          3.0+02                *       
*                                                                       
TEMP*                  1              56          3.0+02                *       
*                                                                       
TEMP*                  1              57          3.0+02                *       
*                                                                       
TEMP*                  1              58          3.0+02                *       
*                                                                       
TEMP*                  1              59          3.0+02                *       
*                                                                       
TEMP*                  1              60          3.0+02                *       
*                                                                       
TEMP*                  1              61          3.0+02                *       
*                                                                       
TEMP*                  1              62          3.0+02                *       
*                                                                       
TEMP*                  1              63          3.0+02                *       
*                                                                       
TEMP*                  1              64          3.0+02                *       
*                                                                       
TEMP*                  1              65          3.0+02                *       
*                                                                       
TEMP*                  1              66          3.0+02                *       
*                                                                       
TEMP*                  1              81          3.0+02                *       
*                                                                       
TEMP*                  1              82          3.0+02                *       
*                                                                       
TEMP*                  1              83          3.0+02                *       
*                                                                       
TEMP*                  1              84          3.0+02                *       
*                                                                       
TEMP*                  1              85          3.0+02                *       
*                                                                       
TEMP*                  1              86          3.0+02                *       
*                                                                       
TEMP*                  1              87          3.0+02                *       
*                                                                       
TEMP*                  1              76          3.0+02                *       
*                                                                       
TEMP*                  1              77          3.0+02                *       
*                                                                       
TEMP*                  1              78          3.0+02                *       
*                                                                       
TEMP*                  1              79          3.0+02                *       
*                                                                       
TEMP*                  1              80          3.0+02                *       
*                                                                       
TEMP*                  1              27          3.0+02                *       
*                                                                       
TEMP*                  1              32          3.0+02                *       
*                                                                       
TEMP*                  1              34          3.0+02                *       
*                                                                       
TEMP*                  1              31          3.0+02                *       
*                                                                       
TEMP*                  1              12          3.0+02                *       
*                                                                       
TEMP*                  1              24          3.0+02                *       
*                                                                       
TEMP*                  1              14          3.0+02                *       
*                                                                       
TEMP*                  1              16          3.0+02                *       
*                                                                       
TEMP*                  1              21          3.0+02                *       
*                                                                       
TEMP*                  1              22          3.0+02                *       
*                                                                       
TEMP*                  1              27          3.0+02                *       
*                                                                       
TEMP*                  1              29          3.0+02                *       
*                                                                       
TEMP*                  1              30          3.0+02                *       
*                                                                       
TEMP*                  1              34          3.0+02                *       
*                                                                       
TEMP*                  1              23          3.0+02                *       
*                                                                       
TEMP*                  1              17          3.0+02                *       
*                                                                       
TEMP*                  1              18          3.0+02                *       
*                                                                       
TEMP*                  1              14          3.0+02                *       
*                                                                       
TEMP*                  1              26          3.0+02                *       
*                                                                       
TEMP*                  1              19          3.0+02                *       
*                                                                       
TEMP*                  1              27          3.0+02                *       
*                                                                       
TEMP*                  1              32          3.0+02                *       
*                                                                       
TEMP*                  1              29          3.0+02                *       
*                                                                       
TEMP*                  1              34          3.0+02                *       
*                                                                       
TEMP*                  1              12          3.0+02                *       
*                                                                       
TEMP*                  1              20          3.0+02                *       
*                                                                       
TEMP*                  1              23          3.0+02                *       
*                                                                       
TEMP*                  1              14          3.0+02                *       
*                                                                       
TEMP*                  1              24          3.0+02                *       
*                                                                       
TEMP*                  1              26          3.0+02                *       
*                                                                       
TEMP*                  1              27          3.0+02                *       
*                                                                       
TEMP*                  1              28          3.0+02                *       
*                                                                       
TEMP*                  1              29          3.0+02                *       
*                                                                       
TEMP*                  1              32          3.0+02                *       
*                                                                       
TEMP*                  1               9          3.0+02                *       
*                                                                       
TEMP*                  1              10          3.0+02                *       
*                                                                       
TEMP*                  1              23          3.0+02                *       
*                                                                       
TEMP*                  1              12          3.0+02                *       
*                                                                       
TEMP*                  1              13          3.0+02                *       
*                                                                       
TEMP*                  1              20          3.0+02                *       
*                                                                       
TEMP*                  1              35          3.0+02                *       
*                                                                       
TEMP*                  1              36          3.0+02                *       
*                                                                       
TEMP*                  1              37          3.0+02                *       
*                                                                       
TEMP*                  1              39          3.0+02                *       
*                                                                       
TEMP*                  1              40          3.0+02                *       
*                                                                       
TEMP*                  1              41          3.0+02                *       
*                                                                       
TEMP*                  1              45          3.0+02                *       
*                                                                       
TEMP*                  1              43          3.0+02                *       
*                                                                       
TEMP*                  1              44          3.0+02                *       
*                                                                       
TEMP*                  1              49          3.0+02                *       
*                                                                       
TEMP*                  1              47          3.0+02                *       
*                                                                       
TEMP*                  1              48          3.0+02                *       
*                                                                       
$--1---><------2-------><------3-------><------4-------><------5-------><--6--->
TEMPD*                 1          0.0+00                                *       
*                                                                       
$--1---><------2-------><------3-------><------4-------><------5-------><--6--->
ENDDATA
