$ Generated by Mecway 29
$-------------EXECUTIVE CONTROL SECTION-------------
SOL 105
CEND
$---------------CASE CONTROL SECTION----------------
DISPLACEMENT = ALL
$
  ACCELERATION(PRINT,PLOT) = ALL
  DISPLACEMENT(PRINT, PLOT) = ALL
  GPFORCE(PRINT, PLOT) = ALL
  MPCFORCES(PRINT, PLOT) = ALL
  OLOAD(PRINT, PLOT)= ALL
  SPCFORCES(PRINT, PLOT) = ALL
  FORCE(PRINT, PLOT) = ALL
  STRESS(PRINT, PLOT, CORNER)= ALL
  STRAIN(PRINT, PLOT, CORNER)= ALL
$
SPC = 1
SUBCASE 1
LOAD = 1
SUBCASE 2
METHOD = 1
BEGIN BULK
$-----------------BULK DATA SECTION-----------------
$
  PARAM, POST,-1
$
GRID*                  1               0          0.0+00          0.0+00*       
*                 0.0+00               0
GRID*                  2               0          1.0+00          0.0+00*       
*                 0.0+00               0
GRID*                  3               0          1.0+00          1.0-01*       
*                 0.0+00               0
GRID*                  4               0          0.0+00          1.0-01*       
*                 0.0+00               0
GRID*                  5               0          1.0-01          0.0+00*       
*                 0.0+00               0
GRID*                  6               0          1.0-01          1.0-01*       
*                 0.0+00               0
GRID*                  7               0          2.0-01          0.0+00*       
*                 0.0+00               0
GRID*                  8               0          2.0-01          1.0-01*       
*                 0.0+00               0
GRID*                  9               0          3.0-01          0.0+00*       
*                 0.0+00               0
GRID*                 10               0          3.0-01          1.0-01*       
*                 0.0+00               0
GRID*                 11               0          4.0-01          0.0+00*       
*                 0.0+00               0
GRID*                 12               0          4.0-01          1.0-01*       
*                 0.0+00               0
GRID*                 13               0          5.0-01          0.0+00*       
*                 0.0+00               0
GRID*                 14               0          5.0-01          1.0-01*       
*                 0.0+00               0
GRID*                 15               0          6.0-01          0.0+00*       
*                 0.0+00               0
GRID*                 16               0          6.0-01          1.0-01*       
*                 0.0+00               0
GRID*                 17               0          7.0-01          0.0+00*       
*                 0.0+00               0
GRID*                 18               0          7.0-01          1.0-01*       
*                 0.0+00               0
GRID*                 19               0          8.0-01          0.0+00*       
*                 0.0+00               0
GRID*                 20               0          8.0-01          1.0-01*       
*                 0.0+00               0
GRID*                 21               0          9.0-01          0.0+00*       
*                 0.0+00               0
GRID*                 22               0          9.0-01          1.0-01*       
*                 0.0+00               0
GRID*                 23               0          9.5-01          0.0+00*       
*                 0.0+00               0
GRID*                 24               0          1.0+00          5.0-02*       
*                 0.0+00               0
GRID*                 25               0          9.5-01          1.0-01*       
*                 0.0+00               0
GRID*                 26               0          9.0-01          5.0-02*       
*                 0.0+00               0
GRID*                 27               0          9.5-01          5.0-02*       
*                 0.0+00               0
GRID*                 28               0          5.0-02          0.0+00*       
*                 0.0+00               0
GRID*                 29               0          1.0-01          5.0-02*       
*                 0.0+00               0
GRID*                 30               0          5.0-02          1.0-01*       
*                 0.0+00               0
GRID*                 31               0          0.0+00          5.0-02*       
*                 0.0+00               0
GRID*                 32               0          5.0-02          5.0-02*       
*                 0.0+00               0
GRID*                 33               0          1.5-01          0.0+00*       
*                 0.0+00               0
GRID*                 34               0          2.0-01          5.0-02*       
*                 0.0+00               0
GRID*                 35               0          1.5-01          1.0-01*       
*                 0.0+00               0
GRID*                 36               0          1.5-01          5.0-02*       
*                 0.0+00               0
GRID*                 37               0          2.5-01          0.0+00*       
*                 0.0+00               0
GRID*                 38               0          3.0-01          5.0-02*       
*                 0.0+00               0
GRID*                 39               0          2.5-01          1.0-01*       
*                 0.0+00               0
GRID*                 40               0          2.5-01          5.0-02*       
*                 0.0+00               0
GRID*                 41               0          3.5-01          0.0+00*       
*                 0.0+00               0
GRID*                 42               0          4.0-01          5.0-02*       
*                 0.0+00               0
GRID*                 43               0          3.5-01          1.0-01*       
*                 0.0+00               0
GRID*                 44               0          3.5-01          5.0-02*       
*                 0.0+00               0
GRID*                 45               0          4.5-01          0.0+00*       
*                 0.0+00               0
GRID*                 46               0          5.0-01          5.0-02*       
*                 0.0+00               0
GRID*                 47               0          4.5-01          1.0-01*       
*                 0.0+00               0
GRID*                 48               0          4.5-01          5.0-02*       
*                 0.0+00               0
GRID*                 49               0          5.5-01          0.0+00*       
*                 0.0+00               0
GRID*                 50               0          6.0-01          5.0-02*       
*                 0.0+00               0
GRID*                 51               0          5.5-01          1.0-01*       
*                 0.0+00               0
GRID*                 52               0          5.5-01          5.0-02*       
*                 0.0+00               0
GRID*                 53               0          6.5-01          0.0+00*       
*                 0.0+00               0
GRID*                 54               0          7.0-01          5.0-02*       
*                 0.0+00               0
GRID*                 55               0          6.5-01          1.0-01*       
*                 0.0+00               0
GRID*                 56               0          6.5-01          5.0-02*       
*                 0.0+00               0
GRID*                 57               0          7.5-01          0.0+00*       
*                 0.0+00               0
GRID*                 58               0          8.0-01          5.0-02*       
*                 0.0+00               0
GRID*                 59               0          7.5-01          1.0-01*       
*                 0.0+00               0
GRID*                 60               0          7.5-01          5.0-02*       
*                 0.0+00               0
GRID*                 61               0          8.5-01          0.0+00*       
*                 0.0+00               0
GRID*                 62               0          8.5-01          1.0-01*       
*                 0.0+00               0
GRID*                 63               0          8.5-01          5.0-02*       
*                 0.0+00               0
$--1---><------2-------><------3-------><------4-------><------5-------><--6--->
$$$$$$$$$$$$$$$$$$$$$$$$$$$$$$$$$$$ Material $$$$$$$$$$$$$$$$$$$$$$$$$$$$$$$$$$$
MAT1*                  1          1.0+11 3.8461538462+10          3.0-01*       
*                 0.0+00          0.0+00          0.0+00
$--1---><------2-------><------3-------><------4-------><------5-------><--6--->
SPC*                   1               1               1          0.0+00*       
*                                                                       
SPC*                   1               1               2          0.0+00*       
*                                                                       
SPC*                   1               1               3          0.0+00*       
*                                                                       
SPC*                   1               1               4          0.0+00*       
*                                                                       
SPC*                   1               1               5          0.0+00*       
*                                                                       
SPC*                   1               1               6          0.0+00*       
*                                                                       
SPC*                   1               4               1          0.0+00*       
*                                                                       
SPC*                   1               4               2          0.0+00*       
*                                                                       
SPC*                   1               4               3          0.0+00*       
*                                                                       
SPC*                   1               4               4          0.0+00*       
*                                                                       
SPC*                   1               4               5          0.0+00*       
*                                                                       
SPC*                   1               4               6          0.0+00*       
*                                                                       
SPC*                   1              31               1          0.0+00*       
*                                                                       
SPC*                   1              31               2          0.0+00*       
*                                                                       
SPC*                   1              31               3          0.0+00*       
*                                                                       
SPC*                   1              31               4          0.0+00*       
*                                                                       
SPC*                   1              31               5          0.0+00*       
*                                                                       
SPC*                   1              31               6          0.0+00*       
*                                                                       
$--1---><------2-------><------3-------><------4-------><------5-------><--6--->
$$$$$$$$$$$$$$$$$$$$$$$$$$$$$$$$$$$ Default $$$$$$$$$$$$$$$$$$$$$$$$$$$$$$$$$$$$
PSHELL*                1               1          1.0-03               1*       
*                                      1                          0.0+00
CTRIA3K*               1               1              56              18*       
*                     55          0.0+00          0.0+00
CTRIA3K*               2               1              50              55*       
*                     16          0.0+00          0.0+00
CTRIA3K*               3               1              17              60*       
*                     54          0.0+00          0.0+00
CTRIA3K*               4               1              57              58*       
*                     60          0.0+00          0.0+00
CTRIA3K*               5               1              60              20*       
*                     59          0.0+00          0.0+00
CTRIA3K*               6               1              54              59*       
*                     18          0.0+00          0.0+00
CTRIA3K*               7               1              19              63*       
*                     58          0.0+00          0.0+00
CTRIA3K*               8               1              61              26*       
*                     63          0.0+00          0.0+00
CTRIA3K*               9               1              63              22*       
*                     62          0.0+00          0.0+00
CTRIA3K*              10               1              58              62*       
*                     20          0.0+00          0.0+00
CTRIA3K*              11               1              21              27*       
*                     26          0.0+00          0.0+00
CTRIA3K*              12               1              23              24*       
*                     27          0.0+00          0.0+00
CTRIA3K*              13               1              27               3*       
*                     25          0.0+00          0.0+00
CTRIA3K*              14               1              26              25*       
*                     22          0.0+00          0.0+00
CTRIA3K*              15               1               1              32*       
*                     31          0.0+00          0.0+00
CTRIA3K*              16               1              28              29*       
*                     32          0.0+00          0.0+00
CTRIA3K*              17               1              32               6*       
*                     30          0.0+00          0.0+00
CTRIA3K*              18               1              31              30*       
*                      4          0.0+00          0.0+00
CTRIA3K*              19               1               5              36*       
*                     29          0.0+00          0.0+00
CTRIA3K*              20               1              33              34*       
*                     36          0.0+00          0.0+00
CTRIA3K*              21               1              36               8*       
*                     35          0.0+00          0.0+00
CTRIA3K*              22               1              29              35*       
*                      6          0.0+00          0.0+00
CTRIA3K*              23               1               7              40*       
*                     34          0.0+00          0.0+00
CTRIA3K*              24               1              37              38*       
*                     40          0.0+00          0.0+00
CTRIA3K*              25               1              40              10*       
*                     39          0.0+00          0.0+00
CTRIA3K*              26               1              34              39*       
*                      8          0.0+00          0.0+00
CTRIA3K*              27               1               9              44*       
*                     38          0.0+00          0.0+00
CTRIA3K*              28               1              41              42*       
*                     44          0.0+00          0.0+00
CTRIA3K*              29               1              44              12*       
*                     43          0.0+00          0.0+00
CTRIA3K*              30               1              38              43*       
*                     10          0.0+00          0.0+00
CTRIA3K*              31               1              11              48*       
*                     42          0.0+00          0.0+00
CTRIA3K*              32               1              45              46*       
*                     48          0.0+00          0.0+00
CTRIA3K*              33               1              48              14*       
*                     47          0.0+00          0.0+00
CTRIA3K*              34               1              42              47*       
*                     12          0.0+00          0.0+00
CTRIA3K*              35               1              13              52*       
*                     46          0.0+00          0.0+00
CTRIA3K*              36               1              49              50*       
*                     52          0.0+00          0.0+00
CTRIA3K*              37               1              52              16*       
*                     51          0.0+00          0.0+00
CTRIA3K*              38               1              46              51*       
*                     14          0.0+00          0.0+00
CTRIA3K*              39               1              15              56*       
*                     50          0.0+00          0.0+00
CTRIA3K*              40               1              53              54*       
*                     56          0.0+00          0.0+00
CTRIA3K*              41               1              56              54*       
*                     18          0.0+00          0.0+00
CTRIA3K*              42               1              50              56*       
*                     55          0.0+00          0.0+00
CTRIA3K*              43               1              17              57*       
*                     60          0.0+00          0.0+00
CTRIA3K*              44               1              57              19*       
*                     58          0.0+00          0.0+00
CTRIA3K*              45               1              60              58*       
*                     20          0.0+00          0.0+00
CTRIA3K*              46               1              54              60*       
*                     59          0.0+00          0.0+00
CTRIA3K*              47               1              19              61*       
*                     63          0.0+00          0.0+00
CTRIA3K*              48               1              61              21*       
*                     26          0.0+00          0.0+00
CTRIA3K*              49               1              63              26*       
*                     22          0.0+00          0.0+00
CTRIA3K*              50               1              58              63*       
*                     62          0.0+00          0.0+00
CTRIA3K*              51               1              21              23*       
*                     27          0.0+00          0.0+00
CTRIA3K*              52               1              23               2*       
*                     24          0.0+00          0.0+00
CTRIA3K*              53               1              27              24*       
*                      3          0.0+00          0.0+00
CTRIA3K*              54               1              26              27*       
*                     25          0.0+00          0.0+00
CTRIA3K*              55               1               1              28*       
*                     32          0.0+00          0.0+00
CTRIA3K*              56               1              28               5*       
*                     29          0.0+00          0.0+00
CTRIA3K*              57               1              32              29*       
*                      6          0.0+00          0.0+00
CTRIA3K*              58               1              31              32*       
*                     30          0.0+00          0.0+00
CTRIA3K*              59               1               5              33*       
*                     36          0.0+00          0.0+00
CTRIA3K*              60               1              33               7*       
*                     34          0.0+00          0.0+00
CTRIA3K*              61               1              36              34*       
*                      8          0.0+00          0.0+00
CTRIA3K*              62               1              29              36*       
*                     35          0.0+00          0.0+00
CTRIA3K*              63               1               7              37*       
*                     40          0.0+00          0.0+00
CTRIA3K*              64               1              37               9*       
*                     38          0.0+00          0.0+00
CTRIA3K*              65               1              40              38*       
*                     10          0.0+00          0.0+00
CTRIA3K*              66               1              34              40*       
*                     39          0.0+00          0.0+00
CTRIA3K*              67               1               9              41*       
*                     44          0.0+00          0.0+00
CTRIA3K*              68               1              41              11*       
*                     42          0.0+00          0.0+00
CTRIA3K*              69               1              44              42*       
*                     12          0.0+00          0.0+00
CTRIA3K*              70               1              38              44*       
*                     43          0.0+00          0.0+00
CTRIA3K*              71               1              11              45*       
*                     48          0.0+00          0.0+00
CTRIA3K*              72               1              45              13*       
*                     46          0.0+00          0.0+00
CTRIA3K*              73               1              48              46*       
*                     14          0.0+00          0.0+00
CTRIA3K*              74               1              42              48*       
*                     47          0.0+00          0.0+00
CTRIA3K*              75               1              13              49*       
*                     52          0.0+00          0.0+00
CTRIA3K*              76               1              49              15*       
*                     50          0.0+00          0.0+00
CTRIA3K*              77               1              52              50*       
*                     16          0.0+00          0.0+00
CTRIA3K*              78               1              46              52*       
*                     51          0.0+00          0.0+00
CTRIA3K*              79               1              15              53*       
*                     56          0.0+00          0.0+00
CTRIA3K*              80               1              53              17*       
*                     54          0.0+00          0.0+00
$--1---><------2-------><------3-------><------4-------><------5-------><--6--->
$$$$$$$$$$$$$$$$$$$$$$$$$$$$$$$$$$$$ force $$$$$$$$$$$$$$$$$$$$$$$$$$$$$$$$$$$$$
FORCE*                 1              24               0          1.0+00*       
*                 0.0+00          5.0-01          0.0+00
FORCE*                 1               3               0          1.0+00*       
*                 0.0+00          2.5-01          0.0+00
FORCE*                 1               2               0          1.0+00*       
*                 0.0+00          2.5-01          0.0+00
$--1---><------2-------><------3-------><------4-------><------5-------><--6--->
EIGRL*                 1                                               1*       
*                      0                          1.0+00            MASS
ENDDATA
