$ Generated by Mecway 29
$-------------EXECUTIVE CONTROL SECTION-------------
SOL 101
CEND
$---------------CASE CONTROL SECTION----------------
DISPLACEMENT = ALL
$
  ACCELERATION(PRINT,PLOT) = ALL
  DISPLACEMENT(PRINT, PLOT) = ALL
  GPFORCE(PRINT, PLOT) = ALL
  MPCFORCES(PRINT, PLOT) = ALL
  OLOAD(PRINT, PLOT)= ALL
  SPCFORCES(PRINT, PLOT) = ALL
  FORCE(PRINT, PLOT) = ALL
  STRESS(PRINT, PLOT, CORNER)= ALL
  STRAIN(PRINT, PLOT, CORNER)= ALL
$
SPC = 1
TEMPERATURE = 1
BEGIN BULK
$-----------------BULK DATA SECTION-----------------
$
  PARAM, POST,-1
$
GRID*                  1               0 2.4492127076-16          0.0+00*       
*                -2.0+00               0
GRID*                  2               0 3.6738190615-16          0.0+00*       
*                -3.0+00               0
GRID*                  3               0 3.6738190615-16          1.0+00*       
*                -3.0+00               1
GRID*                  4               0 2.4492127076-16          1.0+00*       
*                -2.0+00               0
GRID*                  5               0 3.0615158846-16          0.0+00*       
*                -2.5+00               0
GRID*                  6               0 3.6738190615-16 4.3631437421-01*       
*                -3.0+00               0
GRID*                  7               0 2.9835260991-16          1.0+00*       
*        -2.436314404+00               0
GRID*                  8               0 2.4492127076-16 4.4541230798-01*       
*                -2.0+00               0
GRID*                  9               0 2.9111070438-16 5.7278347015-01*       
*       -2.3771778047+00               0
GRID*                 10               0 2.6608172459-16  4.838258028-01*       
*       -2.1727939248+00               0
GRID*                 11               0 2.9473165714-16 7.8639173508-01*       
*       -2.4067461044+00               0
GRID*                 12               0 2.7163694034-16          1.0+00*       
*        -2.218157202+00               0
GRID*                 13               0 2.4492127076-16 7.2270615399-01*       
*                -2.0+00               0
GRID*                 14               0 2.6982646395-16 7.5454894453-01*       
*       -2.2033730522+00               0
GRID*                 15               0 2.7553642961-16          0.0+00*       
*               -2.25+00               0
GRID*                 16               0 2.9863114642-16 2.8639173508-01*       
*       -2.4385889024+00               0
GRID*                 17               0 2.4492127076-16 2.2270615399-01*       
*                -2.0+00               0
GRID*                 18               0  2.667471126-16 2.3559488356-01*       
*       -2.1782274097+00               0
GRID*                 19               0  3.367667473-16  2.181571871-01*       
*               -2.75+00               0
GRID*                 20               0 3.2653833197-16 5.8036506176-01*       
*       -2.6664758921+00               0
GRID*                 21               0 3.6738190615-16  7.181571871-01*       
*                -3.0+00               0
GRID*                 22               0 3.3286725803-16          1.0+00*       
*        -2.718157202+00               0
GRID*                 23               0 3.3105678165-16 7.5227446109-01*       
*       -2.7033730522+00               0
GRID*                 24               0  3.367667473-16          0.0+00*       
*               -2.75+00               0
GRID*                 25               0 3.6738190615-16  2.181571871-01*       
*                -3.0+00               0
GRID*                 26               0          0.0+00          0.0+00*       
*                 0.0+00               0
GRID*                 27               0 1.2246063538-16          0.0+00*       
*                -1.0+00               0
GRID*                 28               0 1.2246063538-16          1.0+00*       
*                -1.0+00               1
GRID*                 29               0          0.0+00          1.0+00*       
*                 0.0+00               0
GRID*                 30               0 6.1230317691-17          0.0+00*       
*                -5.0-01               0
GRID*                 31               0 1.2246063538-16 4.3631437421-01*       
*                -1.0+00               0
GRID*                 32               0 5.3431339142-17          1.0+00*       
*       -4.3631440401-01               0
GRID*                 33               0          0.0+00 4.4541230798-01*       
*                 0.0+00               0
GRID*                 34               0 4.6189433617-17 5.7278347015-01*       
*       -3.7717780471-01               0
GRID*                 35               0 2.1160453822-17  4.838258028-01*       
*       -1.7279392481-01               0
GRID*                 36               0 4.9810386379-17 7.8639173508-01*       
*       -4.0674610436-01               0
GRID*                 37               0 2.6715669571-17          1.0+00*       
*       -2.1815720201-01               0
GRID*                 38               0          0.0+00 7.2270615399-01*       
*                 0.0+00               0
GRID*                 39               0  2.490519319-17 7.5454894453-01*       
*       -2.0337305218-01               0
GRID*                 40               0 3.0615158846-17          0.0+00*       
*                -2.5-01               0
GRID*                 41               0 5.3709875654-17 2.8639173508-01*       
*       -4.3858890235-01               0
GRID*                 42               0          0.0+00 2.2270615399-01*       
*                 0.0+00               0
GRID*                 43               0 2.1825841837-17 2.3559488356-01*       
*       -1.7822740972-01               0
GRID*                 44               0 9.1845476537-17  2.181571871-01*       
*                -7.5-01               0
GRID*                 45               0 8.1617061209-17 5.8036506176-01*       
*       -6.6647589207-01               0
GRID*                 46               0 1.2246063538-16  7.181571871-01*       
*                -1.0+00               0
GRID*                 47               0 8.7945987262-17          1.0+00*       
*       -7.1815720201-01               0
GRID*                 48               0 8.6135510881-17 7.5227446109-01*       
*       -7.0337305218-01               0
GRID*                 49               0 9.1845476537-17          0.0+00*       
*                -7.5-01               0
GRID*                 50               0 1.2246063538-16  2.181571871-01*       
*                -1.0+00               0
$--1---><------2-------><------3-------><------4-------><------5-------><--6--->
$$$$$$$$$$$$$$$$$$$$$$$$$$$$$$$$$$$$ ortho $$$$$$$$$$$$$$$$$$$$$$$$$$$$$$$$$$$$$
MAT8*                  1          2.0+11          2.0+11          0.0+00*       
*                 1.0+11          1.0+11          1.0+11          0.0+00*       
*                 1.1+00          2.5+00       2.7315+02                *       
*                                                                       
$--1---><------2-------><------3-------><------4-------><------5-------><--6--->
CORD2R*                1               0          0.0+00          0.0+00*       
*                 0.0+00          0.0+00-7.0710678119-01 7.0710678119-01*       
*                 1.0+00          0.0+00          0.0+00                *       
*                                                                       
SPC*                   1               1               1          0.0+00*       
*                                                                       
SPC*                   1               1               2          0.0+00*       
*                                                                       
SPC*                   1               1               3          0.0+00*       
*                                                                       
SPC*                   1               3               2          0.0+00*       
*                                                                       
SPC*                   1               3               1          0.0+00*       
*                                                                       
SPC*                   1               4               1          0.0+00*       
*                                                                       
SPC*                   1              26               1          0.0+00*       
*                                                                       
SPC*                   1              26               2          0.0+00*       
*                                                                       
SPC*                   1              26               3          0.0+00*       
*                                                                       
SPC*                   1              28               2          0.0+00*       
*                                                                       
SPC*                   1              28               1          0.0+00*       
*                                                                       
SPC*                   1              29               1          0.0+00*       
*                                                                       
$--1---><------2-------><------3-------><------4-------><------5-------><--6--->
$$$$$$$$$$$$$$$$$$$$$$$$$$$$$$$$$$$ Default $$$$$$$$$$$$$$$$$$$$$$$$$$$$$$$$$$$$
PSHELL*                2               1          3.0-01               1*       
*                                      1                          0.0+00
CQUAD4*                1               2              13              14*       
*                     12               4-5.3898740696+01          0.0+00
CQUAD4*                2               2               1              15*       
*                     18              17         -4.5+01          0.0+00
CQUAD4*                3               2              15               5*       
*                     16              18         -4.5+01          0.0+00
CQUAD4*                4               2              10              18*       
*                     16               9  4.374606254+01          0.0+00
CQUAD4*                5               2              17              18*       
*                     10               8-4.9136212968+01          0.0+00
CQUAD4*               10               2               9              20*       
*                     23              11-4.6501198293+01          0.0+00
CQUAD4*               11               2              20               6*       
*                     21              23-2.1640248851+01          0.0+00
CQUAD4*               12               2              23              21*       
*                      3              22 -3.843881706+01          0.0+00
CQUAD4*               17               2              16               5*       
*                     24              19 3.2897316585+01          0.0+00
CQUAD4*               18               2              24               2*       
*                     25              19         -4.5+01          0.0+00
CQUAD4*               19               2              25               6*       
*                     20              19        -1.35+02          0.0+00
CQUAD4*               20               2              20               9*       
*                     16              19 1.3349880171+02          0.0+00
CQUAD4*               41               2              11              23*       
*                     22               7 -3.843881706+01          0.0+00
CQUAD4*               46               2               8              10*       
*                     14              13-5.7533498312+01          0.0+00
CQUAD4*               47               2              14              10*       
*                      9              11 5.1444444532+01          0.0+00
CQUAD4*               48               2              14              11*       
*                      7              12-5.3898740696+01          0.0+00
PSHELL*                3               1          3.0-01               1*       
*                                      1                          0.0+00
CTRIA3*                6               3              42              43*       
*                     35-4.9136212968+01          0.0+00
CTRIA3*                7               3              34              45*       
*                     48-4.6501198293+01          0.0+00
CTRIA3*                8               3              45              31*       
*                     46-2.1640248851+01          0.0+00
CTRIA3*                9               3              48              46*       
*                     28 -3.843881706+01          0.0+00
CTRIA3*               13               3              36              48*       
*                     47 -3.843881706+01          0.0+00
CTRIA3*               14               3              33              35*       
*                     39-5.7533498312+01          0.0+00
CTRIA3*               15               3              39              35*       
*                     34 5.1444444532+01          0.0+00
CTRIA3*               16               3              39              36*       
*                     32-5.3898740696+01          0.0+00
CTRIA3*               21               3              36              47*       
*                     32-7.9447651714+01          0.0+00
CTRIA3*               22               3              44              30*       
*                     49  9.389111411+01          0.0+00
CTRIA3*               23               3              49              27*       
*                     50         -4.5+01          0.0+00
CTRIA3*               24               3              44              50*       
*                     31         -4.5+01          0.0+00
CTRIA3*               25               3              44              49*       
*                     50          4.5+01          0.0+00
CTRIA3*               26               3              33              39*       
*                     38 -1.016601094+02          0.0+00
CTRIA3*               27               3              39              34*       
*                     36 1.2825583893+00          0.0+00
CTRIA3*               28               3              39              32*       
*                     37-9.1497912397+01          0.0+00
CTRIA3*               29               3              38              37*       
*                     29-9.6806577104+01          0.0+00
CTRIA3*               30               3              26              43*       
*                     42-9.7892513128+01          0.0+00
CTRIA3*               31               3              40              41*       
*                     43-1.0163510384+02          0.0+00
CTRIA3*               32               3              35              41*       
*                     34-8.3948185444+00          0.0+00
CTRIA3*               33               3              42              35*       
*                     33-1.0150570692+02          0.0+00
CTRIA3*               34               3              30              44*       
*                     41 -8.610888589+01          0.0+00
CTRIA3*               35               3              44              31*       
*                     45 -8.610888589+01          0.0+00
CTRIA3*               36               3              41              45*       
*                     34-9.7217295162+01          0.0+00
CTRIA3*               37               3              41              44*       
*                     45-3.2641008037+01          0.0+00
CTRIA3*               38               3              34              48*       
*                     36-7.3822067057+01          0.0+00
CTRIA3*               39               3              45              46*       
*                     48-6.7447473893+01          0.0+00
CTRIA3*               40               3              48              28*       
*                     47-8.4866665288+01          0.0+00
CTRIA3*               42               3              38              39*       
*                     37-5.3898740696+01          0.0+00
CTRIA3*               43               3              26              40*       
*                     43         -4.5+01          0.0+00
CTRIA3*               44               3              40              30*       
*                     41         -4.5+01          0.0+00
CTRIA3*               45               3              35              43*       
*                     41  4.374606254+01          0.0+00
$--1---><------2-------><------3-------><------4-------><------5-------><--6--->
$$$$$$$$$$$$$$$$$$$$$$$$$$$$$$$$$ temperature $$$$$$$$$$$$$$$$$$$$$$$$$$$$$$$$$$
TEMP*                  1              13       2.7415+02                *       
*                                                                       
TEMP*                  1              14       2.7415+02                *       
*                                                                       
TEMP*                  1              12       2.7415+02                *       
*                                                                       
TEMP*                  1               4       2.7415+02                *       
*                                                                       
TEMP*                  1               1       2.7415+02                *       
*                                                                       
TEMP*                  1              15       2.7415+02                *       
*                                                                       
TEMP*                  1              18       2.7415+02                *       
*                                                                       
TEMP*                  1              17       2.7415+02                *       
*                                                                       
TEMP*                  1              15       2.7415+02                *       
*                                                                       
TEMP*                  1               5       2.7415+02                *       
*                                                                       
TEMP*                  1              16       2.7415+02                *       
*                                                                       
TEMP*                  1              18       2.7415+02                *       
*                                                                       
TEMP*                  1              10       2.7415+02                *       
*                                                                       
TEMP*                  1              18       2.7415+02                *       
*                                                                       
TEMP*                  1              16       2.7415+02                *       
*                                                                       
TEMP*                  1               9       2.7415+02                *       
*                                                                       
TEMP*                  1              17       2.7415+02                *       
*                                                                       
TEMP*                  1              18       2.7415+02                *       
*                                                                       
TEMP*                  1              10       2.7415+02                *       
*                                                                       
TEMP*                  1               8       2.7415+02                *       
*                                                                       
TEMP*                  1              42       2.7415+02                *       
*                                                                       
TEMP*                  1              43       2.7415+02                *       
*                                                                       
TEMP*                  1              35       2.7415+02                *       
*                                                                       
TEMP*                  1              34       2.7415+02                *       
*                                                                       
TEMP*                  1              45       2.7415+02                *       
*                                                                       
TEMP*                  1              48       2.7415+02                *       
*                                                                       
TEMP*                  1              45       2.7415+02                *       
*                                                                       
TEMP*                  1              31       2.7415+02                *       
*                                                                       
TEMP*                  1              46       2.7415+02                *       
*                                                                       
TEMP*                  1              48       2.7415+02                *       
*                                                                       
TEMP*                  1              46       2.7415+02                *       
*                                                                       
TEMP*                  1              28       2.7415+02                *       
*                                                                       
TEMP*                  1               9       2.7415+02                *       
*                                                                       
TEMP*                  1              20       2.7415+02                *       
*                                                                       
TEMP*                  1              23       2.7415+02                *       
*                                                                       
TEMP*                  1              11       2.7415+02                *       
*                                                                       
TEMP*                  1              20       2.7415+02                *       
*                                                                       
TEMP*                  1               6       2.7415+02                *       
*                                                                       
TEMP*                  1              21       2.7415+02                *       
*                                                                       
TEMP*                  1              23       2.7415+02                *       
*                                                                       
TEMP*                  1              23       2.7415+02                *       
*                                                                       
TEMP*                  1              21       2.7415+02                *       
*                                                                       
TEMP*                  1               3       2.7415+02                *       
*                                                                       
TEMP*                  1              22       2.7415+02                *       
*                                                                       
TEMP*                  1              36       2.7415+02                *       
*                                                                       
TEMP*                  1              48       2.7415+02                *       
*                                                                       
TEMP*                  1              47       2.7415+02                *       
*                                                                       
TEMP*                  1              33       2.7415+02                *       
*                                                                       
TEMP*                  1              35       2.7415+02                *       
*                                                                       
TEMP*                  1              39       2.7415+02                *       
*                                                                       
TEMP*                  1              39       2.7415+02                *       
*                                                                       
TEMP*                  1              35       2.7415+02                *       
*                                                                       
TEMP*                  1              34       2.7415+02                *       
*                                                                       
TEMP*                  1              39       2.7415+02                *       
*                                                                       
TEMP*                  1              36       2.7415+02                *       
*                                                                       
TEMP*                  1              32       2.7415+02                *       
*                                                                       
TEMP*                  1              16       2.7415+02                *       
*                                                                       
TEMP*                  1               5       2.7415+02                *       
*                                                                       
TEMP*                  1              24       2.7415+02                *       
*                                                                       
TEMP*                  1              19       2.7415+02                *       
*                                                                       
TEMP*                  1              24       2.7415+02                *       
*                                                                       
TEMP*                  1               2       2.7415+02                *       
*                                                                       
TEMP*                  1              25       2.7415+02                *       
*                                                                       
TEMP*                  1              19       2.7415+02                *       
*                                                                       
TEMP*                  1              25       2.7415+02                *       
*                                                                       
TEMP*                  1               6       2.7415+02                *       
*                                                                       
TEMP*                  1              20       2.7415+02                *       
*                                                                       
TEMP*                  1              19       2.7415+02                *       
*                                                                       
TEMP*                  1              20       2.7415+02                *       
*                                                                       
TEMP*                  1               9       2.7415+02                *       
*                                                                       
TEMP*                  1              16       2.7415+02                *       
*                                                                       
TEMP*                  1              19       2.7415+02                *       
*                                                                       
TEMP*                  1              36       2.7415+02                *       
*                                                                       
TEMP*                  1              47       2.7415+02                *       
*                                                                       
TEMP*                  1              32       2.7415+02                *       
*                                                                       
TEMP*                  1              44       2.7415+02                *       
*                                                                       
TEMP*                  1              30       2.7415+02                *       
*                                                                       
TEMP*                  1              49       2.7415+02                *       
*                                                                       
TEMP*                  1              49       2.7415+02                *       
*                                                                       
TEMP*                  1              27       2.7415+02                *       
*                                                                       
TEMP*                  1              50       2.7415+02                *       
*                                                                       
TEMP*                  1              44       2.7415+02                *       
*                                                                       
TEMP*                  1              50       2.7415+02                *       
*                                                                       
TEMP*                  1              31       2.7415+02                *       
*                                                                       
TEMP*                  1              44       2.7415+02                *       
*                                                                       
TEMP*                  1              49       2.7415+02                *       
*                                                                       
TEMP*                  1              50       2.7415+02                *       
*                                                                       
TEMP*                  1              33       2.7415+02                *       
*                                                                       
TEMP*                  1              39       2.7415+02                *       
*                                                                       
TEMP*                  1              38       2.7415+02                *       
*                                                                       
TEMP*                  1              39       2.7415+02                *       
*                                                                       
TEMP*                  1              34       2.7415+02                *       
*                                                                       
TEMP*                  1              36       2.7415+02                *       
*                                                                       
TEMP*                  1              39       2.7415+02                *       
*                                                                       
TEMP*                  1              32       2.7415+02                *       
*                                                                       
TEMP*                  1              37       2.7415+02                *       
*                                                                       
TEMP*                  1              38       2.7415+02                *       
*                                                                       
TEMP*                  1              37       2.7415+02                *       
*                                                                       
TEMP*                  1              29       2.7415+02                *       
*                                                                       
TEMP*                  1              26       2.7415+02                *       
*                                                                       
TEMP*                  1              43       2.7415+02                *       
*                                                                       
TEMP*                  1              42       2.7415+02                *       
*                                                                       
TEMP*                  1              40       2.7415+02                *       
*                                                                       
TEMP*                  1              41       2.7415+02                *       
*                                                                       
TEMP*                  1              43       2.7415+02                *       
*                                                                       
TEMP*                  1              35       2.7415+02                *       
*                                                                       
TEMP*                  1              41       2.7415+02                *       
*                                                                       
TEMP*                  1              34       2.7415+02                *       
*                                                                       
TEMP*                  1              42       2.7415+02                *       
*                                                                       
TEMP*                  1              35       2.7415+02                *       
*                                                                       
TEMP*                  1              33       2.7415+02                *       
*                                                                       
TEMP*                  1              30       2.7415+02                *       
*                                                                       
TEMP*                  1              44       2.7415+02                *       
*                                                                       
TEMP*                  1              41       2.7415+02                *       
*                                                                       
TEMP*                  1              44       2.7415+02                *       
*                                                                       
TEMP*                  1              31       2.7415+02                *       
*                                                                       
TEMP*                  1              45       2.7415+02                *       
*                                                                       
TEMP*                  1              41       2.7415+02                *       
*                                                                       
TEMP*                  1              45       2.7415+02                *       
*                                                                       
TEMP*                  1              34       2.7415+02                *       
*                                                                       
TEMP*                  1              41       2.7415+02                *       
*                                                                       
TEMP*                  1              44       2.7415+02                *       
*                                                                       
TEMP*                  1              45       2.7415+02                *       
*                                                                       
TEMP*                  1              34       2.7415+02                *       
*                                                                       
TEMP*                  1              48       2.7415+02                *       
*                                                                       
TEMP*                  1              36       2.7415+02                *       
*                                                                       
TEMP*                  1              45       2.7415+02                *       
*                                                                       
TEMP*                  1              46       2.7415+02                *       
*                                                                       
TEMP*                  1              48       2.7415+02                *       
*                                                                       
TEMP*                  1              48       2.7415+02                *       
*                                                                       
TEMP*                  1              28       2.7415+02                *       
*                                                                       
TEMP*                  1              47       2.7415+02                *       
*                                                                       
TEMP*                  1              11       2.7415+02                *       
*                                                                       
TEMP*                  1              23       2.7415+02                *       
*                                                                       
TEMP*                  1              22       2.7415+02                *       
*                                                                       
TEMP*                  1               7       2.7415+02                *       
*                                                                       
TEMP*                  1              38       2.7415+02                *       
*                                                                       
TEMP*                  1              39       2.7415+02                *       
*                                                                       
TEMP*                  1              37       2.7415+02                *       
*                                                                       
TEMP*                  1              26       2.7415+02                *       
*                                                                       
TEMP*                  1              40       2.7415+02                *       
*                                                                       
TEMP*                  1              43       2.7415+02                *       
*                                                                       
TEMP*                  1              40       2.7415+02                *       
*                                                                       
TEMP*                  1              30       2.7415+02                *       
*                                                                       
TEMP*                  1              41       2.7415+02                *       
*                                                                       
TEMP*                  1              35       2.7415+02                *       
*                                                                       
TEMP*                  1              43       2.7415+02                *       
*                                                                       
TEMP*                  1              41       2.7415+02                *       
*                                                                       
TEMP*                  1               8       2.7415+02                *       
*                                                                       
TEMP*                  1              10       2.7415+02                *       
*                                                                       
TEMP*                  1              14       2.7415+02                *       
*                                                                       
TEMP*                  1              13       2.7415+02                *       
*                                                                       
TEMP*                  1              14       2.7415+02                *       
*                                                                       
TEMP*                  1              10       2.7415+02                *       
*                                                                       
TEMP*                  1               9       2.7415+02                *       
*                                                                       
TEMP*                  1              11       2.7415+02                *       
*                                                                       
TEMP*                  1              14       2.7415+02                *       
*                                                                       
TEMP*                  1              11       2.7415+02                *       
*                                                                       
TEMP*                  1               7       2.7415+02                *       
*                                                                       
TEMP*                  1              12       2.7415+02                *       
*                                                                       
$--1---><------2-------><------3-------><------4-------><------5-------><--6--->
TEMPD*                 1       2.7315+02                                *       
*                                                                       
$--1---><------2-------><------3-------><------4-------><------5-------><--6--->
ENDDATA
