$ Generated by Mecway 29
$-------------EXECUTIVE CONTROL SECTION-------------
SOL 101
CEND
$---------------CASE CONTROL SECTION----------------
DISPLACEMENT = ALL
$
  ACCELERATION(PRINT,PLOT) = ALL
  DISPLACEMENT(PRINT, PLOT) = ALL
  GPFORCE(PRINT, PLOT) = ALL
  MPCFORCES(PRINT, PLOT) = ALL
  OLOAD(PRINT, PLOT)= ALL
  SPCFORCES(PRINT, PLOT) = ALL
  FORCE(PRINT, PLOT) = ALL
  STRESS(PRINT, PLOT, CORNER)= ALL
  STRAIN(PRINT, PLOT, CORNER)= ALL
$
SPC = 1
LOAD = 1
BEGIN BULK
$-----------------BULK DATA SECTION-----------------
$
  PARAM, POST,-1
$
GRID*                  1               0         -2.0+00          0.0+00*       
*                 0.0+00               0
GRID*                  2               0         -1.0+00          0.0+00*       
*                 0.0+00               0
GRID*                  3               0         -1.0+00          1.0+00*       
*                 0.0+00               0
GRID*                  4               0         -2.0+00          1.0+00*       
*                 0.0+00               0
GRID*                  5               0         -2.0+00          0.0+00*       
*                 1.0+00               0
GRID*                  6               0         -1.0+00          0.0+00*       
*                 1.0+00               0
GRID*                  7               0         -1.0+00          1.0+00*       
*                 1.0+00               0
GRID*                  8               0         -2.0+00          1.0+00*       
*                 1.0+00               0
GRID*                  9               0          4.5+00          0.0+00*       
*                 1.0+00               0
GRID*                 10               0          5.0+00          5.0-01*       
*                 1.0+00               0
GRID*                 11               0          4.5+00          1.0+00*       
*                 1.0+00               0
GRID*                 12               0          4.0+00          5.0-01*       
*                 1.0+00               0
GRID*                 13               0          6.0+00          1.0+00*       
*                 0.0+00               0
GRID*                 14               0          7.0+00          1.0+00*       
*                 0.0+00               0
GRID*                 15               0          7.0+00          1.0+00*       
*                 1.0+00               0
GRID*                 16               0          6.0+00          1.0+00*       
*                 1.0+00               0
GRID*                 17               0          6.0+00          0.0+00*       
*        1.2246063538-16               0
GRID*                 18               0          7.0+00          0.0+00*       
*        1.2246063538-16               0
GRID*                 19               0          7.0+00          0.0+00*       
*                 1.0+00               0
GRID*                 20               0          6.0+00          0.0+00*       
*                 1.0+00               0
GRID*                 21               0          0.0+00          1.0+00*       
*                 0.0+00               0
GRID*                 22               0          1.0+00          1.0+00*       
*                 0.0+00               0
GRID*                 23               0          1.0+00          1.0+00*       
*                 1.0+00               0
GRID*                 24               0          0.0+00          1.0+00*       
*                 1.0+00               0
GRID*                 25               0          0.0+00          0.0+00*       
*        1.2246063538-16               0
GRID*                 26               0          1.0+00          0.0+00*       
*        1.2246063538-16               0
GRID*                 27               0          1.0+00          0.0+00*       
*                 1.0+00               0
GRID*                 28               0          0.0+00          0.0+00*       
*                 1.0+00               0
GRID*                 29               0          4.0+00          0.0+00*       
*                 0.0+00               0
GRID*                 30               0          5.0+00          0.0+00*       
*                 0.0+00               0
GRID*                 31               0          5.0+00          1.0+00*       
*                 0.0+00               0
GRID*                 32               0          4.0+00          1.0+00*       
*                 0.0+00               0
GRID*                 33               0          4.0+00          0.0+00*       
*                 1.0+00               0
GRID*                 34               0          5.0+00          0.0+00*       
*                 1.0+00               0
GRID*                 35               0          5.0+00          1.0+00*       
*                 1.0+00               0
GRID*                 36               0          4.0+00          1.0+00*       
*                 1.0+00               0
GRID*                 37               0          4.5+00          0.0+00*       
*                 0.0+00               0
GRID*                 38               0          5.0+00          5.0-01*       
*                 0.0+00               0
GRID*                 39               0          4.5+00          1.0+00*       
*                 0.0+00               0
GRID*                 40               0          4.0+00          5.0-01*       
*                 0.0+00               0
GRID*                 41               0          4.0+00          0.0+00*       
*                 5.0-01               0
GRID*                 42               0          5.0+00          0.0+00*       
*                 5.0-01               0
GRID*                 43               0          5.0+00          1.0+00*       
*                 5.0-01               0
GRID*                 44               0          4.0+00          1.0+00*       
*                 5.0-01               0
GRID*                 45               0          6.5+00          1.0+00*       
*                 1.0+00               0
GRID*                 46               0          6.0+00          1.0+00*       
*                 5.0-01               0
GRID*                 47               0          6.5+00          1.0+00*       
*                 5.0-01               0
GRID*                 48               0          7.0+00          5.0-01*       
*                 1.0+00               0
GRID*                 49               0          6.0+00          5.0-01*       
*                 1.0+00               0
GRID*                 50               0          6.0+00          5.0-01*       
*        6.1230317691-17               0
GRID*                 51               0          6.5+00          0.0+00*       
*                 1.0+00               0
GRID*                 52               0          6.0+00          0.0+00*       
*                 5.0-01               0
GRID*                 53               0          6.5+00          0.0+00*       
*                 5.0-01               0
GRID*                 54               0          6.5+00          1.0+00*       
*                 0.0+00               0
GRID*                 55               0          7.0+00          1.0+00*       
*                 5.0-01               0
GRID*                 56               0          7.0+00          5.0-01*       
*        6.1230317691-17               0
GRID*                 57               0          6.5+00          0.0+00*       
*        1.2246063538-16               0
GRID*                 58               0          7.0+00          0.0+00*       
*                 5.0-01               0
GRID*                 59               0          2.0+00          0.0+00*       
*                 0.0+00               0
GRID*                 60               0          3.0+00          0.0+00*       
*                 0.0+00               0
GRID*                 61               0          3.0+00          1.0+00*       
*                 0.0+00               0
GRID*                 62               0          2.0+00          1.0+00*       
*                 0.0+00               0
GRID*                 63               0          2.0+00          0.0+00*       
*                 1.0+00               0
GRID*                 64               0          3.0+00          0.0+00*       
*                 1.0+00               0
GRID*                 65               0          3.0+00          1.0+00*       
*                 1.0+00               0
GRID*                 66               0          2.0+00          1.0+00*       
*                 1.0+00               0
GRID*                 67               0         -4.0+00          0.0+00*       
*                 0.0+00               0
GRID*                 68               0         -3.0+00          0.0+00*       
*                 0.0+00               0
GRID*                 69               0         -3.0+00          1.0+00*       
*                 0.0+00               0
GRID*                 70               0         -4.0+00          1.0+00*       
*                 0.0+00               0
GRID*                 71               0         -4.0+00          0.0+00*       
*                 1.0+00               0
GRID*                 72               0         -3.0+00          0.0+00*       
*                 1.0+00               0
GRID*                 73               0         -3.0+00          1.0+00*       
*                 1.0+00               0
GRID*                 74               0         -4.0+00          1.0+00*       
*                 1.0+00               0
GRID*                 75               0          3.0+00          5.0-01*       
*                 1.0+00               0
GRID*                 76               0          3.0+00          1.0+00*       
*                 5.0-01               0
GRID*                 77               0          3.0+00          5.0-01*       
*                 5.0-01               0
GRID*                 78               0          2.5+00          5.0-01*       
*                 1.0+00               0
GRID*                 79               0          2.5+00          1.0+00*       
*                 1.0+00               0
GRID*                 80               0          2.5+00          1.0+00*       
*                 5.0-01               0
GRID*                 81               0          2.5+00          0.0+00*       
*                 5.0-01               0
GRID*                 82               0          2.0+00          5.0-01*       
*                 5.0-01               0
GRID*                 83               0          2.0+00          0.0+00*       
*                 5.0-01               0
GRID*                 84               0          2.5+00          0.0+00*       
*                 1.0+00               0
GRID*                 85               0          2.0+00          5.0-01*       
*                 1.0+00               0
GRID*                 86               0          2.5+00          5.0-01*       
*                 0.0+00               0
GRID*                 87               0          2.5+00          1.0+00*       
*                 0.0+00               0
GRID*                 88               0          2.0+00          5.0-01*       
*                 0.0+00               0
GRID*                 89               0          2.0+00          1.0+00*       
*                 5.0-01               0
GRID*                 90               0          2.5+00          0.0+00*       
*                 0.0+00               0
GRID*                 91               0          3.0+00          5.0-01*       
*                 0.0+00               0
GRID*                 92               0          3.0+00          0.0+00*       
*                 5.0-01               0
$--1---><------2-------><------3-------><------4-------><------5-------><--6--->
$$$$$$$$$$$$$$$$$$$$$$$$$$$$$$$$$$$ Material $$$$$$$$$$$$$$$$$$$$$$$$$$$$$$$$$$$
MAT1*                  1      2.10123+11     1.050615+11          0.0+00*       
*                 7.8+03          0.0+00          0.0+00
$--1---><------2-------><------3-------><------4-------><------5-------><--6--->
SPC*                   1               1               1          0.0+00*       
*                                                                       
SPC*                   1               1               3          0.0+00*       
*                                                                       
SPC*                   1               2               3          0.0+00*       
*                                                                       
SPC*                   1               3               2          0.0+00*       
*                                                                       
SPC*                   1               3               3          0.0+00*       
*                                                                       
SPC*                   1               4               1          0.0+00*       
*                                                                       
SPC*                   1               4               2          0.0+00*       
*                                                                       
SPC*                   1               4               3          0.0+00*       
*                                                                       
SPC*                   1               5               1          0.0+00*       
*                                                                       
SPC*                   1               7               2          0.0+00*       
*                                                                       
SPC*                   1               8               2          0.0+00*       
*                                                                       
SPC*                   1               8               1          0.0+00*       
*                                                                       
SPC*                   1              11               2          0.0+00*       
*                                                                       
SPC*                   1              12               1          0.0+00*       
*                                                                       
SPC*                   1              13               1          0.0+00*       
*                                                                       
SPC*                   1              13               2          0.0+00*       
*                                                                       
SPC*                   1              13               3          0.0+00*       
*                                                                       
SPC*                   1              14               2          0.0+00*       
*                                                                       
SPC*                   1              14               3          0.0+00*       
*                                                                       
SPC*                   1              15               2          0.0+00*       
*                                                                       
SPC*                   1              16               2          0.0+00*       
*                                                                       
SPC*                   1              16               1          0.0+00*       
*                                                                       
SPC*                   1              17               1          0.0+00*       
*                                                                       
SPC*                   1              17               3          0.0+00*       
*                                                                       
SPC*                   1              18               3          0.0+00*       
*                                                                       
SPC*                   1              20               1          0.0+00*       
*                                                                       
SPC*                   1              21               1          0.0+00*       
*                                                                       
SPC*                   1              21               2          0.0+00*       
*                                                                       
SPC*                   1              21               3          0.0+00*       
*                                                                       
SPC*                   1              22               2          0.0+00*       
*                                                                       
SPC*                   1              22               3          0.0+00*       
*                                                                       
SPC*                   1              23               2          0.0+00*       
*                                                                       
SPC*                   1              24               2          0.0+00*       
*                                                                       
SPC*                   1              24               1          0.0+00*       
*                                                                       
SPC*                   1              25               1          0.0+00*       
*                                                                       
SPC*                   1              25               3          0.0+00*       
*                                                                       
SPC*                   1              26               3          0.0+00*       
*                                                                       
SPC*                   1              28               1          0.0+00*       
*                                                                       
SPC*                   1              29               1          0.0+00*       
*                                                                       
SPC*                   1              29               3          0.0+00*       
*                                                                       
SPC*                   1              30               3          0.0+00*       
*                                                                       
SPC*                   1              31               2          0.0+00*       
*                                                                       
SPC*                   1              31               3          0.0+00*       
*                                                                       
SPC*                   1              32               1          0.0+00*       
*                                                                       
SPC*                   1              32               2          0.0+00*       
*                                                                       
SPC*                   1              32               3          0.0+00*       
*                                                                       
SPC*                   1              33               1          0.0+00*       
*                                                                       
SPC*                   1              35               2          0.0+00*       
*                                                                       
SPC*                   1              36               2          0.0+00*       
*                                                                       
SPC*                   1              36               1          0.0+00*       
*                                                                       
SPC*                   1              37               3          0.0+00*       
*                                                                       
SPC*                   1              38               3          0.0+00*       
*                                                                       
SPC*                   1              39               2          0.0+00*       
*                                                                       
SPC*                   1              39               3          0.0+00*       
*                                                                       
SPC*                   1              40               1          0.0+00*       
*                                                                       
SPC*                   1              40               3          0.0+00*       
*                                                                       
SPC*                   1              41               1          0.0+00*       
*                                                                       
SPC*                   1              43               2          0.0+00*       
*                                                                       
SPC*                   1              44               2          0.0+00*       
*                                                                       
SPC*                   1              44               1          0.0+00*       
*                                                                       
SPC*                   1              45               2          0.0+00*       
*                                                                       
SPC*                   1              46               2          0.0+00*       
*                                                                       
SPC*                   1              46               1          0.0+00*       
*                                                                       
SPC*                   1              47               2          0.0+00*       
*                                                                       
SPC*                   1              49               1          0.0+00*       
*                                                                       
SPC*                   1              50               1          0.0+00*       
*                                                                       
SPC*                   1              50               3          0.0+00*       
*                                                                       
SPC*                   1              52               1          0.0+00*       
*                                                                       
SPC*                   1              54               2          0.0+00*       
*                                                                       
SPC*                   1              54               3          0.0+00*       
*                                                                       
SPC*                   1              55               2          0.0+00*       
*                                                                       
SPC*                   1              56               3          0.0+00*       
*                                                                       
SPC*                   1              57               3          0.0+00*       
*                                                                       
SPC*                   1              59               1          0.0+00*       
*                                                                       
SPC*                   1              59               3          0.0+00*       
*                                                                       
SPC*                   1              60               3          0.0+00*       
*                                                                       
SPC*                   1              61               2          0.0+00*       
*                                                                       
SPC*                   1              61               3          0.0+00*       
*                                                                       
SPC*                   1              62               1          0.0+00*       
*                                                                       
SPC*                   1              62               2          0.0+00*       
*                                                                       
SPC*                   1              62               3          0.0+00*       
*                                                                       
SPC*                   1              63               1          0.0+00*       
*                                                                       
SPC*                   1              65               2          0.0+00*       
*                                                                       
SPC*                   1              66               2          0.0+00*       
*                                                                       
SPC*                   1              66               1          0.0+00*       
*                                                                       
SPC*                   1              67               1          0.0+00*       
*                                                                       
SPC*                   1              67               3          0.0+00*       
*                                                                       
SPC*                   1              68               3          0.0+00*       
*                                                                       
SPC*                   1              69               2          0.0+00*       
*                                                                       
SPC*                   1              69               3          0.0+00*       
*                                                                       
SPC*                   1              70               1          0.0+00*       
*                                                                       
SPC*                   1              70               2          0.0+00*       
*                                                                       
SPC*                   1              70               3          0.0+00*       
*                                                                       
SPC*                   1              71               1          0.0+00*       
*                                                                       
SPC*                   1              73               2          0.0+00*       
*                                                                       
SPC*                   1              74               2          0.0+00*       
*                                                                       
SPC*                   1              74               1          0.0+00*       
*                                                                       
SPC*                   1              76               2          0.0+00*       
*                                                                       
SPC*                   1              79               2          0.0+00*       
*                                                                       
SPC*                   1              80               2          0.0+00*       
*                                                                       
SPC*                   1              82               1          0.0+00*       
*                                                                       
SPC*                   1              83               1          0.0+00*       
*                                                                       
SPC*                   1              85               1          0.0+00*       
*                                                                       
SPC*                   1              86               3          0.0+00*       
*                                                                       
SPC*                   1              87               2          0.0+00*       
*                                                                       
SPC*                   1              87               3          0.0+00*       
*                                                                       
SPC*                   1              88               1          0.0+00*       
*                                                                       
SPC*                   1              88               3          0.0+00*       
*                                                                       
SPC*                   1              89               2          0.0+00*       
*                                                                       
SPC*                   1              89               1          0.0+00*       
*                                                                       
SPC*                   1              90               3          0.0+00*       
*                                                                       
SPC*                   1              91               3          0.0+00*       
*                                                                       
$--1---><------2-------><------3-------><------4-------><------5-------><--6--->
$$$$$$$$$$$$$$$$$$$$$$$$$$$$$$$$$$$ Default $$$$$$$$$$$$$$$$$$$$$$$$$$$$$$$$$$$$
PSOLID*                1               1               0               2*       
*                                   FULL
CHEXA*                 1               1               1               2*       
*                      3               4               5               6*       
*                      7               8                                *       
*                                                                       
PSOLID*                2               1               0               2*       
*                                   FULL
CPENTA*                2               2              23              24*       
*                     21              27              28              25
CPENTA*                3               2              21              22*       
*                     23              25              26              27
PSOLID*                3               1               0               3*       
*                                   FULL
CHEXA*                 4               3              29              30*       
*                     31              32              33              34*       
*                     35              36              37              38*       
*                     39              40              41              42*       
*                     43              44               9              10*       
*                     11              12
PSOLID*                4               1               0               3*       
*                                   FULL
CPENTA*                5               4              15              16*       
*                     13              19              20              17*       
*                     45              46              47              48*       
*                     49              50              51              52*       
*                     53                                                *       
*                                                                       
CPENTA*                6               4              13              14*       
*                     15              17              18              19*       
*                     54              55              47              50*       
*                     56              48              57              58*       
*                     53                                                *       
*                                                                       
PSOLID*                5               1               0                *       
*                                       
CTETRA*                7               5              64              65*       
*                     61              66              75              76*       
*                     77              78              79              80*       
*                                                                       
CTETRA*                9               5              59              64*       
*                     66              63              81              78*       
*                     82              83              84              85*       
*                                                                       
CTETRA*               10               5              59              61*       
*                     62              66              86              87*       
*                     88              82              80              89*       
*                                                                       
CTETRA*               11               5              59              64*       
*                     61              66              81              77*       
*                     86              82              78              80*       
*                                                                       
CTETRA*               12               5              59              60*       
*                     61              64              90              91*       
*                     86              81              92              77*       
*                                                                       
PSOLID*                6               1               0                *       
*                                       
CTETRA*                8               6              72              73*       
*                     69              74
CTETRA*               13               6              67              72*       
*                     74              71
CTETRA*               14               6              67              69*       
*                     70              74
CTETRA*               15               6              67              72*       
*                     69              74
CTETRA*               16               6              67              68*       
*                     69              72
$--1---><------2-------><------3-------><------4-------><------5-------><--6--->
$$$$$$$$$$$$$$$$$$$$$$$$$$$$$$$$$$$ gravity $$$$$$$$$$$$$$$$$$$$$$$$$$$$$$$$$$$$
$$$$$$$$$$$$$$$$$$$$$$$$$$$$$$$$$$$ gravity $$$$$$$$$$$$$$$$$$$$$$$$$$$$$$$$$$$$
$$$$$$$$$$$$$$$$$$$$$$$$$$$$$$$$$$$ gravity $$$$$$$$$$$$$$$$$$$$$$$$$$$$$$$$$$$$
GRAV*                  1               0          1.0+00          1.0+01*       
*              -1.481+01          1.0+01
$--1---><------2-------><------3-------><------4-------><------5-------><--6--->
ENDDATA
