$ Generated by Mecway 29
$-------------EXECUTIVE CONTROL SECTION-------------
SOL 101
CEND
$---------------CASE CONTROL SECTION----------------
DISPLACEMENT = ALL
STRESS(CORNER) = ALL
STRAIN(CORNER) = ALL
$
  ACCELERATION(PRINT,PLOT) = ALL
  DISPLACEMENT(PRINT, PLOT) = ALL
  GPFORCE(PRINT, PLOT) = ALL
  MPCFORCES(PRINT, PLOT) = ALL
  OLOAD(PRINT, PLOT)= ALL
  SPCFORCES(PRINT, PLOT) = ALL
  FORCE(PRINT, PLOT) = ALL
  STRESS(PRINT, PLOT, CORNER)= ALL
  STRAIN(PRINT, PLOT, CORNER)= ALL
$
SPC = 1
LOAD = 1
BEGIN BULK
$-----------------BULK DATA SECTION-----------------
$
  PARAM, POST,-1
$
GRID*                  1               0          0.0+00          0.0+00*       
*                 0.0+00               0
GRID*                  2               0          1.0+00          0.0+00*       
*                 0.0+00               0
GRID*                  3               0          1.0+00          1.0+00*       
*                 0.0+00               0
GRID*                  4               0          0.0+00          1.0+00*       
*                 0.0+00               0
GRID*                  5               0          0.0+00          0.0+00*       
*                 1.0+00               0
GRID*                  6               0          1.0+00          0.0+00*       
*                 1.0+00               0
GRID*                  7               0          1.0+00          1.0+00*       
*                 1.0+00               0
GRID*                  8               0          0.0+00          1.0+00*       
*                 1.0+00               0
GRID*                  9               0          2.0+00          0.0+00*       
*                 0.0+00               0
GRID*                 10               0          3.0+00          0.0+00*       
*                 0.0+00               0
GRID*                 11               0          3.0+00          1.0+00*       
*                 0.0+00               0
GRID*                 12               0          2.0+00          1.0+00*       
*                 0.0+00               0
GRID*                 13               0          2.0+00          0.0+00*       
*                 1.0+00               0
GRID*                 14               0          3.0+00          0.0+00*       
*                 1.0+00               0
GRID*                 15               0          3.0+00          1.0+00*       
*                 1.0+00               0
GRID*                 16               0          2.0+00          1.0+00*       
*                 1.0+00               0
GRID*                 17               0          4.0+00          0.0+00*       
*                 0.0+00               0
GRID*                 18               0          5.0+00          0.0+00*       
*                 0.0+00               0
GRID*                 19               0          5.0+00          1.0+00*       
*                 0.0+00               0
GRID*                 20               0          4.0+00          1.0+00*       
*                 0.0+00               0
GRID*                 21               0          4.0+00          0.0+00*       
*                 1.0+00               0
GRID*                 22               0          5.0+00          0.0+00*       
*                 1.0+00               0
GRID*                 23               0          5.0+00          1.0+00*       
*                 1.0+00               0
GRID*                 24               0          4.0+00          1.0+00*       
*                 1.0+00               0
GRID*                 25               0          6.0+00          0.0+00*       
*                 0.0+00               0
GRID*                 26               0          7.0+00          0.0+00*       
*                 0.0+00               0
GRID*                 27               0          7.0+00          1.0+00*       
*                 0.0+00               0
GRID*                 28               0          6.0+00          1.0+00*       
*                 0.0+00               0
GRID*                 29               0          6.0+00          0.0+00*       
*                 1.0+00               0
GRID*                 30               0          7.0+00          0.0+00*       
*                 1.0+00               0
GRID*                 31               0          7.0+00          1.0+00*       
*                 1.0+00               0
GRID*                 32               0          6.0+00          1.0+00*       
*                 1.0+00               0
$--1---><------2-------><------3-------><------4-------><------5-------><--6--->
$$$$$$$$$$$$$$$$$$$$$$$$$$$$$$$$$$$ Material $$$$$$$$$$$$$$$$$$$$$$$$$$$$$$$$$$$
MAT1*                  1          1.0+02          5.0+01          0.0+00*       
*                 0.0+00          0.0+00          0.0+00
$--1---><------2-------><------3-------><------4-------><------5-------><--6--->
SPC*                   1               1               1          0.0+00*       
*                                                                       
SPC*                   1               1               2          0.0+00*       
*                                                                       
SPC*                   1               1               3          0.0+00*       
*                                                                       
SPC*                   1               2               3          0.0+00*       
*                                                                       
SPC*                   1               2               2          0.0+00*       
*                                                                       
SPC*                   1               3               3          0.0+00*       
*                                                                       
SPC*                   1               4               1          0.0+00*       
*                                                                       
SPC*                   1               4               3          0.0+00*       
*                                                                       
SPC*                   1               5               1          0.0+00*       
*                                                                       
SPC*                   1               5               2          0.0+00*       
*                                                                       
SPC*                   1               6               2          0.0+00*       
*                                                                       
SPC*                   1               8               1          0.0+00*       
*                                                                       
SPC*                   1               9               1          0.0+00*       
*                                                                       
SPC*                   1               9               2          0.0+00*       
*                                                                       
SPC*                   1               9               3          0.0+00*       
*                                                                       
SPC*                   1              10               1         -1.0-02*       
*                                                                       
SPC*                   1              10               2          0.0+00*       
*                                                                       
SPC*                   1              10               3          0.0+00*       
*                                                                       
SPC*                   1              11               1          1.0-02*       
*                                                                       
SPC*                   1              11               2          0.0+00*       
*                                                                       
SPC*                   1              11               3          0.0+00*       
*                                                                       
SPC*                   1              12               1          0.0+00*       
*                                                                       
SPC*                   1              12               2          0.0+00*       
*                                                                       
SPC*                   1              12               3          0.0+00*       
*                                                                       
SPC*                   1              13               1          0.0+00*       
*                                                                       
SPC*                   1              13               2          0.0+00*       
*                                                                       
SPC*                   1              14               2          0.0+00*       
*                                                                       
SPC*                   1              14               1         -1.0-02*       
*                                                                       
SPC*                   1              15               2          0.0+00*       
*                                                                       
SPC*                   1              15               1          1.0-02*       
*                                                                       
SPC*                   1              16               1          0.0+00*       
*                                                                       
SPC*                   1              16               2          0.0+00*       
*                                                                       
SPC*                   1              17               1          0.0+00*       
*                                                                       
SPC*                   1              17               2          0.0+00*       
*                                                                       
SPC*                   1              17               3          0.0+00*       
*                                                                       
SPC*                   1              18               3          0.0+00*       
*                                                                       
SPC*                   1              18               2          0.0+00*       
*                                                                       
SPC*                   1              19               3          0.0+00*       
*                                                                       
SPC*                   1              19               2         -1.0-02*       
*                                                                       
SPC*                   1              20               1 1.8735013541-18*       
*                                                                       
SPC*                   1              20               2         -1.0-02*       
*                                                                       
SPC*                   1              20               3          0.0+00*       
*                                                                       
SPC*                   1              21               1          0.0+00*       
*                                                                       
SPC*                   1              21               2          0.0+00*       
*                                                                       
SPC*                   1              21               3          0.0+00*       
*                                                                       
SPC*                   1              22               3          0.0+00*       
*                                                                       
SPC*                   1              22               2          0.0+00*       
*                                                                       
SPC*                   1              23               3          0.0+00*       
*                                                                       
SPC*                   1              23               2          1.0-02*       
*                                                                       
SPC*                   1              24               1 1.8735013541-18*       
*                                                                       
SPC*                   1              24               2          1.0-02*       
*                                                                       
SPC*                   1              24               3          0.0+00*       
*                                                                       
SPC*                   1              25               1          0.0+00*       
*                                                                       
SPC*                   1              25               2          0.0+00*       
*                                                                       
SPC*                   1              25               3          0.0+00*       
*                                                                       
SPC*                   1              26               1          0.0+00*       
*                                                                       
SPC*                   1              26               2          0.0+00*       
*                                                                       
SPC*                   1              26               3          0.0+00*       
*                                                                       
SPC*                   1              27               1          0.0+00*       
*                                                                       
SPC*                   1              27               3          0.0+00*       
*                                                                       
SPC*                   1              28               1          0.0+00*       
*                                                                       
SPC*                   1              28               3          0.0+00*       
*                                                                       
SPC*                   1              29               1 1.8735013541-18*       
*                                                                       
SPC*                   1              29               2          0.0+00*       
*                                                                       
SPC*                   1              29               3         -1.0-02*       
*                                                                       
SPC*                   1              30               1 1.8735013541-18*       
*                                                                       
SPC*                   1              30               2          0.0+00*       
*                                                                       
SPC*                   1              30               3          1.0-02*       
*                                                                       
SPC*                   1              31               1-4.8572257327-19*       
*                                                                       
SPC*                   1              31               3          1.0-02*       
*                                                                       
SPC*                   1              32               1-4.8572257327-19*       
*                                                                       
SPC*                   1              32               3         -1.0-02*       
*                                                                       
$--1---><------2-------><------3-------><------4-------><------5-------><--6--->
$$$$$$$$$$$$$$$$$$$$$$$$$$$$$$$$$$$ Default $$$$$$$$$$$$$$$$$$$$$$$$$$$$$$$$$$$$
PSOLID*                1               1               0               2*       
*                                   FULL
CPENTA*                1               1               3               4*       
*                      1               7               8               5
CPENTA*                2               1              11              12*       
*                      9              15              16              13
CPENTA*                3               1              19              20*       
*                     17              23              24              21
CPENTA*                4               1              27              28*       
*                     25              31              32              29
CPENTA*                5               1               1               2*       
*                      3               5               6               7
CPENTA*                6               1               9              10*       
*                     11              13              14              15
CPENTA*                7               1              17              18*       
*                     19              21              22              23
CPENTA*                8               1              25              26*       
*                     27              29              30              31
$--1---><------2-------><------3-------><------4-------><------5-------><--6--->
$$$$$$$$$$$$$$$$$$$$$$$$$$$$$$$$$$$$ force $$$$$$$$$$$$$$$$$$$$$$$$$$$$$$$$$$$$$
FORCE*                 1               2               0          1.0+00*       
*                 2.5-01          0.0+00          0.0+00
FORCE*                 1               3               0          1.0+00*       
*                 2.5-01          0.0+00          0.0+00
FORCE*                 1               6               0          1.0+00*       
*                 2.5-01          0.0+00          0.0+00
FORCE*                 1               7               0          1.0+00*       
*                 2.5-01          0.0+00          0.0+00
$--1---><------2-------><------3-------><------4-------><------5-------><--6--->
$$$$$$$$$$$$$$$$$$$$$$$$$$$$$$$$$$$$ force $$$$$$$$$$$$$$$$$$$$$$$$$$$$$$$$$$$$$
FORCE*                 1               3               0          1.0+00*       
*                 0.0+00          5.0-01          0.0+00
FORCE*                 1               4               0          1.0+00*       
*                 0.0+00          5.0-01          0.0+00
FORCE*                 1               7               0          1.0+00*       
*                 0.0+00          5.0-01          0.0+00
FORCE*                 1               8               0          1.0+00*       
*                 0.0+00          5.0-01          0.0+00
$--1---><------2-------><------3-------><------4-------><------5-------><--6--->
$$$$$$$$$$$$$$$$$$$$$$$$$$$$$$$$$$$$ force $$$$$$$$$$$$$$$$$$$$$$$$$$$$$$$$$$$$$
FORCE*                 1               5               0          1.0+00*       
*                 0.0+00          0.0+00          1.0+00
FORCE*                 1               6               0          1.0+00*       
*                 0.0+00          0.0+00          5.0-01
FORCE*                 1               7               0          1.0+00*       
*                 0.0+00          0.0+00          1.0+00
FORCE*                 1               8               0          1.0+00*       
*                 0.0+00          0.0+00          5.0-01
$--1---><------2-------><------3-------><------4-------><------5-------><--6--->
ENDDATA
