$ Generated by Mecway 29
$-------------EXECUTIVE CONTROL SECTION-------------
SOL 105
CEND
$---------------CASE CONTROL SECTION----------------
DISPLACEMENT = ALL
$
  ACCELERATION(PRINT,PLOT) = ALL
  DISPLACEMENT(PRINT, PLOT) = ALL
  GPFORCE(PRINT, PLOT) = ALL
  MPCFORCES(PRINT, PLOT) = ALL
  OLOAD(PRINT, PLOT)= ALL
  SPCFORCES(PRINT, PLOT) = ALL
  FORCE(PRINT, PLOT) = ALL
  STRESS(PRINT, PLOT, CORNER)= ALL
  STRAIN(PRINT, PLOT, CORNER)= ALL
$
SPC = 1
SUBCASE 1
TEMPERATURE = 1
SUBCASE 2
METHOD = 1
BEGIN BULK
$-----------------BULK DATA SECTION-----------------
$
  PARAM, POST,-1
$
GRID*                  1               0          0.0+00          0.0+00*       
*                 0.0+00               0
GRID*                  2               0-2.5651510749-02 7.0476946559-02*       
*                 0.0+00               0
GRID*                  3               0-3.4202014333-02 9.3969262079-02*       
*                 0.0+00               0
GRID*                  4               0-6.8404028665-02 1.8793852416-01*       
*                 0.0+00               0
GRID*                  5               0-2.1591952298-03 7.9027450142-02*       
*                 0.0+00               0
GRID*                  6               0-8.5505035831-03  2.349231552-02*       
*                 0.0+00               0
GRID*                  7               0-5.1303021499-02 1.4095389312-01*       
*                 0.0+00               0
GRID*                  8               0-4.2752517916-02  1.174615776-01*       
*                 0.0+00               0
GRID*                  9               0-1.7101007166-02 4.6984631039-02*       
*                 0.0+00               0
GRID*                 10               0-1.9260202396-02 1.2601208118-01*       
*                 0.0+00               0
GRID*                 11               0-2.7810705979-02  1.495043967-01*       
*                 0.0+00               0
GRID*                 12               0  2.349231552-02 8.5505035831-03*       
*                 0.0+00               0
GRID*                 13               0-4.4911713145-02 1.9648902774-01*       
*                 0.0+00               0
GRID*                 14               0-5.9853525082-02 1.6444620864-01*       
*                 0.0+00               0
GRID*                 15               0-3.6361209562-02 1.7299671222-01*       
*                 0.0+00               0
GRID*                 16               0 6.3913083534-03 5.5535134622-02*       
*                 0.0+00               0
GRID*                 17               0 1.4941811937-02 3.2042819103-02*       
*                 0.0+00               0
GRID*                 18               0-1.0709698813-02 1.0251976566-01*       
*                 0.0+00               0
GRID*                 19               0 4.6984631039-02-1.7101007166-02*       
*                 0.0+00               0
GRID*                 20               0 4.6984631039-02 5.7898992834-02*       
*                 0.0+00               0
GRID*                 21               0 4.6984631039-02 8.2898992834-02*       
*                 0.0+00               0
GRID*                 22               0 4.6984631039-02 1.8289899283-01*       
*                 0.0+00               0
GRID*                 23               0 7.1984631039-02 5.7898992834-02*       
*                 0.0+00               0
GRID*                 24               0 4.6984631039-02 7.8989928337-03*       
*                 0.0+00               0
GRID*                 25               0 4.6984631039-02 1.3289899283-01*       
*                 0.0+00               0
GRID*                 26               0 4.6984631039-02 1.0789899283-01*       
*                 0.0+00               0
GRID*                 27               0 4.6984631039-02 3.2898992834-02*       
*                 0.0+00               0
GRID*                 28               0 7.1984631039-02 1.0789899283-01*       
*                 0.0+00               0
GRID*                 29               0 7.1984631039-02 1.3289899283-01*       
*                 0.0+00               0
GRID*                 30               0 7.1984631039-02-1.7101007166-02*       
*                 0.0+00               0
GRID*                 31               0 7.1984631039-02 1.8289899283-01*       
*                 0.0+00               0
GRID*                 32               0 4.6984631039-02 1.5789899283-01*       
*                 0.0+00               0
GRID*                 33               0 7.1984631039-02 1.5789899283-01*       
*                 0.0+00               0
GRID*                 34               0 7.1984631039-02 3.2898992834-02*       
*                 0.0+00               0
GRID*                 35               0 7.1984631039-02 7.8989928337-03*       
*                 0.0+00               0
GRID*                 36               0 7.1984631039-02 8.2898992834-02*       
*                 0.0+00               0
GRID*                 37               0-4.5315389352-02-2.1130913087-02*       
*                 0.0+00               0
GRID*                 38               0-9.8348397941-02 3.1902095502-02*       
*                 0.0+00               0
GRID*                 39               0-1.1602606747-01 4.9579765032-02*       
*                 0.0+00               0
GRID*                 40               0-1.8673674559-01 1.2029044315-01*       
*                 0.0+00               0
GRID*                 41               0-8.0670728411-02 4.9579765032-02*       
*                 0.0+00               0
GRID*                 42               0-6.2993058881-02-3.4532435574-03*       
*                 0.0+00               0
GRID*                 43               0-1.5138140653-01 8.4935104091-02*       
*                 0.0+00               0
GRID*                 44               0  -1.33703737-01 6.7257434561-02*       
*                 0.0+00               0
GRID*                 45               0-8.0670728411-02 1.4224425972-02*       
*                 0.0+00               0
GRID*                 46               0-1.1602606747-01 8.4935104091-02*       
*                 0.0+00               0
GRID*                 47               0  -1.33703737-01 1.0261277362-01*       
*                 0.0+00               0
GRID*                 48               0-2.7637719822-02-3.4532435574-03*       
*                 0.0+00               0
GRID*                 49               0-1.6905907606-01 1.3796811268-01*       
*                 0.0+00               0
GRID*                 50               0-1.6905907606-01 1.0261277362-01*       
*                 0.0+00               0
GRID*                 51               0-1.5138140653-01 1.2029044315-01*       
*                 0.0+00               0
GRID*                 52               0-6.2993058881-02 3.1902095502-02*       
*                 0.0+00               0
GRID*                 53               0-4.5315389352-02 1.4224425972-02*       
*                 0.0+00               0
GRID*                 54               0-9.8348397941-02 6.7257434561-02*       
*                 0.0+00               0
$--1---><------2-------><------3-------><------4-------><------5-------><--6--->
$$$$$$$$$$$$$$$$$$$$$$$$$$$$$$$$$$$ Material $$$$$$$$$$$$$$$$$$$$$$$$$$$$$$$$$$$
MAT1*                  1          5.0+10          2.5+10          0.0+00*       
*                 0.0+00          6.0-04          3.0+02
$--1---><------2-------><------3-------><------4-------><------5-------><--6--->
SPC*                   1               1               1          0.0+00*       
*                                                                       
SPC*                   1               1               2          0.0+00*       
*                                                                       
SPC*                   1               1               3          0.0+00*       
*                                                                       
SPC*                   1               4               1          0.0+00*       
*                                                                       
SPC*                   1               4               2          0.0+00*       
*                                                                       
SPC*                   1               4               4          0.0+00*       
*                                                                       
SPC*                   1               4               5          0.0+00*       
*                                                                       
SPC*                   1              12               1          0.0+00*       
*                                                                       
SPC*                   1              12               2          0.0+00*       
*                                                                       
SPC*                   1              12               3          0.0+00*       
*                                                                       
SPC*                   1              13               2          0.0+00*       
*                                                                       
SPC*                   1              13               1          0.0+00*       
*                                                                       
SPC*                   1              13               4          0.0+00*       
*                                                                       
SPC*                   1              13               5          0.0+00*       
*                                                                       
SPC*                   1              19               1          0.0+00*       
*                                                                       
SPC*                   1              19               2          0.0+00*       
*                                                                       
SPC*                   1              19               3          0.0+00*       
*                                                                       
SPC*                   1              22               1          0.0+00*       
*                                                                       
SPC*                   1              22               2          0.0+00*       
*                                                                       
SPC*                   1              22               4          0.0+00*       
*                                                                       
SPC*                   1              22               5          0.0+00*       
*                                                                       
SPC*                   1              30               1          0.0+00*       
*                                                                       
SPC*                   1              30               2          0.0+00*       
*                                                                       
SPC*                   1              30               3          0.0+00*       
*                                                                       
SPC*                   1              31               2          0.0+00*       
*                                                                       
SPC*                   1              31               1          0.0+00*       
*                                                                       
SPC*                   1              31               4          0.0+00*       
*                                                                       
SPC*                   1              31               5          0.0+00*       
*                                                                       
SPC*                   1              37               1          0.0+00*       
*                                                                       
SPC*                   1              37               2          0.0+00*       
*                                                                       
SPC*                   1              37               3          0.0+00*       
*                                                                       
SPC*                   1              40               2          0.0+00*       
*                                                                       
SPC*                   1              40               1          0.0+00*       
*                                                                       
SPC*                   1              40               4          0.0+00*       
*                                                                       
SPC*                   1              40               5          0.0+00*       
*                                                                       
SPC*                   1              48               1          0.0+00*       
*                                                                       
SPC*                   1              48               2          0.0+00*       
*                                                                       
SPC*                   1              48               3          0.0+00*       
*                                                                       
SPC*                   1              49               2          0.0+00*       
*                                                                       
SPC*                   1              49               1          0.0+00*       
*                                                                       
SPC*                   1              49               4          0.0+00*       
*                                                                       
SPC*                   1              49               5          0.0+00*       
*                                                                       
$--1---><------2-------><------3-------><------4-------><------5-------><--6--->
$$$$$$$$$$$$$$$$$$$$$$$$$$$$$$$$$$$ Default $$$$$$$$$$$$$$$$$$$$$$$$$$$$$$$$$$$$
PSHELL*                1               1          1.0-03               1*       
*                                      1                          0.0+00
CTRIA3*                1               1              12               6*       
*                      1          0.0+00          0.0+00
CTRIA3*                2               1              16               2*       
*                      9          0.0+00          0.0+00
CTRIA3*                3               1               3              10*       
*                      8          0.0+00          0.0+00
CTRIA3*                4               1              17               9*       
*                      6          0.0+00          0.0+00
CTRIA3*                5               1               7              15*       
*                     14          0.0+00          0.0+00
CTRIA3*                6               1               8              11*       
*                      7          0.0+00          0.0+00
CTRIA3*                7               1               5               3*       
*                      2          0.0+00          0.0+00
CTRIA3*                8               1              14              13*       
*                      4          0.0+00          0.0+00
CTRIA3*                9               1              30              24*       
*                     19          0.0+00          0.0+00
CTRIA3*               10               1              34              20*       
*                     27          0.0+00          0.0+00
CTRIA3*               11               1              21              28*       
*                     26          0.0+00          0.0+00
CTRIA3*               12               1              35              27*       
*                     24          0.0+00          0.0+00
CTRIA3*               13               1              25              33*       
*                     32          0.0+00          0.0+00
CTRIA3*               14               1              26              29*       
*                     25          0.0+00          0.0+00
CTRIA3*               15               1              23              21*       
*                     20          0.0+00          0.0+00
CTRIA3*               16               1              32              31*       
*                     22          0.0+00          0.0+00
CTRIA3*               17               1              53              37*       
*                     42          0.0+00          0.0+00
CTRIA3*               18               1              41              45*       
*                     38          0.0+00          0.0+00
CTRIA3*               19               1              39              46*       
*                     44          0.0+00          0.0+00
CTRIA3*               20               1              52              42*       
*                     45          0.0+00          0.0+00
CTRIA3*               21               1              43              51*       
*                     50          0.0+00          0.0+00
CTRIA3*               22               1              44              47*       
*                     43          0.0+00          0.0+00
CTRIA3*               23               1              54              38*       
*                     39          0.0+00          0.0+00
CTRIA3*               24               1              50              49*       
*                     40          0.0+00          0.0+00
CTRIA3*               25               1              12              17*       
*                      6          0.0+00          0.0+00
CTRIA3*               26               1              16               5*       
*                      2          0.0+00          0.0+00
CTRIA3*               27               1               3              18*       
*                     10          0.0+00          0.0+00
CTRIA3*               28               1              17              16*       
*                      9          0.0+00          0.0+00
CTRIA3*               29               1               7              11*       
*                     15          0.0+00          0.0+00
CTRIA3*               30               1               8              10*       
*                     11          0.0+00          0.0+00
CTRIA3*               31               1               5              18*       
*                      3          0.0+00          0.0+00
CTRIA3*               32               1              14              15*       
*                     13          0.0+00          0.0+00
CTRIA3*               33               1              30              35*       
*                     24          0.0+00          0.0+00
CTRIA3*               34               1              34              23*       
*                     20          0.0+00          0.0+00
CTRIA3*               35               1              21              36*       
*                     28          0.0+00          0.0+00
CTRIA3*               36               1              35              34*       
*                     27          0.0+00          0.0+00
CTRIA3*               37               1              25              29*       
*                     33          0.0+00          0.0+00
CTRIA3*               38               1              26              28*       
*                     29          0.0+00          0.0+00
CTRIA3*               39               1              23              36*       
*                     21          0.0+00          0.0+00
CTRIA3*               40               1              32              33*       
*                     31          0.0+00          0.0+00
CTRIA3*               41               1              53              48*       
*                     37          0.0+00          0.0+00
CTRIA3*               42               1              41              52*       
*                     45          0.0+00          0.0+00
CTRIA3*               43               1              39              54*       
*                     46          0.0+00          0.0+00
CTRIA3*               44               1              52              53*       
*                     42          0.0+00          0.0+00
CTRIA3*               45               1              43              47*       
*                     51          0.0+00          0.0+00
CTRIA3*               46               1              44              46*       
*                     47          0.0+00          0.0+00
CTRIA3*               47               1              54              41*       
*                     38          0.0+00          0.0+00
CTRIA3*               48               1              50              51*       
*                     49          0.0+00          0.0+00
$--1---><------2-------><------3-------><------4-------><------5-------><--6--->
$$$$$$$$$$$$$$$$$$$$$$$$$$$$$$$$$ temperature $$$$$$$$$$$$$$$$$$$$$$$$$$$$$$$$$$
TEMP*                  1               8          4.0+02                *       
*                                                                       
TEMP*                  1              10          4.0+02                *       
*                                                                       
TEMP*                  1              11          4.0+02                *       
*                                                                       
TEMP*                  1              30          4.0+02                *       
*                                                                       
TEMP*                  1              35          4.0+02                *       
*                                                                       
TEMP*                  1              24          4.0+02                *       
*                                                                       
TEMP*                  1              14          4.0+02                *       
*                                                                       
TEMP*                  1              15          4.0+02                *       
*                                                                       
TEMP*                  1              13          4.0+02                *       
*                                                                       
TEMP*                  1              16          4.0+02                *       
*                                                                       
TEMP*                  1               5          4.0+02                *       
*                                                                       
TEMP*                  1               2          4.0+02                *       
*                                                                       
TEMP*                  1              17          4.0+02                *       
*                                                                       
TEMP*                  1              16          4.0+02                *       
*                                                                       
TEMP*                  1               9          4.0+02                *       
*                                                                       
TEMP*                  1               5          4.0+02                *       
*                                                                       
TEMP*                  1              18          4.0+02                *       
*                                                                       
TEMP*                  1               3          4.0+02                *       
*                                                                       
TEMP*                  1               7          4.0+02                *       
*                                                                       
TEMP*                  1              11          4.0+02                *       
*                                                                       
TEMP*                  1              15          4.0+02                *       
*                                                                       
TEMP*                  1               3          4.0+02                *       
*                                                                       
TEMP*                  1              18          4.0+02                *       
*                                                                       
TEMP*                  1              10          4.0+02                *       
*                                                                       
TEMP*                  1              34          4.0+02                *       
*                                                                       
TEMP*                  1              23          4.0+02                *       
*                                                                       
TEMP*                  1              20          4.0+02                *       
*                                                                       
TEMP*                  1              21          4.0+02                *       
*                                                                       
TEMP*                  1              36          4.0+02                *       
*                                                                       
TEMP*                  1              28          4.0+02                *       
*                                                                       
TEMP*                  1              35          4.0+02                *       
*                                                                       
TEMP*                  1              34          4.0+02                *       
*                                                                       
TEMP*                  1              27          4.0+02                *       
*                                                                       
TEMP*                  1              25          4.0+02                *       
*                                                                       
TEMP*                  1              29          4.0+02                *       
*                                                                       
TEMP*                  1              33          4.0+02                *       
*                                                                       
TEMP*                  1              26          4.0+02                *       
*                                                                       
TEMP*                  1              28          4.0+02                *       
*                                                                       
TEMP*                  1              29          4.0+02                *       
*                                                                       
TEMP*                  1              23          4.0+02                *       
*                                                                       
TEMP*                  1              36          4.0+02                *       
*                                                                       
TEMP*                  1              21          4.0+02                *       
*                                                                       
TEMP*                  1              32          4.0+02                *       
*                                                                       
TEMP*                  1              33          4.0+02                *       
*                                                                       
TEMP*                  1              31          4.0+02                *       
*                                                                       
TEMP*                  1              53          4.0+02                *       
*                                                                       
TEMP*                  1              48          4.0+02                *       
*                                                                       
TEMP*                  1              37          4.0+02                *       
*                                                                       
TEMP*                  1              43          4.0+02                *       
*                                                                       
TEMP*                  1              47          4.0+02                *       
*                                                                       
TEMP*                  1              51          4.0+02                *       
*                                                                       
TEMP*                  1              52          4.0+02                *       
*                                                                       
TEMP*                  1              53          4.0+02                *       
*                                                                       
TEMP*                  1              42          4.0+02                *       
*                                                                       
TEMP*                  1              41          4.0+02                *       
*                                                                       
TEMP*                  1              52          4.0+02                *       
*                                                                       
TEMP*                  1              45          4.0+02                *       
*                                                                       
TEMP*                  1              44          4.0+02                *       
*                                                                       
TEMP*                  1              46          4.0+02                *       
*                                                                       
TEMP*                  1              47          4.0+02                *       
*                                                                       
TEMP*                  1              54          4.0+02                *       
*                                                                       
TEMP*                  1              41          4.0+02                *       
*                                                                       
TEMP*                  1              38          4.0+02                *       
*                                                                       
TEMP*                  1              39          4.0+02                *       
*                                                                       
TEMP*                  1              54          4.0+02                *       
*                                                                       
TEMP*                  1              46          4.0+02                *       
*                                                                       
TEMP*                  1              50          4.0+02                *       
*                                                                       
TEMP*                  1              51          4.0+02                *       
*                                                                       
TEMP*                  1              49          4.0+02                *       
*                                                                       
TEMP*                  1              12          4.0+02                *       
*                                                                       
TEMP*                  1              17          4.0+02                *       
*                                                                       
TEMP*                  1               6          4.0+02                *       
*                                                                       
TEMP*                  1              12          4.0+02                *       
*                                                                       
TEMP*                  1               6          4.0+02                *       
*                                                                       
TEMP*                  1               1          4.0+02                *       
*                                                                       
TEMP*                  1              16          4.0+02                *       
*                                                                       
TEMP*                  1               2          4.0+02                *       
*                                                                       
TEMP*                  1               9          4.0+02                *       
*                                                                       
TEMP*                  1               3          4.0+02                *       
*                                                                       
TEMP*                  1              10          4.0+02                *       
*                                                                       
TEMP*                  1               8          4.0+02                *       
*                                                                       
TEMP*                  1              17          4.0+02                *       
*                                                                       
TEMP*                  1               9          4.0+02                *       
*                                                                       
TEMP*                  1               6          4.0+02                *       
*                                                                       
TEMP*                  1               7          4.0+02                *       
*                                                                       
TEMP*                  1              15          4.0+02                *       
*                                                                       
TEMP*                  1              14          4.0+02                *       
*                                                                       
TEMP*                  1               8          4.0+02                *       
*                                                                       
TEMP*                  1              11          4.0+02                *       
*                                                                       
TEMP*                  1               7          4.0+02                *       
*                                                                       
TEMP*                  1               5          4.0+02                *       
*                                                                       
TEMP*                  1               3          4.0+02                *       
*                                                                       
TEMP*                  1               2          4.0+02                *       
*                                                                       
TEMP*                  1              14          4.0+02                *       
*                                                                       
TEMP*                  1              13          4.0+02                *       
*                                                                       
TEMP*                  1               4          4.0+02                *       
*                                                                       
TEMP*                  1              30          4.0+02                *       
*                                                                       
TEMP*                  1              24          4.0+02                *       
*                                                                       
TEMP*                  1              19          4.0+02                *       
*                                                                       
TEMP*                  1              34          4.0+02                *       
*                                                                       
TEMP*                  1              20          4.0+02                *       
*                                                                       
TEMP*                  1              27          4.0+02                *       
*                                                                       
TEMP*                  1              21          4.0+02                *       
*                                                                       
TEMP*                  1              28          4.0+02                *       
*                                                                       
TEMP*                  1              26          4.0+02                *       
*                                                                       
TEMP*                  1              35          4.0+02                *       
*                                                                       
TEMP*                  1              27          4.0+02                *       
*                                                                       
TEMP*                  1              24          4.0+02                *       
*                                                                       
TEMP*                  1              25          4.0+02                *       
*                                                                       
TEMP*                  1              33          4.0+02                *       
*                                                                       
TEMP*                  1              32          4.0+02                *       
*                                                                       
TEMP*                  1              26          4.0+02                *       
*                                                                       
TEMP*                  1              29          4.0+02                *       
*                                                                       
TEMP*                  1              25          4.0+02                *       
*                                                                       
TEMP*                  1              23          4.0+02                *       
*                                                                       
TEMP*                  1              21          4.0+02                *       
*                                                                       
TEMP*                  1              20          4.0+02                *       
*                                                                       
TEMP*                  1              32          4.0+02                *       
*                                                                       
TEMP*                  1              31          4.0+02                *       
*                                                                       
TEMP*                  1              22          4.0+02                *       
*                                                                       
TEMP*                  1              53          4.0+02                *       
*                                                                       
TEMP*                  1              37          4.0+02                *       
*                                                                       
TEMP*                  1              42          4.0+02                *       
*                                                                       
TEMP*                  1              41          4.0+02                *       
*                                                                       
TEMP*                  1              45          4.0+02                *       
*                                                                       
TEMP*                  1              38          4.0+02                *       
*                                                                       
TEMP*                  1              39          4.0+02                *       
*                                                                       
TEMP*                  1              46          4.0+02                *       
*                                                                       
TEMP*                  1              44          4.0+02                *       
*                                                                       
TEMP*                  1              52          4.0+02                *       
*                                                                       
TEMP*                  1              42          4.0+02                *       
*                                                                       
TEMP*                  1              45          4.0+02                *       
*                                                                       
TEMP*                  1              43          4.0+02                *       
*                                                                       
TEMP*                  1              51          4.0+02                *       
*                                                                       
TEMP*                  1              50          4.0+02                *       
*                                                                       
TEMP*                  1              44          4.0+02                *       
*                                                                       
TEMP*                  1              47          4.0+02                *       
*                                                                       
TEMP*                  1              43          4.0+02                *       
*                                                                       
TEMP*                  1              54          4.0+02                *       
*                                                                       
TEMP*                  1              38          4.0+02                *       
*                                                                       
TEMP*                  1              39          4.0+02                *       
*                                                                       
TEMP*                  1              50          4.0+02                *       
*                                                                       
TEMP*                  1              49          4.0+02                *       
*                                                                       
TEMP*                  1              40          4.0+02                *       
*                                                                       
$--1---><------2-------><------3-------><------4-------><------5-------><--6--->
TEMPD*                 1          3.0+02                                *       
*                                                                       
$--1---><------2-------><------3-------><------4-------><------5-------><--6--->
EIGRL*                 1                                               3*       
*                      0                          1.0-05            MASS
ENDDATA
