$ Generated by Mecway 29
$-------------EXECUTIVE CONTROL SECTION-------------
SOL 101
CEND
$---------------CASE CONTROL SECTION----------------
DISPLACEMENT = ALL
$
  ACCELERATION(PRINT,PLOT) = ALL
  DISPLACEMENT(PRINT, PLOT) = ALL
  GPFORCE(PRINT, PLOT) = ALL
  MPCFORCES(PRINT, PLOT) = ALL
  OLOAD(PRINT, PLOT)= ALL
  SPCFORCES(PRINT, PLOT) = ALL
  FORCE(PRINT, PLOT) = ALL
  STRESS(PRINT, PLOT, CORNER)= ALL
  STRAIN(PRINT, PLOT, CORNER)= ALL
$
SPC = 1
LOAD = 1
BEGIN BULK
$-----------------BULK DATA SECTION-----------------
$
  PARAM, POST,-1
$
GRID*                  1               0          0.0+00          0.0+00*       
*                 0.0+00               0
GRID*                  2               0          1.0-01          0.0+00*       
*                 0.0+00               0
GRID*                  3               0          1.0-01          1.0+00*       
*                 0.0+00               0
GRID*                  4               0          0.0+00          1.0+00*       
*                 0.0+00               0
GRID*                  5               0          0.0+00          2.5-01*       
*                 0.0+00               0
GRID*                  6               0          0.0+00          5.0-01*       
*                 0.0+00               0
GRID*                  7               0          0.0+00          7.5-01*       
*                 0.0+00               0
GRID*                  8               0          1.0-01          2.5-01*       
*                 0.0+00               0
GRID*                  9               0          1.0-01          5.0-01*       
*                 0.0+00               0
GRID*                 10               0          1.0-01          7.5-01*       
*                 0.0+00               0
GRID*                 11               0          1.0+00          0.0+00*       
*                 0.0+00               0
GRID*                 12               0          1.1+00          0.0+00*       
*                 0.0+00               0
GRID*                 13               0          1.1+00          1.0+00*       
*                 0.0+00               0
GRID*                 14               0          1.0+00          1.0+00*       
*                 0.0+00               0
GRID*                 15               0          1.0+00          2.5-01*       
*                 0.0+00               0
GRID*                 16               0          1.0+00          5.0-01*       
*                 0.0+00               0
GRID*                 17               0          1.0+00          7.5-01*       
*                 0.0+00               0
GRID*                 18               0          1.1+00          2.5-01*       
*                 0.0+00               0
GRID*                 19               0          1.1+00          5.0-01*       
*                 0.0+00               0
GRID*                 20               0          1.1+00          7.5-01*       
*                 0.0+00               0
GRID*                 21               0          2.0+00          0.0+00*       
*                 0.0+00               0
GRID*                 22               0          2.1+00          0.0+00*       
*                 0.0+00               0
GRID*                 23               0          2.1+00          1.0+00*       
*                 0.0+00               0
GRID*                 24               0          2.0+00          1.0+00*       
*                 0.0+00               0
GRID*                 25               0          2.0+00          2.5-01*       
*                 0.0+00               0
GRID*                 26               0          2.0+00          5.0-01*       
*                 0.0+00               0
GRID*                 27               0          2.0+00          7.5-01*       
*                 0.0+00               0
GRID*                 28               0          2.1+00          2.5-01*       
*                 0.0+00               0
GRID*                 29               0          2.1+00          5.0-01*       
*                 0.0+00               0
GRID*                 30               0          2.1+00          7.5-01*       
*                 0.0+00               0
$--1---><------2-------><------3-------><------4-------><------5-------><--6--->
$$$$$$$$$$$$$$$$$$$$$$$$$$$$$$$$$$$ Material $$$$$$$$$$$$$$$$$$$$$$$$$$$$$$$$$$$
MAT8*                  1          1.0+11          1.0+11          0.0+00*       
*                 5.0+10          5.0+10          5.0+10          0.0+00*       
*                 0.0+00          0.0+00          0.0+00                *       
*                                                                       
MAT8*                  2          1.0+04          1.0+04          0.0+00*       
*                 5.0+03          5.0+03          5.0+03          0.0+00*       
*                 0.0+00          0.0+00          0.0+00                *       
*                                                                       
$--1---><------2-------><------3-------><------4-------><------5-------><--6--->
SPC*                   1               1               1          0.0+00*       
*                                                                       
SPC*                   1               1               2          0.0+00*       
*                                                                       
SPC*                   1               1               3          0.0+00*       
*                                                                       
SPC*                   1               1               4          0.0+00*       
*                                                                       
SPC*                   1               1               5          0.0+00*       
*                                                                       
SPC*                   1               1               6          0.0+00*       
*                                                                       
SPC*                   1               2               1          0.0+00*       
*                                                                       
SPC*                   1               2               2          0.0+00*       
*                                                                       
SPC*                   1               2               3          0.0+00*       
*                                                                       
SPC*                   1               2               4          0.0+00*       
*                                                                       
SPC*                   1               2               5          0.0+00*       
*                                                                       
SPC*                   1               2               6          0.0+00*       
*                                                                       
SPC*                   1              11               1          0.0+00*       
*                                                                       
SPC*                   1              11               2          0.0+00*       
*                                                                       
SPC*                   1              11               3          0.0+00*       
*                                                                       
SPC*                   1              11               4          0.0+00*       
*                                                                       
SPC*                   1              11               5          0.0+00*       
*                                                                       
SPC*                   1              11               6          0.0+00*       
*                                                                       
SPC*                   1              12               1          0.0+00*       
*                                                                       
SPC*                   1              12               2          0.0+00*       
*                                                                       
SPC*                   1              12               3          0.0+00*       
*                                                                       
SPC*                   1              12               4          0.0+00*       
*                                                                       
SPC*                   1              12               5          0.0+00*       
*                                                                       
SPC*                   1              12               6          0.0+00*       
*                                                                       
SPC*                   1              21               1          0.0+00*       
*                                                                       
SPC*                   1              21               2          0.0+00*       
*                                                                       
SPC*                   1              21               3          0.0+00*       
*                                                                       
SPC*                   1              21               4          0.0+00*       
*                                                                       
SPC*                   1              21               5          0.0+00*       
*                                                                       
SPC*                   1              21               6          0.0+00*       
*                                                                       
SPC*                   1              22               1          0.0+00*       
*                                                                       
SPC*                   1              22               2          0.0+00*       
*                                                                       
SPC*                   1              22               3          0.0+00*       
*                                                                       
SPC*                   1              22               4          0.0+00*       
*                                                                       
SPC*                   1              22               5          0.0+00*       
*                                                                       
SPC*                   1              22               6          0.0+00*       
*                                                                       
$--1---><------2-------><------3-------><------4-------><------5-------><--6--->
$$$$$$$$$$$$$$$$$$$$$$$$$$$$$$$$$$$ Default $$$$$$$$$$$$$$$$$$$$$$$$$$$$$$$$$$$$
PCOMP*                 1                                                *       
*                                 0.0+00                                *       
*                      1          1.0-02          0.0+00                *       
*                      2          1.0-02          0.0+00                
CQUAD4*                1               1               7              10*       
*                      3               4          0.0+00          0.0+00
CQUAD4*                2               1               1               2*       
*                      8               5          0.0+00          0.0+00
CQUAD4*                3               1               5               8*       
*                      9               6          0.0+00          0.0+00
CQUAD4*                4               1               6               9*       
*                     10               7          0.0+00          0.0+00
PCOMP*                 2                                                *       
*                                 0.0+00                                *       
*                      1          1.0-02          0.0+00                *       
*                      2          1.0-02          0.0+00                
CTRIA3*                5               2              17              13*       
*                     14          0.0+00          0.0+00
CTRIA3*                6               2              11              18*       
*                     15          0.0+00          0.0+00
CTRIA3*                7               2              15              19*       
*                     16          0.0+00          0.0+00
CTRIA3*                8               2              16              20*       
*                     17          0.0+00          0.0+00
CTRIA3*                9               2              17              20*       
*                     13          0.0+00          0.0+00
CTRIA3*               10               2              11              12*       
*                     18          0.0+00          0.0+00
CTRIA3*               11               2              15              18*       
*                     19          0.0+00          0.0+00
CTRIA3*               12               2              16              19*       
*                     20          0.0+00          0.0+00
CTRIA3*               13               2              23              24*       
*                     27          0.0+00          0.0+00
CTRIA3*               14               2              28              25*       
*                     21          0.0+00          0.0+00
CTRIA3*               15               2              29              26*       
*                     25          0.0+00          0.0+00
CTRIA3*               16               2              30              27*       
*                     26          0.0+00          0.0+00
CTRIA3*               17               2              27              30*       
*                     23          0.0+00          0.0+00
CTRIA3*               18               2              21              22*       
*                     28          0.0+00          0.0+00
CTRIA3*               19               2              25              28*       
*                     29          0.0+00          0.0+00
CTRIA3*               20               2              26              29*       
*                     30          0.0+00          0.0+00
$--1---><------2-------><------3-------><------4-------><------5-------><--6--->
$$$$$$$$$$$$$$$$$$$$$$$$$$$$$$$$$$$$ force $$$$$$$$$$$$$$$$$$$$$$$$$$$$$$$$$$$$$
FORCE*                 1               3               0          1.0+00*       
*                 0.0+00          5.0-01          0.0+00
FORCE*                 1               4               0          1.0+00*       
*                 0.0+00          5.0-01          0.0+00
FORCE*                 1              23               0          1.0+00*       
*                 0.0+00          5.0-01          0.0+00
FORCE*                 1              24               0          1.0+00*       
*                 0.0+00          5.0-01          0.0+00
FORCE*                 1              13               0          1.0+00*       
*                 0.0+00          5.0-01          0.0+00
FORCE*                 1              14               0          1.0+00*       
*                 0.0+00          5.0-01          0.0+00
$--1---><------2-------><------3-------><------4-------><------5-------><--6--->
PARAM*            IORQ2T               2                                *       
*                                                                       
ENDDATA
