$ Generated by Mecway 29
$-------------EXECUTIVE CONTROL SECTION-------------
SOL 101
CEND
$---------------CASE CONTROL SECTION----------------
DISPLACEMENT = ALL
$
  ACCELERATION(PRINT,PLOT) = ALL
  DISPLACEMENT(PRINT, PLOT) = ALL
  GPFORCE(PRINT, PLOT) = ALL
  MPCFORCES(PRINT, PLOT) = ALL
  OLOAD(PRINT, PLOT)= ALL
  SPCFORCES(PRINT, PLOT) = ALL
  FORCE(PRINT, PLOT) = ALL
  STRESS(PRINT, PLOT, CORNER)= ALL
  STRAIN(PRINT, PLOT, CORNER)= ALL
$
SPC = 1
LOAD = 1
BEGIN BULK
$-----------------BULK DATA SECTION-----------------
$
  PARAM, POST,-1
$
GRID*                  1               0          1.5-01          0.0+00*       
*                 0.0+00               0
GRID*                  2               0          4.5-01          0.0+00*       
*                 0.0+00               0
GRID*                  3               0 1.8369095307-17          0.0+00*       
*                -1.5-01               0
GRID*                  4               0 5.5107285922-17          0.0+00*       
*                -4.5-01               0
GRID*                  5               0 1.8369095307-17          1.5-01*       
*                 0.0+00               0
GRID*                  6               0 5.5107285922-17          4.5-01*       
*                 0.0+00               0
GRID*                  7               0-1.0606601718-01 9.1845476537-18*       
*        1.0606601718-01               0
GRID*                  8               0-3.1819805153-01 2.7553642961-17*       
*        3.1819805153-01               1
$--1---><------2-------><------3-------><------4-------><------5-------><--6--->
CORD2R*                1               0          0.0+00          0.0+00*       
*                 0.0+00-7.0710678119-01          0.0+00 7.0710678119-01*       
*        7.0710678119-01          0.0+00 7.0710678119-01                *       
*                                                                       
SPC*                   1               1               1          0.0+00*       
*                                                                       
SPC*                   1               1               2          0.0+00*       
*                                                                       
SPC*                   1               1               3          0.0+00*       
*                                                                       
SPC*                   1               2               2          0.0+00*       
*                                                                       
SPC*                   1               2               3          0.0+00*       
*                                                                       
SPC*                   1               3               1          0.0+00*       
*                                                                       
SPC*                   1               3               2          0.0+00*       
*                                                                       
SPC*                   1               3               3          0.0+00*       
*                                                                       
SPC*                   1               4               1          0.0+00*       
*                                                                       
SPC*                   1               4               2          0.0+00*       
*                                                                       
SPC*                   1               5               1          0.0+00*       
*                                                                       
SPC*                   1               5               2          0.0+00*       
*                                                                       
SPC*                   1               5               3          0.0+00*       
*                                                                       
SPC*                   1               6               1          0.0+00*       
*                                                                       
SPC*                   1               6               3          0.0+00*       
*                                                                       
SPC*                   1               7               1          0.0+00*       
*                                                                       
SPC*                   1               7               2          0.0+00*       
*                                                                       
SPC*                   1               7               3          0.0+00*       
*                                                                       
SPC*                   1               8               2          0.0+00*       
*                                                                       
SPC*                   1               8               1          0.0+00*       
*                                                                       
$--1---><------2-------><------3-------><------4-------><------5-------><--6--->
$$$$$$$$$$$$$$$$$$$$$$$$$$$$$$$$$$$ Default $$$$$$$$$$$$$$$$$$$$$$$$$$$$$$$$$$$$
PBUSH*                 2               K          4.3+00                *       
*                                                                       
CBUSH*                 1               2               1               2*       
*                 0.0+00         -1.0+00          0.0+00                *       
*                                                      0               0*       
*                      0
CBUSH*                 2               2               3               4*       
*                 1.0+00          0.0+00 1.2246063538-16                *       
*                                                      0               0*       
*                      0
CBUSH*                 3               2               6               5*       
*                -1.0+00 1.2246063538-16          0.0+00                *       
*                                                      0               0*       
*                      0
CBUSH*                 4               2               7               8*       
*        8.6592745707-17          1.0+00          0.0+00                *       
*                                                      0               0*       
*                      0
$--1---><------2-------><------3-------><------4-------><------5-------><--6--->
$$$$$$$$$$$$$$$$$$$$$$$$$$$$$$$$$$$$ force $$$$$$$$$$$$$$$$$$$$$$$$$$$$$$$$$$$$$
FORCE*                 1               2               0          1.0+00*       
*                 1.0+00          0.0+00          0.0+00
$--1---><------2-------><------3-------><------4-------><------5-------><--6--->
$$$$$$$$$$$$$$$$$$$$$$$$$$$$$$$$$$$$ force $$$$$$$$$$$$$$$$$$$$$$$$$$$$$$$$$$$$$
FORCE*                 1               4               0          1.0+00*       
*                 0.0+00          0.0+00         -1.0+00
$--1---><------2-------><------3-------><------4-------><------5-------><--6--->
$$$$$$$$$$$$$$$$$$$$$$$$$$$$$$$$$$$$ force $$$$$$$$$$$$$$$$$$$$$$$$$$$$$$$$$$$$$
FORCE*                 1               6               0          1.0+00*       
*                 0.0+00          1.0+00          0.0+00
$--1---><------2-------><------3-------><------4-------><------5-------><--6--->
$$$$$$$$$$$$$$$$$$$$$$$$$$$$$$$$$$$$ force $$$$$$$$$$$$$$$$$$$$$$$$$$$$$$$$$$$$$
FORCE*                 1               8               0          1.0+00*       
*       -7.0710678119-01          0.0+00 7.0710678119-01
$--1---><------2-------><------3-------><------4-------><------5-------><--6--->
ENDDATA
