$ Generated by Mecway 29
$-------------EXECUTIVE CONTROL SECTION-------------
SOL 101
CEND
$---------------CASE CONTROL SECTION----------------
DISPLACEMENT = ALL
$
  ACCELERATION(PRINT,PLOT) = ALL
  DISPLACEMENT(PRINT, PLOT) = ALL
  GPFORCE(PRINT, PLOT) = ALL
  MPCFORCES(PRINT, PLOT) = ALL
  OLOAD(PRINT, PLOT)= ALL
  SPCFORCES(PRINT, PLOT) = ALL
  FORCE(PRINT, PLOT) = ALL
  STRESS(PRINT, PLOT, CORNER)= ALL
  STRAIN(PRINT, PLOT, CORNER)= ALL
$
SPC = 1
LOAD = 1
BEGIN BULK
$-----------------BULK DATA SECTION-----------------
$
  PARAM, POST,-1
$
GRID*                  1               0          0.0+00          0.0+00*       
*                 0.0+00               0
GRID*                  2               0          1.0-01          0.0+00*       
*                 0.0+00               0
GRID*                  3               0          1.0-01          1.0+00*       
*                 0.0+00               0
GRID*                  4               0          0.0+00          1.0+00*       
*                 0.0+00               0
GRID*                  5               0          0.0+00          2.5-01*       
*                 0.0+00               0
GRID*                  6               0          0.0+00          5.0-01*       
*                 0.0+00               0
GRID*                  7               0          0.0+00          7.5-01*       
*                 0.0+00               0
GRID*                  8               0          1.0-01          2.5-01*       
*                 0.0+00               0
GRID*                  9               0          1.0-01          5.0-01*       
*                 0.0+00               0
GRID*                 10               0          1.0-01          7.5-01*       
*                 0.0+00               0
GRID*                 11               0          1.0+00          0.0+00*       
*                 0.0+00               0
GRID*                 12               0          1.1+00          0.0+00*       
*                 0.0+00               0
GRID*                 13               0          1.1+00          1.0+00*       
*                 0.0+00               0
GRID*                 14               0          1.0+00          1.0+00*       
*                 0.0+00               0
GRID*                 15               0          1.0+00          2.5-01*       
*                 0.0+00               0
GRID*                 16               0          1.0+00          5.0-01*       
*                 0.0+00               0
GRID*                 17               0          1.0+00          7.5-01*       
*                 0.0+00               0
GRID*                 18               0          1.1+00          2.5-01*       
*                 0.0+00               0
GRID*                 19               0          1.1+00          5.0-01*       
*                 0.0+00               0
GRID*                 20               0          1.1+00          7.5-01*       
*                 0.0+00               0
GRID*                 21               0          2.0+00          0.0+00*       
*                 0.0+00               0
GRID*                 22               0          2.1+00          0.0+00*       
*                 0.0+00               0
GRID*                 23               0          2.1+00          1.0+00*       
*                 0.0+00               0
GRID*                 24               0          2.0+00          1.0+00*       
*                 0.0+00               0
GRID*                 25               0          2.0+00          2.5-01*       
*                 0.0+00               0
GRID*                 26               0          2.0+00          5.0-01*       
*                 0.0+00               0
GRID*                 27               0          2.0+00          7.5-01*       
*                 0.0+00               0
GRID*                 28               0          2.1+00          2.5-01*       
*                 0.0+00               0
GRID*                 29               0          2.1+00          5.0-01*       
*                 0.0+00               0
GRID*                 30               0          2.1+00          7.5-01*       
*                 0.0+00               0
$--1---><------2-------><------3-------><------4-------><------5-------><--6--->
$$$$$$$$$$$$$$$$$$$$$$$$$$$$$$$$$$$ Material $$$$$$$$$$$$$$$$$$$$$$$$$$$$$$$$$$$
MAT8*                  1          1.0+11          1.0+11          0.0+00*       
*                 5.0+10          5.0+10          5.0+10          0.0+00*       
*                 0.0+00          0.0+00          0.0+00                *       
*                                                                       
MAT8*                  2          1.0+04          1.0+04          0.0+00*       
*                 5.0+03          5.0+03          5.0+03          0.0+00*       
*                 0.0+00          0.0+00          0.0+00                *       
*                                                                       
$--1---><------2-------><------3-------><------4-------><------5-------><--6--->
SPC*                   1               1               1          0.0+00*       
*                                                                       
SPC*                   1               1               2          0.0+00*       
*                                                                       
SPC*                   1               1               3          0.0+00*       
*                                                                       
SPC*                   1               1               4          0.0+00*       
*                                                                       
SPC*                   1               1               5          0.0+00*       
*                                                                       
SPC*                   1               1               6          0.0+00*       
*                                                                       
SPC*                   1               2               1          0.0+00*       
*                                                                       
SPC*                   1               2               2          0.0+00*       
*                                                                       
SPC*                   1               2               3          0.0+00*       
*                                                                       
SPC*                   1               2               4          0.0+00*       
*                                                                       
SPC*                   1               2               5          0.0+00*       
*                                                                       
SPC*                   1               2               6          0.0+00*       
*                                                                       
SPC*                   1              11               1          0.0+00*       
*                                                                       
SPC*                   1              11               2          0.0+00*       
*                                                                       
SPC*                   1              11               3          0.0+00*       
*                                                                       
SPC*                   1              11               4          0.0+00*       
*                                                                       
SPC*                   1              11               5          0.0+00*       
*                                                                       
SPC*                   1              11               6          0.0+00*       
*                                                                       
SPC*                   1              12               1          0.0+00*       
*                                                                       
SPC*                   1              12               2          0.0+00*       
*                                                                       
SPC*                   1              12               3          0.0+00*       
*                                                                       
SPC*                   1              12               4          0.0+00*       
*                                                                       
SPC*                   1              12               5          0.0+00*       
*                                                                       
SPC*                   1              12               6          0.0+00*       
*                                                                       
SPC*                   1              21               1          0.0+00*       
*                                                                       
SPC*                   1              21               2          0.0+00*       
*                                                                       
SPC*                   1              21               3          0.0+00*       
*                                                                       
SPC*                   1              21               4          0.0+00*       
*                                                                       
SPC*                   1              21               5          0.0+00*       
*                                                                       
SPC*                   1              21               6          0.0+00*       
*                                                                       
SPC*                   1              22               1          0.0+00*       
*                                                                       
SPC*                   1              22               2          0.0+00*       
*                                                                       
SPC*                   1              22               3          0.0+00*       
*                                                                       
SPC*                   1              22               4          0.0+00*       
*                                                                       
SPC*                   1              22               5          0.0+00*       
*                                                                       
SPC*                   1              22               6          0.0+00*       
*                                                                       
$--1---><------2-------><------3-------><------4-------><------5-------><--6--->
$$$$$$$$$$$$$$$$$$$$$$$$$$$$$$$$$$$ Default $$$$$$$$$$$$$$$$$$$$$$$$$$$$$$$$$$$$
PCOMP*                 1                                                *       
*                                 0.0+00                                *       
*                      1          1.0-02          0.0+00                *       
*                      2          1.0-02          0.0+00                
CQUAD4*                1               1               7              10*       
*                      3               4               2          0.0+00
CORD2R*                2               0          0.0+00          0.0+00*       
*                 0.0+00          0.0+00          1.0+00          0.0+00*       
*                 1.0+00          0.0+00          0.0+00                *       
*                                                                       
CQUAD4*                2               1               1               2*       
*                      8               5               3          0.0+00
CORD2R*                3               0          0.0+00          0.0+00*       
*                 0.0+00          0.0+00          1.0+00          0.0+00*       
*                 1.0+00          0.0+00          0.0+00                *       
*                                                                       
CQUAD4*                3               1               5               8*       
*                      9               6               4          0.0+00
CORD2R*                4               0          0.0+00          0.0+00*       
*                 0.0+00          0.0+00          1.0+00          0.0+00*       
*                 1.0+00          0.0+00          0.0+00                *       
*                                                                       
CQUAD4*                4               1               6               9*       
*                     10               7               5          0.0+00
CORD2R*                5               0          0.0+00          0.0+00*       
*                 0.0+00          0.0+00          1.0+00          0.0+00*       
*                 1.0+00          0.0+00          0.0+00                *       
*                                                                       
PCOMP*                 6                                                *       
*                                 0.0+00                                *       
*                      1          1.0-02          0.0+00                *       
*                      2          1.0-02          0.0+00                
CTRIA3*                5               6              17              13*       
*                     14               7          0.0+00
CORD2R*                7               0          0.0+00          0.0+00*       
*                 0.0+00-9.2847669089-01 3.7139067635-01          0.0+00*       
*        3.7139067635-01 9.2847669089-01          0.0+00                *       
*                                                                       
CTRIA3*                6               6              11              18*       
*                     15               8          0.0+00
CORD2R*                8               0          0.0+00          0.0+00*       
*                 0.0+00-9.2847669089-01 3.7139067635-01          0.0+00*       
*        3.7139067635-01 9.2847669089-01          0.0+00                *       
*                                                                       
CTRIA3*                7               6              15              19*       
*                     16               9          0.0+00
CORD2R*                9               0          0.0+00          0.0+00*       
*                 0.0+00-9.2847669089-01 3.7139067635-01          0.0+00*       
*        3.7139067635-01 9.2847669089-01          0.0+00                *       
*                                                                       
CTRIA3*                8               6              16              20*       
*                     17              10          0.0+00
CORD2R*               10               0          0.0+00          0.0+00*       
*                 0.0+00-9.2847669089-01 3.7139067635-01          0.0+00*       
*        3.7139067635-01 9.2847669089-01          0.0+00                *       
*                                                                       
CTRIA3*                9               6              17              20*       
*                     13              11          0.0+00
CORD2R*               11               0          0.0+00          0.0+00*       
*                 0.0+00          0.0+00          1.0+00          0.0+00*       
*                 1.0+00          0.0+00          0.0+00                *       
*                                                                       
CTRIA3*               10               6              11              12*       
*                     18              12          0.0+00
CORD2R*               12               0          0.0+00          0.0+00*       
*                 0.0+00          0.0+00          1.0+00          0.0+00*       
*                 1.0+00          0.0+00          0.0+00                *       
*                                                                       
CTRIA3*               11               6              15              18*       
*                     19              13          0.0+00
CORD2R*               13               0          0.0+00          0.0+00*       
*                 0.0+00          0.0+00          1.0+00          0.0+00*       
*                 1.0+00          0.0+00          0.0+00                *       
*                                                                       
CTRIA3*               12               6              16              19*       
*                     20              14          0.0+00
CORD2R*               14               0          0.0+00          0.0+00*       
*                 0.0+00          0.0+00          1.0+00          0.0+00*       
*                 1.0+00          0.0+00          0.0+00                *       
*                                                                       
CTRIA3*               13               6              23              24*       
*                     27              15          0.0+00
CORD2R*               15               0          0.0+00          0.0+00*       
*                 0.0+00          0.0+00         -1.0+00          0.0+00*       
*                -1.0+00          0.0+00          0.0+00                *       
*                                                                       
CTRIA3*               14               6              28              25*       
*                     21              16          0.0+00
CORD2R*               16               0          0.0+00          0.0+00*       
*                 0.0+00          0.0+00         -1.0+00          0.0+00*       
*                -1.0+00          0.0+00          0.0+00                *       
*                                                                       
CTRIA3*               15               6              29              26*       
*                     25              17          0.0+00
CORD2R*               17               0          0.0+00          0.0+00*       
*                 0.0+00          0.0+00         -1.0+00          0.0+00*       
*                -1.0+00          0.0+00          0.0+00                *       
*                                                                       
CTRIA3*               16               6              30              27*       
*                     26              18          0.0+00
CORD2R*               18               0          0.0+00          0.0+00*       
*                 0.0+00          0.0+00         -1.0+00          0.0+00*       
*                -1.0+00          0.0+00          0.0+00                *       
*                                                                       
CTRIA3*               17               6              27              30*       
*                     23              19          0.0+00
CORD2R*               19               0          0.0+00          0.0+00*       
*                 0.0+00          0.0+00          1.0+00          0.0+00*       
*                 1.0+00          0.0+00          0.0+00                *       
*                                                                       
CTRIA3*               18               6              21              22*       
*                     28              20          0.0+00
CORD2R*               20               0          0.0+00          0.0+00*       
*                 0.0+00          0.0+00          1.0+00          0.0+00*       
*                 1.0+00          0.0+00          0.0+00                *       
*                                                                       
CTRIA3*               19               6              25              28*       
*                     29              21          0.0+00
CORD2R*               21               0          0.0+00          0.0+00*       
*                 0.0+00          0.0+00          1.0+00          0.0+00*       
*                 1.0+00          0.0+00          0.0+00                *       
*                                                                       
CTRIA3*               20               6              26              29*       
*                     30              22          0.0+00
CORD2R*               22               0          0.0+00          0.0+00*       
*                 0.0+00          0.0+00          1.0+00          0.0+00*       
*                 1.0+00          0.0+00          0.0+00                *       
*                                                                       
$--1---><------2-------><------3-------><------4-------><------5-------><--6--->
$$$$$$$$$$$$$$$$$$$$$$$$$$$$$$$$$$$$ force $$$$$$$$$$$$$$$$$$$$$$$$$$$$$$$$$$$$$
FORCE*                 1               3               0          1.0+00*       
*                 0.0+00          5.0-01          0.0+00
FORCE*                 1               4               0          1.0+00*       
*                 0.0+00          5.0-01          0.0+00
FORCE*                 1              23               0          1.0+00*       
*                 0.0+00          5.0-01          0.0+00
FORCE*                 1              24               0          1.0+00*       
*                 0.0+00          5.0-01          0.0+00
FORCE*                 1              13               0          1.0+00*       
*                 0.0+00          5.0-01          0.0+00
FORCE*                 1              14               0          1.0+00*       
*                 0.0+00          5.0-01          0.0+00
$--1---><------2-------><------3-------><------4-------><------5-------><--6--->
PARAM*            IORQ2T               2                                *       
*                                                                       
ENDDATA
