$ Generated by Mecway 29
$-------------EXECUTIVE CONTROL SECTION-------------
SOL 105
CEND
$---------------CASE CONTROL SECTION----------------
DISPLACEMENT = ALL
$
  ACCELERATION(PRINT,PLOT) = ALL
  DISPLACEMENT(PRINT, PLOT) = ALL
  GPFORCE(PRINT, PLOT) = ALL
  MPCFORCES(PRINT, PLOT) = ALL
  OLOAD(PRINT, PLOT)= ALL
  SPCFORCES(PRINT, PLOT) = ALL
  FORCE(PRINT, PLOT) = ALL
  STRESS(PRINT, PLOT, CORNER)= ALL
  STRAIN(PRINT, PLOT, CORNER)= ALL
$
SPC = 1
SUBCASE 1
LOAD = 1
SUBCASE 2
METHOD = 1
BEGIN BULK
$-----------------BULK DATA SECTION-----------------
$
  PARAM, POST,-1
$
GRID*                  1               0         -5.0-01          0.0+00*       
*                 0.0+00               0
GRID*                  2               0          5.0-01          0.0+00*       
*                 0.0+00               0
GRID*                  3               0          5.0-01          1.0+00*       
*                 0.0+00               0
GRID*                  4               0         -5.0-01          1.0+00*       
*                 0.0+00               0
GRID*                  5               0          0.0+00          0.0+00*       
*                 0.0+00               0
GRID*                  6               0          5.0-01          5.0-01*       
*                 0.0+00               0
GRID*                  7               0          0.0+00          1.0+00*       
*                 0.0+00               0
GRID*                  8               0         -5.0-01          5.0-01*       
*                 0.0+00               0
GRID*                  9               0          0.0+00          5.0-01*       
*                 0.0+00               0
GRID*                 10               0         -2.5-01          5.0-01*       
*                 0.0+00               0
GRID*                 11               0          0.0+00          7.5-01*       
*                 0.0+00               0
GRID*                 12               0         -2.5-01          1.0+00*       
*                 0.0+00               0
GRID*                 13               0         -5.0-01          7.5-01*       
*                 0.0+00               0
GRID*                 14               0         -2.5-01          7.5-01*       
*                 0.0+00               0
GRID*                 15               0         -2.5-01          0.0+00*       
*                 0.0+00               0
GRID*                 16               0          0.0+00          2.5-01*       
*                 0.0+00               0
GRID*                 17               0         -5.0-01          2.5-01*       
*                 0.0+00               0
GRID*                 18               0         -2.5-01          2.5-01*       
*                 0.0+00               0
GRID*                 19               0          2.5-01          0.0+00*       
*                 0.0+00               0
GRID*                 20               0          5.0-01          2.5-01*       
*                 0.0+00               0
GRID*                 21               0          2.5-01          5.0-01*       
*                 0.0+00               0
GRID*                 22               0          2.5-01          2.5-01*       
*                 0.0+00               0
GRID*                 23               0          2.5-01          1.0+00*       
*                 0.0+00               0
GRID*                 24               0          5.0-01          7.5-01*       
*                 0.0+00               0
GRID*                 25               0          2.5-01          7.5-01*       
*                 0.0+00               0
$--1---><------2-------><------3-------><------4-------><------5-------><--6--->
$$$$$$$$$$$$$$$$$$$$$$$$$$$$$$$$$$$ Material $$$$$$$$$$$$$$$$$$$$$$$$$$$$$$$$$$$
MAT1*                  1          2.0+11          1.0+11          0.0+00*       
*                 0.0+00          0.0+00          0.0+00
$--1---><------2-------><------3-------><------4-------><------5-------><--6--->
SPC*                   1               1               1          0.0+00*       
*                                                                       
SPC*                   1               1               2          0.0+00*       
*                                                                       
SPC*                   1               1               3          0.0+00*       
*                                                                       
SPC*                   1               1               4          0.0+00*       
*                                                                       
SPC*                   1               1               5          0.0+00*       
*                                                                       
SPC*                   1               1               6          0.0+00*       
*                                                                       
SPC*                   1               4               1          0.0+00*       
*                                                                       
SPC*                   1               4               2          0.0+00*       
*                                                                       
SPC*                   1               4               3          0.0+00*       
*                                                                       
SPC*                   1               4               4          0.0+00*       
*                                                                       
SPC*                   1               4               5          0.0+00*       
*                                                                       
SPC*                   1               4               6          0.0+00*       
*                                                                       
SPC*                   1               8               1          0.0+00*       
*                                                                       
SPC*                   1               8               2          0.0+00*       
*                                                                       
SPC*                   1               8               3          0.0+00*       
*                                                                       
SPC*                   1               8               4          0.0+00*       
*                                                                       
SPC*                   1               8               5          0.0+00*       
*                                                                       
SPC*                   1               8               6          0.0+00*       
*                                                                       
SPC*                   1              13               1          0.0+00*       
*                                                                       
SPC*                   1              13               2          0.0+00*       
*                                                                       
SPC*                   1              13               3          0.0+00*       
*                                                                       
SPC*                   1              13               4          0.0+00*       
*                                                                       
SPC*                   1              13               5          0.0+00*       
*                                                                       
SPC*                   1              13               6          0.0+00*       
*                                                                       
SPC*                   1              17               1          0.0+00*       
*                                                                       
SPC*                   1              17               2          0.0+00*       
*                                                                       
SPC*                   1              17               3          0.0+00*       
*                                                                       
SPC*                   1              17               4          0.0+00*       
*                                                                       
SPC*                   1              17               5          0.0+00*       
*                                                                       
SPC*                   1              17               6          0.0+00*       
*                                                                       
$--1---><------2-------><------3-------><------4-------><------5-------><--6--->
$$$$$$$$$$$$$$$$$$$$$$$$$$$$$$$$$$$ Default $$$$$$$$$$$$$$$$$$$$$$$$$$$$$$$$$$$$
PSHELL*                1               1          1.0-01               1*       
*                                      1                          0.0+00
CQUAD4*                1               1               6              21*       
*                     25              24          0.0+00          0.0+00
CQUAD4*                2               1              21               9*       
*                     11              25          0.0+00          0.0+00
CQUAD4*                3               1              25              11*       
*                      7              23          0.0+00          0.0+00
CQUAD4*                4               1              24              25*       
*                     23               3          0.0+00          0.0+00
CQUAD4*                5               1               8              10*       
*                     14              13          0.0+00          0.0+00
CQUAD4*                6               1              10               9*       
*                     11              14          0.0+00          0.0+00
CQUAD4*                7               1              14              11*       
*                      7              12          0.0+00          0.0+00
CQUAD4*                8               1              13              14*       
*                     12               4          0.0+00          0.0+00
CQUAD4*                9               1               1              15*       
*                     18              17          0.0+00          0.0+00
CQUAD4*               10               1              15               5*       
*                     16              18          0.0+00          0.0+00
CQUAD4*               11               1              18              16*       
*                      9              10          0.0+00          0.0+00
CQUAD4*               12               1              17              18*       
*                     10               8          0.0+00          0.0+00
CQUAD4*               13               1               5              19*       
*                     22              16          0.0+00          0.0+00
CQUAD4*               14               1              19               2*       
*                     20              22          0.0+00          0.0+00
CQUAD4*               15               1              22              20*       
*                      6              21          0.0+00          0.0+00
CQUAD4*               16               1              16              22*       
*                     21               9          0.0+00          0.0+00
$--1---><------2-------><------3-------><------4-------><------5-------><--6--->
$$$$$$$$$$$$$$$$$$$$$$$$$$$$$$$$$$$$ force $$$$$$$$$$$$$$$$$$$$$$$$$$$$$$$$$$$$$
FORCE*                 1               2               0          1.0+00*       
*       -2.6041666667+01          0.0+00          0.0+00
$--1---><------2-------><------3-------><------4-------><------5-------><--6--->
$$$$$$$$$$$$$$$$$$$$$$$$$$$$$$$$$$$$ force $$$$$$$$$$$$$$$$$$$$$$$$$$$$$$$$$$$$$
FORCE*                 1              20               0          1.0+00*       
*              -9.375+01          0.0+00          0.0+00
$--1---><------2-------><------3-------><------4-------><------5-------><--6--->
$$$$$$$$$$$$$$$$$$$$$$$$$$$$$$$$$$$$ force $$$$$$$$$$$$$$$$$$$$$$$$$$$$$$$$$$$$$
FORCE*                 1               6               0          1.0+00*       
*             -1.5625+02          0.0+00          0.0+00
$--1---><------2-------><------3-------><------4-------><------5-------><--6--->
$$$$$$$$$$$$$$$$$$$$$$$$$$$$$$$$$$$$ force $$$$$$$$$$$$$$$$$$$$$$$$$$$$$$$$$$$$$
FORCE*                 1              24               0          1.0+00*       
*             -2.1875+02          0.0+00          0.0+00
$--1---><------2-------><------3-------><------4-------><------5-------><--6--->
$$$$$$$$$$$$$$$$$$$$$$$$$$$$$$$$$$$$ force $$$$$$$$$$$$$$$$$$$$$$$$$$$$$$$$$$$$$
FORCE*                 1               3               0          1.0+00*       
*       -1.3020833333+02          0.0+00          0.0+00
$--1---><------2-------><------3-------><------4-------><------5-------><--6--->
EIGRL*                 1                                               1*       
*                      0                          1.0+04            MASS
ENDDATA
