$ Generated by Mecway 29
$-------------EXECUTIVE CONTROL SECTION-------------
SOL 101
CEND
$---------------CASE CONTROL SECTION----------------
DISPLACEMENT = ALL
$
  ACCELERATION(PRINT,PLOT) = ALL
  DISPLACEMENT(PRINT, PLOT) = ALL
  GPFORCE(PRINT, PLOT) = ALL
  MPCFORCES(PRINT, PLOT) = ALL
  OLOAD(PRINT, PLOT)= ALL
  SPCFORCES(PRINT, PLOT) = ALL
  FORCE(PRINT, PLOT) = ALL
  STRESS(PRINT, PLOT, CORNER)= ALL
  STRAIN(PRINT, PLOT, CORNER)= ALL
$
SPC = 1
LOAD = 1
BEGIN BULK
$-----------------BULK DATA SECTION-----------------
$
  PARAM, POST,-1
$
GRID*                  1               0          0.0+00          0.0+00*       
*                 0.0+00               0
GRID*                  2               0          1.0+00          0.0+00*       
*                 0.0+00               0
GRID*                  3               0          1.0+00          1.0+00*       
*                 0.0+00               0
GRID*                  4               0          0.0+00          1.0+00*       
*                 0.0+00               0
GRID*                  5               0          2.0-01          0.0+00*       
*                 1.0+00               0
GRID*                  6               0          1.0+00          0.0+00*       
*                 1.0+00               0
GRID*                  7               0          1.0+00          1.0+00*       
*                 1.0+00               0
GRID*                  8               0          2.0-01          1.0+00*       
*                 1.0+00               0
GRID*                  9               0          2.0+00          0.0+00*       
*                 0.0+00               0
GRID*                 10               0          3.0+00          0.0+00*       
*                 0.0+00               0
GRID*                 11               0          3.0+00 6.1230317691-17*       
*                 1.0+00               0
GRID*                 12               0          2.2+00 6.1230317691-17*       
*                 1.0+00               0
GRID*                 13               0          2.0+00         -1.0+00*       
*        1.2246063538-16               0
GRID*                 14               0          3.0+00         -1.0+00*       
*        1.2246063538-16               0
GRID*                 15               0          3.0+00         -1.0+00*       
*                 1.0+00               0
GRID*                 16               0          2.2+00         -1.0+00*       
*                 1.0+00               0
GRID*                 17               0          2.6+00 6.1230317691-17*       
*                 1.0+00               0
GRID*                 18               0 2.1718010902+00 3.0615158846-17*       
*                 5.0-01               0
GRID*                 19               0          2.5+00 3.0615158846-17*       
*                 5.0-01               0
GRID*                 20               0          3.0+00         -5.0-01*       
*                 1.0+00               0
GRID*                 21               0          2.2+00         -5.0-01*       
*                 1.0+00               0
GRID*                 22               0          2.0+00         -5.0-01*       
*        6.1230317691-17               0
GRID*                 23               0          2.6+00         -1.0+00*       
*                 1.0+00               0
GRID*                 24               0 2.1718010902+00         -1.0+00*       
*                 5.0-01               0
GRID*                 25               0          2.5+00         -1.0+00*       
*                 5.0-01               0
GRID*                 26               0          2.5+00          0.0+00*       
*                 0.0+00               0
GRID*                 27               0          3.0+00 3.0615158846-17*       
*                 5.0-01               0
GRID*                 28               0          3.0+00         -5.0-01*       
*        6.1230317691-17               0
GRID*                 29               0          2.5+00         -1.0+00*       
*        1.2246063538-16               0
GRID*                 30               0          3.0+00         -1.0+00*       
*                 5.0-01               0
$--1---><------2-------><------3-------><------4-------><------5-------><--6--->
$$$$$$$$$$$$$$$$$$$$$$$$$$$$$$$$$$$ Material $$$$$$$$$$$$$$$$$$$$$$$$$$$$$$$$$$$
MAT1*                  1          5.0+10 1.7857142857+10          4.0-01*       
*                 0.0+00          0.0+00          0.0+00
$--1---><------2-------><------3-------><------4-------><------5-------><--6--->
SPC*                   1               1               1          0.0+00*       
*                                                                       
SPC*                   1               1               2          0.0+00*       
*                                                                       
SPC*                   1               1               3          0.0+00*       
*                                                                       
SPC*                   1               2               3          0.0+00*       
*                                                                       
SPC*                   1               2               2          0.0+00*       
*                                                                       
SPC*                   1               5               2          0.0+00*       
*                                                                       
SPC*                   1               6               2          0.0+00*       
*                                                                       
SPC*                   1              13               1          0.0+00*       
*                                                                       
SPC*                   1              13               2          0.0+00*       
*                                                                       
SPC*                   1              13               3          0.0+00*       
*                                                                       
SPC*                   1              14               3          0.0+00*       
*                                                                       
SPC*                   1              14               2          0.0+00*       
*                                                                       
SPC*                   1              15               2          0.0+00*       
*                                                                       
SPC*                   1              16               2          0.0+00*       
*                                                                       
SPC*                   1              23               2          0.0+00*       
*                                                                       
SPC*                   1              24               2          0.0+00*       
*                                                                       
SPC*                   1              25               2          0.0+00*       
*                                                                       
SPC*                   1              29               2          0.0+00*       
*                                                                       
SPC*                   1              30               2          0.0+00*       
*                                                                       
$--1---><------2-------><------3-------><------4-------><------5-------><--6--->
$$$$$$$$$$$$$$$$$$$$$$$$$$$$$$$$$$$ Default $$$$$$$$$$$$$$$$$$$$$$$$$$$$$$$$$$$$
PSOLID*                1               1               0               2*       
*                                   FULL
CPENTA*                1               1               3               4*       
*                      1               7               8               5
CPENTA*                3               1               1               2*       
*                      3               5               6               7
PSOLID*                2               1               0               3*       
*                                   FULL
CPENTA*                2               2              11              12*       
*                      9              15              16              13*       
*                     17              18              19              20*       
*                     21              22              23              24*       
*                     25                                                *       
*                                                                       
CPENTA*                4               2               9              10*       
*                     11              13              14              15*       
*                     26              27              19              22*       
*                     28              20              29              30*       
*                     25                                                *       
*                                                                       
$--1---><------2-------><------3-------><------4-------><------5-------><--6--->
$$$$$$$$$$$$$$$$$$$$$$$$$$$$$$$$$$$$ force $$$$$$$$$$$$$$$$$$$$$$$$$$$$$$$$$$$$$
FORCE*                 1               9               0          1.0+00*       
*                 0.0+00-8.1958511482+01          0.0+00
FORCE*                 1              10               0          1.0+00*       
*                 0.0+00-6.7282587679-07          0.0+00
FORCE*                 1              11               0          1.0+00*       
*                 0.0+00 4.0979255568+01          0.0+00
FORCE*                 1              26               0          1.0+00*       
*                 0.0+00 2.8536652905+03          0.0+00
FORCE*                 1              27               0          1.0+00*       
*                 0.0+00 2.8536652862+03          0.0+00
FORCE*                 1              19               0          1.0+00*       
*                 0.0+00 4.8087634763+03          0.0+00
FORCE*                 1              12               0          1.0+00*       
*                 0.0+00 4.0979255282+01          0.0+00
FORCE*                 1              17               0          1.0+00*       
*                 0.0+00 2.1190152091+03          0.0+00
FORCE*                 1              18               0          1.0+00*       
*                 0.0+00 1.9550981831+03          0.0+00
$--1---><------2-------><------3-------><------4-------><------5-------><--6--->
$$$$$$$$$$$$$$$$$$$$$$$$$$$$$$$$$$$$ force $$$$$$$$$$$$$$$$$$$$$$$$$$$$$$$$$$$$$
FORCE*                 1               3               0          1.0+00*       
*                 0.0+00    3.9951314+03          0.0+00
FORCE*                 1               4               0          1.0+00*       
*                 0.0+00    3.9951314+03          0.0+00
$--1---><------2-------><------3-------><------4-------><------5-------><--6--->
$$$$$$$$$$$$$$$$$$$$$$$$$$$$$$$$$$$$ force $$$$$$$$$$$$$$$$$$$$$$$$$$$$$$$$$$$$$
FORCE*                 1               8               0          1.0+00*       
*                 0.0+00   3.70976488+03          0.0+00
FORCE*                 1               7               0          1.0+00*       
*                 0.0+00   3.70976488+03          0.0+00
$--1---><------2-------><------3-------><------4-------><------5-------><--6--->
ENDDATA
