$ Generated by Mecway 29
$-------------EXECUTIVE CONTROL SECTION-------------
SOL 105
CEND
$---------------CASE CONTROL SECTION----------------
DISPLACEMENT = ALL
$
  ACCELERATION(PRINT,PLOT) = ALL
  DISPLACEMENT(PRINT, PLOT) = ALL
  GPFORCE(PRINT, PLOT) = ALL
  MPCFORCES(PRINT, PLOT) = ALL
  OLOAD(PRINT, PLOT)= ALL
  SPCFORCES(PRINT, PLOT) = ALL
  FORCE(PRINT, PLOT) = ALL
  STRESS(PRINT, PLOT, CORNER)= ALL
  STRAIN(PRINT, PLOT, CORNER)= ALL
$
SPC = 1
SUBCASE 1
LOAD = 1
SUBCASE 2
METHOD = 1
BEGIN BULK
$-----------------BULK DATA SECTION-----------------
$
  PARAM, POST,-1
$
GRID*                  1               0          0.0+00          0.0+00*       
*                 0.0+00               0
GRID*                  2               0          0.0+00         6.25-01*       
*                 0.0+00               0
GRID*                  3               0          5.0-02         6.25-01*       
*                 0.0+00               0
GRID*                  4               0          0.0+00          1.0+00*       
*                 0.0+00               0
GRID*                  5               0          5.0-02          0.0+00*       
*                 0.0+00               0
GRID*                  6               0          0.0+00         3.75-01*       
*                 0.0+00               0
GRID*                  7               0          5.0-02          2.5-01*       
*                 0.0+00               0
GRID*                  8               0          0.0+00          5.0-01*       
*                 0.0+00               0
GRID*                  9               0          0.0+00         1.25-01*       
*                 0.0+00               0
GRID*                 10               0          5.0-02         1.25-01*       
*                 0.0+00               0
GRID*                 11               0          5.0-02         3.75-01*       
*                 0.0+00               0
GRID*                 12               0          5.0-02          1.0+00*       
*                 0.0+00               0
GRID*                 13               0          0.0+00          7.5-01*       
*                 0.0+00               0
GRID*                 14               0          0.0+00         8.75-01*       
*                 0.0+00               0
GRID*                 15               0          5.0-02          5.0-01*       
*                 0.0+00               0
GRID*                 16               0          5.0-02         8.75-01*       
*                 0.0+00               0
GRID*                 17               0          0.0+00          2.5-01*       
*                 0.0+00               0
GRID*                 18               0          5.0-02          7.5-01*       
*                 0.0+00               0
GRID*                 19               0          2.5-02          0.0+00*       
*                 0.0+00               0
GRID*                 20               0          5.0-02         6.25-02*       
*                 0.0+00               0
GRID*                 21               0          2.5-02         1.25-01*       
*                 0.0+00               0
GRID*                 22               0          0.0+00         6.25-02*       
*                 0.0+00               0
GRID*                 23               0          2.5-02         6.25-02*       
*                 0.0+00               0
GRID*                 24               0          5.0-02        1.875-01*       
*                 0.0+00               0
GRID*                 25               0          2.5-02          2.5-01*       
*                 0.0+00               0
GRID*                 26               0          0.0+00        1.875-01*       
*                 0.0+00               0
GRID*                 27               0          2.5-02        1.875-01*       
*                 0.0+00               0
GRID*                 28               0          5.0-02        3.125-01*       
*                 0.0+00               0
GRID*                 29               0          2.5-02         3.75-01*       
*                 0.0+00               0
GRID*                 30               0          0.0+00        3.125-01*       
*                 0.0+00               0
GRID*                 31               0          2.5-02        3.125-01*       
*                 0.0+00               0
GRID*                 32               0          5.0-02        4.375-01*       
*                 0.0+00               0
GRID*                 33               0          2.5-02          5.0-01*       
*                 0.0+00               0
GRID*                 34               0          0.0+00        4.375-01*       
*                 0.0+00               0
GRID*                 35               0          2.5-02        4.375-01*       
*                 0.0+00               0
GRID*                 36               0          5.0-02        5.625-01*       
*                 0.0+00               0
GRID*                 37               0          2.5-02         6.25-01*       
*                 0.0+00               0
GRID*                 38               0          0.0+00        5.625-01*       
*                 0.0+00               0
GRID*                 39               0          2.5-02        5.625-01*       
*                 0.0+00               0
GRID*                 40               0          5.0-02        6.875-01*       
*                 0.0+00               0
GRID*                 41               0          2.5-02          7.5-01*       
*                 0.0+00               0
GRID*                 42               0          0.0+00        6.875-01*       
*                 0.0+00               0
GRID*                 43               0          2.5-02        6.875-01*       
*                 0.0+00               0
GRID*                 44               0          5.0-02        8.125-01*       
*                 0.0+00               0
GRID*                 45               0          2.5-02         8.75-01*       
*                 0.0+00               0
GRID*                 46               0          0.0+00        8.125-01*       
*                 0.0+00               0
GRID*                 47               0          2.5-02        8.125-01*       
*                 0.0+00               0
GRID*                 48               0          5.0-02        9.375-01*       
*                 0.0+00               0
GRID*                 49               0          2.5-02          1.0+00*       
*                 0.0+00               0
GRID*                 50               0          0.0+00        9.375-01*       
*                 0.0+00               0
GRID*                 51               0          2.5-02        9.375-01*       
*                 0.0+00               0
$--1---><------2-------><------3-------><------4-------><------5-------><--6--->
$$$$$$$$$$$$$$$$$$$$$$$$$$$$$$$$$$$ Material $$$$$$$$$$$$$$$$$$$$$$$$$$$$$$$$$$$
MAT8*                  1          5.0+10          1.0+11          0.0+00*       
*                 2.5+10          2.5+10          2.5+10          0.0+00*       
*                 0.0+00          0.0+00          0.0+00                *       
*                                                                       
MAT8*                  2          2.0+11          2.0+11          0.0+00*       
*                 1.0+11          1.0+11          1.0+11          0.0+00*       
*                 0.0+00          0.0+00          0.0+00                *       
*                                                                       
MAT8*                  3          5.0+10          1.0+11          0.0+00*       
*                 2.5+10          2.5+10          2.5+10          0.0+00*       
*                 0.0+00          0.0+00          0.0+00                *       
*                                                                       
$--1---><------2-------><------3-------><------4-------><------5-------><--6--->
SPC*                   1               1               1          0.0+00*       
*                                                                       
SPC*                   1               1               3          0.0+00*       
*                                                                       
SPC*                   1               1               2          0.0+00*       
*                                                                       
SPC*                   1               1               4          0.0+00*       
*                                                                       
SPC*                   1               1               6          0.0+00*       
*                                                                       
SPC*                   1               5               2          0.0+00*       
*                                                                       
SPC*                   1               5               3          0.0+00*       
*                                                                       
SPC*                   1               5               4          0.0+00*       
*                                                                       
SPC*                   1               5               6          0.0+00*       
*                                                                       
SPC*                   1              19               2          0.0+00*       
*                                                                       
SPC*                   1              19               3          0.0+00*       
*                                                                       
SPC*                   1              19               4          0.0+00*       
*                                                                       
SPC*                   1              19               6          0.0+00*       
*                                                                       
$--1---><------2-------><------3-------><------4-------><------5-------><--6--->
$$$$$$$$$$$$$$$$$$$$$$$$$$$$$$$$$$$ Default $$$$$$$$$$$$$$$$$$$$$$$$$$$$$$$$$$$$
PCOMP*                 1                                                *       
*                                 0.0+00                             SYM*       
*                      1          5.0-03          0.0+00                *       
*                      2          5.0-03          0.0+00                
CQUAD4*                1               1              44              18*       
*                     41              47         -9.0+01          0.0+00
CQUAD4*                2               1              44              16*       
*                     45              47         -9.0+01          0.0+00
CQUAD4*                3               1              47              45*       
*                     14              46         -9.0+01          0.0+00
CQUAD4*                4               1              41              47*       
*                     46              13         -9.0+01          0.0+00
CQUAD4*                5               1              16              48*       
*                     51              45         -9.0+01          0.0+00
CQUAD4*                6               1              48              12*       
*                     49              51         -9.0+01          0.0+00
CQUAD4*                7               1              51              49*       
*                      4              50         -9.0+01          0.0+00
CQUAD4*                8               1              45              51*       
*                     50              14         -9.0+01          0.0+00
CQUAD4*                9               1               1              19*       
*                     23              22          0.0+00          0.0+00
CQUAD4*               10               1              19               5*       
*                     20              23          0.0+00          0.0+00
CQUAD4*               11               1              23              20*       
*                     10              21          0.0+00          0.0+00
CQUAD4*               12               1              22              23*       
*                     21               9          0.0+00          0.0+00
CQUAD4*               13               1              10              24*       
*                     27              21         -9.0+01          0.0+00
CQUAD4*               14               1              24               7*       
*                     25              27         -9.0+01          0.0+00
CQUAD4*               15               1              27              25*       
*                     17              26         -9.0+01          0.0+00
CQUAD4*               16               1              21              27*       
*                     26               9         -9.0+01          0.0+00
CQUAD4*               17               1               7              28*       
*                     31              25         -9.0+01          0.0+00
CQUAD4*               18               1              11              28*       
*                     31              29         -9.0+01          0.0+00
CQUAD4*               19               1              29              31*       
*                     30               6         -9.0+01          0.0+00
CQUAD4*               20               1              25              31*       
*                     30              17         -9.0+01          0.0+00
CQUAD4*               21               1              32              11*       
*                     29              35         -9.0+01          0.0+00
CQUAD4*               22               1              15              32*       
*                     35              33         -9.0+01          0.0+00
CQUAD4*               23               1              33              35*       
*                     34               8         -9.0+01          0.0+00
CQUAD4*               24               1              35              29*       
*                      6              34         -9.0+01          0.0+00
CQUAD4*               25               1              36              15*       
*                     33              39         -9.0+01          0.0+00
CQUAD4*               26               1               3              36*       
*                     39              37         -9.0+01          0.0+00
CQUAD4*               27               1              39              37*       
*                      2              38         -9.0+01          0.0+00
CQUAD4*               28               1              33              39*       
*                     38               8         -9.0+01          0.0+00
CQUAD4*               29               1              40               3*       
*                     37              43         -9.0+01          0.0+00
CQUAD4*               30               1              18              40*       
*                     43              41         -9.0+01          0.0+00
CQUAD4*               31               1              43              41*       
*                     13              42         -9.0+01          0.0+00
CQUAD4*               32               1              37              43*       
*                     42               2         -9.0+01          0.0+00
$--1---><------2-------><------3-------><------4-------><------5-------><--6--->
$$$$$$$$$$$$$$$$$$$$$$$$$$$$$$$$$$$$ force $$$$$$$$$$$$$$$$$$$$$$$$$$$$$$$$$$$$$
FORCE*                 1              12               0          1.0+00*       
*                 0.0+00         -2.5-01          0.0+00
FORCE*                 1              49               0          1.0+00*       
*                 0.0+00         -5.0-01          0.0+00
FORCE*                 1               4               0          1.0+00*       
*                 0.0+00         -2.5-01          0.0+00
$--1---><------2-------><------3-------><------4-------><------5-------><--6--->
EIGRL*                 1                                               3*       
*                      0                          1.0+03            MASS
PARAM*            IORQ2T               2                                *       
*                                                                       
ENDDATA
