$ Generated by Mecway 29
$-------------EXECUTIVE CONTROL SECTION-------------
SOL 105
CEND
$---------------CASE CONTROL SECTION----------------
DISPLACEMENT = ALL
$
  ACCELERATION(PRINT,PLOT) = ALL
  DISPLACEMENT(PRINT, PLOT) = ALL
  GPFORCE(PRINT, PLOT) = ALL
  MPCFORCES(PRINT, PLOT) = ALL
  OLOAD(PRINT, PLOT)= ALL
  SPCFORCES(PRINT, PLOT) = ALL
  FORCE(PRINT, PLOT) = ALL
  STRESS(PRINT, PLOT, CORNER)= ALL
  STRAIN(PRINT, PLOT, CORNER)= ALL
$
SPC = 1
SUBCASE 1
LOAD = 1
SUBCASE 2
METHOD = 1
BEGIN BULK
$-----------------BULK DATA SECTION-----------------
$
  PARAM, POST,-1
$
GRID*                  1               0          0.0+00          0.0+00*       
*                 0.0+00               0
GRID*                  2               0          0.0+00         6.25-01*       
*                 0.0+00               0
GRID*                  3               0          5.0-02         6.25-01*       
*                 0.0+00               0
GRID*                  4               0          0.0+00          1.0+00*       
*                 0.0+00               0
GRID*                  5               0          5.0-02          0.0+00*       
*                 0.0+00               0
GRID*                  6               0          0.0+00         3.75-01*       
*                 0.0+00               0
GRID*                  7               0          5.0-02          2.5-01*       
*                 0.0+00               0
GRID*                  8               0          0.0+00          5.0-01*       
*                 0.0+00               0
GRID*                  9               0          0.0+00         1.25-01*       
*                 0.0+00               0
GRID*                 10               0          5.0-02         1.25-01*       
*                 0.0+00               0
GRID*                 11               0          5.0-02         3.75-01*       
*                 0.0+00               0
GRID*                 12               0          5.0-02          1.0+00*       
*                 0.0+00               0
GRID*                 13               0          0.0+00          7.5-01*       
*                 0.0+00               0
GRID*                 14               0          0.0+00         8.75-01*       
*                 0.0+00               0
GRID*                 15               0          5.0-02          5.0-01*       
*                 0.0+00               0
GRID*                 16               0          5.0-02         8.75-01*       
*                 0.0+00               0
GRID*                 17               0          0.0+00          2.5-01*       
*                 0.0+00               0
GRID*                 18               0          5.0-02          7.5-01*       
*                 0.0+00               0
GRID*                 19               0          2.5-02          0.0+00*       
*                 0.0+00               0
GRID*                 20               0          5.0-02         6.25-02*       
*                 0.0+00               0
GRID*                 21               0          2.5-02         1.25-01*       
*                 0.0+00               0
GRID*                 22               0          0.0+00         6.25-02*       
*                 0.0+00               0
GRID*                 23               0          2.5-02         6.25-02*       
*                 0.0+00               0
GRID*                 24               0          5.0-02        1.875-01*       
*                 0.0+00               0
GRID*                 25               0          2.5-02          2.5-01*       
*                 0.0+00               0
GRID*                 26               0          0.0+00        1.875-01*       
*                 0.0+00               0
GRID*                 27               0          2.5-02        1.875-01*       
*                 0.0+00               0
GRID*                 28               0          5.0-02        3.125-01*       
*                 0.0+00               0
GRID*                 29               0          2.5-02         3.75-01*       
*                 0.0+00               0
GRID*                 30               0          0.0+00        3.125-01*       
*                 0.0+00               0
GRID*                 31               0          2.5-02        3.125-01*       
*                 0.0+00               0
GRID*                 32               0          5.0-02        4.375-01*       
*                 0.0+00               0
GRID*                 33               0          2.5-02          5.0-01*       
*                 0.0+00               0
GRID*                 34               0          0.0+00        4.375-01*       
*                 0.0+00               0
GRID*                 35               0          2.5-02        4.375-01*       
*                 0.0+00               0
GRID*                 36               0          5.0-02        5.625-01*       
*                 0.0+00               0
GRID*                 37               0          2.5-02         6.25-01*       
*                 0.0+00               0
GRID*                 38               0          0.0+00        5.625-01*       
*                 0.0+00               0
GRID*                 39               0          2.5-02        5.625-01*       
*                 0.0+00               0
GRID*                 40               0          5.0-02        6.875-01*       
*                 0.0+00               0
GRID*                 41               0          2.5-02          7.5-01*       
*                 0.0+00               0
GRID*                 42               0          0.0+00        6.875-01*       
*                 0.0+00               0
GRID*                 43               0          2.5-02        6.875-01*       
*                 0.0+00               0
GRID*                 44               0          5.0-02        8.125-01*       
*                 0.0+00               0
GRID*                 45               0          2.5-02         8.75-01*       
*                 0.0+00               0
GRID*                 46               0          0.0+00        8.125-01*       
*                 0.0+00               0
GRID*                 47               0          2.5-02        8.125-01*       
*                 0.0+00               0
GRID*                 48               0          5.0-02        9.375-01*       
*                 0.0+00               0
GRID*                 49               0          2.5-02          1.0+00*       
*                 0.0+00               0
GRID*                 50               0          0.0+00        9.375-01*       
*                 0.0+00               0
GRID*                 51               0          2.5-02        9.375-01*       
*                 0.0+00               0
GRID*                 52               0          5.0-02       7.8125-01*       
*                 0.0+00               0
GRID*                 53               0         3.75-02        8.125-01*       
*                 0.0+00               0
GRID*                 54               0          2.5-02       7.8125-01*       
*                 0.0+00               0
GRID*                 55               0         3.75-02          7.5-01*       
*                 0.0+00               0
GRID*                 56               0         3.75-02       7.8125-01*       
*                 0.0+00               0
GRID*                 57               0          5.0-02       8.4375-01*       
*                 0.0+00               0
GRID*                 58               0         3.75-02         8.75-01*       
*                 0.0+00               0
GRID*                 59               0          2.5-02       8.4375-01*       
*                 0.0+00               0
GRID*                 60               0         3.75-02       8.4375-01*       
*                 0.0+00               0
GRID*                 61               0         1.25-02         8.75-01*       
*                 0.0+00               0
GRID*                 62               0          0.0+00       8.4375-01*       
*                 0.0+00               0
GRID*                 63               0         1.25-02        8.125-01*       
*                 0.0+00               0
GRID*                 64               0         1.25-02       8.4375-01*       
*                 0.0+00               0
GRID*                 65               0          0.0+00       7.8125-01*       
*                 0.0+00               0
GRID*                 66               0         1.25-02          7.5-01*       
*                 0.0+00               0
GRID*                 67               0         1.25-02       7.8125-01*       
*                 0.0+00               0
GRID*                 68               0          5.0-02       9.0625-01*       
*                 0.0+00               0
GRID*                 69               0         3.75-02        9.375-01*       
*                 0.0+00               0
GRID*                 70               0          2.5-02       9.0625-01*       
*                 0.0+00               0
GRID*                 71               0         3.75-02       9.0625-01*       
*                 0.0+00               0
GRID*                 72               0          5.0-02       9.6875-01*       
*                 0.0+00               0
GRID*                 73               0         3.75-02          1.0+00*       
*                 0.0+00               0
GRID*                 74               0          2.5-02       9.6875-01*       
*                 0.0+00               0
GRID*                 75               0         3.75-02       9.6875-01*       
*                 0.0+00               0
GRID*                 76               0         1.25-02          1.0+00*       
*                 0.0+00               0
GRID*                 77               0          0.0+00       9.6875-01*       
*                 0.0+00               0
GRID*                 78               0         1.25-02        9.375-01*       
*                 0.0+00               0
GRID*                 79               0         1.25-02       9.6875-01*       
*                 0.0+00               0
GRID*                 80               0          0.0+00       9.0625-01*       
*                 0.0+00               0
GRID*                 81               0         1.25-02       9.0625-01*       
*                 0.0+00               0
GRID*                 82               0         1.25-02          0.0+00*       
*                 0.0+00               0
GRID*                 83               0          2.5-02        3.125-02*       
*                 0.0+00               0
GRID*                 84               0         1.25-02         6.25-02*       
*                 0.0+00               0
GRID*                 85               0          0.0+00        3.125-02*       
*                 0.0+00               0
GRID*                 86               0         1.25-02        3.125-02*       
*                 0.0+00               0
GRID*                 87               0         3.75-02          0.0+00*       
*                 0.0+00               0
GRID*                 88               0          5.0-02        3.125-02*       
*                 0.0+00               0
GRID*                 89               0         3.75-02         6.25-02*       
*                 0.0+00               0
GRID*                 90               0         3.75-02        3.125-02*       
*                 0.0+00               0
GRID*                 91               0          5.0-02        9.375-02*       
*                 0.0+00               0
GRID*                 92               0         3.75-02         1.25-01*       
*                 0.0+00               0
GRID*                 93               0          2.5-02        9.375-02*       
*                 0.0+00               0
GRID*                 94               0         3.75-02        9.375-02*       
*                 0.0+00               0
GRID*                 95               0         1.25-02         1.25-01*       
*                 0.0+00               0
GRID*                 96               0          0.0+00        9.375-02*       
*                 0.0+00               0
GRID*                 97               0         1.25-02        9.375-02*       
*                 0.0+00               0
GRID*                 98               0          5.0-02       1.5625-01*       
*                 0.0+00               0
GRID*                 99               0         3.75-02        1.875-01*       
*                 0.0+00               0
GRID*                100               0          2.5-02       1.5625-01*       
*                 0.0+00               0
GRID*                101               0         3.75-02       1.5625-01*       
*                 0.0+00               0
GRID*                102               0          5.0-02       2.1875-01*       
*                 0.0+00               0
GRID*                103               0         3.75-02          2.5-01*       
*                 0.0+00               0
GRID*                104               0          2.5-02       2.1875-01*       
*                 0.0+00               0
GRID*                105               0         3.75-02       2.1875-01*       
*                 0.0+00               0
GRID*                106               0         1.25-02          2.5-01*       
*                 0.0+00               0
GRID*                107               0          0.0+00       2.1875-01*       
*                 0.0+00               0
GRID*                108               0         1.25-02        1.875-01*       
*                 0.0+00               0
GRID*                109               0         1.25-02       2.1875-01*       
*                 0.0+00               0
GRID*                110               0          0.0+00       1.5625-01*       
*                 0.0+00               0
GRID*                111               0         1.25-02       1.5625-01*       
*                 0.0+00               0
GRID*                112               0          5.0-02       2.8125-01*       
*                 0.0+00               0
GRID*                113               0         3.75-02        3.125-01*       
*                 0.0+00               0
GRID*                114               0          2.5-02       2.8125-01*       
*                 0.0+00               0
GRID*                115               0         3.75-02       2.8125-01*       
*                 0.0+00               0
GRID*                116               0          5.0-02       3.4375-01*       
*                 0.0+00               0
GRID*                117               0         3.75-02         3.75-01*       
*                 0.0+00               0
GRID*                118               0          2.5-02       3.4375-01*       
*                 0.0+00               0
GRID*                119               0         3.75-02       3.4375-01*       
*                 0.0+00               0
GRID*                120               0         1.25-02         3.75-01*       
*                 0.0+00               0
GRID*                121               0          0.0+00       3.4375-01*       
*                 0.0+00               0
GRID*                122               0         1.25-02        3.125-01*       
*                 0.0+00               0
GRID*                123               0         1.25-02       3.4375-01*       
*                 0.0+00               0
GRID*                124               0          0.0+00       2.8125-01*       
*                 0.0+00               0
GRID*                125               0         1.25-02       2.8125-01*       
*                 0.0+00               0
GRID*                126               0          5.0-02       4.0625-01*       
*                 0.0+00               0
GRID*                127               0         3.75-02        4.375-01*       
*                 0.0+00               0
GRID*                128               0          2.5-02       4.0625-01*       
*                 0.0+00               0
GRID*                129               0         3.75-02       4.0625-01*       
*                 0.0+00               0
GRID*                130               0          5.0-02       4.6875-01*       
*                 0.0+00               0
GRID*                131               0         3.75-02          5.0-01*       
*                 0.0+00               0
GRID*                132               0          2.5-02       4.6875-01*       
*                 0.0+00               0
GRID*                133               0         3.75-02       4.6875-01*       
*                 0.0+00               0
GRID*                134               0         1.25-02          5.0-01*       
*                 0.0+00               0
GRID*                135               0          0.0+00       4.6875-01*       
*                 0.0+00               0
GRID*                136               0         1.25-02        4.375-01*       
*                 0.0+00               0
GRID*                137               0         1.25-02       4.6875-01*       
*                 0.0+00               0
GRID*                138               0          0.0+00       4.0625-01*       
*                 0.0+00               0
GRID*                139               0         1.25-02       4.0625-01*       
*                 0.0+00               0
GRID*                140               0          5.0-02       5.3125-01*       
*                 0.0+00               0
GRID*                141               0         3.75-02        5.625-01*       
*                 0.0+00               0
GRID*                142               0          2.5-02       5.3125-01*       
*                 0.0+00               0
GRID*                143               0         3.75-02       5.3125-01*       
*                 0.0+00               0
GRID*                144               0          5.0-02       5.9375-01*       
*                 0.0+00               0
GRID*                145               0         3.75-02         6.25-01*       
*                 0.0+00               0
GRID*                146               0          2.5-02       5.9375-01*       
*                 0.0+00               0
GRID*                147               0         3.75-02       5.9375-01*       
*                 0.0+00               0
GRID*                148               0         1.25-02         6.25-01*       
*                 0.0+00               0
GRID*                149               0          0.0+00       5.9375-01*       
*                 0.0+00               0
GRID*                150               0         1.25-02        5.625-01*       
*                 0.0+00               0
GRID*                151               0         1.25-02       5.9375-01*       
*                 0.0+00               0
GRID*                152               0          0.0+00       5.3125-01*       
*                 0.0+00               0
GRID*                153               0         1.25-02       5.3125-01*       
*                 0.0+00               0
GRID*                154               0          5.0-02       6.5625-01*       
*                 0.0+00               0
GRID*                155               0         3.75-02        6.875-01*       
*                 0.0+00               0
GRID*                156               0          2.5-02       6.5625-01*       
*                 0.0+00               0
GRID*                157               0         3.75-02       6.5625-01*       
*                 0.0+00               0
GRID*                158               0          5.0-02       7.1875-01*       
*                 0.0+00               0
GRID*                159               0          2.5-02       7.1875-01*       
*                 0.0+00               0
GRID*                160               0         3.75-02       7.1875-01*       
*                 0.0+00               0
GRID*                161               0          0.0+00       7.1875-01*       
*                 0.0+00               0
GRID*                162               0         1.25-02        6.875-01*       
*                 0.0+00               0
GRID*                163               0         1.25-02       7.1875-01*       
*                 0.0+00               0
GRID*                164               0          0.0+00       6.5625-01*       
*                 0.0+00               0
GRID*                165               0         1.25-02       6.5625-01*       
*                 0.0+00               0
$--1---><------2-------><------3-------><------4-------><------5-------><--6--->
$$$$$$$$$$$$$$$$$$$$$$$$$$$$$$$$$$$ Material $$$$$$$$$$$$$$$$$$$$$$$$$$$$$$$$$$$
MAT8*                  1          5.0+10          5.0+10          0.0+00*       
*                 2.5+10          2.5+10          2.5+10          0.0+00*       
*                 0.0+00          0.0+00          0.0+00                *       
*                                                                       
MAT8*                  2          2.0+11          2.0+11          0.0+00*       
*                 1.0+11          1.0+11          1.0+11          0.0+00*       
*                 0.0+00          0.0+00          0.0+00                *       
*                                                                       
MAT8*                  3          5.0+10          5.0+10          0.0+00*       
*                 2.5+10          2.5+10          2.5+10          0.0+00*       
*                 0.0+00          0.0+00          0.0+00                *       
*                                                                       
$--1---><------2-------><------3-------><------4-------><------5-------><--6--->
SPC*                   1               1               1          0.0+00*       
*                                                                       
SPC*                   1               1               3          0.0+00*       
*                                                                       
SPC*                   1               1               2          0.0+00*       
*                                                                       
SPC*                   1               1               4          0.0+00*       
*                                                                       
SPC*                   1               1               6          0.0+00*       
*                                                                       
SPC*                   1               5               2          0.0+00*       
*                                                                       
SPC*                   1               5               3          0.0+00*       
*                                                                       
SPC*                   1               5               4          0.0+00*       
*                                                                       
SPC*                   1               5               6          0.0+00*       
*                                                                       
SPC*                   1              19               2          0.0+00*       
*                                                                       
SPC*                   1              19               3          0.0+00*       
*                                                                       
SPC*                   1              19               4          0.0+00*       
*                                                                       
SPC*                   1              19               6          0.0+00*       
*                                                                       
SPC*                   1              82               2          0.0+00*       
*                                                                       
SPC*                   1              82               3          0.0+00*       
*                                                                       
SPC*                   1              82               4          0.0+00*       
*                                                                       
SPC*                   1              82               6          0.0+00*       
*                                                                       
SPC*                   1              87               2          0.0+00*       
*                                                                       
SPC*                   1              87               3          0.0+00*       
*                                                                       
SPC*                   1              87               4          0.0+00*       
*                                                                       
SPC*                   1              87               6          0.0+00*       
*                                                                       
$--1---><------2-------><------3-------><------4-------><------5-------><--6--->
$$$$$$$$$$$$$$$$$$$$$$$$$$$$$$$$$$$ Default $$$$$$$$$$$$$$$$$$$$$$$$$$$$$$$$$$$$
PCOMP*                 1                                                *       
*                                 0.0+00                             SYM*       
*                      1          5.0-03          0.0+00                *       
*                      2          5.0-03          0.0+00                
CQUAD4*                1               1              15             140*       
*                    143             131         -9.0+01          0.0+00
CQUAD4*                2               1             140              36*       
*                    141             143         -9.0+01          0.0+00
CQUAD4*                3               1             143             141*       
*                     39             142         -9.0+01          0.0+00
CQUAD4*                4               1             131             143*       
*                    142              33         -9.0+01          0.0+00
CQUAD4*                5               1              36             144*       
*                    147             141         -9.0+01          0.0+00
CQUAD4*                6               1             144               3*       
*                    145             147         -9.0+01          0.0+00
CQUAD4*                7               1             147             145*       
*                     37             146         -9.0+01          0.0+00
CQUAD4*                8               1             141             147*       
*                    146              39         -9.0+01          0.0+00
CQUAD4*                9               1              39             146*       
*                    151             150         -9.0+01          0.0+00
CQUAD4*               10               1             146              37*       
*                    148             151         -9.0+01          0.0+00
CQUAD4*               11               1             151             148*       
*                      2             149         -9.0+01          0.0+00
CQUAD4*               12               1             150             151*       
*                    149              38         -9.0+01          0.0+00
CQUAD4*               13               1              33             142*       
*                    153             134         -9.0+01          0.0+00
CQUAD4*               14               1             142              39*       
*                    150             153         -9.0+01          0.0+00
CQUAD4*               15               1             153             150*       
*                     38             152         -9.0+01          0.0+00
CQUAD4*               16               1             134             153*       
*                    152               8         -9.0+01          0.0+00
CQUAD4*               17               1               3             154*       
*                    157             145         -9.0+01          0.0+00
CQUAD4*               18               1             154              40*       
*                    155             157         -9.0+01          0.0+00
CQUAD4*               19               1             157             155*       
*                     43             156         -9.0+01          0.0+00
CQUAD4*               20               1             145             157*       
*                    156              37         -9.0+01          0.0+00
CQUAD4*               21               1              40             158*       
*                    160             155         -9.0+01          0.0+00
CQUAD4*               22               1             158              18*       
*                     55             160         -9.0+01          0.0+00
CQUAD4*               23               1             160              55*       
*                     41             159         -9.0+01          0.0+00
CQUAD4*               24               1             155             160*       
*                    159              43         -9.0+01          0.0+00
CQUAD4*               25               1              43             159*       
*                    163             162         -9.0+01          0.0+00
CQUAD4*               26               1             159              41*       
*                     66             163         -9.0+01          0.0+00
CQUAD4*               27               1             163              66*       
*                     13             161         -9.0+01          0.0+00
CQUAD4*               28               1             162             163*       
*                    161              42         -9.0+01          0.0+00
CQUAD4*               29               1              37             156*       
*                    165             148         -9.0+01          0.0+00
CQUAD4*               30               1             156              43*       
*                    162             165         -9.0+01          0.0+00
CQUAD4*               31               1             165             162*       
*                     42             164         -9.0+01          0.0+00
CQUAD4*               32               1             148             165*       
*                    164               2         -9.0+01          0.0+00
CQUAD4*               33               1              18              52*       
*                     56              55         -9.0+01          0.0+00
CQUAD4*               34               1              52              44*       
*                     53              56         -9.0+01          0.0+00
CQUAD4*               35               1              56              53*       
*                     47              54         -9.0+01          0.0+00
CQUAD4*               36               1              55              56*       
*                     54              41         -9.0+01          0.0+00
CQUAD4*               37               1              44              57*       
*                     60              53         -9.0+01          0.0+00
CQUAD4*               38               1              57              16*       
*                     58              60         -9.0+01          0.0+00
CQUAD4*               39               1              60              58*       
*                     45              59         -9.0+01          0.0+00
CQUAD4*               40               1              53              60*       
*                     59              47         -9.0+01          0.0+00
CQUAD4*               41               1              47              59*       
*                     64              63         -9.0+01          0.0+00
CQUAD4*               42               1              59              45*       
*                     61              64         -9.0+01          0.0+00
CQUAD4*               43               1              64              61*       
*                     14              62         -9.0+01          0.0+00
CQUAD4*               44               1              63              64*       
*                     62              46         -9.0+01          0.0+00
CQUAD4*               45               1              41              54*       
*                     67              66         -9.0+01          0.0+00
CQUAD4*               46               1              54              47*       
*                     63              67         -9.0+01          0.0+00
CQUAD4*               47               1              67              63*       
*                     46              65         -9.0+01          0.0+00
CQUAD4*               48               1              66              67*       
*                     65              13         -9.0+01          0.0+00
CQUAD4*               49               1              16              68*       
*                     71              58         -9.0+01          0.0+00
CQUAD4*               50               1              68              48*       
*                     69              71         -9.0+01          0.0+00
CQUAD4*               51               1              71              69*       
*                     51              70         -9.0+01          0.0+00
CQUAD4*               52               1              58              71*       
*                     70              45         -9.0+01          0.0+00
CQUAD4*               53               1              48              72*       
*                     75              69         -9.0+01          0.0+00
CQUAD4*               54               1              72              12*       
*                     73              75         -9.0+01          0.0+00
CQUAD4*               55               1              75              73*       
*                     49              74         -9.0+01          0.0+00
CQUAD4*               56               1              69              75*       
*                     74              51         -9.0+01          0.0+00
CQUAD4*               57               1              51              74*       
*                     79              78         -9.0+01          0.0+00
CQUAD4*               58               1              74              49*       
*                     76              79         -9.0+01          0.0+00
CQUAD4*               59               1              79              76*       
*                      4              77         -9.0+01          0.0+00
CQUAD4*               60               1              78              79*       
*                     77              50         -9.0+01          0.0+00
CQUAD4*               61               1              45              70*       
*                     81              61         -9.0+01          0.0+00
CQUAD4*               62               1              70              51*       
*                     78              81         -9.0+01          0.0+00
CQUAD4*               63               1              81              78*       
*                     50              80         -9.0+01          0.0+00
CQUAD4*               64               1              61              81*       
*                     80              14         -9.0+01          0.0+00
CQUAD4*               65               1               1              82*       
*                     86              85          0.0+00          0.0+00
CQUAD4*               66               1              82              19*       
*                     83              86          0.0+00          0.0+00
CQUAD4*               67               1              86              83*       
*                     23              84          0.0+00          0.0+00
CQUAD4*               68               1              85              86*       
*                     84              22          0.0+00          0.0+00
CQUAD4*               69               1              19              87*       
*                     90              83          0.0+00          0.0+00
CQUAD4*               70               1              87               5*       
*                     88              90          0.0+00          0.0+00
CQUAD4*               71               1              90              88*       
*                     20              89          0.0+00          0.0+00
CQUAD4*               72               1              83              90*       
*                     89              23          0.0+00          0.0+00
CQUAD4*               73               1              23              89*       
*                     94              93          0.0+00          0.0+00
CQUAD4*               74               1              89              20*       
*                     91              94          0.0+00          0.0+00
CQUAD4*               75               1              94              91*       
*                     10              92          0.0+00          0.0+00
CQUAD4*               76               1              93              94*       
*                     92              21          0.0+00          0.0+00
CQUAD4*               77               1              22              84*       
*                     97              96          0.0+00          0.0+00
CQUAD4*               78               1              84              23*       
*                     93              97          0.0+00          0.0+00
CQUAD4*               79               1              97              93*       
*                     21              95          0.0+00          0.0+00
CQUAD4*               80               1              96              97*       
*                     95               9          0.0+00          0.0+00
CQUAD4*               81               1              10              98*       
*                    101              92         -9.0+01          0.0+00
CQUAD4*               82               1              98              24*       
*                     99             101         -9.0+01          0.0+00
CQUAD4*               83               1             101              99*       
*                     27             100         -9.0+01          0.0+00
CQUAD4*               84               1              92             101*       
*                    100              21         -9.0+01          0.0+00
CQUAD4*               85               1              24             102*       
*                    105              99         -9.0+01          0.0+00
CQUAD4*               86               1             102               7*       
*                    103             105         -9.0+01          0.0+00
CQUAD4*               87               1             105             103*       
*                     25             104         -9.0+01          0.0+00
CQUAD4*               88               1              99             105*       
*                    104              27         -9.0+01          0.0+00
CQUAD4*               89               1              27             104*       
*                    109             108         -9.0+01          0.0+00
CQUAD4*               90               1             104              25*       
*                    106             109         -9.0+01          0.0+00
CQUAD4*               91               1             109             106*       
*                     17             107         -9.0+01          0.0+00
CQUAD4*               92               1             108             109*       
*                    107              26         -9.0+01          0.0+00
CQUAD4*               93               1              21             100*       
*                    111              95         -9.0+01          0.0+00
CQUAD4*               94               1             100              27*       
*                    108             111         -9.0+01          0.0+00
CQUAD4*               95               1             111             108*       
*                     26             110         -9.0+01          0.0+00
CQUAD4*               96               1              95             111*       
*                    110               9         -9.0+01          0.0+00
CQUAD4*               97               1               7             112*       
*                    115             103         -9.0+01          0.0+00
CQUAD4*               98               1             112              28*       
*                    113             115         -9.0+01          0.0+00
CQUAD4*               99               1             115             113*       
*                     31             114         -9.0+01          0.0+00
CQUAD4*              100               1             103             115*       
*                    114              25         -9.0+01          0.0+00
CQUAD4*              101               1              28             116*       
*                    119             113         -9.0+01          0.0+00
CQUAD4*              102               1             116              11*       
*                    117             119         -9.0+01          0.0+00
CQUAD4*              103               1             119             117*       
*                     29             118         -9.0+01          0.0+00
CQUAD4*              104               1             113             119*       
*                    118              31         -9.0+01          0.0+00
CQUAD4*              105               1              31             118*       
*                    123             122         -9.0+01          0.0+00
CQUAD4*              106               1             118              29*       
*                    120             123         -9.0+01          0.0+00
CQUAD4*              107               1             123             120*       
*                      6             121         -9.0+01          0.0+00
CQUAD4*              108               1             122             123*       
*                    121              30         -9.0+01          0.0+00
CQUAD4*              109               1              25             114*       
*                    125             106         -9.0+01          0.0+00
CQUAD4*              110               1             114              31*       
*                    122             125         -9.0+01          0.0+00
CQUAD4*              111               1             125             122*       
*                     30             124         -9.0+01          0.0+00
CQUAD4*              112               1             106             125*       
*                    124              17         -9.0+01          0.0+00
CQUAD4*              113               1              11             126*       
*                    129             117         -9.0+01          0.0+00
CQUAD4*              114               1             126              32*       
*                    127             129         -9.0+01          0.0+00
CQUAD4*              115               1             129             127*       
*                     35             128         -9.0+01          0.0+00
CQUAD4*              116               1             117             129*       
*                    128              29         -9.0+01          0.0+00
CQUAD4*              117               1              32             130*       
*                    133             127         -9.0+01          0.0+00
CQUAD4*              118               1             130              15*       
*                    131             133         -9.0+01          0.0+00
CQUAD4*              119               1             133             131*       
*                     33             132         -9.0+01          0.0+00
CQUAD4*              120               1             127             133*       
*                    132              35         -9.0+01          0.0+00
CQUAD4*              121               1              35             132*       
*                    137             136         -9.0+01          0.0+00
CQUAD4*              122               1             132              33*       
*                    134             137         -9.0+01          0.0+00
CQUAD4*              123               1             137             134*       
*                      8             135         -9.0+01          0.0+00
CQUAD4*              124               1             136             137*       
*                    135              34         -9.0+01          0.0+00
CQUAD4*              125               1              29             128*       
*                    139             120         -9.0+01          0.0+00
CQUAD4*              126               1             128              35*       
*                    136             139         -9.0+01          0.0+00
CQUAD4*              127               1             139             136*       
*                     34             138         -9.0+01          0.0+00
CQUAD4*              128               1             120             139*       
*                    138               6         -9.0+01          0.0+00
$--1---><------2-------><------3-------><------4-------><------5-------><--6--->
$$$$$$$$$$$$$$$$$$$$$$$$$$$$$$$$$$$$ force $$$$$$$$$$$$$$$$$$$$$$$$$$$$$$$$$$$$$
FORCE*                 1              12               0          1.0+00*       
*                 0.0+00        -1.25-01          0.0+00
FORCE*                 1              73               0          1.0+00*       
*                 0.0+00         -2.5-01          0.0+00
FORCE*                 1              49               0          1.0+00*       
*                 0.0+00         -2.5-01          0.0+00
FORCE*                 1              76               0          1.0+00*       
*                 0.0+00         -2.5-01          0.0+00
FORCE*                 1               4               0          1.0+00*       
*                 0.0+00        -1.25-01          0.0+00
$--1---><------2-------><------3-------><------4-------><------5-------><--6--->
EIGRL*                 1                                               3*       
*                      0                          1.0+03            MASS
PARAM*            IORQ2T               2                                *       
*                                                                       
ENDDATA
