$ Generated by Mecway 29
$-------------EXECUTIVE CONTROL SECTION-------------
SOL 101
CEND
$---------------CASE CONTROL SECTION----------------
DISPLACEMENT = ALL
$
  ACCELERATION(PRINT,PLOT) = ALL
  DISPLACEMENT(PRINT, PLOT) = ALL
  GPFORCE(PRINT, PLOT) = ALL
  MPCFORCES(PRINT, PLOT) = ALL
  OLOAD(PRINT, PLOT)= ALL
  SPCFORCES(PRINT, PLOT) = ALL
  FORCE(PRINT, PLOT) = ALL
  STRESS(PRINT, PLOT, CORNER)= ALL
  STRAIN(PRINT, PLOT, CORNER)= ALL
$
SPC = 1
LOAD = 1
BEGIN BULK
$-----------------BULK DATA SECTION-----------------
$
  PARAM, POST,-1
$
GRID*                  1               0          2.0+00          0.0+00*       
*                 0.0+00               0
GRID*                  2               0          3.0+00          0.0+00*       
*                 0.0+00               0
GRID*                  3               0          3.0+00          1.0+00*       
*                 0.0+00               0
GRID*                  4               0          2.0+00          1.0+00*       
*                 0.0+00               0
GRID*                  5               0          2.5+00          0.0+00*       
*                 0.0+00               0
GRID*                  6               0          3.0+00 4.3631437421-01*       
*                 0.0+00               0
GRID*                  7               0  2.436314404+00          1.0+00*       
*                 0.0+00               0
GRID*                  8               0          2.0+00 4.4541230798-01*       
*                 0.0+00               0
GRID*                  9               0 2.3771778047+00 5.7278347015-01*       
*                 0.0+00               0
GRID*                 10               0 2.1727939248+00  4.838258028-01*       
*                 0.0+00               0
GRID*                 11               0 2.4067461044+00 7.8639173508-01*       
*                 0.0+00               0
GRID*                 12               0  2.218157202+00          1.0+00*       
*                 0.0+00               0
GRID*                 13               0          2.0+00 7.2270615399-01*       
*                 0.0+00               0
GRID*                 14               0 2.2033730522+00 7.5454894453-01*       
*                 0.0+00               0
GRID*                 15               0         2.25+00          0.0+00*       
*                 0.0+00               0
GRID*                 16               0 2.4385889024+00 2.8639173508-01*       
*                 0.0+00               0
GRID*                 17               0          2.0+00 2.2270615399-01*       
*                 0.0+00               0
GRID*                 18               0 2.1782274097+00 2.3559488356-01*       
*                 0.0+00               0
GRID*                 19               0         2.75+00  2.181571871-01*       
*                 0.0+00               0
GRID*                 20               0 2.6664758921+00 5.8036506176-01*       
*                 0.0+00               0
GRID*                 21               0          3.0+00  7.181571871-01*       
*                 0.0+00               0
GRID*                 22               0  2.718157202+00          1.0+00*       
*                 0.0+00               0
GRID*                 23               0 2.7033730522+00 7.5227446109-01*       
*                 0.0+00               0
GRID*                 24               0         2.75+00          0.0+00*       
*                 0.0+00               0
GRID*                 25               0          3.0+00  2.181571871-01*       
*                 0.0+00               0
GRID*                 26               0          0.0+00          0.0+00*       
*                 0.0+00               0
GRID*                 27               0          1.0+00          0.0+00*       
*                 0.0+00               0
GRID*                 28               0          1.0+00          1.0+00*       
*                 0.0+00               0
GRID*                 29               0          0.0+00          1.0+00*       
*                 0.0+00               0
GRID*                 30               0          5.0-01          0.0+00*       
*                 0.0+00               0
GRID*                 31               0          1.0+00 4.3631437421-01*       
*                 0.0+00               0
GRID*                 32               0 4.3631440401-01          1.0+00*       
*                 0.0+00               0
GRID*                 33               0          0.0+00 4.4541230798-01*       
*                 0.0+00               0
GRID*                 34               0 3.7717780471-01 5.7278347015-01*       
*                 0.0+00               0
GRID*                 35               0 1.7279392481-01  4.838258028-01*       
*                 0.0+00               0
GRID*                 36               0 4.0674610436-01 7.8639173508-01*       
*                 0.0+00               0
GRID*                 37               0 2.1815720201-01          1.0+00*       
*                 0.0+00               0
GRID*                 38               0          0.0+00 7.2270615399-01*       
*                 0.0+00               0
GRID*                 39               0 2.0337305218-01 7.5454894453-01*       
*                 0.0+00               0
GRID*                 40               0          2.5-01          0.0+00*       
*                 0.0+00               0
GRID*                 41               0 4.3858890235-01 2.8639173508-01*       
*                 0.0+00               0
GRID*                 42               0          0.0+00 2.2270615399-01*       
*                 0.0+00               0
GRID*                 43               0 1.7822740972-01 2.3559488356-01*       
*                 0.0+00               0
GRID*                 44               0          7.5-01  2.181571871-01*       
*                 0.0+00               0
GRID*                 45               0 6.6647589207-01 5.8036506176-01*       
*                 0.0+00               0
GRID*                 46               0          1.0+00  7.181571871-01*       
*                 0.0+00               0
GRID*                 47               0 7.1815720201-01          1.0+00*       
*                 0.0+00               0
GRID*                 48               0 7.0337305218-01 7.5227446109-01*       
*                 0.0+00               0
GRID*                 49               0          7.5-01          0.0+00*       
*                 0.0+00               0
GRID*                 50               0          1.0+00  2.181571871-01*       
*                 0.0+00               0
$--1---><------2-------><------3-------><------4-------><------5-------><--6--->
$$$$$$$$$$$$$$$$$$$$$$$$$$$$$$$$$$$$ ortho $$$$$$$$$$$$$$$$$$$$$$$$$$$$$$$$$$$$$
MAT8*                  1          1.2+11          2.0+11          2.7-01*       
*                 1.0+11          1.9+11          1.5+11          0.0+00*       
*                 0.0+00          0.0+00          0.0+00                *       
*                                                                       
$--1---><------2-------><------3-------><------4-------><------5-------><--6--->
SPC*                   1               1               1          0.0+00*       
*                                                                       
SPC*                   1               1               3          0.0+00*       
*                                                                       
SPC*                   1               1               2          0.0+00*       
*                                                                       
SPC*                   1               1               4          0.0+00*       
*                                                                       
SPC*                   1               1               6          0.0+00*       
*                                                                       
SPC*                   1               2               2          0.0+00*       
*                                                                       
SPC*                   1               2               3          0.0+00*       
*                                                                       
SPC*                   1               2               4          0.0+00*       
*                                                                       
SPC*                   1               2               6          0.0+00*       
*                                                                       
SPC*                   1               5               2          0.0+00*       
*                                                                       
SPC*                   1               5               3          0.0+00*       
*                                                                       
SPC*                   1               5               4          0.0+00*       
*                                                                       
SPC*                   1               5               6          0.0+00*       
*                                                                       
SPC*                   1              15               2          0.0+00*       
*                                                                       
SPC*                   1              15               3          0.0+00*       
*                                                                       
SPC*                   1              15               4          0.0+00*       
*                                                                       
SPC*                   1              15               6          0.0+00*       
*                                                                       
SPC*                   1              24               2          0.0+00*       
*                                                                       
SPC*                   1              24               3          0.0+00*       
*                                                                       
SPC*                   1              24               4          0.0+00*       
*                                                                       
SPC*                   1              24               6          0.0+00*       
*                                                                       
SPC*                   1              26               1          0.0+00*       
*                                                                       
SPC*                   1              26               3          0.0+00*       
*                                                                       
SPC*                   1              26               2          0.0+00*       
*                                                                       
SPC*                   1              26               4          0.0+00*       
*                                                                       
SPC*                   1              26               6          0.0+00*       
*                                                                       
SPC*                   1              27               2          0.0+00*       
*                                                                       
SPC*                   1              27               3          0.0+00*       
*                                                                       
SPC*                   1              27               4          0.0+00*       
*                                                                       
SPC*                   1              27               6          0.0+00*       
*                                                                       
SPC*                   1              30               2          0.0+00*       
*                                                                       
SPC*                   1              30               3          0.0+00*       
*                                                                       
SPC*                   1              30               4          0.0+00*       
*                                                                       
SPC*                   1              30               6          0.0+00*       
*                                                                       
SPC*                   1              40               2          0.0+00*       
*                                                                       
SPC*                   1              40               3          0.0+00*       
*                                                                       
SPC*                   1              40               4          0.0+00*       
*                                                                       
SPC*                   1              40               6          0.0+00*       
*                                                                       
SPC*                   1              49               2          0.0+00*       
*                                                                       
SPC*                   1              49               3          0.0+00*       
*                                                                       
SPC*                   1              49               4          0.0+00*       
*                                                                       
SPC*                   1              49               6          0.0+00*       
*                                                                       
$--1---><------2-------><------3-------><------4-------><------5-------><--6--->
$$$$$$$$$$$$$$$$$$$$$$$$$$$$$$$$$$$ Default $$$$$$$$$$$$$$$$$$$$$$$$$$$$$$$$$$$$
PSHELL*                1               1          3.0-01               1*       
*                                      1                          0.0+00
CQUAD4*                1               1              13              14*       
*                     12               4               2          0.0+00
CORD2R*                2               0          0.0+00          0.0+00*       
*                 0.0+00          0.0+00          1.0+00          0.0+00*       
*                 1.0+00          0.0+00          0.0+00                *       
*                                                                       
CQUAD4*                2               1               1              15*       
*                     18              17               3          0.0+00
CORD2R*                3               0          0.0+00          0.0+00*       
*                 0.0+00          0.0+00          1.0+00          0.0+00*       
*                 1.0+00          0.0+00          0.0+00                *       
*                                                                       
CQUAD4*                3               1              15               5*       
*                     16              18               4          0.0+00
CORD2R*                4               0          0.0+00          0.0+00*       
*                 0.0+00          0.0+00          1.0+00          0.0+00*       
*                 1.0+00          0.0+00          0.0+00                *       
*                                                                       
CQUAD4*                4               1              10              18*       
*                     16               9               5          0.0+00
CORD2R*                5               0          0.0+00          0.0+00*       
*                 0.0+00          0.0+00          1.0+00          0.0+00*       
*                 1.0+00          0.0+00          0.0+00                *       
*                                                                       
CQUAD4*                5               1              17              18*       
*                     10               8               6          0.0+00
CORD2R*                6               0          0.0+00          0.0+00*       
*                 0.0+00          0.0+00          1.0+00          0.0+00*       
*                 1.0+00          0.0+00          0.0+00                *       
*                                                                       
CQUAD4*               10               1               9              20*       
*                     23              11               7          0.0+00
CORD2R*                7               0          0.0+00          0.0+00*       
*                 0.0+00          0.0+00          1.0+00          0.0+00*       
*                 1.0+00          0.0+00          0.0+00                *       
*                                                                       
CQUAD4*               11               1              20               6*       
*                     21              23               8          0.0+00
CORD2R*                8               0          0.0+00          0.0+00*       
*                 0.0+00          0.0+00          1.0+00          0.0+00*       
*                 1.0+00          0.0+00          0.0+00                *       
*                                                                       
CQUAD4*               12               1              23              21*       
*                      3              22               9          0.0+00
CORD2R*                9               0          0.0+00          0.0+00*       
*                 0.0+00          0.0+00          1.0+00          0.0+00*       
*                 1.0+00          0.0+00          0.0+00                *       
*                                                                       
CQUAD4*               17               1              16               5*       
*                     24              19              10          0.0+00
CORD2R*               10               0          0.0+00          0.0+00*       
*                 0.0+00          0.0+00          1.0+00          0.0+00*       
*                 1.0+00          0.0+00          0.0+00                *       
*                                                                       
CQUAD4*               18               1              24               2*       
*                     25              19              11          0.0+00
CORD2R*               11               0          0.0+00          0.0+00*       
*                 0.0+00          0.0+00          1.0+00          0.0+00*       
*                 1.0+00          0.0+00          0.0+00                *       
*                                                                       
CQUAD4*               19               1              25               6*       
*                     20              19              12          0.0+00
CORD2R*               12               0          0.0+00          0.0+00*       
*                 0.0+00          0.0+00          1.0+00          0.0+00*       
*                 1.0+00          0.0+00          0.0+00                *       
*                                                                       
CQUAD4*               20               1              20               9*       
*                     16              19              13          0.0+00
CORD2R*               13               0          0.0+00          0.0+00*       
*                 0.0+00          0.0+00          1.0+00          0.0+00*       
*                 1.0+00          0.0+00          0.0+00                *       
*                                                                       
CQUAD4*               41               1              11              23*       
*                     22               7              14          0.0+00
CORD2R*               14               0          0.0+00          0.0+00*       
*                 0.0+00          0.0+00          1.0+00          0.0+00*       
*                 1.0+00          0.0+00          0.0+00                *       
*                                                                       
CQUAD4*               46               1               8              10*       
*                     14              13              15          0.0+00
CORD2R*               15               0          0.0+00          0.0+00*       
*                 0.0+00          0.0+00          1.0+00          0.0+00*       
*                 1.0+00          0.0+00          0.0+00                *       
*                                                                       
CQUAD4*               47               1              14              10*       
*                      9              11              16          0.0+00
CORD2R*               16               0          0.0+00          0.0+00*       
*                 0.0+00          0.0+00          1.0+00          0.0+00*       
*                 1.0+00          0.0+00          0.0+00                *       
*                                                                       
CQUAD4*               48               1              14              11*       
*                      7              12              17          0.0+00
CORD2R*               17               0          0.0+00          0.0+00*       
*                 0.0+00          0.0+00          1.0+00          0.0+00*       
*                 1.0+00          0.0+00          0.0+00                *       
*                                                                       
PSHELL*               18               1          3.0-01               1*       
*                                      1                          0.0+00
CTRIA3*                6              18              42              43*       
*                     35              19          0.0+00
CORD2R*               19               0          0.0+00          0.0+00*       
*                 0.0+00          0.0+00          1.0+00          0.0+00*       
*                 1.0+00          0.0+00          0.0+00                *       
*                                                                       
CTRIA3*                7              18              34              45*       
*                     48              20          0.0+00
CORD2R*               20               0          0.0+00          0.0+00*       
*                 0.0+00          0.0+00          1.0+00          0.0+00*       
*                 1.0+00          0.0+00          0.0+00                *       
*                                                                       
CTRIA3*                8              18              45              31*       
*                     46              21          0.0+00
CORD2R*               21               0          0.0+00          0.0+00*       
*                 0.0+00          0.0+00          1.0+00          0.0+00*       
*                 1.0+00          0.0+00          0.0+00                *       
*                                                                       
CTRIA3*                9              18              48              46*       
*                     28              22          0.0+00
CORD2R*               22               0          0.0+00          0.0+00*       
*                 0.0+00          0.0+00          1.0+00          0.0+00*       
*                 1.0+00          0.0+00          0.0+00                *       
*                                                                       
CTRIA3*               13              18              36              48*       
*                     47              23          0.0+00
CORD2R*               23               0          0.0+00          0.0+00*       
*                 0.0+00          0.0+00          1.0+00          0.0+00*       
*                 1.0+00          0.0+00          0.0+00                *       
*                                                                       
CTRIA3*               14              18              33              35*       
*                     39              24          0.0+00
CORD2R*               24               0          0.0+00          0.0+00*       
*                 0.0+00          0.0+00          1.0+00          0.0+00*       
*                 1.0+00          0.0+00          0.0+00                *       
*                                                                       
CTRIA3*               15              18              39              35*       
*                     34              25          0.0+00
CORD2R*               25               0          0.0+00          0.0+00*       
*                 0.0+00          0.0+00          1.0+00          0.0+00*       
*                 1.0+00          0.0+00          0.0+00                *       
*                                                                       
CTRIA3*               16              18              39              36*       
*                     32              26          0.0+00
CORD2R*               26               0          0.0+00          0.0+00*       
*                 0.0+00          0.0+00          1.0+00          0.0+00*       
*                 1.0+00          0.0+00          0.0+00                *       
*                                                                       
CTRIA3*               21              18              36              47*       
*                     32              27          0.0+00
CORD2R*               27               0          0.0+00          0.0+00*       
*                 0.0+00          0.0+00          1.0+00          0.0+00*       
*                 1.0+00          0.0+00          0.0+00                *       
*                                                                       
CTRIA3*               22              18              44              30*       
*                     49              28          0.0+00
CORD2R*               28               0          0.0+00          0.0+00*       
*                 0.0+00          0.0+00          1.0+00          0.0+00*       
*                 1.0+00          0.0+00          0.0+00                *       
*                                                                       
CTRIA3*               23              18              49              27*       
*                     50              29          0.0+00
CORD2R*               29               0          0.0+00          0.0+00*       
*                 0.0+00          0.0+00          1.0+00          0.0+00*       
*                 1.0+00          0.0+00          0.0+00                *       
*                                                                       
CTRIA3*               24              18              44              50*       
*                     31              30          0.0+00
CORD2R*               30               0          0.0+00          0.0+00*       
*                 0.0+00          0.0+00          1.0+00          0.0+00*       
*                 1.0+00          0.0+00          0.0+00                *       
*                                                                       
CTRIA3*               25              18              44              49*       
*                     50              31          0.0+00
CORD2R*               31               0          0.0+00          0.0+00*       
*                 0.0+00          0.0+00          1.0+00          0.0+00*       
*                 1.0+00          0.0+00          0.0+00                *       
*                                                                       
CTRIA3*               26              18              33              39*       
*                     38              32          0.0+00
CORD2R*               32               0          0.0+00          0.0+00*       
*                 0.0+00          0.0+00          1.0+00          0.0+00*       
*                 1.0+00          0.0+00          0.0+00                *       
*                                                                       
CTRIA3*               27              18              39              34*       
*                     36              33          0.0+00
CORD2R*               33               0          0.0+00          0.0+00*       
*                 0.0+00          0.0+00          1.0+00          0.0+00*       
*                 1.0+00          0.0+00          0.0+00                *       
*                                                                       
CTRIA3*               28              18              39              32*       
*                     37              34          0.0+00
CORD2R*               34               0          0.0+00          0.0+00*       
*                 0.0+00          0.0+00          1.0+00          0.0+00*       
*                 1.0+00          0.0+00          0.0+00                *       
*                                                                       
CTRIA3*               29              18              38              37*       
*                     29              35          0.0+00
CORD2R*               35               0          0.0+00          0.0+00*       
*                 0.0+00          0.0+00          1.0+00          0.0+00*       
*                 1.0+00          0.0+00          0.0+00                *       
*                                                                       
CTRIA3*               30              18              26              43*       
*                     42              36          0.0+00
CORD2R*               36               0          0.0+00          0.0+00*       
*                 0.0+00          0.0+00          1.0+00          0.0+00*       
*                 1.0+00          0.0+00          0.0+00                *       
*                                                                       
CTRIA3*               31              18              40              41*       
*                     43              37          0.0+00
CORD2R*               37               0          0.0+00          0.0+00*       
*                 0.0+00          0.0+00          1.0+00          0.0+00*       
*                 1.0+00          0.0+00          0.0+00                *       
*                                                                       
CTRIA3*               32              18              35              41*       
*                     34              38          0.0+00
CORD2R*               38               0          0.0+00          0.0+00*       
*                 0.0+00          0.0+00          1.0+00          0.0+00*       
*                 1.0+00          0.0+00          0.0+00                *       
*                                                                       
CTRIA3*               33              18              42              35*       
*                     33              39          0.0+00
CORD2R*               39               0          0.0+00          0.0+00*       
*                 0.0+00          0.0+00          1.0+00          0.0+00*       
*                 1.0+00          0.0+00          0.0+00                *       
*                                                                       
CTRIA3*               34              18              30              44*       
*                     41              40          0.0+00
CORD2R*               40               0          0.0+00          0.0+00*       
*                 0.0+00          0.0+00          1.0+00          0.0+00*       
*                 1.0+00          0.0+00          0.0+00                *       
*                                                                       
CTRIA3*               35              18              44              31*       
*                     45              41          0.0+00
CORD2R*               41               0          0.0+00          0.0+00*       
*                 0.0+00          0.0+00          1.0+00          0.0+00*       
*                 1.0+00          0.0+00          0.0+00                *       
*                                                                       
CTRIA3*               36              18              41              45*       
*                     34              42          0.0+00
CORD2R*               42               0          0.0+00          0.0+00*       
*                 0.0+00          0.0+00          1.0+00          0.0+00*       
*                 1.0+00          0.0+00          0.0+00                *       
*                                                                       
CTRIA3*               37              18              41              44*       
*                     45              43          0.0+00
CORD2R*               43               0          0.0+00          0.0+00*       
*                 0.0+00          0.0+00          1.0+00          0.0+00*       
*                 1.0+00          0.0+00          0.0+00                *       
*                                                                       
CTRIA3*               38              18              34              48*       
*                     36              44          0.0+00
CORD2R*               44               0          0.0+00          0.0+00*       
*                 0.0+00          0.0+00          1.0+00          0.0+00*       
*                 1.0+00          0.0+00          0.0+00                *       
*                                                                       
CTRIA3*               39              18              45              46*       
*                     48              45          0.0+00
CORD2R*               45               0          0.0+00          0.0+00*       
*                 0.0+00          0.0+00          1.0+00          0.0+00*       
*                 1.0+00          0.0+00          0.0+00                *       
*                                                                       
CTRIA3*               40              18              48              28*       
*                     47              46          0.0+00
CORD2R*               46               0          0.0+00          0.0+00*       
*                 0.0+00          0.0+00          1.0+00          0.0+00*       
*                 1.0+00          0.0+00          0.0+00                *       
*                                                                       
CTRIA3*               42              18              38              39*       
*                     37              47          0.0+00
CORD2R*               47               0          0.0+00          0.0+00*       
*                 0.0+00          0.0+00          1.0+00          0.0+00*       
*                 1.0+00          0.0+00          0.0+00                *       
*                                                                       
CTRIA3*               43              18              26              40*       
*                     43              48          0.0+00
CORD2R*               48               0          0.0+00          0.0+00*       
*                 0.0+00          0.0+00          1.0+00          0.0+00*       
*                 1.0+00          0.0+00          0.0+00                *       
*                                                                       
CTRIA3*               44              18              40              30*       
*                     41              49          0.0+00
CORD2R*               49               0          0.0+00          0.0+00*       
*                 0.0+00          0.0+00          1.0+00          0.0+00*       
*                 1.0+00          0.0+00          0.0+00                *       
*                                                                       
CTRIA3*               45              18              35              43*       
*                     41              50          0.0+00
CORD2R*               50               0          0.0+00          0.0+00*       
*                 0.0+00          0.0+00          1.0+00          0.0+00*       
*                 1.0+00          0.0+00          0.0+00                *       
*                                                                       
$--1---><------2-------><------3-------><------4-------><------5-------><--6--->
$$$$$$$$$$$$$$$$$$$$$$$$$$$$$$$$$$$$ force $$$$$$$$$$$$$$$$$$$$$$$$$$$$$$$$$$$$$
FORCE*                 1              32               0          1.0+00*       
*                 0.0+00          2.5+06          2.5+05
FORCE*                 1              37               0          1.0+00*       
*                 0.0+00 2.1815720201+06 2.1815720201+05
FORCE*                 1              29               0          1.0+00*       
*                 0.0+00   1.09078601+06   1.09078601+05
FORCE*                 1              28               0          1.0+00*       
*                 0.0+00   1.40921399+06   1.40921399+05
FORCE*                 1              47               0          1.0+00*       
*                 0.0+00 2.8184279799+06 2.8184279799+05
FORCE*                 1              22               0          1.0+00*       
*                 0.0+00 2.8184279799+06 2.8184279799+05
FORCE*                 1               7               0          1.0+00*       
*                 0.0+00          2.5+06          2.5+05
FORCE*                 1              12               0          1.0+00*       
*                 0.0+00 2.1815720201+06 2.1815720201+05
FORCE*                 1               4               0          1.0+00*       
*                 0.0+00   1.09078601+06   1.09078601+05
FORCE*                 1               3               0          1.0+00*       
*                 0.0+00   1.40921399+06   1.40921399+05
$--1---><------2-------><------3-------><------4-------><------5-------><--6--->
ENDDATA
