$ Generated by Mecway 29
$-------------EXECUTIVE CONTROL SECTION-------------
SOL 101
CEND
$---------------CASE CONTROL SECTION----------------
DISPLACEMENT = ALL
STRESS(CORNER) = ALL
$
  ACCELERATION(PRINT,PLOT) = ALL
  DISPLACEMENT(PRINT, PLOT) = ALL
  GPFORCE(PRINT, PLOT) = ALL
  MPCFORCES(PRINT, PLOT) = ALL
  OLOAD(PRINT, PLOT)= ALL
  SPCFORCES(PRINT, PLOT) = ALL
  FORCE(PRINT, PLOT) = ALL
  STRESS(PRINT, PLOT, CORNER)= ALL
  STRAIN(PRINT, PLOT, CORNER)= ALL
$
SPC = 1
LOAD = 1
BEGIN BULK
$-----------------BULK DATA SECTION-----------------
$
  PARAM, POST,-1
$
GRID*                  1               0          0.0+00          0.0+00*       
*                 0.0+00               0
GRID*                  2               0          1.0+00          0.0+00*       
*                 0.0+00               0
GRID*                  3               0          1.0+00          1.0+00*       
*                 0.0+00               0
GRID*                  4               0          0.0+00          1.0+00*       
*                 0.0+00               0
GRID*                  5               0          2.0+00          0.0+00*       
*                 0.0+00               0
GRID*                  6               0          3.0+00          0.0+00*       
*                 0.0+00               0
GRID*                  7               0          3.0+00          1.0+00*       
*                 0.0+00               0
GRID*                  8               0          2.0+00          1.0+00*       
*                 0.0+00               0
GRID*                  9               0          4.0+00          0.0+00*       
*                 0.0+00               0
GRID*                 10               0          5.0+00          0.0+00*       
*                 0.0+00               0
GRID*                 11               0          5.0+00          1.0+00*       
*                 0.0+00               0
GRID*                 12               0          4.0+00          1.0+00*       
*                 0.0+00               0
GRID*                 13               0          6.0+00          0.0+00*       
*                 0.0+00               0
GRID*                 14               0          7.0+00          0.0+00*       
*                 0.0+00               0
GRID*                 15               0          7.0+00          1.0+00*       
*                 0.0+00               0
GRID*                 16               0          6.0+00          1.0+00*       
*                 0.0+00               0
GRID*                 17               0          8.0+00          0.0+00*       
*                 0.0+00               0
GRID*                 18               0          9.0+00          0.0+00*       
*                 0.0+00               0
GRID*                 19               0          9.0+00          1.0+00*       
*                 0.0+00               0
GRID*                 20               0          8.0+00          1.0+00*       
*                 0.0+00               0
GRID*                 21               0          1.0+01          0.0+00*       
*                 0.0+00               0
GRID*                 22               0          1.1+01          0.0+00*       
*                 0.0+00               0
GRID*                 23               0          1.1+01          1.0+00*       
*                 0.0+00               0
GRID*                 24               0          1.0+01          1.0+00*       
*                 0.0+00               0
$--1---><------2-------><------3-------><------4-------><------5-------><--6--->
$$$$$$$$$$$$$$$$$$$$$$$$$$$$$$$$$$$ Material $$$$$$$$$$$$$$$$$$$$$$$$$$$$$$$$$$$
MAT1*                  1          2.0+11          1.0+11          0.0+00*       
*                 0.0+00          0.0+00          0.0+00
$--1---><------2-------><------3-------><------4-------><------5-------><--6--->
SPC*                   1               1               1          0.0+00*       
*                                                                       
SPC*                   1               1               2          0.0+00*       
*                                                                       
SPC*                   1               1               3          0.0+00*       
*                                                                       
SPC*                   1               1               4          0.0+00*       
*                                                                       
SPC*                   1               1               5          0.0+00*       
*                                                                       
SPC*                   1               1               6          0.0+00*       
*                                                                       
SPC*                   1               2               2          0.0+00*       
*                                                                       
SPC*                   1               2               4          0.0+00*       
*                                                                       
SPC*                   1               2               6          0.0+00*       
*                                                                       
SPC*                   1               4               1          0.0+00*       
*                                                                       
SPC*                   1               4               5          0.0+00*       
*                                                                       
SPC*                   1               4               6          0.0+00*       
*                                                                       
SPC*                   1               5               1          0.0+00*       
*                                                                       
SPC*                   1               5               3          0.0+00*       
*                                                                       
SPC*                   1               5               2          0.0+00*       
*                                                                       
SPC*                   1               5               4          0.0+00*       
*                                                                       
SPC*                   1               5               6          0.0+00*       
*                                                                       
SPC*                   1               6               2          0.0+00*       
*                                                                       
SPC*                   1               6               1          0.0+00*       
*                                                                       
SPC*                   1               6               4          0.0+00*       
*                                                                       
SPC*                   1               6               6          0.0+00*       
*                                                                       
SPC*                   1               7               2          0.0+00*       
*                                                                       
SPC*                   1               8               2          0.0+00*       
*                                                                       
SPC*                   1               9               1          0.0+00*       
*                                                                       
SPC*                   1               9               2          0.0+00*       
*                                                                       
SPC*                   1               9               3          0.0+00*       
*                                                                       
SPC*                   1               9               4          0.0+00*       
*                                                                       
SPC*                   1               9               5          0.0+00*       
*                                                                       
SPC*                   1               9               6          0.0+00*       
*                                                                       
SPC*                   1              10               1          0.0+00*       
*                                                                       
SPC*                   1              10               2          0.0+00*       
*                                                                       
SPC*                   1              10               3          0.0+00*       
*                                                                       
SPC*                   1              10               4          0.0+00*       
*                                                                       
SPC*                   1              10               5          0.0+00*       
*                                                                       
SPC*                   1              10               6          0.0+00*       
*                                                                       
SPC*                   1              13               1          0.0+00*       
*                                                                       
SPC*                   1              13               2          0.0+00*       
*                                                                       
SPC*                   1              13               3          0.0+00*       
*                                                                       
SPC*                   1              13               4          0.0+00*       
*                                                                       
SPC*                   1              13               5          0.0+00*       
*                                                                       
SPC*                   1              13               6          0.0+00*       
*                                                                       
SPC*                   1              16               1          0.0+00*       
*                                                                       
SPC*                   1              16               2          0.0+00*       
*                                                                       
SPC*                   1              16               3          0.0+00*       
*                                                                       
SPC*                   1              16               4          0.0+00*       
*                                                                       
SPC*                   1              16               5          0.0+00*       
*                                                                       
SPC*                   1              16               6          0.0+00*       
*                                                                       
SPC*                   1              17               1          0.0+00*       
*                                                                       
SPC*                   1              17               2          0.0+00*       
*                                                                       
SPC*                   1              17               3          0.0+00*       
*                                                                       
SPC*                   1              17               4          0.0+00*       
*                                                                       
SPC*                   1              17               5          0.0+00*       
*                                                                       
SPC*                   1              17               6          0.0+00*       
*                                                                       
SPC*                   1              18               1          0.0+00*       
*                                                                       
SPC*                   1              18               2          0.0+00*       
*                                                                       
SPC*                   1              18               3          0.0+00*       
*                                                                       
SPC*                   1              18               4          0.0+00*       
*                                                                       
SPC*                   1              18               5          0.0+00*       
*                                                                       
SPC*                   1              18               6          0.0+00*       
*                                                                       
SPC*                   1              19               4          0.0+00*       
*                                                                       
SPC*                   1              20               4          0.0+00*       
*                                                                       
SPC*                   1              21               1          0.0+00*       
*                                                                       
SPC*                   1              21               2          0.0+00*       
*                                                                       
SPC*                   1              21               3          0.0+00*       
*                                                                       
SPC*                   1              21               4          0.0+00*       
*                                                                       
SPC*                   1              21               5          0.0+00*       
*                                                                       
SPC*                   1              21               6          0.0+00*       
*                                                                       
SPC*                   1              22               5          0.0+00*       
*                                                                       
SPC*                   1              23               5          0.0+00*       
*                                                                       
SPC*                   1              24               1          0.0+00*       
*                                                                       
SPC*                   1              24               2          0.0+00*       
*                                                                       
SPC*                   1              24               3          0.0+00*       
*                                                                       
SPC*                   1              24               4          0.0+00*       
*                                                                       
SPC*                   1              24               5          0.0+00*       
*                                                                       
SPC*                   1              24               6          0.0+00*       
*                                                                       
$--1---><------2-------><------3-------><------4-------><------5-------><--6--->
$$$$$$$$$$$$$$$$$$$$$$$$$$$$$$$$$$$ Default $$$$$$$$$$$$$$$$$$$$$$$$$$$$$$$$$$$$
PSHELL*                1               1          1.0-02               1*       
*                                      1                          0.0+00
CTRIA3*                1               1               1               3*       
*                      4         -4.5+01          0.0+00
CTRIA3*                2               1               5               7*       
*                      8         -4.5+01          0.0+00
CTRIA3*                3               1               9              11*       
*                     12         -4.5+01          0.0+00
CTRIA3*                4               1              13              15*       
*                     16         -4.5+01          0.0+00
CTRIA3*                5               1              17              19*       
*                     20         -4.5+01          0.0+00
CTRIA3*                6               1              21              23*       
*                     24         -4.5+01          0.0+00
CTRIA3*                7               1               1               2*       
*                      3          0.0+00          0.0+00
CTRIA3*                8               1               5               6*       
*                      7          0.0+00          0.0+00
CTRIA3*                9               1               9              10*       
*                     11          0.0+00          0.0+00
CTRIA3*               10               1              13              14*       
*                     15          0.0+00          0.0+00
CTRIA3*               11               1              17              18*       
*                     19          0.0+00          0.0+00
CTRIA3*               12               1              21              22*       
*                     23          0.0+00          0.0+00
$--1---><------2-------><------3-------><------4-------><------5-------><--6--->
$$$$$$$$$$$$$$$$$$$$$$$$$$$$$$$$$$$$ force $$$$$$$$$$$$$$$$$$$$$$$$$$$$$$$$$$$$$
FORCE*                 1               3               0          1.0+00*       
*                 0.0+00          1.0+00          0.0+00
FORCE*                 1               4               0          1.0+00*       
*                 0.0+00          1.0+00          0.0+00
$--1---><------2-------><------3-------><------4-------><------5-------><--6--->
$$$$$$$$$$$$$$$$$$$$$$$$$$$$$$$$$$$$ force $$$$$$$$$$$$$$$$$$$$$$$$$$$$$$$$$$$$$
FORCE*                 1               2               0          1.0+00*       
*                 5.0-01          0.0+00          0.0+00
FORCE*                 1               3               0          1.0+00*       
*                 5.0-01          0.0+00          0.0+00
$--1---><------2-------><------3-------><------4-------><------5-------><--6--->
$$$$$$$$$$$$$$$$$$$$$$$$$$$$$$$$$$$$ force $$$$$$$$$$$$$$$$$$$$$$$$$$$$$$$$$$$$$
FORCE*                 1               7               0          1.0+00*       
*                 2.5+00          0.0+00          0.0+00
FORCE*                 1               8               0          1.0+00*       
*                 2.5+00          0.0+00          0.0+00
$--1---><------2-------><------3-------><------4-------><------5-------><--6--->
$$$$$$$$$$$$$$$$$$$$$$$$$$$$$$$$$$$$ force $$$$$$$$$$$$$$$$$$$$$$$$$$$$$$$$$$$$$
FORCE*                 1              22               0          1.0+00*       
*                 0.0+00          0.0+00          1.5-03
FORCE*                 1              23               0          1.0+00*       
*                 0.0+00          0.0+00          1.5-03
FORCE*                 1              19               0          1.0+00*       
*                 0.0+00          0.0+00          1.5-03
FORCE*                 1              20               0          1.0+00*       
*                 0.0+00          0.0+00          1.5-03
$--1---><------2-------><------3-------><------4-------><------5-------><--6--->
$$$$$$$$$$$$$$$$$$$$$$$$$$$$$$$$$$$$ moment $$$$$$$$$$$$$$$$$$$$$$$$$$$$$$$$$$$$
MOMENT*                1              12               0          1.0+00*       
*                 1.0-03          0.0+00          0.0+00
$--1---><------2-------><------3-------><------4-------><------5-------><--6--->
$$$$$$$$$$$$$$$$$$$$$$$$$$$$$$$$$$$$ moment $$$$$$$$$$$$$$$$$$$$$$$$$$$$$$$$$$$$
MOMENT*                1              11               0          1.0+00*       
*                 1.0-03          0.0+00          0.0+00
$--1---><------2-------><------3-------><------4-------><------5-------><--6--->
$$$$$$$$$$$$$$$$$$$$$$$$$$$$$$$$$$$$ moment $$$$$$$$$$$$$$$$$$$$$$$$$$$$$$$$$$$$
MOMENT*                1              15               0          1.0+00*       
*                 0.0+00          1.0-03          0.0+00
$--1---><------2-------><------3-------><------4-------><------5-------><--6--->
$$$$$$$$$$$$$$$$$$$$$$$$$$$$$$$$$$$$ moment $$$$$$$$$$$$$$$$$$$$$$$$$$$$$$$$$$$$
MOMENT*                1              14               0          1.0+00*       
*                 0.0+00          1.0-03          0.0+00
$--1---><------2-------><------3-------><------4-------><------5-------><--6--->
ENDDATA
