$ Generated by Mecway 29
$-------------EXECUTIVE CONTROL SECTION-------------
SOL 101
CEND
$---------------CASE CONTROL SECTION----------------
DISPLACEMENT = ALL
$
  ACCELERATION(PRINT,PLOT) = ALL
  DISPLACEMENT(PRINT, PLOT) = ALL
  GPFORCE(PRINT, PLOT) = ALL
  MPCFORCES(PRINT, PLOT) = ALL
  OLOAD(PRINT, PLOT)= ALL
  SPCFORCES(PRINT, PLOT) = ALL
  FORCE(PRINT, PLOT) = ALL
  STRESS(PRINT, PLOT, CORNER)= ALL
  STRAIN(PRINT, PLOT, CORNER)= ALL
$
SPC = 1
TEMPERATURE = 1
BEGIN BULK
$-----------------BULK DATA SECTION-----------------
$
  PARAM, POST,-1
$
GRID*                  1               0          0.0+00          0.0+00*       
*                 0.0+00               0
GRID*                  2               0          1.0+00          0.0+00*       
*                 0.0+00               0
GRID*                  3               0          1.0+00          1.0+00*       
*                 0.0+00               0
GRID*                  4               0          0.0+00          1.0+00*       
*                 0.0+00               0
GRID*                  5               0          0.0+00          0.0+00*       
*                 1.0+00               0
GRID*                  6               0          1.0+00          0.0+00*       
*                 1.0+00               0
GRID*                  7               0          1.0+00          1.0+00*       
*                 1.0+00               0
GRID*                  8               0          0.0+00          1.0+00*       
*                 1.0+00               0
GRID*                  9               0          1.0+00          5.0-01*       
*                 1.0+00               0
GRID*                 10               0          1.0+00          1.0+00*       
*                 5.0-01               0
GRID*                 11               0          1.0+00          5.0-01*       
*                 5.0-01               0
GRID*                 12               0          5.0-01          5.0-01*       
*                 1.0+00               0
GRID*                 13               0          5.0-01          1.0+00*       
*                 1.0+00               0
GRID*                 14               0          5.0-01          1.0+00*       
*                 5.0-01               0
GRID*                 15               0          5.0-01          0.0+00*       
*                 5.0-01               0
GRID*                 16               0          0.0+00          5.0-01*       
*                 5.0-01               0
GRID*                 17               0          0.0+00          0.0+00*       
*                 5.0-01               0
GRID*                 18               0          5.0-01          0.0+00*       
*                 1.0+00               0
GRID*                 19               0          0.0+00          5.0-01*       
*                 1.0+00               0
GRID*                 20               0          5.0-01          5.0-01*       
*                 0.0+00               0
GRID*                 21               0          5.0-01          1.0+00*       
*                 0.0+00               0
GRID*                 22               0          0.0+00          5.0-01*       
*                 0.0+00               0
GRID*                 23               0          0.0+00          1.0+00*       
*                 5.0-01               0
GRID*                 24               0          5.0-01          0.0+00*       
*                 0.0+00               0
GRID*                 25               0          1.0+00          5.0-01*       
*                 0.0+00               0
GRID*                 26               0          1.0+00          0.0+00*       
*                 5.0-01               0
GRID*                 27               0          0.0+00          3.0+00*       
*                 0.0+00               0
GRID*                 28               0          1.0+00          3.0+00*       
*                 0.0+00               0
GRID*                 29               0          1.0+00          4.0+00*       
*                 0.0+00               0
GRID*                 30               0          0.0+00          4.0+00*       
*                 0.0+00               0
GRID*                 31               0          0.0+00          3.0+00*       
*                 1.0+00               0
GRID*                 32               0          1.0+00          3.0+00*       
*                 1.0+00               0
GRID*                 33               0          1.0+00          4.0+00*       
*                 1.0+00               0
GRID*                 34               0          0.0+00          4.0+00*       
*                 1.0+00               0
GRID*                 35               0          0.0+00          1.5+00*       
*                 0.0+00               0
GRID*                 36               0          0.0+00          2.0+00*       
*                 0.0+00               0
GRID*                 37               0          0.0+00          1.5+00*       
*                 1.0+00               0
GRID*                 38               0          0.0+00          2.0+00*       
*                 1.0+00               0
GRID*                 39               0          1.0+00          1.5+00*       
*                 0.0+00               0
GRID*                 40               0          1.0+00          2.0+00*       
*                 0.0+00               0
GRID*                 41               0          1.0+00          1.5+00*       
*                 1.0+00               0
GRID*                 42               0          1.0+00          2.0+00*       
*                 1.0+00               0
GRID*                 43               0          0.0+00          2.0+00*       
*                 5.0-01               0
GRID*                 44               0          5.0-01          2.0+00*       
*                 5.0-01               0
GRID*                 45               0          5.0-01          2.0+00*       
*                 0.0+00               0
GRID*                 46               0          5.0-01          2.0+00*       
*                 1.0+00               0
GRID*                 47               0          1.0+00          2.0+00*       
*                 5.0-01               0
GRID*                 48               0          0.0+00          5.0+00*       
*                 0.0+00               0
GRID*                 49               0          1.0+00          5.0+00*       
*                 0.0+00               0
GRID*                 50               0          1.0+00          6.0+00*       
*                 0.0+00               0
GRID*                 51               0          0.0+00          6.0+00*       
*                 0.0+00               0
GRID*                 52               0          0.0+00          5.0+00*       
*                 1.0+00               0
GRID*                 53               0          1.0+00          5.0+00*       
*                 1.0+00               0
GRID*                 54               0          1.0+00          6.0+00*       
*                 1.0+00               0
GRID*                 55               0          0.0+00          6.0+00*       
*                 1.0+00               0
GRID*                 56               0 1.8370005504+00-2.9999995708+00*       
*        1.4645409209-01               0
GRID*                 57               0 2.0719237056+00-2.9999995708+00*       
*         6.094905626-02               0
GRID*                 58               0 2.0719237056+00-1.9999995708+00*       
*         6.094905626-02               0
GRID*                 59               0 1.8370005504+00-1.9999995708+00*       
*        1.4645409209-01               0
GRID*                 60               0 1.9225055863+00-2.9999995708+00*       
*        3.8137724729-01               0
GRID*                 61               0 2.1574287415+00-2.9999995708+00*       
*        2.9587221146-01               0
GRID*                 62               0 2.1574287415+00-1.9999995708+00*       
*        2.9587221146-01               0
GRID*                 63               0 1.9225055863+00-1.9999995708+00*       
*        3.8137724729-01               0
GRID*                 64               0 1.8370005504+00 2.0000004292+00*       
*        1.4645409209-01               0
GRID*                 65               0 2.0719237056+00 2.0000004292+00*       
*         6.094905626-02               0
GRID*                 66               0 2.0719237056+00 3.0000004292+00*       
*         6.094905626-02               0
GRID*                 67               0 1.8370005504+00 3.0000004292+00*       
*        1.4645409209-01               0
GRID*                 68               0 1.9225055863+00 2.0000004292+00*       
*        3.8137724729-01               0
GRID*                 69               0 2.1574287415+00 2.0000004292+00*       
*        2.9587221146-01               0
GRID*                 70               0 2.1574287415+00 3.0000004292+00*       
*        2.9587221146-01               0
GRID*                 71               0 1.9225055863+00 3.0000004292+00*       
*        3.8137724729-01               0
GRID*                 72               0 1.8370005504+00-9.9999957085-01*       
*        1.4645409209-01               0
GRID*                 73               0 2.0719237056+00-9.9999957085-01*       
*         6.094905626-02               0
GRID*                 74               0 2.0719237056+00 4.2915348786-07*       
*         6.094905626-02               0
GRID*                 75               0 1.8370005504+00 4.2915348786-07*       
*        1.4645409209-01               0
GRID*                 76               0 1.9225055863+00-9.9999957085-01*       
*        3.8137724729-01               0
GRID*                 77               0 2.1574287415+00-9.9999957085-01*       
*        2.9587221146-01               0
GRID*                 78               0 2.1574287415+00 4.2915348786-07*       
*        2.9587221146-01               0
GRID*                 79               0 1.9225055863+00 4.2915348786-07*       
*        3.8137724729-01               0
GRID*                 80               0 1.8370005504+00 1.0000004292+00*       
*        1.4645409209-01               0
GRID*                 81               0 2.0719237056+00 1.0000004292+00*       
*         6.094905626-02               0
GRID*                 82               0 1.9225055863+00 1.0000004292+00*       
*        3.8137724729-01               0
GRID*                 83               0 2.1574287415+00 1.0000004292+00*       
*        2.9587221146-01               0
$--1---><------2-------><------3-------><------4-------><------5-------><--6--->
$$$$$$$$$$$$$$$$$$$$$$$$$$$$$$$$$$$ Material $$$$$$$$$$$$$$$$$$$$$$$$$$$$$$$$$$$
MAT1*                  1          1.5+11 5.7692307692+10          3.0-01*       
*                 0.0+00          4.0-03       2.8315+02
$--1---><------2-------><------3-------><------4-------><------5-------><--6--->
SPC*                   1               1               1          0.0+00*       
*                                                                       
SPC*                   1               1               2          0.0+00*       
*                                                                       
SPC*                   1               1               3          0.0+00*       
*                                                                       
SPC*                   1               2               2          0.0+00*       
*                                                                       
SPC*                   1               5               2          0.0+00*       
*                                                                       
SPC*                   1               5               1          0.0+00*       
*                                                                       
SPC*                   1              27               1          0.0+00*       
*                                                                       
SPC*                   1              27               2          0.0+00*       
*                                                                       
SPC*                   1              27               3          0.0+00*       
*                                                                       
SPC*                   1              28               2          0.0+00*       
*                                                                       
SPC*                   1              31               2          0.0+00*       
*                                                                       
SPC*                   1              31               1          0.0+00*       
*                                                                       
SPC*                   1              48               1          0.0+00*       
*                                                                       
SPC*                   1              48               2          0.0+00*       
*                                                                       
SPC*                   1              48               3          0.0+00*       
*                                                                       
SPC*                   1              49               2          0.0+00*       
*                                                                       
SPC*                   1              52               2          0.0+00*       
*                                                                       
SPC*                   1              52               1          0.0+00*       
*                                                                       
SPC*                   1              56               1          0.0+00*       
*                                                                       
SPC*                   1              56               2          0.0+00*       
*                                                                       
SPC*                   1              56               3          0.0+00*       
*                                                                       
SPC*                   1              57               2          0.0+00*       
*                                                                       
SPC*                   1              60               1          0.0+00*       
*                                                                       
SPC*                   1              60               2          0.0+00*       
*                                                                       
SPC*                   1              61               2          0.0+00*       
*                                                                       
$--1---><------2-------><------3-------><------4-------><------5-------><--6--->
$$$$$$$$$$$$$$$$$$$$$$$$$$$$$$$$$$$ Default $$$$$$$$$$$$$$$$$$$$$$$$$$$$$$$$$$$$
PSOLID*                1               1               0                *       
*                                       
CTETRA*                2               1               1               6*       
*                      8               5              15              12*       
*                     16              17              18              19*       
*                                                                       
CTETRA*                4               1               1               6*       
*                      3               8              15              11*       
*                     20              16              12              14*       
*                                                                       
CTETRA*                5               1               1               2*       
*                      3               6              24              25*       
*                     20              15              26              11*       
*                                                                       
PSOLID*                2               1               0               2*       
*                                   FULL
CHEXA*                 6               2              27              28*       
*                     29              30              31              32*       
*                     33              34                                *       
*                                                                       
CHEXA*                 9               2              48              49*       
*                     50              51              52              53*       
*                     54              55                                *       
*                                                                       
CHEXA*                10               2              56              57*       
*                     58              59              60              61*       
*                     62              63                                *       
*                                                                       
CHEXA*                11               2              74              81*       
*                     80              75              78              83*       
*                     82              79                                *       
*                                                                       
CHEXA*                12               2              72              73*       
*                     74              75              76              77*       
*                     78              79                                *       
*                                                                       
CHEXA*                13               2              72              73*       
*                     77              76              59              58*       
*                     62              63                                *       
*                                                                       
CHEXA*                14               2              80              81*       
*                     65              64              82              83*       
*                     69              68                                *       
*                                                                       
CHEXA*                15               2              64              65*       
*                     66              67              68              69*       
*                     70              71                                *       
*                                                                       
$--1---><------2-------><------3-------><------4-------><------5-------><--6--->
$$$$$$$$$$$$$$$$$$$$$$$$$$$$$$$$$$ Component $$$$$$$$$$$$$$$$$$$$$$$$$$$$$$$$$$$
PSOLID*                3               1               0                *       
*                                       
CTETRA*                1               3               6               7*       
*                      3               8               9              10*       
*                     11              12              13              14*       
*                                                                       
CTETRA*                3               3               1               3*       
*                      4               8              20              21*       
*                     22              16              14              23*       
*                                                                       
PSOLID*                4               1               0               3*       
*                                   FULL
CPENTA*                7               4               4               8*       
*                      3              36              38              40*       
*                     23              14              21              35*       
*                     37              39              43              44*       
*                     45                                                *       
*                                                                       
CPENTA*                8               4               3               8*       
*                      7              40              38              42*       
*                     14              13              10              39*       
*                     37              41              44              46*       
*                     47                                                *       
*                                                                       
$--1---><------2-------><------3-------><------4-------><------5-------><--6--->
$$$$$$$$$$$$$$$$$$$$$$$$$$$$$$$$$ temperature $$$$$$$$$$$$$$$$$$$$$$$$$$$$$$$$$$
TEMP*                  1               1       3.7315+02                *       
*                                                                       
TEMP*                  1               2       3.7315+02                *       
*                                                                       
TEMP*                  1               3       3.7315+02                *       
*                                                                       
TEMP*                  1               4       3.7315+02                *       
*                                                                       
TEMP*                  1               5       3.7315+02                *       
*                                                                       
TEMP*                  1               6       3.7315+02                *       
*                                                                       
TEMP*                  1               7       3.7315+02                *       
*                                                                       
TEMP*                  1               8       3.7315+02                *       
*                                                                       
TEMP*                  1               9       3.7315+02                *       
*                                                                       
TEMP*                  1              10       3.7315+02                *       
*                                                                       
TEMP*                  1              11       3.7315+02                *       
*                                                                       
TEMP*                  1              12       3.7315+02                *       
*                                                                       
TEMP*                  1              13       3.7315+02                *       
*                                                                       
TEMP*                  1              14       3.7315+02                *       
*                                                                       
TEMP*                  1              15       3.7315+02                *       
*                                                                       
TEMP*                  1              16       3.7315+02                *       
*                                                                       
TEMP*                  1              17       3.7315+02                *       
*                                                                       
TEMP*                  1              18       3.7315+02                *       
*                                                                       
TEMP*                  1              19       3.7315+02                *       
*                                                                       
TEMP*                  1              20       3.7315+02                *       
*                                                                       
TEMP*                  1              21       3.7315+02                *       
*                                                                       
TEMP*                  1              22       3.7315+02                *       
*                                                                       
TEMP*                  1              23       3.7315+02                *       
*                                                                       
TEMP*                  1              24       3.7315+02                *       
*                                                                       
TEMP*                  1              25       3.7315+02                *       
*                                                                       
TEMP*                  1              26       3.7315+02                *       
*                                                                       
$--1---><------2-------><------3-------><------4-------><------5-------><--6--->
$$$$$$$$$$$$$$$$$$$$$$$$$$$$$$$$$ temperature $$$$$$$$$$$$$$$$$$$$$$$$$$$$$$$$$$
TEMP*                  1               3       3.7315+02                *       
*                                                                       
TEMP*                  1               8       3.7315+02                *       
*                                                                       
TEMP*                  1               7       3.7315+02                *       
*                                                                       
TEMP*                  1              40       3.7315+02                *       
*                                                                       
TEMP*                  1              38       3.7315+02                *       
*                                                                       
TEMP*                  1              42       3.7315+02                *       
*                                                                       
TEMP*                  1              14       3.7315+02                *       
*                                                                       
TEMP*                  1              13       3.7315+02                *       
*                                                                       
TEMP*                  1              10       3.7315+02                *       
*                                                                       
TEMP*                  1              39       3.7315+02                *       
*                                                                       
TEMP*                  1              37       3.7315+02                *       
*                                                                       
TEMP*                  1              41       3.7315+02                *       
*                                                                       
TEMP*                  1              44       3.7315+02                *       
*                                                                       
TEMP*                  1              46       3.7315+02                *       
*                                                                       
TEMP*                  1              47       3.7315+02                *       
*                                                                       
$--1---><------2-------><------3-------><------4-------><------5-------><--6--->
$$$$$$$$$$$$$$$$$$$$$$$$$$$$$$$$$ temperature $$$$$$$$$$$$$$$$$$$$$$$$$$$$$$$$$$
TEMP*                  1               4       3.7315+02                *       
*                                                                       
TEMP*                  1              23       3.7315+02                *       
*                                                                       
TEMP*                  1               8       3.7315+02                *       
*                                                                       
TEMP*                  1              37       3.7315+02                *       
*                                                                       
TEMP*                  1              38       3.7315+02                *       
*                                                                       
TEMP*                  1              43       3.7315+02                *       
*                                                                       
TEMP*                  1              36       3.7315+02                *       
*                                                                       
TEMP*                  1              35       3.7315+02                *       
*                                                                       
TEMP*                  1               3       3.7315+02                *       
*                                                                       
TEMP*                  1              21       3.7315+02                *       
*                                                                       
TEMP*                  1               4       3.7315+02                *       
*                                                                       
TEMP*                  1              35       3.7315+02                *       
*                                                                       
TEMP*                  1              36       3.7315+02                *       
*                                                                       
TEMP*                  1              45       3.7315+02                *       
*                                                                       
TEMP*                  1              40       3.7315+02                *       
*                                                                       
TEMP*                  1              39       3.7315+02                *       
*                                                                       
$--1---><------2-------><------3-------><------4-------><------5-------><--6--->
$$$$$$$$$$$$$$$$$$$$$$$$$$$$$$$$$ temperature $$$$$$$$$$$$$$$$$$$$$$$$$$$$$$$$$$
TEMP*                  1              56 2.2315000858+02                *       
*                                                                       
TEMP*                  1              57 2.2315000858+02                *       
*                                                                       
TEMP*                  1              58 2.4315000858+02                *       
*                                                                       
TEMP*                  1              59 2.4315000858+02                *       
*                                                                       
TEMP*                  1              60 2.2315000858+02                *       
*                                                                       
TEMP*                  1              61 2.2315000858+02                *       
*                                                                       
TEMP*                  1              62 2.4315000858+02                *       
*                                                                       
TEMP*                  1              63 2.4315000858+02                *       
*                                                                       
TEMP*                  1              74 2.8315000858+02                *       
*                                                                       
TEMP*                  1              81 3.0315000858+02                *       
*                                                                       
TEMP*                  1              80 3.0315000858+02                *       
*                                                                       
TEMP*                  1              75 2.8315000858+02                *       
*                                                                       
TEMP*                  1              78 2.8315000858+02                *       
*                                                                       
TEMP*                  1              83 3.0315000858+02                *       
*                                                                       
TEMP*                  1              82 3.0315000858+02                *       
*                                                                       
TEMP*                  1              79 2.8315000858+02                *       
*                                                                       
TEMP*                  1              72 2.6315000858+02                *       
*                                                                       
TEMP*                  1              73 2.6315000858+02                *       
*                                                                       
TEMP*                  1              74 2.8315000858+02                *       
*                                                                       
TEMP*                  1              75 2.8315000858+02                *       
*                                                                       
TEMP*                  1              76 2.6315000858+02                *       
*                                                                       
TEMP*                  1              77 2.6315000858+02                *       
*                                                                       
TEMP*                  1              78 2.8315000858+02                *       
*                                                                       
TEMP*                  1              79 2.8315000858+02                *       
*                                                                       
TEMP*                  1              72 2.6315000858+02                *       
*                                                                       
TEMP*                  1              73 2.6315000858+02                *       
*                                                                       
TEMP*                  1              77 2.6315000858+02                *       
*                                                                       
TEMP*                  1              76 2.6315000858+02                *       
*                                                                       
TEMP*                  1              59 2.4315000858+02                *       
*                                                                       
TEMP*                  1              58 2.4315000858+02                *       
*                                                                       
TEMP*                  1              62 2.4315000858+02                *       
*                                                                       
TEMP*                  1              63 2.4315000858+02                *       
*                                                                       
TEMP*                  1              80 3.0315000858+02                *       
*                                                                       
TEMP*                  1              81 3.0315000858+02                *       
*                                                                       
TEMP*                  1              65 3.2315000858+02                *       
*                                                                       
TEMP*                  1              64 3.2315000858+02                *       
*                                                                       
TEMP*                  1              82 3.0315000858+02                *       
*                                                                       
TEMP*                  1              83 3.0315000858+02                *       
*                                                                       
TEMP*                  1              69 3.2315000858+02                *       
*                                                                       
TEMP*                  1              68 3.2315000858+02                *       
*                                                                       
TEMP*                  1              64 3.2315000858+02                *       
*                                                                       
TEMP*                  1              65 3.2315000858+02                *       
*                                                                       
TEMP*                  1              66 3.4315000858+02                *       
*                                                                       
TEMP*                  1              67 3.4315000858+02                *       
*                                                                       
TEMP*                  1              68 3.2315000858+02                *       
*                                                                       
TEMP*                  1              69 3.2315000858+02                *       
*                                                                       
TEMP*                  1              70 3.4315000858+02                *       
*                                                                       
TEMP*                  1              71 3.4315000858+02                *       
*                                                                       
$--1---><------2-------><------3-------><------4-------><------5-------><--6--->
$$$$$$$$$$$$$$$$$$$$$$$$$$$$$$$ node temperature $$$$$$$$$$$$$$$$$$$$$$$$$$$$$$$
TEMP*                  1              27       3.8315+02                *       
*                                                                       
TEMP*                  1              28       3.8315+02                *       
*                                                                       
TEMP*                  1              29       3.8315+02                *       
*                                                                       
TEMP*                  1              30       3.8315+02                *       
*                                                                       
TEMP*                  1              31       3.8315+02                *       
*                                                                       
TEMP*                  1              32       3.8315+02                *       
*                                                                       
TEMP*                  1              33       3.8315+02                *       
*                                                                       
TEMP*                  1              34       3.8315+02                *       
*                                                                       
TEMP*                  1               4       3.7315+02                *       
*                                                                       
TEMP*                  1               8       3.7315+02                *       
*                                                                       
TEMP*                  1              23       3.7315+02                *       
*                                                                       
$--1---><------2-------><------3-------><------4-------><------5-------><--6--->
TEMPD*                 1       2.8315+02                                *       
*                                                                       
$--1---><------2-------><------3-------><------4-------><------5-------><--6--->
ENDDATA
