$ Generated by Mecway 29
$-------------EXECUTIVE CONTROL SECTION-------------
SOL 101
CEND
$---------------CASE CONTROL SECTION----------------
DISPLACEMENT = ALL
$
  ACCELERATION(PRINT,PLOT) = ALL
  DISPLACEMENT(PRINT, PLOT) = ALL
  GPFORCE(PRINT, PLOT) = ALL
  MPCFORCES(PRINT, PLOT) = ALL
  OLOAD(PRINT, PLOT)= ALL
  SPCFORCES(PRINT, PLOT) = ALL
  FORCE(PRINT, PLOT) = ALL
  STRESS(PRINT, PLOT, CORNER)= ALL
  STRAIN(PRINT, PLOT, CORNER)= ALL
$
SPC = 1
LOAD = 1
BEGIN BULK
$-----------------BULK DATA SECTION-----------------
$
  PARAM, POST,-1
$
GRID*                  1               0          0.0+00          0.0+00*       
*                 0.0+00               0
GRID*                  2               0 8.6592745707-18 7.0710678119-02*       
*       -7.0710678119-02               0
GRID*                  3               0 1.0604202659-33 1.4142135624-01*       
*       -8.6592745707-18               0
GRID*                  4               0          0.0+00 7.0710678119-02*       
*        7.0710678119-02               0
GRID*                  5               0 4.3296372854-18 3.5355339059-02*       
*       -3.5355339059-02               0
GRID*                  6               0 4.3296372854-18 1.0606601718-01*       
*       -3.5355339059-02               0
GRID*                  7               0          0.0+00 1.0606601718-01*       
*        3.5355339059-02               0
GRID*                  8               0          0.0+00 3.5355339059-02*       
*        3.5355339059-02               0
GRID*                  9               0 4.2487067816-34 7.0710678119-02*       
*        -3.469446952-18               0
GRID*                 10               0          0.0+00 5.3033008589-02*       
*         1.767766953-02               0
GRID*                 11               0          0.0+00 8.8388347648-02*       
*         1.767766953-02               0
GRID*                 12               0          0.0+00 8.8388347648-02*       
*        5.3033008589-02               0
GRID*                 13               0          0.0+00 5.3033008589-02*       
*        5.3033008589-02               0
GRID*                 14               0          0.0+00 7.0710678119-02*       
*        3.5355339059-02               0
GRID*                 15               0 2.1648186427-18  1.767766953-02*       
*        -1.767766953-02               0
GRID*                 16               0 2.1648186427-18 5.3033008589-02*       
*        -1.767766953-02               0
GRID*                 17               0          0.0+00  1.767766953-02*       
*         1.767766953-02               0
GRID*                 18               0          0.0+00 3.5355339059-02*       
*                 0.0+00               0
GRID*                 19               0 4.3296372854-18 7.0710678119-02*       
*       -3.5355339059-02               0
GRID*                 20               0 2.1648186427-18 8.8388347648-02*       
*        -1.767766953-02               0
GRID*                 21               0 7.4264547202-34 1.0606601718-01*       
*       -6.0643607613-18               0
GRID*                 22               0          0.0+00 1.2374368671-01*       
*         1.767766953-02               0
GRID*                 23               0 2.1648186427-18 1.2374368671-01*       
*        -1.767766953-02               0
GRID*                 24               0  6.494455928-18 5.3033008589-02*       
*       -5.3033008589-02               0
GRID*                 25               0  6.494455928-18 8.8388347648-02*       
*       -5.3033008589-02               0
$--1---><------2-------><------3-------><------4-------><------5-------><--6--->
$$$$$$$$$$$$$$$$$$$$$$$$$$$$$$$$$$$ Material $$$$$$$$$$$$$$$$$$$$$$$$$$$$$$$$$$$
MAT1*                  1          1.0+11          5.0+10          0.0+00*       
*                 7.0+03          0.0+00          0.0+00
$--1---><------2-------><------3-------><------4-------><------5-------><--6--->
SPC*                   1               3               1          0.0+00*       
*                                                                       
SPC*                   1               3               2          0.0+00*       
*                                                                       
SPC*                   1               3               3          0.0+00*       
*                                                                       
SPC*                   1               3               4          0.0+00*       
*                                                                       
SPC*                   1               3               5          0.0+00*       
*                                                                       
SPC*                   1               3               6          0.0+00*       
*                                                                       
SPC*                   1               4               1          0.0+00*       
*                                                                       
SPC*                   1               4               2          0.0+00*       
*                                                                       
SPC*                   1               4               3          0.0+00*       
*                                                                       
SPC*                   1               4               4          0.0+00*       
*                                                                       
SPC*                   1               4               5          0.0+00*       
*                                                                       
SPC*                   1               4               6          0.0+00*       
*                                                                       
SPC*                   1               7               1          0.0+00*       
*                                                                       
SPC*                   1               7               2          0.0+00*       
*                                                                       
SPC*                   1               7               3          0.0+00*       
*                                                                       
SPC*                   1               7               4          0.0+00*       
*                                                                       
SPC*                   1               7               5          0.0+00*       
*                                                                       
SPC*                   1               7               6          0.0+00*       
*                                                                       
SPC*                   1              12               1          0.0+00*       
*                                                                       
SPC*                   1              12               2          0.0+00*       
*                                                                       
SPC*                   1              12               3          0.0+00*       
*                                                                       
SPC*                   1              12               4          0.0+00*       
*                                                                       
SPC*                   1              12               5          0.0+00*       
*                                                                       
SPC*                   1              12               6          0.0+00*       
*                                                                       
SPC*                   1              22               1          0.0+00*       
*                                                                       
SPC*                   1              22               2          0.0+00*       
*                                                                       
SPC*                   1              22               3          0.0+00*       
*                                                                       
SPC*                   1              22               4          0.0+00*       
*                                                                       
SPC*                   1              22               5          0.0+00*       
*                                                                       
SPC*                   1              22               6          0.0+00*       
*                                                                       
$--1---><------2-------><------3-------><------4-------><------5-------><--6--->
$$$$$$$$$$$$$$$$$$$$$$$$$$$$$$$$$$$ Default $$$$$$$$$$$$$$$$$$$$$$$$$$$$$$$$$$$$
PSHELL*                1               1          1.5-02               1*       
*                                      1                          0.0+00
CTRIA3*                1               1              21              23*       
*                      3          0.0+00          0.0+00
CTRIA3*                2               1              21              20*       
*                     23          0.0+00          0.0+00
CTRIA3*                3               1               5              24*       
*                     19          0.0+00          0.0+00
CTRIA3*                4               1              24               2*       
*                     25          0.0+00          0.0+00
CTRIA3*                5               1              19              25*       
*                      6          0.0+00          0.0+00
CTRIA3*                6               1              19              24*       
*                     25          0.0+00          0.0+00
CTRIA3*               15               1               5              19*       
*                     16          0.0+00          0.0+00
CTRIA3*               16               1              19               6*       
*                     20          0.0+00          0.0+00
CTRIA3*               17               1              16              20*       
*                      9          0.0+00          0.0+00
CTRIA3*               18               1              16              19*       
*                     20          0.0+00          0.0+00
CTRIA3*               19               1              21               9*       
*                     11          0.0+00          0.0+00
CTRIA3*               20               1              21               3*       
*                     22          0.0+00          0.0+00
CTRIA3*               21               1              22              11*       
*                      7          0.0+00          0.0+00
CTRIA3*               22               1              21              11*       
*                     22          0.0+00          0.0+00
CTRIA3*               23               1               9              20*       
*                     21          0.0+00          0.0+00
CTRIA3*               24               1              20               6*       
*                     23          0.0+00          0.0+00
PSHELL*                2               1          1.5-02               1*       
*                                      1                          0.0+00
CQUAD4*                7               2               8              10*       
*                     14              13          0.0+00          0.0+00
CQUAD4*                8               2               9              10*       
*                     14              11          0.0+00          0.0+00
CQUAD4*                9               2              14              11*       
*                      7              12          0.0+00          0.0+00
CQUAD4*               10               2              13              14*       
*                     12               4          0.0+00          0.0+00
CQUAD4*               11               2               1              15*       
*                     18              17          0.0+00          0.0+00
CQUAD4*               12               2              15               5*       
*                     16              18          0.0+00          0.0+00
CQUAD4*               13               2              16              18*       
*                     10               9 2.1621190791-47          0.0+00
CQUAD4*               14               2              17              18*       
*                     10               8          0.0+00          0.0+00
$--1---><------2-------><------3-------><------4-------><------5-------><--6--->
$$$$$$$$$$$$$$$$$$$$$$$$$$$$$$$$$$$$ force $$$$$$$$$$$$$$$$$$$$$$$$$$$$$$$$$$$$$
FORCE*                 1              21               0          1.0+00*       
*                 0.0+00        -6.25+04        -6.25+04
MOMENT*                1              21               0          1.0+00*       
*                 0.0+00       4.6875+02      -4.6875+02
FORCE*                 1              11               0          1.0+00*       
*                 0.0+00        -6.25+04        -6.25+04
MOMENT*                1              11               0          1.0+00*       
*                 0.0+00       4.6875+02      -4.6875+02
FORCE*                 1              22               0          1.0+00*       
*                 0.0+00       -3.125+04       -3.125+04
MOMENT*                1              22               0          1.0+00*       
*                 0.0+00      2.34375+02     -2.34375+02
FORCE*                 1               9               0          1.0+00*       
*                 0.0+00        -6.25+04        -6.25+04
MOMENT*                1               9               0          1.0+00*       
*                 0.0+00       4.6875+02      -4.6875+02
FORCE*                 1              20               0          1.0+00*       
*                 0.0+00        -6.25+04        -6.25+04
MOMENT*                1              20               0          1.0+00*       
*                 0.0+00       4.6875+02      -4.6875+02
FORCE*                 1              16               0          1.0+00*       
*                 0.0+00        -6.25+04        -6.25+04
MOMENT*                1              16               0          1.0+00*       
*                 0.0+00       4.6875+02      -4.6875+02
FORCE*                 1              18               0          1.0+00*       
*                 0.0+00        -6.25+04        -6.25+04
MOMENT*                1              18               0          1.0+00*       
*                 0.0+00       4.6875+02      -4.6875+02
FORCE*                 1              10               0          1.0+00*       
*                 0.0+00        -6.25+04        -6.25+04
MOMENT*                1              10               0          1.0+00*       
*                 0.0+00       4.6875+02      -4.6875+02
FORCE*                 1               7               0          1.0+00*       
*                 0.0+00-2.6041666667+04-2.6041666667+04
MOMENT*                1               7               0          1.0+00*       
*                 0.0+00     1.953125+02    -1.953125+02
FORCE*                 1              23               0          1.0+00*       
*                 0.0+00       -3.125+04       -3.125+04
MOMENT*                1              23               0          1.0+00*       
*                 0.0+00      2.34375+02     -2.34375+02
FORCE*                 1               3               0          1.0+00*       
*                 0.0+00-2.0833333333+04-2.0833333333+04
MOMENT*                1               3               0          1.0+00*       
*                 0.0+00       1.5625+02      -1.5625+02
FORCE*                 1              14               0          1.0+00*       
*                 0.0+00        -6.25+04        -6.25+04
MOMENT*                1              14               0          1.0+00*       
*                 0.0+00       4.6875+02      -4.6875+02
FORCE*                 1              12               0          1.0+00*       
*                 0.0+00       -3.125+04       -3.125+04
MOMENT*                1              12               0          1.0+00*       
*                 0.0+00      2.34375+02     -2.34375+02
FORCE*                 1               8               0          1.0+00*       
*                 0.0+00       -3.125+04       -3.125+04
MOMENT*                1               8               0          1.0+00*       
*                 0.0+00      2.34375+02     -2.34375+02
FORCE*                 1              13               0          1.0+00*       
*                 0.0+00       -3.125+04       -3.125+04
MOMENT*                1              13               0          1.0+00*       
*                 0.0+00      2.34375+02     -2.34375+02
FORCE*                 1              19               0          1.0+00*       
*                 0.0+00        -6.25+04        -6.25+04
MOMENT*                1              19               0          1.0+00*       
*                 0.0+00       4.6875+02      -4.6875+02
FORCE*                 1               6               0          1.0+00*       
*                 0.0+00       -3.125+04       -3.125+04
MOMENT*                1               6               0          1.0+00*       
*                 0.0+00      2.34375+02     -2.34375+02
FORCE*                 1              15               0          1.0+00*       
*                 0.0+00       -3.125+04       -3.125+04
MOMENT*                1              15               0          1.0+00*       
*                 0.0+00      2.34375+02     -2.34375+02
FORCE*                 1               5               0          1.0+00*       
*                 0.0+00-3.6458333333+04-3.6458333333+04
MOMENT*                1               5               0          1.0+00*       
*                 0.0+00     2.734375+02    -2.734375+02
FORCE*                 1              17               0          1.0+00*       
*                 0.0+00       -3.125+04       -3.125+04
MOMENT*                1              17               0          1.0+00*       
*                 0.0+00      2.34375+02     -2.34375+02
FORCE*                 1               4               0          1.0+00*       
*                 0.0+00      -1.5625+04      -1.5625+04
MOMENT*                1               4               0          1.0+00*       
*                 0.0+00     1.171875+02    -1.171875+02
FORCE*                 1               1               0          1.0+00*       
*                 0.0+00      -1.5625+04      -1.5625+04
MOMENT*                1               1               0          1.0+00*       
*                 0.0+00     1.171875+02    -1.171875+02
FORCE*                 1              24               0          1.0+00*       
*                 0.0+00       -3.125+04       -3.125+04
MOMENT*                1              24               0          1.0+00*       
*                 0.0+00      2.34375+02     -2.34375+02
FORCE*                 1              25               0          1.0+00*       
*                 0.0+00       -3.125+04       -3.125+04
MOMENT*                1              25               0          1.0+00*       
*                 0.0+00      2.34375+02     -2.34375+02
FORCE*                 1               2               0          1.0+00*       
*                 0.0+00-1.0416666667+04-1.0416666667+04
MOMENT*                1               2               0          1.0+00*       
*                 0.0+00       7.8125+01      -7.8125+01
$--1---><------2-------><------3-------><------4-------><------5-------><--6--->
ENDDATA
