$ Generated by Mecway 33
$-----------------------EXECUTIVE CONTROL SECTION-----------------------
SOL 101
CEND
$-------------------------CASE CONTROL SECTION--------------------------
DISPLACEMENT = ALL
STRESS(CORNER) = ALL
STRAIN(CORNER) = ALL
FORCE(CORNER) = ALL
SPC = 1
LOAD = 1
BEGIN BULK
$---------------------------BULK DATA SECTION---------------------------
GRID           1       0   1.0+0   0.0+0   0.0+0       0
GRID           2       0   1.0+0   1.0+0   0.0+0       0
GRID           3       0   0.0+0   1.0+0   0.0+0       0
GRID           4       0   0.0+0   0.0+0   0.0+0       0
GRID           5       0   1.0+0   2.0+0   0.0+0       0
GRID           6       0   1.0+0   3.0+0   0.0+0       0
GRID           7       0   0.0+0   3.0+0   0.0+0       0
GRID           8       0   0.0+0   2.0+0   0.0+0       0
GRID           9       0   1.0+0   4.0+0   0.0+0       0
GRID          10       0   1.0+0   5.0+0   0.0+0       0
GRID          11       0   0.0+0   5.0+0   0.0+0       0
GRID          12       0   0.0+0   4.0+0   0.0+0       0
GRID          13       0   1.0+0   6.0+0   0.0+0       0
GRID          14       0   1.0+0   7.0+0   0.0+0       0
GRID          15       0   0.0+0   7.0+0   0.0+0       0
GRID          16       0   0.0+0   6.0+0   0.0+0       0
PARAM    STR_CID      -2
$--1---><--2---><--3---><--4---><--5---><--6---><--7---><--8---><--9---><--10-->
$$$$$$$$$$$$$$$$$$$$$$$$$$$$$$$$$$$ Material $$$$$$$$$$$$$$$$$$$$$$$$$$$$$$$$$$$
MAT1           1   3.0+7   1.5+7   0.0+0   0.0+0   0.0+0   0.0+0
$--1---><--2---><--3---><--4---><--5---><--6---><--7---><--8---><--9---><--10-->
SPC            1       3       1   0.0+0
SPC            1       3       3   0.0+0
SPC            1       3       5   0.0+0
SPC            1       4       2   0.0+0
SPC            1       4       1   0.0+0
SPC            1       4       3   0.0+0
SPC            1       4       5   0.0+0
SPC            1       7       1   0.0+0
SPC            1       7       3   0.0+0
SPC            1       7       5   0.0+0
SPC            1       8       2   0.0+0
SPC            1       8       1   0.0+0
SPC            1       8       3   0.0+0
SPC            1       8       5   0.0+0
SPC            1      11       1   0.0+0
SPC            1      11       3   0.0+0
SPC            1      11       5   0.0+0
SPC            1      12       2   0.0+0
SPC            1      12       1   0.0+0
SPC            1      12       3   0.0+0
SPC            1      12       5   0.0+0
SPC            1      15       1   0.0+0
SPC            1      15       3   0.0+0
SPC            1      15       5   0.0+0
SPC            1      16       2   0.0+0
SPC            1      16       1   0.0+0
SPC            1      16       3   0.0+0
SPC            1      16       5   0.0+0
$--1---><--2---><--3---><--4---><--5---><--6---><--7---><--8---><--9---><--10-->
$$$$$$$$$$$$$$$$$$$$$$$$$$$$$$$$$$$ Default $$$$$$$$$$$$$$$$$$$$$$$$$$$$$$$$$$$$
PSHELL         1       1   2.0-2       1               1           0.0+0
CQUAD4         1       1       4       1       2       3   0.0+0   0.0+0
CQUAD4         2       1       5       6       7       8  -9.0+1   0.0+0
CQUAD4         3       1      11      12       9      10   9.0+1   0.0+0
CQUAD4         4       1      14      15      16      13   1.8+2   0.0+0
$--1---><--2---><--3---><--4---><--5---><--6---><--7---><--8---><--9---><--10-->
$$$$$$$$$$$$$$$$$$$$$$$$$$$$$$$$$$$$ force $$$$$$$$$$$$$$$$$$$$$$$$$$$$$$$$$$$$$
FORCE          2       2       0   1.0+0  -5.0-1   0.0+0   0.0+0
FORCE          2       6       0   1.0+0  -5.0-1   0.0+0   0.0+0
FORCE          2      10       0   1.0+0  -5.0-1   0.0+0   0.0+0
FORCE          2      14       0   1.0+0  -5.0-1   0.0+0   0.0+0
$--1---><--2---><--3---><--4---><--5---><--6---><--7---><--8---><--9---><--10-->
LOAD           1   1.0+0   1.0+0       2
PARAM,QUAD4TYP,MITC4+
ENDDATA 
