$ Generated by Mecway 33
$-----------------------EXECUTIVE CONTROL SECTION-----------------------
SOL 101
CEND
$-------------------------CASE CONTROL SECTION--------------------------
DISPLACEMENT = ALL
SPC = 1
LOAD = 1
BEGIN BULK
$---------------------------BULK DATA SECTION---------------------------
GRID           1       0   0.0+0   0.0+0   0.0+0       0
GRID           2       0   1.0+0   0.0+0   0.0+0       0
GRID           3       0   1.0+0   1.0+0   0.0+0       0
GRID           4       0   0.0+0   1.0+0   0.0+0       0
GRID           5       0   0.0+0   4.0+0   0.0+0       0
GRID           6       0   1.0+0   4.0+0   0.0+0       0
GRID           7       0   1.0+0   5.0+0   0.0+0       0
GRID           8       0   0.0+0   5.0+0   0.0+0       0
GRID           9       0   4.0+0   0.0+0   0.0+0       0
GRID          10       0   6.0+0   0.0+0   0.0+0       0
GRID          11       0   6.0+0   2.0+0   0.0+0       0
GRID          12       0   4.0+0   2.0+0   0.0+0       0
GRID          13       0   0.0+0   2.0+0   0.0+0       0
GRID          14       0   1.0+0   2.0+0   0.0+0       0
GRID          15       0   1.0+0   3.0+0   0.0+0       0
GRID          16       0   0.0+0   3.0+0   0.0+0       0
GRID          17       0   5.0-1   2.0+0   0.0+0       0
GRID          18       0   1.0+0   2.5+0   0.0+0       0
GRID          19       0   5.0-1   3.0+0   0.0+0       0
GRID          20       0   0.0+0   2.5+0   0.0+0       0
GRID          21       0   0.0+0   8.0+0   0.0+0       0
GRID*                 22               0 7.07106781187-1           8.0+0*
*       -7.07106781187-1               0
GRID*                 23               0 7.07106781187-1           9.0+0*
*       -7.07106781187-1               0
GRID          24       0   0.0+0   9.0+0   0.0+0       0
GRID          25       0   0.0+0   1.2+1   0.0+0       0
GRID*                 26               0 7.07106781187-1           1.2+1*
*       -7.07106781187-1               0
GRID*                 27               0 7.07106781187-1           1.3+1*
*       -7.07106781187-1               0
GRID          28       0   0.0+0   1.3+1   0.0+0       0
GRID*                 29               0 2.82842712475+0           8.0+0*
*       -2.82842712475+0               0
GRID*                 30               0 4.24264068712+0           8.0+0*
*       -4.24264068712+0               0
GRID*                 31               0 4.24264068712+0           1.0+1*
*       -4.24264068712+0               0
GRID*                 32               0 2.82842712475+0           1.0+1*
*       -2.82842712475+0               0
GRID          33       0   0.0+0   1.0+1   0.0+0       0
GRID*                 34               0 7.07106781187-1           1.0+1*
*       -7.07106781187-1               0
GRID*                 35               0 7.07106781187-1           1.1+1*
*       -7.07106781187-1               0
GRID          36       0   0.0+0   1.1+1   0.0+0       0
GRID*                 37               0 3.53553390593-1           1.0+1*
*       -3.53553390593-1               0
GRID*                 38               0 7.07106781187-1          1.05+1*
*       -7.07106781187-1               0
GRID*                 39               0 3.53553390593-1           1.1+1*
*       -3.53553390593-1               0
GRID          40       0   0.0+0  1.05+1   0.0+0       0
GRID          41       0   0.0+0   6.0+0   0.0+0       0
GRID          42       0   1.0+0   6.0+0   0.0+0       0
GRID          43       0   1.0+0   7.0+0   0.0+0       0
GRID          44       0   0.0+0   7.0+0   0.0+0       0
GRID          45       0   0.0+0   1.4+1   0.0+0       0
GRID*                 46               0 7.07106781187-1           1.4+1*
*       -7.07106781187-1               0
GRID*                 47               0 7.07106781187-1           1.5+1*
*       -7.07106781187-1               0
GRID          48       0   0.0+0   1.5+1   0.0+0       0
PARAM    STR_CID      -2
$--1---><--2---><--3---><--4---><--5---><--6---><--7---><--8---><--9---><--10-->
$$$$$$$$$$$$$$$$$$$$$$$$$$$$$$$$$ orthotropic $$$$$$$$$$$$$$$$$$$$$$$$$$$$$$$$$$
MAT8           4  1.0+11  1.0+11   0.0+0  6.0+10  5.0+10  5.0+10   0.0+0+
+          0.0+0   0.0+0   0.0+0
$--1---><--2---><--3---><--4---><--5---><--6---><--7---><--8---><--9---><--10-->
$$$$$$$$$$$$$$$$$$$$$$$$$$$$$$$$$$ isotropic $$$$$$$$$$$$$$$$$$$$$$$$$$$$$$$$$$$
MAT1           3  1.2+11  6.0+10   0.0+0   0.0+0   0.0+0   0.0+0
$--1---><--2---><--3---><--4---><--5---><--6---><--7---><--8---><--9---><--10-->
$$$$$$$$$$$$$$$$$$$$$$$$$$$$$$$$$$ composite $$$$$$$$$$$$$$$$$$$$$$$$$$$$$$$$$$$
MAT8           1  1.0+11  1.0+11   0.0+0  6.0+10  5.0+10  5.0+10   0.0+0+
+          0.0+0   0.0+0   0.0+0
MAT8           2  1.0+11  1.0+11   0.0+0  6.0+10  5.0+10  5.0+10   0.0+0+
+          0.0+0   0.0+0   0.0+0
$--1---><--2---><--3---><--4---><--5---><--6---><--7---><--8---><--9---><--10-->
SPC            1       1       1   0.0+0
SPC            1       1       2   0.0+0
SPC            1       1       3   0.0+0
SPC            1       1       4   0.0+0
SPC            1       1       5   0.0+0
SPC            1       1       6   0.0+0
SPC            1       4       1   0.0+0
SPC            1       4       2   0.0+0
SPC            1       4       3   0.0+0
SPC            1       4       4   0.0+0
SPC            1       4       5   0.0+0
SPC            1       4       6   0.0+0
SPC            1       5       1   0.0+0
SPC            1       5       2   0.0+0
SPC            1       5       3   0.0+0
SPC            1       5       4   0.0+0
SPC            1       5       5   0.0+0
SPC            1       5       6   0.0+0
SPC            1       8       1   0.0+0
SPC            1       8       2   0.0+0
SPC            1       8       3   0.0+0
SPC            1       8       4   0.0+0
SPC            1       8       5   0.0+0
SPC            1       8       6   0.0+0
SPC            1       9       1   0.0+0
SPC            1       9       2   0.0+0
SPC            1       9       3   0.0+0
SPC            1       9       4   0.0+0
SPC            1       9       5   0.0+0
SPC            1       9       6   0.0+0
SPC            1      12       1   0.0+0
SPC            1      12       2   0.0+0
SPC            1      12       3   0.0+0
SPC            1      12       4   0.0+0
SPC            1      12       5   0.0+0
SPC            1      12       6   0.0+0
SPC            1      13       1   0.0+0
SPC            1      13       2   0.0+0
SPC            1      13       3   0.0+0
SPC            1      13       4   0.0+0
SPC            1      13       5   0.0+0
SPC            1      13       6   0.0+0
SPC            1      16       1   0.0+0
SPC            1      16       2   0.0+0
SPC            1      16       3   0.0+0
SPC            1      16       4   0.0+0
SPC            1      16       5   0.0+0
SPC            1      16       6   0.0+0
SPC            1      20       1   0.0+0
SPC            1      20       2   0.0+0
SPC            1      20       3   0.0+0
SPC            1      20       4   0.0+0
SPC            1      20       5   0.0+0
SPC            1      20       6   0.0+0
SPC            1      21       1   0.0+0
SPC            1      21       2   0.0+0
SPC            1      21       3   0.0+0
SPC            1      21       4   0.0+0
SPC            1      21       5   0.0+0
SPC            1      21       6   0.0+0
SPC            1      24       1   0.0+0
SPC            1      24       2   0.0+0
SPC            1      24       3   0.0+0
SPC            1      24       4   0.0+0
SPC            1      24       5   0.0+0
SPC            1      24       6   0.0+0
SPC            1      25       1   0.0+0
SPC            1      25       2   0.0+0
SPC            1      25       3   0.0+0
SPC            1      25       4   0.0+0
SPC            1      25       5   0.0+0
SPC            1      25       6   0.0+0
SPC            1      28       1   0.0+0
SPC            1      28       2   0.0+0
SPC            1      28       3   0.0+0
SPC            1      28       4   0.0+0
SPC            1      28       5   0.0+0
SPC            1      28       6   0.0+0
SPC            1      29       1   0.0+0
SPC            1      29       2   0.0+0
SPC            1      29       3   0.0+0
SPC            1      29       4   0.0+0
SPC            1      29       5   0.0+0
SPC            1      29       6   0.0+0
SPC            1      32       1   0.0+0
SPC            1      32       2   0.0+0
SPC            1      32       3   0.0+0
SPC            1      32       4   0.0+0
SPC            1      32       5   0.0+0
SPC            1      32       6   0.0+0
SPC            1      33       1   0.0+0
SPC            1      33       2   0.0+0
SPC            1      33       3   0.0+0
SPC            1      33       4   0.0+0
SPC            1      33       5   0.0+0
SPC            1      33       6   0.0+0
SPC            1      36       1   0.0+0
SPC            1      36       2   0.0+0
SPC            1      36       3   0.0+0
SPC            1      36       4   0.0+0
SPC            1      36       5   0.0+0
SPC            1      36       6   0.0+0
SPC            1      40       1   0.0+0
SPC            1      40       2   0.0+0
SPC            1      40       3   0.0+0
SPC            1      40       4   0.0+0
SPC            1      40       5   0.0+0
SPC            1      40       6   0.0+0
SPC            1      41       1   0.0+0
SPC            1      41       2   0.0+0
SPC            1      41       3   0.0+0
SPC            1      41       4   0.0+0
SPC            1      41       5   0.0+0
SPC            1      41       6   0.0+0
SPC            1      44       1   0.0+0
SPC            1      44       2   0.0+0
SPC            1      44       3   0.0+0
SPC            1      44       4   0.0+0
SPC            1      44       5   0.0+0
SPC            1      44       6   0.0+0
SPC            1      45       1   0.0+0
SPC            1      45       2   0.0+0
SPC            1      45       3   0.0+0
SPC            1      45       4   0.0+0
SPC            1      45       5   0.0+0
SPC            1      45       6   0.0+0
SPC            1      48       1   0.0+0
SPC            1      48       2   0.0+0
SPC            1      48       3   0.0+0
SPC            1      48       4   0.0+0
SPC            1      48       5   0.0+0
SPC            1      48       6   0.0+0
$--1---><--2---><--3---><--4---><--5---><--6---><--7---><--8---><--9---><--10-->
$$$$$$$$$$$$$$$$$$$$$$$$$$$$$$$$$$$ Default $$$$$$$$$$$$$$$$$$$$$$$$$$$$$$$$$$$$
PSHELL         1       4   1.5-2       4               4           0.0+0
CQUAD4         1       1       1       2       3       4   0.0+0   0.0+0
CQUAD4         4       1       9      10      11      12   0.0+0   0.0+0
CQUAD4         6       1      21      22      23      24   0.0+0   0.0+0
CQUAD4         9       1      29      30      31      32   0.0+0   0.0+0
PSHELL         2       4   1.5-2       4               4           0.0+0
CTRIA3         2       2       5       6       7   0.0+0   0.0+0
CTRIA3         3       2       5       7       8   0.0+0   0.0+0
CTRIA3         7       2      25      26      27   0.0+0   0.0+0
CTRIA3         8       2      25      27      28   0.0+0   0.0+0
$--1---><--2---><--3---><--4---><--5---><--6---><--7---><--8---><--9---><--10-->
$$$$$$$$$$$$$$$$$$$$$$$$$$$$$$$$$$ Component $$$$$$$$$$$$$$$$$$$$$$$$$$$$$$$$$$$
PSHELL         3       3   1.5-2       3               3           0.0+0
CQUAD8         5       3      13      14      15      16      17      18+
+             19      20                                       4   0.0+0
CORD2R         4       0   0.0+0   0.0+0   0.0+0   0.0+0   1.0+0   0.0+0+
+          1.0+0   0.0+0   0.0+0
CQUAD8        10       3      33      34      35      36      37      38+
+             39      40                                       5   0.0+0
CORD2R*                5               0           0.0+0           0.0+0*
*                  0.0+0           0.0+0           1.0+0           0.0+0*
*        7.07106781187-1           0.0+0-7.07106781187-1                *
*
$--1---><--2---><--3---><--4---><--5---><--6---><--7---><--8---><--9---><--10-->
$$$$$$$$$$$$$$$$$$$$$$$$$$$$$$$$$ Component(2) $$$$$$$$$$$$$$$$$$$$$$$$$$$$$$$$$
PCOMP          6                                   0.0+0                +
+              1   1.0-2   0.0+0               2   5.0-3   0.0+0        
CQUAD4        11       6      41      42      43      44   0.0+0   0.0+0
CQUAD4        12       6      45      46      47      48   0.0+0   0.0+0
$--1---><--2---><--3---><--4---><--5---><--6---><--7---><--8---><--9---><--10-->
$$$$$$$$$$$$$$$$$$$$$$$$$$$$$$$$$$$$ moment $$$$$$$$$$$$$$$$$$$$$$$$$$$$$$$$$$$$
MOMENT         2       7       0   1.0+0   0.0+0   0.0+0   1.0+0
$--1---><--2---><--3---><--4---><--5---><--6---><--7---><--8---><--9---><--10-->
$$$$$$$$$$$$$$$$$$$$$$$$$$$$$$$$$$$$ moment $$$$$$$$$$$$$$$$$$$$$$$$$$$$$$$$$$$$
MOMENT         2       3       0   1.0+0   0.0+0   0.0+0   1.0+0
$--1---><--2---><--3---><--4---><--5---><--6---><--7---><--8---><--9---><--10-->
$$$$$$$$$$$$$$$$$$$$$$$$$$$$$$$$$$$$ moment $$$$$$$$$$$$$$$$$$$$$$$$$$$$$$$$$$$$
MOMENT         2      11       0   1.0+0   0.0+0   0.0+0   4.0+0
$--1---><--2---><--3---><--4---><--5---><--6---><--7---><--8---><--9---><--10-->
$$$$$$$$$$$$$$$$$$$$$$$$$$$$$$$$$$$$ moment $$$$$$$$$$$$$$$$$$$$$$$$$$$$$$$$$$$$
MOMENT         2      18       0   1.0+0   0.0+0   0.0+0   1.0+0
$--1---><--2---><--3---><--4---><--5---><--6---><--7---><--8---><--9---><--10-->
$$$$$$$$$$$$$$$$$$$$$$$$$$$$$$$$$$$$ moment $$$$$$$$$$$$$$$$$$$$$$$$$$$$$$$$$$$$
MOMENT*                2              23               0           1.0+0*
*        7.07106781187-1           0.0+0 7.07106781187-1
$--1---><--2---><--3---><--4---><--5---><--6---><--7---><--8---><--9---><--10-->
$$$$$$$$$$$$$$$$$$$$$$$$$$$$$$$$$$$$ moment $$$$$$$$$$$$$$$$$$$$$$$$$$$$$$$$$$$$
MOMENT*                2              38               0           1.0+0*
*        7.07106781187-1           0.0+0 7.07106781187-1
$--1---><--2---><--3---><--4---><--5---><--6---><--7---><--8---><--9---><--10-->
$$$$$$$$$$$$$$$$$$$$$$$$$$$$$$$$$$$$ moment $$$$$$$$$$$$$$$$$$$$$$$$$$$$$$$$$$$$
MOMENT*                2              27               0           1.0+0*
*        7.07106781187-1           0.0+0 7.07106781187-1
$--1---><--2---><--3---><--4---><--5---><--6---><--7---><--8---><--9---><--10-->
$$$$$$$$$$$$$$$$$$$$$$$$$$$$$$$$$$$$ moment $$$$$$$$$$$$$$$$$$$$$$$$$$$$$$$$$$$$
MOMENT*                2              31               0           1.0+0*
*        2.82842712475+0           0.0+0 2.82842712475+0
$--1---><--2---><--3---><--4---><--5---><--6---><--7---><--8---><--9---><--10-->
$$$$$$$$$$$$$$$$$$$$$$$$$$$$$$$$$$$$ moment $$$$$$$$$$$$$$$$$$$$$$$$$$$$$$$$$$$$
MOMENT         2      43       0   1.0+0   0.0+0   0.0+0   1.0+0
$--1---><--2---><--3---><--4---><--5---><--6---><--7---><--8---><--9---><--10-->
$$$$$$$$$$$$$$$$$$$$$$$$$$$$$$$$$$$$ moment $$$$$$$$$$$$$$$$$$$$$$$$$$$$$$$$$$$$
MOMENT*                2              47               0           1.0+0*
*        7.07106781187-1           0.0+0 7.07106781187-1
$--1---><--2---><--3---><--4---><--5---><--6---><--7---><--8---><--9---><--10-->
LOAD           1   1.0+0   1.0+0       2
PARAM,K6ROT,10.0
ENDDATA 
