$ Generated by Mecway 33
$-----------------------EXECUTIVE CONTROL SECTION-----------------------
SOL 101
CEND
$-------------------------CASE CONTROL SECTION--------------------------
DISPLACEMENT = ALL
STRESS(CORNER) = ALL
SPC = 1
LOAD = 1
BEGIN BULK
$---------------------------BULK DATA SECTION---------------------------
GRID           1       0   0.0+0   0.0+0   0.0+0       0
GRID           2       0   2.0-1   0.0+0   0.0+0       0
GRID           3       0   2.0-1   2.0-1   0.0+0       0
GRID           4       0   0.0+0   2.0-1   0.0+0       0
GRID           5       0   7.0-1   0.0+0   0.0+0       0
GRID           6       0   9.0-1   0.0+0   0.0+0       0
GRID           7       0   9.0-1   2.0-1   0.0+0       0
GRID           8       0   7.0-1   2.0-1   0.0+0       0
GRID           9       0   0.0+0   8.0-2   0.0+0       0
GRID          10       0   2.0-1   1.2-1   0.0+0       0
PARAM    STR_CID      -2
$--1---><--2---><--3---><--4---><--5---><--6---><--7---><--8---><--9---><--10-->
$$$$$$$$$$$$$$$$$$$$$$$$$$$$$$$$$$$ Material $$$$$$$$$$$$$$$$$$$$$$$$$$$$$$$$$$$
MAT1           1  2.0+11  1.0+11   0.0+0   0.0+0   0.0+0   0.0+0
$--1---><--2---><--3---><--4---><--5---><--6---><--7---><--8---><--9---><--10-->
SPC            1       1       1   0.0+0
SPC            1       1       2   0.0+0
SPC            1       1       3   0.0+0
SPC            1       1       4   0.0+0
SPC            1       1       5   0.0+0
SPC            1       1       6   0.0+0
SPC            1       4       1   0.0+0
SPC            1       4       2   0.0+0
SPC            1       4       3   0.0+0
SPC            1       4       4   0.0+0
SPC            1       4       5   0.0+0
SPC            1       4       6   0.0+0
SPC            1       5       1   0.0+0
SPC            1       5       2   0.0+0
SPC            1       5       3   0.0+0
SPC            1       5       4   0.0+0
SPC            1       5       5   0.0+0
SPC            1       5       6   0.0+0
SPC            1       8       1   0.0+0
SPC            1       8       2   0.0+0
SPC            1       8       3   0.0+0
SPC            1       8       4   0.0+0
SPC            1       8       5   0.0+0
SPC            1       8       6   0.0+0
SPC            1       9       1   0.0+0
SPC            1       9       2   0.0+0
SPC            1       9       3   0.0+0
SPC            1       9       4   0.0+0
SPC            1       9       5   0.0+0
SPC            1       9       6   0.0+0
$--1---><--2---><--3---><--4---><--5---><--6---><--7---><--8---><--9---><--10-->
$$$$$$$$$$$$$$$$$$$$$$$$$$$$$$$$$$$ Default $$$$$$$$$$$$$$$$$$$$$$$$$$$$$$$$$$$$
PSHELL         1       1   8.0-2       1               1           0.0+0
CQUAD4*                1               1               9              10*
*                      3               4  3.3690067526+1           0.0+0
CQUAD4         4       1       1       2      10       9   4.5+1   0.0+0
PSHELL         2       1   8.0-2       1               1           0.0+0
CTRIA3*                2               2               5               7*
*                      8 1.2722218726-14           0.0+0
CTRIA3         3       2       5       6       7   4.5+1   0.0+0
$--1---><--2---><--3---><--4---><--5---><--6---><--7---><--8---><--9---><--10-->
$$$$$$$$$$$$$$$$$$$$$$$$$$$$$$$$$$$$ force $$$$$$$$$$$$$$$$$$$$$$$$$$$$$$$$$$$$$
FORCE          2       6       0   1.0+0   2.5+3   0.0+0   0.0+0
FORCE          2       7       0   1.0+0   2.5+3   0.0+0   0.0+0
FORCE          2       2       0   1.0+0   1.5+3   0.0+0   0.0+0
FORCE          2      10       0   1.0+0   2.5+3   0.0+0   0.0+0
FORCE          2       3       0   1.0+0   1.0+3   0.0+0   0.0+0
$--1---><--2---><--3---><--4---><--5---><--6---><--7---><--8---><--9---><--10-->
LOAD           1   1.0+0   1.0+0       2
ENDDATA 
