$ Generated by Mecway 33
$-----------------------EXECUTIVE CONTROL SECTION-----------------------
SOL 101
CEND
$-------------------------CASE CONTROL SECTION--------------------------
DISPLACEMENT = ALL
SPC = 1
TEMPERATURE = 4
BEGIN BULK
$---------------------------BULK DATA SECTION---------------------------
GRID*                  1               0 2.4492127076-16           0.0+0*
*                 -2.0+0               0
GRID*                  2               0 3.6738190615-16           0.0+0*
*                 -3.0+0               0
GRID*                  3               0 3.6738190615-16           1.0+0*
*                 -3.0+0               1
GRID*                  4               0 2.4492127076-16           1.0+0*
*                 -2.0+0               0
GRID*                  5               0 3.0615158846-16           0.0+0*
*                 -2.5+0               0
GRID*                  6               0 3.6738190615-16 4.36314374208-1*
*                 -3.0+0               0
GRID*                  7               0 2.9835260991-16           1.0+0*
*       -2.43631440401+0               0
GRID*                  8               0 2.4492127076-16 4.45412307978-1*
*                 -2.0+0               0
GRID*                  9               0 2.9111070438-16 5.72783470154-1*
*       -2.37717780471+0               0
GRID*                 10               0 2.6608172459-16 4.83825802803-1*
*       -2.17279392481+0               0
GRID*                 11               0 2.9473165714-16 7.86391735077-1*
*       -2.40674610436+0               0
GRID*                 12               0 2.7163694034-16           1.0+0*
*       -2.21815720201+0               0
GRID*                 13               0 2.4492127076-16 7.22706153989-1*
*                 -2.0+0               0
GRID*                 14               0 2.6982646395-16 7.54548944533-1*
*       -2.20337305218+0               0
GRID*                 15               0 2.7553642961-16           0.0+0*
*                -2.25+0               0
GRID*                 16               0 2.9863114642-16 2.86391735077-1*
*       -2.43858890235+0               0
GRID*                 17               0 2.4492127076-16 2.22706153989-1*
*                 -2.0+0               0
GRID*                 18               0  2.667471126-16 2.35594883561-1*
*       -2.17822740972+0               0
GRID*                 19               0  3.367667473-16 2.18157187104-1*
*                -2.75+0               0
GRID*                 20               0 3.2653833197-16  5.8036506176-1*
*       -2.66647589207+0               0
GRID*                 21               0 3.6738190615-16 7.18157187104-1*
*                 -3.0+0               0
GRID*                 22               0 3.3286725803-16           1.0+0*
*       -2.71815720201+0               0
GRID*                 23               0 3.3105678165-16 7.52274461091-1*
*       -2.70337305218+0               0
GRID*                 24               0  3.367667473-16           0.0+0*
*                -2.75+0               0
GRID*                 25               0 3.6738190615-16 2.18157187104-1*
*                 -3.0+0               0
GRID          26       0   0.0+0   0.0+0   0.0+0       0
GRID*                 27               0 1.2246063538-16           0.0+0*
*                 -1.0+0               0
GRID*                 28               0 1.2246063538-16           1.0+0*
*                 -1.0+0               1
GRID          29       0   0.0+0   1.0+0   0.0+0       0
GRID*                 30               0 6.1230317691-17           0.0+0*
*                 -5.0-1               0
GRID*                 31               0 1.2246063538-16 4.36314374208-1*
*                 -1.0+0               0
GRID*                 32               0 5.3431339142-17           1.0+0*
*       -4.36314404011-1               0
GRID*                 33               0           0.0+0 4.45412307978-1*
*                  0.0+0               0
GRID*                 34               0 4.6189433617-17 5.72783470154-1*
*       -3.77177804708-1               0
GRID*                 35               0 2.1160453822-17 4.83825802803-1*
*       -1.72793924809-1               0
GRID*                 36               0 4.9810386379-17 7.86391735077-1*
*        -4.0674610436-1               0
GRID*                 37               0 2.6715669571-17           1.0+0*
*       -2.18157202005-1               0
GRID*                 38               0           0.0+0 7.22706153989-1*
*                  0.0+0               0
GRID*                 39               0  2.490519319-17 7.54548944533-1*
*        -2.0337305218-1               0
GRID*                 40               0 3.0615158846-17           0.0+0*
*                 -2.5-1               0
GRID*                 41               0 5.3709875654-17 2.86391735077-1*
*       -4.38588902354-1               0
GRID*                 42               0           0.0+0 2.22706153989-1*
*                  0.0+0               0
GRID*                 43               0 2.1825841837-17 2.35594883561-1*
*        -1.7822740972-1               0
GRID*                 44               0 9.1845476537-17 2.18157187104-1*
*                 -7.5-1               0
GRID*                 45               0 8.1617061209-17  5.8036506176-1*
*       -6.66475892067-1               0
GRID*                 46               0 1.2246063538-16 7.18157187104-1*
*                 -1.0+0               0
GRID*                 47               0 8.7945987262-17           1.0+0*
*       -7.18157202005-1               0
GRID*                 48               0 8.6135510881-17 7.52274461091-1*
*        -7.0337305218-1               0
GRID*                 49               0 9.1845476537-17           0.0+0*
*                 -7.5-1               0
GRID*                 50               0 1.2246063538-16 2.18157187104-1*
*                 -1.0+0               0
PARAM    STR_CID      -2
$--1---><--2---><--3---><--4---><--5---><--6---><--7---><--8---><--9---><--10-->
$$$$$$$$$$$$$$$$$$$$$$$$$$$$$$$$$$$$ ortho $$$$$$$$$$$$$$$$$$$$$$$$$$$$$$$$$$$$$
MAT8*                  1          2.0+11          2.0+11           0.0+0*
*                 1.0+11          1.0+11          1.0+11           0.0+0*
*                  1.1+0           2.5+0        2.7315+2                *
*
$--1---><--2---><--3---><--4---><--5---><--6---><--7---><--8---><--9---><--10-->
CORD2R*                1               0           0.0+0           0.0+0*
*                  0.0+0           0.0+0-7.07106781187-1 7.07106781187-1*
*                  1.0+0           0.0+0           0.0+0                *
*
SPC            1       1       1   0.0+0
SPC            1       1       2   0.0+0
SPC            1       1       3   0.0+0
SPC            1       3       2   0.0+0
SPC            1       3       1   0.0+0
SPC            1       4       1   0.0+0
SPC            1      26       1   0.0+0
SPC            1      26       2   0.0+0
SPC            1      26       3   0.0+0
SPC            1      28       2   0.0+0
SPC            1      28       1   0.0+0
SPC            1      29       1   0.0+0
$--1---><--2---><--3---><--4---><--5---><--6---><--7---><--8---><--9---><--10-->
$$$$$$$$$$$$$$$$$$$$$$$$$$$$$$$$$$$ Default $$$$$$$$$$$$$$$$$$$$$$$$$$$$$$$$$$$$
PSHELL         2       1   3.0-1       1               1           0.0+0
CQUAD4         1       2      13      14      12       4       3   0.0+0
CORD2R*                3               0           0.0+0           0.0+0*
*                  0.0+0  9.9503719021-2  9.9503719021-1           0.0+0*
*                  1.0+1          -1.0+0          -1.0+0                *
*
CQUAD4         2       2       1      15      18      17       4   0.0+0
CORD2R*                4               0           0.0+0           0.0+0*
*                  0.0+0  9.9503719021-2  9.9503719021-1           0.0+0*
*                  1.0+1          -1.0+0          -1.0+0                *
*
CQUAD4         3       2      15       5      16      18       5   0.0+0
CORD2R*                5               0           0.0+0           0.0+0*
*                  0.0+0  9.9503719021-2  9.9503719021-1           0.0+0*
*                  1.0+1          -1.0+0          -1.0+0                *
*
CQUAD4         4       2      10      18      16       9       6   0.0+0
CORD2R*                6               0           0.0+0           0.0+0*
*                  0.0+0  9.9503719021-2  9.9503719021-1           0.0+0*
*                  1.0+1          -1.0+0          -1.0+0                *
*
CQUAD4         5       2      17      18      10       8       7   0.0+0
CORD2R*                7               0           0.0+0           0.0+0*
*                  0.0+0  9.9503719021-2  9.9503719021-1           0.0+0*
*                  1.0+1          -1.0+0          -1.0+0                *
*
CQUAD4        10       2       9      20      23      11       8   0.0+0
CORD2R*                8               0           0.0+0           0.0+0*
*                  0.0+0  9.9503719021-2  9.9503719021-1           0.0+0*
*                  1.0+1          -1.0+0          -1.0+0                *
*
CQUAD4        11       2      20       6      21      23       9   0.0+0
CORD2R*                9               0           0.0+0           0.0+0*
*                  0.0+0  9.9503719021-2  9.9503719021-1           0.0+0*
*                  1.0+1          -1.0+0          -1.0+0                *
*
CQUAD4        12       2      23      21       3      22      10   0.0+0
CORD2R*               10               0           0.0+0           0.0+0*
*                  0.0+0  9.9503719021-2  9.9503719021-1           0.0+0*
*                  1.0+1          -1.0+0          -1.0+0                *
*
CQUAD4        17       2      16       5      24      19      11   0.0+0
CORD2R*               11               0           0.0+0           0.0+0*
*                  0.0+0  9.9503719021-2  9.9503719021-1           0.0+0*
*                  1.0+1          -1.0+0          -1.0+0                *
*
CQUAD4        18       2      24       2      25      19      12   0.0+0
CORD2R*               12               0           0.0+0           0.0+0*
*                  0.0+0  9.9503719021-2  9.9503719021-1           0.0+0*
*                  1.0+1          -1.0+0          -1.0+0                *
*
CQUAD4        19       2      25       6      20      19      13   0.0+0
CORD2R*               13               0           0.0+0           0.0+0*
*                  0.0+0  9.9503719021-2  9.9503719021-1           0.0+0*
*                  1.0+1          -1.0+0          -1.0+0                *
*
CQUAD4        20       2      20       9      16      19      14   0.0+0
CORD2R*               14               0           0.0+0           0.0+0*
*                  0.0+0  9.9503719021-2  9.9503719021-1           0.0+0*
*                  1.0+1          -1.0+0          -1.0+0                *
*
CQUAD4        41       2      11      23      22       7      15   0.0+0
CORD2R*               15               0           0.0+0           0.0+0*
*                  0.0+0  9.9503719021-2  9.9503719021-1           0.0+0*
*                  1.0+1          -1.0+0          -1.0+0                *
*
CQUAD4        46       2       8      10      14      13      16   0.0+0
CORD2R*               16               0           0.0+0           0.0+0*
*                  0.0+0  9.9503719021-2  9.9503719021-1           0.0+0*
*                  1.0+1          -1.0+0          -1.0+0                *
*
CQUAD4        47       2      14      10       9      11      17   0.0+0
CORD2R*               17               0           0.0+0           0.0+0*
*                  0.0+0  9.9503719021-2  9.9503719021-1           0.0+0*
*                  1.0+1          -1.0+0          -1.0+0                *
*
CQUAD4        48       2      14      11       7      12      18   0.0+0
CORD2R*               18               0           0.0+0           0.0+0*
*                  0.0+0  9.9503719021-2  9.9503719021-1           0.0+0*
*                  1.0+1          -1.0+0          -1.0+0                *
*
PSHELL        19       1   3.0-1       1               1           0.0+0
CTRIA3         6      19      42      43      35      20   0.0+0
CORD2R*               20               0           0.0+0           0.0+0*
*                  0.0+0  9.9503719021-2  9.9503719021-1           0.0+0*
*                  1.0+1          -1.0+0          -1.0+0                *
*
CTRIA3         7      19      34      45      48      21   0.0+0
CORD2R*               21               0           0.0+0           0.0+0*
*                  0.0+0  9.9503719021-2  9.9503719021-1           0.0+0*
*                  1.0+1          -1.0+0          -1.0+0                *
*
CTRIA3         8      19      45      31      46      22   0.0+0
CORD2R*               22               0           0.0+0           0.0+0*
*                  0.0+0  9.9503719021-2  9.9503719021-1           0.0+0*
*                  1.0+1          -1.0+0          -1.0+0                *
*
CTRIA3         9      19      48      46      28      23   0.0+0
CORD2R*               23               0           0.0+0           0.0+0*
*                  0.0+0  9.9503719021-2  9.9503719021-1           0.0+0*
*                  1.0+1          -1.0+0          -1.0+0                *
*
CTRIA3        13      19      36      48      47      24   0.0+0
CORD2R*               24               0           0.0+0           0.0+0*
*                  0.0+0  9.9503719021-2  9.9503719021-1           0.0+0*
*                  1.0+1          -1.0+0          -1.0+0                *
*
CTRIA3        14      19      33      35      39      25   0.0+0
CORD2R*               25               0           0.0+0           0.0+0*
*                  0.0+0  9.9503719021-2  9.9503719021-1           0.0+0*
*                  1.0+1          -1.0+0          -1.0+0                *
*
CTRIA3        15      19      39      35      34      26   0.0+0
CORD2R*               26               0           0.0+0           0.0+0*
*                  0.0+0  9.9503719021-2  9.9503719021-1           0.0+0*
*                  1.0+1          -1.0+0          -1.0+0                *
*
CTRIA3        16      19      39      36      32      27   0.0+0
CORD2R*               27               0           0.0+0           0.0+0*
*                  0.0+0  9.9503719021-2  9.9503719021-1           0.0+0*
*                  1.0+1          -1.0+0          -1.0+0                *
*
CTRIA3        21      19      36      47      32      28   0.0+0
CORD2R*               28               0           0.0+0           0.0+0*
*                  0.0+0  9.9503719021-2  9.9503719021-1           0.0+0*
*                  1.0+1          -1.0+0          -1.0+0                *
*
CTRIA3        22      19      44      30      49      29   0.0+0
CORD2R*               29               0           0.0+0           0.0+0*
*                  0.0+0  9.9503719021-2  9.9503719021-1           0.0+0*
*                  1.0+1          -1.0+0          -1.0+0                *
*
CTRIA3        23      19      49      27      50      30   0.0+0
CORD2R*               30               0           0.0+0           0.0+0*
*                  0.0+0  9.9503719021-2  9.9503719021-1           0.0+0*
*                  1.0+1          -1.0+0          -1.0+0                *
*
CTRIA3        24      19      44      50      31      31   0.0+0
CORD2R*               31               0           0.0+0           0.0+0*
*                  0.0+0  9.9503719021-2  9.9503719021-1           0.0+0*
*                  1.0+1          -1.0+0          -1.0+0                *
*
CTRIA3        25      19      44      49      50      32   0.0+0
CORD2R*               32               0           0.0+0           0.0+0*
*                  0.0+0  9.9503719021-2  9.9503719021-1           0.0+0*
*                  1.0+1          -1.0+0          -1.0+0                *
*
CTRIA3        26      19      33      39      38      33   0.0+0
CORD2R*               33               0           0.0+0           0.0+0*
*                  0.0+0  9.9503719021-2  9.9503719021-1           0.0+0*
*                  1.0+1          -1.0+0          -1.0+0                *
*
CTRIA3        27      19      39      34      36      34   0.0+0
CORD2R*               34               0           0.0+0           0.0+0*
*                  0.0+0  9.9503719021-2  9.9503719021-1           0.0+0*
*                  1.0+1          -1.0+0          -1.0+0                *
*
CTRIA3        28      19      39      32      37      35   0.0+0
CORD2R*               35               0           0.0+0           0.0+0*
*                  0.0+0  9.9503719021-2  9.9503719021-1           0.0+0*
*                  1.0+1          -1.0+0          -1.0+0                *
*
CTRIA3        29      19      38      37      29      36   0.0+0
CORD2R*               36               0           0.0+0           0.0+0*
*                  0.0+0  9.9503719021-2  9.9503719021-1           0.0+0*
*                  1.0+1          -1.0+0          -1.0+0                *
*
CTRIA3        30      19      26      43      42      37   0.0+0
CORD2R*               37               0           0.0+0           0.0+0*
*                  0.0+0  9.9503719021-2  9.9503719021-1           0.0+0*
*                  1.0+1          -1.0+0          -1.0+0                *
*
CTRIA3        31      19      40      41      43      38   0.0+0
CORD2R*               38               0           0.0+0           0.0+0*
*                  0.0+0  9.9503719021-2  9.9503719021-1           0.0+0*
*                  1.0+1          -1.0+0          -1.0+0                *
*
CTRIA3        32      19      35      41      34      39   0.0+0
CORD2R*               39               0           0.0+0           0.0+0*
*                  0.0+0  9.9503719021-2  9.9503719021-1           0.0+0*
*                  1.0+1          -1.0+0          -1.0+0                *
*
CTRIA3        33      19      42      35      33      40   0.0+0
CORD2R*               40               0           0.0+0           0.0+0*
*                  0.0+0  9.9503719021-2  9.9503719021-1           0.0+0*
*                  1.0+1          -1.0+0          -1.0+0                *
*
CTRIA3        34      19      30      44      41      41   0.0+0
CORD2R*               41               0           0.0+0           0.0+0*
*                  0.0+0  9.9503719021-2  9.9503719021-1           0.0+0*
*                  1.0+1          -1.0+0          -1.0+0                *
*
CTRIA3        35      19      44      31      45      42   0.0+0
CORD2R*               42               0           0.0+0           0.0+0*
*                  0.0+0  9.9503719021-2  9.9503719021-1           0.0+0*
*                  1.0+1          -1.0+0          -1.0+0                *
*
CTRIA3        36      19      41      45      34      43   0.0+0
CORD2R*               43               0           0.0+0           0.0+0*
*                  0.0+0  9.9503719021-2  9.9503719021-1           0.0+0*
*                  1.0+1          -1.0+0          -1.0+0                *
*
CTRIA3        37      19      41      44      45      44   0.0+0
CORD2R*               44               0           0.0+0           0.0+0*
*                  0.0+0  9.9503719021-2  9.9503719021-1           0.0+0*
*                  1.0+1          -1.0+0          -1.0+0                *
*
CTRIA3        38      19      34      48      36      45   0.0+0
CORD2R*               45               0           0.0+0           0.0+0*
*                  0.0+0  9.9503719021-2  9.9503719021-1           0.0+0*
*                  1.0+1          -1.0+0          -1.0+0                *
*
CTRIA3        39      19      45      46      48      46   0.0+0
CORD2R*               46               0           0.0+0           0.0+0*
*                  0.0+0  9.9503719021-2  9.9503719021-1           0.0+0*
*                  1.0+1          -1.0+0          -1.0+0                *
*
CTRIA3        40      19      48      28      47      47   0.0+0
CORD2R*               47               0           0.0+0           0.0+0*
*                  0.0+0  9.9503719021-2  9.9503719021-1           0.0+0*
*                  1.0+1          -1.0+0          -1.0+0                *
*
CTRIA3        42      19      38      39      37      48   0.0+0
CORD2R*               48               0           0.0+0           0.0+0*
*                  0.0+0  9.9503719021-2  9.9503719021-1           0.0+0*
*                  1.0+1          -1.0+0          -1.0+0                *
*
CTRIA3        43      19      26      40      43      49   0.0+0
CORD2R*               49               0           0.0+0           0.0+0*
*                  0.0+0  9.9503719021-2  9.9503719021-1           0.0+0*
*                  1.0+1          -1.0+0          -1.0+0                *
*
CTRIA3        44      19      40      30      41      50   0.0+0
CORD2R*               50               0           0.0+0           0.0+0*
*                  0.0+0  9.9503719021-2  9.9503719021-1           0.0+0*
*                  1.0+1          -1.0+0          -1.0+0                *
*
CTRIA3        45      19      35      43      41      51   0.0+0
CORD2R*               51               0           0.0+0           0.0+0*
*                  0.0+0  9.9503719021-2  9.9503719021-1           0.0+0*
*                  1.0+1          -1.0+0          -1.0+0                *
*
$--1---><--2---><--3---><--4---><--5---><--6---><--7---><--8---><--9---><--10-->
$$$$$$$$$$$$$$$$$$$$$$$$$$$$$$$$$ temperature $$$$$$$$$$$$$$$$$$$$$$$$$$$$$$$$$$
TEMP*                  4              13        2.7415+2                *
*
TEMP*                  4              14        2.7415+2                *
*
TEMP*                  4              12        2.7415+2                *
*
TEMP*                  4               4        2.7415+2                *
*
TEMP*                  4               1        2.7415+2                *
*
TEMP*                  4              15        2.7415+2                *
*
TEMP*                  4              18        2.7415+2                *
*
TEMP*                  4              17        2.7415+2                *
*
TEMP*                  4               5        2.7415+2                *
*
TEMP*                  4              16        2.7415+2                *
*
TEMP*                  4              10        2.7415+2                *
*
TEMP*                  4               9        2.7415+2                *
*
TEMP*                  4               8        2.7415+2                *
*
TEMP*                  4              42        2.7415+2                *
*
TEMP*                  4              43        2.7415+2                *
*
TEMP*                  4              35        2.7415+2                *
*
TEMP*                  4              34        2.7415+2                *
*
TEMP*                  4              45        2.7415+2                *
*
TEMP*                  4              48        2.7415+2                *
*
TEMP*                  4              31        2.7415+2                *
*
TEMP*                  4              46        2.7415+2                *
*
TEMP*                  4              28        2.7415+2                *
*
TEMP*                  4              20        2.7415+2                *
*
TEMP*                  4              23        2.7415+2                *
*
TEMP*                  4              11        2.7415+2                *
*
TEMP*                  4               6        2.7415+2                *
*
TEMP*                  4              21        2.7415+2                *
*
TEMP*                  4               3        2.7415+2                *
*
TEMP*                  4              22        2.7415+2                *
*
TEMP*                  4              36        2.7415+2                *
*
TEMP*                  4              47        2.7415+2                *
*
TEMP*                  4              33        2.7415+2                *
*
TEMP*                  4              39        2.7415+2                *
*
TEMP*                  4              32        2.7415+2                *
*
TEMP*                  4              24        2.7415+2                *
*
TEMP*                  4              19        2.7415+2                *
*
TEMP*                  4               2        2.7415+2                *
*
TEMP*                  4              25        2.7415+2                *
*
TEMP*                  4              44        2.7415+2                *
*
TEMP*                  4              30        2.7415+2                *
*
TEMP*                  4              49        2.7415+2                *
*
TEMP*                  4              27        2.7415+2                *
*
TEMP*                  4              50        2.7415+2                *
*
TEMP*                  4              38        2.7415+2                *
*
TEMP*                  4              37        2.7415+2                *
*
TEMP*                  4              29        2.7415+2                *
*
TEMP*                  4              26        2.7415+2                *
*
TEMP*                  4              40        2.7415+2                *
*
TEMP*                  4              41        2.7415+2                *
*
TEMP*                  4               7        2.7415+2                *
*
$--1---><--2---><--3---><--4---><--5---><--6---><--7---><--8---><--9---><--10-->
TEMPD*                 4        2.7315+2                                *
*
$--1---><--2---><--3---><--4---><--5---><--6---><--7---><--8---><--9---><--10-->
ENDDATA 
