$ Generated by Mecway 33
$-----------------------EXECUTIVE CONTROL SECTION-----------------------
SOL 101
CEND
$-------------------------CASE CONTROL SECTION--------------------------
DISPLACEMENT = ALL
SPC = 1
LOAD = 1
BEGIN BULK
$---------------------------BULK DATA SECTION---------------------------
GRID           1       0   2.0+0   0.0+0   0.0+0       0
GRID           2       0   3.0+0   0.0+0   0.0+0       0
GRID           3       0   3.0+0   1.0+0   0.0+0       0
GRID           4       0   2.0+0   1.0+0   0.0+0       0
GRID           5       0   2.5+0   0.0+0   0.0+0       0
GRID*                  6               0           3.0+0 4.36314374208-1*
*                  0.0+0               0
GRID*                  7               0 2.43631440401+0           1.0+0*
*                  0.0+0               0
GRID*                  8               0           2.0+0 4.45412307978-1*
*                  0.0+0               0
GRID*                  9               0 2.37717780471+0 5.72783470154-1*
*                  0.0+0               0
GRID*                 10               0 2.17279392481+0 4.83825802803-1*
*                  0.0+0               0
GRID*                 11               0 2.40674610436+0 7.86391735077-1*
*                  0.0+0               0
GRID*                 12               0 2.21815720201+0           1.0+0*
*                  0.0+0               0
GRID*                 13               0           2.0+0 7.22706153989-1*
*                  0.0+0               0
GRID*                 14               0 2.20337305218+0 7.54548944533-1*
*                  0.0+0               0
GRID          15       0  2.25+0   0.0+0   0.0+0       0
GRID*                 16               0 2.43858890235+0 2.86391735077-1*
*                  0.0+0               0
GRID*                 17               0           2.0+0 2.22706153989-1*
*                  0.0+0               0
GRID*                 18               0 2.17822740972+0 2.35594883561-1*
*                  0.0+0               0
GRID*                 19               0          2.75+0 2.18157187104-1*
*                  0.0+0               0
GRID*                 20               0 2.66647589207+0  5.8036506176-1*
*                  0.0+0               0
GRID*                 21               0           3.0+0 7.18157187104-1*
*                  0.0+0               0
GRID*                 22               0 2.71815720201+0           1.0+0*
*                  0.0+0               0
GRID*                 23               0 2.70337305218+0 7.52274461091-1*
*                  0.0+0               0
GRID          24       0  2.75+0   0.0+0   0.0+0       0
GRID*                 25               0           3.0+0 2.18157187104-1*
*                  0.0+0               0
GRID          26       0   0.0+0   0.0+0   0.0+0       0
GRID          27       0   1.0+0   0.0+0   0.0+0       0
GRID          28       0   1.0+0   1.0+0   0.0+0       0
GRID          29       0   0.0+0   1.0+0   0.0+0       0
GRID          30       0   5.0-1   0.0+0   0.0+0       0
GRID*                 31               0           1.0+0 4.36314374208-1*
*                  0.0+0               0
GRID*                 32               0 4.36314404011-1           1.0+0*
*                  0.0+0               0
GRID*                 33               0           0.0+0 4.45412307978-1*
*                  0.0+0               0
GRID*                 34               0 3.77177804708-1 5.72783470154-1*
*                  0.0+0               0
GRID*                 35               0 1.72793924809-1 4.83825802803-1*
*                  0.0+0               0
GRID*                 36               0  4.0674610436-1 7.86391735077-1*
*                  0.0+0               0
GRID*                 37               0 2.18157202005-1           1.0+0*
*                  0.0+0               0
GRID*                 38               0           0.0+0 7.22706153989-1*
*                  0.0+0               0
GRID*                 39               0  2.0337305218-1 7.54548944533-1*
*                  0.0+0               0
GRID          40       0   2.5-1   0.0+0   0.0+0       0
GRID*                 41               0 4.38588902354-1 2.86391735077-1*
*                  0.0+0               0
GRID*                 42               0           0.0+0 2.22706153989-1*
*                  0.0+0               0
GRID*                 43               0  1.7822740972-1 2.35594883561-1*
*                  0.0+0               0
GRID*                 44               0           7.5-1 2.18157187104-1*
*                  0.0+0               0
GRID*                 45               0 6.66475892067-1  5.8036506176-1*
*                  0.0+0               0
GRID*                 46               0           1.0+0 7.18157187104-1*
*                  0.0+0               0
GRID*                 47               0 7.18157202005-1           1.0+0*
*                  0.0+0               0
GRID*                 48               0  7.0337305218-1 7.52274461091-1*
*                  0.0+0               0
GRID          49       0   7.5-1   0.0+0   0.0+0       0
GRID*                 50               0           1.0+0 2.18157187104-1*
*                  0.0+0               0
PARAM    STR_CID      -2
$--1---><--2---><--3---><--4---><--5---><--6---><--7---><--8---><--9---><--10-->
$$$$$$$$$$$$$$$$$$$$$$$$$$$$$$$$$$$ Material $$$$$$$$$$$$$$$$$$$$$$$$$$$$$$$$$$$
MAT8           1  1.2+11  2.0+11   2.7-1  1.0+11  1.9+11  1.5+11   0.0+0+
+          0.0+0   0.0+0   0.0+0
$--1---><--2---><--3---><--4---><--5---><--6---><--7---><--8---><--9---><--10-->
SPC            1       1       1   0.0+0
SPC            1       1       3   0.0+0
SPC            1       1       2   0.0+0
SPC            1       1       4   0.0+0
SPC            1       1       6   0.0+0
SPC            1       2       2   0.0+0
SPC            1       2       3   0.0+0
SPC            1       2       4   0.0+0
SPC            1       2       6   0.0+0
SPC            1       5       2   0.0+0
SPC            1       5       3   0.0+0
SPC            1       5       4   0.0+0
SPC            1       5       6   0.0+0
SPC            1      15       2   0.0+0
SPC            1      15       3   0.0+0
SPC            1      15       4   0.0+0
SPC            1      15       6   0.0+0
SPC            1      24       2   0.0+0
SPC            1      24       3   0.0+0
SPC            1      24       4   0.0+0
SPC            1      24       6   0.0+0
SPC            1      26       1   0.0+0
SPC            1      26       3   0.0+0
SPC            1      26       2   0.0+0
SPC            1      26       4   0.0+0
SPC            1      26       6   0.0+0
SPC            1      27       2   0.0+0
SPC            1      27       3   0.0+0
SPC            1      27       4   0.0+0
SPC            1      27       6   0.0+0
SPC            1      30       2   0.0+0
SPC            1      30       3   0.0+0
SPC            1      30       4   0.0+0
SPC            1      30       6   0.0+0
SPC            1      40       2   0.0+0
SPC            1      40       3   0.0+0
SPC            1      40       4   0.0+0
SPC            1      40       6   0.0+0
SPC            1      49       2   0.0+0
SPC            1      49       3   0.0+0
SPC            1      49       4   0.0+0
SPC            1      49       6   0.0+0
$--1---><--2---><--3---><--4---><--5---><--6---><--7---><--8---><--9---><--10-->
$$$$$$$$$$$$$$$$$$$$$$$$$$$$$$$$$$$ Default $$$$$$$$$$$$$$$$$$$$$$$$$$$$$$$$$$$$
PCOMP          1                                   0.0+0             SYM+
+              1   1.5-1   0.0+0        
CQUAD4         1       1      13      14      12       4       2   0.0+0
CORD2R         2       0   0.0+0   0.0+0   0.0+0   0.0+0   1.0+0   0.0+0+
+          1.0+0   0.0+0   0.0+0
CQUAD4         2       1       1      15      18      17       3   0.0+0
CORD2R         3       0   0.0+0   0.0+0   0.0+0   0.0+0   1.0+0   0.0+0+
+          1.0+0   0.0+0   0.0+0
CQUAD4         3       1      15       5      16      18       4   0.0+0
CORD2R         4       0   0.0+0   0.0+0   0.0+0   0.0+0   1.0+0   0.0+0+
+          1.0+0   0.0+0   0.0+0
CQUAD4         4       1      10      18      16       9       5   0.0+0
CORD2R         5       0   0.0+0   0.0+0   0.0+0   0.0+0   1.0+0   0.0+0+
+          1.0+0   0.0+0   0.0+0
CQUAD4         5       1      17      18      10       8       6   0.0+0
CORD2R         6       0   0.0+0   0.0+0   0.0+0   0.0+0   1.0+0   0.0+0+
+          1.0+0   0.0+0   0.0+0
CQUAD4        10       1       9      20      23      11       7   0.0+0
CORD2R         7       0   0.0+0   0.0+0   0.0+0   0.0+0   1.0+0   0.0+0+
+          1.0+0   0.0+0   0.0+0
CQUAD4        11       1      20       6      21      23       8   0.0+0
CORD2R         8       0   0.0+0   0.0+0   0.0+0   0.0+0   1.0+0   0.0+0+
+          1.0+0   0.0+0   0.0+0
CQUAD4        12       1      23      21       3      22       9   0.0+0
CORD2R         9       0   0.0+0   0.0+0   0.0+0   0.0+0   1.0+0   0.0+0+
+          1.0+0   0.0+0   0.0+0
CQUAD4        17       1      16       5      24      19      10   0.0+0
CORD2R        10       0   0.0+0   0.0+0   0.0+0   0.0+0   1.0+0   0.0+0+
+          1.0+0   0.0+0   0.0+0
CQUAD4        18       1      24       2      25      19      11   0.0+0
CORD2R        11       0   0.0+0   0.0+0   0.0+0   0.0+0   1.0+0   0.0+0+
+          1.0+0   0.0+0   0.0+0
CQUAD4        19       1      25       6      20      19      12   0.0+0
CORD2R        12       0   0.0+0   0.0+0   0.0+0   0.0+0   1.0+0   0.0+0+
+          1.0+0   0.0+0   0.0+0
CQUAD4        20       1      20       9      16      19      13   0.0+0
CORD2R        13       0   0.0+0   0.0+0   0.0+0   0.0+0   1.0+0   0.0+0+
+          1.0+0   0.0+0   0.0+0
CQUAD4        41       1      11      23      22       7      14   0.0+0
CORD2R        14       0   0.0+0   0.0+0   0.0+0   0.0+0   1.0+0   0.0+0+
+          1.0+0   0.0+0   0.0+0
CQUAD4        46       1       8      10      14      13      15   0.0+0
CORD2R        15       0   0.0+0   0.0+0   0.0+0   0.0+0   1.0+0   0.0+0+
+          1.0+0   0.0+0   0.0+0
CQUAD4        47       1      14      10       9      11      16   0.0+0
CORD2R        16       0   0.0+0   0.0+0   0.0+0   0.0+0   1.0+0   0.0+0+
+          1.0+0   0.0+0   0.0+0
CQUAD4        48       1      14      11       7      12      17   0.0+0
CORD2R        17       0   0.0+0   0.0+0   0.0+0   0.0+0   1.0+0   0.0+0+
+          1.0+0   0.0+0   0.0+0
PCOMP         18                                   0.0+0             SYM+
+              1   1.5-1   0.0+0        
CTRIA3         6      18      42      43      35      19   0.0+0
CORD2R        19       0   0.0+0   0.0+0   0.0+0   0.0+0   1.0+0   0.0+0+
+          1.0+0   0.0+0   0.0+0
CTRIA3         7      18      34      45      48      20   0.0+0
CORD2R        20       0   0.0+0   0.0+0   0.0+0   0.0+0   1.0+0   0.0+0+
+          1.0+0   0.0+0   0.0+0
CTRIA3         8      18      45      31      46      21   0.0+0
CORD2R        21       0   0.0+0   0.0+0   0.0+0   0.0+0   1.0+0   0.0+0+
+          1.0+0   0.0+0   0.0+0
CTRIA3         9      18      48      46      28      22   0.0+0
CORD2R        22       0   0.0+0   0.0+0   0.0+0   0.0+0   1.0+0   0.0+0+
+          1.0+0   0.0+0   0.0+0
CTRIA3        13      18      36      48      47      23   0.0+0
CORD2R        23       0   0.0+0   0.0+0   0.0+0   0.0+0   1.0+0   0.0+0+
+          1.0+0   0.0+0   0.0+0
CTRIA3        14      18      33      35      39      24   0.0+0
CORD2R        24       0   0.0+0   0.0+0   0.0+0   0.0+0   1.0+0   0.0+0+
+          1.0+0   0.0+0   0.0+0
CTRIA3        15      18      39      35      34      25   0.0+0
CORD2R        25       0   0.0+0   0.0+0   0.0+0   0.0+0   1.0+0   0.0+0+
+          1.0+0   0.0+0   0.0+0
CTRIA3        16      18      39      36      32      26   0.0+0
CORD2R        26       0   0.0+0   0.0+0   0.0+0   0.0+0   1.0+0   0.0+0+
+          1.0+0   0.0+0   0.0+0
CTRIA3        21      18      36      47      32      27   0.0+0
CORD2R        27       0   0.0+0   0.0+0   0.0+0   0.0+0   1.0+0   0.0+0+
+          1.0+0   0.0+0   0.0+0
CTRIA3        22      18      44      30      49      28   0.0+0
CORD2R        28       0   0.0+0   0.0+0   0.0+0   0.0+0   1.0+0   0.0+0+
+          1.0+0   0.0+0   0.0+0
CTRIA3        23      18      49      27      50      29   0.0+0
CORD2R        29       0   0.0+0   0.0+0   0.0+0   0.0+0   1.0+0   0.0+0+
+          1.0+0   0.0+0   0.0+0
CTRIA3        24      18      44      50      31      30   0.0+0
CORD2R        30       0   0.0+0   0.0+0   0.0+0   0.0+0   1.0+0   0.0+0+
+          1.0+0   0.0+0   0.0+0
CTRIA3        25      18      44      49      50      31   0.0+0
CORD2R        31       0   0.0+0   0.0+0   0.0+0   0.0+0   1.0+0   0.0+0+
+          1.0+0   0.0+0   0.0+0
CTRIA3        26      18      33      39      38      32   0.0+0
CORD2R        32       0   0.0+0   0.0+0   0.0+0   0.0+0   1.0+0   0.0+0+
+          1.0+0   0.0+0   0.0+0
CTRIA3        27      18      39      34      36      33   0.0+0
CORD2R        33       0   0.0+0   0.0+0   0.0+0   0.0+0   1.0+0   0.0+0+
+          1.0+0   0.0+0   0.0+0
CTRIA3        28      18      39      32      37      34   0.0+0
CORD2R        34       0   0.0+0   0.0+0   0.0+0   0.0+0   1.0+0   0.0+0+
+          1.0+0   0.0+0   0.0+0
CTRIA3        29      18      38      37      29      35   0.0+0
CORD2R        35       0   0.0+0   0.0+0   0.0+0   0.0+0   1.0+0   0.0+0+
+          1.0+0   0.0+0   0.0+0
CTRIA3        30      18      26      43      42      36   0.0+0
CORD2R        36       0   0.0+0   0.0+0   0.0+0   0.0+0   1.0+0   0.0+0+
+          1.0+0   0.0+0   0.0+0
CTRIA3        31      18      40      41      43      37   0.0+0
CORD2R        37       0   0.0+0   0.0+0   0.0+0   0.0+0   1.0+0   0.0+0+
+          1.0+0   0.0+0   0.0+0
CTRIA3        32      18      35      41      34      38   0.0+0
CORD2R        38       0   0.0+0   0.0+0   0.0+0   0.0+0   1.0+0   0.0+0+
+          1.0+0   0.0+0   0.0+0
CTRIA3        33      18      42      35      33      39   0.0+0
CORD2R        39       0   0.0+0   0.0+0   0.0+0   0.0+0   1.0+0   0.0+0+
+          1.0+0   0.0+0   0.0+0
CTRIA3        34      18      30      44      41      40   0.0+0
CORD2R        40       0   0.0+0   0.0+0   0.0+0   0.0+0   1.0+0   0.0+0+
+          1.0+0   0.0+0   0.0+0
CTRIA3        35      18      44      31      45      41   0.0+0
CORD2R        41       0   0.0+0   0.0+0   0.0+0   0.0+0   1.0+0   0.0+0+
+          1.0+0   0.0+0   0.0+0
CTRIA3        36      18      41      45      34      42   0.0+0
CORD2R        42       0   0.0+0   0.0+0   0.0+0   0.0+0   1.0+0   0.0+0+
+          1.0+0   0.0+0   0.0+0
CTRIA3        37      18      41      44      45      43   0.0+0
CORD2R        43       0   0.0+0   0.0+0   0.0+0   0.0+0   1.0+0   0.0+0+
+          1.0+0   0.0+0   0.0+0
CTRIA3        38      18      34      48      36      44   0.0+0
CORD2R        44       0   0.0+0   0.0+0   0.0+0   0.0+0   1.0+0   0.0+0+
+          1.0+0   0.0+0   0.0+0
CTRIA3        39      18      45      46      48      45   0.0+0
CORD2R        45       0   0.0+0   0.0+0   0.0+0   0.0+0   1.0+0   0.0+0+
+          1.0+0   0.0+0   0.0+0
CTRIA3        40      18      48      28      47      46   0.0+0
CORD2R        46       0   0.0+0   0.0+0   0.0+0   0.0+0   1.0+0   0.0+0+
+          1.0+0   0.0+0   0.0+0
CTRIA3        42      18      38      39      37      47   0.0+0
CORD2R        47       0   0.0+0   0.0+0   0.0+0   0.0+0   1.0+0   0.0+0+
+          1.0+0   0.0+0   0.0+0
CTRIA3        43      18      26      40      43      48   0.0+0
CORD2R        48       0   0.0+0   0.0+0   0.0+0   0.0+0   1.0+0   0.0+0+
+          1.0+0   0.0+0   0.0+0
CTRIA3        44      18      40      30      41      49   0.0+0
CORD2R        49       0   0.0+0   0.0+0   0.0+0   0.0+0   1.0+0   0.0+0+
+          1.0+0   0.0+0   0.0+0
CTRIA3        45      18      35      43      41      50   0.0+0
CORD2R        50       0   0.0+0   0.0+0   0.0+0   0.0+0   1.0+0   0.0+0+
+          1.0+0   0.0+0   0.0+0
$--1---><--2---><--3---><--4---><--5---><--6---><--7---><--8---><--9---><--10-->
$$$$$$$$$$$$$$$$$$$$$$$$$$$$$$$$$$$$ force $$$$$$$$$$$$$$$$$$$$$$$$$$$$$$$$$$$$$
FORCE          2      32       0   1.0+0   0.0+0   2.5+6   2.5+5
FORCE*                 2              37               0           1.0+0*
*                  0.0+0 2.18157202005+6 2.18157202005+5
FORCE*                 2              29               0           1.0+0*
*                  0.0+0 1.09078601003+6 1.09078601003+5
FORCE*                 2              28               0           1.0+0*
*                  0.0+0 1.40921398997+6 1.40921398997+5
FORCE*                 2              47               0           1.0+0*
*                  0.0+0 2.81842797995+6 2.81842797995+5
FORCE*                 2              22               0           1.0+0*
*                  0.0+0 2.81842797995+6 2.81842797995+5
FORCE          2       7       0   1.0+0   0.0+0   2.5+6   2.5+5
FORCE*                 2              12               0           1.0+0*
*                  0.0+0 2.18157202005+6 2.18157202005+5
FORCE*                 2               4               0           1.0+0*
*                  0.0+0 1.09078601003+6 1.09078601003+5
FORCE*                 2               3               0           1.0+0*
*                  0.0+0 1.40921398997+6 1.40921398997+5
$--1---><--2---><--3---><--4---><--5---><--6---><--7---><--8---><--9---><--10-->
LOAD           1   1.0+0   1.0+0       2
ENDDATA 
