$ Generated by Mecway 33
$-----------------------EXECUTIVE CONTROL SECTION-----------------------
SOL 101
CEND
$-------------------------CASE CONTROL SECTION--------------------------
DISPLACEMENT = ALL
SPC = 1
LOAD = 1
BEGIN BULK
$---------------------------BULK DATA SECTION---------------------------
GRID           1       0   0.0+0   0.0+0   0.0+0       0
GRID           2       0   2.0-1   0.0+0   0.0+0       0
GRID           3       0   2.0-1   4.0+0   0.0+0       0
GRID           4       0   0.0+0   4.0+0   0.0+0       0
GRID           5       0   0.0+0   0.0+0   2.0-1       0
GRID           6       0   2.0-1   0.0+0   2.0-1       0
GRID           7       0   2.0-1   4.0+0   2.0-1       0
GRID           8       0   0.0+0   4.0+0   2.0-1       0
GRID           9       0   1.0-1   0.0+0   0.0+0       0
GRID          10       0   2.0-1   2.0+0   0.0+0       0
GRID          11       0   1.0-1   4.0+0   0.0+0       0
GRID          12       0   0.0+0   2.0+0   0.0+0       0
GRID          13       0   1.0-1   0.0+0   2.0-1       0
GRID          14       0   2.0-1   2.0+0   2.0-1       0
GRID          15       0   1.0-1   4.0+0   2.0-1       0
GRID          16       0   0.0+0   2.0+0   2.0-1       0
GRID          17       0   0.0+0   0.0+0   1.0-1       0
GRID          18       0   2.0-1   0.0+0   1.0-1       0
GRID          19       0   2.0-1   4.0+0   1.0-1       0
GRID          20       0   0.0+0   4.0+0   1.0-1       0
GRID          21       0   1.0-1   0.0+0   1.0-1       0
GRID          22       0   2.0-1   2.0+0   1.0-1       0
GRID          23       0   1.0-1   4.0+0   1.0-1       0
GRID          24       0   0.0+0   2.0+0   1.0-1       0
GRID          25       0   1.0-1   2.0+0   0.0+0       0
GRID          26       0   1.0-1   2.0+0   2.0-1       0
GRID          27       0   1.0-1   2.0+0   1.0-1       0
GRID          28       0   0.0+0   2.5+0   1.0-1       0
GRID          29       0   0.0+0   2.5+0   2.0-1       0
GRID          30       0   0.0+0   3.0+0   1.0-1       0
GRID          31       0   0.0+0   3.0+0   2.0-1       0
GRID          32       0   0.0+0   3.5+0   1.0-1       0
GRID          33       0   0.0+0   3.5+0   2.0-1       0
GRID          34       0   1.0-1   2.5+0   1.0-1       0
GRID          35       0   1.0-1   2.5+0   2.0-1       0
GRID          36       0   1.0-1   3.0+0   1.0-1       0
GRID          37       0   1.0-1   3.0+0   2.0-1       0
GRID          38       0   1.0-1   3.5+0   1.0-1       0
GRID          39       0   1.0-1   3.5+0   2.0-1       0
GRID          40       0   0.0+0   5.0-1   0.0+0       0
GRID          41       0   0.0+0   5.0-1   1.0-1       0
GRID          42       0   0.0+0   1.0+0   0.0+0       0
GRID          43       0   0.0+0   1.0+0   1.0-1       0
GRID          44       0   0.0+0   1.5+0   0.0+0       0
GRID          45       0   0.0+0   1.5+0   1.0-1       0
GRID          46       0   1.0-1   5.0-1   0.0+0       0
GRID          47       0   1.0-1   5.0-1   1.0-1       0
GRID          48       0   1.0-1   1.0+0   0.0+0       0
GRID          49       0   1.0-1   1.0+0   1.0-1       0
GRID          50       0   1.0-1   1.5+0   0.0+0       0
GRID          51       0   1.0-1   1.5+0   1.0-1       0
GRID          52       0   2.0-1   1.0+0   2.0-1       0
GRID          53       0   1.0-1   5.0-1   2.0-1       0
GRID          54       0   2.0-1   3.5+0   2.0-1       0
GRID          55       0   1.0-1   1.0+0   2.0-1       0
GRID          56       0   2.0-1   1.5+0   2.0-1       0
GRID          57       0   1.0-1   1.5+0   2.0-1       0
GRID          58       0   2.0-1   5.0-1   0.0+0       0
GRID          59       0   2.0-1   5.0-1   1.0-1       0
GRID          60       0   2.0-1   1.0+0   0.0+0       0
GRID          61       0   2.0-1   1.0+0   1.0-1       0
GRID          62       0   2.0-1   1.5+0   0.0+0       0
GRID          63       0   2.0-1   1.5+0   1.0-1       0
GRID          64       0   1.0-1   2.5+0   0.0+0       0
GRID          65       0   2.0-1   3.0+0   2.0-1       0
GRID          66       0   1.0-1   3.0+0   0.0+0       0
GRID          67       0   0.0+0   5.0-1   2.0-1       0
GRID          68       0   1.0-1   3.5+0   0.0+0       0
GRID          69       0   2.0-1   5.0-1   2.0-1       0
GRID          70       0   2.0-1   2.5+0   0.0+0       0
GRID          71       0   2.0-1   2.5+0   1.0-1       0
GRID          72       0   2.0-1   3.0+0   0.0+0       0
GRID          73       0   2.0-1   3.0+0   1.0-1       0
GRID          74       0   2.0-1   3.5+0   0.0+0       0
GRID          75       0   2.0-1   3.5+0   1.0-1       0
GRID          76       0   0.0+0   2.5+0   0.0+0       0
GRID          77       0   0.0+0   1.0+0   2.0-1       0
GRID          78       0   0.0+0   3.0+0   0.0+0       0
GRID          79       0   2.0-1   2.5+0   2.0-1       0
GRID          80       0   0.0+0   3.5+0   0.0+0       0
GRID          81       0   0.0+0   1.5+0   2.0-1       0
GRID          82       0   1.0+0   4.0+0   0.0+0       0
GRID          83       0   1.0+0   0.0+0   0.0+0       0
GRID          84       0   5.0-2   3.5+0   1.0-1       0
GRID          85       0   1.0-1  3.75+0   1.0-1       0
GRID          86       0   5.0-2   4.0+0   1.0-1       0
GRID          87       0   0.0+0  3.75+0   1.0-1       0
GRID          88       0   0.0+0   3.5+0   1.5-1       0
GRID          89       0   1.0-1   3.5+0   1.5-1       0
GRID          90       0   1.0-1   4.0+0   1.5-1       0
GRID          91       0   0.0+0   4.0+0   1.5-1       0
GRID          92       0   5.0-2   3.5+0   2.0-1       0
GRID          93       0   1.0-1  3.75+0   2.0-1       0
GRID          94       0   5.0-2   4.0+0   2.0-1       0
GRID          95       0   0.0+0  3.75+0   2.0-1       0
GRID          96       0   5.0-2   1.5+0   0.0+0       0
GRID          97       0   1.0-1  1.75+0   0.0+0       0
GRID          98       0   5.0-2   2.0+0   0.0+0       0
GRID          99       0   0.0+0  1.75+0   0.0+0       0
GRID         100       0   0.0+0   1.5+0   5.0-2       0
GRID         101       0   1.0-1   1.5+0   5.0-2       0
GRID         102       0   1.0-1   2.0+0   5.0-2       0
GRID         103       0   0.0+0   2.0+0   5.0-2       0
GRID         104       0   5.0-2   1.5+0   1.0-1       0
GRID         105       0   1.0-1  1.75+0   1.0-1       0
GRID         106       0   5.0-2   2.0+0   1.0-1       0
GRID         107       0   0.0+0  1.75+0   1.0-1       0
GRID         108       0   1.5-1   1.5+0   0.0+0       0
GRID         109       0   2.0-1  1.75+0   0.0+0       0
GRID         110       0   1.5-1   2.0+0   0.0+0       0
GRID         111       0   2.0-1   1.5+0   5.0-2       0
GRID         112       0   2.0-1   2.0+0   5.0-2       0
GRID         113       0   1.5-1   1.5+0   1.0-1       0
GRID         114       0   2.0-1  1.75+0   1.0-1       0
GRID         115       0   1.5-1   2.0+0   1.0-1       0
GRID         116       0   1.5-1   3.5+0   0.0+0       0
GRID         117       0   2.0-1  3.75+0   0.0+0       0
GRID         118       0   1.5-1   4.0+0   0.0+0       0
GRID         119       0   1.0-1  3.75+0   0.0+0       0
GRID         120       0   1.0-1   3.5+0   5.0-2       0
GRID         121       0   2.0-1   3.5+0   5.0-2       0
GRID         122       0   2.0-1   4.0+0   5.0-2       0
GRID         123       0   1.0-1   4.0+0   5.0-2       0
GRID         124       0   1.5-1   3.5+0   1.0-1       0
GRID         125       0   2.0-1  3.75+0   1.0-1       0
GRID         126       0   1.5-1   4.0+0   1.0-1       0
GRID         127       0   5.0-2   3.5+0   0.0+0       0
GRID         128       0   5.0-2   4.0+0   0.0+0       0
GRID         129       0   0.0+0  3.75+0   0.0+0       0
GRID         130       0   0.0+0   3.5+0   5.0-2       0
GRID         131       0   0.0+0   4.0+0   5.0-2       0
GRID         132       0   0.0+0   1.5+0   1.5-1       0
GRID         133       0   1.0-1   1.5+0   1.5-1       0
GRID         134       0   1.0-1   2.0+0   1.5-1       0
GRID         135       0   0.0+0   2.0+0   1.5-1       0
GRID         136       0   5.0-2   1.5+0   2.0-1       0
GRID         137       0   1.0-1  1.75+0   2.0-1       0
GRID         138       0   5.0-2   2.0+0   2.0-1       0
GRID         139       0   0.0+0  1.75+0   2.0-1       0
GRID         140       0   2.0-1   1.5+0   1.5-1       0
GRID         141       0   2.0-1   2.0+0   1.5-1       0
GRID         142       0   1.5-1   1.5+0   2.0-1       0
GRID         143       0   2.0-1  1.75+0   2.0-1       0
GRID         144       0   1.5-1   2.0+0   2.0-1       0
GRID         145       0   2.0-1   3.5+0   1.5-1       0
GRID         146       0   2.0-1   4.0+0   1.5-1       0
GRID         147       0   1.5-1   3.5+0   2.0-1       0
GRID         148       0   2.0-1  3.75+0   2.0-1       0
GRID         149       0   1.5-1   4.0+0   2.0-1       0
GRID         150       0   1.0-1  2.25+0   1.0-1       0
GRID         151       0   5.0-2   2.5+0   1.0-1       0
GRID         152       0   0.0+0  2.25+0   1.0-1       0
GRID         153       0   1.0-1   2.5+0   1.5-1       0
GRID         154       0   0.0+0   2.5+0   1.5-1       0
GRID         155       0   1.0-1  2.25+0   2.0-1       0
GRID         156       0   5.0-2   2.5+0   2.0-1       0
GRID         157       0   0.0+0  2.25+0   2.0-1       0
GRID         158       0   1.0-1  2.75+0   1.0-1       0
GRID         159       0   5.0-2   3.0+0   1.0-1       0
GRID         160       0   0.0+0  2.75+0   1.0-1       0
GRID         161       0   1.0-1   3.0+0   1.5-1       0
GRID         162       0   0.0+0   3.0+0   1.5-1       0
GRID         163       0   1.0-1  2.75+0   2.0-1       0
GRID         164       0   5.0-2   3.0+0   2.0-1       0
GRID         165       0   0.0+0  2.75+0   2.0-1       0
GRID         166       0   1.0-1  3.25+0   1.0-1       0
GRID         167       0   0.0+0  3.25+0   1.0-1       0
GRID         168       0   1.0-1  3.25+0   2.0-1       0
GRID         169       0   0.0+0  3.25+0   2.0-1       0
GRID         170       0   5.0-2   0.0+0   0.0+0       0
GRID         171       0   1.0-1   2.5-1   0.0+0       0
GRID         172       0   5.0-2   5.0-1   0.0+0       0
GRID         173       0   0.0+0   2.5-1   0.0+0       0
GRID         174       0   0.0+0   0.0+0   5.0-2       0
GRID         175       0   1.0-1   0.0+0   5.0-2       0
GRID         176       0   1.0-1   5.0-1   5.0-2       0
GRID         177       0   0.0+0   5.0-1   5.0-2       0
GRID         178       0   5.0-2   0.0+0   1.0-1       0
GRID         179       0   1.0-1   2.5-1   1.0-1       0
GRID         180       0   5.0-2   5.0-1   1.0-1       0
GRID         181       0   0.0+0   2.5-1   1.0-1       0
GRID         182       0   1.0-1   7.5-1   0.0+0       0
GRID         183       0   5.0-2   1.0+0   0.0+0       0
GRID         184       0   0.0+0   7.5-1   0.0+0       0
GRID         185       0   1.0-1   1.0+0   5.0-2       0
GRID         186       0   0.0+0   1.0+0   5.0-2       0
GRID         187       0   1.0-1   7.5-1   1.0-1       0
GRID         188       0   5.0-2   1.0+0   1.0-1       0
GRID         189       0   0.0+0   7.5-1   1.0-1       0
GRID         190       0   1.0-1  1.25+0   0.0+0       0
GRID         191       0   0.0+0  1.25+0   0.0+0       0
GRID         192       0   1.0-1  1.25+0   1.0-1       0
GRID         193       0   0.0+0  1.25+0   1.0-1       0
GRID         194       0   1.5-1   0.0+0   0.0+0       0
GRID         195       0   2.0-1   2.5-1   0.0+0       0
GRID         196       0   1.5-1   5.0-1   0.0+0       0
GRID         197       0   2.0-1   0.0+0   5.0-2       0
GRID         198       0   2.0-1   5.0-1   5.0-2       0
GRID         199       0   1.5-1   0.0+0   1.0-1       0
GRID         200       0   2.0-1   2.5-1   1.0-1       0
GRID         201       0   1.5-1   5.0-1   1.0-1       0
GRID         202       0   2.0-1   7.5-1   0.0+0       0
GRID         203       0   1.5-1   1.0+0   0.0+0       0
GRID         204       0   2.0-1   1.0+0   5.0-2       0
GRID         205       0   2.0-1   7.5-1   1.0-1       0
GRID         206       0   1.5-1   1.0+0   1.0-1       0
GRID         207       0   2.0-1  1.25+0   0.0+0       0
GRID         208       0   2.0-1  1.25+0   1.0-1       0
GRID         209       0   2.0-1  2.25+0   0.0+0       0
GRID         210       0   1.5-1   2.5+0   0.0+0       0
GRID         211       0   1.0-1  2.25+0   0.0+0       0
GRID         212       0   2.0-1   2.5+0   5.0-2       0
GRID         213       0   1.0-1   2.5+0   5.0-2       0
GRID         214       0   2.0-1  2.25+0   1.0-1       0
GRID         215       0   1.5-1   2.5+0   1.0-1       0
GRID         216       0   2.0-1  2.75+0   0.0+0       0
GRID         217       0   1.5-1   3.0+0   0.0+0       0
GRID         218       0   1.0-1  2.75+0   0.0+0       0
GRID         219       0   2.0-1   3.0+0   5.0-2       0
GRID         220       0   1.0-1   3.0+0   5.0-2       0
GRID         221       0   2.0-1  2.75+0   1.0-1       0
GRID         222       0   1.5-1   3.0+0   1.0-1       0
GRID         223       0   2.0-1  3.25+0   0.0+0       0
GRID         224       0   1.0-1  3.25+0   0.0+0       0
GRID         225       0   2.0-1  3.25+0   1.0-1       0
GRID         226       0   5.0-2   2.5+0   0.0+0       0
GRID         227       0   0.0+0  2.25+0   0.0+0       0
GRID         228       0   0.0+0   2.5+0   5.0-2       0
GRID         229       0   5.0-2   3.0+0   0.0+0       0
GRID         230       0   0.0+0  2.75+0   0.0+0       0
GRID         231       0   0.0+0   3.0+0   5.0-2       0
GRID         232       0   0.0+0  3.25+0   0.0+0       0
GRID         233       0   0.0+0   0.0+0   1.5-1       0
GRID         234       0   1.0-1   0.0+0   1.5-1       0
GRID         235       0   1.0-1   5.0-1   1.5-1       0
GRID         236       0   0.0+0   5.0-1   1.5-1       0
GRID         237       0   5.0-2   0.0+0   2.0-1       0
GRID         238       0   1.0-1   2.5-1   2.0-1       0
GRID         239       0   5.0-2   5.0-1   2.0-1       0
GRID         240       0   0.0+0   2.5-1   2.0-1       0
GRID         241       0   1.0-1   1.0+0   1.5-1       0
GRID         242       0   0.0+0   1.0+0   1.5-1       0
GRID         243       0   1.0-1   7.5-1   2.0-1       0
GRID         244       0   5.0-2   1.0+0   2.0-1       0
GRID         245       0   0.0+0   7.5-1   2.0-1       0
GRID         246       0   1.0-1  1.25+0   2.0-1       0
GRID         247       0   0.0+0  1.25+0   2.0-1       0
GRID         248       0   2.0-1   0.0+0   1.5-1       0
GRID         249       0   2.0-1   5.0-1   1.5-1       0
GRID         250       0   1.5-1   0.0+0   2.0-1       0
GRID         251       0   2.0-1   2.5-1   2.0-1       0
GRID         252       0   1.5-1   5.0-1   2.0-1       0
GRID         253       0   2.0-1   1.0+0   1.5-1       0
GRID         254       0   2.0-1   7.5-1   2.0-1       0
GRID         255       0   1.5-1   1.0+0   2.0-1       0
GRID         256       0   2.0-1  1.25+0   2.0-1       0
GRID         257       0   2.0-1   2.5+0   1.5-1       0
GRID         258       0   2.0-1  2.25+0   2.0-1       0
GRID         259       0   1.5-1   2.5+0   2.0-1       0
GRID         260       0   2.0-1   3.0+0   1.5-1       0
GRID         261       0   2.0-1  2.75+0   2.0-1       0
GRID         262       0   1.5-1   3.0+0   2.0-1       0
GRID         263       0   2.0-1  3.25+0   2.0-1       0
PARAM    STR_CID      -2
$--1---><--2---><--3---><--4---><--5---><--6---><--7---><--8---><--9---><--10-->
$$$$$$$$$$$$$$$$$$$$$$$$$$$$$$$$$$$ Material $$$$$$$$$$$$$$$$$$$$$$$$$$$$$$$$$$$
MAT1           1  1.0+11  5.0+10   0.0+0   0.0+0   0.0+0   0.0+0
$--1---><--2---><--3---><--4---><--5---><--6---><--7---><--8---><--9---><--10-->
$$$$$$$$$$$$$$$$$$$$$$$$$$$$$$$$$ Material(2) $$$$$$$$$$$$$$$$$$$$$$$$$$$$$$$$$$
MAT1           2  1.0+11  5.0+10   0.0+0   0.0+0   0.0+0   0.0+0
$--1---><--2---><--3---><--4---><--5---><--6---><--7---><--8---><--9---><--10-->
SPC            1       1       1   0.0+0
SPC            1       1       2   0.0+0
SPC            1       1       3   0.0+0
SPC            1       2       1   0.0+0
SPC            1       2       2   0.0+0
SPC            1       2       3   0.0+0
SPC            1       5       1   0.0+0
SPC            1       5       2   0.0+0
SPC            1       5       3   0.0+0
SPC            1       6       1   0.0+0
SPC            1       6       2   0.0+0
SPC            1       6       3   0.0+0
SPC            1       9       1   0.0+0
SPC            1       9       2   0.0+0
SPC            1       9       3   0.0+0
SPC            1      13       1   0.0+0
SPC            1      13       2   0.0+0
SPC            1      13       3   0.0+0
SPC            1      17       1   0.0+0
SPC            1      17       2   0.0+0
SPC            1      17       3   0.0+0
SPC            1      18       1   0.0+0
SPC            1      18       2   0.0+0
SPC            1      18       3   0.0+0
SPC            1      21       1   0.0+0
SPC            1      21       2   0.0+0
SPC            1      21       3   0.0+0
SPC            1      83       1   0.0+0
SPC            1      83       2   0.0+0
SPC            1      83       3   0.0+0
SPC            1      83       4   0.0+0
SPC            1      83       5   0.0+0
SPC            1      83       6   0.0+0
SPC            1     170       1   0.0+0
SPC            1     170       2   0.0+0
SPC            1     170       3   0.0+0
SPC            1     174       1   0.0+0
SPC            1     174       2   0.0+0
SPC            1     174       3   0.0+0
SPC            1     175       1   0.0+0
SPC            1     175       2   0.0+0
SPC            1     175       3   0.0+0
SPC            1     178       1   0.0+0
SPC            1     178       2   0.0+0
SPC            1     178       3   0.0+0
SPC            1     194       1   0.0+0
SPC            1     194       2   0.0+0
SPC            1     194       3   0.0+0
SPC            1     197       1   0.0+0
SPC            1     197       2   0.0+0
SPC            1     197       3   0.0+0
SPC            1     199       1   0.0+0
SPC            1     199       2   0.0+0
SPC            1     199       3   0.0+0
SPC            1     233       1   0.0+0
SPC            1     233       2   0.0+0
SPC            1     233       3   0.0+0
SPC            1     234       1   0.0+0
SPC            1     234       2   0.0+0
SPC            1     234       3   0.0+0
SPC            1     237       1   0.0+0
SPC            1     237       2   0.0+0
SPC            1     237       3   0.0+0
SPC            1     248       1   0.0+0
SPC            1     248       2   0.0+0
SPC            1     248       3   0.0+0
SPC            1     250       1   0.0+0
SPC            1     250       2   0.0+0
SPC            1     250       3   0.0+0
$--1---><--2---><--3---><--4---><--5---><--6---><--7---><--8---><--9---><--10-->
$$$$$$$$$$$$$$$$$$$$$$$$$$$$$$$$$$$ Default $$$$$$$$$$$$$$$$$$$$$$$$$$$$$$$$$$$$
PSOLID         1       1       0       3               1
CHEXA          1       1      32      38      23      20      33      39+
+             15       8      84      85      86      87      88      89+
+             90      91      92      93      94      95
CHEXA          2       1      44      50      25      12      45      51+
+             27      24      96      97      98      99     100     101+
+            102     103     104     105     106     107
CHEXA          3       1      50      62      10      25      51      63+
+             22      27     108     109     110      97     101     111+
+            112     102     113     114     115     105
CHEXA          4       1      68      74       3      11      38      75+
+             19      23     116     117     118     119     120     121+
+            122     123     124     125     126      85
CHEXA          5       1      80      68      11       4      32      38+
+             23      20     127     119     128     129     130     120+
+            123     131      84      85      86      87
CHEXA          6       1      45      51      27      24      81      57+
+             26      16     104     105     106     107     132     133+
+            134     135     136     137     138     139
CHEXA          7       1      51      63      22      27      57      56+
+             14      26     113     114     115     105     133     140+
+            141     134     142     143     144     137
CHEXA          8       1      38      75      19      23      39      54+
+              7      15     124     125     126      85      89     145+
+            146      90     147     148     149      93
CHEXA          9       1      24      27      34      28      16      26+
+             35      29     106     150     151     152     135     134+
+            153     154     138     155     156     157
CHEXA         10       1      28      34      36      30      29      35+
+             37      31     151     158     159     160     154     153+
+            161     162     156     163     164     165
CHEXA         11       1      30      36      38      32      31      37+
+             39      33     159     166      84     167     162     161+
+             89      88     164     168      92     169
CHEXA         12       1       1       9      46      40      17      21+
+             47      41     170     171     172     173     174     175+
+            176     177     178     179     180     181
CHEXA         13       1      40      46      48      42      41      47+
+             49      43     172     182     183     184     177     176+
+            185     186     180     187     188     189
CHEXA         14       1      42      48      50      44      43      49+
+             51      45     183     190      96     191     186     185+
+            101     100     188     192     104     193
CHEXA         15       1       9       2      58      46      21      18+
+             59      47     194     195     196     171     175     197+
+            198     176     199     200     201     179
CHEXA         16       1      46      58      60      48      47      59+
+             61      49     196     202     203     182     176     198+
+            204     185     201     205     206     187
CHEXA         17       1      48      60      62      50      49      61+
+             63      51     203     207     108     190     185     204+
+            111     101     206     208     113     192
CHEXA         18       1      25      10      70      64      27      22+
+             71      34     110     209     210     211     102     112+
+            212     213     115     214     215     150
CHEXA         19       1      64      70      72      66      34      71+
+             73      36     210     216     217     218     213     212+
+            219     220     215     221     222     158
CHEXA         20       1      66      72      74      68      36      73+
+             75      38     217     223     116     224     220     219+
+            121     120     222     225     124     166
CHEXA         21       1      12      25      64      76      24      27+
+             34      28      98     211     226     227     103     102+
+            213     228     106     150     151     152
CHEXA         22       1      76      64      66      78      28      34+
+             36      30     226     218     229     230     228     213+
+            220     231     151     158     159     160
CHEXA         23       1      78      66      68      80      30      36+
+             38      32     229     224     127     232     231     220+
+            120     130     159     166      84     167
CHEXA         24       1      17      21      47      41       5      13+
+             53      67     178     179     180     181     233     234+
+            235     236     237     238     239     240
CHEXA         25       1      41      47      49      43      67      53+
+             55      77     180     187     188     189     236     235+
+            241     242     239     243     244     245
CHEXA         26       1      43      49      51      45      77      55+
+             57      81     188     192     104     193     242     241+
+            133     132     244     246     136     247
CHEXA         27       1      21      18      59      47      13       6+
+             69      53     199     200     201     179     234     248+
+            249     235     250     251     252     238
CHEXA         28       1      47      59      61      49      53      69+
+             52      55     201     205     206     187     235     249+
+            253     241     252     254     255     243
CHEXA         29       1      49      61      63      51      55      52+
+             56      57     206     208     113     192     241     253+
+            140     133     255     256     142     246
CHEXA         30       1      27      22      71      34      26      14+
+             79      35     115     214     215     150     134     141+
+            257     153     144     258     259     155
CHEXA         31       1      34      71      73      36      35      79+
+             65      37     215     221     222     158     153     257+
+            260     161     259     261     262     163
CHEXA         32       1      36      73      75      38      37      65+
+             54      39     222     225     124     166     161     260+
+            145      89     262     263     147     168
$--1---><--2---><--3---><--4---><--5---><--6---><--7---><--8---><--9---><--10-->
$$$$$$$$$$$$$$$$$$$$$$$$$$$$$$$$$$ Component $$$$$$$$$$$$$$$$$$$$$$$$$$$$$$$$$$$
PBAR*                  2               2           4.0-2 1.33333333333-4*
*        1.33333333333-4 2.25333333333-4           0.0+0
CBAR          33       2      82      83   1.0+0   0.0+0   0.0+0        
$--1---><--2---><--3---><--4---><--5---><--6---><--7---><--8---><--9---><--10-->
$$$$$$$$$$$$$$$$$$$$$$$$$$$$$$$$$$$$ moment $$$$$$$$$$$$$$$$$$$$$$$$$$$$$$$$$$$$
FORCE*                 2               3               0           1.0+0*
*        1.04166666667+2           0.0+0 1.04166666667+2
FORCE*                 2              11               0           1.0+0*
*        2.08333333333+2           0.0+0 1.1368683772-13
FORCE*                 2              19               0           1.0+0*
*        1.9895196601-13           0.0+0 2.08333333333+2
FORCE*                 2              23               0           1.0+0*
*        3.4106051316-13           0.0+0  2.842170943-13
FORCE*                 2             118               0           1.0+0*
*       -8.33333333333+2           0.0+0         -6.25+2
FORCE*                 2             122               0           1.0+0*
*                -6.25+2           0.0+0-8.33333333333+2
FORCE*                 2             123               0           1.0+0*
*                -1.25+3           0.0+0-3.4106051316-13
FORCE*                 2             126               0           1.0+0*
*       -7.3896444519-13           0.0+0         -1.25+3
FORCE*                 2               7               0           1.0+0*
*       -1.04166666667+2           0.0+0 1.04166666667+2
FORCE*                 2              15               0           1.0+0*
*       -2.08333333333+2           0.0+0 1.4210854715-13
FORCE*                 2             146               0           1.0+0*
*                 6.25+2           0.0+0-8.33333333333+2
FORCE*                 2              90               0           1.0+0*
*                 1.25+3           0.0+0 -2.842170943-13
FORCE*                 2             149               0           1.0+0*
*        8.33333333333+2           0.0+0         -6.25+2
FORCE*                 2               4               0           1.0+0*
*        1.04166666667+2           0.0+0-1.04166666667+2
FORCE*                 2              20               0           1.0+0*
*        1.1368683772-13           0.0+0-2.08333333333+2
FORCE*                 2             128               0           1.0+0*
*       -8.33333333333+2           0.0+0          6.25+2
FORCE*                 2             131               0           1.0+0*
*                -6.25+2           0.0+0 8.33333333333+2
FORCE*                 2              86               0           1.0+0*
*       -7.3896444519-13           0.0+0          1.25+3
FORCE*                 2               8               0           1.0+0*
*       -1.04166666667+2           0.0+0-1.04166666667+2
FORCE*                 2              91               0           1.0+0*
*                 6.25+2           0.0+0 8.33333333333+2
FORCE*                 2              94               0           1.0+0*
*        8.33333333333+2           0.0+0          6.25+2
$--1---><--2---><--3---><--4---><--5---><--6---><--7---><--8---><--9---><--10-->
$$$$$$$$$$$$$$$$$$$$$$$$$$$$$$$$$$$$ moment $$$$$$$$$$$$$$$$$$$$$$$$$$$$$$$$$$$$
MOMENT         2      82       0   1.0+0   0.0+0   1.0+3   0.0+0
$--1---><--2---><--3---><--4---><--5---><--6---><--7---><--8---><--9---><--10-->
LOAD           1   1.0+0   1.0+0       2
ENDDATA 
