$ Generated by Mecway 33
$-----------------------EXECUTIVE CONTROL SECTION-----------------------
SOL 101
CEND
$-------------------------CASE CONTROL SECTION--------------------------
DISPLACEMENT = ALL
SPC = 1
TEMPERATURE = 4
BEGIN BULK
$---------------------------BULK DATA SECTION---------------------------
GRID           1       0   0.0+0   0.0+0   0.0+0       0
GRID           2       0   8.0-1   0.0+0   0.0+0       0
GRID           3       0   8.0-1   8.0-1   0.0+0       0
GRID           4       0   0.0+0   8.0-1   0.0+0       0
GRID           5       0   0.0+0   0.0+0   8.0-1       0
GRID           6       0   8.0-1   0.0+0   8.0-1       0
GRID           7       0   8.0-1   8.0-1   8.0-1       0
GRID           8       0   0.0+0   8.0-1   8.0-1       0
GRID           9       0   4.0-1   1.6+0   0.0+0       0
GRID          10       0   8.0-1   2.0+0   0.0+0       0
GRID          11       0   8.0-1   2.0+0   8.0-1       0
GRID          12       0   4.0-1   1.6+0   4.0-1       0
GRID          13       0   8.0-1   1.6+0   4.0-1       0
GRID          14       0   0.0+0   2.0+0   4.0-1       0
GRID          15       0   8.0-1   2.4+0   4.0-1       0
GRID          16       0   0.0+0   1.6+0   4.0-1       0
GRID          17       0   4.0-1   2.4+0   0.0+0       0
GRID          18       0   0.0+0   2.0+0   0.0+0       0
GRID          19       0   0.0+0   2.4+0   4.0-1       0
GRID          20       0   8.0-1   2.0+0   4.0-1       0
GRID          21       0   4.0-1   1.6+0   8.0-1       0
GRID          22       0   0.0+0   2.0+0   8.0-1       0
GRID          23       0   4.0-1   2.0+0   0.0+0       0
GRID          24       0   4.0-1   2.0+0   8.0-1       0
GRID          25       0   4.0-1   2.4+0   8.0-1       0
GRID          26       0   4.0-1   2.4+0   4.0-1       0
GRID          27       0   0.0+0   1.6+0   0.0+0       0
GRID          28       0   8.0-1   1.6+0   0.0+0       0
GRID          29       0   8.0-1   2.4+0   0.0+0       0
GRID          30       0   0.0+0   2.4+0   0.0+0       0
GRID          31       0   0.0+0   1.6+0   8.0-1       0
GRID          32       0   8.0-1   1.6+0   8.0-1       0
GRID          33       0   8.0-1   2.4+0   8.0-1       0
GRID          34       0   0.0+0   2.4+0   8.0-1       0
GRID          35       0   0.0+0   3.2+0   0.0+0       0
GRID          36       0   8.0-1   3.2+0   0.0+0       0
GRID          37       0   8.0-1   4.0+0   0.0+0       0
GRID          38       0   0.0+0   4.0+0   0.0+0       0
GRID          39       0   0.0+0   3.2+0   8.0-1       0
GRID          40       0   8.0-1   3.2+0   8.0-1       0
GRID          41       0   8.0-1   4.0+0   8.0-1       0
GRID          42       0   0.0+0   4.0+0   8.0-1       0
GRID          43       0   0.0+0   4.8+0   0.0+0       0
GRID          44       0   8.0-1   4.8+0   0.0+0       0
GRID          45       0   8.0-1   5.6+0   0.0+0       0
GRID          46       0   0.0+0   5.6+0   0.0+0       0
GRID          47       0   0.0+0   4.8+0   8.0-1       0
GRID          48       0   8.0-1   4.8+0   8.0-1       0
GRID          49       0   8.0-1   5.6+0   8.0-1       0
GRID          50       0   0.0+0   5.6+0   8.0-1       0
GRID          51       0   0.0+0   6.4+0   8.0-1       0
GRID*                 52               0 9.7968508306-17           6.4+0*
*                  0.0+0               0
GRID*                 53               0 9.7968508306-17           7.2+0*
*                  0.0+0               0
GRID          54       0   0.0+0   7.2+0   8.0-1       0
GRID          55       0   8.0-1   6.4+0   8.0-1       0
GRID          56       0   8.0-1   6.4+0   0.0+0       0
GRID          57       0   8.0-1   7.2+0   0.0+0       0
GRID          58       0   8.0-1   7.2+0   8.0-1       0
GRID          59       0   0.0+0   8.0+0   0.0+0       0
GRID          60       0   8.0-1   8.0+0   0.0+0       0
GRID          61       0   8.0-1   8.8+0   0.0+0       0
GRID          62       0   0.0+0   8.8+0   0.0+0       0
GRID          63       0   0.0+0   8.0+0   8.0-1       0
GRID          64       0   8.0-1   8.0+0   8.0-1       0
GRID          65       0   8.0-1   8.8+0   8.0-1       0
GRID          66       0   0.0+0   8.8+0   8.0-1       0
GRID          67       0   4.0-1   5.6+0   0.0+0       0
GRID          68       0   0.0+0   5.2+0   0.0+0       0
GRID          69       0   4.0-1   5.2+0   0.0+0       0
GRID          70       0   8.0-1   5.6+0   4.0-1       0
GRID          71       0   0.0+0   5.6+0   4.0-1       0
GRID          72       0   0.0+0   4.8+0   4.0-1       0
GRID          73       0   4.0-1   5.6+0   8.0-1       0
GRID          74       0   0.0+0   5.2+0   8.0-1       0
GRID          75       0   4.0-1   5.2+0   8.0-1       0
GRID          76       0   0.0+0   8.8+0   4.0-1       0
GRID          77       0   4.0-1   8.0+0   8.0-1       0
GRID          78       0   8.0-1   8.4+0   8.0-1       0
GRID          79       0   4.0-1   8.8+0   8.0-1       0
GRID          80       0   0.0+0   8.4+0   8.0-1       0
GRID          81       0   4.0-1   8.0+0   0.0+0       0
GRID          82       0   8.0-1   8.4+0   0.0+0       0
GRID          83       0   4.0-1   8.8+0   0.0+0       0
GRID          84       0   0.0+0   8.4+0   0.0+0       0
GRID          85       0   0.0+0   8.0+0   4.0-1       0
GRID          86       0   8.0-1   8.0+0   4.0-1       0
GRID          87       0   8.0-1   8.8+0   4.0-1       0
PARAM    STR_CID      -2
$--1---><--2---><--3---><--4---><--5---><--6---><--7---><--8---><--9---><--10-->
$$$$$$$$$$$$$$$$$$$$$$$$$$$$$$$$$$$ Material $$$$$$$$$$$$$$$$$$$$$$$$$$$$$$$$$$$
MAT9           1  1.0+11   0.0+0   0.0+0   0.0+0   0.0+0   0.0+0  1.0+11+
+          0.0+0   0.0+0   0.0+0   0.0+0  1.0+11   0.0+0   0.0+0   0.0+0+
+         5.0+10   0.0+0   0.0+0  5.0+10   0.0+0  5.0+10   0.0+0   8.0-4+
+          3.0-4   2.0-3   0.0+0   0.0+0   0.0+0   0.0+0   0.0+0
$--1---><--2---><--3---><--4---><--5---><--6---><--7---><--8---><--9---><--10-->
SPC            1       1       3   0.0+0
SPC            1       1       1   0.0+0
SPC            1       2       3   0.0+0
SPC            1       3       3   0.0+0
SPC            1       4       1   0.0+0
SPC            1       4       2   0.0+0
SPC            1       4       3   0.0+0
SPC            1       9       3   0.0+0
SPC            1      10       3   0.0+0
SPC            1      17       3   0.0+0
SPC            1      18       3   0.0+0
SPC            1      23       3   0.0+0
SPC            1      27       3   0.0+0
SPC            1      27       1   0.0+0
SPC            1      28       3   0.0+0
SPC            1      29       3   0.0+0
SPC            1      30       1   0.0+0
SPC            1      30       2   0.0+0
SPC            1      30       3   0.0+0
SPC            1      35       3   0.0+0
SPC            1      35       1   0.0+0
SPC            1      36       3   0.0+0
SPC            1      37       3   0.0+0
SPC            1      38       1   0.0+0
SPC            1      38       2   0.0+0
SPC            1      38       3   0.0+0
SPC            1      43       3   0.0+0
SPC            1      43       1   0.0+0
SPC            1      44       3   0.0+0
SPC            1      45       3   0.0+0
SPC            1      46       1   0.0+0
SPC            1      46       2   0.0+0
SPC            1      46       3   0.0+0
SPC            1      52       3   0.0+0
SPC            1      52       1   0.0+0
SPC            1      53       1   0.0+0
SPC            1      53       2   0.0+0
SPC            1      53       3   0.0+0
SPC            1      56       3   0.0+0
SPC            1      57       3   0.0+0
SPC            1      59       3   0.0+0
SPC            1      59       1   0.0+0
SPC            1      60       3   0.0+0
SPC            1      61       3   0.0+0
SPC            1      62       1   0.0+0
SPC            1      62       2   0.0+0
SPC            1      62       3   0.0+0
SPC            1      67       3   0.0+0
SPC            1      68       3   0.0+0
SPC            1      69       3   0.0+0
SPC            1      81       3   0.0+0
SPC            1      82       3   0.0+0
SPC            1      83       3   0.0+0
SPC            1      84       3   0.0+0
$--1---><--2---><--3---><--4---><--5---><--6---><--7---><--8---><--9---><--10-->
$$$$$$$$$$$$$$$$$$$$$$$$$$$$$$$$$$$ Default $$$$$$$$$$$$$$$$$$$$$$$$$$$$$$$$$$$$
PSOLID         1       1       0                        
CTETRA         1       1       6       7       3       8
CTETRA         2       1       1       6       8       5
CTETRA         3       1       1       3       4       8
CTETRA         4       1       1       6       3       8
CTETRA         5       1       1       2       3       6
PSOLID         2       1       0                        
CTETRA         6       2      32      33      29      34      11      15+
+             20      24      25      26
CTETRA        11       2      27      32      34      31      12      24+
+             14      16      21      22
CTETRA        12       2      27      29      30      34      23      17+
+             18      14      26      19
CTETRA        13       2      27      32      29      34      12      20+
+             23      14      24      26
CTETRA        14       2      27      28      29      32       9      10+
+             23      12      13      20
PSOLID         3       1       0       2               1
CPENTA         7       3      35      37      38      39      41      42
CPENTA        15       3      35      36      37      39      40      41
CPENTA        16       3      45      43      44      49      47      48
PSOLID         4       1       0       3               1
CPENTA         8       4      45      46      43      49      50      47+
+             67      68      69      70      71      72      73      74+
+             75
PSOLID         5       1       0       2               1
CHEXA          9       5      51      52      53      54      55      56+
+             57      58
PSOLID         6       1       0       3               1
CHEXA         10       6      59      60      61      62      63      64+
+             65      66      81      82      83      84      85      86+
+             87      76      77      78      79      80
$--1---><--2---><--3---><--4---><--5---><--6---><--7---><--8---><--9---><--10-->
$$$$$$$$$$$$$$$$$$$$$$$$$$$$$$$$$ temperature $$$$$$$$$$$$$$$$$$$$$$$$$$$$$$$$$$
TEMP           4       1   3.0+2
TEMP           4       3   3.0+2
TEMP           4       4   3.0+2
TEMP           4       8   3.0+2
TEMP           4       6   3.0+2
TEMP           4       2   3.0+2
TEMP           4      32   3.0+2
TEMP           4      33   3.0+2
TEMP           4      29   3.0+2
TEMP           4      34   3.0+2
TEMP           4      11   3.0+2
TEMP           4      15   3.0+2
TEMP           4      20   3.0+2
TEMP           4      24   3.0+2
TEMP           4      25   3.0+2
TEMP           4      26   3.0+2
TEMP           4       5   3.0+2
TEMP           4       7   3.0+2
TEMP           4      35   3.0+2
TEMP           4      37   3.0+2
TEMP           4      38   3.0+2
TEMP           4      39   3.0+2
TEMP           4      41   3.0+2
TEMP           4      42   3.0+2
TEMP           4      45   3.0+2
TEMP           4      46   3.0+2
TEMP           4      43   3.0+2
TEMP           4      49   3.0+2
TEMP           4      50   3.0+2
TEMP           4      47   3.0+2
TEMP           4      67   3.0+2
TEMP           4      68   3.0+2
TEMP           4      69   3.0+2
TEMP           4      70   3.0+2
TEMP           4      71   3.0+2
TEMP           4      72   3.0+2
TEMP           4      73   3.0+2
TEMP           4      74   3.0+2
TEMP           4      75   3.0+2
TEMP           4      51   3.0+2
TEMP           4      52   3.0+2
TEMP           4      53   3.0+2
TEMP           4      54   3.0+2
TEMP           4      55   3.0+2
TEMP           4      56   3.0+2
TEMP           4      57   3.0+2
TEMP           4      58   3.0+2
TEMP           4      59   3.0+2
TEMP           4      60   3.0+2
TEMP           4      61   3.0+2
TEMP           4      62   3.0+2
TEMP           4      63   3.0+2
TEMP           4      64   3.0+2
TEMP           4      65   3.0+2
TEMP           4      66   3.0+2
TEMP           4      81   3.0+2
TEMP           4      82   3.0+2
TEMP           4      83   3.0+2
TEMP           4      84   3.0+2
TEMP           4      85   3.0+2
TEMP           4      86   3.0+2
TEMP           4      87   3.0+2
TEMP           4      76   3.0+2
TEMP           4      77   3.0+2
TEMP           4      78   3.0+2
TEMP           4      79   3.0+2
TEMP           4      80   3.0+2
TEMP           4      27   3.0+2
TEMP           4      31   3.0+2
TEMP           4      12   3.0+2
TEMP           4      14   3.0+2
TEMP           4      16   3.0+2
TEMP           4      21   3.0+2
TEMP           4      22   3.0+2
TEMP           4      30   3.0+2
TEMP           4      23   3.0+2
TEMP           4      17   3.0+2
TEMP           4      18   3.0+2
TEMP           4      19   3.0+2
TEMP           4      28   3.0+2
TEMP           4       9   3.0+2
TEMP           4      10   3.0+2
TEMP           4      13   3.0+2
TEMP           4      36   3.0+2
TEMP           4      40   3.0+2
TEMP           4      44   3.0+2
TEMP           4      48   3.0+2
$--1---><--2---><--3---><--4---><--5---><--6---><--7---><--8---><--9---><--10-->
TEMPD          4   0.0+0
$--1---><--2---><--3---><--4---><--5---><--6---><--7---><--8---><--9---><--10-->
ENDDATA 
