$ Generated by Mecway 33
$-----------------------EXECUTIVE CONTROL SECTION-----------------------
SOL 101
CEND
$-------------------------CASE CONTROL SECTION--------------------------
DISPLACEMENT = ALL
SPC = 1
LOAD = 1
BEGIN BULK
$---------------------------BULK DATA SECTION---------------------------
GRID           1       0   1.0+0   0.0+0   0.0+0       0
GRID           2       0   2.0+0   0.0+0   0.0+0       0
GRID           3       0   2.0+0   1.0+0   0.0+0       0
GRID           4       0   1.0+0   1.0+0   0.0+0       0
GRID           5       0   3.0+0   1.0+0   0.0+0       0
GRID           6       0   3.0+0   0.0+0   0.0+0       0
GRID*                  7               0 8.66025403784-1           0.0+0*
*                 -5.0-1               1
GRID*                  8               0 1.73205080757+0           0.0+0*
*                 -1.0+0               1
GRID*                  9               0 1.73205080757+0           1.0+0*
*                 -1.0+0               0
GRID*                 10               0 8.66025403784-1           1.0+0*
*                 -5.0-1               0
GRID*                 11               0 2.59807621135+0           1.0+0*
*                 -1.5+0               0
GRID*                 12               0 2.59807621135+0           0.0+0*
*                 -1.5+0               1
GRID          13       0   1.0+0   0.0+0   1.0+0       0
GRID          14       0   2.0+0   0.0+0   1.0+0       0
GRID*                 15               0           2.0+0 6.1230317691-17*
*                  2.0+0               0
GRID*                 16               0           1.0+0 6.1230317691-17*
*                  2.0+0               0
GRID*                 17               0           3.0+0 6.1230317691-17*
*                  2.0+0               0
GRID          18       0   3.0+0   0.0+0   1.0+0       0
GRID          19       0   1.0+0   2.0+0   0.0+0       0
GRID          20       0   2.0+0   2.0+0   0.0+0       0
GRID          21       0   2.0+0   3.0+0   0.0+0       0
GRID          22       0   1.0+0   3.0+0   0.0+0       0
GRID          23       0   3.0+0   3.0+0   0.0+0       0
GRID          24       0   3.0+0   2.0+0   0.0+0       0
GRID*                 25               0 8.66025403784-1           2.0+0*
*                 -5.0-1               1
GRID*                 26               0 1.73205080757+0           2.0+0*
*                 -1.0+0               1
GRID*                 27               0 1.73205080757+0           3.0+0*
*                 -1.0+0               0
GRID*                 28               0 8.66025403784-1           3.0+0*
*                 -5.0-1               0
GRID*                 29               0 2.59807621135+0           3.0+0*
*                 -1.5+0               0
GRID*                 30               0 2.59807621135+0           2.0+0*
*                 -1.5+0               1
GRID          31       0   1.0+0   2.0+0   1.0+0       0
GRID          32       0   2.0+0   2.0+0   1.0+0       0
GRID          33       0   2.0+0   2.0+0   2.0+0       0
GRID          34       0   1.0+0   2.0+0   2.0+0       0
GRID          35       0   3.0+0   2.0+0   2.0+0       0
GRID          36       0   3.0+0   2.0+0   1.0+0       0
PARAM    STR_CID      -2
$--1---><--2---><--3---><--4---><--5---><--6---><--7---><--8---><--9---><--10-->
$$$$$$$$$$$$$$$$$$$$$$$$$$$$$$$$$$$ Material $$$$$$$$$$$$$$$$$$$$$$$$$$$$$$$$$$$
MAT1*                  1          2.0+11 7.6923076923+10           3.0-1*
*                  0.0+0           0.0+0           0.0+0
$--1---><--2---><--3---><--4---><--5---><--6---><--7---><--8---><--9---><--10-->
CORD2R*                1               0           0.0+0           0.0+0*
*                  0.0+0           5.0-1           0.0+0 8.66025403784-1*
*        8.66025403784-1           0.0+0          -5.0-1                *
*
SPC            1       1       2   0.0+0
SPC            1       1       3   0.0+0
SPC            1       1       4   0.0+0
SPC            1       1       6   0.0+0
SPC            1       2       1   0.0+0
SPC            1       2       3   0.0+0
SPC            1       2       2   0.0+0
SPC            1       2       4   0.0+0
SPC            1       2       6   0.0+0
SPC            1       6       2   0.0+0
SPC            1       6       4   0.0+0
SPC            1       6       6   0.0+0
SPC            1       7       2   0.0+0
SPC            1       7       4   0.0+0
SPC            1       7       6   0.0+0
SPC            1       8       1   0.0+0
SPC            1       8       3   0.0+0
SPC            1       8       2   0.0+0
SPC            1       8       4   0.0+0
SPC            1       8       6   0.0+0
SPC            1      12       2   0.0+0
SPC            1      12       3   0.0+0
SPC            1      12       4   0.0+0
SPC            1      12       6   0.0+0
SPC            1      13       3   0.0+0
SPC            1      13       2   0.0+0
SPC            1      13       4   0.0+0
SPC            1      13       5   0.0+0
SPC            1      14       3   0.0+0
SPC            1      14       1   0.0+0
SPC            1      14       4   0.0+0
SPC            1      14       5   0.0+0
SPC            1      15       2   0.0+0
SPC            1      18       3   0.0+0
SPC            1      18       4   0.0+0
SPC            1      18       5   0.0+0
SPC            1      19       2   0.0+0
SPC            1      19       3   0.0+0
SPC            1      19       4   0.0+0
SPC            1      19       6   0.0+0
SPC            1      20       1   0.0+0
SPC            1      20       3   0.0+0
SPC            1      20       2   0.0+0
SPC            1      20       4   0.0+0
SPC            1      20       6   0.0+0
SPC            1      24       2   0.0+0
SPC            1      24       4   0.0+0
SPC            1      24       6   0.0+0
SPC            1      25       2   0.0+0
SPC            1      25       4   0.0+0
SPC            1      25       6   0.0+0
SPC            1      26       1   0.0+0
SPC            1      26       3   0.0+0
SPC            1      26       2   0.0+0
SPC            1      26       4   0.0+0
SPC            1      26       6   0.0+0
SPC            1      30       2   0.0+0
SPC            1      30       3   0.0+0
SPC            1      30       4   0.0+0
SPC            1      30       6   0.0+0
SPC            1      31       3   0.0+0
SPC            1      31       2   0.0+0
SPC            1      31       4   0.0+0
SPC            1      31       5   0.0+0
SPC            1      32       3   0.0+0
SPC            1      32       1   0.0+0
SPC            1      32       4   0.0+0
SPC            1      32       5   0.0+0
SPC            1      33       2   0.0+0
SPC            1      36       3   0.0+0
SPC            1      36       4   0.0+0
SPC            1      36       5   0.0+0
$--1---><--2---><--3---><--4---><--5---><--6---><--7---><--8---><--9---><--10-->
$$$$$$$$$$$$$$$$$$$$$$$$$$$$$$$$$$$ Default $$$$$$$$$$$$$$$$$$$$$$$$$$$$$$$$$$$$
PSHELL         2       1   2.0-1       1               1           0.0+0
CTRIA3         1       2       1       3       4   0.0+0   0.0+0
CTRIA3         2       2       2       1       3   0.0+0   0.0+0
CTRIA3         3       2       3       2       5   0.0+0   0.0+0
CTRIA3         4       2       6       5       2   0.0+0   0.0+0
CTRIA3*                5               2               7               9*
*                     10  4.344718493-15           0.0+0
CTRIA3         6       2       7       8       9   0.0+0   0.0+0
CTRIA3         7       2       9       8      11   0.0+0   0.0+0
CTRIA3         8       2      12      11       8   0.0+0   0.0+0
CTRIA3         9       2      13      15      16   0.0+0   0.0+0
CTRIA3        10       2      13      14      15   0.0+0   0.0+0
CTRIA3        11       2      15      14      17   0.0+0   0.0+0
CTRIA3        12       2      18      17      14   0.0+0   0.0+0
PSHELL         3       1   2.0-1       1               1           0.0+0
CQUAD4        13       3      20      24      23      21   0.0+0   0.0+0
CQUAD4        14       3      21      20      19      22   0.0+0   0.0+0
CQUAD4        15       3      31      34      33      32   0.0+0   0.0+0
CQUAD4        16       3      36      32      33      35   0.0+0   0.0+0
CQUAD4        17       3      26      27      29      30   0.0+0   0.0+0
CQUAD4        18       3      28      27      26      25   0.0+0   0.0+0
$--1---><--2---><--3---><--4---><--5---><--6---><--7---><--8---><--9---><--10-->
$$$$$$$$$$$$$$$$$$$$$$$$$$$$$$$$$$$$ force $$$$$$$$$$$$$$$$$$$$$$$$$$$$$$$$$$$$$
FORCE          2       3       0   1.0+0   0.0+0   5.0+6   0.0+0
FORCE          2       5       0   1.0+0   0.0+0   2.5+6   0.0+0
FORCE          2       4       0   1.0+0   0.0+0   2.5+6   0.0+0
FORCE          2       9       0   1.0+0   0.0+0   5.0+6   0.0+0
FORCE          2      10       0   1.0+0   0.0+0   2.5+6   0.0+0
FORCE          2      11       0   1.0+0   0.0+0   2.5+6   0.0+0
FORCE          2      27       0   1.0+0   0.0+0   5.0+6   0.0+0
FORCE          2      29       0   1.0+0   0.0+0   2.5+6   0.0+0
FORCE          2      28       0   1.0+0   0.0+0   2.5+6   0.0+0
FORCE          2      23       0   1.0+0   0.0+0   2.5+6   0.0+0
FORCE          2      21       0   1.0+0   0.0+0   5.0+6   0.0+0
FORCE          2      22       0   1.0+0   0.0+0   2.5+6   0.0+0
$--1---><--2---><--3---><--4---><--5---><--6---><--7---><--8---><--9---><--10-->
$$$$$$$$$$$$$$$$$$$$$$$$$$$$$$$$$$$$ force $$$$$$$$$$$$$$$$$$$$$$$$$$$$$$$$$$$$$
FORCE          2      15       0   1.0+0   0.0+0   0.0+0   5.0+6
FORCE          2      16       0   1.0+0   0.0+0   0.0+0   2.5+6
FORCE          2      17       0   1.0+0   0.0+0   0.0+0   2.5+6
FORCE          2      34       0   1.0+0   0.0+0   0.0+0   2.5+6
FORCE          2      33       0   1.0+0   0.0+0   0.0+0   5.0+6
FORCE          2      35       0   1.0+0   0.0+0   0.0+0   2.5+6
$--1---><--2---><--3---><--4---><--5---><--6---><--7---><--8---><--9---><--10-->
LOAD           1   1.0+0   1.0+0       2
ENDDATA 
