$ Generated by Mecway 33
$-----------------------EXECUTIVE CONTROL SECTION-----------------------
SOL 101
CEND
$-------------------------CASE CONTROL SECTION--------------------------
DISPLACEMENT = ALL
SPC = 1
BEGIN BULK
$---------------------------BULK DATA SECTION---------------------------
GRID           1       0   5.0-1   0.0+0   0.0+0       0
GRID*                  2               0 4.63388347648-1 8.83883476483-2*
*                  0.0+0               0
GRID*                  3               0 4.26776695297-1 1.76776695297-1*
*                  0.0+0               0
GRID*                  4               0 3.90165042945-1 2.65165042945-1*
*                  0.0+0               0
GRID*                  5               0 3.53553390593-1 3.53553390593-1*
*                  0.0+0               0
GRID           6       0  6.25-1   0.0+0   0.0+0       0
GRID*                  7               0   5.510524046-1 2.28253379564-1*
*                  0.0+0               0
GRID*                  8               0 4.41941738242-1 4.41941738242-1*
*                  0.0+0               0
GRID           9       0   7.5-1   0.0+0   0.0+0       0
GRID*                 10               0 7.22086814026-1 1.41739334832-1*
*                  0.0+0               0
GRID*                 11               0 6.75328113904-1 2.79730063831-1*
*                  0.0+0               0
GRID*                 12               0 6.10817327624-1 4.10367637982-1*
*                  0.0+0               0
GRID*                 13               0  5.3033008589-1  5.3033008589-1*
*                  0.0+0               0
GRID          14       0  8.75-1   0.0+0   0.0+0       0
GRID*                 15               0 7.99603823208-1 3.31206748098-1*
*                  0.0+0               0
GRID*                 16               0 6.18718433538-1 6.18718433538-1*
*                  0.0+0               0
GRID          17       0   1.0+0   0.0+0   0.0+0       0
GRID*                 18               0 9.80785280403-1 1.95090322016-1*
*                  0.0+0               1
GRID*                 19               0 9.23879532511-1 3.82683432365-1*
*                  0.0+0               2
GRID*                 20               0 8.31469612303-1  5.5557023302-1*
*                  0.0+0               3
GRID*                 21               0 7.07106781187-1 7.07106781187-1*
*                  0.0+0               4
GRID*                 22               0-3.31206748098-1-7.99603823208-1*
*                  0.0+0               0
GRID*                 23               0 2.65165042945-1 3.90165042945-1*
*                  0.0+0               0
GRID*                 24               0 1.76776695297-1 4.26776695297-1*
*                  0.0+0               0
GRID*                 25               0 8.83883476483-2 4.63388347648-1*
*                  0.0+0               0
GRID          26       0   0.0+0   5.0-1   0.0+0       0
GRID          27       0   0.0+0 -8.75-1   0.0+0       0
GRID*                 28               0 2.28253379564-1   5.510524046-1*
*                  0.0+0               0
GRID          29       0   0.0+0  6.25-1   0.0+0       0
GRID*                 30               0 9.23879532511-1-3.82683432365-1*
*                  0.0+0               5
GRID*                 31               0 4.10367637982-1 6.10817327624-1*
*                  0.0+0               0
GRID*                 32               0 2.79730063831-1 6.75328113904-1*
*                  0.0+0               0
GRID*                 33               0 1.41739334832-1 7.22086814026-1*
*                  0.0+0               0
GRID          34       0   0.0+0   7.5-1   0.0+0       0
GRID*                 35               0 -5.5557023302-1-8.31469612303-1*
*                  0.0+0               6
GRID*                 36               0 3.31206748098-1 7.99603823208-1*
*                  0.0+0               0
GRID*                 37               0-3.82683432365-1-9.23879532511-1*
*                  0.0+0               5
GRID*                 38               0-1.95090322016-1-9.80785280403-1*
*                  0.0+0               7
GRID*                 39               0  5.5557023302-1 8.31469612303-1*
*                  0.0+0               6
GRID*                 40               0 3.82683432365-1 9.23879532511-1*
*                  0.0+0               5
GRID*                 41               0 1.95090322016-1 9.80785280403-1*
*                  0.0+0               7
GRID          42       0   0.0+0  -1.0+0   0.0+0       0
GRID          43       0   0.0+0   0.0+0   0.0+0       0
GRID          44       0   0.0+0  1.25-1   0.0+0       0
GRID          45       0   0.0+0   2.5-1   0.0+0       0
GRID          46       0   0.0+0  3.75-1   0.0+0       0
GRID*                 47               0 8.31469612303-1 -5.5557023302-1*
*                  0.0+0               6
GRID          48       0  1.25-1   0.0+0   0.0+0       0
GRID*                 49               0 1.06694173824-1 2.31694173824-1*
*                  0.0+0               0
GRID          50       0   0.0+0 -1.25-1   0.0+0       0
GRID          51       0   2.5-1   0.0+0   0.0+0       0
GRID*                 52               0 2.31694173824-1 1.06694173824-1*
*                  0.0+0               0
GRID*                 53               0 2.13388347648-1 2.13388347648-1*
*                  0.0+0               0
GRID*                 54               0 1.95082521472-1 3.20082521472-1*
*                  0.0+0               0
GRID          55       0   0.0+0  -2.5-1   0.0+0       0
GRID          56       0  3.75-1   0.0+0   0.0+0       0
GRID*                 57               0 3.20082521472-1 1.95082521472-1*
*                  0.0+0               0
GRID          58       0   0.0+0 -3.75-1   0.0+0       0
GRID*                 59               0 7.07106781187-1-7.07106781187-1*
*                  0.0+0               8
GRID*                 60               0 3.20082521472-1-1.95082521472-1*
*                  0.0+0               0
GRID*                 61               0-1.06694173824-1-2.31694173824-1*
*                  0.0+0               0
GRID*                 62               0 2.65165042945-1-3.90165042945-1*
*                  0.0+0               0
GRID*                 63               0 1.76776695297-1-4.26776695297-1*
*                  0.0+0               0
GRID          64       0  -5.0-1   0.0+0   0.0+0       0
GRID*                 65               0-4.63388347648-1 8.83883476483-2*
*                  0.0+0               0
GRID*                 66               0-4.26776695297-1 1.76776695297-1*
*                  0.0+0               0
GRID*                 67               0-3.90165042945-1 2.65165042945-1*
*                  0.0+0               0
GRID*                 68               0-3.53553390593-1 3.53553390593-1*
*                  0.0+0               0
GRID          69       0 -6.25-1   0.0+0   0.0+0       0
GRID*                 70               0  -5.510524046-1 2.28253379564-1*
*                  0.0+0               0
GRID*                 71               0-4.41941738242-1 4.41941738242-1*
*                  0.0+0               0
GRID          72       0  -7.5-1   0.0+0   0.0+0       0
GRID*                 73               0-7.22086814026-1 1.41739334832-1*
*                  0.0+0               0
GRID*                 74               0-6.75328113904-1 2.79730063831-1*
*                  0.0+0               0
GRID*                 75               0-6.10817327624-1 4.10367637982-1*
*                  0.0+0               0
GRID*                 76               0 -5.3033008589-1  5.3033008589-1*
*                  0.0+0               0
GRID          77       0 -8.75-1   0.0+0   0.0+0       0
GRID*                 78               0-7.99603823208-1 3.31206748098-1*
*                  0.0+0               0
GRID*                 79               0-6.18718433538-1 6.18718433538-1*
*                  0.0+0               0
GRID          80       0  -1.0+0   0.0+0   0.0+0       0
GRID*                 81               0-9.80785280403-1 1.95090322016-1*
*                  0.0+0               7
GRID*                 82               0-9.23879532511-1 3.82683432365-1*
*                  0.0+0               5
GRID*                 83               0-8.31469612303-1  5.5557023302-1*
*                  0.0+0               6
GRID*                 84               0-7.07106781187-1 7.07106781187-1*
*                  0.0+0               8
GRID*                 85               0-2.31694173824-1-1.06694173824-1*
*                  0.0+0               0
GRID*                 86               0-2.65165042945-1 3.90165042945-1*
*                  0.0+0               0
GRID*                 87               0-1.76776695297-1 4.26776695297-1*
*                  0.0+0               0
GRID*                 88               0-8.83883476483-2 4.63388347648-1*
*                  0.0+0               0
GRID*                 89               0-2.13388347648-1-2.13388347648-1*
*                  0.0+0               0
GRID*                 90               0-1.95082521472-1-3.20082521472-1*
*                  0.0+0               0
GRID*                 91               0-2.28253379564-1   5.510524046-1*
*                  0.0+0               0
GRID*                 92               0 8.83883476483-2-4.63388347648-1*
*                  0.0+0               0
GRID*                 93               0  5.5557023302-1-8.31469612303-1*
*                  0.0+0               3
GRID*                 94               0-4.10367637982-1 6.10817327624-1*
*                  0.0+0               0
GRID*                 95               0-2.79730063831-1 6.75328113904-1*
*                  0.0+0               0
GRID*                 96               0-1.41739334832-1 7.22086814026-1*
*                  0.0+0               0
GRID*                 97               0-3.20082521472-1-1.95082521472-1*
*                  0.0+0               0
GRID*                 98               0 3.82683432365-1-9.23879532511-1*
*                  0.0+0               2
GRID*                 99               0-3.31206748098-1 7.99603823208-1*
*                  0.0+0               0
GRID         100       0   0.0+0  8.75-1   0.0+0       0
GRID*                101               0 2.28253379564-1  -5.510524046-1*
*                  0.0+0               0
GRID*                102               0 -5.5557023302-1 8.31469612303-1*
*                  0.0+0               3
GRID*                103               0-3.82683432365-1 9.23879532511-1*
*                  0.0+0               2
GRID*                104               0-1.95090322016-1 9.80785280403-1*
*                  0.0+0               1
GRID         105       0   0.0+0   1.0+0   0.0+0       0
GRID*                106               0 1.95090322016-1-9.80785280403-1*
*                  0.0+0               1
GRID*                107               0 2.31694173824-1-1.06694173824-1*
*                  0.0+0               0
GRID*                108               0 4.10367637982-1-6.10817327624-1*
*                  0.0+0               0
GRID*                109               0 2.79730063831-1-6.75328113904-1*
*                  0.0+0               0
GRID*                110               0 1.41739334832-1-7.22086814026-1*
*                  0.0+0               0
GRID         111       0 -1.25-1   0.0+0   0.0+0       0
GRID*                112               0-1.06694173824-1 2.31694173824-1*
*                  0.0+0               0
GRID*                113               0 4.63388347648-1-8.83883476483-2*
*                  0.0+0               0
GRID         114       0  -2.5-1   0.0+0   0.0+0       0
GRID*                115               0-2.31694173824-1 1.06694173824-1*
*                  0.0+0               0
GRID*                116               0-2.13388347648-1 2.13388347648-1*
*                  0.0+0               0
GRID*                117               0-1.95082521472-1 3.20082521472-1*
*                  0.0+0               0
GRID*                118               0 4.26776695297-1-1.76776695297-1*
*                  0.0+0               0
GRID         119       0 -3.75-1   0.0+0   0.0+0       0
GRID*                120               0-3.20082521472-1 1.95082521472-1*
*                  0.0+0               0
GRID*                121               0 3.90165042945-1-2.65165042945-1*
*                  0.0+0               0
GRID*                122               0 3.53553390593-1-3.53553390593-1*
*                  0.0+0               0
GRID*                123               0 2.13388347648-1-2.13388347648-1*
*                  0.0+0               0
GRID*                124               0   5.510524046-1-2.28253379564-1*
*                  0.0+0               0
GRID*                125               0 4.41941738242-1-4.41941738242-1*
*                  0.0+0               0
GRID*                126               0 1.06694173824-1-2.31694173824-1*
*                  0.0+0               0
GRID*                127               0 7.22086814026-1-1.41739334832-1*
*                  0.0+0               0
GRID*                128               0-4.63388347648-1-8.83883476483-2*
*                  0.0+0               0
GRID*                129               0-4.26776695297-1-1.76776695297-1*
*                  0.0+0               0
GRID*                130               0-3.90165042945-1-2.65165042945-1*
*                  0.0+0               0
GRID*                131               0-3.53553390593-1-3.53553390593-1*
*                  0.0+0               0
GRID*                132               0 6.75328113904-1-2.79730063831-1*
*                  0.0+0               0
GRID*                133               0  -5.510524046-1-2.28253379564-1*
*                  0.0+0               0
GRID*                134               0-4.41941738242-1-4.41941738242-1*
*                  0.0+0               0
GRID*                135               0 6.10817327624-1-4.10367637982-1*
*                  0.0+0               0
GRID*                136               0-7.22086814026-1-1.41739334832-1*
*                  0.0+0               0
GRID*                137               0-6.75328113904-1-2.79730063831-1*
*                  0.0+0               0
GRID*                138               0-6.10817327624-1-4.10367637982-1*
*                  0.0+0               0
GRID*                139               0 -5.3033008589-1 -5.3033008589-1*
*                  0.0+0               0
GRID*                140               0  5.3033008589-1 -5.3033008589-1*
*                  0.0+0               0
GRID*                141               0-7.99603823208-1-3.31206748098-1*
*                  0.0+0               0
GRID*                142               0-6.18718433538-1-6.18718433538-1*
*                  0.0+0               0
GRID*                143               0 3.31206748098-1-7.99603823208-1*
*                  0.0+0               0
GRID*                144               0-9.80785280403-1-1.95090322016-1*
*                  0.0+0               1
GRID*                145               0-9.23879532511-1-3.82683432365-1*
*                  0.0+0               2
GRID*                146               0-8.31469612303-1 -5.5557023302-1*
*                  0.0+0               3
GRID*                147               0-7.07106781187-1-7.07106781187-1*
*                  0.0+0               4
GRID*                148               0 7.99603823208-1-3.31206748098-1*
*                  0.0+0               0
GRID*                149               0-2.65165042945-1-3.90165042945-1*
*                  0.0+0               0
GRID*                150               0-1.76776695297-1-4.26776695297-1*
*                  0.0+0               0
GRID*                151               0-8.83883476483-2-4.63388347648-1*
*                  0.0+0               0
GRID         152       0   0.0+0  -5.0-1   0.0+0       0
GRID*                153               0 6.18718433538-1-6.18718433538-1*
*                  0.0+0               0
GRID*                154               0-2.28253379564-1  -5.510524046-1*
*                  0.0+0               0
GRID         155       0   0.0+0 -6.25-1   0.0+0       0
GRID*                156               0 1.95082521472-1-3.20082521472-1*
*                  0.0+0               0
GRID*                157               0-4.10367637982-1-6.10817327624-1*
*                  0.0+0               0
GRID*                158               0-2.79730063831-1-6.75328113904-1*
*                  0.0+0               0
GRID*                159               0-1.41739334832-1-7.22086814026-1*
*                  0.0+0               0
GRID         160       0   0.0+0  -7.5-1   0.0+0       0
GRID*                161               0 9.80785280403-1-1.95090322016-1*
*                  0.0+0               7
GRID         162       0   5.0-1   0.0+0   1.0-1       0
GRID         163       0   5.0-1   0.0+0   2.0-1       0
GRID         164       0   7.5-1   0.0+0   1.0-1       0
GRID         165       0   7.5-1   0.0+0   2.0-1       0
GRID*                166               0 6.75328113904-1 2.79730063831-1*
*                  1.0-1               0
GRID*                167               0 6.75328113904-1 2.79730063831-1*
*                  2.0-1               0
GRID*                168               0 4.26776695297-1 1.76776695297-1*
*                  1.0-1               0
GRID*                169               0 4.26776695297-1 1.76776695297-1*
*                  2.0-1               0
GRID*                170               0  5.3033008589-1  5.3033008589-1*
*                  1.0-1               0
GRID*                171               0  5.3033008589-1  5.3033008589-1*
*                  2.0-1               0
GRID*                172               0 3.53553390593-1 3.53553390593-1*
*                  1.0-1               0
GRID*                173               0 3.53553390593-1 3.53553390593-1*
*                  2.0-1               0
GRID         174       0   1.0+0   0.0+0   1.0-1       0
GRID         175       0   1.0+0   0.0+0   2.0-1       0
GRID*                176               0 9.23879532511-1 3.82683432365-1*
*                  1.0-1               2
GRID*                177               0 9.23879532511-1 3.82683432365-1*
*                  2.0-1               2
GRID*                178               0 7.07106781187-1 7.07106781187-1*
*                  1.0-1               4
GRID*                179               0 7.07106781187-1 7.07106781187-1*
*                  2.0-1               8
GRID*                180               0 2.79730063831-1 6.75328113904-1*
*                  1.0-1               0
GRID*                181               0 2.79730063831-1 6.75328113904-1*
*                  2.0-1               0
GRID*                182               0 1.76776695297-1 4.26776695297-1*
*                  1.0-1               0
GRID*                183               0 1.76776695297-1 4.26776695297-1*
*                  2.0-1               0
GRID         184       0   0.0+0   7.5-1   1.0-1       0
GRID         185       0   0.0+0   7.5-1   2.0-1       0
GRID         186       0   0.0+0   5.0-1   1.0-1       0
GRID         187       0   0.0+0   5.0-1   2.0-1       0
GRID*                188               0 3.82683432365-1 9.23879532511-1*
*                  1.0-1               5
GRID*                189               0 3.82683432365-1 9.23879532511-1*
*                  2.0-1               5
GRID         190       0   0.0+0   1.0+0   1.0-1       0
GRID         191       0   0.0+0   1.0+0   2.0-1       0
GRID         192       0   0.0+0   0.0+0   1.0-1       0
GRID         193       0   0.0+0   0.0+0   2.0-1       0
GRID         194       0   2.5-1   0.0+0   1.0-1       0
GRID         195       0   2.5-1   0.0+0   2.0-1       0
GRID*                196               0 2.13388347648-1 2.13388347648-1*
*                  1.0-1               0
GRID*                197               0 2.13388347648-1 2.13388347648-1*
*                  2.0-1               0
GRID         198       0   0.0+0   2.5-1   1.0-1       0
GRID         199       0   0.0+0   2.5-1   2.0-1       0
GRID         200       0  -7.5-1   0.0+0   1.0-1       0
GRID         201       0  -7.5-1   0.0+0   2.0-1       0
GRID         202       0  -5.0-1   0.0+0   1.0-1       0
GRID         203       0  -5.0-1   0.0+0   2.0-1       0
GRID*                204               0-4.26776695297-1 1.76776695297-1*
*                  1.0-1               0
GRID*                205               0-4.26776695297-1 1.76776695297-1*
*                  2.0-1               0
GRID*                206               0-6.75328113904-1 2.79730063831-1*
*                  1.0-1               0
GRID*                207               0-6.75328113904-1 2.79730063831-1*
*                  2.0-1               0
GRID*                208               0-3.53553390593-1 3.53553390593-1*
*                  1.0-1               0
GRID*                209               0-3.53553390593-1 3.53553390593-1*
*                  2.0-1               0
GRID*                210               0 -5.3033008589-1  5.3033008589-1*
*                  1.0-1               0
GRID*                211               0 -5.3033008589-1  5.3033008589-1*
*                  2.0-1               0
GRID         212       0  -1.0+0   0.0+0   1.0-1       0
GRID         213       0  -1.0+0   0.0+0   2.0-1       0
GRID*                214               0-9.23879532511-1 3.82683432365-1*
*                  1.0-1               5
GRID*                215               0-9.23879532511-1 3.82683432365-1*
*                  2.0-1               5
GRID*                216               0-7.07106781187-1 7.07106781187-1*
*                  1.0-1               8
GRID*                217               0-7.07106781187-1 7.07106781187-1*
*                  2.0-1               4
GRID*                218               0-1.76776695297-1 4.26776695297-1*
*                  1.0-1               0
GRID*                219               0-1.76776695297-1 4.26776695297-1*
*                  2.0-1               0
GRID*                220               0-2.79730063831-1 6.75328113904-1*
*                  1.0-1               0
GRID*                221               0-2.79730063831-1 6.75328113904-1*
*                  2.0-1               0
GRID*                222               0-3.82683432365-1 9.23879532511-1*
*                  1.0-1               2
GRID*                223               0-3.82683432365-1 9.23879532511-1*
*                  2.0-1               2
GRID         224       0  -2.5-1   0.0+0   1.0-1       0
GRID         225       0  -2.5-1   0.0+0   2.0-1       0
GRID*                226               0-2.13388347648-1 2.13388347648-1*
*                  1.0-1               0
GRID*                227               0-2.13388347648-1 2.13388347648-1*
*                  2.0-1               0
GRID*                228               0-6.75328113904-1-2.79730063831-1*
*                  1.0-1               0
GRID*                229               0-6.75328113904-1-2.79730063831-1*
*                  2.0-1               0
GRID*                230               0-4.26776695297-1-1.76776695297-1*
*                  1.0-1               0
GRID*                231               0-4.26776695297-1-1.76776695297-1*
*                  2.0-1               0
GRID*                232               0 -5.3033008589-1 -5.3033008589-1*
*                  1.0-1               0
GRID*                233               0 -5.3033008589-1 -5.3033008589-1*
*                  2.0-1               0
GRID*                234               0-3.53553390593-1-3.53553390593-1*
*                  1.0-1               0
GRID*                235               0-3.53553390593-1-3.53553390593-1*
*                  2.0-1               0
GRID*                236               0-9.23879532511-1-3.82683432365-1*
*                  1.0-1               2
GRID*                237               0-9.23879532511-1-3.82683432365-1*
*                  2.0-1               2
GRID*                238               0-7.07106781187-1-7.07106781187-1*
*                  1.0-1               4
GRID*                239               0-7.07106781187-1-7.07106781187-1*
*                  2.0-1               8
GRID*                240               0-2.79730063831-1-6.75328113904-1*
*                  1.0-1               0
GRID*                241               0-2.79730063831-1-6.75328113904-1*
*                  2.0-1               0
GRID*                242               0-1.76776695297-1-4.26776695297-1*
*                  1.0-1               0
GRID*                243               0-1.76776695297-1-4.26776695297-1*
*                  2.0-1               0
GRID         244       0   0.0+0  -7.5-1   1.0-1       0
GRID         245       0   0.0+0  -7.5-1   2.0-1       0
GRID         246       0   0.0+0  -5.0-1   1.0-1       0
GRID         247       0   0.0+0  -5.0-1   2.0-1       0
GRID*                248               0-3.82683432365-1-9.23879532511-1*
*                  1.0-1               5
GRID*                249               0-3.82683432365-1-9.23879532511-1*
*                  2.0-1               5
GRID         250       0   0.0+0  -1.0+0   1.0-1       0
GRID         251       0   0.0+0  -1.0+0   2.0-1       0
GRID*                252               0-2.13388347648-1-2.13388347648-1*
*                  1.0-1               0
GRID*                253               0-2.13388347648-1-2.13388347648-1*
*                  2.0-1               0
GRID         254       0   0.0+0  -2.5-1   1.0-1       0
GRID         255       0   0.0+0  -2.5-1   2.0-1       0
GRID*                256               0 4.26776695297-1-1.76776695297-1*
*                  1.0-1               0
GRID*                257               0 4.26776695297-1-1.76776695297-1*
*                  2.0-1               0
GRID*                258               0 6.75328113904-1-2.79730063831-1*
*                  1.0-1               0
GRID*                259               0 6.75328113904-1-2.79730063831-1*
*                  2.0-1               0
GRID*                260               0 3.53553390593-1-3.53553390593-1*
*                  1.0-1               0
GRID*                261               0 3.53553390593-1-3.53553390593-1*
*                  2.0-1               0
GRID*                262               0  5.3033008589-1 -5.3033008589-1*
*                  1.0-1               0
GRID*                263               0  5.3033008589-1 -5.3033008589-1*
*                  2.0-1               0
GRID*                264               0 9.23879532511-1-3.82683432365-1*
*                  1.0-1               5
GRID*                265               0 9.23879532511-1-3.82683432365-1*
*                  2.0-1               5
GRID*                266               0 7.07106781187-1-7.07106781187-1*
*                  1.0-1               8
GRID*                267               0 7.07106781187-1-7.07106781187-1*
*                  2.0-1               4
GRID*                268               0 1.76776695297-1-4.26776695297-1*
*                  1.0-1               0
GRID*                269               0 1.76776695297-1-4.26776695297-1*
*                  2.0-1               0
GRID*                270               0 2.79730063831-1-6.75328113904-1*
*                  1.0-1               0
GRID*                271               0 2.79730063831-1-6.75328113904-1*
*                  2.0-1               0
GRID*                272               0 3.82683432365-1-9.23879532511-1*
*                  1.0-1               2
GRID*                273               0 3.82683432365-1-9.23879532511-1*
*                  2.0-1               2
GRID*                274               0 2.13388347648-1-2.13388347648-1*
*                  1.0-1               0
GRID*                275               0 2.13388347648-1-2.13388347648-1*
*                  2.0-1               0
GRID         276       0  6.25-1   0.0+0   2.0-1       0
GRID*                277               0 7.22086814026-1 1.41739334832-1*
*                  2.0-1               0
GRID*                278               0   5.510524046-1 2.28253379564-1*
*                  2.0-1               0
GRID*                279               0 4.63388347648-1 8.83883476483-2*
*                  2.0-1               0
GRID*                280               0 6.10817327624-1 4.10367637982-1*
*                  2.0-1               0
GRID*                281               0 4.41941738242-1 4.41941738242-1*
*                  2.0-1               0
GRID*                282               0 3.90165042945-1 2.65165042945-1*
*                  2.0-1               0
GRID         283       0  8.75-1   0.0+0   2.0-1       0
GRID*                284               0 9.80785280403-1 1.95090322016-1*
*                  2.0-1               1
GRID*                285               0 7.99603823208-1 3.31206748098-1*
*                  2.0-1               0
GRID*                286               0 8.31469612303-1  5.5557023302-1*
*                  2.0-1               3
GRID*                287               0 6.18718433538-1 6.18718433538-1*
*                  2.0-1               0
GRID*                288               0 4.10367637982-1 6.10817327624-1*
*                  2.0-1               0
GRID*                289               0 2.28253379564-1   5.510524046-1*
*                  2.0-1               0
GRID*                290               0 2.65165042945-1 3.90165042945-1*
*                  2.0-1               0
GRID*                291               0 1.41739334832-1 7.22086814026-1*
*                  2.0-1               0
GRID         292       0   0.0+0  6.25-1   2.0-1       0
GRID*                293               0 8.83883476483-2 4.63388347648-1*
*                  2.0-1               0
GRID*                294               0  5.5557023302-1 8.31469612303-1*
*                  2.0-1               6
GRID*                295               0 3.31206748098-1 7.99603823208-1*
*                  2.0-1               0
GRID*                296               0 1.95090322016-1 9.80785280403-1*
*                  2.0-1               7
GRID         297       0   0.0+0  8.75-1   2.0-1       0
GRID         298       0  1.25-1   0.0+0   2.0-1       0
GRID*                299               0 2.31694173824-1 1.06694173824-1*
*                  2.0-1               0
GRID*                300               0 1.06694173824-1 2.31694173824-1*
*                  2.0-1               0
GRID         301       0   0.0+0  1.25-1   2.0-1       0
GRID*                302               0 1.95082521472-1 3.20082521472-1*
*                  2.0-1               0
GRID         303       0   0.0+0  3.75-1   2.0-1       0
GRID         304       0  3.75-1   0.0+0   2.0-1       0
GRID*                305               0 3.20082521472-1 1.95082521472-1*
*                  2.0-1               0
GRID         306       0 -6.25-1   0.0+0   2.0-1       0
GRID*                307               0-4.63388347648-1 8.83883476483-2*
*                  2.0-1               0
GRID*                308               0  -5.510524046-1 2.28253379564-1*
*                  2.0-1               0
GRID*                309               0-7.22086814026-1 1.41739334832-1*
*                  2.0-1               0
GRID*                310               0-3.90165042945-1 2.65165042945-1*
*                  2.0-1               0
GRID*                311               0-4.41941738242-1 4.41941738242-1*
*                  2.0-1               0
GRID*                312               0-6.10817327624-1 4.10367637982-1*
*                  2.0-1               0
GRID         313       0 -8.75-1   0.0+0   2.0-1       0
GRID*                314               0-7.99603823208-1 3.31206748098-1*
*                  2.0-1               0
GRID*                315               0-9.80785280403-1 1.95090322016-1*
*                  2.0-1               7
GRID*                316               0-6.18718433538-1 6.18718433538-1*
*                  2.0-1               0
GRID*                317               0-8.31469612303-1  5.5557023302-1*
*                  2.0-1               6
GRID*                318               0-2.65165042945-1 3.90165042945-1*
*                  2.0-1               0
GRID*                319               0-2.28253379564-1   5.510524046-1*
*                  2.0-1               0
GRID*                320               0-4.10367637982-1 6.10817327624-1*
*                  2.0-1               0
GRID*                321               0-8.83883476483-2 4.63388347648-1*
*                  2.0-1               0
GRID*                322               0-1.41739334832-1 7.22086814026-1*
*                  2.0-1               0
GRID*                323               0-3.31206748098-1 7.99603823208-1*
*                  2.0-1               0
GRID*                324               0 -5.5557023302-1 8.31469612303-1*
*                  2.0-1               3
GRID*                325               0-1.95090322016-1 9.80785280403-1*
*                  2.0-1               1
GRID         326       0 -1.25-1   0.0+0   2.0-1       0
GRID*                327               0-1.06694173824-1 2.31694173824-1*
*                  2.0-1               0
GRID*                328               0-2.31694173824-1 1.06694173824-1*
*                  2.0-1               0
GRID*                329               0-1.95082521472-1 3.20082521472-1*
*                  2.0-1               0
GRID         330       0 -3.75-1   0.0+0   2.0-1       0
GRID*                331               0-3.20082521472-1 1.95082521472-1*
*                  2.0-1               0
GRID*                332               0-7.22086814026-1-1.41739334832-1*
*                  2.0-1               0
GRID*                333               0  -5.510524046-1-2.28253379564-1*
*                  2.0-1               0
GRID*                334               0-4.63388347648-1-8.83883476483-2*
*                  2.0-1               0
GRID*                335               0-6.10817327624-1-4.10367637982-1*
*                  2.0-1               0
GRID*                336               0-4.41941738242-1-4.41941738242-1*
*                  2.0-1               0
GRID*                337               0-3.90165042945-1-2.65165042945-1*
*                  2.0-1               0
GRID*                338               0-9.80785280403-1-1.95090322016-1*
*                  2.0-1               1
GRID*                339               0-7.99603823208-1-3.31206748098-1*
*                  2.0-1               0
GRID*                340               0-8.31469612303-1 -5.5557023302-1*
*                  2.0-1               3
GRID*                341               0-6.18718433538-1-6.18718433538-1*
*                  2.0-1               0
GRID*                342               0-4.10367637982-1-6.10817327624-1*
*                  2.0-1               0
GRID*                343               0-2.28253379564-1  -5.510524046-1*
*                  2.0-1               0
GRID*                344               0-2.65165042945-1-3.90165042945-1*
*                  2.0-1               0
GRID*                345               0-1.41739334832-1-7.22086814026-1*
*                  2.0-1               0
GRID         346       0   0.0+0 -6.25-1   2.0-1       0
GRID*                347               0-8.83883476483-2-4.63388347648-1*
*                  2.0-1               0
GRID*                348               0 -5.5557023302-1-8.31469612303-1*
*                  2.0-1               6
GRID*                349               0-3.31206748098-1-7.99603823208-1*
*                  2.0-1               0
GRID*                350               0-1.95090322016-1-9.80785280403-1*
*                  2.0-1               7
GRID         351       0   0.0+0 -8.75-1   2.0-1       0
GRID*                352               0-2.31694173824-1-1.06694173824-1*
*                  2.0-1               0
GRID*                353               0-1.06694173824-1-2.31694173824-1*
*                  2.0-1               0
GRID         354       0   0.0+0 -1.25-1   2.0-1       0
GRID*                355               0-1.95082521472-1-3.20082521472-1*
*                  2.0-1               0
GRID         356       0   0.0+0 -3.75-1   2.0-1       0
GRID*                357               0-3.20082521472-1-1.95082521472-1*
*                  2.0-1               0
GRID*                358               0 4.63388347648-1-8.83883476483-2*
*                  2.0-1               0
GRID*                359               0   5.510524046-1-2.28253379564-1*
*                  2.0-1               0
GRID*                360               0 7.22086814026-1-1.41739334832-1*
*                  2.0-1               0
GRID*                361               0 3.90165042945-1-2.65165042945-1*
*                  2.0-1               0
GRID*                362               0 4.41941738242-1-4.41941738242-1*
*                  2.0-1               0
GRID*                363               0 6.10817327624-1-4.10367637982-1*
*                  2.0-1               0
GRID*                364               0 7.99603823208-1-3.31206748098-1*
*                  2.0-1               0
GRID*                365               0 9.80785280403-1-1.95090322016-1*
*                  2.0-1               7
GRID*                366               0 6.18718433538-1-6.18718433538-1*
*                  2.0-1               0
GRID*                367               0 8.31469612303-1 -5.5557023302-1*
*                  2.0-1               6
GRID*                368               0 2.65165042945-1-3.90165042945-1*
*                  2.0-1               0
GRID*                369               0 2.28253379564-1  -5.510524046-1*
*                  2.0-1               0
GRID*                370               0 4.10367637982-1-6.10817327624-1*
*                  2.0-1               0
GRID*                371               0 8.83883476483-2-4.63388347648-1*
*                  2.0-1               0
GRID*                372               0 1.41739334832-1-7.22086814026-1*
*                  2.0-1               0
GRID*                373               0 3.31206748098-1-7.99603823208-1*
*                  2.0-1               0
GRID*                374               0  5.5557023302-1-8.31469612303-1*
*                  2.0-1               3
GRID*                375               0 1.95090322016-1-9.80785280403-1*
*                  2.0-1               1
GRID*                376               0 1.06694173824-1-2.31694173824-1*
*                  2.0-1               0
GRID*                377               0 2.31694173824-1-1.06694173824-1*
*                  2.0-1               0
GRID*                378               0 1.95082521472-1-3.20082521472-1*
*                  2.0-1               0
GRID*                379               0 3.20082521472-1-1.95082521472-1*
*                  2.0-1               0
PARAM    STR_CID      -2
$--1---><--2---><--3---><--4---><--5---><--6---><--7---><--8---><--9---><--10-->
$$$$$$$$$$$$$$$$$$$$$$$$$$$$$$$$$$$ Material $$$$$$$$$$$$$$$$$$$$$$$$$$$$$$$$$$$
MAT1           1  1.0+11  5.0+10   0.0+0   0.0+0   0.0+0   0.0+0
$--1---><--2---><--3---><--4---><--5---><--6---><--7---><--8---><--9---><--10-->
CORD2R*                1               0           0.0+0           0.0+0*
*                  0.0+0           0.0+0           0.0+0           1.0+0*
*        9.80785280403-1 1.95090322016-1           0.0+0                *
*
CORD2R*                2               0           0.0+0           0.0+0*
*                  0.0+0           0.0+0           0.0+0           1.0+0*
*        9.23879532511-1 3.82683432365-1           0.0+0                *
*
CORD2R*                3               0           0.0+0           0.0+0*
*                  0.0+0           0.0+0           0.0+0           1.0+0*
*        8.31469612303-1  5.5557023302-1           0.0+0                *
*
CORD2R*                4               0           0.0+0           0.0+0*
*                  0.0+0           0.0+0           0.0+0           1.0+0*
*        7.07106781187-1 7.07106781187-1           0.0+0                *
*
CORD2R*                5               0           0.0+0           0.0+0*
*                  0.0+0           0.0+0           0.0+0           1.0+0*
*        9.23879532511-1-3.82683432365-1           0.0+0                *
*
CORD2R*                6               0           0.0+0           0.0+0*
*                  0.0+0           0.0+0           0.0+0           1.0+0*
*        8.31469612303-1 -5.5557023302-1           0.0+0                *
*
CORD2R*                7               0           0.0+0           0.0+0*
*                  0.0+0           0.0+0           0.0+0           1.0+0*
*        9.80785280403-1-1.95090322016-1           0.0+0                *
*
CORD2R*                8               0           0.0+0           0.0+0*
*                  0.0+0           0.0+0           0.0+0           1.0+0*
*        7.07106781187-1-7.07106781187-1           0.0+0                *
*
SPC            1      17       2   1.0-1
SPC            1      18       2   1.0-1
SPC            1      19       2   1.0-1
SPC            1      20       2   1.0-1
SPC            1      21       2   1.0-1
SPC            1      30       2   1.0-1
SPC            1      35       1   1.0-1
SPC            1      37       1   1.0-1
SPC            1      38       1   1.0-1
SPC            1      39       1  -1.0-1
SPC            1      40       1  -1.0-1
SPC            1      41       1  -1.0-1
SPC            1      42       1   1.0-1
SPC            1      47       2   1.0-1
SPC            1      59       2   1.0-1
SPC            1      80       2  -1.0-1
SPC            1      81       2  -1.0-1
SPC            1      82       2  -1.0-1
SPC            1      83       2  -1.0-1
SPC            1      84       2  -1.0-1
SPC            1      93       1   1.0-1
SPC            1      98       1   1.0-1
SPC            1     102       1  -1.0-1
SPC            1     103       1  -1.0-1
SPC            1     104       1  -1.0-1
SPC            1     105       1  -1.0-1
SPC            1     106       1   1.0-1
SPC            1     144       2  -1.0-1
SPC            1     145       2  -1.0-1
SPC            1     146       2  -1.0-1
SPC            1     147       2  -1.0-1
SPC            1     161       2   1.0-1
SPC            1     163       3   0.0+0
SPC            1     165       3   0.0+0
SPC            1     167       3   0.0+0
SPC            1     169       3   0.0+0
SPC            1     171       3   0.0+0
SPC            1     173       3   0.0+0
SPC            1     174       2   1.0-1
SPC            1     175       2   1.0-1
SPC*                   1             175               3-1.8088047912-17*
*       
SPC            1     176       2   1.0-1
SPC            1     177       2   1.0-1
SPC*                   1             177               3-1.3855246183-17*
*       
SPC            1     178       2   1.0-1
SPC            1     179       1  -1.0-1
SPC*                   1             179               3-1.1592321647-17*
*       
SPC            1     181       3   0.0+0
SPC            1     183       3   0.0+0
SPC            1     185       3   0.0+0
SPC            1     187       3   0.0+0
SPC            1     188       1  -1.0-1
SPC            1     189       1  -1.0-1
SPC*                   1             189               3-9.0524707518-18*
*       
SPC            1     190       1  -1.0-1
SPC            1     191       1  -1.0-1
SPC*                   1             191               3-2.0614695268-20*
*       
SPC            1     193       3   0.0+0
SPC            1     195       3   0.0+0
SPC            1     197       3   0.0+0
SPC            1     199       3   0.0+0
SPC            1     201       3   0.0+0
SPC            1     203       3   0.0+0
SPC            1     205       3   0.0+0
SPC            1     207       3   0.0+0
SPC            1     209       3   0.0+0
SPC            1     211       3   0.0+0
SPC            1     212       2  -1.0-1
SPC            1     213       2  -1.0-1
SPC*                   1             213               3-1.7977851398-17*
*       
SPC            1     214       2  -1.0-1
SPC            1     215       2  -1.0-1
SPC*                   1             215               3 6.8686279924-18*
*       
SPC            1     216       2  -1.0-1
SPC            1     217       1  -1.0-1
SPC*                   1             217               3  4.583655787-18*
*       
SPC            1     219       3   0.0+0
SPC            1     221       3   0.0+0
SPC            1     222       1  -1.0-1
SPC            1     223       1  -1.0-1
SPC*                   1             223               3 2.0375081573-18*
*       
SPC            1     225       3   0.0+0
SPC            1     227       3   0.0+0
SPC            1     229       3   0.0+0
SPC            1     231       3   0.0+0
SPC            1     233       3   0.0+0
SPC            1     235       3   0.0+0
SPC            1     236       2  -1.0-1
SPC            1     237       2  -1.0-1
SPC*                   1             237               3-1.3855246183-17*
*       
SPC            1     238       2  -1.0-1
SPC            1     239       1   1.0-1
SPC*                   1             239               3-1.1592321647-17*
*       
SPC            1     241       3   0.0+0
SPC            1     243       3   0.0+0
SPC            1     245       3   0.0+0
SPC            1     247       3   0.0+0
SPC            1     248       1   1.0-1
SPC            1     249       1   1.0-1
SPC*                   1             249               3-9.0524707518-18*
*       
SPC            1     250       1   1.0-1
SPC            1     251       1   1.0-1
SPC*                   1             251               3-2.0614695268-20*
*       
SPC            1     253       3   0.0+0
SPC            1     255       3   0.0+0
SPC            1     257       3   0.0+0
SPC            1     259       3   0.0+0
SPC            1     261       3   0.0+0
SPC            1     263       3   0.0+0
SPC            1     264       2   1.0-1
SPC            1     265       2   1.0-1
SPC*                   1             265               3 6.8686279924-18*
*       
SPC            1     266       2   1.0-1
SPC            1     267       1   1.0-1
SPC*                   1             267               3  4.583655787-18*
*       
SPC            1     269       3   0.0+0
SPC            1     271       3   0.0+0
SPC            1     272       1   1.0-1
SPC            1     273       1   1.0-1
SPC*                   1             273               3 2.0375081573-18*
*       
SPC            1     275       3   0.0+0
SPC            1     276       3   0.0+0
SPC            1     277       3   0.0+0
SPC            1     278       3   0.0+0
SPC            1     279       3   0.0+0
SPC            1     280       3   0.0+0
SPC            1     281       3   0.0+0
SPC            1     282       3   0.0+0
SPC            1     283       3   0.0+0
SPC            1     284       2   1.0-1
SPC            1     284       3   0.0+0
SPC            1     285       3   0.0+0
SPC            1     286       2   1.0-1
SPC            1     286       3   0.0+0
SPC            1     287       3   0.0+0
SPC            1     288       3   0.0+0
SPC            1     289       3   0.0+0
SPC            1     290       3   0.0+0
SPC            1     291       3   0.0+0
SPC            1     292       3   0.0+0
SPC            1     293       3   0.0+0
SPC            1     294       1  -1.0-1
SPC            1     294       3   0.0+0
SPC            1     295       3   0.0+0
SPC            1     296       1  -1.0-1
SPC            1     296       3   0.0+0
SPC            1     297       3   0.0+0
SPC            1     298       3   0.0+0
SPC            1     299       3   0.0+0
SPC            1     300       3   0.0+0
SPC            1     301       3   0.0+0
SPC            1     302       3   0.0+0
SPC            1     303       3   0.0+0
SPC            1     304       3   0.0+0
SPC            1     305       3   0.0+0
SPC            1     306       3   0.0+0
SPC            1     307       3   0.0+0
SPC            1     308       3   0.0+0
SPC            1     309       3   0.0+0
SPC            1     310       3   0.0+0
SPC            1     311       3   0.0+0
SPC            1     312       3   0.0+0
SPC            1     313       3   0.0+0
SPC            1     314       3   0.0+0
SPC            1     315       2  -1.0-1
SPC            1     315       3   0.0+0
SPC            1     316       3   0.0+0
SPC            1     317       2  -1.0-1
SPC            1     317       3   0.0+0
SPC            1     318       3   0.0+0
SPC            1     319       3   0.0+0
SPC            1     320       3   0.0+0
SPC            1     321       3   0.0+0
SPC            1     322       3   0.0+0
SPC            1     323       3   0.0+0
SPC            1     324       1  -1.0-1
SPC            1     324       3   0.0+0
SPC            1     325       1  -1.0-1
SPC            1     325       3   0.0+0
SPC            1     326       3   0.0+0
SPC            1     327       3   0.0+0
SPC            1     328       3   0.0+0
SPC            1     329       3   0.0+0
SPC            1     330       3   0.0+0
SPC            1     331       3   0.0+0
SPC            1     332       3   0.0+0
SPC            1     333       3   0.0+0
SPC            1     334       3   0.0+0
SPC            1     335       3   0.0+0
SPC            1     336       3   0.0+0
SPC            1     337       3   0.0+0
SPC            1     338       2  -1.0-1
SPC            1     338       3   0.0+0
SPC            1     339       3   0.0+0
SPC            1     340       2  -1.0-1
SPC            1     340       3   0.0+0
SPC            1     341       3   0.0+0
SPC            1     342       3   0.0+0
SPC            1     343       3   0.0+0
SPC            1     344       3   0.0+0
SPC            1     345       3   0.0+0
SPC            1     346       3   0.0+0
SPC            1     347       3   0.0+0
SPC            1     348       1   1.0-1
SPC            1     348       3   0.0+0
SPC            1     349       3   0.0+0
SPC            1     350       1   1.0-1
SPC            1     350       3   0.0+0
SPC            1     351       3   0.0+0
SPC            1     352       3   0.0+0
SPC            1     353       3   0.0+0
SPC            1     354       3   0.0+0
SPC            1     355       3   0.0+0
SPC            1     356       3   0.0+0
SPC            1     357       3   0.0+0
SPC            1     358       3   0.0+0
SPC            1     359       3   0.0+0
SPC            1     360       3   0.0+0
SPC            1     361       3   0.0+0
SPC            1     362       3   0.0+0
SPC            1     363       3   0.0+0
SPC            1     364       3   0.0+0
SPC            1     365       2   1.0-1
SPC            1     365       3   0.0+0
SPC            1     366       3   0.0+0
SPC            1     367       2   1.0-1
SPC            1     367       3   0.0+0
SPC            1     368       3   0.0+0
SPC            1     369       3   0.0+0
SPC            1     370       3   0.0+0
SPC            1     371       3   0.0+0
SPC            1     372       3   0.0+0
SPC            1     373       3   0.0+0
SPC            1     374       1   1.0-1
SPC            1     374       3   0.0+0
SPC            1     375       1   1.0-1
SPC            1     375       3   0.0+0
SPC            1     376       3   0.0+0
SPC            1     377       3   0.0+0
SPC            1     378       3   0.0+0
SPC            1     379       3   0.0+0
$--1---><--2---><--3---><--4---><--5---><--6---><--7---><--8---><--9---><--10-->
$$$$$$$$$$$$$$$$$$$$$$$$$$$$$$$$$$$ Default $$$$$$$$$$$$$$$$$$$$$$$$$$$$$$$$$$$$
PSOLID         9       1       0       3               1
CHEXA          1       9       1       9      11       3     163     165+
+            167     169       6      10       7       2     162     164+
+            166     168     276     277     278     279
CHEXA          2       9       3      11      13       5     169     167+
+            171     173       7      12       8       4     168     166+
+            170     172     278     280     281     282
CHEXA          3       9       9      17      19      11     165     175+
+            177     167      14      18      15      10     164     174+
+            176     166     283     284     285     277
CHEXA          4       9      11      19      21      13     167     177+
+            179     171      15      20      16      12     166     176+
+            178     170     285     286     287     280
CHEXA          5       9       5      13      32      24     173     171+
+            181     183       8      31      28      23     172     170+
+            180     182     281     288     289     290
CHEXA          6       9      24      32      34      26     183     181+
+            185     187      28      33      29      25     182     180+
+            184     186     289     291     292     293
CHEXA          7       9      13      21      40      32     171     179+
+            189     181      16      39      36      31     170     178+
+            188     180     287     294     295     288
CHEXA          8       9      32      40     105      34     181     189+
+            191     185      36      41     100      33     180     188+
+            190     184     295     296     297     291
CHEXA          9       9      43      51      53      45     193     195+
+            197     199      48      52      49      44     192     194+
+            196     198     298     299     300     301
CHEXA         10       9      45      53      24      26     199     197+
+            183     187      49      54      25      46     198     196+
+            182     186     300     302     293     303
CHEXA         11       9      51       1       3      53     195     163+
+            169     197      56       2      57      52     194     162+
+            168     196     304     279     305     299
CHEXA         12       9      53       3       5      24     197     169+
+            173     183      57       4      23      54     196     168+
+            172     182     305     282     290     302
CHEXA         13       9      72      64      66      74     201     203+
+            205     207      69      65      70      73     200     202+
+            204     206     306     307     308     309
CHEXA         14       9      74      66      68      76     207     205+
+            209     211      70      67      71      75     206     204+
+            208     210     308     310     311     312
CHEXA         15       9      80      72      74      82     213     201+
+            207     215      77      73      78      81     212     200+
+            206     214     313     309     314     315
CHEXA         16       9      82      74      76      84     215     207+
+            211     217      78      75      79      83     214     206+
+            210     216     314     312     316     317
CHEXA         17       9      76      68      87      95     211     209+
+            219     221      71      86      91      94     210     208+
+            218     220     311     318     319     320
CHEXA         18       9      95      87      26      34     221     219+
+            187     185      91      88      29      96     220     218+
+            186     184     319     321     292     322
CHEXA         19       9      84      76      95     103     217     211+
+            221     223      79      94      99     102     216     210+
+            220     222     316     320     323     324
CHEXA         20       9     103      95      34     105     223     221+
+            185     191      99      96     100     104     222     220+
+            184     190     323     322     297     325
CHEXA         21       9     114      43      45     116     225     193+
+            199     227     111      44     112     115     224     192+
+            198     226     326     301     327     328
CHEXA         22       9     116      45      26      87     227     199+
+            187     219     112      46      88     117     226     198+
+            186     218     327     303     321     329
CHEXA         23       9      64     114     116      66     203     225+
+            227     205     119     115     120      65     202     224+
+            226     204     330     328     331     307
CHEXA         24       9      66     116      87      68     205     227+
+            219     209     120     117      86      67     204     226+
+            218     208     331     329     318     310
CHEXA         25       9      64      72     137     129     203     201+
+            229     231      69     136     133     128     202     200+
+            228     230     306     332     333     334
CHEXA         26       9     129     137     139     131     231     229+
+            233     235     133     138     134     130     230     228+
+            232     234     333     335     336     337
CHEXA         27       9      72      80     145     137     201     213+
+            237     229      77     144     141     136     200     212+
+            236     228     313     338     339     332
CHEXA         28       9     137     145     147     139     229     237+
+            239     233     141     146     142     138     228     236+
+            238     232     339     340     341     335
CHEXA         29       9     131     139     158     150     235     233+
+            241     243     134     157     154     149     234     232+
+            240     242     336     342     343     344
CHEXA         30       9     150     158     160     152     243     241+
+            245     247     154     159     155     151     242     240+
+            244     246     343     345     346     347
CHEXA         31       9     139     147      37     158     233     239+
+            249     241     142      35      22     157     232     238+
+            248     240     341     348     349     342
CHEXA         32       9     158      37      42     160     241     249+
+            251     245      22      38      27     159     240     248+
+            250     244     349     350     351     345
CHEXA         33       9      43     114      89      55     193     225+
+            253     255     111      85      61      50     192     224+
+            252     254     326     352     353     354
CHEXA         34       9      55      89     150     152     255     253+
+            243     247      61      90     151      58     254     252+
+            242     246     353     355     347     356
CHEXA         35       9     114      64     129      89     225     203+
+            231     253     119     128      97      85     224     202+
+            230     252     330     334     357     352
CHEXA         36       9      89     129     131     150     253     231+
+            235     243      97     130     149      90     252     230+
+            234     242     357     337     344     355
CHEXA         37       9       9       1     118     132     165     163+
+            257     259       6     113     124     127     164     162+
+            256     258     276     358     359     360
CHEXA         38       9     132     118     122     140     259     257+
+            261     263     124     121     125     135     258     256+
+            260     262     359     361     362     363
CHEXA         39       9      17       9     132      30     175     165+
+            259     265      14     127     148     161     174     164+
+            258     264     283     360     364     365
CHEXA         40       9      30     132     140      59     265     259+
+            263     267     148     135     153      47     264     258+
+            262     266     364     363     366     367
CHEXA         41       9     140     122      63     109     263     261+
+            269     271     125      62     101     108     262     260+
+            268     270     362     368     369     370
CHEXA         42       9     109      63     152     160     271     269+
+            247     245     101      92     155     110     270     268+
+            246     244     369     371     346     372
CHEXA         43       9      59     140     109      98     267     263+
+            271     273     153     108     143      93     266     262+
+            270     272     366     370     373     374
CHEXA         44       9      98     109     160      42     273     271+
+            245     251     143     110      27     106     272     270+
+            244     250     373     372     351     375
CHEXA         45       9      51      43      55     123     195     193+
+            255     275      48      50     126     107     194     192+
+            254     274     298     354     376     377
CHEXA         46       9     123      55     152      63     275     255+
+            247     269     126      58      92     156     274     254+
+            246     268     376     356     371     378
CHEXA         47       9       1      51     123     118     163     195+
+            275     257      56     107      60     113     162     194+
+            274     256     304     377     379     358
CHEXA         48       9     118     123      63     122     257     275+
+            269     261      60     156      62     121     256     274+
+            268     260     379     378     368     361
$--1---><--2---><--3---><--4---><--5---><--6---><--7---><--8---><--9---><--10-->
ENDDATA 
