$ Generated by Mecway 33
$-----------------------EXECUTIVE CONTROL SECTION-----------------------
SOL 101
CEND
$-------------------------CASE CONTROL SECTION--------------------------
DISPLACEMENT = ALL
SPC = 1
LOAD = 1
BEGIN BULK
$---------------------------BULK DATA SECTION---------------------------
GRID           1       0   0.0+0   0.0+0   2.5+0       0
GRID           2       0   0.0+0   0.0+0   0.0+0       0
GRID           3       0   1.8+1   0.0+0   2.5+0       0
GRID           4       0   1.8+1   0.0+0   0.0+0       0
GRID           5       0   3.0+0   0.0+0   2.5+0       0
GRID           6       0   3.0+0   0.0+0   0.0+0       0
GRID           7       0   1.5+1   0.0+0   2.5+0       0
GRID           8       0   1.5+1   0.0+0   0.0+0       0
GRID           9       0   6.0+0   0.0+0   2.5+0       0
GRID          10       0   6.0+0   0.0+0   0.0+0       0
GRID          11       0   2.4+1   0.0+0   0.0+0       0
GRID          12       0   2.1+1   0.0+0   2.5+0       0
GRID          13       0   9.0+0   0.0+0   2.5+0       0
GRID          14       0   9.0+0   0.0+0   0.0+0       0
GRID          15       0   2.4+1   0.0+0   2.5+0       0
GRID          16       0   2.1+1   0.0+0   0.0+0       0
GRID          17       0   1.2+1   0.0+0   2.5+0       0
GRID          18       0   1.2+1   0.0+0   0.0+0       0
PARAM    STR_CID      -2
$--1---><--2---><--3---><--4---><--5---><--6---><--7---><--8---><--9---><--10-->
$$$$$$$$$$$$$$$$$$$$$$$$$$$$$$$$$$$ Material $$$$$$$$$$$$$$$$$$$$$$$$$$$$$$$$$$$
MAT1           1  2.0+11  1.0+11   0.0+0   0.0+0   0.0+0   0.0+0
$--1---><--2---><--3---><--4---><--5---><--6---><--7---><--8---><--9---><--10-->
$$$$$$$$$$$$$$$$$$$$$$$$$$$$$$$$$ Material(2) $$$$$$$$$$$$$$$$$$$$$$$$$$$$$$$$$$
MAT1           2  2.0+11  1.0+11   0.0+0   0.0+0   0.0+0   0.0+0
$--1---><--2---><--3---><--4---><--5---><--6---><--7---><--8---><--9---><--10-->
$$$$$$$$$$$$$$$$$$$$$$$$$$$$$$$$$ Material(3) $$$$$$$$$$$$$$$$$$$$$$$$$$$$$$$$$$
MAT1           3  2.0+11  1.0+11   0.0+0   0.0+0   0.0+0   0.0+0
$--1---><--2---><--3---><--4---><--5---><--6---><--7---><--8---><--9---><--10-->
$$$$$$$$$$$$$$$$$$$$$$$$$$$$$$$$$ Material(4) $$$$$$$$$$$$$$$$$$$$$$$$$$$$$$$$$$
MAT1           4  2.0+11  1.0+11   0.0+0   0.0+0   0.0+0   0.0+0
$--1---><--2---><--3---><--4---><--5---><--6---><--7---><--8---><--9---><--10-->
$$$$$$$$$$$$$$$$$$$$$$$$$$$$$$$$$ Material(5) $$$$$$$$$$$$$$$$$$$$$$$$$$$$$$$$$$
MAT1           5  2.0+11  1.0+11   0.0+0   0.0+0   0.0+0   0.0+0
$--1---><--2---><--3---><--4---><--5---><--6---><--7---><--8---><--9---><--10-->
$$$$$$$$$$$$$$$$$$$$$$$$$$$$$$$$$ Material(6) $$$$$$$$$$$$$$$$$$$$$$$$$$$$$$$$$$
MAT1           6  2.0+11  1.0+11   0.0+0   0.0+0   0.0+0   0.0+0
$--1---><--2---><--3---><--4---><--5---><--6---><--7---><--8---><--9---><--10-->
$$$$$$$$$$$$$$$$$$$$$$$$$$$$$$$$$ Material(7) $$$$$$$$$$$$$$$$$$$$$$$$$$$$$$$$$$
MAT1           7  2.0+11  1.0+11   0.0+0   0.0+0   0.0+0   0.0+0
$--1---><--2---><--3---><--4---><--5---><--6---><--7---><--8---><--9---><--10-->
$$$$$$$$$$$$$$$$$$$$$$$$$$$$$$$$$ Material(8) $$$$$$$$$$$$$$$$$$$$$$$$$$$$$$$$$$
MAT1           8  2.0+11  1.0+11   0.0+0   0.0+0   0.0+0   0.0+0
$--1---><--2---><--3---><--4---><--5---><--6---><--7---><--8---><--9---><--10-->
$$$$$$$$$$$$$$$$$$$$$$$$$$$$$$$$$ Material(9) $$$$$$$$$$$$$$$$$$$$$$$$$$$$$$$$$$
MAT1           9  2.0+11  1.0+11   0.0+0   0.0+0   0.0+0   0.0+0
$--1---><--2---><--3---><--4---><--5---><--6---><--7---><--8---><--9---><--10-->
SPC            1       1       1   0.0+0
SPC            1       1       2   0.0+0
SPC            1       1       3   0.0+0
SPC            1       2       1   0.0+0
SPC            1       2       2   0.0+0
SPC            1       3       1   0.0+0
SPC            1       3       2   0.0+0
SPC            1       3       3   0.0+0
SPC            1       4       1   0.0+0
SPC            1       4       2   0.0+0
SPC            1       5       1   0.0+0
SPC            1       5       2   0.0+0
SPC            1       5       3   0.0+0
SPC            1       6       1   0.0+0
SPC            1       6       2   0.0+0
SPC            1       7       1   0.0+0
SPC            1       7       2   0.0+0
SPC            1       7       3   0.0+0
SPC            1       8       1   0.0+0
SPC            1       8       2   0.0+0
SPC            1       9       1   0.0+0
SPC            1       9       2   0.0+0
SPC            1       9       3   0.0+0
SPC            1      10       1   0.0+0
SPC            1      10       2   0.0+0
SPC            1      11       1   0.0+0
SPC            1      11       2   0.0+0
SPC            1      12       1   0.0+0
SPC            1      12       2   0.0+0
SPC            1      12       3   0.0+0
SPC            1      13       1   0.0+0
SPC            1      13       2   0.0+0
SPC            1      13       3   0.0+0
SPC            1      14       1   0.0+0
SPC            1      14       2   0.0+0
SPC            1      15       1   0.0+0
SPC            1      15       2   0.0+0
SPC            1      15       3   0.0+0
SPC            1      16       1   0.0+0
SPC            1      16       2   0.0+0
SPC            1      17       1   0.0+0
SPC            1      17       2   0.0+0
SPC            1      17       3   0.0+0
SPC            1      18       1   0.0+0
SPC            1      18       2   0.0+0
$--1---><--2---><--3---><--4---><--5---><--6---><--7---><--8---><--9---><--10-->
$$$$$$$$$$$$$$$$$$$$$$$$$$$$$$$$$$ Component $$$$$$$$$$$$$$$$$$$$$$$$$$$$$$$$$$$
PROD           1       1   2.8-3
CROD           3       1       2       1
$--1---><--2---><--3---><--4---><--5---><--6---><--7---><--8---><--9---><--10-->
$$$$$$$$$$$$$$$$$$$$$$$$$$$$$$$$$ Component(1) $$$$$$$$$$$$$$$$$$$$$$$$$$$$$$$$$
PROD           2       2   2.0-3
CROD           6       2       6       5
$--1---><--2---><--3---><--4---><--5---><--6---><--7---><--8---><--9---><--10-->
$$$$$$$$$$$$$$$$$$$$$$$$$$$$$$$$$ Component(2) $$$$$$$$$$$$$$$$$$$$$$$$$$$$$$$$$
PROD           3       3   2.9-3
CROD           9       3      10       9
$--1---><--2---><--3---><--4---><--5---><--6---><--7---><--8---><--9---><--10-->
$$$$$$$$$$$$$$$$$$$$$$$$$$$$$$$$$ Component(3) $$$$$$$$$$$$$$$$$$$$$$$$$$$$$$$$$
PROD           4       4   3.8-3
CROD           5       4      14      13
$--1---><--2---><--3---><--4---><--5---><--6---><--7---><--8---><--9---><--10-->
$$$$$$$$$$$$$$$$$$$$$$$$$$$$$$$$$ Component(4) $$$$$$$$$$$$$$$$$$$$$$$$$$$$$$$$$
PROD           5       5   3.0-2
CROD           8       5      18      17
$--1---><--2---><--3---><--4---><--5---><--6---><--7---><--8---><--9---><--10-->
$$$$$$$$$$$$$$$$$$$$$$$$$$$$$$$$$ Component(5) $$$$$$$$$$$$$$$$$$$$$$$$$$$$$$$$$
PROD           6       6   9.6-3
CROD           4       6       8       7
$--1---><--2---><--3---><--4---><--5---><--6---><--7---><--8---><--9---><--10-->
$$$$$$$$$$$$$$$$$$$$$$$$$$$$$$$$$ Component(6) $$$$$$$$$$$$$$$$$$$$$$$$$$$$$$$$$
PROD*                  7               7 3.14159265359-2                *
*
CROD           7       7       4       3
$--1---><--2---><--3---><--4---><--5---><--6---><--7---><--8---><--9---><--10-->
$$$$$$$$$$$$$$$$$$$$$$$$$$$$$$$$$ Component(7) $$$$$$$$$$$$$$$$$$$$$$$$$$$$$$$$$
PROD*                  8               8 4.71238898038-3                *
*
CROD           1       8      16      12
$--1---><--2---><--3---><--4---><--5---><--6---><--7---><--8---><--9---><--10-->
$$$$$$$$$$$$$$$$$$$$$$$$$$$$$$$$$ Component(8) $$$$$$$$$$$$$$$$$$$$$$$$$$$$$$$$$
PROD           9       9  2.34-2
CROD           2       9      11      15
$--1---><--2---><--3---><--4---><--5---><--6---><--7---><--8---><--9---><--10-->
$$$$$$$$$$$$$$$$$$$$$$$$$$$$$$$$$$$$ force $$$$$$$$$$$$$$$$$$$$$$$$$$$$$$$$$$$$$
FORCE          2       2       0   1.0+0   0.0+0   0.0+0   1.5+3
FORCE          2       6       0   1.0+0   0.0+0   0.0+0   1.5+3
FORCE          2      10       0   1.0+0   0.0+0   0.0+0   1.5+3
FORCE          2      14       0   1.0+0   0.0+0   0.0+0   1.5+3
FORCE          2      18       0   1.0+0   0.0+0   0.0+0   1.5+3
FORCE          2       8       0   1.0+0   0.0+0   0.0+0   1.5+3
FORCE          2       4       0   1.0+0   0.0+0   0.0+0   1.5+3
FORCE          2      16       0   1.0+0   0.0+0   0.0+0   1.5+3
FORCE          2      11       0   1.0+0   0.0+0   0.0+0   1.5+3
$--1---><--2---><--3---><--4---><--5---><--6---><--7---><--8---><--9---><--10-->
LOAD           1   1.0+0   1.0+0       2
ENDDATA 
