$ Generated by Mecway 33
$-----------------------EXECUTIVE CONTROL SECTION-----------------------
SOL 101
CEND
$-------------------------CASE CONTROL SECTION--------------------------
DISPLACEMENT = ALL
SPC = 1
TEMPERATURE = 4
BEGIN BULK
$---------------------------BULK DATA SECTION---------------------------
GRID           1       0   0.0+0   0.0+0   0.0+0       0
GRID           2       0   1.0+0   0.0+0   0.0+0       0
GRID           3       0   1.0+0   1.0+0   0.0+0       0
GRID           4       0   0.0+0   1.0+0   0.0+0       0
GRID           5       0   0.0+0   0.0+0   1.0+0       0
GRID           6       0   1.0+0   0.0+0   1.0+0       0
GRID           7       0   1.0+0   1.0+0   1.0+0       0
GRID           8       0   0.0+0   1.0+0   1.0+0       0
GRID           9       0   1.0+0   5.0-1   1.0+0       0
GRID          10       0   1.0+0   1.0+0   5.0-1       0
GRID          11       0   1.0+0   5.0-1   5.0-1       0
GRID          12       0   5.0-1   5.0-1   1.0+0       0
GRID          13       0   5.0-1   1.0+0   1.0+0       0
GRID          14       0   5.0-1   1.0+0   5.0-1       0
GRID          15       0   5.0-1   0.0+0   5.0-1       0
GRID          16       0   0.0+0   5.0-1   5.0-1       0
GRID          17       0   0.0+0   0.0+0   5.0-1       0
GRID          18       0   5.0-1   0.0+0   1.0+0       0
GRID          19       0   0.0+0   5.0-1   1.0+0       0
GRID          20       0   5.0-1   5.0-1   0.0+0       0
GRID          21       0   5.0-1   1.0+0   0.0+0       0
GRID          22       0   0.0+0   5.0-1   0.0+0       0
GRID          23       0   0.0+0   1.0+0   5.0-1       0
GRID          24       0   5.0-1   0.0+0   0.0+0       0
GRID          25       0   1.0+0   5.0-1   0.0+0       0
GRID          26       0   1.0+0   0.0+0   5.0-1       0
GRID          27       0   0.0+0   3.0+0   0.0+0       0
GRID          28       0   1.0+0   3.0+0   0.0+0       0
GRID          29       0   1.0+0   4.0+0   0.0+0       0
GRID          30       0   0.0+0   4.0+0   0.0+0       0
GRID          31       0   0.0+0   3.0+0   1.0+0       0
GRID          32       0   1.0+0   3.0+0   1.0+0       0
GRID          33       0   1.0+0   4.0+0   1.0+0       0
GRID          34       0   0.0+0   4.0+0   1.0+0       0
GRID          35       0   0.0+0   1.5+0   0.0+0       0
GRID          36       0   0.0+0   2.0+0   0.0+0       0
GRID          37       0   0.0+0   1.5+0   1.0+0       0
GRID          38       0   0.0+0   2.0+0   1.0+0       0
GRID          39       0   1.0+0   1.5+0   0.0+0       0
GRID          40       0   1.0+0   2.0+0   0.0+0       0
GRID          41       0   1.0+0   1.5+0   1.0+0       0
GRID          42       0   1.0+0   2.0+0   1.0+0       0
GRID          43       0   0.0+0   2.0+0   5.0-1       0
GRID          44       0   5.0-1   2.0+0   5.0-1       0
GRID          45       0   5.0-1   2.0+0   0.0+0       0
GRID          46       0   5.0-1   2.0+0   1.0+0       0
GRID          47       0   1.0+0   2.0+0   5.0-1       0
GRID          48       0   0.0+0   5.0+0   0.0+0       0
GRID          49       0   1.0+0   5.0+0   0.0+0       0
GRID          50       0   1.0+0   6.0+0   0.0+0       0
GRID          51       0   0.0+0   6.0+0   0.0+0       0
GRID          52       0   0.0+0   5.0+0   1.0+0       0
GRID          53       0   1.0+0   5.0+0   1.0+0       0
GRID          54       0   1.0+0   6.0+0   1.0+0       0
GRID          55       0   0.0+0   6.0+0   1.0+0       0
GRID*                 56               0 1.83700055043+0-2.99999957085+0*
*        1.46454092091-1               0
GRID*                 57               0 2.07192370562+0-2.99999957085+0*
*        6.09490562598-2               0
GRID*                 58               0 2.07192370562+0-1.99999957085+0*
*        6.09490562598-2               0
GRID*                 59               0 1.83700055043+0-1.99999957085+0*
*        1.46454092091-1               0
GRID*                 60               0 1.92250558626+0-2.99999957085+0*
*        3.81377247288-1               0
GRID*                 61               0 2.15742874146+0-2.99999957085+0*
*        2.95872211456-1               0
GRID*                 62               0 2.15742874146+0-1.99999957085+0*
*        2.95872211456-1               0
GRID*                 63               0 1.92250558626+0-1.99999957085+0*
*        3.81377247288-1               0
GRID*                 64               0 1.83700055043+0 2.00000042915+0*
*        1.46454092091-1               0
GRID*                 65               0 2.07192370562+0 2.00000042915+0*
*        6.09490562598-2               0
GRID*                 66               0 2.07192370562+0 3.00000042915+0*
*        6.09490562598-2               0
GRID*                 67               0 1.83700055043+0 3.00000042915+0*
*        1.46454092091-1               0
GRID*                 68               0 1.92250558626+0 2.00000042915+0*
*        3.81377247288-1               0
GRID*                 69               0 2.15742874146+0 2.00000042915+0*
*        2.95872211456-1               0
GRID*                 70               0 2.15742874146+0 3.00000042915+0*
*        2.95872211456-1               0
GRID*                 71               0 1.92250558626+0 3.00000042915+0*
*        3.81377247288-1               0
GRID*                 72               0 1.83700055043+0-9.99999570847-1*
*        1.46454092091-1               0
GRID*                 73               0 2.07192370562+0-9.99999570847-1*
*        6.09490562598-2               0
GRID*                 74               0 2.07192370562+0 4.29153487858-7*
*        6.09490562598-2               0
GRID*                 75               0 1.83700055043+0 4.29153487858-7*
*        1.46454092091-1               0
GRID*                 76               0 1.92250558626+0-9.99999570847-1*
*        3.81377247288-1               0
GRID*                 77               0 2.15742874146+0-9.99999570847-1*
*        2.95872211456-1               0
GRID*                 78               0 2.15742874146+0 4.29153487858-7*
*        2.95872211456-1               0
GRID*                 79               0 1.92250558626+0 4.29153487858-7*
*        3.81377247288-1               0
GRID*                 80               0 1.83700055043+0 1.00000042915+0*
*        1.46454092091-1               0
GRID*                 81               0 2.07192370562+0 1.00000042915+0*
*        6.09490562598-2               0
GRID*                 82               0 1.92250558626+0 1.00000042915+0*
*        3.81377247288-1               0
GRID*                 83               0 2.15742874146+0 1.00000042915+0*
*        2.95872211456-1               0
PARAM    STR_CID      -2
$--1---><--2---><--3---><--4---><--5---><--6---><--7---><--8---><--9---><--10-->
$$$$$$$$$$$$$$$$$$$$$$$$$$$$$$$$$$$ Material $$$$$$$$$$$$$$$$$$$$$$$$$$$$$$$$$$$
MAT1*                  1          1.5+11 5.7692307692+10           3.0-1*
*                  0.0+0           4.0-3        2.8315+2
$--1---><--2---><--3---><--4---><--5---><--6---><--7---><--8---><--9---><--10-->
SPC            1       1       1   0.0+0
SPC            1       1       2   0.0+0
SPC            1       1       3   0.0+0
SPC            1       2       2   0.0+0
SPC            1       5       2   0.0+0
SPC            1       5       1   0.0+0
SPC            1      27       1   0.0+0
SPC            1      27       2   0.0+0
SPC            1      27       3   0.0+0
SPC            1      28       2   0.0+0
SPC            1      31       2   0.0+0
SPC            1      31       1   0.0+0
SPC            1      48       1   0.0+0
SPC            1      48       2   0.0+0
SPC            1      48       3   0.0+0
SPC            1      49       2   0.0+0
SPC            1      52       2   0.0+0
SPC            1      52       1   0.0+0
SPC            1      56       1   0.0+0
SPC            1      56       2   0.0+0
SPC            1      56       3   0.0+0
SPC            1      57       2   0.0+0
SPC            1      60       1   0.0+0
SPC            1      60       2   0.0+0
SPC            1      61       2   0.0+0
$--1---><--2---><--3---><--4---><--5---><--6---><--7---><--8---><--9---><--10-->
$$$$$$$$$$$$$$$$$$$$$$$$$$$$$$$$$$$ Default $$$$$$$$$$$$$$$$$$$$$$$$$$$$$$$$$$$$
PSOLID         1       1       0                        
CTETRA         2       1       1       6       8       5      15      12+
+             16      17      18      19
CTETRA         4       1       1       6       3       8      15      11+
+             20      16      12      14
CTETRA         5       1       1       2       3       6      24      25+
+             20      15      26      11
PSOLID         2       1       0       2               1
CHEXA          6       2      27      28      29      30      31      32+
+             33      34
CHEXA          9       2      48      49      50      51      52      53+
+             54      55
CHEXA         10       2      56      57      58      59      60      61+
+             62      63
CHEXA         11       2      74      81      80      75      78      83+
+             82      79
CHEXA         12       2      72      73      74      75      76      77+
+             78      79
CHEXA         13       2      72      73      77      76      59      58+
+             62      63
CHEXA         14       2      80      81      65      64      82      83+
+             69      68
CHEXA         15       2      64      65      66      67      68      69+
+             70      71
$--1---><--2---><--3---><--4---><--5---><--6---><--7---><--8---><--9---><--10-->
$$$$$$$$$$$$$$$$$$$$$$$$$$$$$$$$$$ Component $$$$$$$$$$$$$$$$$$$$$$$$$$$$$$$$$$$
PSOLID         3       1       0                        
CTETRA         1       3       6       7       3       8       9      10+
+             11      12      13      14
CTETRA         3       3       1       3       4       8      20      21+
+             22      16      14      23
PSOLID         4       1       0       3               1
CPENTA         7       4       4       8       3      36      38      40+
+             23      14      21      35      37      39      43      44+
+             45
CPENTA         8       4       3       8       7      40      38      42+
+             14      13      10      39      37      41      44      46+
+             47
$--1---><--2---><--3---><--4---><--5---><--6---><--7---><--8---><--9---><--10-->
$$$$$$$$$$$$$$$$$$$$$$$$$$$$$$$$$ temperature $$$$$$$$$$$$$$$$$$$$$$$$$$$$$$$$$$
TEMP*                  4               1        3.7315+2                *
*
TEMP*                  4               2        3.7315+2                *
*
TEMP*                  4               3        3.7315+2                *
*
TEMP*                  4               4        3.7315+2                *
*
TEMP*                  4               5        3.7315+2                *
*
TEMP*                  4               6        3.7315+2                *
*
TEMP*                  4               7        3.7315+2                *
*
TEMP*                  4               8        3.7315+2                *
*
TEMP*                  4               9        3.7315+2                *
*
TEMP*                  4              10        3.7315+2                *
*
TEMP*                  4              11        3.7315+2                *
*
TEMP*                  4              12        3.7315+2                *
*
TEMP*                  4              13        3.7315+2                *
*
TEMP*                  4              14        3.7315+2                *
*
TEMP*                  4              15        3.7315+2                *
*
TEMP*                  4              16        3.7315+2                *
*
TEMP*                  4              17        3.7315+2                *
*
TEMP*                  4              18        3.7315+2                *
*
TEMP*                  4              19        3.7315+2                *
*
TEMP*                  4              20        3.7315+2                *
*
TEMP*                  4              21        3.7315+2                *
*
TEMP*                  4              22        3.7315+2                *
*
TEMP*                  4              23        3.7315+2                *
*
TEMP*                  4              24        3.7315+2                *
*
TEMP*                  4              25        3.7315+2                *
*
TEMP*                  4              26        3.7315+2                *
*
$--1---><--2---><--3---><--4---><--5---><--6---><--7---><--8---><--9---><--10-->
$$$$$$$$$$$$$$$$$$$$$$$$$$$$$$$$$ temperature $$$$$$$$$$$$$$$$$$$$$$$$$$$$$$$$$$
TEMP*                  4              40        3.7315+2                *
*
TEMP*                  4              38        3.7315+2                *
*
TEMP*                  4              42        3.7315+2                *
*
TEMP*                  4              39        3.7315+2                *
*
TEMP*                  4              37        3.7315+2                *
*
TEMP*                  4              41        3.7315+2                *
*
TEMP*                  4              44        3.7315+2                *
*
TEMP*                  4              46        3.7315+2                *
*
TEMP*                  4              47        3.7315+2                *
*
$--1---><--2---><--3---><--4---><--5---><--6---><--7---><--8---><--9---><--10-->
$$$$$$$$$$$$$$$$$$$$$$$$$$$$$$$$$ temperature $$$$$$$$$$$$$$$$$$$$$$$$$$$$$$$$$$
TEMP*                  4              43        3.7315+2                *
*
TEMP*                  4              36        3.7315+2                *
*
TEMP*                  4              35        3.7315+2                *
*
TEMP*                  4              45        3.7315+2                *
*
$--1---><--2---><--3---><--4---><--5---><--6---><--7---><--8---><--9---><--10-->
$$$$$$$$$$$$$$$$$$$$$$$$$$$$$$$$$ temperature $$$$$$$$$$$$$$$$$$$$$$$$$$$$$$$$$$
TEMP*                  4              56 2.23150008583+2                *
*
TEMP*                  4              57 2.23150008583+2                *
*
TEMP*                  4              58 2.43150008583+2                *
*
TEMP*                  4              59 2.43150008583+2                *
*
TEMP*                  4              60 2.23150008583+2                *
*
TEMP*                  4              61 2.23150008583+2                *
*
TEMP*                  4              62 2.43150008583+2                *
*
TEMP*                  4              63 2.43150008583+2                *
*
TEMP*                  4              74 2.83150008583+2                *
*
TEMP*                  4              81 3.03150008583+2                *
*
TEMP*                  4              80 3.03150008583+2                *
*
TEMP*                  4              75 2.83150008583+2                *
*
TEMP*                  4              78 2.83150008583+2                *
*
TEMP*                  4              83 3.03150008583+2                *
*
TEMP*                  4              82 3.03150008583+2                *
*
TEMP*                  4              79 2.83150008583+2                *
*
TEMP*                  4              72 2.63150008583+2                *
*
TEMP*                  4              73 2.63150008583+2                *
*
TEMP*                  4              76 2.63150008583+2                *
*
TEMP*                  4              77 2.63150008583+2                *
*
TEMP*                  4              65 3.23150008583+2                *
*
TEMP*                  4              64 3.23150008583+2                *
*
TEMP*                  4              69 3.23150008583+2                *
*
TEMP*                  4              68 3.23150008583+2                *
*
TEMP*                  4              66 3.43150008583+2                *
*
TEMP*                  4              67 3.43150008583+2                *
*
TEMP*                  4              70 3.43150008583+2                *
*
TEMP*                  4              71 3.43150008583+2                *
*
$--1---><--2---><--3---><--4---><--5---><--6---><--7---><--8---><--9---><--10-->
$$$$$$$$$$$$$$$$$$$$$$$$$$$$$$$ node temperature $$$$$$$$$$$$$$$$$$$$$$$$$$$$$$$
TEMP*                  4              27        3.8315+2                *
*
TEMP*                  4              28        3.8315+2                *
*
TEMP*                  4              29        3.8315+2                *
*
TEMP*                  4              30        3.8315+2                *
*
TEMP*                  4              31        3.8315+2                *
*
TEMP*                  4              32        3.8315+2                *
*
TEMP*                  4              33        3.8315+2                *
*
TEMP*                  4              34        3.8315+2                *
*
$--1---><--2---><--3---><--4---><--5---><--6---><--7---><--8---><--9---><--10-->
TEMPD*                 4        2.8315+2                                *
*
$--1---><--2---><--3---><--4---><--5---><--6---><--7---><--8---><--9---><--10-->
ENDDATA 
